<?xml version="1.0" encoding="UTF-8" standalone="no"?><!DOCTYPE svg PUBLIC "-//W3C//DTD SVG 1.1//EN" "http://www.w3.org/Graphics/SVG/1.1/DTD/svg11.dtd"><svg width="100%" height="100%" viewBox="0 0 600 600" version="1.1" xmlns="http://www.w3.org/2000/svg" xmlns:xlink="http://www.w3.org/1999/xlink" xml:space="preserve" xmlns:serif="http://www.serif.com/" style="fill-rule:evenodd;clip-rule:evenodd;stroke-linejoin:round;stroke-miterlimit:2;"><rect id="logo-cityupdate" x="0" y="0" width="600" height="600" style="fill:none;"/><g><path d="M203.087,284.274c-0.1,-0.076 -0.149,-0.114 -0.149,-0.114c-0.362,-0.287 -0.722,-0.571 -1.082,-0.856c-0.387,-0.243 -0.776,-0.487 -1.163,-0.73c-0.748,-0.543 -1.615,-0.86 -2.421,-1.304c-1.924,-0.814 -3.952,-1.408 -6.051,-1.689c-0.72,-0.055 -1.439,-0.11 -2.158,-0.165c-0.702,0.018 -1.402,0.035 -2.102,0.053c-0.697,0.085 -1.395,0.17 -2.093,0.255c-2.1,0.389 -4.141,1.071 -6.078,1.997c-1.917,0.973 -3.666,2.25 -5.275,3.706c-0.501,0.523 -1.001,1.045 -1.502,1.568l-0.01,0.011c-0.447,0.574 -0.893,1.147 -1.34,1.719c-0.389,0.613 -0.778,1.227 -1.168,1.84c-1.037,1.918 -1.867,3.96 -2.365,6.112c-0.145,0.727 -0.246,1.466 -0.384,2.199c-0.055,0.745 -0.11,1.49 -0.165,2.235c0.018,0.724 0.036,1.449 0.055,2.173c0.2,2.218 0.692,4.411 1.464,6.518c0.817,2.089 1.959,4.039 3.31,5.848c0.493,0.57 0.984,1.141 1.476,1.711c0.136,0.13 0.273,0.261 0.41,0.392l0.821,0.784c0.137,0.131 0.274,0.262 0.411,0.392l0.012,0.011c0.598,0.465 1.196,0.93 1.794,1.396c1.891,1.267 3.923,2.343 6.103,3.072c2.207,0.69 4.509,1.092 6.846,1.18c2.303,0.009 4.607,-0.278 6.853,-0.86c2.248,-0.643 4.391,-1.62 6.398,-2.843c0.826,-0.616 1.741,-1.128 2.492,-1.849c0.394,-0.339 0.788,-0.677 1.182,-1.015c0.359,-0.379 0.716,-0.756 1.075,-1.135c0,0 0.199,-0.206 0.596,-0.619l0.262,-0.273c1.339,-1.392 3.552,-1.435 4.944,-0.096c1.343,1.291 1.424,3.405 0.227,4.801l-0.24,0.28l0,0c-0.321,0.372 -0.481,0.558 -0.481,0.558c-0.441,0.508 -0.884,1.016 -1.325,1.524c-0.488,0.463 -0.977,0.928 -1.465,1.393c-0.948,0.968 -2.08,1.72 -3.143,2.56c-2.544,1.735 -5.314,3.153 -8.253,4.138c-2.932,0.922 -5.986,1.453 -9.076,1.572c-3.137,0.043 -6.282,-0.347 -9.336,-1.16c-3.024,-0.851 -5.9,-2.181 -8.585,-3.828c-0.855,-0.602 -1.711,-1.207 -2.564,-1.809l-0.019,-0.014c-0.794,-0.688 -1.586,-1.376 -2.379,-2.064c-0.742,-0.744 -1.453,-1.524 -2.175,-2.293c-2.033,-2.433 -3.774,-5.129 -5.072,-8.047c-1.252,-2.934 -2.105,-6.035 -2.529,-9.215c-0.077,-1.043 -0.152,-2.084 -0.229,-3.126c0.022,-1.081 0.034,-2.166 0.084,-3.249c0.128,-1.076 0.234,-2.158 0.404,-3.232c0.571,-3.18 1.633,-6.265 3.061,-9.182c0.526,-0.94 1.045,-1.89 1.604,-2.815c0.623,-0.882 1.246,-1.765 1.87,-2.646l0.014,-0.019c0.709,-0.816 1.417,-1.631 2.125,-2.447c2.29,-2.319 4.869,-4.381 7.731,-6.003c2.88,-1.576 5.971,-2.772 9.186,-3.513c1.067,-0.201 2.141,-0.376 3.215,-0.551c1.087,-0.079 2.173,-0.159 3.258,-0.238c1.126,0.022 2.257,0.032 3.385,0.092c3.309,0.269 6.576,1.035 9.704,2.209c1.336,0.603 2.728,1.114 3.983,1.884c0.639,0.361 1.284,0.72 1.914,1.099c0.601,0.42 1.203,0.843 1.804,1.265c0,0 0.329,0.235 0.985,0.705c2.923,2.093 3.596,6.16 1.502,9.084c-2.093,2.923 -6.159,3.596 -9.082,1.502l-0.148,-0.109l-0.505,-0.387l-0.448,-0.343Z" style="fill:#fff;"/><path d="M202.275,291.349c1.064,1.014 2.025,2.163 2.791,3.454c0.746,1.296 1.327,2.7 1.689,4.17c0.341,1.474 0.481,2.998 0.409,4.527c-0.098,1.528 -0.417,3.046 -0.937,4.51c-0.54,1.458 -1.311,2.832 -2.241,4.096c-0.959,1.234 -2.078,2.35 -3.358,3.295c-1.297,0.92 -2.719,1.68 -4.239,2.211c-1.523,0.51 -3.118,0.813 -4.74,0.891c-1.62,0.047 -3.253,-0.131 -4.847,-0.532c-1.59,-0.421 -3.12,-1.088 -4.547,-1.946c-1.413,-0.883 -2.686,-1.964 -3.812,-3.204c-1.096,-1.269 -2.045,-2.689 -2.757,-4.236c-0.693,-1.553 -1.178,-3.204 -1.419,-4.902c-0.214,-1.7 -0.193,-3.433 0.067,-5.148c0.284,-1.711 0.824,-3.386 1.581,-4.973c0.779,-1.58 1.803,-3.03 2.985,-4.338l0.092,-0.1c2.417,-2.673 6.544,-2.882 9.218,-0.465c2.674,2.417 2.882,6.545 0.465,9.218c-0.171,0.19 -0.379,0.391 -0.567,0.556c-0.379,0.33 -0.743,0.679 -1.042,1.094c-0.276,0.424 -0.521,0.885 -0.695,1.391c-0.149,0.511 -0.24,1.05 -0.265,1.606c0.003,0.552 0.082,1.107 0.224,1.656c0.161,0.543 0.415,1.057 0.719,1.561c0.341,0.484 0.741,0.943 1.197,1.337c0.474,0.369 0.99,0.7 1.565,0.946c0.579,0.224 1.196,0.383 1.838,0.461c0.643,0.048 1.298,0.014 1.95,-0.103c0.645,-0.136 1.267,-0.374 1.872,-0.68c0.589,-0.331 1.144,-0.756 1.65,-1.245c0.471,-0.51 0.903,-1.07 1.238,-1.702c1.366,-2.53 1.053,-6.045 -1.042,-8.447l-0.101,-0.116c-1.272,-1.459 -1.121,-3.674 0.338,-4.945c1.373,-1.197 3.424,-1.123 4.721,0.102Z" style="fill:#fff;"/><path d="M252.838,306.228c0.169,0 0.337,0.031 0.505,0.095c0.169,0.062 0.33,0.17 0.484,0.325l2.819,2.966c-1.234,1.613 -2.781,2.829 -4.638,3.65c-1.859,0.821 -4.057,1.231 -6.595,1.231c-2.328,0 -4.414,-0.397 -6.258,-1.189c-1.845,-0.793 -3.409,-1.886 -4.692,-3.282c-1.282,-1.395 -2.268,-3.05 -2.955,-4.963c-0.688,-1.915 -1.032,-3.995 -1.032,-6.238c0,-2.286 0.372,-4.387 1.116,-6.301c0.743,-1.914 1.788,-3.565 3.134,-4.953c1.347,-1.389 2.959,-2.469 4.839,-3.241c1.879,-0.77 3.946,-1.156 6.205,-1.156c1.15,0 2.233,0.102 3.25,0.304c1.017,0.204 1.967,0.484 2.851,0.843c0.883,0.357 1.696,0.788 2.44,1.293c0.743,0.505 1.402,1.052 1.977,1.64l-2.398,3.219c-0.155,0.197 -0.336,0.375 -0.547,0.536c-0.21,0.163 -0.505,0.243 -0.883,0.243c-0.253,0 -0.491,-0.056 -0.715,-0.168c-0.225,-0.113 -0.463,-0.249 -0.716,-0.41c-0.252,-0.162 -0.53,-0.337 -0.831,-0.527c-0.302,-0.188 -0.659,-0.364 -1.072,-0.525c-0.414,-0.161 -0.898,-0.298 -1.451,-0.411c-0.555,-0.112 -1.203,-0.168 -1.947,-0.168c-1.178,0 -2.255,0.217 -3.228,0.652c-0.976,0.435 -1.817,1.069 -2.526,1.903c-0.708,0.835 -1.255,1.86 -1.64,3.073c-0.385,1.213 -0.578,2.597 -0.578,4.154c0,1.571 0.213,2.966 0.641,4.186c0.428,1.22 1.01,2.247 1.746,3.081c0.736,0.835 1.595,1.47 2.577,1.904c0.982,0.435 2.034,0.653 3.155,0.653c0.645,0 1.235,-0.031 1.768,-0.095c0.532,-0.063 1.03,-0.169 1.493,-0.315c0.463,-0.148 0.898,-0.344 1.304,-0.589c0.407,-0.245 0.821,-0.558 1.241,-0.937c0.169,-0.14 0.35,-0.256 0.547,-0.346c0.197,-0.091 0.4,-0.137 0.61,-0.137Z" style="fill:#fff;fill-rule:nonzero;"/><path d="M265.355,314.158l-6.269,0l0,-22.13l6.269,0l0,22.13Zm0.589,-28.525c0,1.151 -0.372,2.055 -1.115,2.714c-0.744,0.659 -1.621,0.989 -2.629,0.989c-1.01,0 -1.887,-0.33 -2.63,-0.989c-0.744,-0.659 -1.116,-1.563 -1.116,-2.714c0,-1.15 0.372,-2.054 1.116,-2.713c0.743,-0.66 1.62,-0.989 2.63,-0.989c1.008,0 1.885,0.329 2.629,0.989c0.743,0.659 1.115,1.563 1.115,2.713Z" style="fill:#fff;fill-rule:nonzero;"/><path d="M269.351,286.517l6.269,-1.01l0,6.521l7.531,0l0,5.217l-7.531,0l0,7.784c0,1.318 0.231,2.37 0.694,3.155c0.462,0.785 1.394,1.178 2.797,1.178c0.674,0 1.368,-0.063 2.083,-0.189c0.714,-0.127 1.368,-0.302 1.957,-0.526l0.883,4.88c-0.757,0.31 -1.599,0.575 -2.524,0.8c-0.926,0.223 -2.063,0.336 -3.408,0.336c-1.711,0 -3.128,-0.231 -4.25,-0.695c-1.122,-0.463 -2.019,-1.107 -2.692,-1.934c-0.673,-0.827 -1.144,-1.831 -1.409,-3.009c-0.268,-1.178 -0.4,-2.482 -0.4,-3.912l0,-18.596Z" style="fill:#fff;fill-rule:nonzero;"/><path d="M307.089,292.028c-1.265,4.264 -2.587,8.26 -3.965,11.991c-1.377,3.73 -2.882,7.348 -4.513,10.854c-0.591,1.262 -1.18,2.335 -1.77,3.219c-0.59,0.883 -1.237,1.613 -1.938,2.188c-0.702,0.574 -1.496,0.994 -2.381,1.262c-0.885,0.266 -1.917,0.399 -3.097,0.399c-0.982,0 -1.889,-0.091 -2.717,-0.273c-0.829,-0.183 -1.509,-0.387 -2.044,-0.611l1.094,-5.007c0.646,0.226 1.221,0.379 1.726,0.463c0.505,0.084 1.039,0.126 1.601,0.126c1.122,0 1.984,-0.3 2.588,-0.903c0.602,-0.604 1.115,-1.439 1.537,-2.503c-1.433,-2.805 -2.864,-5.954 -4.295,-9.446c-1.431,-3.492 -2.778,-7.411 -4.04,-11.759l6.647,0c0.281,1.094 0.613,2.279 0.994,3.555c0.379,1.277 0.782,2.566 1.204,3.871c0.421,1.304 0.852,2.573 1.289,3.808c0.436,1.234 0.852,2.355 1.247,3.365c0.365,-1.01 0.745,-2.131 1.14,-3.365c0.395,-1.235 0.782,-2.504 1.162,-3.808c0.38,-1.305 0.746,-2.594 1.098,-3.871c0.353,-1.276 0.668,-2.461 0.951,-3.555l6.482,0Z" style="fill:#fff;fill-rule:nonzero;"/><path d="M322.235,314.747c-2.048,0 -3.815,-0.287 -5.301,-0.863c-1.487,-0.574 -2.714,-1.374 -3.682,-2.397c-0.967,-1.024 -1.683,-2.244 -2.145,-3.661c-0.463,-1.416 -0.694,-2.98 -0.694,-4.691l0,-18.134l6.563,0l0,17.587c0,1.178 0.133,2.181 0.399,3.009c0.267,0.827 0.632,1.5 1.095,2.019c0.462,0.519 1.023,0.891 1.682,1.115c0.658,0.224 1.382,0.336 2.167,0.336c1.599,0 2.896,-0.489 3.892,-1.472c0.994,-0.982 1.493,-2.651 1.493,-5.007l0,-17.587l6.563,0l0,18.134c0,1.711 -0.238,3.282 -0.715,4.712c-0.477,1.431 -1.206,2.658 -2.187,3.682c-0.982,1.023 -2.23,1.816 -3.745,2.377c-1.514,0.56 -3.31,0.841 -5.385,0.841Z" style="fill:#fff;fill-rule:nonzero;"/><path d="M351.812,303.262c0,-1.936 -0.436,-3.485 -1.305,-4.649c-0.869,-1.164 -2.159,-1.746 -3.87,-1.746c-0.562,0 -1.08,0.021 -1.557,0.063c-0.478,0.042 -0.87,0.091 -1.178,0.147l0,11.317c0.393,0.253 0.905,0.463 1.536,0.631c0.631,0.169 1.269,0.253 1.914,0.253c2.972,0 4.46,-2.006 4.46,-6.016Zm6.394,-0.169c0,1.711 -0.21,3.268 -0.631,4.67c-0.42,1.403 -1.038,2.609 -1.851,3.617c-0.814,1.011 -1.823,1.797 -3.029,2.358c-1.207,0.559 -2.594,0.841 -4.165,0.841c-0.87,0 -1.683,-0.084 -2.44,-0.252c-0.758,-0.169 -1.488,-0.407 -2.188,-0.716l0,8.33l-6.269,0l0,-29.156c0.561,-0.168 1.205,-0.329 1.936,-0.484c0.729,-0.154 1.493,-0.287 2.292,-0.399c0.8,-0.111 1.612,-0.203 2.441,-0.273c0.827,-0.071 1.619,-0.106 2.377,-0.106c1.823,0 3.45,0.274 4.88,0.82c1.43,0.547 2.637,1.319 3.618,2.315c0.982,0.995 1.732,2.209 2.251,3.639c0.518,1.43 0.778,3.029 0.778,4.796Z" style="fill:#fff;fill-rule:nonzero;"/><path d="M366.705,302.925c0,1.935 0.434,3.492 1.304,4.67c0.869,1.178 2.159,1.767 3.871,1.767c0.56,0 1.079,-0.021 1.557,-0.063c0.476,-0.042 0.868,-0.091 1.177,-0.147l0,-11.402c-0.393,-0.252 -0.905,-0.463 -1.536,-0.631c-0.631,-0.168 -1.268,-0.252 -1.914,-0.252c-2.973,0 -4.459,2.019 -4.459,6.058Zm14.178,10.518c-0.561,0.168 -1.207,0.33 -1.935,0.483c-0.73,0.155 -1.494,0.287 -2.294,0.401c-0.798,0.111 -1.613,0.203 -2.439,0.273c-0.828,0.07 -1.62,0.105 -2.377,0.105c-1.824,0 -3.45,-0.267 -4.88,-0.799c-1.432,-0.532 -2.638,-1.297 -3.62,-2.293c-0.981,-0.995 -1.732,-2.202 -2.251,-3.619c-0.519,-1.416 -0.779,-3.008 -0.779,-4.775c0,-1.795 0.227,-3.413 0.674,-4.86c0.449,-1.443 1.095,-2.672 1.937,-3.68c0.84,-1.01 1.872,-1.781 3.091,-2.314c1.22,-0.532 2.615,-0.8 4.186,-0.8c0.87,0 1.648,0.085 2.335,0.253c0.687,0.168 1.382,0.407 2.083,0.715l0,-10.013l6.269,-1.01l0,31.933Z" style="fill:#fff;fill-rule:nonzero;"/><path d="M393.546,309.783c0.617,0 1.206,-0.014 1.767,-0.042c0.561,-0.028 1.01,-0.07 1.347,-0.127l0,-4.754c-0.253,-0.056 -0.631,-0.112 -1.136,-0.168c-0.506,-0.056 -0.968,-0.084 -1.389,-0.084c-0.589,0 -1.143,0.035 -1.663,0.105c-0.517,0.07 -0.973,0.203 -1.366,0.4c-0.393,0.196 -0.701,0.461 -0.926,0.798c-0.224,0.337 -0.337,0.758 -0.337,1.263c0,0.983 0.33,1.661 0.99,2.041c0.658,0.378 1.562,0.568 2.713,0.568Zm-0.505,-18.344c1.852,0 3.394,0.211 4.628,0.631c1.233,0.421 2.223,1.024 2.966,1.809c0.743,0.786 1.27,1.739 1.578,2.861c0.309,1.122 0.463,2.37 0.463,3.744l0,13.043c-0.898,0.196 -2.147,0.428 -3.744,0.694c-1.599,0.267 -3.535,0.4 -5.806,0.4c-1.431,0 -2.729,-0.126 -3.892,-0.379c-1.164,-0.252 -2.167,-0.666 -3.008,-1.241c-0.842,-0.575 -1.487,-1.325 -1.936,-2.252c-0.449,-0.924 -0.673,-2.06 -0.673,-3.406c0,-1.291 0.259,-2.385 0.779,-3.282c0.518,-0.898 1.213,-1.613 2.082,-2.146c0.869,-0.533 1.864,-0.918 2.987,-1.157c1.122,-0.237 2.286,-0.358 3.492,-0.358c0.813,0 1.536,0.037 2.167,0.106c0.631,0.07 1.143,0.161 1.536,0.272l0,-0.589c0,-1.065 -0.323,-1.92 -0.968,-2.565c-0.645,-0.645 -1.767,-0.968 -3.366,-0.968c-1.066,0 -2.117,0.077 -3.155,0.232c-1.039,0.154 -1.936,0.372 -2.693,0.652l-0.799,-5.049c0.364,-0.111 0.82,-0.232 1.367,-0.359c0.547,-0.125 1.142,-0.237 1.788,-0.335c0.645,-0.098 1.325,-0.183 2.041,-0.253c0.715,-0.07 1.436,-0.105 2.166,-0.105Z" style="fill:#fff;fill-rule:nonzero;"/><path d="M405.62,286.517l6.269,-1.01l0,6.521l7.531,0l0,5.217l-7.531,0l0,7.784c0,1.318 0.231,2.37 0.694,3.155c0.463,0.785 1.394,1.178 2.798,1.178c0.673,0 1.367,-0.063 2.082,-0.189c0.716,-0.127 1.368,-0.302 1.957,-0.526l0.883,4.88c-0.757,0.31 -1.598,0.575 -2.524,0.8c-0.926,0.223 -2.062,0.336 -3.408,0.336c-1.711,0 -3.127,-0.231 -4.249,-0.695c-1.122,-0.463 -2.02,-1.107 -2.693,-1.934c-0.673,-0.827 -1.143,-1.831 -1.409,-3.009c-0.268,-1.178 -0.4,-2.482 -0.4,-3.912l0,-18.596Z" style="fill:#fff;fill-rule:nonzero;"/><path d="M436.501,300.862c-0.029,-0.532 -0.12,-1.05 -0.273,-1.555c-0.155,-0.505 -0.393,-0.954 -0.717,-1.347c-0.321,-0.392 -0.728,-0.715 -1.219,-0.967c-0.492,-0.253 -1.101,-0.379 -1.831,-0.379c-0.701,0 -1.303,0.119 -1.808,0.358c-0.505,0.238 -0.926,0.554 -1.262,0.946c-0.337,0.393 -0.597,0.849 -0.778,1.368c-0.184,0.52 -0.316,1.044 -0.4,1.576l8.288,0Zm-14.726,2.4c0,-1.964 0.301,-3.682 0.905,-5.155c0.602,-1.472 1.395,-2.699 2.377,-3.681c0.981,-0.981 2.11,-1.725 3.387,-2.23c1.275,-0.504 2.588,-0.757 3.933,-0.757c3.141,0 5.625,0.961 7.448,2.882c1.822,1.921 2.734,4.747 2.734,8.478c0,0.364 -0.014,0.764 -0.043,1.199c-0.028,0.435 -0.055,0.82 -0.083,1.157l-14.22,0c0.14,1.29 0.742,2.314 1.809,3.071c1.065,0.757 2.496,1.136 4.291,1.136c1.149,0 2.278,-0.105 3.387,-0.316c1.107,-0.211 2.013,-0.468 2.714,-0.778l0.841,5.091c-0.336,0.168 -0.785,0.336 -1.346,0.505c-0.562,0.168 -1.186,0.315 -1.872,0.441c-0.688,0.127 -1.425,0.232 -2.209,0.316c-0.785,0.084 -1.572,0.126 -2.356,0.126c-1.993,0 -3.725,-0.294 -5.196,-0.883c-1.473,-0.589 -2.693,-1.396 -3.661,-2.419c-0.967,-1.024 -1.682,-2.237 -2.145,-3.64c-0.463,-1.402 -0.695,-2.917 -0.695,-4.543Z" style="fill:#fff;fill-rule:nonzero;"/></g></svg>
