<?xml version="1.0" encoding="UTF-8" standalone="no"?><!DOCTYPE svg PUBLIC "-//W3C//DTD SVG 1.1//EN" "http://www.w3.org/Graphics/SVG/1.1/DTD/svg11.dtd"><svg width="100%" height="100%" viewBox="0 0 600 600" version="1.1" xmlns="http://www.w3.org/2000/svg" xmlns:xlink="http://www.w3.org/1999/xlink" xml:space="preserve" xmlns:serif="http://www.serif.com/" style="fill-rule:evenodd;clip-rule:evenodd;stroke-linejoin:round;stroke-miterlimit:2;"><rect id="logo-greenverd" x="0" y="0" width="600" height="600" style="fill:none;"/><g id="logo-greenverd1" serif:id="logo-greenverd"><g><path d="M206.484,294.947c2.056,-3.197 5.671,-4.795 10.848,-4.795l0,6.794c-0.609,-0.115 -1.161,-0.172 -1.656,-0.172c-2.778,0 -4.948,0.809 -6.508,2.427c-1.561,1.617 -2.341,3.949 -2.341,6.993l0,14.787l-7.137,0l0,-30.487l6.794,0l0,4.453Z" style="fill:#fff;fill-rule:nonzero;"/><path d="M236.457,315.329c3.311,0 6.071,-1.104 8.279,-3.311l3.768,4.396c-1.333,1.636 -3.045,2.873 -5.138,3.711c-2.094,0.837 -4.454,1.256 -7.08,1.256c-3.349,0 -6.299,-0.666 -8.849,-1.999c-2.55,-1.332 -4.52,-3.187 -5.909,-5.566c-1.389,-2.379 -2.084,-5.072 -2.084,-8.078c0,-2.969 0.676,-5.643 2.027,-8.022c1.351,-2.378 3.216,-4.234 5.595,-5.566c2.379,-1.332 5.071,-1.998 8.078,-1.998c2.855,0 5.452,0.618 7.793,1.855c2.341,1.237 4.196,3.007 5.567,5.31c1.37,2.302 2.055,4.995 2.055,8.078l-23.35,4.567c0.723,1.751 1.884,3.083 3.482,3.997c1.599,0.913 3.521,1.37 5.766,1.37Zm-1.313,-19.468c-2.626,0 -4.748,0.856 -6.365,2.569c-1.618,1.713 -2.427,4.015 -2.427,6.908l0,0.057l17.242,-3.311c-0.495,-1.865 -1.494,-3.369 -2.998,-4.51c-1.503,-1.142 -3.321,-1.713 -5.452,-1.713Z" style="fill:#fff;fill-rule:nonzero;"/><path d="M270.769,315.329c3.312,0 6.071,-1.104 8.278,-3.311l3.768,4.396c-1.332,1.636 -3.044,2.873 -5.138,3.711c-2.093,0.837 -4.453,1.256 -7.079,1.256c-3.35,0 -6.299,-0.666 -8.849,-1.999c-2.55,-1.332 -4.52,-3.187 -5.909,-5.566c-1.389,-2.379 -2.084,-5.072 -2.084,-8.078c0,-2.969 0.675,-5.643 2.027,-8.022c1.351,-2.378 3.216,-4.234 5.595,-5.566c2.379,-1.332 5.071,-1.998 8.078,-1.998c2.855,0 5.452,0.618 7.793,1.855c2.341,1.237 4.196,3.007 5.566,5.31c1.371,2.302 2.056,4.995 2.056,8.078l-23.351,4.567c0.724,1.751 1.884,3.083 3.483,3.997c1.599,0.913 3.521,1.37 5.766,1.37Zm-1.313,-19.468c-2.626,0 -4.748,0.856 -6.366,2.569c-1.617,1.713 -2.426,4.015 -2.426,6.908l0,0.057l17.241,-3.311c-0.494,-1.865 -1.493,-3.369 -2.997,-4.51c-1.503,-1.142 -3.32,-1.713 -5.452,-1.713Z" style="fill:#fff;fill-rule:nonzero;"/><path d="M307.878,290.152c3.845,0 6.928,1.123 9.249,3.368c2.322,2.246 3.483,5.576 3.483,9.991l0,17.47l-7.137,0l0,-16.556c0,-2.665 -0.627,-4.672 -1.884,-6.024c-1.255,-1.351 -3.044,-2.026 -5.366,-2.026c-2.626,0 -4.701,0.789 -6.223,2.369c-1.522,1.579 -2.284,3.854 -2.284,6.822l0,15.415l-7.136,0l0,-30.487l6.794,0l0,3.94c1.18,-1.409 2.664,-2.474 4.453,-3.198c1.789,-0.723 3.806,-1.084 6.051,-1.084Z" style="fill:#fff;fill-rule:nonzero;"/><path d="M356.52,290.494l-13.074,30.487l-7.364,0l-13.074,-30.487l7.422,0l9.477,22.608l9.762,-22.608l6.851,0Z" style="fill:#fff;fill-rule:nonzero;"/><path d="M373.477,315.329c3.311,0 6.07,-1.104 8.278,-3.311l3.768,4.396c-1.332,1.636 -3.045,2.873 -5.138,3.711c-2.094,0.837 -4.454,1.256 -7.08,1.256c-3.349,0 -6.299,-0.666 -8.849,-1.999c-2.55,-1.332 -4.52,-3.187 -5.909,-5.566c-1.389,-2.379 -2.084,-5.072 -2.084,-8.078c0,-2.969 0.676,-5.643 2.027,-8.022c1.351,-2.378 3.216,-4.234 5.595,-5.566c2.379,-1.332 5.072,-1.998 8.078,-1.998c2.855,0 5.453,0.618 7.793,1.855c2.341,1.237 4.196,3.007 5.567,5.31c1.37,2.302 2.055,4.995 2.055,8.078l-23.35,4.567c0.723,1.751 1.884,3.083 3.482,3.997c1.599,0.913 3.521,1.37 5.767,1.37Zm-1.314,-19.468c-2.626,0 -4.748,0.856 -6.365,2.569c-1.618,1.713 -2.427,4.015 -2.427,6.908l0,0.057l17.242,-3.311c-0.495,-1.865 -1.494,-3.369 -2.997,-4.51c-1.504,-1.142 -3.321,-1.713 -5.453,-1.713Z" style="fill:#fff;fill-rule:nonzero;"/><path d="M400.081,294.947c2.055,-3.197 5.671,-4.795 10.847,-4.795l0,6.794c-0.608,-0.115 -1.16,-0.172 -1.655,-0.172c-2.779,0 -4.948,0.809 -6.508,2.427c-1.561,1.617 -2.341,3.949 -2.341,6.993l0,14.787l-7.137,0l0,-30.487l6.794,0l0,4.453Z" style="fill:#fff;fill-rule:nonzero;"/><path d="M445.412,278.619l0,42.362l-6.851,0l0,-3.939c-1.18,1.446 -2.636,2.531 -4.368,3.254c-1.732,0.723 -3.644,1.085 -5.738,1.085c-2.93,0 -5.566,-0.647 -7.907,-1.941c-2.341,-1.295 -4.177,-3.131 -5.509,-5.51c-1.332,-2.379 -1.998,-5.109 -1.998,-8.192c0,-3.083 0.666,-5.805 1.998,-8.164c1.332,-2.36 3.168,-4.187 5.509,-5.481c2.341,-1.294 4.977,-1.941 7.907,-1.941c2.018,0 3.863,0.342 5.538,1.027c1.675,0.685 3.102,1.713 4.282,3.083l0,-15.643l7.137,0Zm-16.1,36.653c1.712,0 3.254,-0.39 4.624,-1.17c1.371,-0.781 2.455,-1.894 3.255,-3.34c0.799,-1.447 1.198,-3.121 1.198,-5.024c0,-1.903 -0.399,-3.578 -1.198,-5.024c-0.8,-1.447 -1.884,-2.56 -3.255,-3.34c-1.37,-0.78 -2.912,-1.171 -4.624,-1.171c-1.713,0 -3.254,0.391 -4.625,1.171c-1.37,0.78 -2.454,1.893 -3.254,3.34c-0.799,1.446 -1.199,3.121 -1.199,5.024c0,1.903 0.4,3.577 1.199,5.024c0.8,1.446 1.884,2.559 3.254,3.34c1.371,0.78 2.912,1.17 4.625,1.17Z" style="fill:#fff;fill-rule:nonzero;"/><path d="M191.812,298.257l0,16.094l-6.353,0l0,-9.741l-9.742,0l0,-6.353l16.095,0Z" style="fill:#fff;"/><path d="M174.884,320.704c-3.681,-0.004 -7.059,-0.803 -10.133,-2.398c-3.083,-1.598 -5.548,-3.92 -7.394,-6.965c-1.846,-3.045 -2.769,-6.679 -2.769,-10.904c0,-3.997 0.933,-7.584 2.798,-10.762c1.865,-3.178 4.443,-5.652 7.736,-7.422c3.292,-1.77 6.993,-2.655 11.104,-2.655c3.349,0 6.394,0.552 9.135,1.656c2.74,1.104 5.043,2.721 6.908,4.853l-4.682,4.567c-3.045,-3.045 -6.718,-4.567 -11.018,-4.567c-2.817,0 -5.32,0.599 -7.508,1.798c-2.189,1.199 -3.901,2.883 -5.138,5.053c-1.237,2.169 -1.856,4.643 -1.856,7.422c0,2.93 0.619,5.452 1.856,7.564c1.237,2.113 2.883,3.711 4.938,4.796c1.853,0.978 3.861,1.515 6.024,1.611l10.574,0l0,6.353l-10.575,0Z" style="fill:#fff;fill-rule:nonzero;"/></g></g></svg>
