<?xml version="1.0" encoding="UTF-8" standalone="no"?><!DOCTYPE svg PUBLIC "-//W3C//DTD SVG 1.1//EN" "http://www.w3.org/Graphics/SVG/1.1/DTD/svg11.dtd"><svg width="100%" height="100%" viewBox="0 0 600 600" version="1.1" xmlns="http://www.w3.org/2000/svg" xmlns:xlink="http://www.w3.org/1999/xlink" xml:space="preserve" xmlns:serif="http://www.serif.com/" style="fill-rule:evenodd;clip-rule:evenodd;stroke-linejoin:round;stroke-miterlimit:2;"><rect id="logo-persi" x="0" y="0" width="600" height="600" style="fill:none;"/><g id="logo-persi1" serif:id="logo-persi"><g><path d="M221.227,295.456l0,-9.042c0,-1.396 -1.11,-2.528 -2.477,-2.528l-26.631,0c-1.369,0 -2.478,1.132 -2.478,2.528l0,9.042c0,0.386 -0.277,0.699 -0.619,0.699l-7.005,0c-0.386,0 -0.699,-0.313 -0.699,-0.699l0,-11.184c0,-4.633 3.755,-8.388 8.388,-8.388l31.456,0c4.633,0 8.388,3.755 8.388,8.388l0,11.184c0,0.386 -0.313,0.699 -0.699,0.699l-7.004,0c-0.342,0 -0.62,-0.313 -0.62,-0.699Zm8.323,20.272c0,4.633 -3.755,8.388 -8.388,8.388l-31.456,0c-4.633,0 -8.388,-3.755 -8.388,-8.388l0,-11.184c0,-0.387 0.313,-0.699 0.699,-0.699l7.005,0c0.342,0 0.619,0.312 0.619,0.699l0,9.042c0,1.396 1.109,2.528 2.478,2.528l26.631,0c1.367,0 2.477,-1.132 2.477,-2.528l0,-9.042c0,-0.387 0.278,-0.699 0.62,-0.699l7.004,0c0.386,0 0.699,0.312 0.699,0.699l0,11.184Zm-5.242,-50.679l-37.747,0c-8.88,0 -16.078,7.198 -16.078,16.078l0,37.746c0,8.88 7.198,16.078 16.078,16.078l37.747,0c8.878,0 16.077,-7.198 16.077,-16.078l0,-37.746c0,-8.88 -7.199,-16.078 -16.077,-16.078Z" style="fill:#fff;fill-rule:nonzero;"/><path d="M327.953,288.73l-24.113,0c-0.569,0 -1.03,0.461 -1.03,1.031l0,6.394c0,0.57 0.461,1.031 1.03,1.031l19.018,0c0.569,0 1.031,0.462 1.031,1.031l0,4.47c0,0.569 -0.462,1.031 -1.031,1.031l-19.018,0c-0.569,0 -1.03,0.461 -1.03,1.031l0,5.513c0,0.57 0.461,1.031 1.03,1.031l24.113,0c0.57,0 1.031,0.462 1.031,1.031l0,4.47c0,0.57 -0.461,1.031 -1.031,1.031l-30.693,0c-0.571,0 -1.032,-0.461 -1.032,-1.031l0,-33.564c0,-0.569 0.461,-1.031 1.032,-1.031l30.693,0c0.57,0 1.031,0.462 1.031,1.031l0,4.469c0,0.57 -0.461,1.031 -1.031,1.031Z" style="fill:#fff;fill-rule:nonzero;"/><path d="M364.467,297.314c0.569,0 1.03,-0.461 1.03,-1.031l0,-6.473c0,-0.568 -0.461,-1.031 -1.03,-1.031l-20.452,0c-0.57,0 -1.031,0.463 -1.031,1.031l0,6.473c0,0.57 0.461,1.031 1.031,1.031l20.452,0Zm7.602,18.817c0.563,0.671 0.086,1.694 -0.789,1.694l-5.847,0c-0.305,0 -0.594,-0.134 -0.79,-0.367l-9.673,-13.246c-0.196,-0.233 -0.485,-0.367 -0.789,-0.367l-10.166,0c-0.57,0 -1.031,0.461 -1.031,1.03l0,11.919c0,0.57 -0.461,1.031 -1.031,1.031l-4.47,0c-0.57,0 -1.032,-0.461 -1.032,-1.031l0,-33.514c0,-0.57 0.462,-1.031 1.032,-1.031l27.668,0c3.809,0 6.928,3.117 6.928,6.877l0,7.841c0,3.761 -3.119,6.878 -6.928,6.878l-1.931,0l8.849,12.286Z" style="fill:#fff;fill-rule:nonzero;"/><path d="M424.018,282.199l4.468,0c0.569,0 1.031,0.462 1.031,1.031l0,33.564c0,0.57 -0.462,1.031 -1.031,1.031l-4.468,0c-0.571,0 -1.032,-0.461 -1.032,-1.031l0,-33.564c0,-0.569 0.461,-1.031 1.032,-1.031Z" style="fill:#fff;fill-rule:nonzero;"/><path d="M283.567,296.283c0,0.57 -0.462,1.031 -1.031,1.031l-20.453,0c-0.569,0 -1.03,-0.461 -1.03,-1.031l0,-6.473c0,-0.568 0.461,-1.031 1.03,-1.031l20.453,0c0.569,0 1.031,0.463 1.031,1.031l0,6.473Zm-22.514,8.592c0,-0.569 0.461,-1.03 1.03,-1.03l21.137,0c3.809,0 6.927,-3.117 6.927,-6.877l0,-7.842c0,-3.76 -3.118,-6.877 -6.927,-6.877l-27.667,0c-0.571,0 -1.032,0.461 -1.032,1.031l0,33.514c0,0.57 0.461,1.031 1.032,1.031l4.469,0c0.569,0 1.031,-0.461 1.031,-1.031l0,-11.919Z" style="fill:#fff;fill-rule:nonzero;"/><path d="M408.319,297.186l-21.187,0c-0.57,0 -1.03,-0.462 -1.03,-1.031l0,-6.418c0,-0.57 0.46,-1.031 1.03,-1.031l26.002,0c0.57,0 1.031,-0.462 1.031,-1.031l0,-4.469c0,-0.57 -0.461,-1.031 -1.031,-1.031l-4.815,0l-21.872,0c-3.798,0 -6.877,3.079 -6.877,6.877l0,7.788c0,3.798 3.079,6.878 6.878,6.878l21.162,0c0.537,0.005 0.964,0.424 1.005,0.951l0,5.665c-0.039,0.499 -0.425,0.888 -0.922,0.935l-21.245,0l-4.817,0c-0.568,0 -1.031,0.461 -1.031,1.031l0,4.471c0,0.568 0.463,1.03 1.031,1.03l26.688,0c3.759,0 6.877,-3.069 6.877,-6.879l0,-6.858c0,-3.81 -3.118,-6.878 -6.877,-6.878Z" style="fill:#fff;fill-rule:nonzero;"/></g></g></svg>
