<?xml version="1.0" encoding="UTF-8" standalone="no"?><!DOCTYPE svg PUBLIC "-//W3C//DTD SVG 1.1//EN" "http://www.w3.org/Graphics/SVG/1.1/DTD/svg11.dtd"><svg width="100%" height="100%" viewBox="0 0 600 600" version="1.1" xmlns="http://www.w3.org/2000/svg" xmlns:xlink="http://www.w3.org/1999/xlink" xml:space="preserve" xmlns:serif="http://www.serif.com/" style="fill-rule:evenodd;clip-rule:evenodd;stroke-linejoin:round;stroke-miterlimit:2;"><rect id="logo-nots" x="0" y="0" width="600" height="600" style="fill:none;"/><g id="logo-nots1" serif:id="logo-nots"><g><path d="M251.675,272.31l-12.198,0l0,41.075c0,0.837 -0.216,1.495 -0.65,1.974c-0.433,0.478 -0.949,0.716 -1.546,0.716c-1.107,0 -1.929,-0.583 -2.468,-1.748c-0.985,-2.153 -2.556,-7.712 -4.708,-16.682c-1.942,-8.161 -3.99,-14.065 -6.142,-17.712c-3.199,-5.471 -7.52,-8.206 -12.96,-8.206c-4.067,0 -7.399,0.897 -10,2.691c-3.02,2.092 -4.529,5.141 -4.529,9.147l0,43.946l12.107,0l0,-41.121c0,-0.777 0.149,-1.382 0.449,-1.815c0.298,-0.433 0.822,-0.741 1.569,-0.92c1.135,-0.15 2.616,2.241 4.439,7.174c1.316,3.617 2.856,8.625 4.619,15.023c1.944,7.055 3.034,10.941 3.274,11.659c1.195,3.557 3.228,6.293 6.098,8.206c2.572,1.704 5.471,2.556 8.7,2.556c3.737,0 6.951,-1.061 9.642,-3.184c2.87,-2.271 4.304,-5.141 4.304,-8.609l0,-44.17Z" style="fill:#fff;fill-rule:nonzero;"/><path d="M326.754,327.511l11.973,0l0,-43.184l12.376,0l0,-11.568l-36.681,0l0,11.568l12.332,0l0,43.184Z" style="fill:#fff;fill-rule:nonzero;"/><path d="M399.892,322.31c2.422,-3.14 3.634,-6.981 3.634,-11.526c0,-4.573 -1.212,-8.415 -3.634,-11.524c-2.689,-3.468 -6.353,-5.201 -10.985,-5.201l-17.175,0c-1.375,0 -2.429,-0.461 -3.161,-1.385c-0.733,-0.92 -1.099,-2.036 -1.099,-3.345c0,-1.339 0.381,-2.509 1.143,-3.506c0.763,-0.997 1.802,-1.496 3.117,-1.496l29.147,0l0,-11.568l-31.165,0c-4.635,0 -8.326,1.732 -11.077,5.195c-2.45,3.105 -3.677,6.897 -3.677,11.375c0,4.539 1.227,8.344 3.677,11.42c2.722,3.432 6.413,5.148 11.077,5.148l17.22,0c1.315,0 2.316,0.471 3.005,1.414c0.687,0.941 1.03,2.083 1.03,3.429c0,1.345 -0.359,2.534 -1.076,3.566c-0.717,1.032 -1.704,1.546 -2.959,1.546l-29.283,0l0,11.659l31.256,0c4.632,0 8.296,-1.734 10.985,-5.201Z" style="fill:#fff;fill-rule:nonzero;"/><path d="M304.939,280.106c-7.957,-7.958 -19.531,-10.106 -29.474,-6.506l4.182,11.492c4.163,-1.506 8.829,-1.235 12.798,0.847c0.92,0.482 1.803,1.062 2.631,1.739c0.416,0.336 0.819,0.701 1.206,1.086c0.386,0.386 0.747,0.789 1.085,1.203c0.677,0.83 1.255,1.712 1.739,2.632c0.484,0.921 0.871,1.881 1.16,2.862c0.144,0.49 0.267,0.986 0.362,1.486c0.194,1.001 0.29,2.018 0.29,3.031c0,0.508 -0.024,1.016 -0.072,1.521c-0.339,3.541 -1.861,6.988 -4.564,9.694c-0.331,0.33 -0.676,0.632 -1.027,0.927c-1.451,1.217 -3.067,2.126 -4.771,2.743c-0.298,0.11 -0.597,0.225 -0.898,0.314c-0.983,0.291 -1.986,0.484 -2.999,0.58c-1.012,0.098 -2.031,0.098 -3.041,0c-1.014,-0.096 -2.016,-0.289 -2.999,-0.58c-2.45,-0.724 -4.762,-2.051 -6.696,-3.984c-2.703,-2.706 -4.225,-6.153 -4.565,-9.694c-0.047,-0.505 -0.072,-1.013 -0.072,-1.521c0,-1.013 0.097,-2.03 0.29,-3.031c0.096,-0.5 0.219,-0.996 0.362,-1.486c0.29,-0.981 0.677,-1.941 1.161,-2.862c0.483,-0.92 1.062,-1.802 1.738,-2.632c0.339,-0.414 0.7,-0.817 1.086,-1.203c0.33,-0.329 0.676,-0.633 1.027,-0.927l-7.866,-9.375c-0.622,0.523 -1.234,1.059 -1.819,1.644c-10.956,10.956 -10.956,28.788 0,39.746c7.958,7.956 19.531,10.105 29.474,6.505c3.02,-1.093 5.886,-2.705 8.454,-4.863c0.621,-0.522 1.234,-1.059 1.818,-1.642c10.957,-10.958 10.957,-28.79 0,-39.746Z" style="fill:#fff;fill-rule:nonzero;"/><path d="M282.015,291.593l-2.368,-6.501c-0.666,0.242 -1.324,0.512 -1.959,0.847c-0.92,0.482 -1.805,1.062 -2.633,1.739l-0.177,0.159l4.465,5.32c0.815,-0.685 1.712,-1.215 2.672,-1.564Z" style="fill:#fff;fill-rule:nonzero;"/></g></g></svg>
