<?xml version="1.0" encoding="UTF-8" standalone="no"?><!DOCTYPE svg PUBLIC "-//W3C//DTD SVG 1.1//EN" "http://www.w3.org/Graphics/SVG/1.1/DTD/svg11.dtd"><svg width="100%" height="100%" viewBox="0 0 600 600" version="1.1" xmlns="http://www.w3.org/2000/svg" xmlns:xlink="http://www.w3.org/1999/xlink" xml:space="preserve" xmlns:serif="http://www.serif.com/" style="fill-rule:evenodd;clip-rule:evenodd;stroke-linejoin:round;stroke-miterlimit:2;"><rect id="logo-skole-en" x="0" y="0" width="600" height="600" style="fill:none;"/><g id="logo-skole-en1" serif:id="logo-skole-en"><path d="M308.831,291.041c8.423,0.079 16.274,7.017 17.196,15.523c0.798,7.37 -3.678,15.023 -10.532,17.925c-5.944,2.516 -13.272,1.364 -18.169,-2.878c-5.561,-4.817 -7.529,-13.353 -4.563,-20.131c2.661,-6.081 8.972,-10.332 15.732,-10.438c0.112,-0.001 0.224,-0.002 0.336,-0.001Zm-54.119,-10.109l-17.264,0c0.177,0.093 0.354,0.188 0.53,0.283c8.053,4.369 15.446,9.552 17.85,19.585c1.857,7.751 -1.296,16.478 -7.748,21.183c-7.598,5.543 -19.092,4.89 -26.022,-1.878c-3.815,-3.726 -6.047,-8.973 -6.095,-14.333l-0.014,-3.487l6.739,-0.026c0.012,3.084 -0.03,6.197 1.203,8.925c2.941,6.504 11.578,9.815 18.2,6.572c3.89,-1.904 6.756,-5.779 7.411,-10.06c1.641,-10.713 -8.549,-17.969 -19.001,-22.653c-3.757,-1.684 -7.647,-3.086 -11.631,-4.123l-0.249,-0.063l-1.106,-0.27l0,-6.394l37.197,0l0,6.739Zm102.728,33.043c2.656,4.012 8.176,6.157 12.885,4.332c2.222,-0.86 4.129,-2.496 5.34,-4.557c0,0 5.861,3.327 5.861,3.327c-3.937,6.751 -12.744,10.245 -20.236,7.908c-6.974,-2.175 -12.169,-9.112 -12.242,-16.458c-0.091,-9.029 7.736,-17.398 17.139,-17.576c0.144,-0.002 0.287,-0.002 0.431,-0.001c6.509,0.079 12.601,4.093 15.464,10.051c0.298,0.62 0.418,0.928 0.575,1.342c0.672,1.78 1.06,2.905 1.394,4.502l-26.611,7.13Zm-11.382,-33.043l-7.971,0l-0.223,27.098c-0.039,5.797 4.859,11.111 10.936,11.271l0.156,0.002l-0.02,6.373c-9.22,0.039 -17.718,-7.914 -17.817,-17.636l-0.278,-33.847l3.651,0l0,0l11.566,0l0,6.739Zm-68.284,0l-7.916,0l0,21.654c0.926,0.114 1.842,0.29 2.743,0.524c1.333,-6.242 7.083,-11.387 13.761,-11.45l0.08,0c0.008,2.246 0.015,4.493 0.022,6.739c-0.099,0 -0.199,0.002 -0.298,0.005c-3.777,0.156 -7.06,3.765 -7.115,7.524c6.276,3.982 10.741,10.972 10.772,18.906l-6.739,0.026c-0.001,-0.14 -0.002,-0.28 -0.006,-0.419c-0.195,-7.189 -5.927,-13.795 -13.22,-15.054l0,15.46l-7.301,0l0,-50.654l3.65,0l0,0l11.567,0l0,6.739Zm30.875,16.848c-6.038,0.057 -11.362,6.012 -10.497,12.163c0.705,5.014 5.409,9.145 10.497,9.177c7.111,0.045 13.137,-8.468 9.603,-15.465c-1.735,-3.436 -5.408,-5.786 -9.326,-5.874c-0.092,-0.001 -0.184,-0.002 -0.277,-0.001Zm0.07,6.173c2.481,0 4.496,2.015 4.496,4.497c0,2.482 -2.015,4.497 -4.496,4.497c-2.482,0 -4.497,-2.015 -4.497,-4.497c0,-2.482 2.015,-4.497 4.497,-4.497Zm66.763,-1.163c-2.994,-5.55 -10.6,-6.731 -15.458,-2.884c-1.613,1.278 -2.869,3.119 -3.55,5.052c-0.345,0.981 -0.563,2.018 -0.623,3.055l19.631,-5.223Z" style="fill:#fff;"/></g></svg>
