<?xml version="1.0" encoding="UTF-8" standalone="no"?><!DOCTYPE svg PUBLIC "-//W3C//DTD SVG 1.1//EN" "http://www.w3.org/Graphics/SVG/1.1/DTD/svg11.dtd"><svg width="100%" height="100%" viewBox="0 0 600 600" version="1.1" xmlns="http://www.w3.org/2000/svg" xmlns:xlink="http://www.w3.org/1999/xlink" xml:space="preserve" xmlns:serif="http://www.serif.com/" style="fill-rule:evenodd;clip-rule:evenodd;stroke-linejoin:round;stroke-miterlimit:2;"><rect id="logo-giftbot" x="0" y="0" width="600" height="600" style="fill:none;"/><g id="logo-giftbot1" serif:id="logo-giftbot"><g><g><path d="M293.216,312.282c-3.503,2.018 -7.857,3.027 -13.061,3.027c-5.772,0 -10.321,-1.597 -13.65,-4.792c-3.327,-3.194 -4.991,-7.594 -4.991,-13.199c0,-5.638 1.817,-10.233 5.454,-13.786c3.637,-3.553 8.474,-5.33 14.513,-5.33c3.804,0 7.156,0.525 10.059,1.576l0,7.582c-2.769,-1.602 -6.155,-2.402 -10.159,-2.402c-3.353,0 -6.085,1.088 -8.195,3.265c-2.11,2.177 -3.165,5.083 -3.165,8.72c0,3.686 0.947,6.539 2.84,8.557c1.893,2.019 4.45,3.028 7.669,3.028c1.935,0 3.47,-0.275 4.604,-0.825l0,-7.007l-7.181,0l0,-6.455l15.263,0l0,18.041Z" style="fill:#fff;fill-rule:nonzero;"/><rect x="297.175" y="289.061" width="7.907" height="25.622" style="fill:#fff;"/><path d="M319.786,289.061l11.931,0l0,-5.529l7.881,-2.253l0,7.782l5.756,0l0,5.831l-5.756,0l0,10.358c0,2.669 1.06,4.004 3.178,4.004c0.834,0 1.693,-0.242 2.578,-0.726l0,5.855c-1.169,0.617 -2.928,0.926 -5.28,0.926c-5.572,0 -8.357,-2.894 -8.357,-8.682l0,-11.735l-11.931,0l0,19.791l-7.881,0l0,-19.791l-4.305,0l0,-5.831l4.305,0l0,-3.177c0,-2.92 0.95,-5.272 2.851,-7.057c1.902,-1.785 4.488,-2.677 7.757,-2.677c1.601,0 2.936,0.167 4.004,0.5l0,6.156c-1.018,-0.401 -1.993,-0.601 -2.928,-0.601c-2.536,0 -3.803,1.376 -3.803,4.129l0,2.727Z" style="fill:#fff;fill-rule:nonzero;"/><path d="M358.368,299.271l0,9.458l4.379,0c1.868,0 3.332,-0.434 4.391,-1.302c1.06,-0.867 1.589,-2.052 1.589,-3.553c0,-1.435 -0.522,-2.561 -1.564,-3.378c-1.042,-0.817 -2.498,-1.225 -4.367,-1.225l-4.428,0Zm0,-14.514l0,8.508l3.553,0c1.668,0 2.982,-0.404 3.941,-1.214c0.959,-0.809 1.439,-1.923 1.439,-3.34c0,-2.636 -1.969,-3.954 -5.905,-3.954l-3.028,0Zm-8.082,29.926l0,-35.88l13.061,0c4.003,0 7.081,0.733 9.233,2.201c2.152,1.469 3.228,3.536 3.228,6.205c0,1.936 -0.655,3.628 -1.964,5.08c-1.309,1.451 -2.982,2.461 -5.017,3.028l0,0.1c2.552,0.317 4.592,1.259 6.118,2.827c1.526,1.568 2.29,3.479 2.29,5.73c0,3.286 -1.176,5.893 -3.529,7.82c-2.352,1.926 -5.563,2.889 -9.633,2.889l-13.787,0Z" style="fill:#fff;fill-rule:nonzero;"/><path d="M393.362,294.491c-1.869,0 -3.32,0.642 -4.354,1.927c-1.034,1.284 -1.552,3.102 -1.552,5.454c0,4.921 1.986,7.382 5.956,7.382c3.787,0 5.679,-2.527 5.679,-7.582c0,-4.787 -1.909,-7.181 -5.729,-7.181Zm-0.201,20.818c-4.27,0 -7.627,-1.197 -10.071,-3.59c-2.443,-2.394 -3.666,-5.643 -3.666,-9.746c0,-4.237 1.269,-7.553 3.804,-9.947c2.535,-2.394 5.964,-3.59 10.284,-3.59c4.254,0 7.59,1.196 10.009,3.59c2.418,2.394 3.628,5.559 3.628,9.496c0,4.254 -1.247,7.615 -3.741,10.084c-2.494,2.468 -5.91,3.703 -10.247,3.703Z" style="fill:#fff;fill-rule:nonzero;"/><path d="M426.006,314.383c-1.168,0.617 -2.928,0.926 -5.279,0.926c-5.572,0 -8.358,-2.894 -8.358,-8.682l0,-11.735l-4.154,0l0,-5.831l4.154,0l0,-5.529l7.882,-2.253l0,7.782l5.755,0l0,5.831l-5.755,0l0,10.358c0,2.669 1.059,4.004 3.178,4.004c0.834,0 1.693,-0.242 2.577,-0.726l0,5.855Z" style="fill:#fff;fill-rule:nonzero;"/><path d="M304.278,277.449l-6.198,0c-0.472,0 -0.854,0.382 -0.854,0.854l0,5.277c0,0.473 0.382,0.854 0.854,0.854l6.198,0c0.473,0 0.855,-0.381 0.855,-0.854l0,-5.277c0,-0.472 -0.382,-0.854 -0.855,-0.854Z" style="fill:#fff;fill-rule:nonzero;"/></g><g><path d="M197.852,307.933l-0.002,-0.002l-1.715,1.717c-0.282,0.282 -0.739,0.282 -1.021,0l-2.575,-2.575c-0.282,-0.281 -0.282,-0.738 -0.001,-1.021l10.47,-10.482c0.137,-0.137 0.04,-0.371 -0.154,-0.371l-27.415,0c-0.798,0 -1.445,0.648 -1.445,1.445l0,17.58c0,4.056 3.288,7.344 7.345,7.344l24.803,0c0.799,0 1.445,-0.647 1.445,-1.444l0,-21.418c0,-0.193 -0.233,-0.29 -0.369,-0.153l-9.366,9.38Z" style="fill:#fff;fill-rule:nonzero;"/><path d="M244.792,295.199l-27.415,0c-0.194,0 -0.29,0.234 -0.154,0.371l10.47,10.482c0.282,0.283 0.281,0.74 0,1.021l-2.576,2.575c-0.281,0.282 -0.739,0.282 -1.021,0l-1.715,-1.717l-0.002,0.002l-9.365,-9.379c-0.136,-0.138 -0.37,-0.04 -0.37,0.153l0,21.417c0,0.797 0.647,1.444 1.446,1.444l11.415,0c0.432,0 0.766,0.379 0.723,0.809c-0.702,6.9 -10.375,8.066 -13.021,8.256c-0.378,0.027 -0.666,0.342 -0.666,0.72l0,4.001c0,0.378 0.291,0.692 0.668,0.72c4.929,0.373 33.028,1.744 33.028,-21.379l0,-18.051c0,-0.797 -0.646,-1.445 -1.445,-1.445Z" style="fill:#fff;fill-rule:nonzero;"/><path d="M224.765,284.483l0.166,-0.216c0.108,-0.137 0.218,-0.273 0.316,-0.41c0.149,-0.212 0.287,-0.424 0.41,-0.639c1.04,-1.804 0.77,-3.051 0.366,-3.81c-0.184,-0.345 -0.396,-0.588 -0.525,-0.737c-0.07,-0.08 -0.148,-0.163 -0.23,-0.244l-0.08,-0.077l-0.212,-0.184l-0.084,-0.068c-0.102,-0.075 -0.21,-0.146 -0.325,-0.212l-0.096,-0.047c-0.094,-0.049 -0.195,-0.093 -0.301,-0.131l-0.129,-0.046c-0.139,-0.043 -0.285,-0.079 -0.442,-0.101l-0.021,-0.005c-0.169,-0.023 -0.353,-0.028 -0.545,-0.021l-0.098,0.005c-0.19,0.012 -0.391,0.038 -0.605,0.083l-0.089,0.021c-0.228,0.053 -0.467,0.121 -0.725,0.217c-0.46,0.173 -0.925,0.403 -1.39,0.685c-0.464,0.283 -0.928,0.617 -1.385,0.995c-0.456,0.38 -0.904,0.802 -1.338,1.264c-2.113,2.252 -3.877,5.411 -4.502,8.713c-0.026,0.134 0.08,0.259 0.217,0.259c1.329,0.001 -0.024,-0.005 0.077,-0.006c4.604,-0.064 9.186,-2.438 11.57,-5.288Z" style="fill:#fff;fill-rule:nonzero;"/><path d="M190.167,285.759c-0.395,-0.688 -0.708,-1.379 -0.938,-2.069c-0.152,-0.46 -0.268,-0.919 -0.347,-1.376c-0.04,-0.228 -0.07,-0.456 -0.091,-0.683c-0.191,-2.04 0.362,-4.009 1.647,-5.731c0.142,-0.191 0.294,-0.38 0.456,-0.564c2.432,-2.8 5.935,-3.615 9.606,-2.238c2.46,0.923 4.772,2.711 6.707,4.992c0.131,0.155 0.38,0.067 0.38,-0.136l0,-12.736c0,-0.797 -0.646,-1.444 -1.445,-1.444l-24.803,0c-4.057,0 -7.345,3.288 -7.345,7.345l0,17.579c0,0.798 0.647,1.444 1.445,1.444l18.016,0c0.203,0 0.29,-0.249 0.136,-0.381c-1.438,-1.23 -2.613,-2.595 -3.424,-4.002Z" style="fill:#fff;fill-rule:nonzero;"/><path d="M195.466,284.483c2.384,2.85 6.966,5.224 11.57,5.288c0.101,0.001 -1.251,0.007 0.078,0.006c0.136,0 0.242,-0.125 0.216,-0.259c-0.624,-3.302 -2.389,-6.461 -4.502,-8.713c-0.434,-0.462 -0.882,-0.884 -1.338,-1.264c-0.456,-0.378 -0.92,-0.712 -1.384,-0.995c-0.466,-0.282 -0.931,-0.512 -1.391,-0.685c-0.258,-0.096 -0.496,-0.164 -0.725,-0.217l-0.088,-0.021c-0.214,-0.045 -0.415,-0.071 -0.605,-0.083l-0.098,-0.005c-0.193,-0.007 -0.377,-0.002 -0.546,0.021l-0.02,0.005c-0.158,0.022 -0.304,0.059 -0.443,0.102l-0.129,0.045c-0.106,0.038 -0.206,0.082 -0.301,0.131l-0.095,0.047c-0.116,0.066 -0.224,0.137 -0.325,0.212l-0.084,0.068l-0.213,0.184l-0.08,0.077c-0.082,0.081 -0.159,0.164 -0.229,0.244c-0.13,0.149 -0.342,0.392 -0.526,0.737c-0.073,0.138 -0.142,0.292 -0.199,0.463c-0.058,0.17 -0.104,0.358 -0.131,0.562c-0.097,0.715 0.035,1.637 0.696,2.785c0.124,0.215 0.261,0.427 0.411,0.639c0.097,0.137 0.207,0.273 0.315,0.41l0.166,0.216Z" style="fill:#fff;fill-rule:nonzero;"/><path d="M238.892,263.774l-24.802,0c-0.799,0 -1.446,0.647 -1.446,1.444l0,12.736c0,0.203 0.249,0.29 0.381,0.136c1.934,-2.281 4.246,-4.069 6.708,-4.992c3.67,-1.377 7.172,-0.562 9.605,2.238c0.161,0.184 0.313,0.373 0.456,0.564c1.284,1.722 1.838,3.691 1.647,5.731c-0.021,0.227 -0.052,0.455 -0.091,0.683c-0.08,0.457 -0.195,0.916 -0.348,1.376c-0.23,0.69 -0.541,1.381 -0.938,2.069c-0.44,0.764 -0.987,1.515 -1.625,2.24c-0.424,0.484 -0.891,0.954 -1.393,1.409c-0.071,0.065 -0.164,0.144 -0.263,0.227c-0.281,0.241 -0.331,0.5 0.03,0.507l17.979,0c0.799,0 1.445,-0.646 1.445,-1.444l0,-17.58c0,-4.056 -3.288,-7.344 -7.345,-7.344Z" style="fill:#fff;fill-rule:nonzero;"/></g></g></g></svg>
