<?xml version="1.0" encoding="UTF-8" standalone="no"?><!DOCTYPE svg PUBLIC "-//W3C//DTD SVG 1.1//EN" "http://www.w3.org/Graphics/SVG/1.1/DTD/svg11.dtd"><svg width="100%" height="100%" viewBox="0 0 600 600" version="1.1" xmlns="http://www.w3.org/2000/svg" xmlns:xlink="http://www.w3.org/1999/xlink" xml:space="preserve" xmlns:serif="http://www.serif.com/" style="fill-rule:evenodd;clip-rule:evenodd;stroke-linejoin:round;stroke-miterlimit:2;"><rect id="logo-ufc" x="0" y="0" width="600" height="600" style="fill:none;"/><g id="logo-ufc1" serif:id="logo-ufc"><g><path d="M207.811,266.247l4.629,-11.078l4.874,0l-8.37,18.546c-0.525,1.16 -1.067,2.075 -1.625,2.748c-0.558,0.673 -1.167,1.158 -1.829,1.451c-0.662,0.298 -1.552,0.445 -2.668,0.445c-0.448,0 -1.2,-0.1 -2.255,-0.297c-1.056,-0.195 -1.891,-0.425 -2.504,-0.687l1.347,-3.595c0.414,0.208 0.971,0.394 1.665,0.558c0.695,0.165 1.211,0.247 1.55,0.247c0.526,0 1.016,-0.223 1.47,-0.664c0.454,-0.445 0.926,-1.377 1.419,-2.799l-8.058,-15.953l5.005,0l5.35,11.078Z" style="fill:#fff;fill-rule:nonzero;"/><path d="M224.942,255.169l0,9.273l2.626,0c0.613,0 1.154,-0.305 1.625,-0.912c0.47,-0.607 0.941,-1.583 1.411,-2.929c0.47,-1.345 0.99,-3.156 1.559,-5.432l4.776,0c-0.722,3.151 -1.488,5.613 -2.298,7.385c-0.809,1.773 -1.734,3.004 -2.773,3.693c0.886,0.503 1.63,1.147 2.232,1.928c0.601,0.784 1.149,1.83 1.641,3.143c0.492,1.313 1.116,3.501 1.871,6.565l-4.809,0c-0.427,-1.586 -0.813,-2.981 -1.158,-4.185c-0.344,-1.204 -0.718,-2.201 -1.123,-2.994c-0.405,-0.795 -0.859,-1.388 -1.362,-1.782c-0.504,-0.394 -1.138,-0.591 -1.904,-0.591l-2.314,0l0,9.552l-4.628,0l0,-22.714l4.628,0Z" style="fill:#fff;fill-rule:nonzero;"/><path d="M252.909,262.817c0,-1.28 -0.353,-2.203 -1.059,-2.774c-0.706,-0.569 -1.977,-0.853 -3.815,-0.853l-2.314,0l0,7.631l1.887,0c1.696,0 2.869,-0.117 3.52,-0.352c0.651,-0.235 1.11,-0.633 1.378,-1.191c0.268,-0.558 0.403,-1.378 0.403,-2.461m4.776,-0.033c0,2.735 -0.644,4.765 -1.929,6.089c-1.286,1.323 -3.372,1.985 -6.26,1.985l-3.775,0l0,7.025l-4.628,0l0,-22.714l8.534,0c2.571,0 4.557,0.6 5.957,1.798c1.401,1.198 2.101,3.136 2.101,5.817" style="fill:#fff;fill-rule:nonzero;"/><path d="M265.394,269.218l6.122,0l-3.053,-9.388l-3.069,9.388Zm-7.385,8.665l7.517,-22.714l6.023,0l7.533,22.714l-4.743,0l-1.51,-4.612l-8.747,0l-1.478,4.612l-4.595,0Z" style="fill:#fff;fill-rule:nonzero;"/><path d="M293.323,250.459c0,0.799 -0.197,1.357 -0.591,1.674c-0.394,0.317 -0.996,0.476 -1.806,0.476c-0.897,0 -1.508,-0.186 -1.829,-0.558c-0.324,-0.372 -0.485,-0.903 -0.485,-1.592c0,-0.764 0.172,-1.315 0.516,-1.649c0.347,-0.333 0.945,-0.501 1.798,-0.501c0.854,0 1.467,0.162 1.839,0.485c0.37,0.323 0.558,0.877 0.558,1.665m-0.542,27.424l-10.963,0l0,-3.561l3.167,0l0,-15.592l-3.167,0l0,-3.561l10.963,0l0,3.561l-3.151,0l0,15.592l3.151,0l0,3.561Zm-6.762,-27.424c0,0.799 -0.195,1.357 -0.583,1.674c-0.389,0.317 -0.987,0.476 -1.796,0.476c-0.898,0 -1.508,-0.186 -1.829,-0.558c-0.325,-0.372 -0.485,-0.903 -0.485,-1.592c0,-0.764 0.173,-1.315 0.517,-1.649c0.345,-0.333 0.943,-0.501 1.797,-0.501c0.853,0 1.462,0.162 1.829,0.485c0.368,0.323 0.55,0.877 0.55,1.665" style="fill:#fff;fill-rule:nonzero;"/><path d="M309.981,277.883l0,-9.65l-8.944,0l0,9.65l-4.628,0l0,-22.714l4.628,0l0,8.83l8.944,0l0,-8.83l4.645,0l0,22.714l-4.645,0Z" style="fill:#fff;fill-rule:nonzero;"/><path d="M337.857,274.125c-0.974,1.455 -2.168,2.525 -3.585,3.207c-1.417,0.684 -3.161,1.027 -5.228,1.027c-7.034,0 -10.553,-3.944 -10.553,-11.833c0,-4.037 0.893,-7.019 2.677,-8.944c1.781,-1.926 4.353,-2.889 7.711,-2.889c2.222,0 4.032,0.376 5.433,1.125c1.4,0.75 2.467,1.731 3.2,2.945l-3.594,2.79c-0.525,-0.787 -1.007,-1.356 -1.444,-1.707c-0.438,-0.35 -0.936,-0.612 -1.494,-0.787c-0.558,-0.175 -1.225,-0.263 -2.002,-0.263c-1.86,0 -3.277,0.595 -4.251,1.782c-0.973,1.187 -1.459,3.169 -1.459,5.948c0,2.593 0.456,4.53 1.37,5.81c0.914,1.28 2.371,1.92 4.373,1.92c1.346,0 2.394,-0.257 3.144,-0.771c0.749,-0.515 1.429,-1.198 2.042,-2.052l3.66,2.692Z" style="fill:#fff;fill-rule:nonzero;"/><path d="M353.364,270.382c0,-1.159 -0.341,-1.975 -1.025,-2.445c-0.684,-0.471 -1.776,-0.706 -3.275,-0.706l-3.266,0l0,6.581l3.266,0c1.411,0 2.48,-0.268 3.208,-0.804c0.727,-0.536 1.092,-1.411 1.092,-2.626m-12.194,7.5l0,-22.713l4.628,0l0,8.058l3.496,0c3.14,0 5.399,0.589 6.778,1.765c1.378,1.176 2.068,2.972 2.068,5.39c0,2.604 -0.722,4.506 -2.167,5.702c-1.444,1.2 -3.703,1.798 -6.778,1.798l-8.025,0Z" style="fill:#fff;fill-rule:nonzero;"/><path d="M366.23,255.169l0,9.273l2.626,0c0.613,0 1.154,-0.305 1.625,-0.912c0.47,-0.607 0.941,-1.583 1.411,-2.929c0.471,-1.345 0.99,-3.156 1.559,-5.432l4.776,0c-0.722,3.151 -1.488,5.613 -2.298,7.385c-0.809,1.773 -1.734,3.004 -2.773,3.693c0.886,0.503 1.63,1.147 2.232,1.928c0.602,0.784 1.149,1.83 1.641,3.143c0.492,1.313 1.116,3.501 1.871,6.565l-4.809,0c-0.426,-1.586 -0.813,-2.981 -1.156,-4.185c-0.346,-1.204 -0.72,-2.201 -1.125,-2.994c-0.405,-0.795 -0.859,-1.388 -1.362,-1.782c-0.503,-0.394 -1.138,-0.591 -1.904,-0.591l-2.314,0l0,9.552l-4.628,0l0,-22.714l4.628,0Z" style="fill:#fff;fill-rule:nonzero;"/><path d="M388.857,269.218l6.122,0l-3.053,-9.388l-3.069,9.388Zm-7.385,8.665l7.516,-22.714l6.023,0l7.533,22.714l-4.743,0l-1.51,-4.612l-8.747,0l-1.477,4.612l-4.595,0Z" style="fill:#fff;fill-rule:nonzero;"/><path d="M199.344,314.549l0,-22.714l18.348,0l0,22.714l-4.743,0l0,-18.759l-8.878,0l0,18.759l-4.727,0Z" style="fill:#fff;fill-rule:nonzero;"/><path d="M251.347,299.483c0,-1.28 -0.352,-2.205 -1.059,-2.773c-0.704,-0.569 -1.977,-0.854 -3.815,-0.854l-19.424,0l0,7.632l18.997,0c1.696,0 2.871,-0.119 3.52,-0.354c0.651,-0.234 1.11,-0.631 1.38,-1.189c0.268,-0.558 0.401,-1.379 0.401,-2.462m4.776,-0.033c0,2.736 -0.642,4.765 -1.927,6.089c-1.288,1.324 -3.374,1.986 -6.262,1.986l-20.885,0l0,7.024l-4.628,0l0,-22.714l25.644,0c2.571,0 4.557,0.6 5.958,1.798c1.4,1.198 2.1,3.137 2.1,5.817" style="fill:#fff;fill-rule:nonzero;"/><path d="M263.834,305.883l6.121,0l-3.052,-9.387l-3.069,9.387Zm-7.386,8.666l7.517,-22.714l6.023,0l7.533,22.714l-4.743,0l-1.51,-4.612l-8.747,0l-1.477,4.612l-4.596,0Z" style="fill:#fff;fill-rule:nonzero;"/><path d="M280.601,314.549l0,-22.714l18.348,0l0,22.714l-4.743,0l0,-18.759l-8.879,0l0,18.759l-4.726,0Z" style="fill:#fff;fill-rule:nonzero;"/><path d="M317.532,303.192c0,-2.692 -0.38,-4.652 -1.14,-5.883c-0.762,-1.231 -2.05,-1.847 -3.866,-1.847c-1.816,0 -3.105,0.616 -3.866,1.847c-0.76,1.231 -1.14,3.191 -1.14,5.883c0,2.691 0.387,4.653 1.158,5.884c0.77,1.231 2.054,1.846 3.848,1.846c1.816,0 3.104,-0.615 3.866,-1.846c0.76,-1.231 1.14,-3.193 1.14,-5.884m4.775,0c0,3.949 -0.835,6.909 -2.503,8.878c-1.669,1.97 -4.094,2.955 -7.278,2.955c-3.359,0 -5.828,-1.038 -7.411,-3.11c-1.581,-2.073 -2.37,-4.981 -2.37,-8.723c0,-3.762 0.789,-6.676 2.37,-8.739c1.583,-2.062 4.052,-3.094 7.411,-3.094c3.381,0 5.855,1.032 7.425,3.094c1.571,2.063 2.356,4.977 2.356,8.739" style="fill:#fff;fill-rule:nonzero;"/><path d="M337.915,299.483c0,-1.28 -0.352,-2.205 -1.059,-2.773c-0.704,-0.569 -1.977,-0.854 -3.815,-0.854l-2.314,0l0,7.632l1.887,0c1.696,0 2.871,-0.119 3.52,-0.354c0.651,-0.234 1.11,-0.631 1.38,-1.189c0.268,-0.558 0.401,-1.379 0.401,-2.462m4.776,-0.033c0,2.736 -0.642,4.765 -1.927,6.089c-1.288,1.324 -3.374,1.986 -6.262,1.986l-3.775,0l0,7.024l-4.628,0l0,-22.714l8.534,0c2.571,0 4.557,0.6 5.958,1.798c1.4,1.198 2.1,3.137 2.1,5.817" style="fill:#fff;fill-rule:nonzero;"/><path d="M359.717,314.549l0,-9.65l-8.945,0l0,9.65l-4.628,0l0,-22.714l4.628,0l0,8.829l8.945,0l0,-8.829l4.643,0l0,22.714l-4.643,0Z" style="fill:#fff;fill-rule:nonzero;"/><path d="M374.826,305.883l6.122,0l-3.053,-9.387l-3.069,9.387Zm-7.385,8.666l7.516,-22.714l6.023,0l7.533,22.714l-4.743,0l-1.51,-4.612l-8.747,0l-1.477,4.612l-4.595,0Z" style="fill:#fff;fill-rule:nonzero;"/><path d="M203.971,328.501l0,9.273l2.626,0c0.613,0 1.155,-0.305 1.625,-0.912c0.47,-0.607 0.941,-1.583 1.411,-2.929c0.471,-1.345 0.991,-3.156 1.56,-5.432l4.775,0c-0.722,3.151 -1.488,5.613 -2.297,7.385c-0.81,1.773 -1.734,3.004 -2.774,3.693c0.886,0.503 1.63,1.147 2.232,1.928c0.602,0.784 1.149,1.83 1.641,3.143c0.493,1.313 1.116,3.502 1.871,6.565l-4.808,0c-0.427,-1.586 -0.812,-2.981 -1.157,-4.185c-0.344,-1.203 -0.72,-2.201 -1.125,-2.994c-0.404,-0.795 -0.859,-1.388 -1.362,-1.782c-0.503,-0.394 -1.138,-0.591 -1.904,-0.591l-2.314,0l0,9.552l-4.628,0l0,-22.714l4.628,0Z" style="fill:#fff;fill-rule:nonzero;"/><path d="M233.412,339.858c0,-2.691 -0.379,-4.652 -1.139,-5.884c-0.761,-1.229 -2.05,-1.846 -3.866,-1.846c-1.817,0 -3.106,0.617 -3.864,1.846c-0.763,1.232 -1.142,3.193 -1.142,5.884c0,2.692 0.387,4.652 1.158,5.885c0.77,1.229 2.053,1.845 3.848,1.845c1.816,0 3.105,-0.616 3.866,-1.845c0.76,-1.233 1.139,-3.193 1.139,-5.885m4.776,0c0,3.95 -0.835,6.909 -2.502,8.879c-1.668,1.969 -4.095,2.954 -7.279,2.954c-3.359,0 -5.828,-1.038 -7.411,-3.111c-1.579,-2.073 -2.371,-4.98 -2.371,-8.722c0,-3.764 0.792,-6.678 2.371,-8.738c1.583,-2.063 4.052,-3.095 7.411,-3.095c3.38,0 5.855,1.032 7.427,3.095c1.568,2.06 2.354,4.974 2.354,8.738" style="fill:#fff;fill-rule:nonzero;"/><path d="M259.95,351.214l0,-15.263l-5.448,9.488l-2.675,0l-5.383,-9.488l0,15.263l-4.463,0l0,-22.714l5.332,0l5.925,10.785l5.974,-10.785l5.219,0l0,22.714l-4.481,0Z" style="fill:#fff;fill-rule:nonzero;"/><path d="M269.16,351.214l0,-22.714l18.348,0l0,22.714l-4.743,0l0,-18.758l-8.879,0l0,18.758l-4.726,0Z" style="fill:#fff;fill-rule:nonzero;"/><path d="M297.973,342.55l6.122,0l-3.053,-9.388l-3.069,9.388Zm-7.385,8.663l7.516,-22.712l6.024,0l7.533,22.712l-4.743,0l-1.51,-4.609l-8.748,0l-1.477,4.609l-4.595,0Z" style="fill:#fff;fill-rule:nonzero;"/><path d="M328.313,351.214l0,-9.65l-8.945,0l0,9.65l-4.628,0l0,-22.714l4.628,0l0,8.83l8.945,0l0,-8.83l4.644,0l0,22.714l-4.644,0Z" style="fill:#fff;fill-rule:nonzero;"/><path d="M347.706,351.214l-10.963,0l0,-3.561l3.168,0l0,-15.589l-3.168,0l0,-3.564l10.963,0l0,3.564l-3.151,0l0,15.589l3.151,0l0,3.561Z" style="fill:#fff;fill-rule:nonzero;"/><path d="M356.538,335.444c0,0.864 0.124,1.504 0.37,1.92c0.246,0.415 0.648,0.722 1.206,0.919c0.558,0.197 1.356,0.295 2.396,0.295l3.397,0l0,-6.056l-3.594,0c-1.346,0 -2.311,0.197 -2.896,0.591c-0.585,0.394 -0.879,1.171 -0.879,2.331m-6.072,15.769l6.072,-9.139c-1.477,-0.296 -2.628,-1.021 -3.454,-2.176c-0.826,-1.152 -1.24,-2.704 -1.24,-4.651c0,-2.397 0.671,-4.12 2.012,-5.17c1.34,-1.05 3.481,-1.576 6.424,-1.576l8.272,0l0,22.712l-4.645,0l0,-8.598l-2.347,0l-5.793,8.598l-5.301,0Z" style="fill:#fff;fill-rule:nonzero;"/></g></g></svg>
