<?xml version="1.0" encoding="UTF-8" standalone="no"?><!DOCTYPE svg PUBLIC "-//W3C//DTD SVG 1.1//EN" "http://www.w3.org/Graphics/SVG/1.1/DTD/svg11.dtd"><svg width="100%" height="100%" viewBox="0 0 600 600" version="1.1" xmlns="http://www.w3.org/2000/svg" xmlns:xlink="http://www.w3.org/1999/xlink" xml:space="preserve" xmlns:serif="http://www.serif.com/" style="fill-rule:evenodd;clip-rule:evenodd;stroke-linejoin:round;stroke-miterlimit:2;"><rect id="logo-mitipi" x="0" y="0" width="600" height="600" style="fill:none;"/><g id="logo-mitipi1" serif:id="logo-mitipi"><g><path d="M257.219,328.593c0.531,0.911 0.535,2.036 0.01,2.95c-0.525,0.914 -1.499,1.477 -2.553,1.477l-18.829,0c-0.77,0 -1.41,-0.593 -1.468,-1.361c-0.682,-8.032 -7.429,-14.344 -15.638,-14.344c-8.209,0 -14.955,6.312 -15.647,14.343c-0.057,0.763 -0.693,1.353 -1.458,1.353c-3.525,0.009 -12.907,0.009 -18.83,0.009c-1.054,0 -2.027,-0.563 -2.552,-1.477c-0.525,-0.914 -0.521,-2.039 0.01,-2.95c7.005,-12.009 26.396,-45.25 34.663,-59.423c0.791,-1.356 2.244,-2.19 3.814,-2.19c1.571,0 3.023,0.834 3.814,2.19c8.268,14.173 27.658,47.414 34.664,59.423Z" style="fill:#fff;"/><g><path d="M345.976,287.784l7.932,0l0,5.515l-7.932,0l0,13.622c0.004,0.578 0.248,1.394 0.248,1.394c0.012,0.055 0.025,0.11 0.039,0.164c0.307,1.138 1.129,2.121 2.187,2.654c0.455,0.229 0.97,0.278 1.489,0.283l1.018,0.001l2.999,-0.006l0,5.761l-3.012,-0.006l-1.023,0.001c-1.695,-0.008 -3.292,-0.271 -5.267,-1.297c-2.114,-1.098 -3.807,-2.936 -4.786,-5.114l-0.025,-0.058c-0.446,-1.197 -0.67,-2.471 -0.678,-3.755l0,-13.644l-1.043,0c-2.123,0 -3.845,-1.722 -3.845,-3.845c0,-0.934 0,-1.67 0,-1.67l4.888,0l0,-6.727l6.811,0l0,6.727Z" style="fill:#fff;"/><path d="M272.189,317.009l-2.477,0c-1.172,0 -2.295,-0.465 -3.123,-1.293c-0.828,-0.828 -1.293,-1.951 -1.293,-3.122c0,-8.217 0,-25.03 0,-25.03l6.562,0l0,3.749c1.103,-1.323 2.481,-2.334 4.135,-3.032c1.655,-0.699 3.493,-1.048 5.514,-1.048c2.206,0 4.164,0.414 5.873,1.241c1.709,0.827 3.06,2.049 4.053,3.667c1.213,-1.544 2.775,-2.748 4.687,-3.612c1.911,-0.864 4.025,-1.296 6.341,-1.296c3.713,0 6.654,1.075 8.823,3.226c2.168,2.15 3.253,5.376 3.253,9.677l0,16.873l-2.477,0c-1.171,0 -2.294,-0.465 -3.122,-1.293c-0.829,-0.828 -1.294,-1.951 -1.294,-3.122l0,-11.576c0,-2.573 -0.57,-4.512 -1.709,-5.817c-1.14,-1.305 -2.776,-1.958 -4.908,-1.958c-2.316,0 -4.172,0.763 -5.569,2.289c-1.397,1.525 -2.095,3.703 -2.095,6.534l0,14.943l-2.477,0c-1.171,0 -2.295,-0.465 -3.123,-1.293c-0.828,-0.828 -1.293,-1.951 -1.293,-3.122l0,-11.576c0,-2.573 -0.57,-4.512 -1.709,-5.817c-1.14,-1.305 -2.776,-1.958 -4.908,-1.958c-2.353,0 -4.218,0.754 -5.597,2.261c-1.378,1.507 -2.067,3.695 -2.067,6.562l0,14.943Z" style="fill:#fff;"/><path d="M329.177,317.009l-2.477,0c-1.171,0 -2.294,-0.465 -3.122,-1.293c-0.829,-0.828 -1.294,-1.951 -1.294,-3.122c0,-8.217 0,-25.03 0,-25.03l6.893,0l0,29.445Z" style="fill:#fff;"/><path d="M419.559,317.009l-2.477,0c-1.171,0 -2.295,-0.465 -3.123,-1.293c-0.828,-0.828 -1.293,-1.951 -1.293,-3.122c0,-8.217 0,-25.03 0,-25.03l6.893,0l0,29.445Z" style="fill:#fff;"/><path d="M367.45,317.009l-2.477,0c-1.171,0 -2.294,-0.465 -3.122,-1.293c-0.828,-0.828 -1.293,-1.951 -1.293,-3.122c0,-8.217 0,-25.03 0,-25.03l6.892,0l0,29.445Z" style="fill:#fff;"/><path d="M325.731,282.601c-1.141,0 -2.097,-0.385 -2.868,-1.154c-0.772,-0.769 -1.157,-1.726 -1.157,-2.871c0,-1.145 0.385,-2.102 1.157,-2.871c0.771,-0.769 1.727,-1.154 2.868,-1.154c1.14,0 2.096,0.367 2.867,1.1c0.772,0.734 1.157,1.655 1.157,2.764c0,1.181 -0.377,2.173 -1.132,2.978c-0.754,0.805 -1.719,1.208 -2.892,1.208Z" style="fill:#fff;"/><path d="M364.004,282.601c-1.14,0 -2.096,-0.385 -2.868,-1.154c-0.771,-0.769 -1.157,-1.726 -1.157,-2.871c0,-1.145 0.386,-2.102 1.157,-2.871c0.772,-0.769 1.728,-1.154 2.868,-1.154c1.14,0 2.096,0.367 2.868,1.1c0.771,0.734 1.157,1.655 1.157,2.764c0,1.181 -0.377,2.173 -1.132,2.978c-0.755,0.805 -1.719,1.208 -2.893,1.208Z" style="fill:#fff;"/><path d="M416.112,282.601c-1.14,0 -2.096,-0.385 -2.867,-1.154c-0.772,-0.769 -1.157,-1.726 -1.157,-2.871c0,-1.145 0.385,-2.102 1.157,-2.871c0.771,-0.769 1.727,-1.154 2.867,-1.154c1.141,0 2.097,0.367 2.868,1.1c0.772,0.734 1.157,1.655 1.157,2.764c0,1.181 -0.377,2.173 -1.132,2.978c-0.754,0.805 -1.719,1.208 -2.893,1.208Z" style="fill:#fff;"/><path d="M382.256,327.707l-2.477,0c-1.171,0 -2.294,-0.466 -3.123,-1.294c-0.828,-0.828 -1.293,-1.951 -1.293,-3.122l0,-35.727l6.562,0l0,3.86c1.14,-1.397 2.546,-2.445 4.218,-3.143c1.673,-0.699 3.52,-1.048 5.542,-1.048c2.867,0 5.431,0.625 7.692,1.875c2.261,1.25 4.035,3.014 5.321,5.293c1.287,2.28 1.93,4.908 1.93,7.886c0,2.977 -0.643,5.615 -1.93,7.912c-1.286,2.298 -3.06,4.072 -5.321,5.321c-2.261,1.25 -4.825,1.875 -7.692,1.875c-3.97,0 -7.113,-1.323 -9.429,-3.97l0,14.282Zm8.657,-16.212c2.536,0 4.623,-0.845 6.258,-2.536c1.636,-1.691 2.454,-3.915 2.454,-6.672c0,-2.758 -0.818,-4.982 -2.454,-6.673c-1.635,-1.691 -3.722,-2.536 -6.258,-2.536c-1.654,0 -3.143,0.377 -4.467,1.13c-1.323,0.754 -2.371,1.829 -3.143,3.226c-0.772,1.397 -1.158,3.015 -1.158,4.853c0,1.838 0.386,3.455 1.158,4.852c0.772,1.397 1.82,2.472 3.143,3.226c1.324,0.753 2.813,1.13 4.467,1.13Z" style="fill:#fff;"/></g></g></g></svg>
