<?xml version="1.0" encoding="UTF-8" standalone="no"?><!DOCTYPE svg PUBLIC "-//W3C//DTD SVG 1.1//EN" "http://www.w3.org/Graphics/SVG/1.1/DTD/svg11.dtd"><svg width="100%" height="100%" viewBox="0 0 600 600" version="1.1" xmlns="http://www.w3.org/2000/svg" xmlns:xlink="http://www.w3.org/1999/xlink" xml:space="preserve" xmlns:serif="http://www.serif.com/" style="fill-rule:evenodd;clip-rule:evenodd;stroke-linejoin:round;stroke-miterlimit:2;"><rect id="logo-skole-ua" x="0" y="0" width="600" height="600" style="fill:none;"/><g id="logo-skole-ua1" serif:id="logo-skole-ua"><path d="M356.505,314.078c2.655,4.01 8.172,6.154 12.879,4.33c2.221,-0.86 4.127,-2.495 5.338,-4.555c0,0 5.858,3.326 5.858,3.326c-3.936,6.748 -12.738,10.24 -20.227,7.904c-6.971,-2.174 -12.163,-9.108 -12.237,-16.451c-0.091,-9.025 7.733,-17.39 17.132,-17.568c0.143,-0.002 0.287,-0.002 0.43,-0.001c6.506,0.079 12.596,4.091 15.458,10.046c0.298,0.62 0.418,0.928 0.575,1.342c0.671,1.78 1.059,2.904 1.393,4.5l-26.599,7.127Zm-60.167,-23.045c8.477,0.081 16.28,7.058 17.189,15.52c0.791,7.365 -3.666,15.009 -10.527,17.914c-6.211,2.629 -13.905,1.214 -18.78,-3.439c-5.348,-5.105 -6.895,-13.77 -3.536,-20.422c2.851,-5.646 8.882,-9.47 15.318,-9.572c0.112,-0.001 0.224,-0.001 0.336,-0.001Zm-39.025,-10.104l-33.681,0c0,8.291 -0.061,16.583 0.001,24.874c0.118,6.605 6.083,12.221 13.381,12.281l7.967,0l0,6.737c-5.334,0 -10.695,0.438 -15.502,-1.34c-7.245,-2.678 -12.542,-9.797 -12.583,-17.844l0,-31.444l40.417,0l0,6.736Zm2.75,22.161c1.33,-6.253 7.071,-11.374 13.755,-11.438l0.08,0c0.008,2.246 0.015,4.491 0.022,6.736c-0.099,0.001 -0.199,0.002 -0.299,0.006c-3.713,0.153 -7.07,3.232 -7.111,7.492l-0.001,0c6.279,3.96 10.738,10.933 10.768,18.926l-6.736,0.026c-0.028,-7.408 -5.812,-14.192 -13.22,-15.467l0,15.454l-7.298,0l0,-32.977l7.298,0l0,10.724c0.926,0.112 1.842,0.286 2.742,0.518Zm70.866,-11.926c3.685,0.044 7.131,2.627 8.172,6.23c0,0 0.876,3.189 0.876,3.189l3.217,11.454l3.635,12.788l-7.513,0l-2.768,-10.998l-2.94,-11.522c-0.558,-2.134 -0.78,-4.622 -2.786,-4.667c-0.017,0 0.431,-0.164 -0.455,0.054c-0.872,0.215 -1.498,1.491 -1.498,1.491l-0.77,2.929l-2.418,9.452l-3.325,13.261l-7.509,0c2.607,-9.139 5.199,-18.256 7.741,-27.428c1.022,-3.548 4.505,-6.198 8.24,-6.233c0.034,0 0.067,0 0.101,0Zm-34.772,6.605c-5.995,0.057 -11.32,5.948 -10.502,12.095c0.667,5.01 5.353,9.171 10.433,9.236c7.116,0.09 13.127,-8.403 9.726,-15.341c-1.755,-3.58 -5.54,-6.003 -9.657,-5.99Zm0.069,6.171c2.481,0 4.495,2.014 4.495,4.495c0,2.481 -2.014,4.495 -4.495,4.495c-2.48,0 -4.494,-2.014 -4.494,-4.495c0,-2.481 2.014,-4.495 4.494,-4.495Zm78.313,-1.042c-2.993,-5.548 -10.596,-6.728 -15.451,-2.883c-1.613,1.278 -2.869,3.118 -3.549,5.05c-0.345,0.98 -0.563,2.017 -0.623,3.054l19.623,-5.221Z" style="fill:#fff;"/></g></svg>
