<?xml version="1.0" encoding="UTF-8" standalone="no"?><!DOCTYPE svg PUBLIC "-//W3C//DTD SVG 1.1//EN" "http://www.w3.org/Graphics/SVG/1.1/DTD/svg11.dtd"><svg width="100%" height="100%" viewBox="0 0 1200 744" version="1.1" xmlns="http://www.w3.org/2000/svg" xmlns:xlink="http://www.w3.org/1999/xlink" xml:space="preserve" xmlns:serif="http://www.serif.com/" style="fill-rule:evenodd;clip-rule:evenodd;stroke-linejoin:round;stroke-miterlimit:2;"><rect id="logo-ruporno" x="0" y="0" width="1200" height="744" style="fill:none;"/><g><path d="M545.676,411.391l-0.215,0.213l-0.298,0.081l-0.41,-0.152c-0.144,-0.104 -0.323,-0.213 -0.542,-0.333c-0.213,-0.117 -0.473,-0.227 -0.781,-0.328c-0.305,-0.102 -0.684,-0.156 -1.132,-0.156c-0.585,0 -1.104,0.108 -1.552,0.321c-0.448,0.21 -0.823,0.511 -1.121,0.902c-0.296,0.394 -0.523,0.871 -0.676,1.432c-0.156,0.565 -0.235,1.194 -0.235,1.896c0,0.725 0.081,1.373 0.246,1.938c0.164,0.567 0.394,1.046 0.698,1.432c0.302,0.385 0.665,0.681 1.1,0.879c0.432,0.198 0.913,0.3 1.442,0.3c0.517,0 0.936,-0.061 1.273,-0.188c0.332,-0.127 0.611,-0.264 0.832,-0.41c0.219,-0.148 0.402,-0.284 0.548,-0.409l0.456,-0.193c0.192,0 0.344,0.075 0.45,0.221l0.686,0.881c-0.286,0.354 -0.605,0.648 -0.961,0.892c-0.356,0.246 -0.731,0.446 -1.131,0.602c-0.398,0.156 -0.817,0.267 -1.251,0.338c-0.439,0.077 -0.881,0.112 -1.329,0.112c-0.775,0 -1.5,-0.139 -2.171,-0.427c-0.673,-0.286 -1.253,-0.702 -1.749,-1.248c-0.495,-0.546 -0.881,-1.215 -1.169,-2.013c-0.283,-0.794 -0.427,-1.696 -0.427,-2.707c0,-0.921 0.129,-1.775 0.386,-2.555c0.256,-0.783 0.635,-1.458 1.138,-2.025c0.5,-0.569 1.119,-1.009 1.85,-1.332c0.735,-0.322 1.575,-0.483 2.521,-0.483c0.89,0 1.673,0.142 2.349,0.425c0.675,0.288 1.279,0.69 1.81,1.213l-0.635,0.881Z" style="fill:#fff;fill-rule:nonzero;"/><path d="M553.746,419.805c1.175,0 2.051,-0.397 2.632,-1.189c0.575,-0.788 0.865,-1.901 0.865,-3.338c0,-1.432 -0.29,-2.549 -0.865,-3.343c-0.581,-0.796 -1.457,-1.192 -2.632,-1.192c-1.19,0 -2.079,0.396 -2.659,1.192c-0.583,0.794 -0.877,1.911 -0.877,3.343c0,1.437 0.294,2.55 0.877,3.338c0.58,0.792 1.469,1.189 2.659,1.189Zm0,-10.933c0.913,0 1.738,0.148 2.474,0.444c0.743,0.298 1.369,0.729 1.885,1.286c0.519,0.558 0.917,1.231 1.196,2.015c0.275,0.789 0.413,1.669 0.413,2.65c0,0.981 -0.138,1.863 -0.413,2.655c-0.279,0.79 -0.677,1.463 -1.196,2.019c-0.516,0.554 -1.142,0.977 -1.885,1.277c-0.736,0.296 -1.561,0.444 -2.474,0.444c-0.923,0 -1.75,-0.148 -2.49,-0.444c-0.738,-0.3 -1.367,-0.723 -1.886,-1.277c-0.523,-0.556 -0.927,-1.229 -1.208,-2.019c-0.28,-0.792 -0.421,-1.674 -0.421,-2.655c0,-0.981 0.141,-1.861 0.421,-2.65c0.281,-0.784 0.685,-1.457 1.208,-2.015c0.519,-0.557 1.148,-0.988 1.886,-1.286c0.74,-0.296 1.567,-0.444 2.49,-0.444Z" style="fill:#fff;fill-rule:nonzero;"/><path d="M572.704,409.064l0,12.429l-1.432,0c-0.327,0 -0.539,-0.16 -0.637,-0.479l-0.171,-1.248c-0.267,0.287 -0.548,0.546 -0.844,0.787c-0.294,0.234 -0.608,0.436 -0.942,0.601c-0.333,0.168 -0.689,0.3 -1.062,0.393c-0.376,0.094 -0.78,0.144 -1.213,0.144c-0.684,0 -1.286,-0.118 -1.803,-0.344c-0.519,-0.231 -0.952,-0.55 -1.302,-0.962c-0.352,-0.413 -0.617,-0.905 -0.796,-1.484c-0.181,-0.579 -0.269,-1.221 -0.269,-1.919l0,-7.918l2.397,0l0,7.918c0,0.884 0.202,1.579 0.612,2.071c0.406,0.494 1.03,0.74 1.873,0.74c0.607,0 1.182,-0.146 1.711,-0.434c0.531,-0.293 1.027,-0.689 1.492,-1.193l0,-9.102l2.386,0Z" style="fill:#fff;fill-rule:nonzero;"/><path d="M578.278,410.791c0.273,-0.287 0.554,-0.546 0.846,-0.781c0.292,-0.236 0.606,-0.44 0.934,-0.607c0.331,-0.168 0.687,-0.298 1.066,-0.393c0.378,-0.092 0.786,-0.138 1.215,-0.138c0.686,0 1.288,0.111 1.807,0.342c0.515,0.227 0.95,0.548 1.302,0.96c0.35,0.409 0.615,0.905 0.794,1.486c0.181,0.579 0.269,1.219 0.269,1.919l0,7.914l-2.398,0l0,-7.914c0,-0.889 -0.203,-1.579 -0.613,-2.071c-0.404,-0.496 -1.029,-0.742 -1.869,-0.742c-0.611,0 -1.184,0.144 -1.719,0.434c-0.534,0.289 -1.026,0.683 -1.484,1.179l0,9.114l-2.386,0l0,-12.429l1.43,0c0.335,0 0.544,0.162 0.623,0.477l0.183,1.25Z" style="fill:#fff;fill-rule:nonzero;"/><path d="M593.444,421.691c-0.999,0 -1.774,-0.287 -2.316,-0.846c-0.541,-0.566 -0.814,-1.365 -0.814,-2.411l0,-7.436l-1.442,0l-0.348,-0.126l-0.14,-0.385l0,-0.967l2.017,-0.283l0.538,-3.705l0.189,-0.325l0.361,-0.117l1.211,0l0,4.172l3.521,0l0,1.736l-3.521,0l0,7.278c0,0.49 0.12,0.856 0.36,1.094c0.24,0.242 0.548,0.36 0.925,0.36c0.217,0 0.409,-0.025 0.567,-0.083l0.409,-0.19l0.297,-0.189l0.217,-0.086l0.19,0.052l0.141,0.18l0.711,1.15c-0.394,0.358 -0.858,0.636 -1.394,0.829c-0.54,0.198 -1.1,0.298 -1.679,0.298Z" style="fill:#fff;fill-rule:nonzero;"/><path d="M606.571,413.896c0,-0.471 -0.069,-0.907 -0.204,-1.307c-0.134,-0.402 -0.331,-0.746 -0.594,-1.041c-0.26,-0.292 -0.579,-0.521 -0.952,-0.682c-0.377,-0.166 -0.809,-0.244 -1.296,-0.244c-1.003,0 -1.792,0.288 -2.368,0.865c-0.573,0.579 -0.941,1.382 -1.096,2.409l6.51,0Zm1.967,5.822c-0.292,0.344 -0.633,0.638 -1.015,0.886c-0.383,0.248 -0.792,0.452 -1.225,0.608c-0.429,0.156 -0.877,0.267 -1.336,0.338c-0.462,0.077 -0.918,0.112 -1.366,0.112c-0.857,0 -1.647,-0.142 -2.376,-0.433c-0.733,-0.29 -1.365,-0.713 -1.896,-1.273c-0.534,-0.557 -0.954,-1.249 -1.248,-2.078c-0.3,-0.825 -0.448,-1.777 -0.448,-2.855c0,-0.864 0.133,-1.669 0.406,-2.417c0.269,-0.748 0.654,-1.394 1.156,-1.95c0.501,-0.555 1.113,-0.99 1.84,-1.307c0.724,-0.319 1.54,-0.477 2.443,-0.477c0.76,0 1.458,0.123 2.1,0.371c0.638,0.248 1.192,0.611 1.657,1.083c0.462,0.474 0.831,1.055 1.094,1.749c0.266,0.692 0.397,1.483 0.397,2.373c0,0.369 -0.039,0.613 -0.124,0.742c-0.08,0.123 -0.228,0.188 -0.449,0.188l-8.147,0c0.025,0.743 0.131,1.387 0.317,1.937c0.189,0.551 0.448,1.009 0.779,1.376c0.329,0.369 0.723,0.639 1.18,0.819c0.456,0.183 0.964,0.272 1.529,0.272c0.527,0 0.988,-0.064 1.377,-0.185c0.384,-0.123 0.719,-0.254 1,-0.398c0.282,-0.142 0.519,-0.275 0.709,-0.396c0.192,-0.123 0.361,-0.187 0.51,-0.187c0.196,0 0.346,0.075 0.451,0.221l0.685,0.881Z" style="fill:#fff;fill-rule:nonzero;"/><path d="M613.541,411.452c0.4,-0.817 0.88,-1.455 1.442,-1.921c0.563,-0.467 1.238,-0.696 2.03,-0.696c0.268,0 0.525,0.029 0.764,0.089c0.242,0.063 0.45,0.156 0.63,0.279l-0.159,1.795c-0.056,0.22 -0.191,0.329 -0.402,0.329c-0.114,0 -0.287,-0.021 -0.514,-0.065c-0.23,-0.044 -0.474,-0.067 -0.734,-0.067c-0.383,0 -0.723,0.055 -1.015,0.163c-0.292,0.11 -0.556,0.275 -0.789,0.49c-0.232,0.218 -0.44,0.481 -0.619,0.798c-0.178,0.314 -0.346,0.667 -0.502,1.067l0,7.78l-2.384,0l0,-12.429l1.369,0c0.264,0 0.441,0.048 0.533,0.144c0.094,0.093 0.159,0.256 0.202,0.493l0.148,1.751Z" style="fill:#fff;fill-rule:nonzero;"/><path d="M626.738,415.976c-0.971,0.035 -1.795,0.11 -2.472,0.225c-0.675,0.12 -1.229,0.279 -1.652,0.471c-0.423,0.198 -0.729,0.427 -0.917,0.695c-0.186,0.261 -0.281,0.557 -0.281,0.886c0,0.308 0.052,0.575 0.152,0.8c0.102,0.225 0.242,0.407 0.419,0.55c0.173,0.142 0.379,0.248 0.616,0.313c0.238,0.065 0.496,0.096 0.769,0.096c0.367,0 0.705,-0.036 1.009,-0.107c0.308,-0.075 0.594,-0.181 0.863,-0.314c0.27,-0.134 0.525,-0.298 0.771,-0.496c0.245,-0.194 0.487,-0.419 0.723,-0.671l0,-2.448Zm-6.996,-5.172c0.692,-0.661 1.446,-1.153 2.257,-1.482c0.809,-0.327 1.702,-0.487 2.672,-0.487c0.708,0 1.335,0.118 1.881,0.346c0.546,0.233 1.009,0.558 1.382,0.973c0.377,0.416 0.662,0.914 0.852,1.494c0.19,0.579 0.287,1.217 0.287,1.919l0,7.926l-1.064,0c-0.236,0 -0.415,-0.039 -0.536,-0.116c-0.123,-0.078 -0.221,-0.223 -0.296,-0.434l-0.258,-1.088c-0.317,0.29 -0.63,0.551 -0.94,0.774c-0.31,0.223 -0.633,0.416 -0.973,0.577c-0.338,0.158 -0.698,0.277 -1.081,0.36c-0.386,0.081 -0.809,0.125 -1.272,0.125c-0.491,0 -0.95,-0.069 -1.377,-0.206c-0.427,-0.133 -0.8,-0.338 -1.119,-0.617c-0.317,-0.279 -0.567,-0.623 -0.754,-1.038c-0.181,-0.416 -0.273,-0.902 -0.273,-1.456c0,-0.488 0.131,-0.961 0.396,-1.413c0.266,-0.454 0.7,-0.858 1.296,-1.217c0.6,-0.358 1.383,-0.654 2.35,-0.881c0.965,-0.227 2.153,-0.359 3.566,-0.39l0,-0.906c0,-0.936 -0.201,-1.638 -0.601,-2.105c-0.4,-0.464 -0.985,-0.696 -1.762,-0.696c-0.519,0 -0.957,0.065 -1.313,0.196c-0.356,0.131 -0.661,0.277 -0.917,0.434c-0.258,0.158 -0.481,0.304 -0.675,0.435c-0.19,0.131 -0.388,0.196 -0.592,0.196l-0.419,-0.134l-0.291,-0.32l-0.426,-0.769Z" style="fill:#fff;fill-rule:nonzero;"/><path d="M640.986,411.391l-0.214,0.213l-0.3,0.081l-0.409,-0.152c-0.142,-0.104 -0.321,-0.213 -0.54,-0.333c-0.216,-0.117 -0.473,-0.227 -0.783,-0.328c-0.304,-0.102 -0.682,-0.156 -1.13,-0.156c-0.587,0 -1.106,0.108 -1.554,0.321c-0.446,0.21 -0.821,0.511 -1.119,0.902c-0.296,0.394 -0.523,0.871 -0.679,1.432c-0.154,0.565 -0.232,1.194 -0.232,1.896c0,0.725 0.08,1.373 0.246,1.938c0.163,0.567 0.394,1.046 0.698,1.432c0.302,0.385 0.665,0.681 1.099,0.879c0.433,0.198 0.914,0.3 1.442,0.3c0.516,0 0.937,-0.061 1.271,-0.188c0.335,-0.127 0.614,-0.264 0.835,-0.41c0.219,-0.148 0.402,-0.284 0.548,-0.409l0.454,-0.193c0.194,0 0.348,0.075 0.451,0.221l0.687,0.881c-0.287,0.354 -0.606,0.648 -0.961,0.892c-0.356,0.246 -0.733,0.446 -1.133,0.602c-0.396,0.156 -0.813,0.267 -1.25,0.338c-0.438,0.077 -0.88,0.112 -1.328,0.112c-0.775,0 -1.5,-0.139 -2.171,-0.427c-0.673,-0.286 -1.256,-0.702 -1.75,-1.248c-0.494,-0.546 -0.88,-1.215 -1.169,-2.013c-0.282,-0.794 -0.427,-1.696 -0.427,-2.707c0,-0.921 0.129,-1.775 0.387,-2.555c0.256,-0.783 0.634,-1.458 1.136,-2.025c0.502,-0.569 1.119,-1.009 1.852,-1.332c0.734,-0.322 1.574,-0.483 2.52,-0.483c0.891,0 1.673,0.142 2.35,0.425c0.675,0.288 1.279,0.69 1.809,1.213l-0.636,0.881Z" style="fill:#fff;fill-rule:nonzero;"/><path d="M656.298,405.153c0,0.218 -0.044,0.431 -0.134,0.629c-0.092,0.202 -0.212,0.375 -0.362,0.527c-0.151,0.15 -0.326,0.267 -0.53,0.354c-0.206,0.084 -0.419,0.13 -0.637,0.13c-0.221,0 -0.43,-0.046 -0.625,-0.13c-0.196,-0.087 -0.369,-0.204 -0.519,-0.354c-0.152,-0.152 -0.271,-0.325 -0.355,-0.527c-0.087,-0.198 -0.129,-0.411 -0.129,-0.629c0,-0.23 0.042,-0.444 0.129,-0.648c0.084,-0.205 0.203,-0.382 0.355,-0.534c0.15,-0.148 0.323,-0.269 0.519,-0.354c0.195,-0.086 0.404,-0.127 0.625,-0.127c0.218,0 0.431,0.041 0.637,0.127c0.204,0.085 0.379,0.206 0.53,0.354c0.15,0.152 0.27,0.329 0.362,0.534c0.09,0.204 0.134,0.418 0.134,0.648Zm-0.54,16.34l-2.396,0l0,-10.495l-6.237,0l0,7.278c0,0.49 0.119,0.856 0.36,1.094c0.24,0.242 0.548,0.36 0.925,0.36c0.219,0 0.409,-0.025 0.567,-0.083l0.409,-0.19l0.294,-0.189l0.22,-0.086l0.19,0.052l0.142,0.18l0.71,1.15c-0.394,0.358 -0.858,0.636 -1.394,0.829c-0.541,0.198 -1.1,0.298 -1.679,0.298c-1.002,0 -1.773,-0.287 -2.317,-0.846c-0.54,-0.566 -0.811,-1.365 -0.811,-2.411l0,-7.436l-1.442,0l-0.352,-0.126l-0.138,-0.385l0,-0.967l2.03,-0.283l0.525,-3.705l0.188,-0.325l0.362,-0.117l1.211,0l0,4.172l8.633,0l0,12.231Z" style="fill:#fff;fill-rule:nonzero;"/><path d="M661.457,410.791c0.269,-0.287 0.55,-0.546 0.846,-0.781c0.292,-0.236 0.604,-0.44 0.935,-0.607c0.332,-0.168 0.684,-0.298 1.063,-0.393c0.379,-0.092 0.786,-0.138 1.219,-0.138c0.682,0 1.286,0.111 1.803,0.342c0.516,0.227 0.952,0.548 1.3,0.96c0.354,0.409 0.617,0.905 0.796,1.486c0.179,0.579 0.271,1.219 0.271,1.919l0,7.914l-2.397,0l0,-7.914c0,-0.889 -0.206,-1.579 -0.612,-2.071c-0.409,-0.496 -1.034,-0.742 -1.873,-0.742c-0.611,0 -1.182,0.144 -1.717,0.434c-0.534,0.289 -1.03,0.683 -1.486,1.179l0,9.114l-2.386,0l0,-12.429l1.433,0c0.334,0 0.54,0.162 0.624,0.477l0.181,1.25Z" style="fill:#fff;fill-rule:nonzero;"/><path d="M677.272,415.292c0.425,0 0.798,-0.06 1.121,-0.171c0.321,-0.114 0.59,-0.275 0.805,-0.485c0.217,-0.205 0.379,-0.455 0.489,-0.752c0.111,-0.292 0.165,-0.615 0.165,-0.965c0,-0.719 -0.217,-1.29 -0.654,-1.719c-0.436,-0.426 -1.078,-0.642 -1.926,-0.642c-0.841,0 -1.479,0.216 -1.915,0.642c-0.435,0.429 -0.652,1 -0.652,1.719c0,0.35 0.052,0.669 0.163,0.958c0.11,0.292 0.275,0.54 0.489,0.748c0.215,0.207 0.488,0.369 0.807,0.49c0.323,0.117 0.692,0.177 1.108,0.177Zm3.805,6.849c0,-0.293 -0.081,-0.529 -0.246,-0.702c-0.164,-0.177 -0.385,-0.317 -0.666,-0.419c-0.28,-0.102 -0.609,-0.173 -0.986,-0.218c-0.373,-0.046 -0.767,-0.08 -1.179,-0.103c-0.411,-0.025 -0.832,-0.048 -1.265,-0.07c-0.434,-0.021 -0.85,-0.059 -1.25,-0.117c-0.423,0.214 -0.773,0.471 -1.044,0.771c-0.275,0.302 -0.409,0.658 -0.409,1.067c0,0.258 0.065,0.504 0.2,0.731c0.134,0.231 0.344,0.427 0.625,0.594c0.28,0.167 0.636,0.298 1.065,0.39c0.427,0.096 0.938,0.141 1.534,0.141c0.587,0 1.106,-0.05 1.554,-0.152c0.448,-0.1 0.825,-0.244 1.132,-0.425c0.304,-0.187 0.537,-0.404 0.694,-0.656c0.16,-0.254 0.241,-0.532 0.241,-0.832Zm2.42,-12.61l0,0.893c0,0.292 -0.182,0.476 -0.55,0.549l-1.334,0.197c0.114,0.253 0.204,0.521 0.269,0.799c0.066,0.283 0.098,0.577 0.098,0.889c0,0.611 -0.115,1.163 -0.355,1.655c-0.235,0.494 -0.562,0.917 -0.977,1.267c-0.417,0.352 -0.91,0.621 -1.486,0.808c-0.575,0.186 -1.204,0.282 -1.89,0.282c-0.562,0 -1.087,-0.061 -1.577,-0.186c-0.244,0.146 -0.429,0.308 -0.558,0.485c-0.127,0.176 -0.188,0.349 -0.188,0.521c0,0.284 0.119,0.496 0.361,0.634c0.239,0.14 0.552,0.24 0.941,0.298c0.388,0.064 0.832,0.102 1.334,0.117c0.502,0.018 1.009,0.045 1.529,0.081c0.517,0.035 1.028,0.1 1.528,0.196c0.502,0.094 0.944,0.243 1.333,0.452c0.388,0.21 0.701,0.492 0.94,0.858c0.242,0.359 0.361,0.832 0.361,1.411c0,0.536 -0.13,1.061 -0.398,1.565c-0.265,0.504 -0.65,0.956 -1.155,1.346c-0.504,0.392 -1.119,0.706 -1.844,0.94c-0.725,0.237 -1.55,0.358 -2.473,0.358c-0.919,0 -1.723,-0.091 -2.403,-0.269c-0.681,-0.181 -1.246,-0.423 -1.7,-0.723c-0.454,-0.302 -0.792,-0.652 -1.015,-1.052c-0.225,-0.4 -0.339,-0.815 -0.339,-1.248c0,-0.604 0.191,-1.113 0.566,-1.534c0.373,-0.421 0.894,-0.748 1.551,-0.987c-0.357,-0.161 -0.644,-0.384 -0.855,-0.665c-0.212,-0.281 -0.316,-0.654 -0.316,-1.121c0,-0.177 0.033,-0.363 0.097,-0.556c0.063,-0.188 0.165,-0.38 0.3,-0.574c0.134,-0.191 0.301,-0.372 0.501,-0.545c0.2,-0.169 0.431,-0.324 0.691,-0.463c-0.614,-0.342 -1.094,-0.796 -1.444,-1.363c-0.348,-0.567 -0.525,-1.229 -0.525,-1.988c0,-0.612 0.117,-1.162 0.355,-1.652c0.235,-0.49 0.564,-0.907 0.983,-1.261c0.421,-0.348 0.923,-0.617 1.504,-0.806c0.584,-0.186 1.222,-0.281 1.915,-0.281c1.078,0 2.003,0.225 2.776,0.673l3.449,0Z" style="fill:#fff;fill-rule:nonzero;"/><path d="M697.316,412.394c0.669,0 1.258,-0.082 1.769,-0.244c0.509,-0.165 0.936,-0.394 1.277,-0.694c0.344,-0.296 0.6,-0.65 0.771,-1.061c0.173,-0.414 0.255,-0.865 0.255,-1.365c0,-1.012 -0.33,-1.775 -0.996,-2.288c-0.663,-0.514 -1.661,-0.77 -2.989,-0.77l-2.458,0l0,6.422l2.371,0Zm8.197,9.099l-2.325,0c-0.463,0 -0.804,-0.183 -1.017,-0.55l-4.342,-6.091c-0.136,-0.202 -0.29,-0.35 -0.45,-0.435c-0.163,-0.085 -0.409,-0.131 -0.734,-0.131l-1.7,0l0,7.207l-2.607,0l0,-17.564l5.065,0c1.136,0 2.111,0.117 2.93,0.35c0.817,0.232 1.494,0.561 2.03,0.992c0.535,0.425 0.929,0.942 1.185,1.546c0.257,0.603 0.386,1.28 0.386,2.03c0,0.611 -0.094,1.184 -0.281,1.723c-0.188,0.538 -0.463,1.021 -0.824,1.449c-0.364,0.429 -0.806,0.798 -1.329,1.108c-0.523,0.309 -1.115,0.546 -1.775,0.709c0.327,0.195 0.61,0.47 0.846,0.82l4.942,6.837Z" style="fill:#fff;fill-rule:nonzero;"/><path d="M717.107,409.064l0,12.429l-1.433,0c-0.325,0 -0.538,-0.16 -0.638,-0.479l-0.167,-1.248c-0.271,0.287 -0.55,0.546 -0.846,0.787c-0.293,0.234 -0.606,0.436 -0.942,0.601c-0.333,0.168 -0.689,0.3 -1.062,0.393c-0.377,0.094 -0.78,0.144 -1.213,0.144c-0.685,0 -1.288,-0.118 -1.804,-0.344c-0.521,-0.231 -0.951,-0.55 -1.301,-0.962c-0.352,-0.413 -0.617,-0.905 -0.796,-1.484c-0.181,-0.579 -0.269,-1.221 -0.269,-1.919l0,-7.918l2.397,0l0,7.918c0,0.884 0.202,1.579 0.612,2.071c0.405,0.494 1.03,0.74 1.872,0.74c0.61,0 1.183,-0.146 1.712,-0.434c0.53,-0.293 1.026,-0.689 1.492,-1.193l0,-9.102l2.386,0Z" style="fill:#fff;fill-rule:nonzero;"/><path d="M727.77,411.206l-0.206,0.227l-0.28,0.069l-0.437,-0.134c-0.157,-0.093 -0.348,-0.189 -0.573,-0.296c-0.223,-0.104 -0.49,-0.202 -0.792,-0.293c-0.302,-0.09 -0.659,-0.134 -1.075,-0.134c-0.342,0 -0.653,0.042 -0.934,0.129c-0.283,0.086 -0.519,0.201 -0.717,0.355c-0.193,0.148 -0.344,0.327 -0.454,0.537c-0.104,0.205 -0.158,0.43 -0.158,0.667c0,0.309 0.093,0.565 0.275,0.769c0.185,0.202 0.425,0.379 0.723,0.525c0.298,0.148 0.635,0.281 1.015,0.396c0.379,0.121 0.768,0.246 1.162,0.375c0.396,0.131 0.782,0.281 1.161,0.448c0.379,0.167 0.719,0.375 1.015,0.623c0.298,0.248 0.537,0.548 0.723,0.9c0.183,0.35 0.275,0.778 0.275,1.284c0,0.579 -0.106,1.113 -0.311,1.606c-0.208,0.496 -0.514,0.921 -0.919,1.28c-0.404,0.36 -0.902,0.64 -1.496,0.844c-0.598,0.202 -1.279,0.308 -2.042,0.308c-0.858,0 -1.65,-0.144 -2.375,-0.431c-0.725,-0.284 -1.332,-0.65 -1.821,-1.086l0.562,-0.921l0.244,-0.264l0.392,-0.088l0.477,0.169c0.162,0.114 0.358,0.239 0.585,0.375c0.23,0.133 0.507,0.256 0.832,0.365c0.327,0.112 0.736,0.166 1.225,0.166c0.407,0 0.761,-0.05 1.063,-0.152c0.302,-0.102 0.552,-0.242 0.752,-0.416c0.2,-0.176 0.35,-0.378 0.446,-0.605c0.098,-0.231 0.15,-0.469 0.15,-0.723c0,-0.325 -0.094,-0.598 -0.279,-0.813c-0.182,-0.214 -0.423,-0.402 -0.719,-0.558c-0.298,-0.152 -0.64,-0.287 -1.021,-0.404c-0.384,-0.113 -0.777,-0.234 -1.177,-0.365c-0.398,-0.131 -0.788,-0.283 -1.172,-0.452c-0.383,-0.171 -0.723,-0.388 -1.023,-0.648c-0.295,-0.261 -0.537,-0.581 -0.719,-0.956c-0.185,-0.373 -0.277,-0.828 -0.277,-1.368c0,-0.483 0.102,-0.943 0.302,-1.381c0.199,-0.442 0.488,-0.827 0.869,-1.163c0.378,-0.335 0.848,-0.602 1.405,-0.802c0.558,-0.2 1.194,-0.298 1.913,-0.298c0.821,0 1.569,0.131 2.231,0.39c0.667,0.26 1.234,0.621 1.709,1.073l-0.529,0.871Z" style="fill:#fff;fill-rule:nonzero;"/><path d="M738.399,411.206l-0.208,0.227l-0.28,0.069l-0.435,-0.134c-0.159,-0.093 -0.352,-0.189 -0.575,-0.296c-0.225,-0.104 -0.486,-0.202 -0.788,-0.293c-0.302,-0.09 -0.66,-0.134 -1.075,-0.134c-0.344,0 -0.658,0.042 -0.938,0.129c-0.281,0.086 -0.519,0.201 -0.714,0.355c-0.196,0.148 -0.349,0.327 -0.453,0.537c-0.108,0.205 -0.158,0.43 -0.158,0.667c0,0.309 0.088,0.565 0.275,0.769c0.181,0.202 0.423,0.379 0.721,0.525c0.296,0.148 0.636,0.281 1.017,0.396c0.379,0.121 0.763,0.246 1.161,0.375c0.395,0.131 0.781,0.281 1.162,0.448c0.379,0.167 0.715,0.375 1.013,0.623c0.296,0.248 0.538,0.548 0.721,0.9c0.185,0.35 0.277,0.778 0.277,1.284c0,0.579 -0.104,1.113 -0.313,1.606c-0.21,0.496 -0.514,0.921 -0.918,1.28c-0.401,0.36 -0.903,0.64 -1.497,0.844c-0.595,0.202 -1.275,0.308 -2.042,0.308c-0.858,0 -1.646,-0.144 -2.371,-0.431c-0.729,-0.284 -1.336,-0.65 -1.825,-1.086l0.564,-0.921l0.246,-0.264l0.39,-0.088l0.475,0.169c0.163,0.114 0.358,0.239 0.588,0.375c0.227,0.133 0.504,0.256 0.831,0.365c0.329,0.112 0.734,0.166 1.223,0.166c0.409,0 0.761,-0.05 1.063,-0.152c0.302,-0.102 0.552,-0.242 0.752,-0.416c0.202,-0.176 0.35,-0.378 0.448,-0.605c0.1,-0.231 0.146,-0.469 0.146,-0.723c0,-0.325 -0.09,-0.598 -0.273,-0.813c-0.185,-0.214 -0.425,-0.402 -0.723,-0.558c-0.298,-0.152 -0.64,-0.287 -1.021,-0.404c-0.383,-0.113 -0.773,-0.234 -1.175,-0.365c-0.4,-0.131 -0.79,-0.283 -1.173,-0.452c-0.384,-0.171 -0.724,-0.388 -1.021,-0.648c-0.298,-0.261 -0.54,-0.581 -0.723,-0.956c-0.182,-0.373 -0.274,-0.828 -0.274,-1.368c0,-0.483 0.098,-0.943 0.299,-1.381c0.2,-0.442 0.489,-0.827 0.87,-1.163c0.378,-0.335 0.846,-0.602 1.405,-0.802c0.558,-0.2 1.198,-0.298 1.915,-0.298c0.823,0 1.567,0.131 2.232,0.39c0.664,0.26 1.233,0.621 1.706,1.073l-0.527,0.871Z" style="fill:#fff;fill-rule:nonzero;"/><path d="M744.196,409.064l0,12.429l-2.386,0l0,-12.429l2.386,0Zm0.454,-3.839c0,0.223 -0.048,0.43 -0.139,0.63c-0.088,0.2 -0.207,0.377 -0.357,0.525c-0.152,0.152 -0.329,0.271 -0.535,0.356c-0.204,0.086 -0.415,0.129 -0.636,0.129c-0.217,0 -0.427,-0.043 -0.619,-0.129c-0.198,-0.085 -0.371,-0.204 -0.521,-0.356c-0.152,-0.148 -0.271,-0.325 -0.356,-0.525c-0.087,-0.2 -0.127,-0.407 -0.127,-0.63c0,-0.227 0.04,-0.441 0.127,-0.643c0.085,-0.198 0.204,-0.373 0.356,-0.525c0.15,-0.148 0.323,-0.269 0.521,-0.355c0.192,-0.085 0.402,-0.127 0.619,-0.127c0.221,0 0.432,0.042 0.636,0.127c0.206,0.086 0.383,0.207 0.535,0.355c0.15,0.152 0.269,0.327 0.357,0.525c0.091,0.202 0.139,0.416 0.139,0.643Z" style="fill:#fff;fill-rule:nonzero;"/><path d="M754.337,415.976c-0.971,0.035 -1.796,0.11 -2.473,0.225c-0.675,0.12 -1.227,0.279 -1.652,0.471c-0.425,0.198 -0.728,0.427 -0.917,0.695c-0.188,0.261 -0.281,0.557 -0.281,0.886c0,0.308 0.052,0.575 0.154,0.8c0.1,0.225 0.241,0.407 0.417,0.55c0.173,0.142 0.379,0.248 0.616,0.313c0.238,0.065 0.494,0.096 0.771,0.096c0.365,0 0.703,-0.036 1.007,-0.107c0.308,-0.075 0.596,-0.181 0.864,-0.314c0.269,-0.134 0.526,-0.298 0.771,-0.496c0.244,-0.194 0.486,-0.419 0.723,-0.671l0,-2.448Zm-6.997,-5.172c0.692,-0.661 1.446,-1.153 2.257,-1.482c0.809,-0.327 1.702,-0.487 2.673,-0.487c0.707,0 1.334,0.118 1.88,0.346c0.548,0.233 1.009,0.558 1.384,0.973c0.375,0.416 0.66,0.914 0.85,1.494c0.192,0.579 0.287,1.217 0.287,1.919l0,7.926l-1.064,0c-0.234,0 -0.415,-0.039 -0.536,-0.116c-0.123,-0.078 -0.221,-0.223 -0.296,-0.434l-0.258,-1.088c-0.315,0.29 -0.628,0.551 -0.94,0.774c-0.31,0.223 -0.633,0.416 -0.973,0.577c-0.338,0.158 -0.7,0.277 -1.08,0.36c-0.387,0.081 -0.81,0.125 -1.273,0.125c-0.489,0 -0.95,-0.069 -1.377,-0.206c-0.427,-0.133 -0.8,-0.338 -1.119,-0.617c-0.317,-0.279 -0.567,-0.623 -0.752,-1.038c-0.182,-0.416 -0.275,-0.902 -0.275,-1.456c0,-0.488 0.131,-0.961 0.396,-1.413c0.266,-0.454 0.7,-0.858 1.296,-1.217c0.6,-0.358 1.383,-0.654 2.352,-0.881c0.963,-0.227 2.151,-0.359 3.565,-0.39l0,-0.906c0,-0.936 -0.2,-1.638 -0.6,-2.105c-0.4,-0.464 -0.987,-0.696 -1.762,-0.696c-0.521,0 -0.959,0.065 -1.315,0.196c-0.355,0.131 -0.659,0.277 -0.917,0.434c-0.256,0.158 -0.481,0.304 -0.675,0.435c-0.19,0.131 -0.388,0.196 -0.59,0.196l-0.421,-0.134l-0.29,-0.32l-0.427,-0.769Z" style="fill:#fff;fill-rule:nonzero;"/><path d="M762.114,410.791c0.269,-0.287 0.55,-0.546 0.846,-0.781c0.292,-0.236 0.602,-0.44 0.934,-0.607c0.331,-0.168 0.683,-0.298 1.062,-0.393c0.38,-0.092 0.786,-0.138 1.219,-0.138c0.684,0 1.288,0.111 1.803,0.342c0.517,0.227 0.954,0.548 1.304,0.96c0.352,0.409 0.613,0.905 0.794,1.486c0.177,0.579 0.271,1.219 0.271,1.919l0,7.914l-2.398,0l0,-7.914c0,-0.889 -0.205,-1.579 -0.613,-2.071c-0.409,-0.496 -1.032,-0.742 -1.871,-0.742c-0.613,0 -1.184,0.144 -1.717,0.434c-0.534,0.289 -1.03,0.683 -1.488,1.179l0,9.114l-2.386,0l0,-12.429l1.434,0c0.335,0 0.541,0.162 0.623,0.477l0.183,1.25Z" style="fill:#fff;fill-rule:nonzero;"/><path d="M782.124,418.434c0.39,0.515 0.811,0.873 1.265,1.076c0.452,0.204 0.957,0.306 1.523,0.306c1.09,0 1.938,-0.392 2.536,-1.179c0.6,-0.786 0.898,-1.934 0.898,-3.441c0,-0.792 -0.066,-1.467 -0.2,-2.025c-0.135,-0.559 -0.331,-1.015 -0.589,-1.371c-0.255,-0.355 -0.573,-0.615 -0.946,-0.782c-0.376,-0.168 -0.799,-0.252 -1.272,-0.252c-0.693,0 -1.296,0.156 -1.804,0.463c-0.511,0.31 -0.982,0.754 -1.411,1.323l0,5.882Zm-0.123,-7.509c0.259,-0.311 0.54,-0.594 0.836,-0.849c0.298,-0.258 0.617,-0.475 0.961,-0.662c0.341,-0.183 0.708,-0.325 1.093,-0.427c0.388,-0.1 0.803,-0.152 1.242,-0.152c0.711,0 1.353,0.137 1.926,0.416c0.577,0.279 1.065,0.682 1.475,1.224c0.406,0.537 0.723,1.2 0.946,1.991c0.225,0.792 0.338,1.699 0.338,2.73c0,0.919 -0.125,1.773 -0.373,2.561c-0.248,0.784 -0.603,1.471 -1.063,2.048c-0.463,0.58 -1.025,1.032 -1.69,1.361c-0.663,0.333 -1.413,0.496 -2.242,0.496c-0.744,0 -1.38,-0.121 -1.909,-0.365c-0.531,-0.243 -1.002,-0.587 -1.417,-1.029l0,5.395l-2.386,0l0,-16.599l1.43,0c0.333,0 0.542,0.162 0.623,0.477l0.21,1.384Z" style="fill:#fff;fill-rule:nonzero;"/><path d="M795.748,411.452c0.396,-0.817 0.879,-1.455 1.442,-1.921c0.562,-0.467 1.24,-0.696 2.031,-0.696c0.269,0 0.523,0.029 0.765,0.089c0.238,0.063 0.45,0.156 0.629,0.279l-0.158,1.795c-0.06,0.22 -0.194,0.329 -0.406,0.329c-0.113,0 -0.284,-0.021 -0.515,-0.065c-0.225,-0.044 -0.471,-0.067 -0.731,-0.067c-0.384,0 -0.723,0.055 -1.015,0.163c-0.296,0.11 -0.557,0.275 -0.79,0.49c-0.231,0.218 -0.437,0.481 -0.615,0.798c-0.183,0.314 -0.35,0.667 -0.502,1.067l0,7.78l-2.386,0l0,-12.429l1.371,0c0.259,0 0.436,0.048 0.53,0.144c0.093,0.093 0.162,0.256 0.2,0.493l0.15,1.751Z" style="fill:#fff;fill-rule:nonzero;"/><path d="M807.292,419.805c1.173,0 2.05,-0.397 2.631,-1.189c0.576,-0.788 0.865,-1.901 0.865,-3.338c0,-1.432 -0.289,-2.549 -0.865,-3.343c-0.581,-0.796 -1.458,-1.192 -2.631,-1.192c-1.192,0 -2.078,0.396 -2.661,1.192c-0.582,0.794 -0.875,1.911 -0.875,3.343c0,1.437 0.293,2.55 0.875,3.338c0.583,0.792 1.469,1.189 2.661,1.189Zm0,-10.933c0.914,0 1.737,0.148 2.475,0.444c0.74,0.298 1.367,0.729 1.884,1.286c0.519,0.558 0.917,1.231 1.194,2.015c0.275,0.789 0.415,1.669 0.415,2.65c0,0.981 -0.14,1.863 -0.415,2.655c-0.277,0.79 -0.675,1.463 -1.194,2.019c-0.517,0.554 -1.144,0.977 -1.884,1.277c-0.738,0.296 -1.561,0.444 -2.475,0.444c-0.923,0 -1.751,-0.148 -2.49,-0.444c-0.738,-0.3 -1.369,-0.723 -1.888,-1.277c-0.523,-0.556 -0.925,-1.229 -1.205,-2.019c-0.281,-0.792 -0.421,-1.674 -0.421,-2.655c0,-0.981 0.14,-1.861 0.421,-2.65c0.28,-0.784 0.682,-1.457 1.205,-2.015c0.519,-0.557 1.15,-0.988 1.888,-1.286c0.739,-0.296 1.567,-0.444 2.49,-0.444Z" style="fill:#fff;fill-rule:nonzero;"/><path d="M818.298,418.434c0.39,0.515 0.815,0.873 1.265,1.076c0.454,0.204 0.962,0.306 1.523,0.306c1.094,0 1.938,-0.392 2.538,-1.179c0.602,-0.786 0.9,-1.934 0.9,-3.441c0,-0.792 -0.069,-1.467 -0.204,-2.025c-0.135,-0.559 -0.327,-1.015 -0.585,-1.371c-0.257,-0.355 -0.574,-0.615 -0.949,-0.782c-0.373,-0.168 -0.796,-0.252 -1.271,-0.252c-0.694,0 -1.294,0.156 -1.804,0.463c-0.509,0.31 -0.98,0.754 -1.413,1.323l0,5.882Zm-0.123,-7.509c0.263,-0.311 0.54,-0.594 0.84,-0.849c0.296,-0.258 0.617,-0.475 0.958,-0.662c0.342,-0.183 0.707,-0.325 1.096,-0.427c0.388,-0.1 0.8,-0.152 1.242,-0.152c0.707,0 1.35,0.137 1.926,0.416c0.573,0.279 1.066,0.682 1.471,1.224c0.41,0.537 0.727,1.2 0.95,1.991c0.225,0.792 0.335,1.699 0.335,2.73c0,0.919 -0.122,1.773 -0.373,2.561c-0.248,0.784 -0.604,1.471 -1.064,2.048c-0.459,0.58 -1.025,1.032 -1.686,1.361c-0.667,0.333 -1.413,0.496 -2.246,0.496c-0.74,0 -1.376,-0.121 -1.909,-0.365c-0.527,-0.243 -1.002,-0.587 -1.417,-1.029l0,5.395l-2.386,0l0,-16.599l1.434,0c0.333,0 0.541,0.162 0.623,0.477l0.206,1.384Z" style="fill:#fff;fill-rule:nonzero;"/><path d="M836.351,415.976c-0.971,0.035 -1.794,0.11 -2.473,0.225c-0.675,0.12 -1.227,0.279 -1.652,0.471c-0.423,0.198 -0.728,0.427 -0.915,0.695c-0.188,0.261 -0.281,0.557 -0.281,0.886c0,0.308 0.05,0.575 0.152,0.8c0.102,0.225 0.242,0.407 0.419,0.55c0.171,0.142 0.377,0.248 0.614,0.313c0.238,0.065 0.496,0.096 0.771,0.096c0.367,0 0.705,-0.036 1.009,-0.107c0.308,-0.075 0.594,-0.181 0.862,-0.314c0.271,-0.134 0.526,-0.298 0.771,-0.496c0.246,-0.194 0.486,-0.419 0.723,-0.671l0,-2.448Zm-6.995,-5.172c0.692,-0.661 1.444,-1.153 2.255,-1.482c0.809,-0.327 1.704,-0.487 2.675,-0.487c0.707,0 1.332,0.118 1.88,0.346c0.546,0.233 1.009,0.558 1.382,0.973c0.377,0.416 0.66,0.914 0.852,1.494c0.19,0.579 0.287,1.217 0.287,1.919l0,7.926l-1.064,0c-0.236,0 -0.415,-0.039 -0.538,-0.116c-0.121,-0.078 -0.221,-0.223 -0.296,-0.434l-0.256,-1.088c-0.317,0.29 -0.63,0.551 -0.94,0.774c-0.312,0.223 -0.633,0.416 -0.975,0.577c-0.336,0.158 -0.698,0.277 -1.08,0.36c-0.385,0.081 -0.808,0.125 -1.271,0.125c-0.491,0 -0.95,-0.069 -1.377,-0.206c-0.427,-0.133 -0.802,-0.338 -1.121,-0.617c-0.315,-0.279 -0.565,-0.623 -0.752,-1.038c-0.182,-0.416 -0.275,-0.902 -0.275,-1.456c0,-0.488 0.133,-0.961 0.398,-1.413c0.266,-0.454 0.698,-0.858 1.296,-1.217c0.6,-0.358 1.383,-0.654 2.35,-0.881c0.963,-0.227 2.151,-0.359 3.565,-0.39l0,-0.906c0,-0.936 -0.2,-1.638 -0.6,-2.105c-0.4,-0.464 -0.985,-0.696 -1.762,-0.696c-0.519,0 -0.959,0.065 -1.313,0.196c-0.356,0.131 -0.661,0.277 -0.917,0.434c-0.258,0.158 -0.481,0.304 -0.675,0.435c-0.192,0.131 -0.388,0.196 -0.592,0.196l-0.421,-0.134l-0.289,-0.32l-0.426,-0.769Z" style="fill:#fff;fill-rule:nonzero;"/><path d="M846.258,415.292c0.423,0 0.798,-0.06 1.117,-0.171c0.323,-0.114 0.591,-0.275 0.81,-0.485c0.213,-0.205 0.379,-0.455 0.488,-0.752c0.108,-0.292 0.164,-0.615 0.164,-0.965c0,-0.719 -0.218,-1.29 -0.652,-1.719c-0.437,-0.426 -1.079,-0.642 -1.927,-0.642c-0.842,0 -1.478,0.216 -1.913,0.642c-0.436,0.429 -0.655,1 -0.655,1.719c0,0.35 0.055,0.669 0.165,0.958c0.11,0.292 0.271,0.54 0.49,0.748c0.214,0.207 0.483,0.369 0.806,0.49c0.321,0.117 0.688,0.177 1.107,0.177Zm3.803,6.849c0,-0.293 -0.082,-0.529 -0.244,-0.702c-0.163,-0.177 -0.384,-0.317 -0.669,-0.419c-0.281,-0.102 -0.609,-0.173 -0.982,-0.218c-0.375,-0.046 -0.771,-0.08 -1.183,-0.103c-0.411,-0.025 -0.832,-0.048 -1.265,-0.07c-0.431,-0.021 -0.848,-0.059 -1.246,-0.117c-0.423,0.214 -0.773,0.471 -1.048,0.771c-0.271,0.302 -0.407,0.658 -0.407,1.067c0,0.258 0.067,0.504 0.202,0.731c0.134,0.231 0.344,0.427 0.624,0.594c0.281,0.167 0.635,0.298 1.064,0.39c0.427,0.096 0.94,0.141 1.534,0.141c0.588,0 1.104,-0.05 1.552,-0.152c0.448,-0.1 0.826,-0.244 1.132,-0.425c0.308,-0.187 0.537,-0.404 0.698,-0.656c0.16,-0.254 0.238,-0.532 0.238,-0.832Zm2.423,-12.61l0,0.893c0,0.292 -0.184,0.476 -0.554,0.549l-1.33,0.197c0.113,0.253 0.202,0.521 0.269,0.799c0.065,0.283 0.098,0.577 0.098,0.889c0,0.611 -0.119,1.163 -0.356,1.655c-0.236,0.494 -0.563,0.917 -0.978,1.267c-0.416,0.352 -0.912,0.621 -1.485,0.808c-0.576,0.186 -1.205,0.282 -1.89,0.282c-0.565,0 -1.09,-0.061 -1.58,-0.186c-0.244,0.146 -0.429,0.308 -0.554,0.485c-0.127,0.176 -0.192,0.349 -0.192,0.521c0,0.284 0.123,0.496 0.361,0.634c0.243,0.14 0.556,0.24 0.944,0.298c0.385,0.064 0.831,0.102 1.331,0.117c0.504,0.018 1.013,0.045 1.53,0.081c0.516,0.035 1.027,0.1 1.529,0.196c0.5,0.094 0.946,0.243 1.334,0.452c0.385,0.21 0.698,0.492 0.941,0.858c0.238,0.359 0.361,0.832 0.361,1.411c0,0.536 -0.135,1.061 -0.396,1.565c-0.267,0.504 -0.652,0.956 -1.156,1.346c-0.509,0.392 -1.122,0.706 -1.849,0.94c-0.725,0.237 -1.55,0.358 -2.469,0.358c-0.923,0 -1.723,-0.091 -2.405,-0.269c-0.681,-0.181 -1.246,-0.423 -1.698,-0.723c-0.454,-0.302 -0.79,-0.652 -1.015,-1.052c-0.227,-0.4 -0.337,-0.815 -0.337,-1.248c0,-0.604 0.187,-1.113 0.562,-1.534c0.375,-0.421 0.892,-0.748 1.555,-0.987c-0.361,-0.161 -0.646,-0.384 -0.857,-0.665c-0.214,-0.281 -0.32,-0.654 -0.32,-1.121c0,-0.177 0.033,-0.363 0.098,-0.556c0.066,-0.188 0.166,-0.38 0.298,-0.574c0.135,-0.191 0.302,-0.372 0.502,-0.545c0.2,-0.169 0.431,-0.324 0.692,-0.463c-0.611,-0.342 -1.092,-0.796 -1.444,-1.363c-0.349,-0.567 -0.524,-1.229 -0.524,-1.988c0,-0.612 0.119,-1.162 0.353,-1.652c0.237,-0.49 0.566,-0.907 0.987,-1.261c0.417,-0.348 0.919,-0.617 1.505,-0.806c0.581,-0.186 1.221,-0.281 1.913,-0.281c1.075,0 2,0.225 2.775,0.673l3.451,0Z" style="fill:#fff;fill-rule:nonzero;"/><path d="M861.336,415.976c-0.969,0.035 -1.794,0.11 -2.47,0.225c-0.675,0.12 -1.229,0.279 -1.652,0.471c-0.425,0.198 -0.729,0.427 -0.917,0.695c-0.189,0.261 -0.281,0.557 -0.281,0.886c0,0.308 0.05,0.575 0.152,0.8c0.102,0.225 0.242,0.407 0.419,0.55c0.173,0.142 0.379,0.248 0.616,0.313c0.238,0.065 0.494,0.096 0.769,0.096c0.367,0 0.705,-0.036 1.009,-0.107c0.308,-0.075 0.594,-0.181 0.863,-0.314c0.27,-0.134 0.527,-0.298 0.769,-0.496c0.247,-0.194 0.489,-0.419 0.723,-0.671l0,-2.448Zm-6.995,-5.172c0.693,-0.661 1.444,-1.153 2.258,-1.482c0.807,-0.327 1.701,-0.487 2.672,-0.487c0.708,0 1.335,0.118 1.881,0.346c0.546,0.233 1.009,0.558 1.382,0.973c0.377,0.416 0.66,0.914 0.852,1.494c0.19,0.579 0.286,1.217 0.286,1.919l0,7.926l-1.063,0c-0.236,0 -0.415,-0.039 -0.538,-0.116c-0.121,-0.078 -0.219,-0.223 -0.294,-0.434l-0.258,-1.088c-0.315,0.29 -0.629,0.551 -0.94,0.774c-0.312,0.223 -0.633,0.416 -0.973,0.577c-0.338,0.158 -0.7,0.277 -1.081,0.36c-0.386,0.081 -0.809,0.125 -1.272,0.125c-0.489,0 -0.95,-0.069 -1.377,-0.206c-0.427,-0.133 -0.8,-0.338 -1.119,-0.617c-0.317,-0.279 -0.567,-0.623 -0.754,-1.038c-0.181,-0.416 -0.275,-0.902 -0.275,-1.456c0,-0.488 0.133,-0.961 0.398,-1.413c0.265,-0.454 0.698,-0.858 1.296,-1.217c0.6,-0.358 1.383,-0.654 2.35,-0.881c0.965,-0.227 2.153,-0.359 3.564,-0.39l0,-0.906c0,-0.936 -0.2,-1.638 -0.6,-2.105c-0.399,-0.464 -0.984,-0.696 -1.761,-0.696c-0.519,0 -0.959,0.065 -1.313,0.196c-0.356,0.131 -0.659,0.277 -0.917,0.434c-0.258,0.158 -0.481,0.304 -0.675,0.435c-0.19,0.131 -0.388,0.196 -0.59,0.196l-0.423,-0.134l-0.289,-0.32l-0.427,-0.769Z" style="fill:#fff;fill-rule:nonzero;"/><path d="M869.116,410.791c0.267,-0.287 0.548,-0.546 0.844,-0.781c0.294,-0.236 0.604,-0.44 0.936,-0.607c0.331,-0.168 0.683,-0.298 1.062,-0.393c0.38,-0.092 0.786,-0.138 1.219,-0.138c0.684,0 1.286,0.111 1.803,0.342c0.517,0.227 0.952,0.548 1.302,0.96c0.352,0.409 0.615,0.905 0.794,1.486c0.179,0.579 0.273,1.219 0.273,1.919l0,7.914l-2.398,0l0,-7.914c0,-0.889 -0.207,-1.579 -0.613,-2.071c-0.41,-0.496 -1.033,-0.742 -1.871,-0.742c-0.613,0 -1.184,0.144 -1.719,0.434c-0.532,0.289 -1.029,0.683 -1.486,1.179l0,9.114l-2.386,0l0,-12.429l1.432,0c0.337,0 0.542,0.162 0.625,0.477l0.183,1.25Z" style="fill:#fff;fill-rule:nonzero;"/><path d="M888.574,412.075c-0.391,-0.515 -0.814,-0.871 -1.265,-1.077c-0.454,-0.203 -0.962,-0.305 -1.523,-0.305c-1.092,0 -1.938,0.394 -2.538,1.178c-0.6,0.789 -0.898,1.935 -0.898,3.446c0,0.788 0.065,1.463 0.202,2.023c0.134,0.557 0.329,1.013 0.586,1.371c0.256,0.355 0.573,0.613 0.948,0.78c0.375,0.167 0.798,0.252 1.273,0.252c0.692,0 1.29,-0.156 1.798,-0.463c0.503,-0.31 0.976,-0.746 1.417,-1.312l0,-5.893Zm2.399,-8.635l0,18.053l-1.446,0c-0.334,0 -0.54,-0.16 -0.624,-0.479l-0.206,-1.431c-0.531,0.627 -1.131,1.133 -1.804,1.512c-0.675,0.379 -1.449,0.567 -2.33,0.567c-0.71,0 -1.352,-0.137 -1.927,-0.415c-0.573,-0.277 -1.067,-0.683 -1.472,-1.216c-0.408,-0.534 -0.723,-1.197 -0.945,-1.988c-0.221,-0.792 -0.326,-1.699 -0.326,-2.726c0,-0.921 0.121,-1.779 0.367,-2.571c0.24,-0.788 0.596,-1.474 1.061,-2.053c0.467,-0.581 1.029,-1.035 1.688,-1.362c0.66,-0.332 1.406,-0.496 2.238,-0.496c0.752,0 1.391,0.123 1.915,0.368c0.527,0.242 0.998,0.59 1.412,1.04l0,-6.803l2.399,0Z" style="fill:#fff;fill-rule:nonzero;"/><path d="M900.989,415.976c-0.971,0.035 -1.794,0.11 -2.471,0.225c-0.679,0.12 -1.227,0.279 -1.652,0.471c-0.423,0.198 -0.726,0.427 -0.917,0.695c-0.186,0.261 -0.28,0.557 -0.28,0.886c0,0.308 0.052,0.575 0.152,0.8c0.103,0.225 0.24,0.407 0.417,0.55c0.175,0.142 0.382,0.248 0.617,0.313c0.236,0.065 0.492,0.096 0.769,0.096c0.369,0 0.704,-0.036 1.009,-0.107c0.306,-0.075 0.593,-0.181 0.866,-0.314c0.267,-0.134 0.525,-0.298 0.769,-0.496c0.244,-0.194 0.482,-0.419 0.721,-0.671l0,-2.448Zm-6.997,-5.172c0.692,-0.661 1.444,-1.153 2.257,-1.482c0.812,-0.327 1.702,-0.487 2.673,-0.487c0.709,0 1.338,0.118 1.884,0.346c0.546,0.233 1.006,0.558 1.383,0.973c0.373,0.416 0.655,0.914 0.848,1.494c0.194,0.579 0.288,1.217 0.288,1.919l0,7.926l-1.065,0c-0.237,0 -0.416,-0.039 -0.539,-0.116c-0.121,-0.078 -0.219,-0.223 -0.292,-0.434l-0.256,-1.088c-0.319,0.29 -0.632,0.551 -0.944,0.774c-0.307,0.223 -0.632,0.416 -0.971,0.577c-0.34,0.158 -0.698,0.277 -1.082,0.36c-0.383,0.081 -0.808,0.125 -1.273,0.125c-0.49,0 -0.946,-0.069 -1.377,-0.206c-0.427,-0.133 -0.8,-0.338 -1.117,-0.617c-0.319,-0.279 -0.569,-0.623 -0.752,-1.038c-0.186,-0.416 -0.274,-0.902 -0.274,-1.456c0,-0.488 0.13,-0.961 0.396,-1.413c0.263,-0.454 0.696,-0.858 1.296,-1.217c0.601,-0.358 1.384,-0.654 2.347,-0.881c0.967,-0.227 2.157,-0.359 3.567,-0.39l0,-0.906c0,-0.936 -0.2,-1.638 -0.598,-2.105c-0.402,-0.464 -0.988,-0.696 -1.763,-0.696c-0.521,0 -0.962,0.065 -1.315,0.196c-0.354,0.131 -0.66,0.277 -0.918,0.434c-0.255,0.158 -0.48,0.304 -0.673,0.435c-0.19,0.131 -0.386,0.196 -0.592,0.196l-0.423,-0.134l-0.286,-0.32l-0.429,-0.769Z" style="fill:#fff;fill-rule:nonzero;"/><path d="M554.405,364.436c1.604,0 2.971,-0.2 4.098,-0.61c1.128,-0.405 2.053,-0.969 2.774,-1.69c0.719,-0.723 1.244,-1.563 1.569,-2.53c0.327,-0.963 0.489,-2.007 0.489,-3.123c0,-2.232 -0.727,-3.978 -2.181,-5.233c-1.453,-1.254 -3.703,-1.883 -6.749,-1.883l-4.745,0l0,15.069l4.745,0Zm25.048,26.933l-10.675,0c-1.977,0 -3.398,-0.742 -4.257,-2.232l-8.443,-14.759c-0.394,-0.625 -0.836,-1.086 -1.325,-1.375c-0.488,-0.29 -1.186,-0.436 -2.093,-0.436l-3,0l0,18.802l-11.792,0l0,-50.829l16.537,0c3.675,0 6.807,0.377 9.401,1.134c2.591,0.758 4.71,1.808 6.35,3.158c1.639,1.347 2.831,2.941 3.575,4.778c0.746,1.838 1.115,3.839 1.115,6c0,1.654 -0.219,3.211 -0.662,4.676c-0.442,1.466 -1.094,2.819 -1.953,4.063c-0.861,1.246 -1.925,2.356 -3.194,3.334c-1.267,0.975 -2.724,1.779 -4.376,2.406c0.767,0.398 1.488,0.89 2.163,1.484c0.673,0.592 1.277,1.294 1.813,2.109l10.816,17.687Z" style="fill:#fff;fill-rule:nonzero;"/><path d="M604.429,382.056c1.582,0 2.996,-0.262 4.24,-0.787c1.244,-0.523 2.297,-1.273 3.157,-2.249c0.861,-0.977 1.517,-2.171 1.971,-3.577c0.453,-1.405 0.68,-3.003 0.68,-4.797l0,-30.106l11.792,0l0,30.106c0,3.119 -0.507,5.978 -1.517,8.583c-1.011,2.604 -2.459,4.849 -4.345,6.734c-1.882,1.882 -4.174,3.347 -6.872,4.393c-2.698,1.048 -5.732,1.571 -9.106,1.571c-3.394,0 -6.441,-0.523 -9.139,-1.571c-2.697,-1.046 -4.987,-2.511 -6.872,-4.393c-1.884,-1.885 -3.326,-4.13 -4.326,-6.734c-1,-2.605 -1.501,-5.464 -1.501,-8.583l0,-30.106l11.792,0l0,30.072c0,1.792 0.227,3.389 0.68,4.797c0.454,1.407 1.112,2.605 1.973,3.595c0.858,0.987 1.911,1.742 3.155,2.265c1.246,0.525 2.658,0.787 4.238,0.787Z" style="fill:#fff;fill-rule:nonzero;"/><path d="M653.411,365.484c3.07,0 5.277,-0.733 6.627,-2.198c1.35,-1.467 2.025,-3.509 2.025,-6.141c0,-1.16 -0.175,-2.219 -0.525,-3.173c-0.348,-0.953 -0.877,-1.774 -1.586,-2.459c-0.71,-0.688 -1.604,-1.215 -2.686,-1.588c-1.081,-0.373 -2.367,-0.558 -3.855,-0.558l-6.142,0l0,16.117l6.142,0Zm0,-24.944c3.58,0 6.656,0.423 9.227,1.273c2.57,0.85 4.687,2.019 6.349,3.509c1.663,1.484 2.889,3.244 3.68,5.264c0.792,2.027 1.186,4.213 1.186,6.559c0,2.538 -0.408,4.864 -1.221,6.979c-0.813,2.115 -2.057,3.93 -3.734,5.442c-1.673,1.513 -3.795,2.691 -6.366,3.539c-2.569,0.854 -5.611,1.273 -9.121,1.273l-6.142,0l0,16.991l-11.79,0l0,-50.829l17.932,0Z" style="fill:#fff;fill-rule:nonzero;"/><path d="M717.67,365.939c0,-2.513 -0.329,-4.776 -0.979,-6.787c-0.651,-2.013 -1.588,-3.715 -2.807,-5.109c-1.221,-1.396 -2.715,-2.465 -4.484,-3.212c-1.767,-0.743 -3.778,-1.116 -6.035,-1.116c-2.278,0 -4.307,0.373 -6.087,1.116c-1.779,0.747 -3.279,1.816 -4.5,3.212c-1.221,1.394 -2.157,3.096 -2.809,5.109c-0.65,2.011 -0.975,4.274 -0.975,6.787c0,2.533 0.325,4.807 0.975,6.82c0.652,2.009 1.588,3.713 2.809,5.111c1.221,1.392 2.721,2.459 4.5,3.19c1.78,0.734 3.809,1.098 6.087,1.098c2.257,0 4.268,-0.364 6.035,-1.098c1.769,-0.731 3.263,-1.798 4.484,-3.19c1.219,-1.398 2.156,-3.102 2.807,-5.111c0.65,-2.013 0.979,-4.287 0.979,-6.82Zm12.069,0c0,3.673 -0.633,7.091 -1.9,10.256c-1.269,3.161 -3.053,5.911 -5.354,8.251c-2.304,2.336 -5.078,4.168 -8.322,5.493c-3.246,1.327 -6.845,1.988 -10.798,1.988c-3.953,0 -7.558,-0.661 -10.813,-1.988c-3.258,-1.325 -6.042,-3.157 -8.355,-5.493c-2.315,-2.34 -4.107,-5.09 -5.372,-8.251c-1.269,-3.165 -1.903,-6.583 -1.903,-10.256c0,-3.676 0.634,-7.096 1.903,-10.257c1.265,-3.163 3.057,-5.907 5.372,-8.234c2.313,-2.326 5.097,-4.153 8.355,-5.477c3.255,-1.327 6.86,-1.989 10.813,-1.989c3.953,0 7.552,0.668 10.798,2.008c3.244,1.336 6.018,3.167 8.322,5.493c2.301,2.327 4.085,5.07 5.354,8.231c1.267,3.167 1.9,6.572 1.9,10.225Z" style="fill:#fff;fill-rule:nonzero;"/><path d="M753.219,364.436c1.604,0 2.969,-0.2 4.098,-0.61c1.128,-0.405 2.053,-0.969 2.774,-1.69c0.721,-0.723 1.244,-1.563 1.569,-2.53c0.327,-0.963 0.49,-2.007 0.49,-3.123c0,-2.232 -0.728,-3.978 -2.182,-5.233c-1.453,-1.254 -3.703,-1.883 -6.749,-1.883l-4.745,0l0,15.069l4.745,0Zm25.048,26.933l-10.675,0c-1.977,0 -3.398,-0.742 -4.257,-2.232l-8.443,-14.759c-0.394,-0.625 -0.836,-1.086 -1.325,-1.375c-0.488,-0.29 -1.186,-0.436 -2.093,-0.436l-3,0l0,18.802l-11.792,0l0,-50.829l16.537,0c3.675,0 6.807,0.377 9.401,1.134c2.591,0.758 4.708,1.808 6.348,3.158c1.641,1.347 2.833,2.941 3.577,4.778c0.744,1.838 1.117,3.839 1.117,6c0,1.654 -0.221,3.211 -0.663,4.676c-0.441,1.466 -1.095,2.819 -1.954,4.063c-0.859,1.246 -1.925,2.356 -3.192,3.334c-1.269,0.975 -2.728,1.779 -4.378,2.406c0.767,0.398 1.488,0.89 2.163,1.484c0.673,0.592 1.279,1.294 1.813,2.109l10.816,17.687Z" style="fill:#fff;fill-rule:nonzero;"/><path d="M826.931,340.54l0,50.829l-6.139,0c-0.908,0 -1.669,-0.146 -2.284,-0.436c-0.618,-0.292 -1.229,-0.796 -1.833,-1.517l-23.967,-30.316c0.093,0.908 0.158,1.784 0.193,2.632c0.036,0.85 0.054,1.65 0.054,2.392l0,27.245l-10.399,0l0,-50.829l6.211,0c0.511,0 0.942,0.023 1.29,0.071c0.348,0.046 0.663,0.133 0.942,0.26c0.279,0.131 0.546,0.309 0.802,0.542c0.256,0.233 0.548,0.544 0.873,0.942l24.174,30.525c-0.115,-0.976 -0.196,-1.924 -0.242,-2.843c-0.046,-0.917 -0.069,-1.785 -0.069,-2.6l0,-26.897l10.394,0Z" style="fill:#fff;fill-rule:nonzero;"/><path d="M874.586,365.939c0,-2.513 -0.327,-4.776 -0.977,-6.787c-0.652,-2.013 -1.588,-3.715 -2.807,-5.109c-1.223,-1.396 -2.717,-2.465 -4.484,-3.212c-1.769,-0.743 -3.78,-1.116 -6.035,-1.116c-2.281,0 -4.309,0.373 -6.088,1.116c-1.78,0.747 -3.278,1.816 -4.501,3.212c-1.221,1.394 -2.157,3.096 -2.807,5.109c-0.652,2.011 -0.977,4.274 -0.977,6.787c0,2.533 0.325,4.807 0.977,6.82c0.65,2.009 1.586,3.713 2.807,5.111c1.223,1.392 2.721,2.459 4.501,3.19c1.779,0.734 3.807,1.098 6.088,1.098c2.255,0 4.266,-0.364 6.035,-1.098c1.767,-0.731 3.261,-1.798 4.484,-3.19c1.219,-1.398 2.155,-3.102 2.807,-5.111c0.65,-2.013 0.977,-4.287 0.977,-6.82Zm12.069,0c0,3.673 -0.633,7.091 -1.9,10.256c-1.269,3.161 -3.051,5.911 -5.355,8.251c-2.303,2.336 -5.076,4.168 -8.321,5.493c-3.244,1.327 -6.843,1.988 -10.796,1.988c-3.955,0 -7.56,-0.661 -10.814,-1.988c-3.257,-1.325 -6.043,-3.157 -8.358,-5.493c-2.313,-2.34 -4.105,-5.09 -5.372,-8.251c-1.267,-3.165 -1.9,-6.583 -1.9,-10.256c0,-3.676 0.633,-7.096 1.9,-10.257c1.267,-3.163 3.059,-5.907 5.372,-8.234c2.315,-2.326 5.101,-4.153 8.358,-5.477c3.254,-1.327 6.859,-1.989 10.814,-1.989c3.953,0 7.552,0.668 10.796,2.008c3.245,1.336 6.018,3.167 8.321,5.493c2.304,2.327 4.086,5.07 5.355,8.231c1.267,3.167 1.9,6.572 1.9,10.225Z" style="fill:#fff;fill-rule:nonzero;"/><path d="M903.959,340.54l0,19.954c0,2.14 -0.126,4.265 -0.384,6.368c-0.256,2.106 -0.592,4.249 -1.011,6.436l-7.326,0c-0.419,-2.187 -0.756,-4.33 -1.011,-6.436c-0.256,-2.103 -0.385,-4.228 -0.385,-6.368l0,-19.954l10.117,0Zm-11.303,45.355c0,-0.84 0.159,-1.617 0.471,-2.34c0.315,-0.721 0.744,-1.349 1.292,-1.884c0.546,-0.534 1.19,-0.959 1.934,-1.275c0.746,-0.313 1.559,-0.471 2.442,-0.471c0.863,0 1.665,0.158 2.409,0.471c0.744,0.316 1.396,0.741 1.952,1.275c0.559,0.535 0.996,1.163 1.309,1.884c0.315,0.723 0.471,1.5 0.471,2.34c0,0.835 -0.156,1.617 -0.471,2.352c-0.313,0.73 -0.75,1.367 -1.309,1.901c-0.556,0.537 -1.208,0.956 -1.952,1.256c-0.744,0.304 -1.546,0.454 -2.409,0.454c-0.883,0 -1.696,-0.15 -2.442,-0.454c-0.744,-0.3 -1.388,-0.719 -1.934,-1.256c-0.548,-0.534 -0.977,-1.171 -1.292,-1.901c-0.312,-0.735 -0.471,-1.517 -0.471,-2.352Z" style="fill:#fff;fill-rule:nonzero;"/><rect x="310.601" y="290.247" width="17.537" height="4.384" style="fill:#fff;"/><path d="M317.7,312.793l-2.627,-3.526l15.078,-11.232l2.627,3.526l-15.078,11.232Z" style="fill:#fff;"/><path d="M315.072,275.617l2.629,-3.531l15.079,11.228l-2.629,3.531l-15.079,-11.228Z" style="fill:#fff;"/><path d="M439.368,348.671c-17.933,0 -29.85,-15.322 -30.606,-25.359c-1.132,-15.028 7.807,-18.715 13.727,-19.087c1.384,-0.086 4.67,0.575 5.799,0.95c1.511,0.502 3.167,1.171 4.57,1.9c1.246,0.652 3.382,1.917 6.274,4.388c2.576,2.197 5.743,6.852 6.145,6.36c0.34,-0.417 0.394,-1.409 0.394,-4.132c0,-5.478 -0.119,-14.34 -0.119,-14.34l0.01,-0.013c-0.002,-0.402 0.144,-0.646 0.401,-0.865c2.139,-1.177 3.604,-3.423 3.604,-6.034c0,-2.615 -1.471,-4.864 -3.615,-6.039c-0.264,-0.225 -0.402,-0.475 -0.4,-0.871c0,0 0.119,-8.862 0.119,-14.338c0,-2.724 0,-3.768 -0.394,-4.132c-0.648,-0.602 -3.392,3.53 -5.68,6.028c-2.288,2.496 -6.554,4.663 -6.554,4.663c-4.919,2.559 -19.691,3.86 -25.211,4.139c-0.879,0.042 -1.761,0.046 -2.64,0.079l-2.863,0c-2.511,0 -4.739,1.598 -5.528,3.982c-1.342,4.053 -2.892,12.996 -3.688,19.45l0,-0.005l0,0.003c-0.18,1.319 -0.346,1.862 -0.488,1.981l-0.037,0.007l-0.04,-0.007c-0.142,-0.119 -0.306,-0.662 -0.486,-1.981l0,-0.003l-0.002,0.001l0,0.004c-0.794,-6.454 -2.346,-15.397 -3.686,-19.45c-0.79,-2.384 -3.017,-3.982 -5.53,-3.982l-2.863,0c-0.879,-0.033 -1.759,-0.037 -2.638,-0.079c-5.522,-0.279 -20.294,-1.58 -25.211,-4.139c0,0 -4.266,-2.167 -6.554,-4.663c-2.288,-2.498 -5.032,-6.63 -5.68,-6.028c-0.394,0.364 -0.394,1.408 -0.394,4.132c0,5.476 0.119,14.338 0.119,14.338c0.002,0.396 -0.138,0.646 -0.4,0.871c-2.144,1.175 -3.615,3.424 -3.615,6.039c0,2.611 1.466,4.857 3.606,6.034c0.255,0.219 0.401,0.463 0.399,0.865l0.01,0.013c0,0 -0.119,8.862 -0.119,14.34c0,2.723 0.054,3.715 0.394,4.132c0.4,0.492 3.569,-4.163 6.145,-6.36c2.892,-2.471 5.028,-3.736 6.274,-4.388c1.402,-0.729 3.059,-1.398 4.572,-1.9c1.127,-0.375 4.413,-1.036 5.797,-0.95c5.92,0.372 14.859,4.059 13.727,19.087c-0.756,10.037 -12.675,25.359 -30.605,25.359c-25.901,0 -28.542,-25.901 -28.542,-25.901l-22.202,-13.345l0,147.077l26.166,-12.158l0,-80.873l10.704,7.779l0,68.12l15.989,-7.429l0,-49.07l10.572,7.683l0,36.474l13.478,-6.262l0,-20.416l13.094,9.516l-4.255,8.752l-9.266,19.062c-0.29,0.598 -0.308,1.292 -0.046,1.902l15.937,37.141c0.072,0.169 0.237,0.277 0.42,0.277l1.559,0l0,-29.623c-2.74,-1.219 -4.657,-3.956 -4.657,-7.147c0,-4.323 3.505,-7.826 7.829,-7.826c4.323,0 7.826,3.503 7.826,7.826c0,3.191 -1.915,5.928 -4.657,7.147l0,29.623l1.559,0c0.185,0 0.348,-0.108 0.422,-0.277l15.937,-37.141c0.262,-0.61 0.244,-1.304 -0.046,-1.902l-9.268,-19.062l-4.255,-8.752l13.096,-9.516l0,20.416l13.478,6.262l0,-36.474l10.572,-7.683l0,49.07l15.991,7.429l0,-68.12l10.704,-7.779l0,80.873l26.164,12.158l0,-147.077l-22.202,13.345c0,0 -2.643,25.901 -28.541,25.901Z" style="fill:#fff;fill-rule:nonzero;"/><rect x="457.038" y="290.247" width="17.537" height="4.384" style="fill:#fff;"/><path d="M470.094,309.284l-2.636,3.524l-15.054,-11.259l2.636,-3.524l15.054,11.259Z" style="fill:#fff;"/><path d="M455.045,286.86l-2.641,-3.53l15.055,-11.262l2.64,3.53l-15.054,11.262Z" style="fill:#fff;"/></g></svg>