<?xml version="1.0" encoding="UTF-8" standalone="no"?><!DOCTYPE svg PUBLIC "-//W3C//DTD SVG 1.1//EN" "http://www.w3.org/Graphics/SVG/1.1/DTD/svg11.dtd"><svg width="100%" height="100%" viewBox="0 0 1200 744" version="1.1" xmlns="http://www.w3.org/2000/svg" xmlns:xlink="http://www.w3.org/1999/xlink" xml:space="preserve" xmlns:serif="http://www.serif.com/" style="fill-rule:evenodd;clip-rule:evenodd;stroke-linejoin:round;stroke-miterlimit:2;"><rect id="logo-jtbsi" x="0" y="0" width="1200" height="744" style="fill:none;"/><g><path d="M375.856,472.418c-7.031,0 -12.75,5.72 -12.75,12.749c0,7.028 5.719,12.752 12.75,12.752c7.029,0 12.748,-5.724 12.748,-12.752c0,-7.029 -5.719,-12.749 -12.748,-12.749Zm0,38.8c-14.367,0 -26.054,-11.687 -26.054,-26.051c0,-14.365 11.687,-26.05 26.054,-26.05c14.362,0 26.049,11.685 26.049,26.05c0,14.364 -11.687,26.051 -26.049,26.051Z" style="fill:#fff;fill-rule:nonzero;"/><path d="M529.171,246.083c-7.029,0 -12.748,5.719 -12.748,12.75c0,7.029 5.719,12.749 12.748,12.749c7.031,0 12.752,-5.72 12.752,-12.749c0,-7.031 -5.721,-12.75 -12.752,-12.75Zm0,38.8c-14.362,0 -26.049,-11.685 -26.049,-26.05c0,-14.364 11.687,-26.051 26.049,-26.051c14.367,0 26.054,11.687 26.054,26.051c0,14.365 -11.687,26.05 -26.054,26.05Z" style="fill:#fff;fill-rule:nonzero;"/><path d="M392.135,389.27l-6.55,11.347c-0.303,0.52 -0.303,1.16 0,1.681l16.227,28.107c0.325,0.559 -0.081,1.26 -0.727,1.26l-50.458,0c-0.649,0 -1.053,-0.701 -0.729,-1.26l5.553,-9.619l6.011,-10.411l14.394,-24.931l25.956,-44.958l61.596,-106.724c0.323,-0.562 -0.081,-1.262 -0.727,-1.262l-13.099,0c-0.601,0 -1.154,0.321 -1.456,0.841l-37.822,65.548l-7.762,13.446l-25.959,44.959c-0.323,0.559 -1.133,0.559 -1.457,0l-11.836,-20.501l-13.392,-23.198c-0.324,-0.561 0.08,-1.26 0.729,-1.26l32.455,0c0.601,0 1.156,-0.321 1.454,-0.841l6.55,-11.345c0.324,-0.56 -0.08,-1.26 -0.727,-1.26l-52.596,0c-1.693,0 -3.386,0.524 -4.652,1.645c-2.499,2.213 -2.97,5.736 -1.407,8.438l19.478,33.74l16.424,28.447c0.301,0.52 0.301,1.16 0,1.68l-35.902,62.189c-1.563,2.702 -1.092,6.225 1.407,8.436c1.266,1.123 2.959,1.647 4.652,1.647l76.186,0c1.691,0 3.384,-0.524 4.652,-1.647c2.499,-2.211 2.97,-5.734 1.407,-8.436l-26.416,-45.758c-0.326,-0.56 -1.136,-0.56 -1.457,0Z" style="fill:#fff;fill-rule:nonzero;"/><path d="M512.894,354.73l6.55,-11.347c0.301,-0.52 0.301,-1.16 0,-1.681l-16.229,-28.107c-0.321,-0.559 0.081,-1.26 0.729,-1.26l50.458,0c0.647,0 1.051,0.701 0.728,1.26l-5.554,9.619l-6.011,10.411l-14.394,24.931l-25.956,44.958l-61.596,106.724c-0.323,0.562 0.081,1.262 0.727,1.262l13.099,0c0.601,0 1.156,-0.321 1.454,-0.841l37.826,-65.548l7.763,-13.446l25.958,-44.959c0.323,-0.559 1.131,-0.559 1.455,0l11.836,20.501l13.393,23.198c0.323,0.561 -0.081,1.26 -0.728,1.26l-32.457,0c-0.598,0 -1.156,0.321 -1.454,0.841l-6.55,11.345c-0.324,0.56 0.08,1.26 0.727,1.26l52.596,0c1.695,0 3.386,-0.524 4.652,-1.645c2.501,-2.213 2.97,-5.736 1.407,-8.438l-19.478,-33.74l-16.422,-28.447c-0.303,-0.52 -0.303,-1.16 0,-1.68l35.9,-62.189c1.563,-2.702 1.094,-6.225 -1.407,-8.436c-1.266,-1.123 -2.957,-1.647 -4.652,-1.647l-76.184,0c-1.693,0 -3.384,0.524 -4.654,1.647c-2.499,2.211 -2.967,5.734 -1.405,8.436l26.416,45.758c0.324,0.56 1.134,0.56 1.457,0Z" style="fill:#fff;fill-rule:nonzero;"/><path d="M478.564,372c0,-14.378 -11.673,-26.052 -26.05,-26.052c-14.378,0 -26.051,11.674 -26.051,26.052c0,14.378 11.673,26.052 26.051,26.052c14.377,0 26.05,-11.674 26.05,-26.052Z" style="fill:#fff;"/><path d="M622.679,331.205l1.765,-5.62c0.929,0.493 1.751,0.744 2.462,0.744c1.55,0 2.323,-0.962 2.323,-2.883l0,-22.899l6.505,0l0,23.457c0,2.509 -0.734,4.499 -2.205,5.968c-1.473,1.475 -3.446,2.211 -5.925,2.211c-1.798,0 -3.439,-0.33 -4.925,-0.978Z" style="fill:#fff;fill-rule:nonzero;"/><path d="M648.312,330.463c-1.952,-1.084 -3.461,-2.611 -4.53,-4.578c-1.069,-1.966 -1.602,-4.233 -1.602,-6.805l0,-18.533l6.783,0l0,18.022c0,2.293 0.549,4.113 1.649,5.46c1.098,1.345 2.592,2.02 4.482,2.02c1.888,0 3.39,-0.675 4.505,-2.02c1.117,-1.347 1.672,-3.167 1.672,-5.46l0,-18.022l6.735,0l0,18.533c0,2.572 -0.53,4.839 -1.602,6.805c-1.067,1.967 -2.578,3.494 -4.53,4.578c-1.95,1.082 -4.21,1.625 -6.78,1.625c-2.571,0 -4.83,-0.543 -6.782,-1.625Z" style="fill:#fff;fill-rule:nonzero;"/><path d="M684.219,325.631c3.127,0 5.591,-0.914 7.385,-2.742c1.795,-1.826 2.696,-4.333 2.696,-7.524c0,-2.878 -0.769,-5.096 -2.302,-6.641c-1.534,-1.55 -3.738,-2.323 -6.619,-2.323l-4.179,0l0,19.23l3.019,0Zm-9.754,5.851l0,-30.935c1.33,-0.029 3.295,-0.046 5.897,-0.046c2.632,0 4.601,0.017 5.9,0.046c3.036,0.033 5.674,0.644 7.918,1.836c2.246,1.191 3.978,2.888 5.205,5.083c1.225,2.2 1.834,4.77 1.834,7.712c0,3.223 -0.704,6.055 -2.114,8.503c-1.409,2.445 -3.392,4.349 -5.945,5.711c-2.553,1.365 -5.522,2.061 -8.896,2.09c-1.081,0.034 -2.71,0.046 -4.878,0.046c-2.198,0 -3.839,-0.012 -4.921,-0.046Z" style="fill:#fff;fill-rule:nonzero;"/><path d="M726.193,323.446c1.538,-1.825 2.302,-4.256 2.302,-7.29c0,-1.983 -0.348,-3.742 -1.044,-5.275c-0.696,-1.53 -1.689,-2.709 -2.976,-3.529c-1.282,-0.821 -2.747,-1.231 -4.391,-1.231c-1.639,0 -3.102,0.41 -4.384,1.231c-1.287,0.82 -2.278,1.999 -2.976,3.529c-0.694,1.533 -1.042,3.292 -1.042,5.275c0,1.979 0.348,3.728 1.042,5.249c0.698,1.515 1.683,2.692 2.951,3.529c1.27,0.837 2.743,1.254 4.409,1.254c2.543,0 4.58,-0.912 6.109,-2.742Zm-14.143,6.644c-2.32,-1.333 -4.125,-3.206 -5.41,-5.62c-1.285,-2.416 -1.929,-5.185 -1.929,-8.314c0,-3.162 0.636,-5.949 1.906,-8.365c1.268,-2.412 3.065,-4.287 5.39,-5.62c2.321,-1.328 5.013,-1.995 8.077,-1.995c3.036,0 5.718,0.657 8.038,1.972c2.325,1.316 4.12,3.169 5.39,5.552c1.268,2.387 1.907,5.141 1.907,8.268c0,3.191 -0.639,6.001 -1.907,8.43c-1.27,2.432 -3.065,4.32 -5.39,5.669c-2.32,1.347 -5.002,2.021 -8.038,2.021c-3.031,0 -5.711,-0.668 -8.034,-1.998Z" style="fill:#fff;fill-rule:nonzero;"/><path d="M756.412,306.401l-8.455,0l0,-5.854l23.599,0l0,5.854l-8.36,0l0,25.081l-6.784,0l0,-25.081Z" style="fill:#fff;fill-rule:nonzero;"/><path d="M775.503,300.547l18.813,0l0,5.854l-12.172,0l0,6.177l10.084,0l0,5.665l-10.084,0l0,7.388l12.172,0l0,5.851l-18.813,0l0,-30.935Z" style="fill:#fff;fill-rule:nonzero;"/><path d="M816.821,318.664l-4.18,-11.847l-4.041,11.847l8.221,0Zm-8.082,-18.117l8.082,0l11.475,30.935l-6.968,0l-2.508,-7.06l-12.172,0l-2.368,7.06l-6.876,0l11.335,-30.935Z" style="fill:#fff;fill-rule:nonzero;"/><path d="M839.101,309.654l-1.954,21.828l-5.991,0l2.926,-30.935l8.361,0l7.897,22.203l7.665,-22.203l8.36,0l2.832,30.935l-6.036,0l-2.136,-21.737l-8.177,22.063l-5.525,0.512l-8.222,-22.666Z" style="fill:#fff;fill-rule:nonzero;"/><path d="M635.964,382.069c1.674,0 2.982,-0.388 3.926,-1.163c0.945,-0.771 1.418,-1.813 1.418,-3.112c0,-1.175 -0.404,-2.091 -1.208,-2.742c-0.806,-0.648 -1.967,-0.974 -3.484,-0.974l-3.624,0l0,7.991l2.972,0Zm-0.649,-13.194c1.548,0 2.748,-0.354 3.599,-1.067c0.852,-0.713 1.279,-1.703 1.279,-2.974c0,-2.291 -1.426,-3.437 -4.273,-3.437l-2.928,0l0,7.478l2.323,0Zm-8.778,-12.586l10.357,0c3.005,0 5.38,0.719 7.131,2.161c1.748,1.438 2.625,3.398 2.625,5.875c0,2.818 -1.225,4.987 -3.672,6.504c3.255,1.299 4.88,3.589 4.88,6.874c0,1.856 -0.466,3.506 -1.395,4.946c-0.928,1.44 -2.221,2.563 -3.879,3.367c-1.657,0.804 -3.52,1.208 -5.595,1.208l-10.452,0l0,-30.935Z" style="fill:#fff;fill-rule:nonzero;"/><path d="M651.59,368.367c1.393,-1.767 2.338,-3.301 2.835,-4.6l-2.694,-4.041c0,-0.712 0.193,-1.417 0.58,-2.113c0.388,-0.696 0.935,-1.26 1.648,-1.697c0.712,-0.433 1.516,-0.651 2.416,-0.651c1.332,0 2.464,0.472 3.392,1.417c0.928,0.947 1.392,2.145 1.392,3.6c0,1.703 -0.679,3.641 -2.043,5.806c-1.363,2.17 -3.5,4.273 -6.411,6.32l-1.115,-4.041Z" style="fill:#fff;fill-rule:nonzero;"/><path d="M665.039,368.367c1.394,-1.767 2.339,-3.301 2.834,-4.6l-2.693,-4.041c0,-0.712 0.192,-1.417 0.578,-2.113c0.387,-0.696 0.938,-1.26 1.649,-1.697c0.713,-0.433 1.519,-0.651 2.416,-0.651c1.331,0 2.464,0.472 3.392,1.417c0.929,0.947 1.391,2.145 1.391,3.6c0,1.703 -0.678,3.641 -2.041,5.806c-1.364,2.17 -3.502,4.273 -6.412,6.32l-1.114,-4.041Z" style="fill:#fff;fill-rule:nonzero;"/><path d="M682.886,387.224c-1.624,-0.404 -3.027,-0.945 -4.204,-1.626l0.555,-6.225c1.395,0.87 2.858,1.544 4.389,2.022c1.536,0.479 2.951,0.719 4.252,0.719c1.488,0 2.696,-0.308 3.625,-0.928c0.928,-0.617 1.392,-1.438 1.392,-2.462c0,-0.839 -0.309,-1.477 -0.93,-1.929c-0.618,-0.448 -1.596,-0.935 -2.924,-1.463l-1.115,-0.462l-0.512,-0.211c-0.184,-0.075 -0.402,-0.16 -0.651,-0.255c-1.734,-0.713 -3.129,-1.387 -4.179,-2.019c-1.053,-0.638 -1.96,-1.527 -2.719,-2.673c-0.758,-1.146 -1.137,-2.633 -1.137,-4.457c0,-2.974 1.007,-5.311 3.019,-7.016c2.012,-1.704 4.813,-2.553 8.409,-2.553c2.723,0 5.51,0.555 8.359,1.67l-1.022,6.134c-1.146,-0.651 -2.377,-1.163 -3.692,-1.534c-1.316,-0.371 -2.564,-0.559 -3.739,-0.559c-1.456,0 -2.588,0.286 -3.392,0.86c-0.804,0.576 -1.208,1.34 -1.208,2.298c0,0.837 0.28,1.487 0.837,1.954c0.558,0.462 1.455,0.959 2.694,1.483l1.905,0.744c1.796,0.68 3.282,1.347 4.459,1.998c1.177,0.648 2.184,1.587 3.021,2.81c0.835,1.222 1.252,2.812 1.252,4.762c0,3.004 -1.02,5.342 -3.065,7.016c-2.045,1.67 -4.895,2.507 -8.546,2.507c-1.798,0 -3.508,-0.203 -5.133,-0.605Z" style="fill:#fff;fill-rule:nonzero;"/><path d="M704.794,356.289l6.782,0l0,11.983l13.144,0l0,-11.983l6.83,0l0,30.935l-6.83,0l0,-13.193l-13.144,0l0,13.193l-6.782,0l0,-30.935Z" style="fill:#fff;fill-rule:nonzero;"/><path d="M738.112,356.289l18.814,0l0,5.849l-12.17,0l0,6.18l10.081,0l0,5.667l-10.081,0l0,7.388l12.17,0l0,5.851l-18.814,0l0,-30.935Z" style="fill:#fff;fill-rule:nonzero;"/><path d="M760.08,356.289l7.433,0l7.339,23.596l7.292,-23.596l6.922,0l-10.405,30.935l-8.129,0l-10.452,-30.935Z" style="fill:#fff;fill-rule:nonzero;"/><path d="M806.996,374.404l-4.181,-11.845l-4.041,11.845l8.222,0Zm-8.083,-18.115l8.083,0l11.474,30.935l-6.969,0l-2.509,-7.06l-12.17,0l-2.369,7.06l-6.875,0l11.335,-30.935Z" style="fill:#fff;fill-rule:nonzero;"/><rect x="626.906" y="412.029" width="6.737" height="30.936" style="fill:#fff;"/><path d="M643.533,442.964c-1.626,-0.4 -3.027,-0.94 -4.204,-1.624l0.557,-6.225c1.393,0.866 2.856,1.539 4.389,2.02c1.532,0.483 2.949,0.721 4.25,0.721c1.488,0 2.694,-0.308 3.623,-0.928c0.93,-0.622 1.394,-1.442 1.394,-2.462c0,-0.837 -0.309,-1.481 -0.928,-1.931c-0.622,-0.446 -1.596,-0.935 -2.926,-1.461l-1.117,-0.466c-0.153,-0.062 -0.323,-0.131 -0.512,-0.205c-0.182,-0.079 -0.402,-0.166 -0.649,-0.257c-1.734,-0.713 -3.129,-1.385 -4.179,-2.023c-1.053,-0.634 -1.96,-1.523 -2.717,-2.669c-0.76,-1.146 -1.139,-2.631 -1.139,-4.459c0,-2.976 1.005,-5.313 3.019,-7.017c2.014,-1.699 4.815,-2.555 8.409,-2.555c2.723,0 5.51,0.56 8.359,1.673l-1.02,6.131c-1.146,-0.648 -2.379,-1.158 -3.694,-1.533c-1.316,-0.369 -2.564,-0.553 -3.739,-0.553c-1.456,0 -2.586,0.284 -3.392,0.855c-0.806,0.574 -1.206,1.343 -1.206,2.303c0,0.835 0.278,1.485 0.835,1.95c0.558,0.466 1.455,0.961 2.694,1.485l1.905,0.742c1.794,0.684 3.282,1.349 4.459,2c1.177,0.651 2.182,1.585 3.019,2.81c0.837,1.224 1.256,2.81 1.256,4.76c0,3.004 -1.024,5.344 -3.067,7.014c-2.045,1.672 -4.895,2.509 -8.548,2.509c-1.796,0 -3.506,-0.201 -5.131,-0.605Z" style="fill:#fff;fill-rule:nonzero;"/><path d="M674.685,425.73c1.581,0 2.826,-0.4 3.74,-1.208c0.914,-0.804 1.372,-1.886 1.372,-3.249c0,-1.238 -0.404,-2.182 -1.208,-2.833c-0.806,-0.651 -1.983,-0.976 -3.529,-0.976l-3.254,0l0,8.266l2.879,0Zm-9.336,-13.701c0.929,-0.029 2.663,-0.046 5.204,-0.046c2.569,0 4.32,0.017 5.249,0.046c3.529,0.124 6.162,0.984 7.897,2.577c1.734,1.596 2.6,3.739 2.6,6.435c0,2.289 -0.582,4.233 -1.742,5.829c-1.161,1.595 -2.781,2.637 -4.853,3.135c0.648,0.528 1.315,1.247 1.997,2.159c0.68,0.916 1.625,2.331 2.833,4.25c1.27,2.014 2.553,4.196 3.854,6.55l-7.804,0l-5.249,-9.751c-0.555,-1.026 -1.059,-1.666 -1.508,-1.932c-0.45,-0.263 -1.123,-0.393 -2.021,-0.393l0,12.076l-6.457,0l0,-30.935Z" style="fill:#fff;fill-rule:nonzero;"/><path d="M709.603,430.146l-4.181,-11.847l-4.041,11.847l8.222,0Zm-8.081,-18.117l8.081,0l11.472,30.935l-6.967,0l-2.509,-7.062l-12.17,0l-2.369,7.062l-6.875,0l11.337,-30.935Z" style="fill:#fff;fill-rule:nonzero;"/><path d="M724.502,412.029l18.814,0l0,5.853l-12.168,0l0,6.178l10.077,0l0,5.665l-10.077,0l0,7.385l12.168,0l0,5.854l-18.814,0l0,-30.935Z" style="fill:#fff;fill-rule:nonzero;"/><path d="M749.157,412.029l6.737,0l0,25.081l11.148,0l0,5.854l-17.885,0l0,-30.935Z" style="fill:#fff;fill-rule:nonzero;"/></g></svg>