<?xml version="1.0" encoding="UTF-8" standalone="no"?><!DOCTYPE svg PUBLIC "-//W3C//DTD SVG 1.1//EN" "http://www.w3.org/Graphics/SVG/1.1/DTD/svg11.dtd"><svg width="100%" height="100%" viewBox="0 0 1200 744" version="1.1" xmlns="http://www.w3.org/2000/svg" xmlns:xlink="http://www.w3.org/1999/xlink" xml:space="preserve" xmlns:serif="http://www.serif.com/" style="fill-rule:evenodd;clip-rule:evenodd;stroke-linejoin:round;stroke-miterlimit:2;"><rect id="logo-mitipi" x="0" y="0" width="1200" height="744" style="fill:none;"/><g><path d="M497.508,440.502c1.273,2.181 1.282,4.876 0.024,7.066c-1.258,2.189 -3.59,3.539 -6.115,3.539c-14.188,0 -36.665,0 -45.11,0c-1.845,0 -3.377,-1.422 -3.515,-3.262c-1.636,-19.242 -17.798,-34.363 -37.465,-34.363c-19.666,0 -35.829,15.121 -37.485,34.362c-0.138,1.828 -1.661,3.241 -3.495,3.241c-8.445,0.022 -30.922,0.022 -45.109,0.022c-2.526,0 -4.858,-1.35 -6.116,-3.539c-1.257,-2.19 -1.248,-4.885 0.024,-7.066c16.783,-28.771 63.237,-108.407 83.044,-142.361c1.895,-3.25 5.375,-5.248 9.137,-5.248c3.763,0 7.242,1.998 9.138,5.248c19.806,33.954 66.26,113.59 83.043,142.361Z" style="fill:#fff;"/><g><path d="M710.146,342.735l19.001,0l0,13.21l-19.001,0l0,32.636c0.009,1.384 0.593,3.34 0.593,3.34c0.029,0.131 0.061,0.262 0.095,0.393c0.735,2.726 2.705,5.081 5.239,6.357c1.09,0.549 2.324,0.667 3.567,0.677l2.439,0.004l7.185,-0.015l0,13.803l-7.218,-0.016l-2.45,0.004c-4.061,-0.02 -7.887,-0.651 -12.618,-3.109c-5.065,-2.631 -9.121,-7.033 -11.465,-12.251l-0.06,-0.138c-1.07,-2.867 -1.606,-5.922 -1.625,-8.997l0,-32.688l-2.499,0c-5.086,0 -9.21,-4.123 -9.21,-9.21c0,-2.238 0,-4 0,-4l11.709,0l0,-16.116l16.318,0l0,16.116Z" style="fill:#fff;"/><path d="M533.372,412.749l-5.935,0c-2.805,0 -5.496,-1.114 -7.48,-3.098c-1.984,-1.984 -3.098,-4.675 -3.098,-7.48c0,-19.686 0,-59.964 0,-59.964l15.72,0l0,8.983c2.642,-3.171 5.945,-5.593 9.908,-7.266c3.963,-1.673 8.366,-2.51 13.21,-2.51c5.284,0 9.974,0.991 14.069,2.972c4.095,1.982 7.332,4.91 9.709,8.785c2.907,-3.699 6.65,-6.583 11.229,-8.653c4.58,-2.069 9.644,-3.104 15.192,-3.104c8.895,0 15.94,2.576 21.136,7.728c5.196,5.152 7.794,12.88 7.794,23.184l0,40.423l-5.934,0c-2.806,0 -5.496,-1.114 -7.48,-3.098c-1.984,-1.984 -3.099,-4.675 -3.099,-7.48c0,-11.339 0,-27.731 0,-27.731c0,-6.165 -1.365,-10.811 -4.095,-13.937c-2.73,-3.127 -6.649,-4.69 -11.757,-4.69c-5.548,0 -9.996,1.828 -13.342,5.482c-3.347,3.655 -5.02,8.873 -5.02,15.655l0,35.799l-5.934,0c-2.806,0 -5.497,-1.114 -7.48,-3.098c-1.984,-1.984 -3.099,-4.675 -3.099,-7.48c0,-11.339 0,-27.731 0,-27.731c0,-6.165 -1.365,-10.811 -4.095,-13.937c-2.73,-3.127 -6.649,-4.69 -11.757,-4.69c-5.636,0 -10.106,1.806 -13.409,5.416c-3.302,3.611 -4.953,8.851 -4.953,15.721l0,35.799Z" style="fill:#fff;"/><path d="M669.899,412.749l-5.934,0c-2.805,0 -5.496,-1.114 -7.48,-3.098c-1.984,-1.984 -3.098,-4.675 -3.098,-7.48c0,-19.686 0,-59.964 0,-59.964l16.512,0l0,70.542Z" style="fill:#fff;"/><path d="M886.429,412.749l-5.935,0c-2.805,0 -5.496,-1.114 -7.48,-3.098c-1.984,-1.984 -3.098,-4.675 -3.098,-7.48c0,-19.686 0,-59.964 0,-59.964l16.513,0l0,70.542Z" style="fill:#fff;"/><path d="M761.592,412.749l-5.934,0c-2.806,0 -5.497,-1.114 -7.48,-3.098c-1.984,-1.984 -3.099,-4.675 -3.099,-7.48c0,-19.686 0,-59.964 0,-59.964l16.513,0l0,70.542Z" style="fill:#fff;"/><path d="M661.643,330.316c-2.732,0 -5.022,-0.921 -6.87,-2.764c-1.848,-1.843 -2.772,-4.135 -2.772,-6.878c0,-2.743 0.924,-5.036 2.772,-6.878c1.848,-1.843 4.138,-2.765 6.87,-2.765c2.732,0 5.022,0.879 6.87,2.636c1.848,1.757 2.772,3.964 2.772,6.621c0,2.829 -0.904,5.207 -2.711,7.136c-1.808,1.928 -4.119,2.892 -6.931,2.892Z" style="fill:#fff;"/><path d="M753.336,330.316c-2.732,0 -5.023,-0.921 -6.871,-2.764c-1.848,-1.843 -2.772,-4.135 -2.772,-6.878c0,-2.743 0.924,-5.036 2.772,-6.878c1.848,-1.843 4.139,-2.765 6.871,-2.765c2.732,0 5.022,0.879 6.87,2.636c1.848,1.757 2.772,3.964 2.772,6.621c0,2.829 -0.904,5.207 -2.712,7.136c-1.808,1.928 -4.118,2.892 -6.93,2.892Z" style="fill:#fff;"/><path d="M878.172,330.316c-2.732,0 -5.022,-0.921 -6.87,-2.764c-1.848,-1.843 -2.772,-4.135 -2.772,-6.878c0,-2.743 0.924,-5.036 2.772,-6.878c1.848,-1.843 4.138,-2.765 6.87,-2.765c2.732,0 5.022,0.879 6.871,2.636c1.848,1.757 2.772,3.964 2.772,6.621c0,2.829 -0.904,5.207 -2.712,7.136c-1.808,1.928 -4.118,2.892 -6.931,2.892Z" style="fill:#fff;"/><path d="M797.061,438.377l-5.934,0c-2.805,0 -5.496,-1.114 -7.48,-3.098c-1.984,-1.984 -3.098,-4.675 -3.098,-7.48c0,-24.99 0,-85.592 0,-85.592l15.72,0l0,9.247c2.73,-3.347 6.099,-5.857 10.106,-7.53c4.007,-1.673 8.432,-2.51 13.276,-2.51c6.869,0 13.012,1.497 18.428,4.491c5.416,2.995 9.666,7.222 12.748,12.682c3.082,5.461 4.624,11.757 4.624,18.891c0,7.133 -1.542,13.452 -4.624,18.957c-3.082,5.504 -7.332,9.753 -12.748,12.747c-5.416,2.995 -11.559,4.492 -18.428,4.492c-9.511,0 -17.041,-3.171 -22.59,-9.511l0,34.214Zm20.74,-38.838c6.077,0 11.075,-2.026 14.994,-6.077c3.919,-4.051 5.879,-9.379 5.879,-15.984c0,-6.605 -1.96,-11.933 -5.879,-15.984c-3.919,-4.052 -8.917,-6.077 -14.994,-6.077c-3.963,0 -7.529,0.903 -10.7,2.708c-3.17,1.805 -5.68,4.381 -7.53,7.728c-1.849,3.346 -2.774,7.221 -2.774,11.625c0,4.403 0.925,8.278 2.774,11.625c1.85,3.347 4.36,5.923 7.53,7.728c3.171,1.805 6.737,2.708 10.7,2.708Z" style="fill:#fff;"/></g></g></svg>