<?xml version="1.0" encoding="UTF-8" standalone="no"?><!DOCTYPE svg PUBLIC "-//W3C//DTD SVG 1.1//EN" "http://www.w3.org/Graphics/SVG/1.1/DTD/svg11.dtd"><svg width="100%" height="100%" viewBox="0 0 1200 744" version="1.1" xmlns="http://www.w3.org/2000/svg" xmlns:xlink="http://www.w3.org/1999/xlink" xml:space="preserve" xmlns:serif="http://www.serif.com/" style="fill-rule:evenodd;clip-rule:evenodd;stroke-linejoin:round;stroke-miterlimit:2;"><rect id="logo-franco" x="0" y="0" width="1200" height="744" style="fill:none;"/><path d="M350.036,430.526c-6.319,-6.319 -16.565,-6.319 -22.885,0c-0.001,0.001 -0.002,0.002 -0.003,0.003c-6.319,6.32 -6.319,16.566 0,22.885c0.001,0.001 0.001,0.001 0.002,0.001c3.035,3.036 7.151,4.741 11.444,4.741c4.292,0 8.408,-1.705 11.443,-4.741c0,0 0,0 0,0c6.321,-6.32 6.321,-16.567 0,-22.887c0,-0.001 0,-0.001 -0.001,-0.002Zm-2.44,-67.389c-2.693,-2.692 -6.344,-4.204 -10.151,-4.204c-3.807,0 -7.458,1.512 -10.15,4.204c-10.322,10.322 -26.225,26.225 -36.546,36.546c-2.692,2.692 -4.205,6.344 -4.205,10.151c0,3.807 1.513,7.458 4.205,10.15c0,0.001 0.001,0.001 0.001,0.002c2.692,2.692 6.344,4.204 10.151,4.204c3.807,0 7.458,-1.512 10.15,-4.204c10.322,-10.322 26.224,-26.224 36.546,-36.546c2.692,-2.692 4.205,-6.343 4.205,-10.151c0,-3.807 -1.513,-7.458 -4.205,-10.15c0,0 -0.001,-0.001 -0.001,-0.002Zm37.666,15.286c1.361,-1.362 2.126,-3.208 2.126,-5.134c0,-1.925 -0.765,-3.771 -2.126,-5.133c-7.122,-7.122 -19.134,-19.134 -19.134,-19.134c-5.155,-5.154 -5.155,-13.512 0,-18.667c0,0 0,0 0,0c5.155,-5.154 13.512,-5.154 18.667,0l33.601,33.602c5.155,5.154 5.155,13.511 0,18.665c-9.49,9.491 -24.112,24.112 -33.602,33.602c-5.154,5.155 -13.511,5.155 -18.665,0c-0.001,0 -0.001,0 -0.001,0c-5.155,-5.155 -5.155,-13.513 0,-18.667c0,0 12.012,-12.012 19.134,-19.134Zm440.706,35.076c-8.13,0 -15.454,-1.703 -21.972,-5.109c-6.519,-3.406 -11.627,-8.166 -15.326,-14.282c-3.699,-6.115 -5.548,-13.055 -5.548,-20.818c0,-7.764 1.849,-14.703 5.548,-20.819c3.699,-6.115 8.807,-10.876 15.326,-14.282c6.518,-3.405 13.842,-5.108 21.972,-5.108c7.47,0 14.135,1.318 19.994,3.955c5.859,2.636 10.693,6.445 14.502,11.425l-16.369,14.612c-4.761,-6.006 -10.364,-9.009 -16.809,-9.009c-5.42,0 -9.778,1.74 -13.073,5.219c-3.296,3.478 -4.944,8.147 -4.944,14.007c0,5.859 1.648,10.528 4.944,14.007c3.295,3.479 7.653,5.218 13.073,5.218c6.445,0 12.048,-3.003 16.809,-9.008l16.369,14.611c-3.809,4.98 -8.643,8.789 -14.502,11.426c-5.859,2.636 -12.524,3.955 -19.994,3.955Zm80.637,0c-8.276,0 -15.71,-1.722 -22.302,-5.164c-6.591,-3.442 -11.755,-8.221 -15.49,-14.337c-3.735,-6.115 -5.603,-13.018 -5.603,-20.708c0,-7.691 1.868,-14.593 5.603,-20.709c3.735,-6.116 8.899,-10.894 15.49,-14.337c6.592,-3.442 14.026,-5.163 22.302,-5.163c8.276,0 15.71,1.721 22.302,5.163c6.591,3.443 11.755,8.221 15.49,14.337c3.735,6.116 5.603,13.018 5.603,20.709c0,7.69 -1.868,14.593 -5.603,20.708c-3.735,6.116 -8.899,10.895 -15.49,14.337c-6.592,3.442 -14.026,5.164 -22.302,5.164Zm-423.951,-1.758l-25.927,0l0,-76.902l62.51,0l0,19.555l-36.583,0l0,13.183l32.079,0l0,19.555l-32.079,0l0,24.609Zm144.686,0l-53.832,0l-13.073,-19.336l-7.031,0l0,19.336l-25.927,0l0,-76.902l37.023,0c7.104,0 13.293,1.171 18.566,3.515c5.274,2.344 9.338,5.713 12.195,10.107c2.856,4.395 4.284,9.521 4.284,15.381c0,5.493 -1.245,10.29 -3.735,14.391c-2.49,4.102 -6.079,7.361 -10.766,9.778l16.015,23.533l33.532,-76.705l25.487,0l33.618,76.902l-26.806,0l-5.164,-13.403l-29.223,0l-5.163,13.403Zm95.798,0l-25.268,0l0,-76.902l21.313,0l29.223,34.935l0,-34.935l25.268,0l0,76.902l-21.313,0l-29.223,-34.936l0,34.936Zm183.467,-19.226c3.223,0 6.134,-0.787 8.734,-2.362c2.6,-1.574 4.669,-3.808 6.207,-6.701c1.538,-2.893 2.307,-6.281 2.307,-10.162c0,-3.882 -0.769,-7.269 -2.307,-10.162c-1.538,-2.893 -3.607,-5.127 -6.207,-6.702c-2.6,-1.575 -5.511,-2.362 -8.734,-2.362c-3.222,0 -6.134,0.787 -8.734,2.362c-2.6,1.575 -4.669,3.809 -6.207,6.702c-1.538,2.893 -2.307,6.28 -2.307,10.162c0,3.881 0.769,7.269 2.307,10.162c1.538,2.893 3.607,5.127 6.207,6.701c2.6,1.575 5.512,2.362 8.734,2.362Zm-559.009,-102.466c-5.606,-5.606 -14.695,-5.606 -20.301,0c-17.96,17.959 -55.131,55.131 -73.091,73.09c-5.605,5.606 -5.605,14.695 0,20.301c0.001,0 0.002,0.001 0.002,0.001c5.606,5.606 14.695,5.606 20.301,0.001c17.959,-17.96 55.131,-55.131 73.09,-73.091c5.606,-5.606 5.606,-14.695 0,-20.301c0,0 -0.001,-0.001 -0.001,-0.001Zm306.989,89.613l-7.47,-19.336l-7.471,19.336l14.941,0Zm-81.186,-15.82c0,-2.857 -0.879,-5.072 -2.637,-6.647c-1.758,-1.575 -4.395,-2.362 -7.91,-2.362l-9.448,0l0,18.017l9.448,0c3.515,0 6.152,-0.787 7.91,-2.362c1.758,-1.574 2.637,-3.79 2.637,-6.646Z" style="fill:#fff;fill-rule:nonzero;"/></svg>