<?xml version="1.0" encoding="UTF-8" standalone="no"?><!DOCTYPE svg PUBLIC "-//W3C//DTD SVG 1.1//EN" "http://www.w3.org/Graphics/SVG/1.1/DTD/svg11.dtd"><svg width="100%" height="100%" viewBox="0 0 1200 744" version="1.1" xmlns="http://www.w3.org/2000/svg" xmlns:xlink="http://www.w3.org/1999/xlink" xml:space="preserve" xmlns:serif="http://www.serif.com/" style="fill-rule:evenodd;clip-rule:evenodd;stroke-linejoin:round;stroke-miterlimit:2;"><rect id="logo-stonex" x="0" y="0" width="1200" height="744" style="fill:none;"/><g><path d="M353.819,384.069l-14.776,0c-9.216,0 -16.713,-7.497 -16.713,-16.712c0,-9.217 7.497,-16.715 16.713,-16.715l28.825,0l0,-11.222l-28.825,0c-15.404,0 -27.936,12.532 -27.936,27.937c0,15.402 12.532,27.935 27.936,27.935l14.776,0c9.216,0 16.714,7.496 16.714,16.713c0,9.216 -7.498,16.715 -16.714,16.715l-36.841,0l0,11.222l36.841,0c15.404,0 27.936,-12.532 27.936,-27.937c0,-15.403 -12.532,-27.936 -27.936,-27.936Z" style="fill:#fff;fill-rule:nonzero;"/><path d="M424.956,301.5l-12.987,0l0,37.476l-28.56,0l0,11.224l28.56,0l0,89.703l12.987,0l0,-89.703l28.61,0l0,-11.224l-28.61,0l0,-37.476Z" style="fill:#fff;fill-rule:nonzero;"/><path d="M545.037,410.403c-3.538,6.309 -8.317,11.179 -14.337,14.611c-6.021,3.431 -12.63,5.149 -19.828,5.149c-7.199,0 -13.809,-1.718 -19.828,-5.149c-6.021,-3.432 -10.799,-8.302 -14.337,-14.611c-3.537,-6.308 -5.306,-13.109 -5.306,-20.408c0,-11.316 3.879,-20.963 11.636,-28.942c7.757,-7.977 17.037,-11.966 27.835,-11.966c10.736,0 19.998,3.989 27.787,11.966c7.789,7.979 11.684,17.626 11.684,28.942c0,7.299 -1.77,14.1 -5.306,20.408Zm-34.118,-74.024c-15.612,0 -28.53,5.658 -38.751,16.976c-9.293,10.266 -13.94,22.387 -13.94,36.363c0,14.101 4.909,26.422 14.73,36.966c9.818,10.545 22.471,15.816 37.961,15.816c15.424,0 28.047,-5.271 37.868,-15.816c9.818,-10.544 14.728,-22.865 14.728,-36.966c0,-14.038 -4.646,-26.19 -13.939,-36.457c-10.223,-11.253 -23.108,-16.882 -38.657,-16.882Z" style="fill:#fff;fill-rule:nonzero;"/><path d="M652.232,342.129c-5.843,-3.832 -12.538,-5.75 -20.083,-5.75c-7.421,0 -14.286,1.716 -20.593,5.148c-6.309,3.431 -12.06,8.612 -17.255,15.539l0,-18.09l-12.987,0l0,100.927l12.987,0l0,-37.014c0,-13.295 0.618,-22.447 1.856,-27.457c1.978,-7.667 6.076,-14.1 12.292,-19.295c6.215,-5.195 13.252,-7.792 21.108,-7.792c6.865,0 12.432,1.686 16.699,5.056c4.267,3.371 7.155,8.394 8.659,15.073c0.963,3.898 1.445,11.658 1.445,23.284l0,48.145l12.987,0l0,-51.947c0,-13.73 -1.391,-23.84 -4.174,-30.335c-2.783,-6.492 -7.096,-11.656 -12.941,-15.492Z" style="fill:#fff;fill-rule:nonzero;"/><path d="M850.18,386.653l34.353,-47.677l-15.612,0l-26.561,36.921l-26.843,-36.921l-15.585,0l34.621,47.772l-38.239,53.155l15.499,0l30.542,-42.39l30.72,42.39l15.818,0l-38.713,-53.25Z" style="fill:#fff;fill-rule:nonzero;"/><path d="M700.584,389.995c0,-11.316 3.879,-20.963 11.636,-28.942c7.758,-7.977 17.037,-11.966 27.835,-11.966c7.443,0 14.177,1.921 20.202,5.755l-54.776,54.776c-3.253,-6.088 -4.897,-12.624 -4.897,-19.623Zm89.044,-18.754l-12.529,4.35c1.612,4.458 2.427,9.257 2.427,14.404c0,7.299 -1.77,14.1 -5.306,20.408c-3.538,6.309 -8.317,11.179 -14.336,14.611c-6.022,3.431 -12.631,5.149 -19.829,5.149c-7.199,0 -13.808,-1.718 -19.828,-5.149c-2.998,-1.709 -5.688,-3.777 -8.07,-6.198l49.626,-49.628l0.247,-0.246l6.815,-6.815l9.403,-9.403c-2.645,-2.841 -5.468,-5.307 -8.464,-7.407c-8.489,-5.948 -18.378,-8.938 -29.682,-8.938c-15.612,0 -28.529,5.658 -38.751,16.976c-9.293,10.266 -13.94,22.387 -13.94,36.363c0,10.812 2.899,20.576 8.674,29.298c1.755,2.65 3.767,5.211 6.056,7.668c0.348,0.374 0.707,0.725 1.061,1.085c9.665,9.812 21.959,14.731 36.9,14.731c15.425,0 28.048,-5.271 37.868,-15.816c9.819,-10.544 14.729,-22.865 14.729,-36.966c0,-4.945 -0.585,-9.652 -1.742,-14.127c-0.381,-1.474 -0.824,-2.924 -1.329,-4.35Z" style="fill:#fff;fill-rule:nonzero;"/></g></svg>