<?xml version="1.0" encoding="UTF-8" standalone="no"?><!DOCTYPE svg PUBLIC "-//W3C//DTD SVG 1.1//EN" "http://www.w3.org/Graphics/SVG/1.1/DTD/svg11.dtd"><svg width="100%" height="100%" viewBox="0 0 1200 744" version="1.1" xmlns="http://www.w3.org/2000/svg" xmlns:xlink="http://www.w3.org/1999/xlink" xml:space="preserve" xmlns:serif="http://www.serif.com/" style="fill-rule:evenodd;clip-rule:evenodd;stroke-linejoin:round;stroke-miterlimit:2;"><rect id="logo-digital-hunters" x="0" y="0" width="1200" height="744" style="fill:none;"/><g><g><g transform="matrix(0.245146,0,0,0.245146,-61.2108,-40.096)"><g transform="matrix(308.806,0,0,308.806,2471.6,1627.39)"><path d="M0.08,0l0,-0.7l0.248,0c0.249,0 0.373,0.114 0.373,0.341c0,0.109 -0.034,0.196 -0.102,0.261c-0.068,0.065 -0.158,0.098 -0.271,0.098l-0.248,0Zm0.158,-0.572l0,0.444l0.078,0c0.068,0 0.122,-0.02 0.161,-0.061c0.039,-0.041 0.058,-0.097 0.058,-0.168c0,-0.067 -0.019,-0.119 -0.058,-0.157c-0.038,-0.039 -0.092,-0.058 -0.162,-0.058l-0.077,0Z" style="fill:#fff;fill-rule:nonzero;"/></g><g transform="matrix(308.806,0,0,308.806,2699.28,1627.39)"><path d="M0.143,-0.579c-0.026,0 -0.047,-0.008 -0.064,-0.023c-0.017,-0.016 -0.025,-0.035 -0.025,-0.057c0,-0.023 0.008,-0.042 0.025,-0.057c0.017,-0.014 0.038,-0.022 0.064,-0.022c0.026,0 0.048,0.008 0.064,0.022c0.017,0.015 0.025,0.034 0.025,0.057c0,0.023 -0.008,0.042 -0.025,0.057c-0.016,0.015 -0.038,0.023 -0.064,0.023Zm0.076,0.579l-0.154,0l0,-0.5l0.154,0l0,0.5Z" style="fill:#fff;fill-rule:nonzero;"/></g><g transform="matrix(308.806,0,0,308.806,2787.04,1627.39)"><path d="M0.555,-0.057c0,0.093 -0.027,0.165 -0.08,0.215c-0.054,0.051 -0.132,0.077 -0.234,0.077c-0.067,0 -0.121,-0.01 -0.16,-0.029l0,-0.13c0.051,0.03 0.103,0.045 0.156,0.045c0.052,0 0.092,-0.014 0.121,-0.041c0.029,-0.028 0.043,-0.065 0.043,-0.112l0,-0.04l-0.002,0c-0.035,0.056 -0.087,0.084 -0.156,0.084c-0.064,0 -0.114,-0.022 -0.152,-0.067c-0.037,-0.045 -0.056,-0.105 -0.056,-0.181c0,-0.084 0.021,-0.152 0.063,-0.202c0.041,-0.049 0.096,-0.074 0.164,-0.074c0.061,0 0.107,0.023 0.137,0.07l0.002,0l0,-0.058l0.154,0l0,0.443Zm-0.152,-0.183l0,-0.04c0,-0.031 -0.01,-0.058 -0.028,-0.081c-0.019,-0.022 -0.043,-0.033 -0.073,-0.033c-0.034,0 -0.061,0.013 -0.081,0.04c-0.019,0.027 -0.029,0.064 -0.029,0.113c0,0.041 0.009,0.074 0.028,0.099c0.018,0.024 0.044,0.036 0.076,0.036c0.032,0 0.058,-0.012 0.077,-0.037c0.02,-0.024 0.03,-0.057 0.03,-0.097Z" style="fill:#fff;fill-rule:nonzero;"/></g><g transform="matrix(308.806,0,0,308.806,2978.23,1627.39)"><path d="M0.143,-0.579c-0.026,0 -0.047,-0.008 -0.064,-0.023c-0.017,-0.016 -0.025,-0.035 -0.025,-0.057c0,-0.023 0.008,-0.042 0.025,-0.057c0.017,-0.014 0.038,-0.022 0.064,-0.022c0.026,0 0.048,0.008 0.064,0.022c0.017,0.015 0.025,0.034 0.025,0.057c0,0.023 -0.008,0.042 -0.025,0.057c-0.016,0.015 -0.038,0.023 -0.064,0.023Zm0.076,0.579l-0.154,0l0,-0.5l0.154,0l0,0.5Z" style="fill:#fff;fill-rule:nonzero;"/></g><g transform="matrix(308.806,0,0,308.806,3065.99,1627.39)"><path d="M0.367,-0.006c-0.023,0.012 -0.057,0.018 -0.103,0.018c-0.109,0 -0.163,-0.056 -0.163,-0.169l0,-0.229l-0.081,0l0,-0.114l0.081,0l0,-0.108l0.154,-0.044l0,0.152l0.112,0l0,0.114l-0.112,0l0,0.202c0,0.052 0.021,0.078 0.062,0.078c0.016,0 0.033,-0.005 0.05,-0.014l0,0.114Z" style="fill:#fff;fill-rule:nonzero;"/></g><g transform="matrix(308.806,0,0,308.806,3186.16,1627.39)"><path d="M0.481,0l-0.146,0l0,-0.072l-0.002,0c-0.034,0.056 -0.083,0.084 -0.149,0.084c-0.048,0 -0.087,-0.014 -0.114,-0.041c-0.028,-0.028 -0.042,-0.064 -0.042,-0.11c0,-0.097 0.057,-0.153 0.172,-0.168l0.136,-0.018c0,-0.055 -0.03,-0.082 -0.089,-0.082c-0.059,0 -0.116,0.018 -0.17,0.053l0,-0.116c0.022,-0.011 0.051,-0.021 0.088,-0.03c0.038,-0.008 0.071,-0.012 0.102,-0.012c0.143,0 0.214,0.071 0.214,0.213l0,0.299Zm-0.145,-0.203l0,-0.034l-0.091,0.012c-0.05,0.006 -0.075,0.029 -0.075,0.068c0,0.017 0.006,0.032 0.018,0.043c0.012,0.011 0.029,0.017 0.05,0.017c0.029,0 0.052,-0.01 0.071,-0.03c0.018,-0.02 0.027,-0.046 0.027,-0.076Z" style="fill:#fff;fill-rule:nonzero;"/></g><g transform="matrix(308.806,0,0,308.806,3352.33,1627.39)"><rect x="0.065" y="-0.74" width="0.154" height="0.74" style="fill:#fff;fill-rule:nonzero;"/></g><g transform="matrix(308.806,0,0,308.806,2471.6,1936.19)"><path d="M0.686,0l-0.158,0l0,-0.285l-0.29,0l0,0.285l-0.158,0l0,-0.7l0.158,0l0,0.279l0.29,0l0,-0.279l0.158,0l0,0.7Z" style="fill:#fff;fill-rule:nonzero;"/></g><g transform="matrix(308.806,0,0,308.806,2708.18,1936.19)"><path d="M0.54,0l-0.154,0l0,-0.076l-0.002,0c-0.038,0.059 -0.089,0.088 -0.153,0.088c-0.116,0 -0.174,-0.07 -0.174,-0.21l0,-0.302l0.154,0l0,0.288c0,0.071 0.028,0.106 0.084,0.106c0.028,0 0.05,-0.01 0.066,-0.029c0.017,-0.019 0.025,-0.046 0.025,-0.079l0,-0.286l0.154,0l0,0.5Z" style="fill:#fff;fill-rule:nonzero;"/></g><g transform="matrix(308.806,0,0,308.806,2895,1936.19)"><path d="M0.548,0l-0.154,0l0,-0.278c0,-0.077 -0.028,-0.116 -0.083,-0.116c-0.027,0 -0.049,0.01 -0.066,0.031c-0.017,0.02 -0.026,0.046 -0.026,0.078l0,0.285l-0.154,0l0,-0.5l0.154,0l0,0.079l0.002,0c0.037,-0.061 0.091,-0.091 0.161,-0.091c0.111,0 0.166,0.068 0.166,0.206l0,0.306Z" style="fill:#fff;fill-rule:nonzero;"/></g><g transform="matrix(308.806,0,0,308.806,3081.82,1936.19)"><path d="M0.367,-0.006c-0.023,0.012 -0.057,0.018 -0.103,0.018c-0.109,0 -0.163,-0.056 -0.163,-0.169l0,-0.229l-0.081,0l0,-0.114l0.081,0l0,-0.108l0.154,-0.044l0,0.152l0.112,0l0,0.114l-0.112,0l0,0.202c0,0.052 0.021,0.078 0.062,0.078c0.016,0 0.033,-0.005 0.05,-0.014l0,0.114Z" style="fill:#fff;fill-rule:nonzero;"/></g><g transform="matrix(308.806,0,0,308.806,3202,1936.19)"><path d="M0.514,-0.206l-0.326,0c0.005,0.073 0.051,0.109 0.137,0.109c0.055,0 0.104,-0.013 0.145,-0.039l0,0.111c-0.046,0.025 -0.106,0.037 -0.18,0.037c-0.081,0 -0.143,-0.022 -0.188,-0.067c-0.045,-0.045 -0.067,-0.107 -0.067,-0.187c0,-0.083 0.024,-0.149 0.072,-0.197c0.049,-0.049 0.108,-0.073 0.178,-0.073c0.073,0 0.129,0.021 0.169,0.065c0.04,0.043 0.06,0.102 0.06,0.176l0,0.065Zm-0.143,-0.095c0,-0.071 -0.029,-0.107 -0.087,-0.107c-0.025,0 -0.046,0.01 -0.064,0.031c-0.018,0.02 -0.029,0.046 -0.033,0.076l0.184,0Z" style="fill:#fff;fill-rule:nonzero;"/></g><g transform="matrix(308.806,0,0,308.806,3369.07,1936.19)"><path d="M0.391,-0.361c-0.018,-0.01 -0.04,-0.015 -0.065,-0.015c-0.033,0 -0.06,0.012 -0.078,0.037c-0.019,0.024 -0.029,0.058 -0.029,0.1l0,0.239l-0.154,0l0,-0.5l0.154,0l0,0.093l0.002,0c0.025,-0.068 0.069,-0.102 0.132,-0.102c0.016,0 0.029,0.002 0.038,0.006l0,0.142Z" style="fill:#fff;fill-rule:nonzero;"/></g><g transform="matrix(308.806,0,0,308.806,3491.95,1936.19)"><path d="M0.032,-0.013l0,-0.125c0.026,0.015 0.051,0.027 0.076,0.034c0.025,0.007 0.049,0.011 0.072,0.011c0.027,0 0.049,-0.004 0.064,-0.011c0.016,-0.007 0.024,-0.019 0.024,-0.034c0,-0.01 -0.004,-0.018 -0.011,-0.025c-0.007,-0.006 -0.016,-0.012 -0.027,-0.017c-0.011,-0.005 -0.024,-0.009 -0.037,-0.013c-0.013,-0.004 -0.026,-0.008 -0.039,-0.013c-0.02,-0.008 -0.037,-0.016 -0.052,-0.024c-0.015,-0.009 -0.028,-0.019 -0.038,-0.03c-0.011,-0.012 -0.018,-0.025 -0.024,-0.04c-0.005,-0.015 -0.008,-0.033 -0.008,-0.053c0,-0.028 0.006,-0.052 0.019,-0.072c0.012,-0.02 0.028,-0.037 0.048,-0.05c0.021,-0.013 0.044,-0.022 0.07,-0.028c0.026,-0.006 0.054,-0.009 0.082,-0.009c0.022,0 0.045,0.002 0.067,0.005c0.023,0.003 0.046,0.008 0.068,0.015l0,0.119c-0.02,-0.011 -0.041,-0.02 -0.063,-0.026c-0.022,-0.005 -0.044,-0.008 -0.066,-0.008c-0.01,0 -0.019,0.001 -0.028,0.002c-0.009,0.002 -0.017,0.005 -0.024,0.008c-0.007,0.004 -0.012,0.008 -0.016,0.013c-0.004,0.006 -0.006,0.012 -0.006,0.019c0,0.009 0.003,0.017 0.009,0.023c0.006,0.007 0.013,0.012 0.023,0.017c0.009,0.005 0.02,0.009 0.031,0.013c0.012,0.003 0.023,0.007 0.035,0.011c0.02,0.007 0.039,0.015 0.055,0.024c0.017,0.008 0.031,0.018 0.043,0.029c0.012,0.012 0.021,0.025 0.027,0.04c0.007,0.016 0.01,0.034 0.01,0.055c0,0.03 -0.006,0.055 -0.019,0.076c-0.013,0.021 -0.03,0.038 -0.052,0.051c-0.021,0.014 -0.045,0.023 -0.073,0.029c-0.028,0.006 -0.057,0.009 -0.087,0.009c-0.055,0 -0.106,-0.008 -0.153,-0.025Z" style="fill:#fff;fill-rule:nonzero;"/></g></g><path d="M413.176,496.221l-36.677,0c-1.551,0 -2.821,-1.272 -2.821,-2.823l0,-36.677c0,-1.551 1.27,-2.821 2.821,-2.821l36.677,0c1.554,0 2.823,1.27 2.823,2.821l0,36.677c0,1.551 -1.269,2.823 -2.823,2.823Z" style="fill:#fff;"/><path d="M497.816,496.221l-36.679,0c-1.549,0 -2.821,-1.272 -2.821,-2.823l0,-36.677c0,-1.551 1.272,-2.821 2.821,-2.821l36.679,0c1.551,0 2.821,1.27 2.821,2.821l0,36.677c0,1.551 -1.27,2.823 -2.821,2.823Z" style="fill:#fff;"/><path d="M413.176,350.841c1.554,0 2.823,1.269 2.823,2.821l0,36.676c0,1.552 1.268,2.821 2.821,2.821l36.675,0c1.552,0 2.821,-1.269 2.821,-2.821l0,-36.676c0,-1.552 1.271,-2.821 2.821,-2.821l36.679,0c1.551,0 2.821,1.269 2.821,2.821l0,78.997c0,1.552 -1.27,2.819 -2.821,2.819l-121.317,0c-1.551,0 -2.821,-1.267 -2.821,-2.819l0,-78.997c0,-1.552 1.27,-2.821 2.821,-2.821l36.677,0Z" style="fill:#fff;"/><path d="M476.654,247.779c1.554,0 3.721,0.9 4.817,1.997l17.171,17.169c1.096,1.096 1.995,3.263 1.995,4.817l0,57.836c0,1.551 -1.27,2.821 -2.821,2.821l-36.679,0c-1.549,0 -2.821,-1.27 -2.821,-2.821l0,-36.677c0,-1.551 -1.27,-2.821 -2.821,-2.821l-36.675,0c-1.553,0 -2.821,1.27 -2.821,2.821l0,36.677c0,1.551 -1.269,2.821 -2.823,2.821l-36.677,0c-1.551,0 -2.821,-1.27 -2.821,-2.821l0,-78.996c0,-1.551 1.27,-2.823 2.821,-2.823l100.155,0Z" style="fill:#fff;"/></g></g></svg>