<?xml version="1.0" encoding="UTF-8" standalone="no"?><!DOCTYPE svg PUBLIC "-//W3C//DTD SVG 1.1//EN" "http://www.w3.org/Graphics/SVG/1.1/DTD/svg11.dtd"><svg width="100%" height="100%" viewBox="0 0 1200 744" version="1.1" xmlns="http://www.w3.org/2000/svg" xmlns:xlink="http://www.w3.org/1999/xlink" xml:space="preserve" xmlns:serif="http://www.serif.com/" style="fill-rule:evenodd;clip-rule:evenodd;stroke-linejoin:round;stroke-miterlimit:2;"><rect id="logo-gay-ukraine" x="0" y="0" width="1200" height="744" style="fill:none;"/><g><g><path d="M590.357,306.706c-6.415,0 -11.049,1.78 -13.903,5.34c-2.854,3.561 -4.281,8.431 -4.281,14.61c0,3.001 0.353,5.723 1.059,8.165c0.706,2.442 1.765,4.546 3.178,6.311c1.412,1.766 3.178,3.134 5.296,4.105c2.119,0.971 4.59,1.457 7.415,1.457c1.53,0 2.84,-0.03 3.928,-0.089c1.089,-0.059 2.045,-0.176 2.869,-0.353l0,-21.274l13.771,0l0,30.278c-1.648,0.647 -4.296,1.339 -7.945,2.074c-3.648,0.736 -8.15,1.104 -13.506,1.104c-4.59,0 -8.753,-0.706 -12.49,-2.119c-3.737,-1.412 -6.93,-3.472 -9.578,-6.179c-2.648,-2.707 -4.693,-6.032 -6.135,-9.975c-1.442,-3.942 -2.162,-8.444 -2.162,-13.505c0,-5.12 0.794,-9.652 2.383,-13.594c1.589,-3.943 3.766,-7.283 6.532,-10.019c2.766,-2.737 6.017,-4.811 9.754,-6.224c3.737,-1.412 7.724,-2.118 11.961,-2.118c2.884,0 5.488,0.191 7.812,0.574c2.325,0.382 4.326,0.823 6.003,1.324c1.677,0.5 3.06,1.015 4.149,1.544c1.088,0.53 1.868,0.942 2.339,1.236l-3.972,11.034c-1.883,-1 -4.046,-1.868 -6.488,-2.604c-2.443,-0.735 -5.105,-1.103 -7.989,-1.103Z" style="fill:#fff;fill-rule:nonzero;"/><path d="M639.348,348.106c1.295,0 2.531,-0.029 3.708,-0.088c1.177,-0.059 2.118,-0.147 2.825,-0.265l0,-9.975c-0.53,-0.118 -1.324,-0.235 -2.384,-0.353c-1.059,-0.118 -2.03,-0.177 -2.913,-0.177c-1.236,0 -2.398,0.074 -3.487,0.221c-1.088,0.147 -2.045,0.427 -2.868,0.839c-0.824,0.412 -1.472,0.971 -1.942,1.677c-0.471,0.706 -0.707,1.589 -0.707,2.648c0,2.06 0.692,3.487 2.075,4.281c1.383,0.795 3.281,1.192 5.693,1.192Zm-1.059,-38.487c3.884,0 7.121,0.441 9.71,1.324c2.59,0.883 4.664,2.148 6.223,3.796c1.56,1.648 2.663,3.648 3.311,6.002c0.647,2.354 0.971,4.973 0.971,7.857l0,27.364c-1.884,0.412 -4.502,0.898 -7.857,1.457c-3.354,0.559 -7.415,0.838 -12.181,0.838c-3.002,0 -5.723,-0.264 -8.166,-0.794c-2.442,-0.53 -4.546,-1.398 -6.311,-2.604c-1.766,-1.207 -3.119,-2.781 -4.061,-4.723c-0.941,-1.942 -1.412,-4.325 -1.412,-7.15c0,-2.707 0.544,-5.002 1.633,-6.885c1.089,-1.883 2.545,-3.384 4.37,-4.502c1.824,-1.118 3.913,-1.927 6.267,-2.428c2.354,-0.5 4.796,-0.75 7.327,-0.75c1.706,0 3.222,0.074 4.546,0.221c1.324,0.147 2.398,0.338 3.222,0.574l0,-1.236c0,-2.237 -0.677,-4.031 -2.031,-5.385c-1.353,-1.353 -3.707,-2.03 -7.061,-2.03c-2.237,0 -4.444,0.162 -6.621,0.485c-2.177,0.324 -4.061,0.78 -5.649,1.369l-1.678,-10.593c0.765,-0.236 1.722,-0.486 2.869,-0.751c1.148,-0.264 2.398,-0.5 3.752,-0.706c1.353,-0.206 2.78,-0.382 4.281,-0.529c1.501,-0.147 3.016,-0.221 4.546,-0.221Z" style="fill:#fff;fill-rule:nonzero;"/><path d="M710.585,310.855c-2.655,8.945 -5.428,17.331 -8.319,25.158c-2.891,7.826 -6.047,15.418 -9.47,22.774c-1.237,2.648 -2.475,4.899 -3.713,6.753c-1.237,1.854 -2.593,3.384 -4.066,4.59c-1.474,1.206 -3.139,2.089 -4.995,2.648c-1.856,0.559 -4.021,0.839 -6.497,0.839c-2.063,0 -3.964,-0.191 -5.702,-0.574c-1.739,-0.382 -3.168,-0.809 -4.288,-1.28l2.295,-10.504c1.355,0.47 2.562,0.794 3.622,0.971c1.059,0.176 2.178,0.264 3.356,0.264c2.355,0 4.165,-0.632 5.431,-1.897c1.266,-1.266 2.34,-3.016 3.224,-5.253c-3.003,-5.885 -6.006,-12.49 -9.009,-19.817c-3.002,-7.327 -5.828,-15.551 -8.477,-24.672l13.947,0c0.591,2.295 1.286,4.781 2.084,7.459c0.798,2.677 1.64,5.384 2.527,8.121c0.886,2.736 1.787,5.399 2.704,7.989c0.916,2.589 1.788,4.943 2.615,7.061c0.768,-2.118 1.566,-4.472 2.393,-7.061c0.828,-2.59 1.641,-5.253 2.438,-7.989c0.798,-2.737 1.566,-5.444 2.304,-8.121c0.739,-2.678 1.403,-5.164 1.995,-7.459l13.601,0Z" style="fill:#fff;fill-rule:nonzero;"/><path d="M584.443,449.267c-4.296,0 -8.004,-0.604 -11.123,-1.81c-3.119,-1.206 -5.693,-2.883 -7.724,-5.031c-2.03,-2.148 -3.531,-4.708 -4.502,-7.68c-0.971,-2.972 -1.456,-6.253 -1.456,-9.843l0,-38.045l13.771,0l0,36.898c0,2.471 0.279,4.575 0.838,6.311c0.559,1.736 1.324,3.149 2.295,4.237c0.971,1.089 2.148,1.869 3.531,2.34c1.383,0.47 2.898,0.706 4.546,0.706c3.355,0 6.076,-1.03 8.165,-3.09c2.09,-2.059 3.134,-5.561 3.134,-10.504l0,-36.898l13.771,0l0,38.045c0,3.59 -0.5,6.886 -1.501,9.887c-1,3.001 -2.53,5.576 -4.59,7.724c-2.06,2.148 -4.679,3.81 -7.856,4.987c-3.178,1.177 -6.945,1.766 -11.299,1.766Z" style="fill:#fff;fill-rule:nonzero;"/><path d="M635.2,418.273c1.293,-1.404 2.631,-2.867 4.012,-4.388c1.381,-1.521 2.718,-3.028 4.012,-4.52c1.294,-1.492 2.514,-2.91 3.66,-4.255c1.146,-1.346 2.131,-2.516 2.954,-3.511l15.639,0c-3.119,3.583 -6.164,7.003 -9.136,10.262c-2.972,3.259 -6.223,6.621 -9.754,10.085c1.765,1.592 3.59,3.493 5.473,5.703c1.883,2.211 3.707,4.495 5.473,6.853c1.765,2.358 3.383,4.716 4.855,7.074c1.471,2.358 2.707,4.509 3.707,6.455l-15.124,0c-0.939,-1.534 -2.011,-3.23 -3.215,-5.088c-1.204,-1.859 -2.482,-3.717 -3.833,-5.575c-1.351,-1.857 -2.776,-3.642 -4.274,-5.352c-1.498,-1.711 -2.981,-3.156 -4.449,-4.336l0,20.351l-13.153,0l0,-66.381l13.153,-2.119l0,38.742Z" style="fill:#fff;fill-rule:nonzero;"/><path d="M701.139,413.251c-1.177,-0.294 -2.559,-0.603 -4.148,-0.927c-1.589,-0.323 -3.296,-0.485 -5.12,-0.485c-0.824,0 -1.81,0.074 -2.957,0.221c-1.148,0.147 -2.016,0.309 -2.604,0.485l0,35.486l-13.153,0l0,-43.96c2.354,-0.824 5.134,-1.604 8.342,-2.339c3.207,-0.736 6.782,-1.104 10.725,-1.104c0.706,0 1.559,0.044 2.56,0.133c1,0.088 2.001,0.206 3.001,0.353c1.001,0.147 2.001,0.323 3.001,0.529c1.001,0.206 1.854,0.457 2.56,0.751l-2.207,10.857Z" style="fill:#fff;fill-rule:nonzero;"/><path d="M727.268,438.85c1.295,0 2.531,-0.029 3.708,-0.088c1.177,-0.059 2.118,-0.147 2.824,-0.265l0,-9.974c-0.529,-0.118 -1.324,-0.236 -2.383,-0.354c-1.059,-0.117 -2.03,-0.176 -2.913,-0.176c-1.236,0 -2.398,0.073 -3.487,0.221c-1.088,0.147 -2.045,0.426 -2.869,0.838c-0.823,0.412 -1.471,0.971 -1.942,1.677c-0.47,0.707 -0.706,1.589 -0.706,2.649c0,2.059 0.692,3.486 2.075,4.281c1.383,0.794 3.28,1.191 5.693,1.191Zm-1.059,-38.486c3.884,0 7.121,0.441 9.71,1.324c2.589,0.882 4.664,2.148 6.223,3.795c1.56,1.648 2.663,3.649 3.31,6.003c0.648,2.354 0.971,4.973 0.971,7.856l0,27.365c-1.883,0.412 -4.501,0.897 -7.856,1.456c-3.354,0.559 -7.415,0.839 -12.181,0.839c-3.002,0 -5.724,-0.265 -8.166,-0.795c-2.442,-0.529 -4.546,-1.397 -6.311,-2.604c-1.766,-1.206 -3.119,-2.78 -4.061,-4.722c-0.941,-1.942 -1.412,-4.326 -1.412,-7.15c0,-2.707 0.544,-5.002 1.633,-6.886c1.089,-1.883 2.545,-3.383 4.369,-4.502c1.825,-1.118 3.914,-1.927 6.268,-2.427c2.354,-0.5 4.796,-0.75 7.326,-0.75c1.707,0 3.222,0.073 4.546,0.22c1.325,0.147 2.399,0.339 3.222,0.574l0,-1.236c0,-2.236 -0.676,-4.031 -2.03,-5.384c-1.353,-1.354 -3.707,-2.031 -7.062,-2.031c-2.236,0 -4.443,0.162 -6.62,0.486c-2.178,0.324 -4.061,0.78 -5.65,1.368l-1.677,-10.593c0.765,-0.235 1.722,-0.485 2.869,-0.75c1.148,-0.265 2.398,-0.5 3.752,-0.706c1.353,-0.206 2.78,-0.383 4.281,-0.53c1.501,-0.147 3.016,-0.22 4.546,-0.22Z" style="fill:#fff;fill-rule:nonzero;"/><path d="M771.493,448.031l-13.153,0l0,-46.432l13.153,0l0,46.432Zm1.236,-59.849c0,2.413 -0.78,4.311 -2.339,5.693c-1.56,1.383 -3.399,2.075 -5.518,2.075c-2.118,0 -3.957,-0.692 -5.517,-2.075c-1.559,-1.382 -2.339,-3.28 -2.339,-5.693c0,-2.413 0.78,-4.311 2.339,-5.694c1.56,-1.383 3.399,-2.074 5.517,-2.074c2.119,0 3.958,0.691 5.518,2.074c1.559,1.383 2.339,3.281 2.339,5.694Z" style="fill:#fff;fill-rule:nonzero;"/><path d="M783.851,403.188c2.236,-0.647 5.12,-1.25 8.651,-1.809c3.531,-0.559 7.238,-0.839 11.122,-0.839c3.943,0 7.224,0.515 9.843,1.545c2.618,1.03 4.693,2.486 6.223,4.369c1.53,1.883 2.619,4.12 3.266,6.709c0.647,2.589 0.971,5.473 0.971,8.651l0,26.217l-13.153,0l0,-24.628c0,-4.237 -0.559,-7.239 -1.677,-9.004c-1.118,-1.766 -3.207,-2.648 -6.267,-2.648c-0.942,0 -1.942,0.044 -3.001,0.132c-1.06,0.088 -2.001,0.191 -2.825,0.309l0,35.839l-13.153,0l0,-44.843Z" style="fill:#fff;fill-rule:nonzero;"/><path d="M833.637,425.168c0,-4.119 0.633,-7.724 1.898,-10.813c1.265,-3.09 2.928,-5.664 4.987,-7.724c2.06,-2.06 4.429,-3.619 7.106,-4.679c2.678,-1.059 5.429,-1.588 8.254,-1.588c6.591,0 11.799,2.015 15.624,6.046c3.825,4.031 5.738,9.96 5.738,17.787c0,0.765 -0.03,1.604 -0.088,2.516c-0.059,0.912 -0.118,1.721 -0.177,2.427l-29.836,0c0.294,2.708 1.559,4.855 3.796,6.444c2.236,1.589 5.237,2.384 9.003,2.384c2.413,0 4.782,-0.221 7.106,-0.662c2.325,-0.442 4.223,-0.986 5.694,-1.633l1.765,10.681c-0.706,0.353 -1.647,0.706 -2.824,1.059c-1.177,0.353 -2.487,0.662 -3.928,0.927c-1.442,0.265 -2.987,0.485 -4.635,0.662c-1.648,0.176 -3.295,0.265 -4.943,0.265c-4.178,0 -7.812,-0.618 -10.902,-1.854c-3.089,-1.236 -5.649,-2.928 -7.679,-5.076c-2.031,-2.148 -3.531,-4.693 -4.502,-7.635c-0.971,-2.943 -1.457,-6.121 -1.457,-9.534Zm30.896,-5.031c-0.059,-1.118 -0.25,-2.207 -0.574,-3.266c-0.324,-1.06 -0.824,-2.001 -1.501,-2.825c-0.677,-0.824 -1.53,-1.501 -2.56,-2.03c-1.03,-0.53 -2.31,-0.795 -3.84,-0.795c-1.471,0 -2.736,0.25 -3.795,0.75c-1.06,0.501 -1.942,1.163 -2.649,1.987c-0.706,0.823 -1.25,1.78 -1.633,2.868c-0.382,1.089 -0.662,2.193 -0.838,3.311l17.39,0Z" style="fill:#fff;fill-rule:nonzero;"/></g><g><path d="M518.628,377.04c-2.632,51.754 -45.478,92.96 -97.872,92.96c-54.088,0 -98,-43.912 -98,-98c0,-54.056 43.86,-97.948 98,-98l0,35.626c-34.425,0 -62.374,27.949 -62.374,62.374c0,34.425 27.949,62.374 62.374,62.374c34.425,0 62.374,-27.949 62.374,-62.374l35.626,0l-0.128,5.04Z" style="fill:#fff;"/><path d="M451.943,340.813l31.187,0l0,31.187l-62.374,0l0,-62.374l31.187,0l0,31.187Z" style="fill:#fff;"/></g></g></svg>