<?xml version="1.0" encoding="UTF-8" standalone="no"?><!DOCTYPE svg PUBLIC "-//W3C//DTD SVG 1.1//EN" "http://www.w3.org/Graphics/SVG/1.1/DTD/svg11.dtd"><svg width="100%" height="100%" viewBox="0 0 1200 744" version="1.1" xmlns="http://www.w3.org/2000/svg" xmlns:xlink="http://www.w3.org/1999/xlink" xml:space="preserve" xmlns:serif="http://www.serif.com/" style="fill-rule:evenodd;clip-rule:evenodd;stroke-linejoin:round;stroke-miterlimit:2;"><rect id="logo-jrs" x="0" y="0" width="1200" height="744" style="fill:none;"/><g><g transform="matrix(0.515005,0,0,0.515005,-489.771,148.692)"><g transform="matrix(119.994,0,0,119.994,2142.33,355.379)"><path d="M0.569,-0.711l0,0.086l-0.076,0.015l0,0.397c0,0.068 -0.023,0.123 -0.067,0.163c-0.045,0.04 -0.102,0.06 -0.17,0.06c-0.074,0 -0.133,-0.018 -0.176,-0.054c-0.044,-0.036 -0.065,-0.089 -0.063,-0.16l0.001,-0.003l0.139,0c0,0.038 0.009,0.065 0.027,0.082c0.017,0.017 0.042,0.026 0.072,0.026c0.026,0 0.049,-0.01 0.067,-0.031c0.018,-0.02 0.028,-0.048 0.028,-0.083l0,-0.397l-0.077,-0.015l0,-0.086l0.295,0Z" style="fill:#fff;fill-rule:nonzero;"/></g><g transform="matrix(119.994,0,0,119.994,2206.31,355.379)"><path d="M0.02,-0.085l0.051,-0.008l0.216,-0.618l0.146,0l0.215,0.618l0.051,0.008l0,0.085l-0.242,0l0,-0.085l0.049,-0.009l-0.031,-0.098l-0.231,0l-0.031,0.098l0.049,0.009l0,0.085l-0.242,0l0,-0.085Zm0.258,-0.212l0.163,0l-0.08,-0.25l-0.003,0l-0.08,0.25Z" style="fill:#fff;fill-rule:nonzero;"/></g><g transform="matrix(119.994,0,0,119.994,2292.5,355.379)"><path d="M0.366,-0.711c0.081,0 0.145,0.021 0.192,0.063c0.047,0.042 0.071,0.096 0.071,0.164c0,0.068 -0.024,0.123 -0.071,0.164c-0.047,0.042 -0.111,0.062 -0.192,0.062l-0.12,0l0,0.158l0.076,0.015l0,0.085l-0.295,0l0,-0.085l0.076,-0.015l0,-0.51l-0.076,-0.015l0,-0.086l0.339,0Zm-0.12,0.343l0.12,0c0.039,0 0.069,-0.01 0.09,-0.032c0.02,-0.022 0.03,-0.049 0.03,-0.083c0,-0.034 -0.01,-0.062 -0.03,-0.085c-0.021,-0.022 -0.051,-0.033 -0.09,-0.033l-0.12,0l0,0.233Z" style="fill:#fff;fill-rule:nonzero;"/></g><g transform="matrix(119.994,0,0,119.994,2356.3,355.379)"><path d="M0.02,-0.085l0.051,-0.008l0.216,-0.618l0.146,0l0.215,0.618l0.051,0.008l0,0.085l-0.242,0l0,-0.085l0.049,-0.009l-0.031,-0.098l-0.231,0l-0.031,0.098l0.049,0.009l0,0.085l-0.242,0l0,-0.085Zm0.258,-0.212l0.163,0l-0.08,-0.25l-0.003,0l-0.08,0.25Z" style="fill:#fff;fill-rule:nonzero;"/></g><g transform="matrix(119.994,0,0,119.994,2442.49,355.379)"><path d="M0.754,-0.711l0,0.086l-0.076,0.015l0,0.61l-0.142,0l-0.287,-0.479l-0.003,0.001l0,0.378l0.076,0.015l0,0.085l-0.295,0l0,-0.085l0.076,-0.015l0,-0.51l-0.076,-0.015l0,-0.086l0.219,0l0.287,0.479l0.003,-0.001l0,-0.377l-0.077,-0.015l0,-0.086l0.295,0Z" style="fill:#fff;fill-rule:nonzero;"/></g><g transform="matrix(119.994,0,0,119.994,2142.33,475.373)"><path d="M0.347,-0.711c0.08,0 0.144,0.019 0.19,0.055c0.046,0.037 0.068,0.088 0.068,0.154c0,0.035 -0.009,0.066 -0.028,0.093c-0.02,0.026 -0.048,0.048 -0.085,0.064c0.042,0.012 0.072,0.033 0.091,0.062c0.018,0.028 0.027,0.064 0.027,0.107l0,0.036c0,0.015 0.003,0.028 0.01,0.036c0.006,0.009 0.016,0.014 0.03,0.016l0.018,0.002l0,0.086l-0.074,0c-0.046,0 -0.079,-0.013 -0.098,-0.038c-0.019,-0.025 -0.028,-0.057 -0.028,-0.097l0,-0.04c0,-0.035 -0.009,-0.062 -0.028,-0.082c-0.018,-0.019 -0.044,-0.03 -0.078,-0.031l-0.116,0l0,0.188l0.076,0.015l0,0.085l-0.295,0l0,-0.085l0.076,-0.015l0,-0.51l-0.076,-0.015l0,-0.086l0.32,0Zm-0.101,0.314l0.098,0c0.04,0 0.07,-0.009 0.09,-0.026c0.019,-0.017 0.029,-0.041 0.029,-0.073c0,-0.032 -0.009,-0.057 -0.029,-0.077c-0.02,-0.019 -0.049,-0.028 -0.087,-0.028l-0.101,0l0,0.204Z" style="fill:#fff;fill-rule:nonzero;"/></g><g transform="matrix(119.994,0,0,119.994,2224.83,475.373)"><path d="M0.677,-0.35c0,0.104 -0.03,0.19 -0.089,0.258c-0.06,0.068 -0.138,0.102 -0.234,0.102c-0.096,0 -0.174,-0.034 -0.233,-0.102c-0.059,-0.068 -0.088,-0.154 -0.088,-0.258l0,-0.011c0,-0.103 0.029,-0.189 0.088,-0.258c0.059,-0.068 0.136,-0.102 0.233,-0.102c0.096,0 0.174,0.034 0.234,0.102c0.059,0.069 0.089,0.155 0.089,0.258l0,0.011Zm-0.142,-0.012c0,-0.073 -0.015,-0.133 -0.046,-0.179c-0.03,-0.046 -0.076,-0.069 -0.135,-0.069c-0.06,0 -0.105,0.023 -0.135,0.068c-0.029,0.046 -0.044,0.106 -0.044,0.18l0,0.012c0,0.075 0.015,0.135 0.045,0.181c0.03,0.046 0.074,0.068 0.134,0.068c0.06,0 0.105,-0.022 0.136,-0.068c0.03,-0.046 0.045,-0.106 0.045,-0.181l0,-0.012Z" style="fill:#fff;fill-rule:nonzero;"/></g><g transform="matrix(119.994,0,0,119.994,2307.15,475.373)"><path d="M0.287,-0.625l-0.058,0.008l0.11,0.234l0.003,0l0.11,-0.234l-0.057,-0.008l0,-0.086l0.269,0l0,0.086l-0.061,0.01l-0.193,0.365l0,0.15l0.076,0.015l0,0.085l-0.295,0l0,-0.085l0.077,-0.015l0,-0.157l-0.19,-0.358l-0.06,-0.01l0,-0.086l0.269,0l0,0.086Z" style="fill:#fff;fill-rule:nonzero;"/></g><g transform="matrix(119.994,0,0,119.994,2374.06,475.373)"><path d="M0.02,-0.085l0.051,-0.008l0.216,-0.618l0.146,0l0.215,0.618l0.051,0.008l0,0.085l-0.242,0l0,-0.085l0.049,-0.009l-0.031,-0.098l-0.231,0l-0.031,0.098l0.049,0.009l0,0.085l-0.242,0l0,-0.085Zm0.258,-0.212l0.163,0l-0.08,-0.25l-0.003,0l-0.08,0.25Z" style="fill:#fff;fill-rule:nonzero;"/></g><g transform="matrix(119.994,0,0,119.994,2460.24,475.373)"><path d="M0.027,0l0,-0.085l0.076,-0.015l0,-0.51l-0.076,-0.015l0,-0.086l0.295,0l0,0.086l-0.076,0.015l0,0.501l0.2,0l0.007,-0.09l0.109,0l0,0.199l-0.535,0Z" style="fill:#fff;fill-rule:nonzero;"/></g><g transform="matrix(119.994,0,0,119.994,2142.33,595.367)"><path d="M0.567,-0.484l-0.107,0l-0.018,-0.098c-0.012,-0.007 -0.031,-0.014 -0.054,-0.02c-0.024,-0.006 -0.049,-0.009 -0.076,-0.009c-0.039,0 -0.069,0.008 -0.091,0.025c-0.021,0.016 -0.032,0.037 -0.032,0.064c0,0.024 0.012,0.043 0.034,0.059c0.022,0.015 0.061,0.032 0.115,0.049c0.079,0.022 0.138,0.051 0.179,0.086c0.04,0.036 0.061,0.083 0.061,0.141c0,0.061 -0.024,0.109 -0.073,0.145c-0.048,0.035 -0.111,0.052 -0.19,0.052c-0.056,0 -0.107,-0.009 -0.153,-0.027c-0.045,-0.018 -0.083,-0.042 -0.113,-0.074l0,-0.148l0.11,0l0.015,0.101c0.015,0.012 0.034,0.021 0.059,0.029c0.024,0.008 0.052,0.011 0.082,0.011c0.039,0 0.069,-0.008 0.089,-0.024c0.02,-0.016 0.031,-0.037 0.031,-0.064c0,-0.027 -0.01,-0.049 -0.029,-0.065c-0.02,-0.017 -0.054,-0.033 -0.102,-0.047c-0.085,-0.025 -0.148,-0.054 -0.192,-0.087c-0.043,-0.034 -0.065,-0.08 -0.065,-0.138c0,-0.058 0.025,-0.105 0.074,-0.141c0.048,-0.037 0.11,-0.056 0.184,-0.057c0.054,0 0.104,0.009 0.149,0.025c0.045,0.017 0.083,0.039 0.113,0.067l0,0.145Z" style="fill:#fff;fill-rule:nonzero;"/></g><g transform="matrix(119.994,0,0,119.994,2215.1,595.367)"><path d="M0.486,-0.313l-0.24,0.001l0,0.203l0.229,0l0.006,-0.085l0.109,0l0,0.194l-0.563,0l0,-0.085l0.076,-0.015l0,-0.51l-0.076,-0.015l0,-0.086l0.562,0l0,0.195l-0.11,0l-0.006,-0.085l-0.227,0l0,0.179l0.24,0l0,0.109Z" style="fill:#fff;fill-rule:nonzero;"/></g><g transform="matrix(119.994,0,0,119.994,2291.74,595.367)"><path d="M0.347,-0.711c0.08,0 0.144,0.019 0.19,0.055c0.046,0.037 0.068,0.088 0.068,0.154c0,0.035 -0.009,0.066 -0.028,0.093c-0.02,0.026 -0.048,0.048 -0.085,0.064c0.042,0.012 0.072,0.033 0.091,0.062c0.018,0.028 0.027,0.064 0.027,0.107l0,0.036c0,0.015 0.003,0.028 0.01,0.036c0.006,0.009 0.016,0.014 0.03,0.016l0.018,0.002l0,0.086l-0.074,0c-0.046,0 -0.079,-0.013 -0.098,-0.038c-0.019,-0.025 -0.028,-0.057 -0.028,-0.097l0,-0.04c0,-0.035 -0.009,-0.062 -0.028,-0.082c-0.018,-0.019 -0.044,-0.03 -0.078,-0.031l-0.116,0l0,0.188l0.076,0.015l0,0.085l-0.295,0l0,-0.085l0.076,-0.015l0,-0.51l-0.076,-0.015l0,-0.086l0.32,0Zm-0.101,0.314l0.098,0c0.04,0 0.07,-0.009 0.09,-0.026c0.019,-0.017 0.029,-0.041 0.029,-0.073c0,-0.032 -0.009,-0.057 -0.029,-0.077c-0.02,-0.019 -0.049,-0.028 -0.087,-0.028l-0.101,0l0,0.204Z" style="fill:#fff;fill-rule:nonzero;"/></g><g transform="matrix(119.994,0,0,119.994,2368.96,595.367)"><path d="M0.276,-0.625l-0.054,0.01l0.126,0.426l0.009,0.039l0.003,0l0.008,-0.038l0.127,-0.427l-0.054,-0.01l0,-0.086l0.26,0l0,0.086l-0.06,0.008l-0.209,0.617l-0.147,0l-0.21,-0.617l-0.058,-0.008l0,-0.086l0.259,0l0,0.086Z" style="fill:#fff;fill-rule:nonzero;"/></g><g transform="matrix(119.994,0,0,119.994,2454.97,595.367)"><path d="M0.027,-0.625l0,-0.086l0.294,0l0,0.086l-0.076,0.015l0,0.51l0.076,0.015l0,0.085l-0.294,0l0,-0.085l0.076,-0.015l0,-0.51l-0.076,-0.015Z" style="fill:#fff;fill-rule:nonzero;"/></g><g transform="matrix(119.994,0,0,119.994,2496.75,595.367)"><path d="M0.61,-0.471l-0.106,0l-0.015,-0.095c-0.014,-0.014 -0.031,-0.025 -0.053,-0.033c-0.021,-0.008 -0.046,-0.012 -0.075,-0.012c-0.062,0 -0.11,0.022 -0.143,0.067c-0.033,0.045 -0.05,0.104 -0.05,0.176l0,0.025c0,0.072 0.017,0.131 0.05,0.176c0.033,0.045 0.08,0.068 0.14,0.068c0.028,0 0.054,-0.004 0.077,-0.012c0.024,-0.008 0.042,-0.02 0.054,-0.034l0.015,-0.094l0.106,0l0,0.14c-0.029,0.034 -0.065,0.06 -0.11,0.08c-0.044,0.019 -0.094,0.029 -0.149,0.029c-0.095,0 -0.173,-0.033 -0.234,-0.099c-0.061,-0.066 -0.092,-0.151 -0.092,-0.254l0,-0.024c0,-0.103 0.031,-0.188 0.091,-0.255c0.061,-0.066 0.139,-0.099 0.235,-0.099c0.055,0 0.105,0.01 0.149,0.03c0.044,0.02 0.081,0.046 0.11,0.079l0,0.141Z" style="fill:#fff;fill-rule:nonzero;"/></g><g transform="matrix(119.994,0,0,119.994,2574.5,595.367)"><path d="M0.486,-0.313l-0.24,0.001l0,0.203l0.229,0l0.006,-0.085l0.109,0l0,0.194l-0.563,0l0,-0.085l0.076,-0.015l0,-0.51l-0.076,-0.015l0,-0.086l0.562,0l0,0.195l-0.11,0l-0.006,-0.085l-0.227,0l0,0.179l0.24,0l0,0.109Z" style="fill:#fff;fill-rule:nonzero;"/></g></g><g><path d="M439.821,352.482l9.032,-18.303c1.637,-3.315 4.313,-3.315 5.95,0l9.035,18.303c0.364,0.734 0.899,1.458 1.5,2.151l45.868,-64.017c2.271,0.199 4.581,-0.652 6.019,-2.628c2.182,-3.003 1.516,-7.206 -1.486,-9.385c-3.003,-2.183 -7.206,-1.517 -9.385,1.486c-1.459,2.003 -1.538,4.502 -0.611,6.622l-9.766,13.627c-9.529,-34.933 -44.149,-52.838 -44.149,-52.838c0,0 -40.683,20.97 -46.019,61.879l32.945,44.64c0.384,-0.511 0.807,-1.012 1.067,-1.537Z" style="fill:#fff;fill-rule:nonzero;"/><path d="M372.211,400.828l51.579,-17.182c-0.333,-0.459 -0.639,-0.967 -1.013,-1.334l-14.614,-14.248c-2.649,-2.577 -1.822,-5.126 1.836,-5.658l20.197,-2.931c1.105,-0.161 2.255,-0.617 3.387,-1.184l-46.747,-63.464c0.882,-2.104 0.793,-4.561 -0.645,-6.537c-2.179,-3.003 -6.382,-3.669 -9.385,-1.486c-3.002,2.186 -3.668,6.382 -1.486,9.388c1.455,2.004 3.809,2.855 6.108,2.625l9.866,13.393c-36.147,-1.709 -63.853,25.664 -63.853,25.664c0,0 7.388,45.289 44.77,62.954Z" style="fill:#fff;fill-rule:nonzero;"/><path d="M445.881,407.742l-18.066,9.498c-3.271,1.719 -5.436,0.148 -4.815,-3.496l3.456,-20.119c0.195,-1.153 0.096,-2.453 -0.12,-3.771l-73.931,24.562c-1.723,-1.492 -4.09,-2.168 -6.417,-1.41c-3.527,1.146 -5.459,4.938 -4.313,8.469c1.149,3.527 4.938,5.463 8.469,4.313c2.354,-0.765 3.891,-2.738 4.385,-4.993l15.696,-5.219c-12.697,33.81 4.728,68.526 4.728,68.526c0,0 45.395,6.969 73.745,-23.166l-0.404,-54.035c-0.865,0.21 -1.702,0.467 -2.413,0.841Z" style="fill:#fff;fill-rule:nonzero;"/><path d="M477.217,390.351c-0.147,1.15 -0.185,2.269 -0.01,3.274l3.449,20.119c0.624,3.644 -1.541,5.215 -4.811,3.496l-18.067,-9.498c-0.82,-0.432 -1.771,-0.755 -2.786,-0.968l0.508,77.342c-1.949,1.177 -3.322,3.219 -3.322,5.665c0,3.71 3.009,6.719 6.719,6.719c3.709,0 6.719,-3.009 6.719,-6.719c0,-2.477 -1.404,-4.55 -3.398,-5.717l-0.106,-16.615c28.22,22.493 66.594,16.653 66.594,16.653c0,0 20.62,-40.937 0.817,-77.187l-52.306,-16.564Z" style="fill:#fff;fill-rule:nonzero;"/><path d="M562.16,399.733c-2.354,-0.769 -4.76,-0.072 -6.486,1.465l-15.967,-5.075c30.194,-19.875 36.515,-58.249 36.515,-58.249c0,0 -32.496,-32.19 -73.035,-24.655l-32.479,45.419c0.926,0.412 1.86,0.707 2.752,0.837l20.201,2.931c3.658,0.532 4.485,3.081 1.839,5.658l-14.618,14.248c-0.494,0.483 -0.913,1.122 -1.331,1.753l74.095,23.536c0.515,2.22 2.038,4.159 4.361,4.914c3.531,1.146 7.323,-0.786 8.469,-4.313c1.146,-3.531 -0.786,-7.323 -4.316,-8.469Z" style="fill:#fff;fill-rule:nonzero;"/></g></g></svg>