<?xml version="1.0" encoding="UTF-8" standalone="no"?><!DOCTYPE svg PUBLIC "-//W3C//DTD SVG 1.1//EN" "http://www.w3.org/Graphics/SVG/1.1/DTD/svg11.dtd"><svg width="100%" height="100%" viewBox="0 0 1200 744" version="1.1" xmlns="http://www.w3.org/2000/svg" xmlns:xlink="http://www.w3.org/1999/xlink" xml:space="preserve" xmlns:serif="http://www.serif.com/" style="fill-rule:evenodd;clip-rule:evenodd;stroke-linejoin:round;stroke-miterlimit:2;"><rect id="logo-skole" x="0" y="0" width="1200" height="744" style="fill:none;"/><g><path d="M420.153,424.375c-17.882,0 -34.982,-7.646 -46.916,-20.977c-10.34,-11.552 -16.035,-26.458 -16.035,-41.976l0,-6.746l13.489,0l0,6.746c0,12.192 4.473,23.905 12.596,32.98c9.379,10.474 22.815,16.482 36.866,16.482c27.274,0 49.463,-22.186 49.463,-49.462c0,-68.436 -105.711,-86.846 -106.779,-87.024l1.108,-13.398l119.16,0l0,13.489l-73.039,0c4.292,1.772 8.693,3.751 13.105,5.959c39.21,19.606 59.934,47.604 59.934,80.974c0,34.712 -28.239,62.953 -62.952,62.953Z" style="fill:#fff;fill-rule:nonzero;"/><path d="M745.711,424.375l-6.745,0c-20.249,0 -36.724,-16.474 -36.724,-36.722l0,-126.653l28.48,0l0,13.489l-14.988,0l0,113.164c0,12.81 10.422,23.231 23.232,23.231l6.745,0l0,13.491Z" style="fill:#fff;fill-rule:nonzero;"/><path d="M551.846,377.844c10.593,-8.083 17.444,-20.832 17.444,-35.157l0,-6.747l-13.489,0l0,6.747c0,16.942 -13.784,30.725 -30.729,30.725l-4.495,0l0,-98.923l14.988,0l0,-13.489l-28.477,0l0,163.373l13.489,0l0,-37.47l11.99,0c16.944,0 30.727,13.783 30.727,30.727l0,6.743l13.491,0l0,-6.743c0,-17.473 -10.191,-32.609 -24.939,-39.786Z" style="fill:#fff;fill-rule:nonzero;"/><path d="M636.797,347.933c-17.768,0 -32.225,14.457 -32.225,32.225c0,17.769 14.457,32.226 32.225,32.226c17.769,0 32.226,-14.457 32.226,-32.226c0,-17.768 -14.457,-32.225 -32.226,-32.225Zm0,77.942c-25.207,0 -45.714,-20.509 -45.714,-45.717c0,-25.207 20.507,-45.716 45.714,-45.716c25.208,0 45.715,20.509 45.715,45.716c0,25.208 -20.507,45.717 -45.715,45.717Z" style="fill:#fff;fill-rule:nonzero;"/><path d="M797.522,347.931c11.202,0 21.473,5.877 27.29,15.116l-59.175,21.539c-0.2,-1.453 -0.34,-2.921 -0.34,-4.428c0,-17.768 14.457,-32.227 32.225,-32.227Zm29.218,45.846c-5.281,11.303 -16.749,18.607 -29.218,18.607c-11.483,0 -21.556,-6.057 -27.264,-15.125l59.865,-21.788l12.675,-4.616l-2.308,-6.336c-6.55,-17.989 -23.817,-30.077 -42.968,-30.077c-25.207,0 -45.716,20.509 -45.716,45.716c0,25.208 20.509,45.717 45.716,45.717c17.685,0 33.952,-10.36 41.439,-26.388l2.854,-6.112l-12.222,-5.709l-2.853,6.111Z" style="fill:#fff;fill-rule:nonzero;"/><path d="M648.039,380.159c0,-6.205 -5.036,-11.242 -11.24,-11.242c-6.204,0 -11.241,5.037 -11.241,11.242c0,6.204 5.037,11.241 11.241,11.241c6.204,0 11.24,-5.037 11.24,-11.241Z" style="fill:#fff;"/><path d="M526.437,474.222c0,1.398 -0.256,2.642 -0.773,3.736c-0.517,1.094 -1.251,2.015 -2.202,2.765c-0.954,0.748 -2.086,1.316 -3.402,1.7c-1.318,0.388 -2.765,0.577 -4.345,0.577c-0.972,0 -1.9,-0.076 -2.779,-0.228c-0.881,-0.149 -1.671,-0.344 -2.37,-0.576c-0.699,-0.233 -1.292,-0.476 -1.778,-0.727c-0.486,-0.255 -0.841,-0.484 -1.063,-0.682c-0.224,-0.204 -0.384,-0.49 -0.486,-0.854c-0.102,-0.362 -0.151,-0.861 -0.151,-1.489c0,-0.386 0.018,-0.708 0.06,-0.972c0.04,-0.264 0.091,-0.475 0.151,-0.637l0.259,-0.351l0.38,-0.105c0.224,0 0.552,0.136 0.987,0.409c0.436,0.275 0.973,0.573 1.61,0.896c0.637,0.325 1.393,0.624 2.263,0.899c0.87,0.271 1.873,0.407 3.008,0.407c0.85,0 1.62,-0.091 2.308,-0.273c0.688,-0.182 1.287,-0.449 1.793,-0.806c0.506,-0.353 0.895,-0.803 1.17,-1.35c0.273,-0.548 0.41,-1.194 0.41,-1.944c0,-0.77 -0.199,-1.418 -0.592,-1.944c-0.397,-0.528 -0.917,-0.992 -1.565,-1.398c-0.65,-0.406 -1.378,-0.764 -2.188,-1.079c-0.81,-0.313 -1.645,-0.641 -2.506,-0.987c-0.861,-0.344 -1.7,-0.733 -2.521,-1.168c-0.821,-0.437 -1.554,-0.969 -2.202,-1.595c-0.65,-0.629 -1.17,-1.378 -1.564,-2.249c-0.396,-0.87 -0.593,-1.913 -0.593,-3.129c0,-1.072 0.208,-2.102 0.622,-3.083c0.415,-0.983 1.038,-1.844 1.87,-2.583c0.83,-0.739 1.867,-1.331 3.112,-1.776c1.247,-0.446 2.699,-0.67 4.359,-0.67c0.73,0 1.46,0.062 2.188,0.184c0.73,0.12 1.387,0.271 1.975,0.455c0.588,0.183 1.088,0.38 1.503,0.591c0.415,0.213 0.73,0.401 0.941,0.563c0.215,0.163 0.355,0.304 0.426,0.425l0.153,0.41c0.029,0.153 0.06,0.339 0.091,0.562c0.031,0.222 0.045,0.497 0.045,0.821c0,0.344 -0.014,0.643 -0.045,0.896c-0.031,0.253 -0.082,0.462 -0.151,0.624l-0.26,0.348l-0.333,0.107c-0.183,0 -0.446,-0.113 -0.79,-0.335c-0.346,-0.222 -0.79,-0.46 -1.338,-0.715c-0.546,-0.251 -1.189,-0.49 -1.928,-0.712c-0.74,-0.224 -1.585,-0.335 -2.537,-0.335c-0.852,0 -1.6,0.097 -2.248,0.288c-0.649,0.193 -1.181,0.466 -1.596,0.823c-0.415,0.353 -0.728,0.771 -0.941,1.259c-0.213,0.486 -0.318,1.014 -0.318,1.58c0,0.79 0.202,1.452 0.608,1.989c0.404,0.537 0.93,1.009 1.579,1.413c0.648,0.406 1.385,0.77 2.217,1.094c0.832,0.324 1.675,0.657 2.537,1.002c0.861,0.344 1.711,0.728 2.552,1.154c0.839,0.426 1.584,0.941 2.232,1.549c0.648,0.608 1.17,1.336 1.565,2.188c0.395,0.85 0.591,1.864 0.591,3.038Z" style="fill:#fff;fill-rule:nonzero;"/><path d="M549.223,469.209l-4.284,0c-1.378,0 -2.572,0.117 -3.584,0.35c-1.014,0.233 -1.855,0.577 -2.523,1.032c-0.668,0.456 -1.159,1.002 -1.472,1.64c-0.315,0.638 -0.472,1.372 -0.472,2.204c0,1.418 0.452,2.546 1.353,3.387c0.901,0.841 2.16,1.259 3.782,1.259c1.316,0 2.537,-0.335 3.66,-1.001c1.123,-0.668 2.304,-1.691 3.54,-3.068l0,-5.803Zm4.982,12.488c0,0.242 -0.082,0.424 -0.244,0.544c-0.162,0.122 -0.384,0.217 -0.668,0.275c-0.284,0.06 -0.699,0.091 -1.245,0.091c-0.528,0 -0.948,-0.031 -1.261,-0.091c-0.315,-0.058 -0.543,-0.153 -0.685,-0.275c-0.14,-0.12 -0.211,-0.302 -0.211,-0.544l0,-2.736c-1.196,1.276 -2.526,2.268 -3.995,2.978c-1.469,0.708 -3.023,1.061 -4.663,1.061c-1.44,0 -2.739,-0.186 -3.904,-0.559c-1.165,-0.377 -2.157,-0.917 -2.976,-1.627c-0.821,-0.708 -1.46,-1.58 -1.915,-2.612c-0.457,-1.032 -0.684,-2.208 -0.684,-3.525c0,-1.54 0.315,-2.876 0.943,-4.01c0.626,-1.134 1.529,-2.077 2.703,-2.825c1.174,-0.75 2.613,-1.31 4.313,-1.687c1.702,-0.375 3.615,-0.561 5.743,-0.561l3.767,0l0,-2.125c0,-1.054 -0.113,-1.986 -0.335,-2.796c-0.224,-0.812 -0.582,-1.483 -1.079,-2.02c-0.497,-0.537 -1.139,-0.941 -1.928,-1.216c-0.789,-0.273 -1.763,-0.41 -2.917,-0.41c-1.236,0 -2.344,0.148 -3.327,0.441c-0.983,0.293 -1.842,0.619 -2.581,0.972c-0.741,0.355 -1.358,0.679 -1.853,0.972c-0.499,0.294 -0.866,0.442 -1.108,0.442l-0.426,-0.124l-0.319,-0.364c-0.091,-0.162 -0.158,-0.369 -0.198,-0.622c-0.04,-0.252 -0.06,-0.532 -0.06,-0.836c0,-0.506 0.034,-0.906 0.105,-1.199c0.071,-0.293 0.244,-0.572 0.517,-0.836c0.273,-0.262 0.745,-0.571 1.413,-0.926c0.668,-0.355 1.437,-0.679 2.307,-0.972c0.872,-0.295 1.824,-0.537 2.856,-0.73c1.034,-0.193 2.077,-0.289 3.131,-0.289c1.962,0 3.633,0.224 5.01,0.67c1.378,0.445 2.492,1.097 3.342,1.958c0.852,0.861 1.469,1.929 1.853,3.207c0.384,1.274 0.579,2.763 0.579,4.465l0,18.441Z" style="fill:#fff;fill-rule:nonzero;"/><path d="M577.049,479.658c0,0.59 -0.042,1.054 -0.122,1.398c-0.08,0.344 -0.202,0.597 -0.364,0.761c-0.162,0.162 -0.406,0.313 -0.73,0.455c-0.324,0.142 -0.694,0.258 -1.109,0.351c-0.415,0.089 -0.855,0.166 -1.321,0.228c-0.466,0.062 -0.932,0.089 -1.398,0.089c-1.418,0 -2.632,-0.184 -3.644,-0.561c-1.013,-0.376 -1.843,-0.941 -2.491,-1.701c-0.65,-0.761 -1.12,-1.722 -1.413,-2.887c-0.293,-1.163 -0.44,-2.535 -0.44,-4.117l0,-15.979l-3.828,0c-0.304,0 -0.548,-0.162 -0.73,-0.486c-0.182,-0.322 -0.273,-0.85 -0.273,-1.58c0,-0.384 0.026,-0.708 0.077,-0.971c0.049,-0.263 0.116,-0.481 0.196,-0.652c0.08,-0.173 0.188,-0.293 0.319,-0.366l0.442,-0.105l3.797,0l0,-6.502l0.105,-0.395c0.071,-0.122 0.202,-0.227 0.395,-0.318c0.193,-0.093 0.452,-0.159 0.776,-0.197c0.322,-0.042 0.73,-0.064 1.214,-0.064c0.506,0 0.921,0.022 1.246,0.064c0.323,0.038 0.577,0.104 0.759,0.197c0.182,0.091 0.315,0.196 0.395,0.318l0.122,0.395l0,6.502l7.017,0l0.426,0.105c0.122,0.073 0.227,0.193 0.318,0.366c0.091,0.171 0.157,0.389 0.197,0.652c0.042,0.263 0.062,0.587 0.062,0.971c0,0.73 -0.091,1.258 -0.273,1.58c-0.182,0.324 -0.426,0.486 -0.73,0.486l-7.017,0l0,15.251c0,1.885 0.277,3.307 0.836,4.268c0.557,0.963 1.552,1.443 2.992,1.443c0.466,0 0.881,-0.043 1.245,-0.138c0.364,-0.089 0.688,-0.186 0.972,-0.288c0.284,-0.1 0.526,-0.196 0.73,-0.287c0.2,-0.091 0.384,-0.137 0.546,-0.137l0.289,0.077l0.213,0.287c0.049,0.14 0.095,0.335 0.135,0.575c0.042,0.244 0.062,0.55 0.062,0.912Z" style="fill:#fff;fill-rule:nonzero;"/><path d="M601.29,465.32c0.062,-2.632 -0.526,-4.698 -1.758,-6.196c-1.232,-1.5 -3.059,-2.248 -5.486,-2.248c-1.243,0 -2.333,0.233 -3.27,0.699c-0.938,0.464 -1.722,1.083 -2.354,1.851c-0.631,0.77 -1.121,1.667 -1.467,2.69c-0.345,1.021 -0.538,2.09 -0.58,3.204l14.915,0Zm5.042,1.49c0,0.788 -0.196,1.351 -0.593,1.686c-0.397,0.333 -0.848,0.5 -1.36,0.5l-18.004,0c0,1.52 0.153,2.887 0.457,4.101c0.305,1.218 0.815,2.26 1.527,3.132c0.711,0.87 1.638,1.536 2.777,2.002c1.14,0.468 2.534,0.699 4.183,0.699c1.303,0 2.462,-0.105 3.48,-0.316c1.017,-0.215 1.898,-0.454 2.641,-0.714c0.742,-0.266 1.352,-0.502 1.831,-0.715c0.478,-0.211 0.839,-0.321 1.084,-0.321l0.381,0.11l0.26,0.316c0.06,0.142 0.106,0.339 0.137,0.594c0.029,0.251 0.047,0.56 0.047,0.926c0,0.262 -0.013,0.49 -0.031,0.683c-0.02,0.191 -0.045,0.364 -0.076,0.517l-0.151,0.407l-0.275,0.353c-0.111,0.111 -0.439,0.292 -0.987,0.546c-0.548,0.252 -1.256,0.501 -2.126,0.743c-0.871,0.244 -1.88,0.462 -3.023,0.653c-1.145,0.193 -2.366,0.288 -3.66,0.288c-2.248,0 -4.219,-0.313 -5.91,-0.941c-1.691,-0.628 -3.114,-1.56 -4.268,-2.794c-1.154,-1.236 -2.024,-2.785 -2.612,-4.648c-0.588,-1.864 -0.881,-4.03 -0.881,-6.5c0,-2.35 0.304,-4.463 0.912,-6.336c0.608,-1.872 1.484,-3.461 2.627,-4.768c1.143,-1.307 2.526,-2.31 4.148,-3.007c1.619,-0.699 3.432,-1.05 5.436,-1.05c2.146,0 3.975,0.346 5.484,1.034c1.507,0.689 2.75,1.616 3.72,2.779c0.972,1.165 1.688,2.532 2.143,4.101c0.455,1.568 0.682,3.245 0.682,5.028l0,0.912Z" style="fill:#fff;fill-rule:nonzero;"/><path d="M618.971,481.666l-0.122,0.409c-0.08,0.111 -0.213,0.21 -0.395,0.288c-0.182,0.082 -0.437,0.142 -0.759,0.182c-0.324,0.042 -0.741,0.062 -1.245,0.062c-0.486,0 -0.894,-0.02 -1.216,-0.062c-0.324,-0.04 -0.582,-0.1 -0.775,-0.182c-0.193,-0.078 -0.322,-0.177 -0.393,-0.288l-0.108,-0.409l0,-40.588l0.108,-0.424c0.071,-0.122 0.2,-0.222 0.393,-0.304c0.193,-0.08 0.451,-0.142 0.775,-0.182c0.322,-0.04 0.73,-0.06 1.216,-0.06c0.504,0 0.921,0.02 1.245,0.06c0.322,0.04 0.577,0.102 0.759,0.182c0.182,0.082 0.315,0.182 0.395,0.304l0.122,0.424l0,40.588Z" style="fill:#fff;fill-rule:nonzero;"/><path d="M633.249,481.666l-0.122,0.409c-0.081,0.111 -0.212,0.21 -0.395,0.288c-0.182,0.082 -0.436,0.142 -0.76,0.182c-0.322,0.042 -0.739,0.062 -1.245,0.062c-0.486,0 -0.892,-0.02 -1.216,-0.062c-0.322,-0.04 -0.581,-0.1 -0.774,-0.182c-0.193,-0.078 -0.324,-0.177 -0.395,-0.288l-0.105,-0.409l0,-40.588l0.105,-0.424c0.071,-0.122 0.202,-0.222 0.395,-0.304c0.193,-0.08 0.452,-0.142 0.774,-0.182c0.324,-0.04 0.73,-0.06 1.216,-0.06c0.506,0 0.923,0.02 1.245,0.06c0.324,0.04 0.578,0.102 0.76,0.182c0.183,0.082 0.314,0.182 0.395,0.304l0.122,0.424l0,40.588Z" style="fill:#fff;fill-rule:nonzero;"/><path d="M647.526,481.666l-0.122,0.409c-0.08,0.111 -0.211,0.21 -0.395,0.288c-0.182,0.082 -0.435,0.142 -0.759,0.182c-0.324,0.042 -0.74,0.062 -1.245,0.062c-0.486,0 -0.891,-0.02 -1.215,-0.062c-0.324,-0.04 -0.583,-0.1 -0.774,-0.182c-0.195,-0.078 -0.324,-0.177 -0.395,-0.288l-0.107,-0.409l0,-27.343l0.107,-0.393c0.071,-0.122 0.2,-0.223 0.395,-0.304c0.191,-0.081 0.45,-0.142 0.774,-0.182c0.324,-0.04 0.729,-0.062 1.215,-0.062c0.505,0 0.921,0.022 1.245,0.062c0.324,0.04 0.577,0.101 0.759,0.182c0.184,0.081 0.315,0.182 0.395,0.304l0.122,0.393l0,27.343Zm0.577,-36.578c0,1.175 -0.224,1.974 -0.668,2.402c-0.446,0.424 -1.265,0.637 -2.461,0.637c-1.174,0 -1.978,-0.207 -2.415,-0.624c-0.435,-0.413 -0.653,-1.2 -0.653,-2.354c0,-1.174 0.224,-1.974 0.67,-2.4c0.444,-0.424 1.263,-0.637 2.46,-0.637c1.172,0 1.979,0.207 2.414,0.622c0.437,0.415 0.653,1.2 0.653,2.354Z" style="fill:#fff;fill-rule:nonzero;"/><path d="M671.009,479.658c0,0.59 -0.042,1.054 -0.122,1.398c-0.08,0.344 -0.202,0.597 -0.364,0.761c-0.164,0.162 -0.406,0.313 -0.73,0.455c-0.324,0.142 -0.693,0.258 -1.108,0.351c-0.415,0.089 -0.856,0.166 -1.322,0.228c-0.466,0.062 -0.932,0.089 -1.397,0.089c-1.418,0 -2.632,-0.184 -3.646,-0.561c-1.012,-0.376 -1.842,-0.941 -2.49,-1.701c-0.65,-0.761 -1.121,-1.722 -1.412,-2.887c-0.295,-1.163 -0.441,-2.535 -0.441,-4.117l0,-15.979l-3.829,0c-0.304,0 -0.546,-0.162 -0.728,-0.486c-0.182,-0.322 -0.273,-0.85 -0.273,-1.58c0,-0.384 0.025,-0.708 0.076,-0.971c0.049,-0.263 0.117,-0.481 0.197,-0.652c0.08,-0.173 0.187,-0.293 0.318,-0.366l0.441,-0.105l3.798,0l0,-6.502l0.106,-0.395c0.071,-0.122 0.202,-0.227 0.395,-0.318c0.193,-0.093 0.449,-0.159 0.775,-0.197c0.322,-0.042 0.728,-0.064 1.214,-0.064c0.506,0 0.923,0.022 1.247,0.064c0.322,0.038 0.577,0.104 0.759,0.197c0.182,0.091 0.313,0.196 0.395,0.318l0.12,0.395l0,6.502l7.018,0l0.426,0.105c0.122,0.073 0.228,0.193 0.319,0.366c0.091,0.171 0.156,0.389 0.196,0.652c0.042,0.263 0.062,0.587 0.062,0.971c0,0.73 -0.091,1.258 -0.273,1.58c-0.182,0.324 -0.426,0.486 -0.73,0.486l-7.018,0l0,15.251c0,1.885 0.278,3.307 0.835,4.268c0.559,0.963 1.555,1.443 2.992,1.443c0.466,0 0.883,-0.043 1.247,-0.138c0.364,-0.089 0.688,-0.186 0.972,-0.288c0.284,-0.1 0.526,-0.196 0.73,-0.287c0.2,-0.091 0.384,-0.137 0.546,-0.137l0.289,0.077l0.212,0.287c0.051,0.14 0.096,0.335 0.136,0.575c0.042,0.244 0.062,0.55 0.062,0.912Z" style="fill:#fff;fill-rule:nonzero;"/><path d="M695.251,465.32c0.06,-2.632 -0.526,-4.698 -1.758,-6.196c-1.233,-1.5 -3.062,-2.248 -5.486,-2.248c-1.243,0 -2.334,0.233 -3.271,0.699c-0.937,0.464 -1.722,1.083 -2.353,1.851c-0.632,0.77 -1.121,1.667 -1.467,2.69c-0.348,1.021 -0.539,2.09 -0.581,3.204l14.916,0Zm5.043,1.49c0,0.788 -0.198,1.351 -0.595,1.686c-0.397,0.333 -0.848,0.5 -1.36,0.5l-18.004,0c0,1.52 0.153,2.887 0.457,4.101c0.306,1.218 0.814,2.26 1.527,3.132c0.712,0.87 1.638,1.536 2.777,2.002c1.14,0.468 2.534,0.699 4.183,0.699c1.303,0 2.463,-0.105 3.48,-0.316c1.017,-0.215 1.897,-0.454 2.641,-0.714c0.743,-0.266 1.352,-0.502 1.831,-0.715c0.479,-0.211 0.839,-0.321 1.085,-0.321l0.38,0.11l0.26,0.316c0.061,0.142 0.106,0.339 0.137,0.594c0.029,0.251 0.045,0.56 0.045,0.926c0,0.262 -0.01,0.49 -0.029,0.683c-0.021,0.191 -0.045,0.364 -0.076,0.517l-0.151,0.407l-0.275,0.353c-0.111,0.111 -0.44,0.292 -0.986,0.546c-0.548,0.252 -1.258,0.501 -2.128,0.743c-0.87,0.244 -1.878,0.462 -3.022,0.653c-1.144,0.193 -2.366,0.288 -3.662,0.288c-2.246,0 -4.217,-0.313 -5.908,-0.941c-1.69,-0.628 -3.114,-1.56 -4.268,-2.794c-1.154,-1.236 -2.025,-2.785 -2.611,-4.648c-0.588,-1.864 -0.881,-4.03 -0.881,-6.5c0,-2.35 0.304,-4.463 0.911,-6.336c0.607,-1.872 1.484,-3.461 2.627,-4.768c1.143,-1.307 2.526,-2.31 4.146,-3.007c1.62,-0.699 3.435,-1.05 5.438,-1.05c2.146,0 3.976,0.346 5.484,1.034c1.507,0.689 2.749,1.616 3.721,2.779c0.972,1.165 1.687,2.532 2.142,4.101c0.457,1.568 0.684,3.245 0.684,5.028l0,0.912Z" style="fill:#fff;fill-rule:nonzero;"/><path d="M736.201,479.658c0,0.59 -0.042,1.054 -0.122,1.398c-0.08,0.344 -0.202,0.597 -0.364,0.761c-0.164,0.162 -0.406,0.313 -0.73,0.455c-0.324,0.142 -0.693,0.258 -1.108,0.351c-0.415,0.089 -0.856,0.166 -1.322,0.228c-0.466,0.062 -0.932,0.089 -1.398,0.089c-1.417,0 -2.631,-0.184 -3.645,-0.561c-1.014,-0.376 -1.842,-0.941 -2.49,-1.701c-0.65,-0.761 -1.119,-1.722 -1.412,-2.887c-0.295,-1.163 -0.443,-2.535 -0.443,-4.117l0,-15.979l-3.827,0c-0.302,0 -0.546,-0.162 -0.728,-0.486c-0.182,-0.322 -0.273,-0.85 -0.273,-1.58c0,-0.384 0.025,-0.708 0.076,-0.971c0.049,-0.263 0.117,-0.481 0.197,-0.652c0.08,-0.173 0.187,-0.293 0.318,-0.366l0.441,-0.105l3.796,0l0,-6.502l0.108,-0.395c0.071,-0.122 0.202,-0.227 0.395,-0.318c0.193,-0.093 0.449,-0.159 0.775,-0.197c0.322,-0.042 0.728,-0.064 1.214,-0.064c0.506,0 0.921,0.022 1.247,0.064c0.322,0.038 0.577,0.104 0.759,0.197c0.182,0.091 0.313,0.196 0.395,0.318l0.12,0.395l0,6.502l7.018,0l0.426,0.105c0.122,0.073 0.228,0.193 0.319,0.366c0.091,0.171 0.156,0.389 0.196,0.652c0.042,0.263 0.062,0.587 0.062,0.971c0,0.73 -0.091,1.258 -0.273,1.58c-0.182,0.324 -0.426,0.486 -0.73,0.486l-7.018,0l0,15.251c0,1.885 0.278,3.307 0.835,4.268c0.557,0.963 1.555,1.443 2.992,1.443c0.468,0 0.883,-0.043 1.247,-0.138c0.364,-0.089 0.688,-0.186 0.972,-0.288c0.284,-0.1 0.526,-0.196 0.728,-0.287c0.202,-0.091 0.384,-0.137 0.548,-0.137l0.288,0.077l0.213,0.287c0.049,0.14 0.096,0.335 0.136,0.575c0.042,0.244 0.062,0.55 0.062,0.912Z" style="fill:#fff;fill-rule:nonzero;"/><path d="M762.447,468.024c0,-1.478 -0.137,-2.875 -0.414,-4.191c-0.276,-1.318 -0.729,-2.47 -1.365,-3.464c-0.633,-0.992 -1.49,-1.778 -2.573,-2.353c-1.085,-0.579 -2.434,-0.867 -4.046,-0.867c-1.493,0 -2.774,0.264 -3.848,0.79c-1.072,0.526 -1.957,1.271 -2.652,2.232c-0.693,0.962 -1.21,2.102 -1.547,3.418c-0.338,1.317 -0.506,2.755 -0.506,4.313c0,1.5 0.138,2.907 0.415,4.225c0.275,1.314 0.735,2.464 1.378,3.445c0.644,0.983 1.507,1.764 2.59,2.339c1.083,0.579 2.433,0.868 4.046,0.868c1.472,0 2.75,-0.266 3.833,-0.792c1.083,-0.526 1.971,-1.264 2.667,-2.213c0.693,-0.955 1.204,-2.089 1.532,-3.405c0.328,-1.316 0.49,-2.765 0.49,-4.345Zm5.194,-0.335c0,2.23 -0.293,4.279 -0.879,6.152c-0.59,1.873 -1.463,3.489 -2.628,4.845c-1.165,1.358 -2.625,2.416 -4.376,3.175c-1.751,0.762 -3.782,1.139 -6.09,1.139c-2.247,0 -4.208,-0.331 -5.879,-1.001c-1.67,-0.67 -3.063,-1.642 -4.177,-2.918c-1.114,-1.274 -1.943,-2.824 -2.49,-4.646c-0.547,-1.824 -0.82,-3.888 -0.82,-6.198c0,-2.228 0.289,-4.279 0.866,-6.152c0.577,-1.873 1.447,-3.489 2.612,-4.845c1.165,-1.356 2.617,-2.41 4.359,-3.159c1.742,-0.748 3.777,-1.125 6.106,-1.125c2.248,0 4.208,0.335 5.879,1.003c1.671,0.668 3.063,1.641 4.177,2.917c1.112,1.276 1.948,2.825 2.505,4.649c0.559,1.822 0.835,3.877 0.835,6.164Z" style="fill:#fff;fill-rule:nonzero;"/><path d="M813.027,454.263c0,0.142 -0.02,0.314 -0.06,0.517c-0.042,0.202 -0.111,0.455 -0.213,0.758l-8.05,25.975c-0.06,0.222 -0.157,0.406 -0.288,0.546c-0.133,0.142 -0.315,0.253 -0.548,0.335c-0.233,0.08 -0.551,0.136 -0.957,0.166c-0.406,0.03 -0.912,0.047 -1.518,0.047c-0.628,0 -1.154,-0.02 -1.58,-0.062c-0.426,-0.04 -0.764,-0.1 -1.017,-0.182c-0.255,-0.078 -0.441,-0.193 -0.563,-0.335c-0.122,-0.14 -0.213,-0.313 -0.273,-0.515l-5.742,-19.837l-0.06,-0.275l-0.062,0.275l-5.315,19.837c-0.062,0.222 -0.158,0.406 -0.289,0.546c-0.133,0.142 -0.33,0.253 -0.592,0.335c-0.264,0.08 -0.604,0.136 -1.017,0.166c-0.415,0.03 -0.928,0.047 -1.536,0.047c-0.626,0 -1.138,-0.02 -1.533,-0.062c-0.395,-0.04 -0.719,-0.1 -0.974,-0.182c-0.253,-0.078 -0.438,-0.193 -0.56,-0.335c-0.122,-0.14 -0.213,-0.313 -0.275,-0.515l-7.988,-25.975c-0.102,-0.303 -0.171,-0.556 -0.213,-0.758c-0.04,-0.203 -0.06,-0.375 -0.06,-0.517c0,-0.182 0.04,-0.328 0.122,-0.441c0.08,-0.109 0.216,-0.202 0.409,-0.273c0.193,-0.071 0.45,-0.116 0.776,-0.138c0.322,-0.018 0.717,-0.029 1.184,-0.029c0.566,0 1.021,0.016 1.365,0.045c0.344,0.031 0.608,0.082 0.792,0.151c0.182,0.071 0.313,0.173 0.393,0.304c0.08,0.133 0.153,0.29 0.213,0.472l6.593,22.541l0.06,0.275l0.062,-0.275l6.044,-22.541c0.042,-0.182 0.107,-0.339 0.198,-0.472c0.092,-0.131 0.228,-0.233 0.41,-0.304c0.182,-0.069 0.43,-0.12 0.744,-0.151c0.313,-0.029 0.725,-0.045 1.231,-0.045c0.486,0 0.884,0.016 1.199,0.045c0.315,0.031 0.563,0.082 0.745,0.151c0.182,0.071 0.315,0.168 0.395,0.29l0.183,0.426l6.531,22.601l0.06,0.275l0.031,-0.275l6.499,-22.541c0.042,-0.182 0.108,-0.339 0.199,-0.472c0.091,-0.131 0.233,-0.233 0.426,-0.304c0.193,-0.069 0.455,-0.12 0.79,-0.151c0.333,-0.029 0.762,-0.045 1.29,-0.045c0.486,0 0.876,0.011 1.17,0.029c0.293,0.022 0.526,0.073 0.699,0.153c0.17,0.08 0.292,0.173 0.364,0.275c0.071,0.101 0.106,0.242 0.106,0.424Z" style="fill:#fff;fill-rule:nonzero;"/><path d="M842.798,481.666l-0.122,0.409c-0.08,0.111 -0.213,0.21 -0.395,0.288c-0.182,0.082 -0.437,0.142 -0.759,0.182c-0.324,0.042 -0.73,0.062 -1.216,0.062c-0.506,0 -0.922,-0.02 -1.244,-0.062c-0.324,-0.04 -0.577,-0.1 -0.759,-0.182c-0.182,-0.078 -0.315,-0.177 -0.395,-0.288l-0.122,-0.409l0,-16.011c0,-1.558 -0.122,-2.816 -0.364,-3.766c-0.244,-0.954 -0.597,-1.773 -1.063,-2.463c-0.468,-0.688 -1.071,-1.214 -1.808,-1.578c-0.74,-0.364 -1.596,-0.548 -2.568,-0.548c-1.256,0 -2.51,0.446 -3.766,1.338c-1.257,0.89 -2.571,2.197 -3.949,3.919l0,19.109l-0.122,0.409c-0.082,0.111 -0.213,0.21 -0.395,0.288c-0.182,0.082 -0.437,0.142 -0.759,0.182c-0.324,0.042 -0.741,0.062 -1.245,0.062c-0.488,0 -0.894,-0.02 -1.216,-0.062c-0.324,-0.04 -0.582,-0.1 -0.775,-0.182c-0.193,-0.078 -0.324,-0.177 -0.395,-0.288l-0.106,-0.409l0,-27.343l0.091,-0.41c0.06,-0.111 0.182,-0.211 0.364,-0.302c0.182,-0.093 0.415,-0.153 0.699,-0.184c0.284,-0.029 0.657,-0.045 1.125,-0.045c0.444,0 0.815,0.016 1.108,0.045c0.294,0.031 0.521,0.091 0.683,0.184l0.349,0.302l0.108,0.41l0,3.616c1.538,-1.722 3.072,-2.983 4.601,-3.782c1.529,-0.801 3.072,-1.201 4.632,-1.201c1.824,0 3.358,0.309 4.603,0.926c1.247,0.619 2.253,1.444 3.023,2.477c0.77,1.032 1.322,2.243 1.657,3.631c0.333,1.386 0.5,3.053 0.5,4.997l0,16.679Z" style="fill:#fff;fill-rule:nonzero;"/></g></svg>