<?xml version="1.0" encoding="UTF-8" standalone="no"?><!DOCTYPE svg PUBLIC "-//W3C//DTD SVG 1.1//EN" "http://www.w3.org/Graphics/SVG/1.1/DTD/svg11.dtd"><svg width="100%" height="100%" viewBox="0 0 1200 744" version="1.1" xmlns="http://www.w3.org/2000/svg" xmlns:xlink="http://www.w3.org/1999/xlink" xml:space="preserve" xmlns:serif="http://www.serif.com/" style="fill-rule:evenodd;clip-rule:evenodd;stroke-linejoin:round;stroke-miterlimit:2;"><rect id="logo-ruporno" x="0" y="0" width="1200" height="744" style="fill:none;"/><g><g><path d="M501.69,410.315l-0.246,0.244l-0.341,0.093l-0.468,-0.174c-0.165,-0.119 -0.37,-0.244 -0.62,-0.38c-0.244,-0.135 -0.541,-0.26 -0.893,-0.376c-0.349,-0.117 -0.783,-0.179 -1.295,-0.179c-0.668,0 -1.262,0.124 -1.774,0.368c-0.512,0.239 -0.941,0.584 -1.282,1.031c-0.338,0.45 -0.598,0.996 -0.774,1.638c-0.178,0.646 -0.268,1.365 -0.268,2.167c0,0.829 0.093,1.57 0.282,2.216c0.186,0.649 0.45,1.196 0.798,1.638c0.345,0.44 0.76,0.779 1.257,1.005c0.495,0.227 1.044,0.343 1.649,0.343c0.591,0 1.071,-0.07 1.455,-0.215c0.381,-0.146 0.7,-0.302 0.952,-0.469c0.251,-0.169 0.46,-0.325 0.627,-0.468l0.521,-0.22c0.22,0 0.394,0.086 0.515,0.253l0.784,1.007c-0.327,0.404 -0.692,0.741 -1.099,1.02c-0.407,0.281 -0.835,0.51 -1.293,0.688c-0.455,0.178 -0.934,0.306 -1.431,0.387c-0.501,0.088 -1.007,0.128 -1.519,0.128c-0.886,0 -1.715,-0.159 -2.482,-0.488c-0.77,-0.328 -1.434,-0.803 -2.001,-1.427c-0.565,-0.625 -1.007,-1.39 -1.336,-2.302c-0.324,-0.908 -0.489,-1.939 -0.489,-3.096c0,-1.053 0.148,-2.029 0.442,-2.921c0.293,-0.895 0.726,-1.667 1.302,-2.315c0.572,-0.651 1.279,-1.155 2.115,-1.524c0.84,-0.367 1.8,-0.552 2.882,-0.552c1.018,0 1.913,0.163 2.687,0.486c0.771,0.33 1.462,0.789 2.069,1.387l-0.726,1.007Z" style="fill:#fff;fill-rule:nonzero;"/><path d="M510.917,419.936c1.343,0 2.346,-0.453 3.01,-1.359c0.657,-0.901 0.989,-2.174 0.989,-3.816c0,-1.638 -0.332,-2.916 -0.989,-3.824c-0.664,-0.91 -1.667,-1.363 -3.01,-1.363c-1.361,0 -2.376,0.453 -3.04,1.363c-0.667,0.908 -1.003,2.186 -1.003,3.824c0,1.642 0.336,2.915 1.003,3.816c0.664,0.906 1.679,1.359 3.04,1.359Zm0,-12.501c1.044,0 1.988,0.169 2.83,0.508c0.848,0.341 1.565,0.833 2.154,1.471c0.594,0.637 1.049,1.407 1.368,2.304c0.314,0.901 0.472,1.908 0.472,3.029c0,1.122 -0.158,2.131 -0.472,3.037c-0.319,0.903 -0.774,1.673 -1.368,2.308c-0.589,0.633 -1.306,1.117 -2.154,1.46c-0.842,0.338 -1.786,0.508 -2.83,0.508c-1.055,0 -2,-0.17 -2.847,-0.508c-0.844,-0.343 -1.563,-0.827 -2.157,-1.46c-0.598,-0.635 -1.059,-1.405 -1.38,-2.308c-0.321,-0.906 -0.482,-1.915 -0.482,-3.037c0,-1.121 0.161,-2.128 0.482,-3.029c0.321,-0.897 0.782,-1.667 1.38,-2.304c0.594,-0.638 1.313,-1.13 2.157,-1.471c0.847,-0.339 1.792,-0.508 2.847,-0.508Z" style="fill:#fff;fill-rule:nonzero;"/><path d="M532.595,407.655l0,14.211l-1.638,0c-0.374,0 -0.616,-0.182 -0.728,-0.547l-0.196,-1.427c-0.305,0.327 -0.626,0.624 -0.965,0.899c-0.336,0.268 -0.695,0.499 -1.077,0.688c-0.381,0.191 -0.787,0.343 -1.214,0.449c-0.431,0.107 -0.892,0.165 -1.387,0.165c-0.783,0 -1.471,-0.135 -2.062,-0.394c-0.594,-0.264 -1.088,-0.629 -1.489,-1.099c-0.402,-0.473 -0.705,-1.036 -0.91,-1.697c-0.206,-0.662 -0.308,-1.396 -0.308,-2.195l0,-9.053l2.742,0l0,9.053c0,1.012 0.231,1.805 0.699,2.368c0.464,0.565 1.178,0.847 2.141,0.847c0.695,0 1.353,-0.167 1.957,-0.497c0.607,-0.334 1.174,-0.787 1.706,-1.363l0,-10.408l2.729,0Z" style="fill:#fff;fill-rule:nonzero;"/><path d="M538.968,409.629c0.312,-0.327 0.633,-0.624 0.967,-0.892c0.335,-0.271 0.693,-0.504 1.069,-0.695c0.378,-0.191 0.785,-0.341 1.218,-0.449c0.433,-0.105 0.899,-0.158 1.389,-0.158c0.785,0 1.473,0.128 2.067,0.391c0.589,0.26 1.086,0.627 1.488,1.098c0.4,0.468 0.704,1.035 0.908,1.699c0.207,0.662 0.308,1.394 0.308,2.194l0,9.049l-2.742,0l0,-9.049c0,-1.016 -0.233,-1.805 -0.701,-2.368c-0.462,-0.567 -1.176,-0.848 -2.137,-0.848c-0.699,0 -1.354,0.165 -1.965,0.497c-0.611,0.329 -1.174,0.78 -1.698,1.347l0,10.421l-2.728,0l0,-14.211l1.636,0c0.382,0 0.622,0.185 0.712,0.545l0.209,1.429Z" style="fill:#fff;fill-rule:nonzero;"/><path d="M556.31,422.093c-1.143,0 -2.029,-0.328 -2.649,-0.968c-0.618,-0.646 -0.93,-1.561 -0.93,-2.757l0,-8.501l-1.649,0l-0.398,-0.145l-0.161,-0.44l0,-1.106l2.307,-0.323l0.615,-4.237l0.216,-0.371l0.413,-0.134l1.385,0l0,4.77l4.026,0l0,1.986l-4.026,0l0,8.321c0,0.561 0.136,0.978 0.411,1.251c0.275,0.277 0.627,0.411 1.058,0.411c0.248,0 0.468,-0.028 0.648,-0.094l0.468,-0.218l0.339,-0.216l0.248,-0.098l0.218,0.059l0.161,0.207l0.813,1.314c-0.451,0.409 -0.98,0.728 -1.594,0.948c-0.618,0.226 -1.257,0.341 -1.919,0.341Z" style="fill:#fff;fill-rule:nonzero;"/><path d="M571.319,413.18c0,-0.539 -0.079,-1.038 -0.233,-1.495c-0.154,-0.46 -0.378,-0.853 -0.679,-1.19c-0.297,-0.334 -0.662,-0.595 -1.089,-0.78c-0.43,-0.189 -0.925,-0.279 -1.481,-0.279c-1.148,0 -2.049,0.33 -2.709,0.989c-0.655,0.662 -1.075,1.581 -1.253,2.755l7.444,0Zm2.249,6.657c-0.334,0.393 -0.723,0.73 -1.161,1.013c-0.437,0.284 -0.905,0.517 -1.4,0.695c-0.49,0.178 -1.003,0.306 -1.528,0.387c-0.528,0.088 -1.049,0.128 -1.561,0.128c-0.981,0 -1.884,-0.163 -2.717,-0.495c-0.838,-0.332 -1.561,-0.816 -2.168,-1.455c-0.611,-0.638 -1.091,-1.429 -1.427,-2.377c-0.343,-0.943 -0.512,-2.031 -0.512,-3.265c0,-0.987 0.152,-1.908 0.464,-2.763c0.308,-0.856 0.747,-1.594 1.321,-2.23c0.574,-0.635 1.273,-1.132 2.104,-1.495c0.829,-0.365 1.761,-0.545 2.794,-0.545c0.869,0 1.667,0.141 2.401,0.424c0.73,0.284 1.363,0.7 1.895,1.238c0.528,0.543 0.95,1.207 1.251,2.001c0.304,0.791 0.453,1.695 0.453,2.713c0,0.422 -0.044,0.701 -0.141,0.848c-0.092,0.141 -0.261,0.216 -0.514,0.216l-9.315,0c0.028,0.849 0.149,1.585 0.363,2.214c0.215,0.631 0.512,1.154 0.89,1.574c0.376,0.422 0.827,0.73 1.35,0.936c0.521,0.209 1.101,0.31 1.748,0.31c0.602,0 1.13,-0.072 1.574,-0.211c0.439,-0.14 0.822,-0.29 1.143,-0.455c0.323,-0.162 0.594,-0.314 0.811,-0.453c0.22,-0.14 0.414,-0.213 0.583,-0.213c0.224,0 0.396,0.086 0.517,0.253l0.782,1.007Z" style="fill:#fff;fill-rule:nonzero;"/><path d="M579.289,410.386c0.457,-0.935 1.007,-1.665 1.649,-2.197c0.644,-0.534 1.415,-0.796 2.321,-0.796c0.306,0 0.6,0.033 0.873,0.101c0.277,0.073 0.515,0.179 0.721,0.319l-0.182,2.054c-0.064,0.25 -0.218,0.376 -0.46,0.376c-0.13,0 -0.327,-0.025 -0.587,-0.075c-0.264,-0.051 -0.543,-0.077 -0.84,-0.077c-0.437,0 -0.826,0.064 -1.16,0.187c-0.335,0.125 -0.636,0.314 -0.902,0.56c-0.266,0.249 -0.503,0.55 -0.708,0.913c-0.204,0.358 -0.395,0.763 -0.574,1.22l0,8.895l-2.726,0l0,-14.211l1.566,0c0.301,0 0.503,0.055 0.609,0.165c0.107,0.105 0.182,0.292 0.23,0.563l0.17,2.003Z" style="fill:#fff;fill-rule:nonzero;"/><path d="M594.379,415.559c-1.11,0.039 -2.053,0.125 -2.827,0.257c-0.772,0.136 -1.405,0.319 -1.888,0.538c-0.484,0.227 -0.834,0.489 -1.049,0.794c-0.213,0.299 -0.321,0.638 -0.321,1.014c0,0.351 0.059,0.657 0.174,0.914c0.116,0.257 0.277,0.466 0.479,0.629c0.198,0.163 0.433,0.284 0.703,0.358c0.273,0.075 0.568,0.11 0.88,0.11c0.42,0 0.807,-0.041 1.154,-0.123c0.352,-0.086 0.679,-0.206 0.987,-0.358c0.308,-0.154 0.6,-0.341 0.882,-0.567c0.279,-0.222 0.556,-0.48 0.826,-0.768l0,-2.798Zm-8,-5.914c0.791,-0.757 1.653,-1.319 2.581,-1.695c0.926,-0.374 1.946,-0.557 3.056,-0.557c0.809,0 1.526,0.134 2.15,0.396c0.624,0.266 1.154,0.638 1.581,1.113c0.431,0.474 0.756,1.044 0.974,1.708c0.217,0.662 0.327,1.391 0.327,2.194l0,9.062l-1.215,0c-0.271,0 -0.475,-0.044 -0.614,-0.132c-0.141,-0.09 -0.253,-0.255 -0.338,-0.497l-0.295,-1.244c-0.363,0.332 -0.721,0.631 -1.075,0.886c-0.354,0.255 -0.723,0.475 -1.113,0.66c-0.386,0.18 -0.798,0.316 -1.235,0.411c-0.442,0.092 -0.926,0.143 -1.456,0.143c-0.56,0 -1.086,-0.08 -1.574,-0.236c-0.488,-0.151 -0.914,-0.387 -1.279,-0.705c-0.363,-0.319 -0.649,-0.713 -0.862,-1.188c-0.207,-0.474 -0.312,-1.031 -0.312,-1.664c0,-0.558 0.149,-1.099 0.453,-1.616c0.303,-0.519 0.8,-0.98 1.482,-1.391c0.685,-0.409 1.58,-0.748 2.686,-1.007c1.104,-0.26 2.462,-0.411 4.078,-0.447l0,-1.035c0,-1.071 -0.231,-1.873 -0.688,-2.407c-0.457,-0.53 -1.125,-0.796 -2.014,-0.796c-0.593,0 -1.095,0.074 -1.501,0.224c-0.407,0.149 -0.757,0.316 -1.049,0.497c-0.295,0.18 -0.55,0.347 -0.772,0.497c-0.217,0.149 -0.444,0.224 -0.677,0.224l-0.479,-0.154l-0.332,-0.365l-0.488,-0.879Z" style="fill:#fff;fill-rule:nonzero;"/><path d="M610.67,410.315l-0.244,0.244l-0.343,0.093l-0.468,-0.174c-0.163,-0.119 -0.367,-0.244 -0.618,-0.38c-0.246,-0.135 -0.541,-0.26 -0.895,-0.376c-0.347,-0.117 -0.78,-0.179 -1.292,-0.179c-0.671,0 -1.264,0.124 -1.777,0.368c-0.51,0.239 -0.938,0.584 -1.279,1.031c-0.339,0.45 -0.598,0.996 -0.776,1.638c-0.176,0.646 -0.266,1.365 -0.266,2.167c0,0.829 0.092,1.57 0.281,2.216c0.187,0.649 0.451,1.196 0.798,1.638c0.345,0.44 0.761,0.779 1.258,1.005c0.494,0.227 1.044,0.343 1.649,0.343c0.589,0 1.07,-0.07 1.453,-0.215c0.382,-0.146 0.701,-0.302 0.954,-0.469c0.251,-0.169 0.459,-0.325 0.627,-0.468l0.518,-0.22c0.222,0 0.398,0.086 0.517,0.253l0.785,1.007c-0.328,0.404 -0.693,0.741 -1.099,1.02c-0.407,0.281 -0.838,0.51 -1.295,0.688c-0.453,0.178 -0.93,0.306 -1.429,0.387c-0.502,0.088 -1.007,0.128 -1.519,0.128c-0.886,0 -1.715,-0.159 -2.483,-0.488c-0.769,-0.328 -1.435,-0.803 -2,-1.427c-0.565,-0.625 -1.007,-1.39 -1.337,-2.302c-0.323,-0.908 -0.488,-1.939 -0.488,-3.096c0,-1.053 0.147,-2.029 0.442,-2.921c0.292,-0.895 0.725,-1.667 1.299,-2.315c0.574,-0.651 1.28,-1.155 2.117,-1.524c0.84,-0.367 1.801,-0.552 2.883,-0.552c1.018,0 1.912,0.163 2.686,0.486c0.772,0.33 1.462,0.789 2.069,1.387l-0.728,1.007Z" style="fill:#fff;fill-rule:nonzero;"/><path d="M628.179,403.183c0,0.249 -0.05,0.493 -0.154,0.719c-0.105,0.231 -0.241,0.429 -0.413,0.602c-0.174,0.172 -0.374,0.306 -0.607,0.405c-0.235,0.097 -0.479,0.15 -0.727,0.15c-0.253,0 -0.493,-0.053 -0.715,-0.15c-0.224,-0.099 -0.422,-0.233 -0.594,-0.405c-0.173,-0.173 -0.31,-0.371 -0.406,-0.602c-0.099,-0.226 -0.148,-0.47 -0.148,-0.719c0,-0.264 0.049,-0.508 0.148,-0.741c0.096,-0.235 0.233,-0.437 0.406,-0.611c0.172,-0.169 0.37,-0.308 0.594,-0.404c0.222,-0.099 0.462,-0.146 0.715,-0.146c0.248,0 0.492,0.047 0.727,0.146c0.233,0.096 0.433,0.235 0.607,0.404c0.172,0.174 0.308,0.376 0.413,0.611c0.104,0.233 0.154,0.477 0.154,0.741Zm-0.618,18.683l-2.739,0l0,-11.999l-7.132,0l0,8.321c0,0.561 0.136,0.978 0.411,1.251c0.275,0.277 0.627,0.411 1.058,0.411c0.25,0 0.468,-0.028 0.648,-0.094l0.469,-0.218l0.336,-0.216l0.251,-0.098l0.217,0.059l0.163,0.207l0.811,1.314c-0.45,0.409 -0.98,0.728 -1.594,0.948c-0.617,0.226 -1.257,0.341 -1.919,0.341c-1.145,0 -2.027,-0.328 -2.649,-0.968c-0.618,-0.646 -0.928,-1.561 -0.928,-2.757l0,-8.501l-1.649,0l-0.402,-0.145l-0.158,-0.44l0,-1.106l2.321,-0.323l0.6,-4.237l0.216,-0.371l0.413,-0.134l1.385,0l0,4.77l9.871,0l0,13.985Z" style="fill:#fff;fill-rule:nonzero;"/><path d="M634.078,409.629c0.308,-0.327 0.629,-0.624 0.967,-0.892c0.334,-0.271 0.691,-0.504 1.069,-0.695c0.38,-0.191 0.782,-0.341 1.215,-0.449c0.434,-0.105 0.9,-0.158 1.394,-0.158c0.781,0 1.471,0.128 2.063,0.391c0.589,0.26 1.088,0.627 1.486,1.098c0.404,0.468 0.705,1.035 0.91,1.699c0.204,0.662 0.31,1.394 0.31,2.194l0,9.049l-2.742,0l0,-9.049c0,-1.016 -0.235,-1.805 -0.699,-2.368c-0.468,-0.567 -1.183,-0.848 -2.141,-0.848c-0.699,0 -1.352,0.165 -1.963,0.497c-0.612,0.329 -1.179,0.78 -1.7,1.347l0,10.421l-2.728,0l0,-14.211l1.638,0c0.382,0 0.617,0.185 0.714,0.545l0.207,1.429Z" style="fill:#fff;fill-rule:nonzero;"/><path d="M652.161,414.776c0.486,0 0.912,-0.068 1.281,-0.196c0.368,-0.129 0.675,-0.314 0.922,-0.554c0.248,-0.235 0.433,-0.521 0.558,-0.859c0.128,-0.335 0.189,-0.704 0.189,-1.104c0,-0.822 -0.248,-1.475 -0.747,-1.965c-0.499,-0.489 -1.234,-0.735 -2.203,-0.735c-0.961,0 -1.691,0.246 -2.19,0.735c-0.497,0.49 -0.745,1.143 -0.745,1.965c0,0.4 0.059,0.765 0.187,1.095c0.125,0.334 0.314,0.618 0.558,0.855c0.246,0.238 0.558,0.422 0.923,0.561c0.37,0.134 0.792,0.202 1.267,0.202Zm4.351,7.831c0,-0.334 -0.093,-0.605 -0.282,-0.802c-0.187,-0.203 -0.44,-0.363 -0.761,-0.48c-0.321,-0.116 -0.696,-0.198 -1.127,-0.248c-0.427,-0.053 -0.878,-0.092 -1.348,-0.119c-0.471,-0.028 -0.952,-0.055 -1.447,-0.079c-0.497,-0.024 -0.971,-0.068 -1.429,-0.134c-0.483,0.244 -0.884,0.539 -1.194,0.882c-0.314,0.345 -0.468,0.751 -0.468,1.22c0,0.294 0.075,0.576 0.229,0.835c0.154,0.264 0.393,0.488 0.714,0.679c0.321,0.192 0.728,0.341 1.218,0.447c0.488,0.11 1.073,0.16 1.755,0.16c0.67,0 1.264,-0.057 1.776,-0.173c0.512,-0.115 0.943,-0.28 1.295,-0.486c0.347,-0.214 0.613,-0.462 0.794,-0.75c0.182,-0.29 0.275,-0.609 0.275,-0.952Zm2.767,-14.418l0,1.02c0,0.334 -0.208,0.546 -0.628,0.629l-1.526,0.224c0.13,0.291 0.233,0.596 0.308,0.915c0.074,0.323 0.112,0.659 0.112,1.016c0,0.699 -0.132,1.33 -0.407,1.893c-0.268,0.565 -0.642,1.048 -1.117,1.448c-0.477,0.403 -1.04,0.71 -1.699,0.924c-0.658,0.213 -1.376,0.323 -2.161,0.323c-0.642,0 -1.242,-0.07 -1.803,-0.213c-0.279,0.167 -0.49,0.351 -0.638,0.554c-0.145,0.202 -0.215,0.4 -0.215,0.595c0,0.326 0.136,0.568 0.413,0.726c0.273,0.16 0.631,0.275 1.075,0.341c0.444,0.072 0.952,0.116 1.526,0.134c0.574,0.02 1.154,0.05 1.748,0.092c0.591,0.04 1.176,0.115 1.748,0.224c0.573,0.108 1.079,0.277 1.523,0.517c0.444,0.24 0.803,0.563 1.075,0.981c0.277,0.411 0.414,0.952 0.414,1.613c0,0.614 -0.15,1.214 -0.455,1.79c-0.304,0.576 -0.744,1.093 -1.322,1.539c-0.576,0.448 -1.279,0.807 -2.108,1.075c-0.829,0.27 -1.772,0.409 -2.827,0.409c-1.051,0 -1.97,-0.103 -2.749,-0.308c-0.778,-0.207 -1.424,-0.484 -1.943,-0.827c-0.519,-0.345 -0.906,-0.745 -1.161,-1.202c-0.257,-0.457 -0.387,-0.932 -0.387,-1.427c0,-0.69 0.218,-1.273 0.647,-1.754c0.426,-0.482 1.022,-0.856 1.774,-1.128c-0.409,-0.185 -0.737,-0.44 -0.979,-0.761c-0.241,-0.321 -0.36,-0.747 -0.36,-1.282c0,-0.202 0.037,-0.415 0.11,-0.635c0.072,-0.215 0.189,-0.435 0.343,-0.657c0.154,-0.218 0.345,-0.425 0.574,-0.623c0.228,-0.193 0.492,-0.371 0.789,-0.529c-0.702,-0.392 -1.251,-0.911 -1.651,-1.559c-0.398,-0.649 -0.6,-1.405 -0.6,-2.273c0,-0.699 0.134,-1.328 0.406,-1.889c0.268,-0.561 0.644,-1.038 1.124,-1.442c0.481,-0.398 1.055,-0.706 1.719,-0.921c0.668,-0.214 1.398,-0.321 2.19,-0.321c1.233,0 2.291,0.257 3.174,0.769l3.944,0Z" style="fill:#fff;fill-rule:nonzero;"/><path d="M675.08,411.463c0.765,0 1.438,-0.095 2.023,-0.279c0.582,-0.189 1.07,-0.451 1.46,-0.794c0.393,-0.339 0.686,-0.743 0.881,-1.214c0.198,-0.472 0.293,-0.989 0.293,-1.561c0,-1.156 -0.379,-2.029 -1.139,-2.616c-0.759,-0.587 -1.9,-0.879 -3.419,-0.879l-2.81,0l0,7.343l2.711,0Zm9.372,10.403l-2.658,0c-0.529,0 -0.919,-0.209 -1.163,-0.629l-4.964,-6.965c-0.156,-0.23 -0.332,-0.4 -0.514,-0.496c-0.187,-0.097 -0.469,-0.15 -0.84,-0.15l-1.944,0l0,8.24l-2.981,0l0,-20.083l5.791,0c1.299,0 2.414,0.134 3.351,0.4c0.934,0.266 1.708,0.642 2.321,1.134c0.611,0.486 1.062,1.078 1.355,1.768c0.294,0.69 0.441,1.464 0.441,2.322c0,0.699 -0.107,1.354 -0.321,1.969c-0.215,0.616 -0.529,1.168 -0.943,1.658c-0.415,0.49 -0.921,0.912 -1.519,1.266c-0.598,0.354 -1.275,0.625 -2.029,0.812c0.374,0.222 0.697,0.536 0.967,0.936l5.65,7.818Z" style="fill:#fff;fill-rule:nonzero;"/><path d="M697.709,407.655l0,14.211l-1.637,0c-0.372,0 -0.616,-0.182 -0.73,-0.547l-0.192,-1.427c-0.31,0.327 -0.628,0.624 -0.967,0.899c-0.334,0.268 -0.692,0.499 -1.077,0.688c-0.381,0.191 -0.787,0.343 -1.214,0.449c-0.431,0.107 -0.892,0.165 -1.387,0.165c-0.783,0 -1.473,-0.135 -2.062,-0.394c-0.596,-0.264 -1.089,-0.629 -1.489,-1.099c-0.402,-0.473 -0.705,-1.036 -0.91,-1.697c-0.207,-0.662 -0.308,-1.396 -0.308,-2.195l0,-9.053l2.742,0l0,9.053c0,1.012 0.231,1.805 0.699,2.368c0.464,0.565 1.178,0.847 2.141,0.847c0.697,0 1.352,-0.167 1.957,-0.497c0.607,-0.334 1.174,-0.787 1.706,-1.363l0,-10.408l2.728,0Z" style="fill:#fff;fill-rule:nonzero;"/><path d="M709.902,410.104l-0.235,0.26l-0.321,0.079l-0.499,-0.154c-0.18,-0.106 -0.398,-0.216 -0.655,-0.339c-0.255,-0.119 -0.561,-0.231 -0.906,-0.334c-0.345,-0.103 -0.754,-0.154 -1.229,-0.154c-0.391,0 -0.747,0.049 -1.068,0.147c-0.323,0.099 -0.594,0.231 -0.82,0.407c-0.22,0.169 -0.394,0.374 -0.519,0.614c-0.119,0.235 -0.18,0.492 -0.18,0.762c0,0.354 0.105,0.647 0.314,0.88c0.211,0.231 0.486,0.433 0.827,0.6c0.34,0.169 0.725,0.321 1.16,0.453c0.434,0.138 0.878,0.281 1.328,0.429c0.453,0.149 0.895,0.321 1.328,0.512c0.433,0.191 0.822,0.429 1.161,0.712c0.341,0.284 0.613,0.627 0.827,1.029c0.209,0.4 0.314,0.891 0.314,1.469c0,0.661 -0.121,1.273 -0.356,1.835c-0.238,0.568 -0.587,1.054 -1.051,1.465c-0.462,0.411 -1.031,0.732 -1.71,0.965c-0.684,0.231 -1.462,0.352 -2.335,0.352c-0.981,0 -1.887,-0.165 -2.715,-0.493c-0.829,-0.325 -1.524,-0.743 -2.082,-1.242l0.642,-1.053l0.279,-0.301l0.448,-0.101l0.546,0.193c0.184,0.13 0.408,0.273 0.668,0.429c0.264,0.151 0.58,0.292 0.952,0.417c0.374,0.128 0.842,0.19 1.4,0.19c0.466,0 0.871,-0.058 1.216,-0.174c0.345,-0.117 0.631,-0.277 0.86,-0.475c0.228,-0.202 0.4,-0.433 0.51,-0.693c0.112,-0.263 0.171,-0.536 0.171,-0.826c0,-0.372 -0.108,-0.684 -0.319,-0.93c-0.208,-0.244 -0.483,-0.46 -0.822,-0.638c-0.341,-0.173 -0.732,-0.327 -1.167,-0.461c-0.44,-0.13 -0.888,-0.269 -1.346,-0.418c-0.455,-0.15 -0.901,-0.323 -1.341,-0.517c-0.437,-0.195 -0.826,-0.444 -1.169,-0.741c-0.337,-0.299 -0.614,-0.664 -0.823,-1.092c-0.211,-0.427 -0.316,-0.948 -0.316,-1.566c0,-0.552 0.116,-1.077 0.345,-1.578c0.229,-0.506 0.558,-0.946 0.994,-1.33c0.433,-0.383 0.969,-0.688 1.607,-0.917c0.637,-0.229 1.365,-0.341 2.187,-0.341c0.939,0 1.794,0.15 2.551,0.446c0.762,0.297 1.411,0.711 1.954,1.227l-0.605,0.996Z" style="fill:#fff;fill-rule:nonzero;"/><path d="M722.056,410.104l-0.238,0.26l-0.321,0.079l-0.496,-0.154c-0.183,-0.106 -0.403,-0.216 -0.658,-0.339c-0.257,-0.119 -0.556,-0.231 -0.901,-0.334c-0.345,-0.103 -0.754,-0.154 -1.229,-0.154c-0.394,0 -0.752,0.049 -1.073,0.147c-0.321,0.099 -0.594,0.231 -0.816,0.407c-0.224,0.169 -0.4,0.374 -0.519,0.614c-0.123,0.235 -0.18,0.492 -0.18,0.762c0,0.354 0.101,0.647 0.315,0.88c0.206,0.231 0.483,0.433 0.824,0.6c0.339,0.169 0.728,0.321 1.163,0.453c0.433,0.138 0.873,0.281 1.328,0.429c0.451,0.149 0.893,0.321 1.328,0.512c0.433,0.191 0.818,0.429 1.158,0.712c0.339,0.284 0.616,0.627 0.825,1.029c0.211,0.4 0.316,0.891 0.316,1.469c0,0.661 -0.118,1.273 -0.358,1.835c-0.24,0.568 -0.587,1.054 -1.049,1.465c-0.459,0.411 -1.033,0.732 -1.712,0.965c-0.68,0.231 -1.458,0.352 -2.335,0.352c-0.981,0 -1.882,-0.165 -2.711,-0.493c-0.833,-0.325 -1.528,-0.743 -2.086,-1.242l0.644,-1.053l0.281,-0.301l0.447,-0.101l0.543,0.193c0.187,0.13 0.409,0.273 0.672,0.429c0.26,0.151 0.576,0.292 0.95,0.417c0.376,0.128 0.84,0.19 1.398,0.19c0.469,0 0.871,-0.058 1.216,-0.174c0.345,-0.117 0.631,-0.277 0.86,-0.475c0.231,-0.202 0.4,-0.433 0.512,-0.693c0.114,-0.263 0.167,-0.536 0.167,-0.826c0,-0.372 -0.103,-0.684 -0.312,-0.93c-0.211,-0.244 -0.486,-0.46 -0.827,-0.638c-0.34,-0.173 -0.732,-0.327 -1.167,-0.461c-0.438,-0.13 -0.884,-0.269 -1.343,-0.418c-0.458,-0.15 -0.904,-0.323 -1.341,-0.517c-0.44,-0.195 -0.829,-0.444 -1.168,-0.741c-0.341,-0.299 -0.618,-0.664 -0.826,-1.092c-0.209,-0.427 -0.315,-0.948 -0.315,-1.566c0,-0.552 0.112,-1.077 0.343,-1.578c0.229,-0.506 0.559,-0.946 0.994,-1.33c0.433,-0.383 0.967,-0.688 1.607,-0.917c0.638,-0.229 1.37,-0.341 2.19,-0.341c0.941,0 1.791,0.15 2.552,0.446c0.759,0.297 1.409,0.711 1.95,1.227l-0.602,0.996Z" style="fill:#fff;fill-rule:nonzero;"/><path d="M728.684,407.655l0,14.211l-2.728,0l0,-14.211l2.728,0Zm0.519,-4.39c0,0.255 -0.055,0.492 -0.158,0.721c-0.101,0.228 -0.238,0.431 -0.409,0.6c-0.174,0.174 -0.376,0.31 -0.611,0.407c-0.233,0.098 -0.475,0.147 -0.728,0.147c-0.248,0 -0.488,-0.049 -0.708,-0.147c-0.226,-0.097 -0.424,-0.233 -0.596,-0.407c-0.173,-0.169 -0.31,-0.372 -0.406,-0.6c-0.099,-0.229 -0.145,-0.466 -0.145,-0.721c0,-0.26 0.046,-0.504 0.145,-0.735c0.096,-0.226 0.233,-0.426 0.406,-0.6c0.172,-0.169 0.37,-0.308 0.596,-0.407c0.22,-0.096 0.46,-0.145 0.708,-0.145c0.253,0 0.495,0.049 0.728,0.145c0.235,0.099 0.437,0.238 0.611,0.407c0.171,0.174 0.308,0.374 0.409,0.6c0.103,0.231 0.158,0.475 0.158,0.735Z" style="fill:#fff;fill-rule:nonzero;"/><path d="M740.279,415.559c-1.11,0.039 -2.053,0.125 -2.827,0.257c-0.772,0.136 -1.403,0.319 -1.889,0.538c-0.485,0.227 -0.833,0.489 -1.048,0.794c-0.216,0.299 -0.321,0.638 -0.321,1.014c0,0.351 0.059,0.657 0.176,0.914c0.114,0.257 0.275,0.466 0.477,0.629c0.198,0.163 0.433,0.284 0.703,0.358c0.273,0.075 0.565,0.11 0.882,0.11c0.418,0 0.805,-0.041 1.152,-0.123c0.352,-0.086 0.681,-0.206 0.987,-0.358c0.308,-0.154 0.602,-0.341 0.882,-0.567c0.279,-0.222 0.556,-0.48 0.826,-0.768l0,-2.798Zm-8,-5.914c0.791,-0.757 1.653,-1.319 2.581,-1.695c0.926,-0.374 1.946,-0.557 3.056,-0.557c0.809,0 1.526,0.134 2.15,0.396c0.627,0.266 1.154,0.638 1.583,1.113c0.429,0.474 0.754,1.044 0.972,1.708c0.22,0.662 0.327,1.391 0.327,2.194l0,9.062l-1.215,0c-0.269,0 -0.475,-0.044 -0.614,-0.132c-0.141,-0.09 -0.253,-0.255 -0.338,-0.497l-0.295,-1.244c-0.361,0.332 -0.719,0.631 -1.075,0.886c-0.354,0.255 -0.723,0.475 -1.113,0.66c-0.387,0.18 -0.8,0.316 -1.235,0.411c-0.442,0.092 -0.926,0.143 -1.456,0.143c-0.558,0 -1.086,-0.08 -1.574,-0.236c-0.488,-0.151 -0.914,-0.387 -1.279,-0.705c-0.363,-0.319 -0.649,-0.713 -0.86,-1.188c-0.209,-0.474 -0.314,-1.031 -0.314,-1.664c0,-0.558 0.149,-1.099 0.453,-1.616c0.303,-0.519 0.8,-0.98 1.481,-1.391c0.686,-0.409 1.581,-0.748 2.689,-1.007c1.102,-0.26 2.46,-0.411 4.076,-0.447l0,-1.035c0,-1.071 -0.228,-1.873 -0.686,-2.407c-0.457,-0.53 -1.127,-0.796 -2.013,-0.796c-0.596,0 -1.098,0.074 -1.504,0.224c-0.407,0.149 -0.754,0.316 -1.049,0.497c-0.292,0.18 -0.55,0.347 -0.772,0.497c-0.217,0.149 -0.444,0.224 -0.675,0.224l-0.481,-0.154l-0.332,-0.365l-0.488,-0.879Z" style="fill:#fff;fill-rule:nonzero;"/><path d="M749.172,409.629c0.308,-0.327 0.629,-0.624 0.968,-0.892c0.334,-0.271 0.688,-0.504 1.068,-0.695c0.378,-0.191 0.781,-0.341 1.214,-0.449c0.435,-0.105 0.899,-0.158 1.394,-0.158c0.782,0 1.473,0.128 2.062,0.391c0.591,0.26 1.09,0.627 1.49,1.098c0.403,0.468 0.702,1.035 0.908,1.699c0.203,0.662 0.31,1.394 0.31,2.194l0,9.049l-2.741,0l0,-9.049c0,-1.016 -0.235,-1.805 -0.702,-2.368c-0.468,-0.567 -1.18,-0.848 -2.139,-0.848c-0.701,0 -1.354,0.165 -1.963,0.497c-0.611,0.329 -1.178,0.78 -1.702,1.347l0,10.421l-2.728,0l0,-14.211l1.64,0c0.383,0 0.618,0.185 0.712,0.545l0.209,1.429Z" style="fill:#fff;fill-rule:nonzero;"/><path d="M772.052,418.368c0.447,0.59 0.928,0.998 1.447,1.231c0.516,0.234 1.095,0.35 1.741,0.35c1.247,0 2.216,-0.448 2.9,-1.348c0.686,-0.899 1.027,-2.211 1.027,-3.935c0,-0.906 -0.075,-1.677 -0.229,-2.315c-0.154,-0.64 -0.378,-1.161 -0.673,-1.568c-0.292,-0.406 -0.655,-0.703 -1.081,-0.894c-0.431,-0.192 -0.915,-0.288 -1.456,-0.288c-0.791,0 -1.482,0.178 -2.062,0.529c-0.585,0.354 -1.124,0.862 -1.614,1.513l0,6.725Zm-0.14,-8.585c0.296,-0.356 0.617,-0.679 0.956,-0.972c0.341,-0.294 0.706,-0.543 1.099,-0.756c0.389,-0.209 0.809,-0.371 1.249,-0.488c0.444,-0.114 0.919,-0.174 1.42,-0.174c0.814,0 1.548,0.156 2.203,0.475c0.66,0.319 1.218,0.781 1.686,1.401c0.464,0.613 0.827,1.372 1.082,2.275c0.257,0.906 0.387,1.944 0.387,3.122c0,1.051 -0.143,2.027 -0.427,2.928c-0.283,0.897 -0.69,1.682 -1.215,2.342c-0.53,0.664 -1.172,1.18 -1.933,1.556c-0.758,0.381 -1.616,0.568 -2.563,0.568c-0.851,0 -1.579,-0.139 -2.183,-0.418c-0.607,-0.277 -1.146,-0.671 -1.621,-1.176l0,6.169l-2.728,0l0,-18.98l1.636,0c0.38,0 0.62,0.185 0.712,0.545l0.24,1.583Z" style="fill:#fff;fill-rule:nonzero;"/><path d="M787.631,410.386c0.453,-0.935 1.005,-1.665 1.649,-2.197c0.642,-0.534 1.418,-0.796 2.321,-0.796c0.308,0 0.598,0.033 0.875,0.101c0.273,0.073 0.515,0.179 0.719,0.319l-0.18,2.054c-0.068,0.25 -0.222,0.376 -0.464,0.376c-0.13,0 -0.325,-0.025 -0.589,-0.075c-0.257,-0.051 -0.539,-0.077 -0.835,-0.077c-0.44,0 -0.827,0.064 -1.161,0.187c-0.339,0.125 -0.638,0.314 -0.904,0.56c-0.264,0.249 -0.499,0.55 -0.703,0.913c-0.209,0.358 -0.401,0.763 -0.574,1.22l0,8.895l-2.729,0l0,-14.211l1.568,0c0.297,0 0.499,0.055 0.607,0.165c0.105,0.105 0.184,0.292 0.228,0.563l0.172,2.003Z" style="fill:#fff;fill-rule:nonzero;"/><path d="M800.831,419.936c1.341,0 2.343,-0.453 3.007,-1.359c0.66,-0.901 0.99,-2.174 0.99,-3.816c0,-1.638 -0.33,-2.916 -0.99,-3.824c-0.664,-0.91 -1.666,-1.363 -3.007,-1.363c-1.363,0 -2.377,0.453 -3.043,1.363c-0.666,0.908 -1,2.186 -1,3.824c0,1.642 0.334,2.915 1,3.816c0.666,0.906 1.68,1.359 3.043,1.359Zm0,-12.501c1.044,0 1.985,0.169 2.829,0.508c0.847,0.341 1.563,0.833 2.155,1.471c0.593,0.637 1.048,1.407 1.365,2.304c0.314,0.901 0.475,1.908 0.475,3.029c0,1.122 -0.161,2.131 -0.475,3.037c-0.317,0.903 -0.772,1.673 -1.365,2.308c-0.592,0.633 -1.308,1.117 -2.155,1.46c-0.844,0.338 -1.785,0.508 -2.829,0.508c-1.056,0 -2.003,-0.17 -2.847,-0.508c-0.845,-0.343 -1.566,-0.827 -2.159,-1.46c-0.598,-0.635 -1.058,-1.405 -1.379,-2.308c-0.321,-0.906 -0.481,-1.915 -0.481,-3.037c0,-1.121 0.16,-2.128 0.481,-3.029c0.321,-0.897 0.781,-1.667 1.379,-2.304c0.593,-0.638 1.314,-1.13 2.159,-1.471c0.844,-0.339 1.791,-0.508 2.847,-0.508Z" style="fill:#fff;fill-rule:nonzero;"/><path d="M813.415,418.368c0.446,0.59 0.932,0.998 1.447,1.231c0.519,0.234 1.099,0.35 1.741,0.35c1.251,0 2.216,-0.448 2.902,-1.348c0.688,-0.899 1.029,-2.211 1.029,-3.935c0,-0.906 -0.079,-1.677 -0.233,-2.315c-0.154,-0.64 -0.374,-1.161 -0.669,-1.568c-0.294,-0.406 -0.657,-0.703 -1.086,-0.894c-0.426,-0.192 -0.91,-0.288 -1.453,-0.288c-0.793,0 -1.479,0.178 -2.062,0.529c-0.583,0.354 -1.121,0.862 -1.616,1.513l0,6.725Zm-0.141,-8.585c0.302,-0.356 0.618,-0.679 0.961,-0.972c0.339,-0.294 0.706,-0.543 1.095,-0.756c0.391,-0.209 0.809,-0.371 1.253,-0.488c0.444,-0.114 0.915,-0.174 1.42,-0.174c0.809,0 1.544,0.156 2.203,0.475c0.655,0.319 1.218,0.781 1.682,1.401c0.468,0.613 0.831,1.372 1.086,2.275c0.257,0.906 0.383,1.944 0.383,3.122c0,1.051 -0.139,2.027 -0.427,2.928c-0.283,0.897 -0.69,1.682 -1.216,2.342c-0.525,0.664 -1.171,1.18 -1.928,1.556c-0.763,0.381 -1.616,0.568 -2.568,0.568c-0.846,0 -1.574,-0.139 -2.183,-0.418c-0.602,-0.277 -1.145,-0.671 -1.62,-1.176l0,6.169l-2.728,0l0,-18.98l1.64,0c0.38,0 0.618,0.185 0.712,0.545l0.235,1.583Z" style="fill:#fff;fill-rule:nonzero;"/><path d="M834.057,415.559c-1.11,0.039 -2.051,0.125 -2.827,0.257c-0.772,0.136 -1.403,0.319 -1.889,0.538c-0.484,0.227 -0.833,0.489 -1.046,0.794c-0.216,0.299 -0.321,0.638 -0.321,1.014c0,0.351 0.057,0.657 0.173,0.914c0.117,0.257 0.277,0.466 0.48,0.629c0.195,0.163 0.43,0.284 0.701,0.358c0.273,0.075 0.567,0.11 0.881,0.11c0.42,0 0.807,-0.041 1.155,-0.123c0.351,-0.086 0.679,-0.206 0.985,-0.358c0.31,-0.154 0.602,-0.341 0.881,-0.567c0.282,-0.222 0.556,-0.48 0.827,-0.768l0,-2.798Zm-7.998,-5.914c0.791,-0.757 1.651,-1.319 2.579,-1.695c0.925,-0.374 1.947,-0.557 3.058,-0.557c0.809,0 1.523,0.134 2.15,0.396c0.624,0.266 1.154,0.638 1.581,1.113c0.43,0.474 0.754,1.044 0.974,1.708c0.217,0.662 0.327,1.391 0.327,2.194l0,9.062l-1.216,0c-0.27,0 -0.475,-0.044 -0.615,-0.132c-0.139,-0.09 -0.253,-0.255 -0.339,-0.497l-0.292,-1.244c-0.363,0.332 -0.721,0.631 -1.075,0.886c-0.356,0.255 -0.724,0.475 -1.115,0.66c-0.385,0.18 -0.798,0.316 -1.236,0.411c-0.439,0.092 -0.923,0.143 -1.453,0.143c-0.56,0 -1.086,-0.08 -1.574,-0.236c-0.488,-0.151 -0.917,-0.387 -1.282,-0.705c-0.36,-0.319 -0.646,-0.713 -0.859,-1.188c-0.209,-0.474 -0.315,-1.031 -0.315,-1.664c0,-0.558 0.152,-1.099 0.455,-1.616c0.304,-0.519 0.799,-0.98 1.482,-1.391c0.686,-0.409 1.581,-0.748 2.687,-1.007c1.101,-0.26 2.46,-0.411 4.076,-0.447l0,-1.035c0,-1.071 -0.229,-1.873 -0.686,-2.407c-0.457,-0.53 -1.126,-0.796 -2.014,-0.796c-0.593,0 -1.097,0.074 -1.501,0.224c-0.407,0.149 -0.757,0.316 -1.049,0.497c-0.295,0.18 -0.55,0.347 -0.772,0.497c-0.22,0.149 -0.444,0.224 -0.677,0.224l-0.481,-0.154l-0.33,-0.365l-0.488,-0.879Z" style="fill:#fff;fill-rule:nonzero;"/><path d="M845.386,414.776c0.484,0 0.912,-0.068 1.277,-0.196c0.37,-0.129 0.675,-0.314 0.926,-0.554c0.244,-0.235 0.433,-0.521 0.558,-0.859c0.123,-0.335 0.187,-0.704 0.187,-1.104c0,-0.822 -0.248,-1.475 -0.745,-1.965c-0.499,-0.489 -1.234,-0.735 -2.203,-0.735c-0.963,0 -1.691,0.246 -2.188,0.735c-0.499,0.49 -0.749,1.143 -0.749,1.965c0,0.4 0.063,0.765 0.189,1.095c0.125,0.334 0.31,0.618 0.56,0.855c0.244,0.238 0.552,0.422 0.921,0.561c0.368,0.134 0.788,0.202 1.267,0.202Zm4.348,7.831c0,-0.334 -0.094,-0.605 -0.279,-0.802c-0.187,-0.203 -0.439,-0.363 -0.765,-0.48c-0.321,-0.116 -0.697,-0.198 -1.123,-0.248c-0.429,-0.053 -0.882,-0.092 -1.352,-0.119c-0.471,-0.028 -0.952,-0.055 -1.447,-0.079c-0.492,-0.024 -0.969,-0.068 -1.425,-0.134c-0.483,0.244 -0.883,0.539 -1.198,0.882c-0.31,0.345 -0.466,0.751 -0.466,1.22c0,0.294 0.077,0.576 0.231,0.835c0.154,0.264 0.394,0.488 0.715,0.679c0.32,0.192 0.725,0.341 1.215,0.447c0.488,0.11 1.075,0.16 1.755,0.16c0.672,0 1.262,-0.057 1.774,-0.173c0.512,-0.115 0.945,-0.28 1.295,-0.486c0.352,-0.214 0.613,-0.462 0.798,-0.75c0.182,-0.29 0.272,-0.609 0.272,-0.952Zm2.771,-14.418l0,1.02c0,0.334 -0.211,0.546 -0.634,0.629l-1.521,0.224c0.13,0.291 0.231,0.596 0.308,0.915c0.075,0.323 0.112,0.659 0.112,1.016c0,0.699 -0.136,1.33 -0.407,1.893c-0.27,0.565 -0.644,1.048 -1.119,1.448c-0.475,0.403 -1.042,0.71 -1.697,0.924c-0.66,0.213 -1.378,0.323 -2.161,0.323c-0.647,0 -1.247,-0.07 -1.807,-0.213c-0.28,0.167 -0.491,0.351 -0.634,0.554c-0.145,0.202 -0.219,0.4 -0.219,0.595c0,0.326 0.14,0.568 0.413,0.726c0.277,0.16 0.635,0.275 1.079,0.341c0.44,0.072 0.95,0.116 1.522,0.134c0.576,0.02 1.158,0.05 1.75,0.092c0.589,0.04 1.174,0.115 1.748,0.224c0.571,0.108 1.081,0.277 1.525,0.517c0.44,0.24 0.798,0.563 1.075,0.981c0.273,0.411 0.414,0.952 0.414,1.613c0,0.614 -0.154,1.214 -0.453,1.79c-0.306,0.576 -0.745,1.093 -1.321,1.539c-0.583,0.448 -1.284,0.807 -2.115,1.075c-0.829,0.27 -1.772,0.409 -2.823,0.409c-1.056,0 -1.97,-0.103 -2.751,-0.308c-0.778,-0.207 -1.424,-0.484 -1.941,-0.827c-0.519,-0.345 -0.903,-0.745 -1.161,-1.202c-0.259,-0.457 -0.384,-0.932 -0.384,-1.427c0,-0.69 0.213,-1.273 0.642,-1.754c0.428,-0.482 1.02,-0.856 1.778,-1.128c-0.413,-0.185 -0.739,-0.44 -0.98,-0.761c-0.244,-0.321 -0.365,-0.747 -0.365,-1.282c0,-0.202 0.037,-0.415 0.112,-0.635c0.074,-0.215 0.189,-0.435 0.341,-0.657c0.153,-0.218 0.345,-0.425 0.573,-0.623c0.229,-0.193 0.493,-0.371 0.792,-0.529c-0.699,-0.392 -1.249,-0.911 -1.651,-1.559c-0.4,-0.649 -0.6,-1.405 -0.6,-2.273c0,-0.699 0.136,-1.328 0.404,-1.889c0.27,-0.561 0.646,-1.038 1.128,-1.442c0.477,-0.398 1.051,-0.706 1.721,-0.921c0.664,-0.214 1.396,-0.321 2.188,-0.321c1.229,0 2.286,0.257 3.172,0.769l3.947,0Z" style="fill:#fff;fill-rule:nonzero;"/><path d="M862.627,415.559c-1.108,0.039 -2.052,0.125 -2.826,0.257c-0.771,0.136 -1.404,0.319 -1.888,0.538c-0.486,0.227 -0.833,0.489 -1.049,0.794c-0.215,0.299 -0.321,0.638 -0.321,1.014c0,0.351 0.057,0.657 0.174,0.914c0.116,0.257 0.277,0.466 0.479,0.629c0.198,0.163 0.433,0.284 0.704,0.358c0.272,0.075 0.565,0.11 0.879,0.11c0.42,0 0.807,-0.041 1.154,-0.123c0.352,-0.086 0.68,-0.206 0.988,-0.358c0.307,-0.154 0.602,-0.341 0.879,-0.567c0.281,-0.222 0.558,-0.48 0.827,-0.768l0,-2.798Zm-7.999,-5.914c0.792,-0.757 1.651,-1.319 2.581,-1.695c0.924,-0.374 1.946,-0.557 3.056,-0.557c0.809,0 1.526,0.134 2.151,0.396c0.624,0.266 1.154,0.638 1.58,1.113c0.431,0.474 0.754,1.044 0.974,1.708c0.218,0.662 0.328,1.391 0.328,2.194l0,9.062l-1.216,0c-0.27,0 -0.475,-0.044 -0.616,-0.132c-0.138,-0.09 -0.25,-0.255 -0.336,-0.497l-0.295,-1.244c-0.36,0.332 -0.718,0.631 -1.075,0.886c-0.356,0.255 -0.723,0.475 -1.112,0.66c-0.387,0.18 -0.8,0.316 -1.236,0.411c-0.442,0.092 -0.925,0.143 -1.455,0.143c-0.558,0 -1.086,-0.08 -1.574,-0.236c-0.488,-0.151 -0.915,-0.387 -1.28,-0.705c-0.362,-0.319 -0.648,-0.713 -0.862,-1.188c-0.206,-0.474 -0.314,-1.031 -0.314,-1.664c0,-0.558 0.152,-1.099 0.455,-1.616c0.304,-0.519 0.798,-0.98 1.482,-1.391c0.686,-0.409 1.581,-0.748 2.687,-1.007c1.103,-0.26 2.462,-0.411 4.076,-0.447l0,-1.035c0,-1.071 -0.229,-1.873 -0.686,-2.407c-0.458,-0.53 -1.126,-0.796 -2.014,-0.796c-0.594,0 -1.097,0.074 -1.502,0.224c-0.407,0.149 -0.754,0.316 -1.048,0.497c-0.295,0.18 -0.55,0.347 -0.772,0.497c-0.218,0.149 -0.444,0.224 -0.675,0.224l-0.484,-0.154l-0.33,-0.365l-0.488,-0.879Z" style="fill:#fff;fill-rule:nonzero;"/><path d="M871.522,409.629c0.305,-0.327 0.626,-0.624 0.965,-0.892c0.336,-0.271 0.69,-0.504 1.071,-0.695c0.378,-0.191 0.78,-0.341 1.213,-0.449c0.435,-0.105 0.899,-0.158 1.394,-0.158c0.783,0 1.471,0.128 2.062,0.391c0.592,0.26 1.088,0.627 1.489,1.098c0.402,0.468 0.703,1.035 0.908,1.699c0.204,0.662 0.312,1.394 0.312,2.194l0,9.049l-2.742,0l0,-9.049c0,-1.016 -0.237,-1.805 -0.701,-2.368c-0.468,-0.567 -1.181,-0.848 -2.139,-0.848c-0.702,0 -1.355,0.165 -1.966,0.497c-0.609,0.329 -1.176,0.78 -1.699,1.347l0,10.421l-2.729,0l0,-14.211l1.638,0c0.385,0 0.62,0.185 0.715,0.545l0.209,1.429Z" style="fill:#fff;fill-rule:nonzero;"/><path d="M893.771,411.098c-0.447,-0.589 -0.93,-0.996 -1.447,-1.231c-0.519,-0.233 -1.099,-0.35 -1.741,-0.35c-1.249,0 -2.216,0.451 -2.902,1.348c-0.686,0.901 -1.027,2.211 -1.027,3.94c0,0.901 0.075,1.673 0.231,2.312c0.154,0.638 0.376,1.159 0.671,1.568c0.292,0.407 0.655,0.701 1.083,0.893c0.429,0.191 0.913,0.288 1.456,0.288c0.791,0 1.475,-0.179 2.055,-0.53c0.576,-0.354 1.117,-0.853 1.621,-1.5l0,-6.738Zm2.743,-9.874l0,20.642l-1.653,0c-0.382,0 -0.618,-0.182 -0.714,-0.547l-0.236,-1.636c-0.606,0.717 -1.292,1.295 -2.062,1.728c-0.771,0.433 -1.657,0.649 -2.664,0.649c-0.812,0 -1.546,-0.156 -2.203,-0.475c-0.655,-0.317 -1.22,-0.781 -1.684,-1.39c-0.466,-0.611 -0.827,-1.369 -1.08,-2.273c-0.253,-0.906 -0.374,-1.943 -0.374,-3.117c0,-1.054 0.139,-2.034 0.42,-2.94c0.275,-0.901 0.682,-1.686 1.214,-2.348c0.534,-0.664 1.176,-1.183 1.93,-1.556c0.754,-0.381 1.607,-0.568 2.559,-0.568c0.86,0 1.59,0.141 2.19,0.42c0.602,0.277 1.141,0.675 1.614,1.19l0,-7.779l2.743,0Z" style="fill:#fff;fill-rule:nonzero;"/><path d="M907.967,415.559c-1.111,0.039 -2.052,0.125 -2.826,0.257c-0.776,0.136 -1.402,0.319 -1.888,0.538c-0.484,0.227 -0.831,0.489 -1.049,0.794c-0.213,0.299 -0.321,0.638 -0.321,1.014c0,0.351 0.06,0.657 0.174,0.914c0.119,0.257 0.275,0.466 0.477,0.629c0.2,0.163 0.438,0.284 0.706,0.358c0.27,0.075 0.563,0.11 0.879,0.11c0.422,0 0.805,-0.041 1.154,-0.123c0.35,-0.086 0.677,-0.206 0.99,-0.358c0.305,-0.154 0.6,-0.341 0.879,-0.567c0.279,-0.222 0.552,-0.48 0.825,-0.768l0,-2.798Zm-8.001,-5.914c0.792,-0.757 1.651,-1.319 2.581,-1.695c0.928,-0.374 1.946,-0.557 3.056,-0.557c0.811,0 1.53,0.134 2.155,0.396c0.624,0.266 1.149,0.638 1.58,1.113c0.427,0.474 0.75,1.044 0.97,1.708c0.222,0.662 0.33,1.391 0.33,2.194l0,9.062l-1.218,0c-0.271,0 -0.475,-0.044 -0.616,-0.132c-0.138,-0.09 -0.25,-0.255 -0.334,-0.497l-0.292,-1.244c-0.365,0.332 -0.724,0.631 -1.08,0.886c-0.352,0.255 -0.723,0.475 -1.11,0.66c-0.389,0.18 -0.798,0.316 -1.238,0.411c-0.437,0.092 -0.923,0.143 -1.455,0.143c-0.561,0 -1.082,-0.08 -1.574,-0.236c-0.489,-0.151 -0.915,-0.387 -1.278,-0.705c-0.365,-0.319 -0.651,-0.713 -0.859,-1.188c-0.214,-0.474 -0.315,-1.031 -0.315,-1.664c0,-0.558 0.15,-1.099 0.453,-1.616c0.301,-0.519 0.796,-0.98 1.482,-1.391c0.688,-0.409 1.583,-0.748 2.684,-1.007c1.106,-0.26 2.467,-0.411 4.079,-0.447l0,-1.035c0,-1.071 -0.229,-1.873 -0.684,-2.407c-0.46,-0.53 -1.13,-0.796 -2.016,-0.796c-0.596,0 -1.1,0.074 -1.504,0.224c-0.405,0.149 -0.754,0.316 -1.049,0.497c-0.292,0.18 -0.549,0.347 -0.769,0.497c-0.218,0.149 -0.442,0.224 -0.677,0.224l-0.484,-0.154l-0.328,-0.365l-0.49,-0.879Z" style="fill:#fff;fill-rule:nonzero;"/><path d="M511.671,356.625c1.834,0 3.397,-0.228 4.685,-0.697c1.291,-0.464 2.348,-1.108 3.173,-1.932c0.822,-0.827 1.422,-1.788 1.794,-2.893c0.373,-1.102 0.558,-2.296 0.558,-3.571c0,-2.552 -0.831,-4.549 -2.493,-5.984c-1.662,-1.434 -4.234,-2.152 -7.717,-2.152l-5.426,0l0,17.229l5.426,0Zm28.64,30.797l-12.206,0c-2.26,0 -3.885,-0.849 -4.867,-2.552l-9.654,-16.876c-0.451,-0.715 -0.956,-1.242 -1.515,-1.572c-0.558,-0.332 -1.356,-0.499 -2.394,-0.499l-3.43,0l0,21.499l-13.483,0l0,-58.12l18.909,0c4.202,0 7.783,0.431 10.749,1.297c2.963,0.866 5.386,2.067 7.261,3.61c1.874,1.541 3.237,3.364 4.088,5.464c0.853,2.101 1.275,4.39 1.275,6.861c0,1.891 -0.251,3.672 -0.757,5.347c-0.505,1.675 -1.251,3.223 -2.233,4.645c-0.985,1.425 -2.201,2.694 -3.652,3.813c-1.449,1.114 -3.115,2.033 -5.004,2.75c0.877,0.455 1.702,1.018 2.473,1.697c0.77,0.677 1.46,1.48 2.074,2.412l12.366,20.224Z" style="fill:#fff;fill-rule:nonzero;"/><path d="M568.87,376.772c1.809,0 3.425,-0.299 4.848,-0.899c1.422,-0.598 2.627,-1.455 3.61,-2.572c0.985,-1.117 1.734,-2.482 2.253,-4.089c0.519,-1.607 0.778,-3.434 0.778,-5.486l0,-34.424l13.484,0l0,34.424c0,3.566 -0.581,6.836 -1.735,9.815c-1.156,2.976 -2.812,5.544 -4.968,7.699c-2.153,2.152 -4.773,3.827 -7.858,5.023c-3.084,1.199 -6.554,1.797 -10.412,1.797c-3.88,0 -7.365,-0.598 -10.45,-1.797c-3.084,-1.196 -5.703,-2.871 -7.857,-5.023c-2.155,-2.155 -3.803,-4.723 -4.947,-7.699c-1.143,-2.979 -1.717,-6.249 -1.717,-9.815l0,-34.424l13.484,0l0,34.385c0,2.049 0.259,3.876 0.778,5.485c0.519,1.609 1.271,2.979 2.256,4.111c0.98,1.128 2.185,1.992 3.607,2.59c1.425,0.6 3.039,0.899 4.846,0.899Z" style="fill:#fff;fill-rule:nonzero;"/><path d="M624.877,357.823c3.511,0 6.035,-0.837 7.578,-2.512c1.544,-1.678 2.315,-4.013 2.315,-7.023c0,-1.325 -0.2,-2.537 -0.6,-3.627c-0.398,-1.091 -1.002,-2.029 -1.814,-2.812c-0.811,-0.787 -1.833,-1.389 -3.071,-1.816c-1.235,-0.426 -2.706,-0.637 -4.408,-0.637l-7.022,0l0,18.427l7.022,0Zm0,-28.521c4.094,0 7.611,0.484 10.551,1.456c2.939,0.971 5.36,2.308 7.259,4.012c1.902,1.697 3.305,3.709 4.208,6.019c0.906,2.318 1.357,4.817 1.357,7.499c0,2.903 -0.466,5.563 -1.396,7.981c-0.93,2.418 -2.353,4.494 -4.27,6.222c-1.913,1.73 -4.34,3.078 -7.279,4.047c-2.937,0.977 -6.415,1.456 -10.43,1.456l-7.022,0l0,19.428l-13.481,0l0,-58.12l20.503,0Z" style="fill:#fff;fill-rule:nonzero;"/><path d="M698.354,358.345c0,-2.874 -0.376,-5.462 -1.119,-7.761c-0.746,-2.302 -1.816,-4.248 -3.21,-5.842c-1.396,-1.596 -3.105,-2.818 -5.127,-3.673c-2.021,-0.849 -4.32,-1.276 -6.901,-1.276c-2.606,0 -4.925,0.427 -6.961,1.276c-2.033,0.855 -3.748,2.077 -5.144,3.673c-1.396,1.594 -2.467,3.54 -3.212,5.842c-0.743,2.299 -1.115,4.887 -1.115,7.761c0,2.895 0.372,5.496 1.115,7.798c0.745,2.297 1.816,4.245 3.212,5.843c1.396,1.592 3.111,2.812 5.144,3.648c2.036,0.839 4.355,1.255 6.961,1.255c2.581,0 4.88,-0.416 6.901,-1.255c2.022,-0.836 3.731,-2.056 5.127,-3.648c1.394,-1.598 2.464,-3.546 3.21,-5.843c0.743,-2.302 1.119,-4.903 1.119,-7.798Zm13.8,0c0,4.199 -0.724,8.108 -2.172,11.726c-1.451,3.615 -3.492,6.759 -6.123,9.434c-2.634,2.671 -5.807,4.767 -9.515,6.281c-3.712,1.517 -7.827,2.274 -12.347,2.274c-4.52,0 -8.643,-0.757 -12.365,-2.274c-3.724,-1.514 -6.907,-3.61 -9.552,-6.281c-2.647,-2.675 -4.696,-5.819 -6.143,-9.434c-1.451,-3.618 -2.176,-7.527 -2.176,-11.726c0,-4.204 0.725,-8.115 2.176,-11.73c1.447,-3.616 3.496,-6.753 6.143,-9.414c2.645,-2.66 5.828,-4.748 9.552,-6.263c3.722,-1.517 7.845,-2.273 12.365,-2.273c4.52,0 8.635,0.762 12.347,2.295c3.708,1.528 6.881,3.621 9.515,6.281c2.631,2.66 4.672,5.797 6.123,9.412c1.448,3.621 2.172,7.514 2.172,11.692Z" style="fill:#fff;fill-rule:nonzero;"/><path d="M739.002,356.625c1.834,0 3.394,-0.228 4.685,-0.697c1.291,-0.464 2.348,-1.108 3.172,-1.932c0.825,-0.827 1.423,-1.788 1.794,-2.893c0.374,-1.102 0.561,-2.296 0.561,-3.571c0,-2.552 -0.833,-4.549 -2.495,-5.984c-1.662,-1.434 -4.235,-2.152 -7.717,-2.152l-5.426,0l0,17.229l5.426,0Zm28.64,30.797l-12.206,0c-2.26,0 -3.885,-0.849 -4.868,-2.552l-9.653,-16.876c-0.451,-0.715 -0.957,-1.242 -1.515,-1.572c-0.559,-0.332 -1.357,-0.499 -2.394,-0.499l-3.43,0l0,21.499l-13.483,0l0,-58.12l18.909,0c4.201,0 7.783,0.431 10.748,1.297c2.964,0.866 5.385,2.067 7.26,3.61c1.875,1.541 3.238,3.364 4.089,5.464c0.851,2.101 1.278,4.39 1.278,6.861c0,1.891 -0.253,3.672 -0.759,5.347c-0.503,1.675 -1.251,3.223 -2.234,4.645c-0.982,1.425 -2.2,2.694 -3.649,3.813c-1.451,1.114 -3.12,2.033 -5.006,2.75c0.877,0.455 1.701,1.018 2.473,1.697c0.77,0.677 1.462,1.48 2.073,2.412l12.367,20.224Z" style="fill:#fff;fill-rule:nonzero;"/><path d="M823.286,329.302l0,58.12l-7.019,0c-1.038,0 -1.909,-0.167 -2.612,-0.499c-0.706,-0.334 -1.405,-0.91 -2.095,-1.735l-27.405,-34.664c0.106,1.038 0.18,2.041 0.22,3.01c0.042,0.972 0.061,1.886 0.061,2.735l0,31.153l-11.889,0l0,-58.12l7.101,0c0.585,0 1.077,0.027 1.475,0.081c0.398,0.053 0.759,0.152 1.078,0.297c0.318,0.15 0.624,0.354 0.916,0.62c0.293,0.266 0.627,0.622 0.998,1.078l27.642,34.903c-0.132,-1.117 -0.224,-2.201 -0.277,-3.251c-0.052,-1.049 -0.079,-2.041 -0.079,-2.973l0,-30.755l11.885,0Z" style="fill:#fff;fill-rule:nonzero;"/><path d="M877.777,358.345c0,-2.874 -0.374,-5.462 -1.117,-7.761c-0.746,-2.302 -1.816,-4.248 -3.21,-5.842c-1.398,-1.596 -3.107,-2.818 -5.127,-3.673c-2.023,-0.849 -4.322,-1.276 -6.901,-1.276c-2.608,0 -4.927,0.427 -6.961,1.276c-2.036,0.855 -3.748,2.077 -5.146,3.673c-1.396,1.594 -2.467,3.54 -3.21,5.842c-0.746,2.299 -1.117,4.887 -1.117,7.761c0,2.895 0.371,5.496 1.117,7.798c0.743,2.297 1.814,4.245 3.21,5.843c1.398,1.592 3.11,2.812 5.146,3.648c2.034,0.839 4.353,1.255 6.961,1.255c2.579,0 4.878,-0.416 6.901,-1.255c2.02,-0.836 3.729,-2.056 5.127,-3.648c1.394,-1.598 2.464,-3.546 3.21,-5.843c0.743,-2.302 1.117,-4.903 1.117,-7.798Zm13.8,0c0,4.199 -0.724,8.108 -2.173,11.726c-1.451,3.615 -3.489,6.759 -6.122,9.434c-2.634,2.671 -5.804,4.767 -9.516,6.281c-3.708,1.517 -7.824,2.274 -12.344,2.274c-4.523,0 -8.645,-0.757 -12.365,-2.274c-3.724,-1.514 -6.91,-3.61 -9.557,-6.281c-2.644,-2.675 -4.693,-5.819 -6.142,-9.434c-1.449,-3.618 -2.172,-7.527 -2.172,-11.726c0,-4.204 0.723,-8.115 2.172,-11.73c1.449,-3.616 3.498,-6.753 6.142,-9.414c2.647,-2.66 5.833,-4.748 9.557,-6.263c3.72,-1.517 7.842,-2.273 12.365,-2.273c4.52,0 8.636,0.762 12.344,2.295c3.712,1.528 6.882,3.621 9.516,6.281c2.633,2.66 4.671,5.797 6.122,9.412c1.449,3.621 2.173,7.514 2.173,11.692Z" style="fill:#fff;fill-rule:nonzero;"/><path d="M911.363,329.302l0,22.816c0,2.447 -0.145,4.877 -0.439,7.282c-0.293,2.407 -0.678,4.859 -1.157,7.358l-8.376,0c-0.48,-2.499 -0.864,-4.951 -1.157,-7.358c-0.292,-2.405 -0.439,-4.835 -0.439,-7.282l0,-22.816l11.568,0Zm-12.925,51.861c0,-0.961 0.183,-1.849 0.539,-2.676c0.36,-0.824 0.851,-1.543 1.477,-2.154c0.625,-0.611 1.361,-1.097 2.212,-1.458c0.853,-0.358 1.783,-0.539 2.792,-0.539c0.987,0 1.904,0.181 2.755,0.539c0.851,0.361 1.596,0.847 2.231,1.458c0.64,0.611 1.139,1.33 1.497,2.154c0.361,0.827 0.539,1.715 0.539,2.676c0,0.954 -0.178,1.849 -0.539,2.689c-0.358,0.835 -0.857,1.563 -1.497,2.174c-0.635,0.613 -1.38,1.093 -2.231,1.436c-0.851,0.347 -1.768,0.518 -2.755,0.518c-1.009,0 -1.939,-0.171 -2.792,-0.518c-0.851,-0.343 -1.587,-0.823 -2.212,-1.436c-0.626,-0.611 -1.117,-1.339 -1.477,-2.174c-0.356,-0.84 -0.539,-1.735 -0.539,-2.689Z" style="fill:#fff;fill-rule:nonzero;"/></g><path d="M362.375,298.863l0,0l11.516,-6.649l11.516,6.649l2.303,-1.33l20.729,-11.968l0,13.298l0.001,0l11.516,6.649l-11.516,6.648l-0.001,0l0,13.298l-23.032,-13.298l0,13.298l34.549,19.947l23.032,-13.298l0,-13.298l17.274,-9.973l0,139.626l-17.274,-9.974l0,-79.786l-11.516,6.649l0,66.489l-11.516,-6.649l0,-53.191l-11.517,6.649l0,39.893l-11.516,-6.649l0.387,-26.818l-11.903,6.871l0,59.84l-11.516,6.649l-11.516,-6.649l0,-59.84l-11.516,-6.649l0,26.596l-11.516,6.649l0,-39.893l-11.517,-6.649l0,53.191l-11.516,6.648l0,-66.488l-11.516,-6.649l0,79.786l-17.274,9.974l0,-86.435l0,-53.191l17.274,9.973l0,13.298l23.032,13.298l34.549,-19.947l0,-13.298l-2.303,1.33l-20.73,11.968l0,-13.298l0,0l-11.516,-6.648l11.516,-6.649l0,0l0,-13.298l23.033,13.298Zm34.548,59.839l-23.032,-13.297l-23.032,13.297l23.032,13.298l23.032,-13.298Zm23.032,-46.542l5.758,-3.324l5.758,3.324l-5.758,3.325l-5.758,-3.325Zm-92.127,0l-5.759,-3.324l-5.758,3.324l5.758,3.325l5.759,-3.325Zm103.643,-6.648l5.758,-3.325l5.758,3.325l-5.758,3.324l-5.758,-3.324Zm-115.16,0l-5.758,-3.325l-5.758,3.325l5.758,3.324l5.758,-3.324Zm103.645,-6.65l5.758,-3.324l5.758,3.324l-5.758,3.325l-5.758,-3.325Zm-92.129,0l-5.758,-3.324l-5.758,3.324l5.758,3.325l5.758,-3.325Z" style="fill:#fff;"/></g></svg>