<?xml version="1.0" encoding="UTF-8" standalone="no"?>
<!DOCTYPE svg PUBLIC "-//W3C//DTD SVG 1.1//EN" "http://www.w3.org/Graphics/SVG/1.1/DTD/svg11.dtd">
<svg width="100%" height="100%" viewBox="0 0 600 300" version="1.1" xmlns="http://www.w3.org/2000/svg" xmlns:xlink="http://www.w3.org/1999/xlink" xml:space="preserve" xmlns:serif="http://www.serif.com/" style="fill-rule:evenodd;clip-rule:evenodd;stroke-linejoin:round;stroke-miterlimit:2;">
    <g transform="matrix(1,0,0,1,-9100,0)">
        <rect id="logo-t-illumination" x="9100" y="0" width="600" height="300" style="fill:none;"/>
        <g id="logo-t-illumination1" serif:id="logo-t-illumination">
            <g transform="matrix(0.270853,0,0,0.270853,4240.17,-4234.6)">
                <path d="M18566.1,16135.4C18557.4,16131.4 18549.2,16125.7 18542,16118.5L18561.1,16099.4C18583.9,16122.2 18620.9,16122.2 18643.7,16099.4L18662.8,16118.5C18655.6,16125.7 18647.4,16131.4 18638.7,16135.4C18655.4,16147 18666.4,16166.3 18666.4,16188.1C18666.4,16209.9 18655.4,16229.2 18638.7,16240.8C18647.4,16244.9 18655.6,16250.5 18662.8,16257.7L18643.7,16276.8C18620.9,16254 18583.9,16254 18561.1,16276.8L18542,16257.7C18549.2,16250.5 18557.4,16244.9 18566.1,16240.8C18549.4,16229.2 18538.4,16209.9 18538.4,16188.1C18538.4,16166.3 18549.4,16147 18566.1,16135.4ZM18940.1,16231C18927.6,16231 18917.8,16227.6 18910.7,16220.8C18903.7,16214 18900.2,16204.5 18900.2,16192.2L18900.2,16147.1L18927.8,16147.1L18927.8,16191.4C18927.8,16197.4 18928.9,16201.8 18931.1,16204.5C18933.2,16207.2 18936.3,16208.6 18940.4,16208.6C18944.4,16208.6 18947.5,16207.2 18949.7,16204.5C18951.8,16201.8 18952.9,16197.4 18952.9,16191.4L18952.9,16147.1L18980.1,16147.1L18980.1,16192.2C18980.1,16204.5 18976.6,16214 18969.5,16220.8C18962.5,16227.6 18952.7,16231 18940.1,16231ZM19528.2,16231C19519.4,16231 19511.4,16229.2 19504.4,16225.5C19497.4,16221.8 19491.9,16216.7 19487.9,16210.2C19483.9,16203.7 19481.9,16196.3 19481.9,16188.1C19481.9,16179.9 19483.9,16172.6 19487.9,16166C19491.9,16159.5 19497.4,16154.4 19504.4,16150.7C19511.4,16147.1 19519.4,16145.2 19528.2,16145.2C19537,16145.2 19544.9,16147.1 19552,16150.7C19559,16154.4 19564.5,16159.5 19568.5,16166C19572.5,16172.6 19574.5,16179.9 19574.5,16188.1C19574.5,16196.3 19572.5,16203.7 19568.5,16210.2C19564.5,16216.7 19559,16221.8 19552,16225.5C19544.9,16229.2 19537,16231 19528.2,16231ZM18701.3,16147.1L18728.9,16147.1L18728.9,16229.1L18701.3,16229.1L18701.3,16147.1ZM19113.9,16147.1L19141.5,16147.1L19141.5,16229.1L19113.9,16229.1L19113.9,16147.1ZM19439.5,16147.1L19467.2,16147.1L19467.2,16229.1L19439.5,16229.1L19439.5,16147.1ZM18747,16147.1L18774.6,16147.1L18774.6,16207.7L18811.6,16207.7L18811.6,16229.1L18747,16229.1L18747,16147.1ZM18823.9,16147.1L18851.6,16147.1L18851.6,16207.7L18888.6,16207.7L18888.6,16229.1L18823.9,16229.1L18823.9,16147.1ZM19240.4,16147.1L19240.4,16229.1L19217.7,16229.1L19186.5,16191.9L19186.5,16229.1L19159.5,16229.1L19159.5,16147.1L19182.3,16147.1L19213.4,16184.4L19213.4,16147.1L19240.4,16147.1ZM19670,16147.1L19670,16229.1L19647.3,16229.1L19616.2,16191.9L19616.2,16229.1L19589.2,16229.1L19589.2,16147.1L19611.9,16147.1L19643.1,16184.4L19643.1,16147.1L19670,16147.1ZM19298.1,16145.2C19306.1,16145.2 19313.1,16146.8 19319.2,16150C19325.3,16153.1 19330,16157.8 19333.4,16163.8C19336.8,16169.9 19338.5,16177.1 19338.5,16185.4L19338.5,16229.1L19310.9,16229.1L19310.9,16212.6L19284.9,16212.6L19284.9,16229.1L19257.7,16229.1L19257.7,16185.4C19257.7,16177.1 19259.4,16169.9 19262.8,16163.8C19266.2,16157.8 19270.9,16153.1 19277,16150C19283.1,16146.8 19290.2,16145.2 19298.1,16145.2ZM19421.1,16175.8C19414.8,16172.3 19408.4,16169.9 19401.9,16168.6L19401.9,16229.1L19374.3,16229.1L19374.3,16168.6C19367.8,16169.9 19361.4,16172.3 19355.1,16175.8L19345.9,16156.1C19351.8,16152.6 19358.3,16149.9 19365.6,16148.1C19372.9,16146.2 19380.4,16145.2 19388.1,16145.2C19395.8,16145.2 19403.3,16146.2 19410.6,16148.1C19417.8,16149.9 19424.4,16152.6 19430.3,16156.1L19421.1,16175.8ZM18505.8,16175.8C18499.4,16172.3 18493,16169.9 18486.5,16168.6L18486.5,16229.1L18458.9,16229.1L18458.9,16168.6C18452.4,16169.9 18446,16172.3 18439.7,16175.8L18430.6,16156.1C18436.4,16152.6 18443,16149.9 18450.2,16148.1C18457.5,16146.2 18465,16145.2 18472.7,16145.2C18480.5,16145.2 18488,16146.2 18495.2,16148.1C18502.5,16149.9 18509,16152.6 18514.9,16156.1L18505.8,16175.8ZM19070.6,16229.1L19070.4,16191.7L19052.6,16221.7L19040.4,16221.7L19022.6,16193L19022.6,16229.1L18997.4,16229.1L18997.4,16147.1L19020.2,16147.1L19046.9,16190.8L19072.9,16147.1L19095.6,16147.1L19095.8,16229.1L19070.6,16229.1ZM18631.3,16159.2L18641.8,16177.5L18623.5,16188.1L18641.8,16198.7L18631.3,16217L18612.9,16206.4L18612.9,16227.6L18591.8,16227.6L18591.8,16206.4L18573.5,16217L18562.9,16198.7L18581.2,16188.1L18562.9,16177.5L18573.5,16159.2L18591.8,16169.8L18591.8,16148.7L18612.9,16148.7L18612.9,16169.8L18631.3,16159.2ZM19528.2,16208.6C19531.6,16208.6 19534.7,16207.8 19537.5,16206.1C19540.3,16204.4 19542.5,16202 19544.1,16199C19545.8,16195.9 19546.6,16192.3 19546.6,16188.1C19546.6,16184 19545.8,16180.4 19544.1,16177.3C19542.5,16174.2 19540.3,16171.8 19537.5,16170.1C19534.7,16168.5 19531.6,16167.6 19528.2,16167.6C19524.8,16167.6 19521.6,16168.5 19518.9,16170.1C19516.1,16171.8 19513.9,16174.2 19512.3,16177.3C19510.6,16180.4 19509.8,16184 19509.8,16188.1C19509.8,16192.3 19510.6,16195.9 19512.3,16199C19513.9,16202 19516.1,16204.4 19518.9,16206.1C19521.6,16207.8 19524.8,16208.6 19528.2,16208.6ZM19310.9,16191.7L19310.9,16183.1C19310.9,16178 19309.7,16174.2 19307.3,16171.5C19304.9,16168.9 19301.8,16167.6 19297.9,16167.6C19294,16167.6 19290.8,16168.9 19288.5,16171.5C19286.1,16174.2 19284.9,16178 19284.9,16183.1L19284.9,16191.7L19310.9,16191.7Z"/>
            </g>
        </g>
    </g>
</svg>
