<?xml version="1.0" encoding="UTF-8" standalone="no"?><!DOCTYPE svg PUBLIC "-//W3C//DTD SVG 1.1//EN" "http://www.w3.org/Graphics/SVG/1.1/DTD/svg11.dtd"><svg width="100%" height="100%" viewBox="0 0 2160 2160" version="1.1" xmlns="http://www.w3.org/2000/svg" xmlns:xlink="http://www.w3.org/1999/xlink" xml:space="preserve" xmlns:serif="http://www.serif.com/" style="fill-rule:evenodd;clip-rule:evenodd;stroke-linejoin:round;stroke-miterlimit:2;"><rect id="logofolio-pp-9" x="0" y="0" width="2160" height="2160" style="fill:#fff;"/><g id="logofolio-pp-91" serif:id="logofolio-pp-9"><g><path d="M864.023,956.247l-54.514,0l0,183.572c0,3.742 -0.964,6.684 -2.907,8.825c-1.936,2.134 -4.241,3.201 -6.909,3.201c-4.946,0 -8.62,-2.606 -11.028,-7.812c-4.405,-9.625 -11.424,-34.471 -21.042,-74.558c-8.681,-36.474 -17.834,-62.859 -27.452,-79.161c-14.297,-24.449 -33.608,-36.673 -57.921,-36.673c-18.175,-0 -33.068,4.008 -44.69,12.026c-13.497,9.351 -20.242,22.978 -20.242,40.88l-0,196.406l54.11,-0l0,-183.778c0,-3.475 0.664,-6.177 2.005,-8.113c1.334,-1.936 3.673,-3.311 7.012,-4.111c5.075,-0.671 11.69,10.015 19.838,32.063c5.883,16.164 12.765,38.547 20.645,67.142c8.688,31.529 13.559,48.897 14.633,52.106c5.342,15.898 14.427,28.122 27.253,36.673c11.493,7.614 24.449,11.424 38.883,11.424c16.698,0 31.064,-4.74 43.09,-14.229c12.827,-10.151 19.236,-22.978 19.236,-38.479l0,-197.404Z" style="fill-rule:nonzero;"/><path d="M1199.57,1202.95l53.508,-0l0,-192.999l55.315,-0l-0,-51.703l-163.939,0l-0,51.703l55.116,-0l-0,192.999Z" style="fill-rule:nonzero;"/><path d="M1526.44,1179.71c10.822,-14.031 16.24,-31.201 16.24,-51.511c0,-20.441 -5.418,-37.611 -16.24,-51.505c-12.019,-15.501 -28.396,-23.244 -49.096,-23.244l-76.76,-0c-6.143,-0 -10.857,-2.06 -14.127,-6.191c-3.276,-4.112 -4.911,-9.099 -4.911,-14.947c-0,-5.986 1.703,-11.212 5.11,-15.673c3.407,-4.453 8.051,-6.683 13.928,-6.683l130.268,-0l0,-51.703l-139.284,0c-20.714,0 -37.214,7.744 -49.507,23.218c-10.952,13.88 -16.432,30.825 -16.432,50.841c0,20.282 5.48,37.289 16.432,51.039c12.163,15.337 28.663,23.005 49.507,23.005l76.958,0c5.876,0 10.35,2.107 13.429,6.321c3.071,4.207 4.603,9.31 4.603,15.323c0,6.013 -1.6,11.329 -4.809,15.939c-3.201,4.611 -7.613,6.909 -13.223,6.909l-130.871,0l0,52.107l139.689,-0c20.7,-0 37.077,-7.751 49.096,-23.245Z" style="fill-rule:nonzero;"/><path d="M1102.08,991.087c-35.565,-35.565 -87.288,-45.163 -131.726,-29.073l18.689,51.36c18.607,-6.731 39.458,-5.52 57.196,3.783c4.111,2.155 8.058,4.748 11.759,7.771c1.861,1.505 3.66,3.133 5.391,4.857c1.724,1.724 3.338,3.523 4.85,5.377c3.024,3.708 5.609,7.648 7.771,11.759c2.162,4.119 3.892,8.408 5.185,12.793c0.643,2.189 1.191,4.405 1.615,6.642c0.868,4.474 1.299,9.016 1.299,13.545c0,2.271 -0.109,4.542 -0.321,6.8c-1.519,15.822 -8.318,31.228 -20.399,43.322c-1.478,1.478 -3.024,2.825 -4.59,4.146c-6.485,5.438 -13.709,9.501 -21.323,12.258c-1.334,0.493 -2.668,1.006 -4.016,1.403c-4.391,1.299 -8.872,2.161 -13.401,2.592c-4.521,0.438 -9.077,0.438 -13.592,0c-4.529,-0.431 -9.01,-1.293 -13.401,-2.592c-10.952,-3.236 -21.282,-9.167 -29.929,-17.807c-12.08,-12.094 -18.88,-27.5 -20.399,-43.322c-0.212,-2.258 -0.321,-4.529 -0.321,-6.8c-0,-4.529 0.431,-9.071 1.293,-13.545c0.431,-2.237 0.978,-4.453 1.621,-6.642c1.293,-4.385 3.023,-8.674 5.185,-12.793c2.162,-4.111 4.748,-8.051 7.771,-11.759c1.512,-1.854 3.126,-3.653 4.85,-5.377c1.478,-1.47 3.024,-2.832 4.591,-4.145l-35.155,-41.9c-2.778,2.34 -5.514,4.734 -8.127,7.347c-48.966,48.966 -48.966,128.661 -0,177.634c35.565,35.559 87.288,45.163 131.726,29.074c13.497,-4.885 26.303,-12.088 37.781,-21.734c2.778,-2.332 5.514,-4.733 8.127,-7.34c48.966,-48.973 48.966,-128.668 0,-177.634Z" style="fill-rule:nonzero;"/><path d="M999.621,1042.43l-10.583,-29.053c-2.975,1.081 -5.917,2.285 -8.756,3.783c-4.111,2.155 -8.065,4.748 -11.766,7.771l-0.793,0.712l19.954,23.778c3.646,-3.064 7.655,-5.431 11.944,-6.991Z" style="fill-rule:nonzero;"/></g></g></svg>