<?xml version="1.0" encoding="UTF-8" standalone="no"?>
<!DOCTYPE svg PUBLIC "-//W3C//DTD SVG 1.1//EN" "http://www.w3.org/Graphics/SVG/1.1/DTD/svg11.dtd">
<svg width="100%" height="100%" viewBox="0 0 600 300" version="1.1" xmlns="http://www.w3.org/2000/svg" xmlns:xlink="http://www.w3.org/1999/xlink" xml:space="preserve" xmlns:serif="http://www.serif.com/" style="fill-rule:evenodd;clip-rule:evenodd;stroke-linejoin:round;stroke-miterlimit:2;">
    <g transform="matrix(1,0,0,1,-1950,0)">
        <g id="logo-giftbot" transform="matrix(1,0,0,0.5,0,0)">
            <rect x="1950" y="0" width="600" height="600" style="fill:none;"/>
            <g transform="matrix(0.349804,0,0,0.699608,1133.08,-404.866)">
                <g>
                    <g transform="matrix(2.2058,0,0,2.2058,2867.24,897.145)">
                        <path d="M139.737,64.417C135.635,66.78 130.537,67.962 124.444,67.962C117.686,67.962 112.359,66.092 108.462,62.351C104.566,58.611 102.618,53.46 102.618,46.897C102.618,40.296 104.746,34.915 109.004,30.755C113.262,26.595 118.926,24.515 125.996,24.515C130.45,24.515 134.375,25.13 137.774,26.36L137.774,35.237C134.532,33.362 130.567,32.425 125.879,32.425C121.953,32.425 118.755,33.699 116.284,36.248C113.814,38.797 112.578,42.2 112.578,46.458C112.578,50.774 113.687,54.114 115.904,56.477C118.12,58.841 121.114,60.022 124.883,60.022C127.149,60.022 128.946,59.7 130.274,59.056L130.274,50.852L121.866,50.852L121.866,43.294L139.737,43.294L139.737,64.417Z" style="fill-rule:nonzero;"/>
                    </g>
                    <g transform="matrix(2.2058,0,0,2.2058,2867.24,923.573)">
                        <rect x="144.372" y="25.248" width="9.258" height="30"/>
                    </g>
                    <g transform="matrix(2.2058,0,0,2.2058,2867.24,891.844)">
                        <path d="M170.846,39.632L184.815,39.632L184.815,33.158L194.043,30.521L194.043,39.632L200.782,39.632L200.782,46.459L194.043,46.459L194.043,58.587C194.043,61.712 195.284,63.275 197.764,63.275C198.741,63.275 199.746,62.992 200.782,62.425L200.782,69.281C199.414,70.003 197.354,70.365 194.6,70.365C188.076,70.365 184.815,66.976 184.815,60.199L184.815,46.459L170.846,46.459L170.846,69.632L161.618,69.632L161.618,46.459L156.578,46.459L156.578,39.632L161.618,39.632L161.618,35.912C161.618,32.494 162.731,29.74 164.957,27.65C167.184,25.56 170.211,24.515 174.039,24.515C175.914,24.515 177.477,24.711 178.727,25.101L178.727,32.308C177.535,31.839 176.393,31.605 175.299,31.605C172.33,31.605 170.846,33.216 170.846,36.439L170.846,39.632Z" style="fill-rule:nonzero;"/>
                    </g>
                    <g transform="matrix(2.2058,0,0,2.2058,2867.24,897.079)">
                        <path d="M216.02,49.213L216.02,60.287L221.147,60.287C223.334,60.287 225.048,59.779 226.288,58.763C227.529,57.748 228.149,56.361 228.149,54.603C228.149,52.923 227.538,51.605 226.318,50.648C225.097,49.691 223.393,49.213 221.205,49.213L216.02,49.213ZM216.02,32.22L216.02,42.181L220.18,42.181C222.133,42.181 223.671,41.708 224.794,40.76C225.917,39.813 226.479,38.509 226.479,36.849C226.479,33.763 224.174,32.22 219.565,32.22L216.02,32.22ZM206.557,67.259L206.557,25.248L221.85,25.248C226.537,25.248 230.141,26.107 232.66,27.826C235.18,29.545 236.44,31.966 236.44,35.091C236.44,37.357 235.673,39.339 234.14,41.039C232.607,42.738 230.649,43.92 228.266,44.584L228.266,44.701C231.254,45.072 233.642,46.175 235.429,48.011C237.216,49.847 238.11,52.084 238.11,54.72C238.11,58.568 236.733,61.62 233.979,63.876C231.225,66.131 227.465,67.259 222.7,67.259L206.557,67.259Z" style="fill-rule:nonzero;"/>
                    </g>
                    <g transform="matrix(2.2058,0,0,2.2058,2867.24,923.575)">
                        <path d="M256.993,31.605C254.805,31.605 253.106,32.357 251.895,33.861C250.684,35.365 250.078,37.493 250.078,40.247C250.078,46.009 252.403,48.89 257.051,48.89C261.485,48.89 263.701,45.931 263.701,40.013C263.701,34.408 261.465,31.605 256.993,31.605ZM256.758,55.98C251.758,55.98 247.827,54.578 244.966,51.776C242.105,48.973 240.674,45.169 240.674,40.365C240.674,35.404 242.159,31.522 245.127,28.719C248.096,25.916 252.11,24.515 257.168,24.515C262.149,24.515 266.055,25.916 268.887,28.719C271.719,31.522 273.135,35.228 273.135,39.837C273.135,44.818 271.675,48.753 268.755,51.644C265.835,54.534 261.836,55.98 256.758,55.98Z" style="fill-rule:nonzero;"/>
                    </g>
                    <g transform="matrix(2.2058,0,0,2.2058,2867.24,905.092)">
                        <path d="M295.214,63.275C293.847,63.997 291.786,64.359 289.033,64.359C282.509,64.359 279.247,60.97 279.247,54.193L279.247,40.453L274.384,40.453L274.384,33.626L279.247,33.626L279.247,27.152L288.476,24.515L288.476,33.626L295.214,33.626L295.214,40.453L288.476,40.453L288.476,52.581C288.476,55.706 289.716,57.269 292.197,57.269C293.173,57.269 294.179,56.986 295.214,56.419L295.214,63.275Z" style="fill-rule:nonzero;"/>
                    </g>
                    <g transform="matrix(2.2058,0,0,2.2058,2867.24,815.46)">
                        <path d="M152.689,60.665L145.431,60.665C144.879,60.665 144.431,61.112 144.431,61.665L144.431,67.844C144.431,68.397 144.879,68.844 145.431,68.844L152.689,68.844C153.242,68.844 153.689,68.397 153.689,67.844L153.689,61.665C153.689,61.112 153.242,60.665 152.689,60.665Z" style="fill-rule:nonzero;"/>
                    </g>
                </g>
                <g transform="matrix(1,0,0,1,1064.64,407.517)">
                    <g transform="matrix(2.2058,0,0,2.2058,1802.6,549.69)">
                        <path d="M28.079,32.096L28.077,32.094L26.069,34.104C25.739,34.435 25.203,34.435 24.873,34.104L21.858,31.09C21.528,30.76 21.528,30.225 21.857,29.894L34.116,17.621C34.276,17.461 34.163,17.187 33.936,17.187L1.837,17.187C0.902,17.187 0.145,17.945 0.145,18.879L0.145,39.462C0.145,44.211 3.995,48.061 8.745,48.061L37.786,48.061C38.721,48.061 39.477,47.304 39.477,46.37L39.477,21.293C39.477,21.067 39.204,20.954 39.045,21.114L28.079,32.096Z" style="fill-rule:nonzero;"/>
                    </g>
                    <g transform="matrix(2.2058,0,0,2.2058,1802.6,591.657)">
                        <path d="M83.039,-1.839L50.94,-1.839C50.713,-1.839 50.6,-1.565 50.76,-1.405L63.019,10.868C63.349,11.199 63.348,11.734 63.018,12.064L60.003,15.078C59.673,15.409 59.137,15.409 58.807,15.078L56.799,13.068L56.797,13.07L45.832,2.089C45.672,1.928 45.398,2.042 45.398,2.268L45.398,27.344C45.398,28.278 46.156,29.035 47.091,29.035L60.457,29.035C60.963,29.035 61.354,29.479 61.303,29.982C60.481,38.061 49.156,39.427 46.057,39.649C45.615,39.681 45.278,40.049 45.278,40.492L45.278,45.177C45.278,45.619 45.619,45.987 46.06,46.02C51.831,46.456 84.731,48.061 84.731,20.988L84.731,-0.147C84.731,-1.081 83.974,-1.839 83.039,-1.839Z" style="fill-rule:nonzero;"/>
                    </g>
                    <g transform="matrix(2.2058,0,0,2.2058,1802.6,421.95)">
                        <path d="M59.59,62.551L59.785,62.298C59.911,62.138 60.04,61.979 60.155,61.818C60.329,61.57 60.491,61.321 60.635,61.07C61.852,58.958 61.536,57.497 61.063,56.609C60.848,56.205 60.6,55.92 60.449,55.746C60.367,55.652 60.275,55.555 60.179,55.46L60.085,55.37L59.837,55.155L59.739,55.075C59.62,54.987 59.493,54.904 59.358,54.827L59.246,54.772C59.136,54.715 59.018,54.663 58.894,54.618L58.743,54.565C58.58,54.514 58.409,54.472 58.225,54.446L58.201,54.441C58.003,54.414 57.787,54.408 57.562,54.416L57.448,54.422C57.225,54.436 56.99,54.466 56.739,54.519L56.635,54.544C56.368,54.606 56.088,54.685 55.786,54.798C55.248,55 54.703,55.27 54.159,55.6C53.615,55.931 53.072,56.322 52.537,56.765C52.003,57.209 51.479,57.704 50.971,58.245C48.497,60.881 46.431,64.58 45.699,68.446C45.669,68.603 45.793,68.75 45.953,68.75C47.509,68.751 45.925,68.744 46.044,68.743C51.434,68.667 56.799,65.888 59.59,62.551Z" style="fill-rule:nonzero;"/>
                    </g>
                    <g transform="matrix(2.2058,0,0,2.2058,1802.6,387.367)">
                        <path d="M19.081,79.723C18.618,78.918 18.252,78.108 17.983,77.3C17.805,76.762 17.669,76.224 17.576,75.689C17.53,75.422 17.494,75.156 17.47,74.89C17.246,72.501 17.894,70.196 19.398,68.18C19.565,67.956 19.743,67.735 19.932,67.519C22.78,64.241 26.881,63.287 31.179,64.899C34.06,65.98 36.767,68.073 39.033,70.744C39.186,70.925 39.477,70.822 39.477,70.585L39.477,55.673C39.477,54.739 38.721,53.982 37.786,53.982L8.745,53.982C3.995,53.982 0.145,57.832 0.145,62.582L0.145,83.164C0.145,84.098 0.902,84.855 1.837,84.855L22.931,84.855C23.168,84.855 23.27,84.563 23.09,84.409C21.406,82.969 20.031,81.37 19.081,79.723Z" style="fill-rule:nonzero;"/>
                    </g>
                    <g transform="matrix(2.2058,0,0,2.2058,1802.6,421.95)">
                        <path d="M25.286,62.551C28.077,65.888 33.442,68.667 38.832,68.743C38.951,68.744 37.367,68.751 38.923,68.75C39.083,68.75 39.207,68.603 39.177,68.446C38.446,64.58 36.379,60.881 33.905,58.245C33.397,57.704 32.873,57.209 32.339,56.765C31.805,56.322 31.262,55.931 30.718,55.6C30.173,55.27 29.628,55 29.09,54.798C28.788,54.685 28.509,54.606 28.241,54.544L28.138,54.519C27.887,54.466 27.652,54.436 27.429,54.422L27.314,54.416C27.089,54.408 26.873,54.414 26.675,54.441L26.652,54.446C26.467,54.472 26.296,54.515 26.133,54.566L25.982,54.618C25.858,54.663 25.741,54.715 25.63,54.772L25.518,54.827C25.383,54.904 25.256,54.987 25.138,55.075L25.039,55.155L24.79,55.37L24.697,55.46C24.601,55.555 24.51,55.652 24.428,55.746C24.276,55.92 24.028,56.205 23.813,56.609C23.727,56.77 23.646,56.951 23.579,57.151C23.512,57.35 23.458,57.57 23.426,57.809C23.312,58.646 23.467,59.726 24.241,61.07C24.386,61.321 24.547,61.57 24.722,61.818C24.836,61.979 24.965,62.138 25.091,62.298L25.286,62.551Z" style="fill-rule:nonzero;"/>
                    </g>
                    <g transform="matrix(2.2058,0,0,2.2058,1802.6,387.367)">
                        <path d="M76.131,53.982L47.091,53.982C46.156,53.982 45.398,54.739 45.398,55.673L45.398,70.585C45.398,70.822 45.69,70.924 45.844,70.744C48.109,68.073 50.816,65.98 53.698,64.899C57.995,63.287 62.096,64.241 64.945,67.519C65.133,67.735 65.311,67.956 65.478,68.18C66.982,70.196 67.63,72.501 67.407,74.89C67.382,75.156 67.346,75.422 67.3,75.689C67.207,76.224 67.072,76.762 66.893,77.3C66.624,78.108 66.259,78.918 65.795,79.723C65.28,80.617 64.639,81.497 63.892,82.346C63.395,82.912 62.849,83.463 62.261,83.995C62.178,84.071 62.069,84.164 61.953,84.261C61.624,84.543 61.565,84.847 61.988,84.855L83.039,84.855C83.974,84.855 84.731,84.098 84.731,83.164L84.731,62.581C84.731,57.832 80.881,53.982 76.131,53.982Z" style="fill-rule:nonzero;"/>
                    </g>
                </g>
            </g>
        </g>
    </g>
</svg>
