<?xml version="1.0" encoding="UTF-8" standalone="no"?>
<!DOCTYPE svg PUBLIC "-//W3C//DTD SVG 1.1//EN" "http://www.w3.org/Graphics/SVG/1.1/DTD/svg11.dtd">
<svg width="100%" height="100%" viewBox="0 0 600 300" version="1.1" xmlns="http://www.w3.org/2000/svg" xmlns:xlink="http://www.w3.org/1999/xlink" xml:space="preserve" xmlns:serif="http://www.serif.com/" style="fill-rule:evenodd;clip-rule:evenodd;stroke-linejoin:round;stroke-miterlimit:2;">
    <g transform="matrix(1,0,0,1,-6500,0)">
        <g id="logo-persi" transform="matrix(1,0,0,0.5,0,0)">
            <rect x="6500" y="0" width="600" height="600" style="fill:none;"/>
            <g transform="matrix(0.878728,0,0,1.75746,5117.76,-395.797)">
                <g transform="matrix(1.06065,0,0,1.06065,1766.93,355.098)">
                    <path d="M54.522,33.605L54.522,23.903C54.522,22.405 53.331,21.191 51.864,21.191L23.29,21.191C21.821,21.191 20.632,22.405 20.632,23.903L20.632,33.605C20.632,34.019 20.334,34.355 19.968,34.355L12.452,34.355C12.038,34.355 11.702,34.019 11.702,33.605L11.702,21.605C11.702,16.634 15.731,12.605 20.702,12.605L54.452,12.605C59.423,12.605 63.452,16.634 63.452,21.605L63.452,33.605C63.452,34.019 63.116,34.355 62.702,34.355L55.186,34.355C54.82,34.355 54.522,34.019 54.522,33.605ZM63.452,55.355C63.452,60.326 59.423,64.355 54.452,64.355L20.702,64.355C15.731,64.355 11.702,60.326 11.702,55.355L11.702,43.355C11.702,42.94 12.038,42.605 12.452,42.605L19.968,42.605C20.334,42.605 20.632,42.94 20.632,43.355L20.632,53.057C20.632,54.555 21.821,55.769 23.29,55.769L51.864,55.769C53.331,55.769 54.522,54.555 54.522,53.057L54.522,43.355C54.522,42.94 54.82,42.605 55.186,42.605L62.702,42.605C63.116,42.605 63.452,42.94 63.452,43.355L63.452,55.355ZM57.827,0.98L17.327,0.98C7.799,0.98 0.077,8.703 0.077,18.23L0.077,58.73C0.077,68.257 7.799,75.98 17.327,75.98L57.827,75.98C67.353,75.98 75.077,68.257 75.077,58.73L75.077,18.23C75.077,8.703 67.353,0.98 57.827,0.98Z" style="fill-rule:nonzero;"/>
                </g>
                <g transform="matrix(1.06065,0,0,1.06065,1766.93,355.126)">
                    <path d="M169.032,26.362L143.16,26.362C142.55,26.362 142.055,26.857 142.055,27.468L142.055,34.329C142.055,34.94 142.55,35.435 143.16,35.435L163.565,35.435C164.176,35.435 164.671,35.93 164.671,36.541L164.671,41.337C164.671,41.948 164.176,42.443 163.565,42.443L143.16,42.443C142.55,42.443 142.055,42.938 142.055,43.549L142.055,49.465C142.055,50.076 142.55,50.571 143.16,50.571L169.032,50.571C169.643,50.571 170.138,51.066 170.138,51.677L170.138,56.473C170.138,57.084 169.643,57.579 169.032,57.579L136.1,57.579C135.488,57.579 134.993,57.084 134.993,56.473L134.993,20.461C134.993,19.85 135.488,19.355 136.1,19.355L169.032,19.355C169.643,19.355 170.138,19.85 170.138,20.461L170.138,25.256C170.138,25.867 169.643,26.362 169.032,26.362Z" style="fill-rule:nonzero;"/>
                </g>
                <g transform="matrix(1.06065,0,0,1.06065,1766.93,355.182)">
                    <path d="M208.209,35.519C208.819,35.519 209.314,35.024 209.314,34.413L209.314,27.468C209.314,26.858 208.819,26.362 208.209,26.362L186.265,26.362C185.654,26.362 185.159,26.858 185.159,27.468L185.159,34.413C185.159,35.024 185.654,35.519 186.265,35.519L208.209,35.519ZM216.365,55.709C216.97,56.428 216.458,57.526 215.519,57.526L209.245,57.526C208.918,57.526 208.608,57.382 208.398,57.132L198.019,42.92C197.809,42.67 197.499,42.526 197.173,42.526L186.265,42.526C185.654,42.526 185.159,43.021 185.159,43.632L185.159,56.42C185.159,57.031 184.664,57.526 184.053,57.526L179.257,57.526C178.645,57.526 178.15,57.031 178.15,56.42L178.15,20.461C178.15,19.85 178.645,19.355 179.257,19.355L208.943,19.355C213.03,19.355 216.376,22.7 216.376,26.734L216.376,35.147C216.376,39.182 213.03,42.526 208.943,42.526L206.871,42.526L216.365,55.709Z" style="fill-rule:nonzero;"/>
                </g>
                <g transform="matrix(1.06065,0,0,1.06065,1766.93,355.126)">
                    <path d="M272.103,19.355L276.897,19.355C277.508,19.355 278.003,19.85 278.003,20.461L278.003,56.473C278.003,57.084 277.508,57.579 276.897,57.579L272.103,57.579C271.491,57.579 270.996,57.084 270.996,56.473L270.996,20.461C270.996,19.85 271.491,19.355 272.103,19.355Z" style="fill-rule:nonzero;"/>
                </g>
                <g transform="matrix(1.06065,0,0,1.06065,1766.93,355.182)">
                    <path d="M121.408,34.413C121.408,35.024 120.913,35.519 120.302,35.519L98.358,35.519C97.747,35.519 97.252,35.024 97.252,34.413L97.252,27.468C97.252,26.858 97.747,26.362 98.358,26.362L120.302,26.362C120.913,26.362 121.408,26.858 121.408,27.468L121.408,34.413ZM97.252,43.632C97.252,43.021 97.747,42.526 98.358,42.526L121.036,42.526C125.123,42.526 128.468,39.182 128.468,35.148L128.468,26.734C128.468,22.7 125.123,19.355 121.036,19.355L91.351,19.355C90.739,19.355 90.244,19.85 90.244,20.461L90.244,56.42C90.244,57.031 90.739,57.526 91.351,57.526L96.146,57.526C96.757,57.526 97.252,57.031 97.252,56.42L97.252,43.632Z" style="fill-rule:nonzero;"/>
                </g>
                <g transform="matrix(1.06065,0,0,1.06065,1766.93,355.07)">
                    <path d="M255.259,35.487L232.527,35.487C231.916,35.487 231.422,34.991 231.422,34.381L231.422,27.494C231.422,26.883 231.916,26.388 232.527,26.388L260.426,26.388C261.037,26.388 261.532,25.893 261.532,25.282L261.532,20.487C261.532,19.876 261.037,19.381 260.426,19.381L231.792,19.381C227.717,19.381 224.413,22.685 224.413,26.76L224.413,35.115C224.413,39.191 227.717,42.495 231.793,42.495L254.499,42.495C255.075,42.501 255.533,42.95 255.577,43.516L255.577,49.594C255.535,50.129 255.121,50.547 254.588,50.597L226.625,50.597C226.015,50.597 225.519,51.092 225.519,51.703L225.519,56.5C225.519,57.11 226.015,57.605 226.625,57.605L255.259,57.605C259.293,57.605 262.638,54.313 262.638,50.225L262.638,42.866C262.638,38.778 259.293,35.487 255.259,35.487Z" style="fill-rule:nonzero;"/>
                </g>
            </g>
        </g>
    </g>
</svg>
