<?xml version="1.0" encoding="UTF-8" standalone="no"?><!DOCTYPE svg PUBLIC "-//W3C//DTD SVG 1.1//EN" "http://www.w3.org/Graphics/SVG/1.1/DTD/svg11.dtd"><svg width="100%" height="100%" viewBox="0 0 600 600" version="1.1" xmlns="http://www.w3.org/2000/svg" xmlns:xlink="http://www.w3.org/1999/xlink" xml:space="preserve" xmlns:serif="http://www.serif.com/" style="fill-rule:evenodd;clip-rule:evenodd;stroke-linejoin:round;stroke-miterlimit:2;"><rect id="logo-ruporno" x="0" y="0" width="600" height="600" style="fill:none;"/><g id="logo-ruporno1" serif:id="logo-ruporno"><g><g><path d="M262.98,300.787c0.769,0 1.424,-0.096 1.964,-0.292c0.541,-0.195 0.984,-0.465 1.33,-0.81c0.344,-0.347 0.596,-0.749 0.752,-1.213c0.156,-0.461 0.234,-0.962 0.234,-1.496c0,-1.07 -0.349,-1.907 -1.045,-2.508c-0.697,-0.601 -1.775,-0.902 -3.235,-0.902l-2.274,0l0,7.221l2.274,0Zm12.004,12.907l-5.116,0c-0.947,0 -1.628,-0.356 -2.04,-1.07l-4.046,-7.072c-0.189,-0.3 -0.401,-0.521 -0.635,-0.659c-0.234,-0.139 -0.568,-0.209 -1.003,-0.209l-1.438,0l0,9.01l-5.651,0l0,-24.359l7.925,0c1.761,0 3.262,0.181 4.505,0.544c1.242,0.363 2.258,0.866 3.044,1.513c0.785,0.646 1.356,1.41 1.713,2.29c0.357,0.881 0.534,1.84 0.534,2.876c0,0.792 -0.105,1.538 -0.317,2.24c-0.212,0.703 -0.524,1.351 -0.936,1.947c-0.413,0.597 -0.922,1.129 -1.531,1.598c-0.607,0.467 -1.305,0.852 -2.097,1.153c0.368,0.191 0.714,0.426 1.037,0.711c0.322,0.284 0.612,0.62 0.869,1.011l5.183,8.476Z" style="fill:#fff;fill-rule:nonzero;"/><path d="M286.953,309.231c0.758,0 1.436,-0.126 2.032,-0.377c0.596,-0.251 1.101,-0.61 1.513,-1.078c0.413,-0.468 0.727,-1.04 0.944,-1.714c0.218,-0.674 0.326,-1.439 0.326,-2.299l0,-14.428l5.651,0l0,14.428c0,1.495 -0.243,2.865 -0.727,4.113c-0.484,1.248 -1.178,2.324 -2.082,3.227c-0.902,0.902 -2,1.604 -3.293,2.106c-1.293,0.502 -2.747,0.752 -4.364,0.752c-1.626,0 -3.087,-0.25 -4.379,-0.752c-1.293,-0.502 -2.391,-1.204 -3.294,-2.106c-0.903,-0.903 -1.594,-1.979 -2.073,-3.227c-0.479,-1.248 -0.719,-2.618 -0.719,-4.113l0,-14.428l5.651,0l0,14.411c0,0.859 0.108,1.625 0.326,2.299c0.217,0.675 0.532,1.249 0.945,1.723c0.411,0.473 0.916,0.835 1.512,1.086c0.597,0.251 1.274,0.377 2.031,0.377Z" style="fill:#fff;fill-rule:nonzero;"/><path d="M310.426,301.289c1.472,0 2.53,-0.351 3.176,-1.053c0.647,-0.703 0.971,-1.682 0.971,-2.943c0,-0.556 -0.084,-1.063 -0.252,-1.521c-0.167,-0.457 -0.42,-0.85 -0.76,-1.178c-0.34,-0.33 -0.769,-0.582 -1.287,-0.761c-0.518,-0.179 -1.135,-0.267 -1.848,-0.267l-2.943,0l0,7.723l2.943,0Zm0,-11.954c1.716,0 3.19,0.203 4.422,0.61c1.232,0.408 2.247,0.968 3.043,1.682c0.797,0.711 1.385,1.554 1.763,2.523c0.38,0.971 0.569,2.019 0.569,3.143c0,1.216 -0.196,2.331 -0.585,3.345c-0.39,1.013 -0.986,1.883 -1.79,2.607c-0.801,0.725 -1.819,1.29 -3.051,1.697c-1.231,0.409 -2.688,0.61 -4.371,0.61l-2.943,0l0,8.142l-5.65,0l0,-24.359l8.593,0Z" style="fill:#fff;fill-rule:nonzero;"/><path d="M341.221,301.507c0,-1.204 -0.158,-2.288 -0.469,-3.252c-0.312,-0.965 -0.761,-1.78 -1.345,-2.448c-0.585,-0.669 -1.301,-1.182 -2.149,-1.54c-0.847,-0.356 -1.811,-0.535 -2.892,-0.535c-1.092,0 -2.064,0.179 -2.918,0.535c-0.852,0.358 -1.571,0.871 -2.156,1.54c-0.585,0.668 -1.033,1.483 -1.346,2.448c-0.311,0.964 -0.467,2.048 -0.467,3.252c0,1.214 0.156,2.304 0.467,3.269c0.313,0.963 0.761,1.779 1.346,2.449c0.585,0.667 1.304,1.178 2.156,1.528c0.854,0.352 1.826,0.527 2.918,0.527c1.081,0 2.045,-0.175 2.892,-0.527c0.848,-0.35 1.564,-0.861 2.149,-1.528c0.584,-0.67 1.033,-1.486 1.345,-2.449c0.311,-0.965 0.469,-2.055 0.469,-3.269Zm5.784,0c0,1.76 -0.303,3.399 -0.911,4.915c-0.608,1.515 -1.463,2.833 -2.566,3.954c-1.104,1.12 -2.433,1.998 -3.988,2.633c-1.555,0.635 -3.28,0.952 -5.174,0.952c-1.895,0 -3.622,-0.317 -5.182,-0.952c-1.561,-0.635 -2.895,-1.513 -4.004,-2.633c-1.109,-1.121 -1.968,-2.439 -2.574,-3.954c-0.609,-1.516 -0.913,-3.155 -0.913,-4.915c0,-1.761 0.304,-3.401 0.913,-4.915c0.606,-1.516 1.465,-2.831 2.574,-3.946c1.109,-1.115 2.443,-1.99 4.004,-2.625c1.56,-0.636 3.287,-0.953 5.182,-0.953c1.894,0 3.619,0.32 5.174,0.962c1.555,0.641 2.884,1.518 3.988,2.633c1.103,1.115 1.958,2.429 2.566,3.944c0.608,1.518 0.911,3.15 0.911,4.9Z" style="fill:#fff;fill-rule:nonzero;"/><path d="M358.257,300.787c0.769,0 1.423,-0.096 1.964,-0.292c0.541,-0.195 0.984,-0.465 1.329,-0.81c0.346,-0.347 0.597,-0.749 0.752,-1.213c0.157,-0.461 0.235,-0.962 0.235,-1.496c0,-1.07 -0.349,-1.907 -1.046,-2.508c-0.696,-0.601 -1.774,-0.902 -3.234,-0.902l-2.274,0l0,7.221l2.274,0Zm12.004,12.907l-5.116,0c-0.947,0 -1.628,-0.356 -2.04,-1.07l-4.046,-7.072c-0.189,-0.3 -0.401,-0.521 -0.635,-0.659c-0.234,-0.139 -0.569,-0.209 -1.003,-0.209l-1.438,0l0,9.01l-5.651,0l0,-24.359l7.925,0c1.761,0 3.262,0.181 4.505,0.544c1.242,0.363 2.257,0.866 3.043,1.513c0.786,0.646 1.357,1.41 1.713,2.29c0.357,0.881 0.536,1.84 0.536,2.876c0,0.792 -0.106,1.538 -0.318,2.24c-0.211,0.703 -0.524,1.351 -0.936,1.947c-0.412,0.597 -0.923,1.129 -1.53,1.598c-0.608,0.467 -1.307,0.852 -2.098,1.153c0.368,0.191 0.713,0.426 1.037,0.711c0.322,0.284 0.612,0.62 0.869,1.011l5.183,8.476Z" style="fill:#fff;fill-rule:nonzero;"/><path d="M393.582,289.335l0,24.359l-2.942,0c-0.435,0 -0.8,-0.07 -1.095,-0.209c-0.296,-0.14 -0.589,-0.382 -0.878,-0.727l-11.486,-14.528c0.045,0.435 0.076,0.855 0.092,1.261c0.018,0.408 0.026,0.791 0.026,1.147l0,13.056l-4.983,0l0,-24.359l2.976,0c0.246,0 0.452,0.011 0.619,0.035c0.166,0.022 0.318,0.063 0.451,0.124c0.134,0.063 0.262,0.148 0.384,0.26c0.123,0.111 0.263,0.261 0.419,0.451l11.585,14.629c-0.056,-0.468 -0.094,-0.923 -0.116,-1.363c-0.022,-0.44 -0.034,-0.855 -0.034,-1.246l0,-12.89l4.982,0Z" style="fill:#fff;fill-rule:nonzero;"/><path d="M416.419,301.507c0,-1.204 -0.157,-2.288 -0.468,-3.252c-0.312,-0.965 -0.761,-1.78 -1.345,-2.448c-0.586,-0.669 -1.302,-1.182 -2.149,-1.54c-0.848,-0.356 -1.812,-0.535 -2.892,-0.535c-1.093,0 -2.065,0.179 -2.918,0.535c-0.853,0.358 -1.571,0.871 -2.157,1.54c-0.585,0.668 -1.033,1.483 -1.345,2.448c-0.312,0.964 -0.468,2.048 -0.468,3.252c0,1.214 0.156,2.304 0.468,3.269c0.312,0.963 0.76,1.779 1.345,2.449c0.586,0.667 1.304,1.178 2.157,1.528c0.853,0.352 1.825,0.527 2.918,0.527c1.08,0 2.044,-0.175 2.892,-0.527c0.847,-0.35 1.563,-0.861 2.149,-1.528c0.584,-0.67 1.033,-1.486 1.345,-2.449c0.311,-0.965 0.468,-2.055 0.468,-3.269Zm5.784,0c0,1.76 -0.303,3.399 -0.911,4.915c-0.608,1.515 -1.462,2.833 -2.566,3.954c-1.104,1.12 -2.432,1.998 -3.988,2.633c-1.554,0.635 -3.279,0.952 -5.173,0.952c-1.896,0 -3.623,-0.317 -5.182,-0.952c-1.561,-0.635 -2.896,-1.513 -4.006,-2.633c-1.108,-1.121 -1.967,-2.439 -2.574,-3.954c-0.607,-1.516 -0.911,-3.155 -0.911,-4.915c0,-1.761 0.304,-3.401 0.911,-4.915c0.607,-1.516 1.466,-2.831 2.574,-3.946c1.11,-1.115 2.445,-1.99 4.006,-2.625c1.559,-0.636 3.286,-0.953 5.182,-0.953c1.894,0 3.619,0.32 5.173,0.962c1.556,0.641 2.884,1.518 3.988,2.633c1.104,1.115 1.958,2.429 2.566,3.944c0.608,1.518 0.911,3.15 0.911,4.9Z" style="fill:#fff;fill-rule:nonzero;"/><path d="M430.496,289.335l0,9.563c0,1.025 -0.061,2.044 -0.185,3.052c-0.122,1.009 -0.283,2.036 -0.484,3.084l-3.511,0c-0.201,-1.048 -0.362,-2.075 -0.485,-3.084c-0.122,-1.008 -0.184,-2.027 -0.184,-3.052l0,-9.563l4.849,0Zm-5.417,21.736c0,-0.403 0.076,-0.775 0.225,-1.122c0.151,-0.345 0.357,-0.646 0.62,-0.903c0.261,-0.256 0.57,-0.459 0.926,-0.61c0.358,-0.151 0.748,-0.226 1.171,-0.226c0.413,0 0.798,0.075 1.154,0.226c0.357,0.151 0.669,0.354 0.935,0.61c0.269,0.257 0.478,0.558 0.628,0.903c0.151,0.347 0.226,0.719 0.226,1.122c0,0.4 -0.075,0.775 -0.226,1.127c-0.15,0.35 -0.359,0.655 -0.628,0.911c-0.266,0.257 -0.578,0.458 -0.935,0.602c-0.356,0.145 -0.741,0.217 -1.154,0.217c-0.423,0 -0.813,-0.072 -1.171,-0.217c-0.356,-0.144 -0.665,-0.345 -0.926,-0.602c-0.263,-0.256 -0.469,-0.561 -0.62,-0.911c-0.149,-0.352 -0.225,-0.727 -0.225,-1.127Z" style="fill:#fff;fill-rule:nonzero;"/></g><path d="M200.409,269.347l0,0l4.826,-2.786l4.827,2.786l0.965,-0.557l8.688,-5.016l0,5.574l0,-0.001l4.827,2.787l-4.827,2.787l0,-0.001l0,5.574l-9.653,-5.573l0,5.573l14.479,8.36l9.654,-5.574l0,-5.573l7.239,-4.18l0,58.519l-7.239,-4.18l0,-33.439l-4.827,2.786l0,27.866l-4.827,-2.786l0,-22.293l-4.826,2.787l0,16.719l-4.827,-2.786l0.162,-11.24l-4.988,2.88l0,25.079l-4.827,2.787l-4.826,-2.787l0,-25.079l-4.827,-2.787l0,11.147l-4.826,2.786l0,-16.719l-4.827,-2.787l0,22.293l-4.826,2.786l0,-27.866l-4.827,-2.786l0,33.439l-7.24,4.18l0,-36.226l0,-22.293l7.24,4.18l0,5.573l9.653,5.574l14.48,-8.36l0,-5.573l-0.966,0.557l-8.687,5.016l0,-5.573l-0.001,0l-4.826,-2.787l4.826,-2.787l0.001,0l0,-5.573l9.653,5.573Zm14.479,25.08l-9.653,-5.573l-9.653,5.573l9.653,5.573l9.653,-5.573Zm9.653,-19.506l2.414,-1.394l2.413,1.394l-2.413,1.393l-2.414,-1.393Zm-38.611,0l-2.414,-1.394l-2.413,1.394l2.413,1.393l2.414,-1.393Zm43.438,-2.787l2.413,-1.393l2.413,1.393l-2.413,1.393l-2.413,-1.393Zm-48.265,0l-2.413,-1.393l-2.413,1.393l2.413,1.393l2.413,-1.393Zm43.439,-2.787l2.413,-1.393l2.413,1.393l-2.413,1.394l-2.413,-1.394Zm-38.613,0l-2.413,-1.393l-2.413,1.393l2.413,1.394l2.413,-1.394Z" style="fill:#fff;"/></g></g></svg>
