<?xml version="1.0" encoding="UTF-8" standalone="no"?>
<!DOCTYPE svg PUBLIC "-//W3C//DTD SVG 1.1//EN" "http://www.w3.org/Graphics/SVG/1.1/DTD/svg11.dtd">
<svg width="100%" height="100%" viewBox="0 0 2500 1250" version="1.1" xmlns="http://www.w3.org/2000/svg" xmlns:xlink="http://www.w3.org/1999/xlink" xml:space="preserve" xmlns:serif="http://www.serif.com/" style="fill-rule:evenodd;clip-rule:evenodd;stroke-linejoin:round;stroke-miterlimit:2;">
    <rect id="logo-t-illumination" x="0" y="0" width="2500" height="1250" style="fill:none;"/>
    <g id="logo-t-illumination1" serif:id="logo-t-illumination">
        <path d="M703.536,565.553c-9.837,-4.613 -19.055,-10.982 -27.178,-19.106l21.546,-21.546c25.717,25.717 67.475,25.717 93.192,0l21.546,21.546c-8.124,8.124 -17.341,14.493 -27.178,19.106c18.866,13.032 31.237,34.806 31.237,59.447c-0,24.641 -12.371,46.415 -31.237,59.447c9.837,4.613 19.054,10.982 27.178,19.106l-21.546,21.546c-25.717,-25.717 -67.475,-25.717 -93.192,-0l-21.546,-21.546c8.123,-8.124 17.341,-14.493 27.178,-19.106c-18.866,-13.032 -31.237,-34.806 -31.237,-59.447c0,-24.641 12.371,-46.415 31.237,-59.447Zm422.149,107.832c-14.19,-0 -25.25,-3.834 -33.182,-11.501c-7.932,-7.668 -11.898,-18.42 -11.898,-32.257l-0,-50.897l31.199,0l-0,49.972c-0,6.786 1.212,11.721 3.635,14.806c2.424,3.085 5.927,4.627 10.51,4.627c4.583,-0 8.086,-1.542 10.51,-4.627c2.424,-3.085 3.636,-8.02 3.636,-14.806l-0,-49.972l30.67,0l-0,50.897c-0,13.837 -3.966,24.589 -11.898,32.257c-7.932,7.667 -18.993,11.501 -33.182,11.501Zm663.64,-0c-9.959,-0 -18.905,-2.071 -26.837,-6.213c-7.932,-4.143 -14.145,-9.893 -18.64,-17.252c-4.495,-7.36 -6.742,-15.666 -6.742,-24.92c-0,-9.254 2.247,-17.56 6.742,-24.92c4.495,-7.359 10.708,-13.109 18.64,-17.252c7.932,-4.142 16.878,-6.213 26.837,-6.213c9.959,0 18.904,2.071 26.836,6.213c7.932,4.143 14.145,9.893 18.64,17.252c4.495,7.36 6.742,15.666 6.742,24.92c0,9.254 -2.247,17.56 -6.742,24.92c-4.495,7.359 -10.708,13.109 -18.64,17.252c-7.932,4.142 -16.877,6.213 -26.836,6.213Zm-933.194,-94.655l31.199,0l-0,92.54l-31.199,-0l-0,-92.54Zm465.605,0l31.199,0l0,92.54l-31.199,-0l0,-92.54Zm367.514,0l31.199,0l-0,92.54l-31.199,-0l-0,-92.54Zm-781.562,0l31.199,0l0,68.347l41.775,0l0,24.193l-72.974,-0l0,-92.54Zm86.855,0l31.199,0l0,68.347l41.775,0l0,24.193l-72.974,-0l0,-92.54Zm469.968,0l0,92.54l-25.646,-0l-35.165,-42.04l-0,42.04l-30.406,-0l-0,-92.54l25.646,0l35.165,42.04l0,-42.04l30.406,0Zm484.907,0l-0,92.54l-25.647,-0l-35.165,-42.04l0,42.04l-30.406,-0l0,-92.54l25.647,0l35.165,42.04l-0,-42.04l30.406,0Zm-419.733,-2.115c8.99,0 16.922,1.785 23.796,5.354c6.875,3.57 12.229,8.769 16.062,15.6c3.834,6.83 5.751,14.96 5.751,24.39l0,49.311l-31.199,-0l0,-18.64l-29.348,-0l-0,18.64l-30.67,-0l-0,-49.311c-0,-9.43 1.917,-17.56 5.75,-24.39c3.834,-6.831 9.188,-12.03 16.063,-15.6c6.874,-3.569 14.806,-5.354 23.795,-5.354Zm138.81,34.504c-7.139,-3.966 -14.366,-6.698 -21.681,-8.196l-0,68.347l-31.199,-0l-0,-68.347c-7.315,1.498 -14.542,4.23 -21.681,8.196l-10.311,-22.209c6.61,-3.966 14.013,-7.007 22.209,-9.122c8.196,-2.115 16.657,-3.173 25.382,-3.173c8.725,0 17.186,1.058 25.383,3.173c8.196,2.115 15.599,5.156 22.209,9.122l-10.311,22.209Zm-1033.04,0c-7.139,-3.966 -14.365,-6.698 -21.68,-8.196l-0,68.347l-31.199,-0l-0,-68.347c-7.315,1.498 -14.542,4.23 -21.681,8.196l-10.312,-22.209c6.61,-3.966 14.013,-7.007 22.21,-9.122c8.196,-2.115 16.657,-3.173 25.382,-3.173c8.725,0 17.186,1.058 25.382,3.173c8.197,2.115 15.6,5.156 22.21,9.122l-10.312,22.209Zm637.501,60.151l-0.265,-42.172l-20.094,33.843l-13.749,0l-20.094,-32.389l0,40.718l-28.423,-0l0,-92.54l25.647,0l30.141,49.311l29.348,-49.311l25.647,0l0.265,92.54l-28.423,-0Zm-495.873,-78.852l11.926,20.656l-20.657,11.926l20.657,11.926l-11.926,20.656l-20.656,-11.926l-0,23.852l-23.852,-0l0,-23.852l-20.656,11.926l-11.926,-20.656l20.656,-11.926l-20.656,-11.926l11.926,-20.656l20.656,11.926l0,-23.852l23.852,0l-0,23.852l20.656,-11.926Zm1012.24,55.717c3.877,-0 7.381,-0.948 10.509,-2.842c3.129,-1.895 5.619,-4.583 7.47,-8.065c1.85,-3.481 2.776,-7.557 2.776,-12.228c-0,-4.671 -0.926,-8.747 -2.776,-12.228c-1.851,-3.482 -4.341,-6.17 -7.47,-8.065c-3.128,-1.894 -6.632,-2.842 -10.509,-2.842c-3.878,0 -7.382,0.948 -10.51,2.842c-3.129,1.895 -5.619,4.583 -7.47,8.065c-1.85,3.481 -2.776,7.557 -2.776,12.228c0,4.671 0.926,8.747 2.776,12.228c1.851,3.482 4.341,6.17 7.47,8.065c3.128,1.894 6.632,2.842 10.51,2.842Zm-245.23,-19.037l0,-9.783c0,-5.728 -1.344,-10.069 -4.032,-13.021c-2.688,-2.953 -6.235,-4.429 -10.642,-4.429c-4.407,0 -7.954,1.476 -10.642,4.429c-2.688,2.952 -4.032,7.293 -4.032,13.021l-0,9.783l29.348,0Z"/>
    </g>
</svg>
