<?xml version="1.0" encoding="UTF-8" standalone="no"?>
<!DOCTYPE svg PUBLIC "-//W3C//DTD SVG 1.1//EN" "http://www.w3.org/Graphics/SVG/1.1/DTD/svg11.dtd">
<svg width="100%" height="100%" viewBox="0 0 600 300" version="1.1" xmlns="http://www.w3.org/2000/svg" xmlns:xlink="http://www.w3.org/1999/xlink" xml:space="preserve" xmlns:serif="http://www.serif.com/" style="fill-rule:evenodd;clip-rule:evenodd;stroke-linejoin:round;stroke-miterlimit:2;">
    <g transform="matrix(1,0,0,1,-7150,0)">
        <g id="logo-ruporno" transform="matrix(1,0,0,0.5,0,0)">
            <rect x="7150" y="0" width="600" height="600" style="fill:none;"/>
            <g transform="matrix(1,0,0,2,0,-300)">
                <g transform="matrix(1,0,0,1,0,7.23056)">
                    <g transform="matrix(0.92142,0,0,0.92142,7288.58,240.525)">
                        <path d="M135.006,57.554C135.84,57.554 136.551,57.45 137.137,57.237C137.724,57.026 138.205,56.733 138.58,56.358C138.954,55.982 139.227,55.545 139.396,55.042C139.566,54.541 139.65,53.998 139.65,53.418C139.65,52.257 139.272,51.349 138.516,50.696C137.76,50.044 136.59,49.717 135.006,49.717L132.538,49.717L132.538,57.554L135.006,57.554ZM148.033,71.562L142.481,71.562C141.453,71.562 140.714,71.176 140.267,70.401L135.876,62.725C135.671,62.4 135.441,62.16 135.187,62.01C134.933,61.859 134.57,61.783 134.098,61.783L132.538,61.783L132.538,71.562L126.405,71.562L126.405,45.126L135.006,45.126C136.917,45.126 138.546,45.322 139.895,45.716C141.243,46.11 142.345,46.656 143.198,47.358C144.05,48.059 144.67,48.888 145.057,49.843C145.445,50.799 145.637,51.84 145.637,52.964C145.637,53.824 145.523,54.634 145.293,55.396C145.063,56.158 144.724,56.862 144.277,57.509C143.829,58.157 143.276,58.734 142.616,59.243C141.957,59.75 141.199,60.168 140.34,60.494C140.739,60.701 141.114,60.957 141.465,61.266C141.815,61.574 142.129,61.939 142.408,62.363L148.033,71.562Z" style="fill-rule:nonzero;"/>
                    </g>
                    <g transform="matrix(0.92142,0,0,0.92142,7288.58,240.792)">
                        <path d="M161.023,66.428C161.846,66.428 162.581,66.292 163.228,66.019C163.875,65.747 164.423,65.357 164.87,64.849C165.318,64.341 165.659,63.72 165.895,62.989C166.131,62.258 166.249,61.427 166.249,60.494L166.249,44.836L172.382,44.836L172.382,60.494C172.382,62.116 172.118,63.603 171.593,64.958C171.067,66.312 170.314,67.48 169.333,68.46C168.354,69.439 167.162,70.201 165.759,70.745C164.356,71.29 162.778,71.562 161.023,71.562C159.258,71.562 157.673,71.29 156.27,70.745C154.867,70.201 153.676,69.439 152.696,68.46C151.716,67.48 150.966,66.312 150.446,64.958C149.926,63.603 149.665,62.116 149.665,60.494L149.665,44.836L155.798,44.836L155.798,60.476C155.798,61.408 155.916,62.239 156.152,62.971C156.388,63.703 156.73,64.326 157.178,64.841C157.624,65.354 158.172,65.747 158.819,66.019C159.467,66.292 160.201,66.428 161.023,66.428Z" style="fill-rule:nonzero;"/>
                    </g>
                    <g transform="matrix(0.92142,0,0,0.92142,7288.58,240.525)">
                        <path d="M186.498,58.099C188.095,58.099 189.243,57.718 189.945,56.956C190.647,56.193 190.998,55.131 190.998,53.762C190.998,53.159 190.907,52.608 190.725,52.112C190.544,51.616 190.269,51.189 189.9,50.833C189.531,50.475 189.066,50.201 188.503,50.007C187.941,49.813 187.272,49.717 186.498,49.717L183.304,49.717L183.304,58.099L186.498,58.099ZM186.498,45.126C188.36,45.126 189.96,45.346 191.297,45.788C192.634,46.23 193.735,46.838 194.599,47.613C195.464,48.385 196.102,49.3 196.513,50.351C196.925,51.405 197.13,52.542 197.13,53.762C197.13,55.082 196.918,56.292 196.495,57.392C196.072,58.492 195.425,59.436 194.553,60.222C193.683,61.009 192.579,61.622 191.242,62.063C189.906,62.507 188.324,62.725 186.498,62.725L183.304,62.725L183.304,71.562L177.172,71.562L177.172,45.126L186.498,45.126Z" style="fill-rule:nonzero;"/>
                    </g>
                    <g transform="matrix(0.92142,0,0,0.92142,7288.58,240.525)">
                        <path d="M219.919,58.336C219.919,57.029 219.748,55.852 219.41,54.806C219.071,53.759 218.584,52.874 217.95,52.149C217.315,51.423 216.538,50.867 215.618,50.478C214.699,50.092 213.653,49.898 212.479,49.898C211.294,49.898 210.239,50.092 209.313,50.478C208.388,50.867 207.608,51.423 206.973,52.149C206.338,52.874 205.851,53.759 205.512,54.806C205.174,55.852 205.005,57.029 205.005,58.336C205.005,59.653 205.174,60.836 205.512,61.883C205.851,62.928 206.338,63.814 206.973,64.541C207.608,65.265 208.388,65.82 209.313,66.2C210.239,66.582 211.294,66.771 212.479,66.771C213.653,66.771 214.699,66.582 215.618,66.2C216.538,65.82 217.315,65.265 217.95,64.541C218.584,63.814 219.071,62.928 219.41,61.883C219.748,60.836 219.919,59.653 219.919,58.336ZM226.196,58.336C226.196,60.246 225.867,62.024 225.208,63.67C224.548,65.314 223.62,66.744 222.423,67.961C221.225,69.176 219.782,70.129 218.095,70.818C216.407,71.508 214.535,71.852 212.479,71.852C210.423,71.852 208.548,71.508 206.855,70.818C205.161,70.129 203.713,69.176 202.51,67.961C201.306,66.744 200.374,65.314 199.716,63.67C199.056,62.024 198.726,60.246 198.726,58.336C198.726,56.424 199.056,54.645 199.716,53.001C200.374,51.356 201.306,49.929 202.51,48.719C203.713,47.509 205.161,46.559 206.855,45.87C208.548,45.18 210.423,44.836 212.479,44.836C214.535,44.836 216.407,45.183 218.095,45.88C219.782,46.575 221.225,47.527 222.423,48.737C223.62,49.947 224.548,51.374 225.208,53.018C225.867,54.665 226.196,56.436 226.196,58.336Z" style="fill-rule:nonzero;"/>
                    </g>
                    <g transform="matrix(0.92142,0,0,0.92142,7288.58,240.525)">
                        <path d="M238.408,57.554C239.242,57.554 239.952,57.45 240.539,57.237C241.126,57.026 241.607,56.733 241.982,56.358C242.357,55.982 242.629,55.545 242.798,55.042C242.968,54.541 243.053,53.998 243.053,53.418C243.053,52.257 242.674,51.349 241.918,50.696C241.162,50.044 239.992,49.717 238.408,49.717L235.94,49.717L235.94,57.554L238.408,57.554ZM251.435,71.562L245.883,71.562C244.855,71.562 244.116,71.176 243.669,70.401L239.278,62.725C239.073,62.4 238.843,62.16 238.589,62.01C238.335,61.859 237.972,61.783 237.5,61.783L235.94,61.783L235.94,71.562L229.807,71.562L229.807,45.126L238.408,45.126C240.319,45.126 241.948,45.322 243.297,45.716C244.645,46.11 245.746,46.656 246.599,47.358C247.452,48.059 248.072,48.888 248.459,49.843C248.846,50.799 249.04,51.84 249.04,52.964C249.04,53.824 248.925,54.634 248.695,55.396C248.466,56.158 248.126,56.862 247.679,57.509C247.232,58.157 246.678,58.734 246.019,59.243C245.359,59.75 244.6,60.168 243.742,60.494C244.141,60.701 244.516,60.957 244.867,61.266C245.217,61.574 245.532,61.939 245.81,62.363L251.435,71.562Z" style="fill-rule:nonzero;"/>
                    </g>
                    <g transform="matrix(0.92142,0,0,0.92142,7288.58,240.525)">
                        <path d="M276.745,45.126L276.745,71.562L273.552,71.562C273.08,71.562 272.684,71.486 272.364,71.335C272.043,71.183 271.725,70.921 271.411,70.546L258.946,54.779C258.994,55.251 259.028,55.707 259.046,56.148C259.065,56.59 259.074,57.006 259.074,57.392L259.074,71.562L253.666,71.562L253.666,45.126L256.896,45.126C257.162,45.126 257.386,45.138 257.567,45.163C257.748,45.187 257.912,45.232 258.057,45.298C258.202,45.366 258.341,45.459 258.474,45.58C258.607,45.701 258.759,45.863 258.928,46.07L271.501,61.946C271.441,61.438 271.399,60.945 271.375,60.467C271.351,59.99 271.339,59.539 271.339,59.115L271.339,45.126L276.745,45.126Z" style="fill-rule:nonzero;"/>
                    </g>
                    <g transform="matrix(0.92142,0,0,0.92142,7288.58,240.525)">
                        <path d="M301.53,58.336C301.53,57.029 301.36,55.852 301.022,54.806C300.683,53.759 300.196,52.874 299.562,52.149C298.926,51.423 298.149,50.867 297.23,50.478C296.31,50.092 295.264,49.898 294.091,49.898C292.905,49.898 291.85,50.092 290.925,50.478C289.999,50.867 289.22,51.423 288.584,52.149C287.949,52.874 287.462,53.759 287.124,54.806C286.785,55.852 286.616,57.029 286.616,58.336C286.616,59.653 286.785,60.836 287.124,61.883C287.462,62.928 287.949,63.814 288.584,64.541C289.22,65.265 289.999,65.82 290.925,66.2C291.85,66.582 292.905,66.771 294.091,66.771C295.264,66.771 296.31,66.582 297.23,66.2C298.149,65.82 298.926,65.265 299.562,64.541C300.196,63.814 300.683,62.928 301.022,61.883C301.36,60.836 301.53,59.653 301.53,58.336ZM307.807,58.336C307.807,60.246 307.478,62.024 306.819,63.67C306.159,65.314 305.232,66.744 304.034,67.961C302.836,69.176 301.394,70.129 299.706,70.818C298.019,71.508 296.147,71.852 294.091,71.852C292.034,71.852 290.159,71.508 288.467,70.818C286.773,70.129 285.324,69.176 284.12,67.961C282.917,66.744 281.985,65.314 281.326,63.67C280.667,62.024 280.338,60.246 280.338,58.336C280.338,56.424 280.667,54.645 281.326,53.001C281.985,51.356 282.917,49.929 284.12,48.719C285.324,47.509 286.773,46.559 288.467,45.87C290.159,45.18 292.034,44.836 294.091,44.836C296.147,44.836 298.019,45.183 299.706,45.88C301.394,46.575 302.836,47.527 304.034,48.737C305.232,49.947 306.159,51.374 306.819,53.018C307.478,54.665 307.807,56.436 307.807,58.336Z" style="fill-rule:nonzero;"/>
                    </g>
                    <g transform="matrix(0.92142,0,0,0.92142,7288.58,240.759)">
                        <path d="M316.807,44.872L316.807,55.25C316.807,56.363 316.741,57.468 316.607,58.562C316.474,59.657 316.299,60.772 316.081,61.909L312.271,61.909C312.053,60.772 311.878,59.657 311.745,58.562C311.612,57.468 311.545,56.363 311.545,55.25L311.545,44.872L316.807,44.872ZM310.928,68.461C310.928,68.024 311.011,67.62 311.173,67.244C311.337,66.869 311.56,66.542 311.845,66.264C312.129,65.986 312.464,65.765 312.851,65.601C313.239,65.438 313.662,65.356 314.121,65.356C314.57,65.356 314.987,65.438 315.374,65.601C315.761,65.765 316.1,65.986 316.389,66.264C316.68,66.542 316.907,66.869 317.07,67.244C317.234,67.62 317.315,68.024 317.315,68.461C317.315,68.895 317.234,69.302 317.07,69.684C316.907,70.064 316.68,70.395 316.389,70.673C316.1,70.952 315.761,71.17 315.374,71.326C314.987,71.484 314.57,71.562 314.121,71.562C313.662,71.562 313.239,71.484 312.851,71.326C312.464,71.17 312.129,70.952 311.845,70.673C311.56,70.395 311.337,70.064 311.173,69.684C311.011,69.302 310.928,68.895 310.928,68.461Z" style="fill-rule:nonzero;"/>
                    </g>
                </g>
                <g transform="matrix(0.174163,0,0,0.174163,6544.38,-37.179)">
                    <path d="M4628.04,1760L4628.04,1760L4655.75,1744L4683.47,1760C4683.47,1760 4689.01,1756.8 4689.01,1756.8L4738.89,1728L4738.89,1760L4738.89,1760L4766.61,1776L4738.89,1792L4738.89,1792L4738.89,1824L4683.47,1792L4683.47,1824L4766.6,1872L4822.03,1840L4822.03,1808L4863.6,1784L4863.6,2120L4822.03,2096L4822.03,1904L4794.32,1920L4794.32,2080L4766.6,2064L4766.6,1936L4738.89,1952L4738.89,2048L4711.18,2032L4712.11,1967.46L4683.47,1984L4683.47,2128L4655.75,2144L4628.04,2128L4628.04,1984L4600.33,1968L4600.33,2032L4572.61,2048L4572.61,1952L4544.9,1936L4544.9,2064L4517.19,2080L4517.19,1920L4489.48,1904L4489.48,2096L4447.91,2120L4447.91,1784L4489.48,1808L4489.48,1840L4544.9,1872L4628.04,1824L4628.04,1792L4622.5,1795.2L4572.61,1824L4572.61,1792L4572.61,1792L4544.9,1776L4572.61,1760L4572.61,1760L4572.61,1728L4628.04,1760ZM4711.18,1904L4655.75,1872L4600.33,1904L4655.75,1936L4711.18,1904ZM4766.6,1792L4780.46,1784L4794.32,1792L4780.46,1800L4766.6,1792ZM4544.9,1792L4531.05,1784L4517.19,1792L4531.05,1800L4544.9,1792ZM4794.32,1776L4808.17,1768L4822.03,1776L4808.17,1784L4794.32,1776ZM4517.19,1776L4503.34,1768L4489.48,1776L4503.34,1784L4517.19,1776ZM4766.61,1760L4780.46,1752L4794.32,1760L4780.46,1768L4766.61,1760ZM4544.9,1760L4531.05,1752L4517.19,1760L4531.05,1768L4544.9,1760Z"/>
                </g>
            </g>
        </g>
    </g>
</svg>
