<?xml version="1.0" encoding="UTF-8" standalone="no"?>
<!DOCTYPE svg PUBLIC "-//W3C//DTD SVG 1.1//EN" "http://www.w3.org/Graphics/SVG/1.1/DTD/svg11.dtd">
<svg width="100%" height="100%" viewBox="0 0 600 300" version="1.1" xmlns="http://www.w3.org/2000/svg" xmlns:xlink="http://www.w3.org/1999/xlink" xml:space="preserve" xmlns:serif="http://www.serif.com/" style="fill-rule:evenodd;clip-rule:evenodd;stroke-linejoin:round;stroke-miterlimit:2;">
    <g transform="matrix(1,0,0,1,-5200,0)">
        <g id="logo-mitipi" transform="matrix(1,0,0,0.5,0,0)">
            <rect x="5200" y="0" width="600" height="600" style="fill:none;"/>
            <g transform="matrix(0.530779,0,0,1.06156,6305.45,1036.49)">
                <g transform="matrix(0.827398,0,0,0.827398,-1888.46,-8182.04)">
                    <path d="M361.172,9108.66C362.255,9110.51 362.263,9112.8 361.193,9114.67C360.122,9116.53 358.138,9117.68 355.99,9117.68C343.919,9117.68 324.796,9117.68 317.611,9117.68C316.042,9117.68 314.738,9116.47 314.621,9114.9C313.229,9098.53 299.478,9085.67 282.747,9085.67C266.015,9085.67 252.264,9098.53 250.855,9114.9C250.738,9116.46 249.442,9117.66 247.882,9117.66C240.697,9117.68 221.574,9117.68 209.504,9117.68C207.355,9117.68 205.371,9116.53 204.301,9114.67C203.231,9112.8 203.238,9110.51 204.321,9108.66C218.6,9084.18 258.122,9016.43 274.973,8987.54C276.585,8984.77 279.546,8983.07 282.747,8983.07C285.948,8983.07 288.908,8984.77 290.521,8987.54C307.372,9016.43 346.894,9084.18 361.172,9108.66Z"/>
                </g>
                <g transform="matrix(1,0,0,1,-2.25,0)">
                    <g transform="matrix(0.827398,0,0,0.827398,-1888.46,-8182.04)">
                        <path d="M544.799,9025.48L560.965,9025.48L560.965,9036.72L544.799,9036.72L544.799,9064.48C544.806,9065.66 545.304,9067.32 545.304,9067.32C545.328,9067.43 545.356,9067.55 545.384,9067.66C546.01,9069.98 547.685,9071.98 549.842,9073.07C550.769,9073.53 551.819,9073.63 552.876,9073.64L554.951,9073.65L561.064,9073.63L561.064,9085.38L554.924,9085.36L552.839,9085.37C549.384,9085.35 546.129,9084.81 542.104,9082.72C537.795,9080.48 534.344,9076.74 532.35,9072.3L532.298,9072.18C531.388,9069.74 530.933,9067.14 530.916,9064.53L530.916,9036.72L528.79,9036.72C524.463,9036.72 520.954,9033.21 520.954,9028.88C520.954,9026.98 520.954,9025.48 520.954,9025.48L530.916,9025.48L530.916,9011.76L544.799,9011.76L544.799,9025.48Z"/>
                    </g>
                    <g transform="matrix(0.827398,0,0,0.827398,-1888.46,-8182.04)">
                        <path d="M394.403,9085.04L389.355,9085.04C386.968,9085.04 384.679,9084.09 382.991,9082.41C381.303,9080.72 380.355,9078.43 380.355,9076.04C380.355,9059.3 380.355,9025.03 380.355,9025.03L393.729,9025.03L393.729,9032.67C395.977,9029.97 398.787,9027.91 402.158,9026.49C405.53,9025.07 409.276,9024.35 413.397,9024.35C417.893,9024.35 421.883,9025.2 425.367,9026.88C428.851,9028.57 431.604,9031.06 433.627,9034.36C436.1,9031.21 439.284,9028.76 443.181,9026.99C447.077,9025.23 451.385,9024.35 456.105,9024.35C463.673,9024.35 469.667,9026.55 474.088,9030.93C478.508,9035.31 480.719,9041.89 480.719,9050.65L480.719,9085.04L475.67,9085.04C473.283,9085.04 470.994,9084.09 469.306,9082.41C467.618,9080.72 466.67,9078.43 466.67,9076.04C466.67,9066.4 466.67,9052.45 466.67,9052.45C466.67,9047.21 465.509,9043.25 463.186,9040.59C460.863,9037.93 457.529,9036.6 453.183,9036.6C448.463,9036.6 444.679,9038.16 441.832,9041.27C438.985,9044.38 437.561,9048.82 437.561,9054.59L437.561,9085.04L432.512,9085.04C430.125,9085.04 427.836,9084.09 426.148,9082.41C424.461,9080.72 423.512,9078.43 423.512,9076.04C423.512,9066.4 423.512,9052.45 423.512,9052.45C423.512,9047.21 422.351,9043.25 420.028,9040.59C417.705,9037.93 414.371,9036.6 410.026,9036.6C405.23,9036.6 401.428,9038.14 398.618,9041.21C395.808,9044.28 394.403,9048.74 394.403,9054.59L394.403,9085.04Z"/>
                    </g>
                    <g transform="matrix(0.827398,0,0,0.827398,-1888.46,-8182.04)">
                        <path d="M510.558,9085.04L505.509,9085.04C503.123,9085.04 500.833,9084.09 499.145,9082.41C497.458,9080.72 496.509,9078.43 496.509,9076.04C496.509,9059.3 496.509,9025.03 496.509,9025.03L510.558,9025.03L510.558,9085.04Z"/>
                    </g>
                    <g transform="matrix(0.827398,0,0,0.827398,-1888.46,-8182.04)">
                        <path d="M694.776,9085.04L689.728,9085.04C687.341,9085.04 685.052,9084.09 683.364,9082.41C681.676,9080.72 680.728,9078.43 680.728,9076.04C680.728,9059.3 680.728,9025.03 680.728,9025.03L694.776,9025.03L694.776,9085.04Z"/>
                    </g>
                    <g transform="matrix(0.827398,0,0,0.827398,-1888.46,-8182.04)">
                        <path d="M588.568,9085.04L583.519,9085.04C581.132,9085.04 578.843,9084.09 577.155,9082.41C575.468,9080.72 574.519,9078.43 574.519,9076.04C574.519,9059.3 574.519,9025.03 574.519,9025.03L588.568,9025.03L588.568,9085.04Z"/>
                    </g>
                    <g transform="matrix(0.827398,0,0,0.827398,-1888.46,-8182.04)">
                        <path d="M503.534,9014.91C501.209,9014.91 499.261,9014.13 497.689,9012.56C496.116,9010.99 495.33,9009.04 495.33,9006.71C495.33,9004.37 496.116,9002.42 497.689,9000.86C499.261,8999.29 501.209,8998.5 503.534,8998.5C505.858,8998.5 507.806,8999.25 509.379,9000.75C510.951,9002.24 511.737,9004.12 511.737,9006.38C511.737,9008.79 510.968,9010.81 509.43,9012.45C507.892,9014.09 505.927,9014.91 503.534,9014.91Z"/>
                    </g>
                    <g transform="matrix(0.827398,0,0,0.827398,-1888.46,-8182.04)">
                        <path d="M581.544,9014.91C579.219,9014.91 577.271,9014.13 575.699,9012.56C574.126,9010.99 573.34,9009.04 573.34,9006.71C573.34,9004.37 574.126,9002.42 575.699,9000.86C577.271,8999.29 579.219,8998.5 581.544,8998.5C583.868,8998.5 585.816,8999.25 587.389,9000.75C588.961,9002.24 589.747,9004.12 589.747,9006.38C589.747,9008.79 588.978,9010.81 587.44,9012.45C585.902,9014.09 583.937,9014.91 581.544,9014.91Z"/>
                    </g>
                    <g transform="matrix(0.827398,0,0,0.827398,-1888.46,-8182.04)">
                        <path d="M687.752,9014.91C685.428,9014.91 683.479,9014.13 681.907,9012.56C680.335,9010.99 679.549,9009.04 679.549,9006.71C679.549,9004.37 680.335,9002.42 681.907,9000.86C683.479,8999.29 685.428,8998.5 687.752,8998.5C690.076,8998.5 692.025,8999.25 693.597,9000.75C695.17,9002.24 695.956,9004.12 695.956,9006.38C695.956,9008.79 695.187,9010.81 693.648,9012.45C692.11,9014.09 690.145,9014.91 687.752,9014.91Z"/>
                    </g>
                    <path d="M-1376.51,-647.054L-1380.69,-647.054C-1382.67,-647.054 -1384.56,-647.839 -1385.96,-649.235C-1387.35,-650.632 -1388.14,-652.526 -1388.14,-654.501C-1388.14,-672.092 -1388.14,-714.752 -1388.14,-714.752L-1377.07,-714.752L-1377.07,-708.242C-1375.15,-710.598 -1372.78,-712.365 -1369.96,-713.543C-1367.14,-714.721 -1364.02,-715.31 -1360.61,-715.31C-1355.78,-715.31 -1351.45,-714.256 -1347.64,-712.148C-1343.83,-710.04 -1340.84,-707.064 -1338.67,-703.221C-1336.5,-699.377 -1335.41,-694.945 -1335.41,-689.923C-1335.41,-684.902 -1336.5,-680.453 -1338.67,-676.579C-1340.84,-672.704 -1343.83,-669.713 -1347.64,-667.605C-1351.45,-665.497 -1355.78,-664.444 -1360.61,-664.444C-1367.31,-664.444 -1372.61,-666.675 -1376.51,-671.139L-1376.51,-647.054ZM-1361.91,-674.394C-1357.64,-674.394 -1354.12,-675.819 -1351.36,-678.671C-1348.6,-681.523 -1347.22,-685.274 -1347.22,-689.923C-1347.22,-694.573 -1348.6,-698.323 -1351.36,-701.175C-1354.12,-704.027 -1357.64,-705.453 -1361.91,-705.453C-1364.7,-705.453 -1367.21,-704.817 -1369.45,-703.546C-1371.68,-702.275 -1373.45,-700.462 -1374.75,-698.106C-1376.05,-695.751 -1376.7,-693.023 -1376.7,-689.923C-1376.7,-686.823 -1376.05,-684.096 -1374.75,-681.74C-1373.45,-679.384 -1371.68,-677.571 -1369.45,-676.3C-1367.21,-675.029 -1364.7,-674.394 -1361.91,-674.394Z"/>
                </g>
            </g>
        </g>
    </g>
</svg>
