<?xml version="1.0" encoding="UTF-8" standalone="no"?>
<!DOCTYPE svg PUBLIC "-//W3C//DTD SVG 1.1//EN" "http://www.w3.org/Graphics/SVG/1.1/DTD/svg11.dtd">
<svg width="100%" height="100%" viewBox="0 0 2500 1250" version="1.1" xmlns="http://www.w3.org/2000/svg" xmlns:xlink="http://www.w3.org/1999/xlink" xml:space="preserve" xmlns:serif="http://www.serif.com/" style="fill-rule:evenodd;clip-rule:evenodd;stroke-linejoin:round;stroke-miterlimit:2;">
    <rect id="logo-stellar" x="0" y="0" width="2500" height="1250" style="fill:none;"/>
    <g id="logo-stellar1" serif:id="logo-stellar">
        <g>
            <g>
                <path d="M1051.4,704.353c-8.685,-0 -17.045,-1.167 -25.079,-3.501c-8.034,-2.334 -14.71,-5.564 -20.03,-9.69l8.142,-18.076c11.074,7.708 23.505,11.562 37.292,11.562c7.166,0 12.675,-1.167 16.529,-3.501c3.854,-2.334 5.781,-5.564 5.781,-9.689c0,-3.691 -1.764,-6.568 -5.292,-8.631c-3.528,-2.063 -9.798,-4.071 -18.809,-6.025c-10.096,-2.063 -18.157,-4.56 -24.183,-7.491c-6.025,-2.932 -10.422,-6.541 -13.19,-10.83c-2.769,-4.288 -4.153,-9.581 -4.153,-15.877c0,-6.948 1.927,-13.137 5.781,-18.565c3.854,-5.428 9.255,-9.689 16.203,-12.783c6.949,-3.095 14.982,-4.642 24.102,-4.642c8.142,0 15.986,1.195 23.531,3.583c7.545,2.389 13.544,5.591 17.995,9.608l-8.143,18.076c-10.53,-7.708 -21.604,-11.562 -33.22,-11.562c-6.623,-0 -11.834,1.276 -15.634,3.827c-3.799,2.551 -5.699,6.052 -5.699,10.503c-0,2.606 0.732,4.75 2.198,6.433c1.466,1.683 3.908,3.175 7.328,4.478c3.42,1.303 8.278,2.66 14.575,4.071c14.765,3.257 25.377,7.437 31.837,12.54c6.459,5.102 9.689,12.159 9.689,21.17c0,10.856 -4.18,19.406 -12.539,25.648c-8.36,6.243 -20.03,9.364 -35.012,9.364Z" style="fill:#1a1a1a;fill-rule:nonzero;"/>
                <path d="M1157.9,686.114c2.497,0 5.102,-0.163 7.816,-0.488l-1.302,17.913c-3.149,0.434 -6.297,0.651 -9.446,0.651c-12.159,0 -21.034,-2.66 -26.625,-7.979c-5.591,-5.32 -8.387,-13.408 -8.387,-24.265l0,-30.615l-15.144,0l-0,-18.402l15.144,0l0,-23.45l24.59,0l0,23.45l20.03,0l0,18.402l-20.03,0l0,30.452c0,9.554 4.451,14.331 13.354,14.331Z" style="fill:#1a1a1a;fill-rule:nonzero;"/>
                <path d="M1248.61,667.549l-52.112,0c0.76,6.406 2.85,11.047 6.27,13.924c3.42,2.877 8.278,4.315 14.575,4.315c4.125,0 8.224,-0.678 12.295,-2.035c4.071,-1.357 7.789,-3.284 11.155,-5.781l6.514,16.447c-3.909,3.04 -8.658,5.428 -14.249,7.166c-5.591,1.737 -11.21,2.605 -16.855,2.605c-13.462,0 -24.074,-3.718 -31.837,-11.155c-7.762,-7.437 -11.643,-17.56 -11.643,-30.371c-0,-8.142 1.683,-15.362 5.048,-21.659c3.366,-6.296 8.034,-11.209 14.005,-14.737c5.971,-3.529 12.756,-5.293 20.356,-5.293c11.182,0 20.057,3.637 26.625,10.911c6.568,7.274 9.853,17.153 9.853,29.638l-0,6.025Zm-35.827,-29.638c-4.668,0 -8.386,1.493 -11.155,4.479c-2.768,2.985 -4.478,7.301 -5.13,12.946l31.43,-0c-0.326,-5.754 -1.764,-10.097 -4.315,-13.028c-2.552,-2.931 -6.162,-4.397 -10.83,-4.397Z" style="fill:#1a1a1a;fill-rule:nonzero;"/>
                <rect x="1263.42" y="588.08" width="24.59" height="114.807" style="fill:#1a1a1a;fill-rule:nonzero;"/>
                <rect x="1306.9" y="588.08" width="24.59" height="114.807" style="fill:#1a1a1a;fill-rule:nonzero;"/>
                <path d="M1431.32,622.929l0,79.958l-24.427,0l-0,-11.888c-2.388,4.126 -5.781,7.356 -10.178,9.69c-4.397,2.334 -9.364,3.501 -14.9,3.501c-6.949,0 -13.083,-1.683 -18.402,-5.048c-5.32,-3.366 -9.472,-8.17 -12.458,-14.412c-2.986,-6.243 -4.478,-13.489 -4.478,-21.74c-0,-8.251 1.492,-15.552 4.478,-21.903c2.986,-6.351 7.165,-11.291 12.539,-14.819c5.374,-3.529 11.481,-5.293 18.321,-5.293c5.536,0 10.503,1.167 14.9,3.501c4.397,2.335 7.79,5.564 10.178,9.69l-0,-11.237l24.427,0Zm-42.34,62.534c5.754,-0 10.178,-1.955 13.272,-5.863c3.094,-3.908 4.641,-9.554 4.641,-16.936c-0,-7.382 -1.547,-13.055 -4.641,-17.017c-3.094,-3.963 -7.518,-5.944 -13.272,-5.944c-5.754,-0 -10.205,2.035 -13.354,6.106c-3.148,4.072 -4.722,9.798 -4.722,17.181c-0,7.274 1.574,12.838 4.722,16.692c3.149,3.854 7.6,5.781 13.354,5.781Z" style="fill:#1a1a1a;fill-rule:nonzero;"/>
                <path d="M1507.37,641.168l-13.842,1.466c-6.84,0.651 -11.671,2.578 -14.494,5.781c-2.822,3.203 -4.234,7.464 -4.234,12.783l0,41.689l-24.59,0l0,-79.958l23.613,0l0,13.517c4.017,-9.228 12.322,-14.277 24.916,-15.145l7.165,-0.489l1.466,20.356Z" style="fill:#1a1a1a;fill-rule:nonzero;"/>
                <path d="M1582.29,704.353c-8.685,-0 -17.044,-1.167 -25.078,-3.501c-8.034,-2.334 -14.711,-5.564 -20.03,-9.69l8.142,-18.076c11.074,7.708 23.504,11.562 37.292,11.562c7.165,0 12.675,-1.167 16.529,-3.501c3.854,-2.334 5.781,-5.564 5.781,-9.689c0,-3.691 -1.764,-6.568 -5.292,-8.631c-3.529,-2.063 -9.798,-4.071 -18.809,-6.025c-10.097,-2.063 -18.158,-4.56 -24.183,-7.491c-6.025,-2.932 -10.422,-6.541 -13.191,-10.83c-2.768,-4.288 -4.152,-9.581 -4.152,-15.877c-0,-6.948 1.927,-13.137 5.781,-18.565c3.854,-5.428 9.255,-9.689 16.203,-12.783c6.948,-3.095 14.982,-4.642 24.102,-4.642c8.142,0 15.986,1.195 23.531,3.583c7.545,2.389 13.543,5.591 17.995,9.608l-8.143,18.076c-10.531,-7.708 -21.604,-11.562 -33.221,-11.562c-6.622,-0 -11.833,1.276 -15.633,3.827c-3.8,2.551 -5.7,6.052 -5.7,10.503c0,2.606 0.733,4.75 2.199,6.433c1.465,1.683 3.908,3.175 7.328,4.478c3.42,1.303 8.278,2.66 14.575,4.071c14.765,3.257 25.377,7.437 31.836,12.54c6.46,5.102 9.69,12.159 9.69,21.17c-0,10.856 -4.18,19.406 -12.539,25.648c-8.36,6.243 -20.031,9.364 -35.013,9.364Z" style="fill:#1a1a1a;fill-rule:nonzero;"/>
                <path d="M1681.3,704.19c-8.469,0 -15.905,-1.71 -22.311,-5.13c-6.405,-3.419 -11.345,-8.251 -14.819,-14.493c-3.474,-6.242 -5.211,-13.598 -5.211,-22.066c0,-8.468 1.737,-15.823 5.211,-22.066c3.474,-6.242 8.414,-11.046 14.819,-14.412c6.406,-3.365 13.842,-5.048 22.311,-5.048c8.468,0 15.904,1.683 22.31,5.048c6.405,3.366 11.345,8.17 14.819,14.412c3.474,6.243 5.211,13.598 5.211,22.066c-0,8.468 -1.737,15.824 -5.211,22.066c-3.474,6.242 -8.414,11.074 -14.819,14.493c-6.406,3.42 -13.842,5.13 -22.31,5.13Zm-0,-18.727c11.942,-0 17.913,-7.654 17.913,-22.962c-0,-7.708 -1.547,-13.462 -4.641,-17.262c-3.095,-3.799 -7.519,-5.699 -13.272,-5.699c-11.943,-0 -17.914,7.654 -17.914,22.961c0,15.308 5.971,22.962 17.914,22.962Z" style="fill:#1a1a1a;fill-rule:nonzero;"/>
                <path d="M1800.51,622.929l-0,-23.45l24.59,0l-0,23.45l20.03,0l-0,18.402l-20.03,0l-0,30.452c-0,9.554 4.451,14.331 13.353,14.331c2.497,0 5.103,-0.163 7.817,-0.488l-1.303,17.913c-3.148,0.434 -6.297,0.651 -9.445,0.651c-12.159,0 -21.035,-2.66 -26.626,-7.979c-5.591,-5.32 -8.386,-13.408 -8.386,-24.265l-0,-30.615l-31.756,0l0,61.556l-24.589,0l-0,-61.556l-15.145,0l-0,-18.402l15.145,0c0.217,-11.29 3.501,-19.786 9.852,-25.485c6.351,-5.7 16.04,-8.93 29.068,-9.69l8.957,-0.488l1.465,18.076l-7.654,0.326c-6.296,0.217 -10.72,1.384 -13.272,3.501c-2.551,2.117 -3.827,5.618 -3.827,10.503l0,3.257l31.756,0Z" style="fill:#1a1a1a;fill-rule:nonzero;"/>
            </g>
            <path d="M710.239,768.833c-0.941,0.495 -2.071,0.469 -2.989,-0.069c-0.917,-0.537 -1.493,-1.51 -1.522,-2.573c-0.365,-29.96 1.966,-188.771 88.911,-282.421c1.749,-1.887 4.207,-2.959 6.78,-2.956c2.574,0.002 5.03,1.078 6.776,2.969c86.671,93.707 89.235,252.424 88.915,282.399c-0.028,1.064 -0.602,2.038 -1.52,2.576c-0.917,0.538 -2.048,0.564 -2.989,0.069c-16.545,-8.696 -74.7,-39.27 -88.312,-46.426c-1.794,-0.944 -3.937,-0.944 -5.731,-0c-13.614,7.157 -71.785,37.739 -88.319,46.432Zm120.434,-137.487c-0,-16.153 -13.095,-29.249 -29.248,-29.249c-16.155,-0 -29.25,13.096 -29.25,29.249c0,16.154 13.095,29.249 29.25,29.249c16.153,0 29.248,-13.095 29.248,-29.249Zm-118.629,-51.636c1.065,-0.155 2.133,0.257 2.818,1.087c0.684,0.83 0.886,1.957 0.533,2.972c-5.352,15.517 -10.277,32.736 -14.461,51.771c-0.238,1.093 -1.051,1.97 -2.122,2.292c-1.071,0.321 -2.233,0.037 -3.034,-0.744c-8.484,-8.27 -28.488,-27.769 -40.183,-39.168c-1.678,-1.636 -2.282,-4.084 -1.558,-6.313c0.724,-2.229 2.651,-3.853 4.971,-4.191c15.692,-2.28 42.058,-6.111 53.036,-7.706Zm231.795,7.706c2.32,0.338 4.247,1.962 4.971,4.191c0.724,2.229 0.12,4.677 -1.558,6.313c-11.692,11.397 -31.69,30.89 -40.173,39.159c-0.801,0.781 -1.963,1.066 -3.035,0.744c-1.071,-0.322 -1.884,-1.199 -2.122,-2.292c-4.18,-19.029 -9.101,-36.242 -14.454,-51.759c-0.354,-1.016 -0.152,-2.143 0.532,-2.972c0.685,-0.83 1.753,-1.242 2.817,-1.088c10.977,1.595 37.334,5.425 53.022,7.704Z"/>
        </g>
    </g>
</svg>
