<?xml version="1.0" encoding="UTF-8" standalone="no"?><!DOCTYPE svg PUBLIC "-//W3C//DTD SVG 1.1//EN" "http://www.w3.org/Graphics/SVG/1.1/DTD/svg11.dtd"><svg width="100%" height="100%" viewBox="0 0 600 600" version="1.1" xmlns="http://www.w3.org/2000/svg" xmlns:xlink="http://www.w3.org/1999/xlink" xml:space="preserve" xmlns:serif="http://www.serif.com/" style="fill-rule:evenodd;clip-rule:evenodd;stroke-linejoin:round;stroke-miterlimit:2;"><rect id="logo-macrame" x="0" y="0" width="600" height="600" style="fill:none;"/><g id="logo-macrame1" serif:id="logo-macrame"><g><g><path d="M274.605,314.383l-0.041,-16.997l-8.336,14.002l-2.954,0l-8.296,-13.637l0,16.632l-6.151,0l0,-28.327l5.423,0l10.602,17.603l10.441,-17.603l5.382,0l0.081,28.327l-6.151,0Z" style="fill:#fff;fill-rule:nonzero;"/><path d="M295.809,292.287c3.373,0 5.963,0.803 7.77,2.408c1.808,1.605 2.712,4.027 2.712,7.264l0,12.424l-5.909,0l0,-2.712c-1.187,2.024 -3.399,3.035 -6.636,3.035c-1.673,0 -3.123,-0.283 -4.351,-0.849c-1.227,-0.567 -2.165,-1.349 -2.812,-2.348c-0.648,-0.998 -0.971,-2.131 -0.971,-3.399c0,-2.023 0.762,-3.615 2.286,-4.775c1.524,-1.16 3.878,-1.74 7.062,-1.74l5.018,0c0,-1.376 -0.419,-2.435 -1.255,-3.177c-0.836,-0.742 -2.091,-1.113 -3.763,-1.113c-1.16,0 -2.3,0.183 -3.42,0.547c-1.119,0.364 -2.07,0.856 -2.853,1.477l-2.266,-4.411c1.187,-0.836 2.61,-1.484 4.269,-1.943c1.66,-0.458 3.366,-0.688 5.119,-0.688Zm-0.485,18.17c1.079,0 2.037,-0.249 2.873,-0.748c0.836,-0.499 1.43,-1.235 1.781,-2.206l0,-2.226l-4.33,0c-2.59,0 -3.885,0.85 -3.885,2.55c0,0.809 0.317,1.45 0.951,1.922c0.634,0.472 1.504,0.708 2.61,0.708Z" style="fill:#fff;fill-rule:nonzero;"/><path d="M322.761,314.706c-2.32,0 -4.405,-0.479 -6.253,-1.436c-1.848,-0.958 -3.291,-2.287 -4.33,-3.986c-1.038,-1.7 -1.558,-3.629 -1.558,-5.787c0,-2.158 0.52,-4.087 1.558,-5.787c1.039,-1.7 2.482,-3.028 4.33,-3.986c1.848,-0.958 3.933,-1.437 6.253,-1.437c2.293,0 4.296,0.479 6.009,1.437c1.713,0.958 2.961,2.327 3.743,4.107l-4.896,2.631c-1.133,-1.997 -2.766,-2.995 -4.897,-2.995c-1.645,0 -3.008,0.54 -4.087,1.619c-1.079,1.079 -1.619,2.549 -1.619,4.411c0,1.861 0.54,3.332 1.619,4.411c1.079,1.079 2.442,1.619 4.087,1.619c2.158,0 3.791,-0.999 4.897,-2.995l4.896,2.671c-0.782,1.726 -2.03,3.075 -3.743,4.047c-1.713,0.971 -3.716,1.456 -6.009,1.456Z" style="fill:#fff;fill-rule:nonzero;"/><path d="M342.185,295.484c0.755,-1.052 1.774,-1.848 3.055,-2.387c1.282,-0.54 2.759,-0.81 4.431,-0.81l0,5.828c-0.701,-0.054 -1.173,-0.081 -1.416,-0.081c-1.808,0 -3.224,0.506 -4.249,1.517c-1.025,1.012 -1.538,2.53 -1.538,4.553l0,10.279l-6.313,0l0,-21.772l6.03,0l0,2.873Z" style="fill:#fff;fill-rule:nonzero;"/><path d="M362.095,292.287c3.372,0 5.962,0.803 7.77,2.408c1.807,1.605 2.711,4.027 2.711,7.264l0,12.424l-5.908,0l0,-2.712c-1.187,2.024 -3.4,3.035 -6.637,3.035c-1.673,0 -3.123,-0.283 -4.35,-0.849c-1.228,-0.567 -2.165,-1.349 -2.813,-2.348c-0.647,-0.998 -0.971,-2.131 -0.971,-3.399c0,-2.023 0.762,-3.615 2.286,-4.775c1.525,-1.16 3.879,-1.74 7.062,-1.74l5.018,0c0,-1.376 -0.418,-2.435 -1.255,-3.177c-0.836,-0.742 -2.09,-1.113 -3.763,-1.113c-1.16,0 -2.3,0.183 -3.419,0.547c-1.12,0.364 -2.071,0.856 -2.853,1.477l-2.267,-4.411c1.187,-0.836 2.611,-1.484 4.27,-1.943c1.659,-0.458 3.365,-0.688 5.119,-0.688Zm-0.486,18.17c1.079,0 2.037,-0.249 2.873,-0.748c0.837,-0.499 1.43,-1.235 1.781,-2.206l0,-2.226l-4.33,0c-2.59,0 -3.885,0.85 -3.885,2.55c0,0.809 0.317,1.45 0.951,1.922c0.634,0.472 1.504,0.708 2.61,0.708Z" style="fill:#fff;fill-rule:nonzero;"/><path d="M406.164,292.287c2.724,0 4.889,0.803 6.495,2.408c1.605,1.605 2.407,4.013 2.407,7.224l0,12.464l-6.312,0l0,-11.493c0,-1.727 -0.358,-3.015 -1.073,-3.865c-0.715,-0.85 -1.733,-1.274 -3.055,-1.274c-1.484,0 -2.657,0.478 -3.521,1.436c-0.863,0.958 -1.295,2.381 -1.295,4.269l0,10.927l-6.313,0l0,-11.493c0,-3.426 -1.376,-5.139 -4.127,-5.139c-1.457,0 -2.617,0.478 -3.48,1.436c-0.864,0.958 -1.295,2.381 -1.295,4.269l0,10.927l-6.313,0l0,-21.772l6.029,0l0,2.509c0.81,-0.917 1.801,-1.618 2.975,-2.104c1.173,-0.486 2.461,-0.729 3.864,-0.729c1.538,0 2.927,0.304 4.168,0.911c1.241,0.607 2.24,1.491 2.995,2.651c0.89,-1.133 2.017,-2.01 3.379,-2.631c1.362,-0.62 2.853,-0.931 4.472,-0.931Z" style="fill:#fff;fill-rule:nonzero;"/><path d="M442.301,303.578c0,0.081 -0.041,0.647 -0.122,1.699l-16.47,0c0.297,1.349 0.998,2.415 2.105,3.197c1.106,0.783 2.482,1.174 4.127,1.174c1.133,0 2.138,-0.169 3.015,-0.506c0.877,-0.337 1.693,-0.87 2.448,-1.598l3.359,3.642c-2.05,2.347 -5.045,3.52 -8.984,3.52c-2.455,0 -4.626,-0.479 -6.515,-1.436c-1.888,-0.958 -3.345,-2.287 -4.37,-3.986c-1.025,-1.7 -1.538,-3.629 -1.538,-5.787c0,-2.131 0.506,-4.054 1.517,-5.767c1.012,-1.713 2.401,-3.048 4.169,-4.006c1.767,-0.958 3.743,-1.437 5.928,-1.437c2.131,0 4.06,0.459 5.787,1.376c1.726,0.918 3.082,2.233 4.067,3.946c0.984,1.713 1.477,3.703 1.477,5.969Zm-11.291,-6.515c-1.429,0 -2.63,0.404 -3.601,1.214c-0.971,0.809 -1.565,1.915 -1.781,3.318l10.724,0c-0.216,-1.376 -0.809,-2.475 -1.78,-3.298c-0.972,-0.823 -2.159,-1.234 -3.562,-1.234Zm1.619,-13.071l6.799,0l-6.067,5.827l-4.937,0l4.205,-5.827Z" style="fill:#fff;fill-rule:nonzero;"/></g><path d="M176.561,262.202c5.729,0.081 10.852,5.397 10.477,11.273c-0.166,2.6 -1.324,5.107 -3.217,6.95l-3.061,2.95l13.125,13.46l13.124,-13.46c-1.613,-1.555 -3.404,-2.984 -4.578,-4.784c-3.766,-5.775 -0.175,-14.993 7.085,-16.237c5.578,-0.957 11.542,3.318 12.301,9.059c0.413,3.126 -0.667,6.404 -2.85,8.705c0,0 -3.04,3.119 -3.04,3.119c4.085,3.937 8.385,7.658 10.955,12.542c4.275,8.127 4.157,18.294 -0.065,26.486c-2.437,4.727 -5.638,9.054 -9.323,12.916l-0.176,0.182l-2.36,2.435l-4.515,-4.375c4.75,-4.901 9.4,-9.992 11.933,-16.553c3.075,-7.962 1.044,-17.584 -5.184,-23.682c0,0 -5.655,-5.45 -5.655,-5.45l-13.261,13.6c1.557,1.597 3.295,3.072 4.408,4.885c3.292,5.367 0.388,13.569 -6.059,15.344c-5.583,1.537 -12.072,-2.598 -12.948,-8.418c-0.466,-3.096 0.566,-6.367 2.752,-8.668c0,0 3.065,-3.143 3.065,-3.143l-13.261,-13.599c-3.638,3.509 -7.572,6.737 -9.824,11.067c-3.662,7.039 -2.769,15.757 1.342,22.763c1.932,3.293 4.288,6.327 6.909,9.099l0.315,0.329l2.351,2.428l-4.518,4.373c-5.565,-5.749 -10.969,-11.819 -13.661,-19.735c-3.406,-10.014 -0.703,-21.794 7.051,-29.376c1.627,-1.574 3.257,-3.145 4.886,-4.717l0.759,-0.732c-2.651,-2.72 -5.406,-5.442 -5.887,-9.041c-0.777,-5.804 3.919,-11.786 10.202,-11.992c0.134,-0.003 0.269,-0.004 0.403,-0.003Zm14.44,46.596c-2.231,2.306 -0.393,7.28 3.375,6.822c2.916,-0.355 4.684,-4.453 2.393,-6.822l-2.884,-2.957c-0.962,0.986 -1.923,1.972 -2.884,2.957Zm-14.587,-40.309c-3.299,0.045 -5.588,4.615 -3.068,7.283c0,0 3.024,3.102 3.024,3.102c2.223,-2.143 4.955,-4.239 4.286,-7.067c-0.436,-1.844 -2.204,-3.271 -4.113,-3.317c-0.043,-0.001 -0.086,-0.001 -0.129,-0.001Zm34.852,0c-1.879,0.027 -3.639,1.387 -4.124,3.203c-0.396,1.481 0.068,3.134 1.181,4.218l3.076,2.964c1.887,-1.936 4.269,-3.747 4.219,-6.173c-0.045,-2.224 -2.02,-4.222 -4.352,-4.212Z" style="fill:#fff;"/></g></g></svg>
