<?xml version="1.0" encoding="UTF-8" standalone="no"?>
<!DOCTYPE svg PUBLIC "-//W3C//DTD SVG 1.1//EN" "http://www.w3.org/Graphics/SVG/1.1/DTD/svg11.dtd">
<svg width="100%" height="100%" viewBox="0 0 600 300" version="1.1" xmlns="http://www.w3.org/2000/svg" xmlns:xlink="http://www.w3.org/1999/xlink" xml:space="preserve" xmlns:serif="http://www.serif.com/" style="fill-rule:evenodd;clip-rule:evenodd;stroke-linejoin:round;stroke-miterlimit:2;">
    <g transform="matrix(1,0,0,1,-3250,0)">
        <g id="logo-jrs" transform="matrix(1,0,0,0.5,0,0)">
            <rect x="3250" y="0" width="600" height="600" style="fill:none;"/>
            <g transform="matrix(0.334882,0,0,0.669764,2970.59,15.6072)">
                <g transform="matrix(0.564832,0,0,0.564832,535.127,179.703)">
                    <g transform="matrix(119.994,0,0,119.994,2142.33,355.379)">
                        <path d="M0.27,0.01C0.221,0.01 0.177,0.002 0.14,-0.015C0.103,-0.032 0.073,-0.057 0.052,-0.092C0.031,-0.126 0.019,-0.17 0.017,-0.223L0.018,-0.226L0.152,-0.226C0.154,-0.18 0.165,-0.147 0.183,-0.129C0.201,-0.11 0.226,-0.101 0.256,-0.101C0.275,-0.101 0.293,-0.105 0.307,-0.114C0.322,-0.122 0.334,-0.135 0.343,-0.152C0.351,-0.168 0.355,-0.189 0.355,-0.213L0.355,-0.61L0.26,-0.625L0.26,-0.711L0.574,-0.711L0.574,-0.625L0.498,-0.61L0.498,-0.213C0.498,-0.168 0.489,-0.128 0.471,-0.095C0.454,-0.061 0.428,-0.035 0.394,-0.017C0.36,0.001 0.319,0.01 0.27,0.01Z" style="fill-rule:nonzero;"/>
                    </g>
                    <g transform="matrix(119.994,0,0,119.994,2206.9,355.379)">
                        <path d="M0.02,0L0.02,-0.085L0.071,-0.093L0.297,-0.711L0.443,-0.711L0.667,-0.093L0.718,-0.085L0.718,0L0.476,0L0.476,-0.085L0.525,-0.094L0.494,-0.192L0.244,-0.192L0.213,-0.094L0.262,-0.085L0.262,0L0.02,0ZM0.278,-0.297L0.46,-0.297L0.377,-0.541L0.371,-0.562L0.368,-0.562L0.36,-0.539L0.278,-0.297Z" style="fill-rule:nonzero;"/>
                    </g>
                    <g transform="matrix(119.994,0,0,119.994,2295.49,355.379)">
                        <path d="M0.027,0L0.027,-0.085L0.103,-0.1L0.103,-0.61L0.027,-0.625L0.027,-0.711L0.366,-0.711C0.42,-0.711 0.467,-0.701 0.506,-0.682C0.546,-0.663 0.576,-0.637 0.597,-0.603C0.618,-0.569 0.629,-0.529 0.629,-0.484C0.629,-0.439 0.618,-0.399 0.597,-0.365C0.576,-0.331 0.546,-0.305 0.506,-0.286C0.467,-0.267 0.42,-0.258 0.366,-0.258L0.246,-0.258L0.246,-0.1L0.322,-0.085L0.322,0L0.027,0ZM0.246,-0.368L0.366,-0.368C0.405,-0.368 0.435,-0.378 0.456,-0.4C0.476,-0.422 0.486,-0.449 0.486,-0.483C0.486,-0.517 0.476,-0.545 0.456,-0.568C0.435,-0.59 0.405,-0.601 0.366,-0.601L0.246,-0.601L0.246,-0.368Z" style="fill-rule:nonzero;"/>
                    </g>
                    <g transform="matrix(119.994,0,0,119.994,2359.29,355.379)">
                        <path d="M0.02,0L0.02,-0.085L0.071,-0.093L0.297,-0.711L0.443,-0.711L0.667,-0.093L0.718,-0.085L0.718,0L0.476,0L0.476,-0.085L0.525,-0.094L0.494,-0.192L0.244,-0.192L0.213,-0.094L0.262,-0.085L0.262,0L0.02,0ZM0.278,-0.297L0.46,-0.297L0.377,-0.541L0.371,-0.562L0.368,-0.562L0.36,-0.539L0.278,-0.297Z" style="fill-rule:nonzero;"/>
                    </g>
                    <g transform="matrix(119.994,0,0,119.994,2447.88,355.379)">
                        <path d="M0.027,0L0.027,-0.085L0.103,-0.1L0.103,-0.61L0.027,-0.625L0.027,-0.711L0.248,-0.711L0.557,-0.218L0.56,-0.218L0.56,-0.61L0.469,-0.625L0.469,-0.711L0.764,-0.711L0.764,-0.625L0.688,-0.61L0.688,0L0.55,0L0.233,-0.488L0.23,-0.488L0.23,-0.1L0.322,-0.085L0.322,0L0.027,0Z" style="fill-rule:nonzero;"/>
                    </g>
                    <g transform="matrix(119.994,0,0,119.994,2142.33,475.373)">
                        <path d="M0.027,0L0.027,-0.085L0.103,-0.1L0.103,-0.61L0.027,-0.625L0.027,-0.711L0.364,-0.711C0.419,-0.711 0.466,-0.702 0.505,-0.686C0.544,-0.669 0.574,-0.644 0.595,-0.613C0.616,-0.581 0.626,-0.543 0.626,-0.499C0.626,-0.457 0.616,-0.42 0.595,-0.387C0.574,-0.354 0.545,-0.328 0.508,-0.31C0.471,-0.291 0.428,-0.281 0.38,-0.281L0.246,-0.281L0.246,-0.1L0.322,-0.085L0.322,0L0.027,0ZM0.485,0L0.365,-0.307L0.494,-0.339L0.597,-0.1L0.658,-0.085L0.658,0L0.485,0ZM0.246,-0.391L0.362,-0.391C0.403,-0.391 0.434,-0.399 0.454,-0.417C0.474,-0.434 0.484,-0.459 0.484,-0.493C0.484,-0.526 0.474,-0.552 0.454,-0.572C0.434,-0.591 0.404,-0.601 0.364,-0.601L0.246,-0.601L0.246,-0.391Z" style="fill-rule:nonzero;"/>
                    </g>
                    <g transform="matrix(119.994,0,0,119.994,2224.83,475.373)">
                        <path d="M0.353,0.01C0.305,0.01 0.262,0.001 0.222,-0.017C0.183,-0.035 0.149,-0.06 0.12,-0.092C0.092,-0.124 0.07,-0.163 0.055,-0.206C0.039,-0.25 0.032,-0.298 0.032,-0.35L0.032,-0.361C0.032,-0.413 0.039,-0.46 0.055,-0.504C0.07,-0.548 0.092,-0.586 0.12,-0.619C0.148,-0.651 0.182,-0.676 0.222,-0.694C0.261,-0.712 0.305,-0.721 0.353,-0.721C0.401,-0.721 0.445,-0.712 0.484,-0.694C0.524,-0.676 0.558,-0.651 0.587,-0.619C0.616,-0.586 0.638,-0.548 0.653,-0.504C0.669,-0.46 0.676,-0.413 0.676,-0.361L0.676,-0.35C0.676,-0.298 0.669,-0.25 0.653,-0.206C0.638,-0.163 0.616,-0.124 0.587,-0.092C0.558,-0.06 0.524,-0.035 0.485,-0.017C0.445,0.001 0.401,0.01 0.353,0.01ZM0.353,-0.101C0.393,-0.101 0.427,-0.111 0.454,-0.132C0.48,-0.153 0.5,-0.182 0.514,-0.219C0.527,-0.257 0.534,-0.3 0.534,-0.35L0.534,-0.362C0.534,-0.411 0.527,-0.454 0.514,-0.491C0.5,-0.529 0.48,-0.558 0.453,-0.579C0.426,-0.599 0.393,-0.61 0.353,-0.61C0.313,-0.61 0.28,-0.6 0.253,-0.579C0.227,-0.558 0.207,-0.529 0.194,-0.492C0.181,-0.455 0.174,-0.412 0.174,-0.362L0.174,-0.35C0.174,-0.3 0.181,-0.257 0.194,-0.219C0.207,-0.182 0.227,-0.153 0.254,-0.132C0.28,-0.111 0.313,-0.101 0.353,-0.101Z" style="fill-rule:nonzero;"/>
                    </g>
                    <g transform="matrix(119.994,0,0,119.994,2307.03,475.373)">
                        <path d="M0.221,0L0.221,-0.085L0.297,-0.1L0.297,-0.244L0.086,-0.615L0.018,-0.625L0.018,-0.711L0.301,-0.711L0.301,-0.625L0.243,-0.617L0.361,-0.39L0.372,-0.367L0.375,-0.367L0.386,-0.389L0.517,-0.617L0.439,-0.625L0.439,-0.711L0.717,-0.711L0.717,-0.625L0.647,-0.615L0.439,-0.255L0.439,-0.1L0.515,-0.085L0.515,0L0.221,0Z" style="fill-rule:nonzero;"/>
                    </g>
                    <g transform="matrix(119.994,0,0,119.994,2380.38,475.373)">
                        <path d="M0.02,0L0.02,-0.085L0.071,-0.093L0.297,-0.711L0.443,-0.711L0.667,-0.093L0.718,-0.085L0.718,0L0.476,0L0.476,-0.085L0.525,-0.094L0.494,-0.192L0.244,-0.192L0.213,-0.094L0.262,-0.085L0.262,0L0.02,0ZM0.278,-0.297L0.46,-0.297L0.377,-0.541L0.371,-0.562L0.368,-0.562L0.36,-0.539L0.278,-0.297Z" style="fill-rule:nonzero;"/>
                    </g>
                    <g transform="matrix(119.994,0,0,119.994,2468.97,475.373)">
                        <path d="M0.027,0L0.027,-0.085L0.103,-0.1L0.103,-0.61L0.027,-0.625L0.027,-0.711L0.332,-0.711L0.332,-0.625L0.246,-0.61L0.246,-0.109L0.446,-0.109L0.453,-0.213L0.562,-0.213L0.562,0L0.027,0Z" style="fill-rule:nonzero;"/>
                    </g>
                    <g transform="matrix(119.994,0,0,119.994,2142.33,595.367)">
                        <path d="M0.317,0.01C0.265,0.01 0.217,0.004 0.174,-0.007C0.131,-0.019 0.089,-0.039 0.047,-0.068L0.047,-0.24L0.158,-0.24L0.173,-0.139C0.188,-0.127 0.208,-0.117 0.233,-0.109C0.259,-0.101 0.287,-0.098 0.317,-0.098C0.343,-0.098 0.365,-0.101 0.383,-0.108C0.4,-0.116 0.414,-0.126 0.423,-0.139C0.432,-0.152 0.437,-0.168 0.437,-0.186C0.437,-0.202 0.433,-0.218 0.425,-0.231C0.416,-0.244 0.403,-0.256 0.384,-0.267C0.365,-0.278 0.339,-0.288 0.306,-0.298C0.25,-0.315 0.203,-0.333 0.166,-0.353C0.129,-0.372 0.102,-0.396 0.083,-0.424C0.065,-0.451 0.056,-0.484 0.056,-0.523C0.056,-0.561 0.066,-0.595 0.088,-0.625C0.109,-0.654 0.139,-0.677 0.176,-0.694C0.214,-0.711 0.258,-0.72 0.307,-0.721C0.362,-0.721 0.41,-0.715 0.452,-0.701C0.495,-0.688 0.531,-0.668 0.562,-0.644L0.562,-0.484L0.455,-0.484L0.436,-0.582C0.424,-0.589 0.407,-0.596 0.386,-0.602C0.365,-0.608 0.341,-0.611 0.314,-0.611C0.292,-0.611 0.272,-0.607 0.254,-0.601C0.237,-0.594 0.223,-0.584 0.213,-0.571C0.203,-0.558 0.198,-0.542 0.198,-0.523C0.198,-0.507 0.202,-0.494 0.211,-0.482C0.22,-0.47 0.234,-0.459 0.255,-0.448C0.276,-0.437 0.304,-0.426 0.341,-0.414C0.419,-0.392 0.479,-0.363 0.519,-0.328C0.56,-0.292 0.58,-0.245 0.58,-0.187C0.58,-0.146 0.569,-0.111 0.547,-0.082C0.526,-0.052 0.495,-0.03 0.456,-0.014C0.416,0.002 0.37,0.01 0.317,0.01Z" style="fill-rule:nonzero;"/>
                    </g>
                    <g transform="matrix(119.994,0,0,119.994,2215.39,595.367)">
                        <path d="M0.027,0L0.027,-0.085L0.103,-0.1L0.103,-0.61L0.027,-0.625L0.027,-0.711L0.579,-0.711L0.579,-0.519L0.47,-0.519L0.463,-0.601L0.246,-0.601L0.246,-0.422L0.486,-0.422L0.486,-0.313L0.246,-0.313L0.246,-0.109L0.475,-0.109L0.481,-0.194L0.59,-0.194L0.59,0L0.027,0Z" style="fill-rule:nonzero;"/>
                    </g>
                    <g transform="matrix(119.994,0,0,119.994,2292.03,595.367)">
                        <path d="M0.027,0L0.027,-0.085L0.103,-0.1L0.103,-0.61L0.027,-0.625L0.027,-0.711L0.364,-0.711C0.419,-0.711 0.466,-0.702 0.505,-0.686C0.544,-0.669 0.574,-0.644 0.595,-0.613C0.616,-0.581 0.626,-0.543 0.626,-0.499C0.626,-0.457 0.616,-0.42 0.595,-0.387C0.574,-0.354 0.545,-0.328 0.508,-0.31C0.471,-0.291 0.428,-0.281 0.38,-0.281L0.246,-0.281L0.246,-0.1L0.322,-0.085L0.322,0L0.027,0ZM0.485,0L0.365,-0.307L0.494,-0.339L0.597,-0.1L0.658,-0.085L0.658,0L0.485,0ZM0.246,-0.391L0.362,-0.391C0.403,-0.391 0.434,-0.399 0.454,-0.417C0.474,-0.434 0.484,-0.459 0.484,-0.493C0.484,-0.526 0.474,-0.552 0.454,-0.572C0.434,-0.591 0.404,-0.601 0.364,-0.601L0.246,-0.601L0.246,-0.391Z" style="fill-rule:nonzero;"/>
                    </g>
                    <g transform="matrix(119.994,0,0,119.994,2369.25,595.367)">
                        <path d="M0.309,0L0.08,-0.617L0.017,-0.625L0.017,-0.711L0.299,-0.711L0.299,-0.625L0.235,-0.615L0.375,-0.196L0.386,-0.157L0.389,-0.157L0.399,-0.195L0.539,-0.615L0.464,-0.625L0.464,-0.711L0.733,-0.711L0.733,-0.625L0.669,-0.617L0.455,0L0.309,0Z" style="fill-rule:nonzero;"/>
                    </g>
                    <g transform="matrix(119.994,0,0,119.994,2459.19,595.367)">
                        <path d="M0.027,0L0.027,-0.085L0.103,-0.1L0.103,-0.61L0.027,-0.625L0.027,-0.711L0.321,-0.711L0.321,-0.625L0.246,-0.61L0.246,-0.1L0.321,-0.085L0.321,0L0.027,0Z" style="fill-rule:nonzero;"/>
                    </g>
                    <g transform="matrix(119.994,0,0,119.994,2501.02,595.367)">
                        <path d="M0.366,0.01C0.297,0.01 0.237,-0.004 0.186,-0.033C0.134,-0.062 0.095,-0.103 0.067,-0.156C0.039,-0.208 0.025,-0.271 0.025,-0.343L0.025,-0.367C0.025,-0.436 0.039,-0.497 0.066,-0.551C0.093,-0.604 0.131,-0.646 0.181,-0.676C0.23,-0.706 0.29,-0.721 0.358,-0.721C0.407,-0.721 0.452,-0.714 0.494,-0.701C0.536,-0.687 0.574,-0.666 0.607,-0.638L0.607,-0.466L0.501,-0.466L0.486,-0.574C0.476,-0.582 0.464,-0.589 0.451,-0.594C0.438,-0.6 0.425,-0.604 0.41,-0.607C0.395,-0.61 0.379,-0.611 0.362,-0.611C0.321,-0.611 0.287,-0.601 0.258,-0.582C0.229,-0.562 0.207,-0.534 0.191,-0.497C0.176,-0.461 0.168,-0.418 0.168,-0.368L0.168,-0.343C0.168,-0.293 0.176,-0.25 0.192,-0.214C0.209,-0.177 0.232,-0.149 0.262,-0.129C0.292,-0.109 0.327,-0.099 0.368,-0.099C0.389,-0.099 0.409,-0.101 0.43,-0.106C0.451,-0.111 0.469,-0.117 0.486,-0.125L0.501,-0.225L0.607,-0.225L0.607,-0.055C0.579,-0.036 0.545,-0.021 0.503,-0.009C0.462,0.004 0.416,0.01 0.366,0.01Z" style="fill-rule:nonzero;"/>
                    </g>
                    <g transform="matrix(119.994,0,0,119.994,2578.42,595.367)">
                        <path d="M0.027,0L0.027,-0.085L0.103,-0.1L0.103,-0.61L0.027,-0.625L0.027,-0.711L0.579,-0.711L0.579,-0.519L0.47,-0.519L0.463,-0.601L0.246,-0.601L0.246,-0.422L0.486,-0.422L0.486,-0.313L0.246,-0.313L0.246,-0.109L0.475,-0.109L0.481,-0.194L0.59,-0.194L0.59,0L0.027,0Z" style="fill-rule:nonzero;"/>
                    </g>
                </g>
                <g transform="matrix(0.903228,0,0,0.903228,7.73617,287.928)">
                    <g transform="matrix(4.16667,0,0,4.16667,1575.49,-173.762)">
                        <path d="M32.92,72.335L35.552,67.001C36.029,66.035 36.809,66.035 37.286,67.001L39.919,72.335C40.025,72.549 40.181,72.76 40.356,72.962L53.723,54.306C54.385,54.364 55.058,54.116 55.477,53.54C56.113,52.665 55.919,51.44 55.044,50.805C54.169,50.169 52.944,50.363 52.309,51.238C51.884,51.822 51.861,52.55 52.131,53.168L49.285,57.139C46.508,46.959 36.419,41.741 36.419,41.741C36.419,41.741 24.563,47.852 23.008,59.774L32.609,72.783C32.721,72.634 32.844,72.488 32.92,72.335Z" style="fill-rule:nonzero;"/>
                    </g>
                    <g transform="matrix(4.16667,0,0,4.16667,1575.49,-72.5958)">
                        <path d="M13.217,62.144L28.248,57.137C28.151,57.003 28.062,56.855 27.953,56.748L23.694,52.596C22.922,51.845 23.163,51.102 24.229,50.947L30.115,50.093C30.437,50.046 30.772,49.913 31.102,49.748L17.479,31.253C17.736,30.64 17.71,29.924 17.291,29.348C16.656,28.473 15.431,28.279 14.556,28.915C13.681,29.552 13.487,30.775 14.123,31.651C14.547,32.235 15.233,32.483 15.903,32.416L18.778,36.319C8.244,35.821 0.17,43.798 0.17,43.798C0.17,43.798 2.323,56.996 13.217,62.144Z" style="fill-rule:nonzero;"/>
                    </g>
                    <g transform="matrix(4.16667,0,0,4.16667,1575.49,164.762)">
                        <path d="M34.686,7.193L29.421,9.961C28.468,10.462 27.837,10.004 28.018,8.942L29.025,3.079C29.082,2.743 29.053,2.364 28.99,1.98L7.445,9.138C6.943,8.703 6.253,8.506 5.575,8.727C4.547,9.061 3.984,10.166 4.318,11.195C4.653,12.223 5.757,12.787 6.786,12.452C7.472,12.229 7.92,11.654 8.064,10.997L12.638,9.476C8.938,19.329 14.016,29.446 14.016,29.446C14.016,29.446 27.245,31.477 35.507,22.695L35.389,6.948C35.137,7.009 34.893,7.084 34.686,7.193Z" style="fill-rule:nonzero;"/>
                    </g>
                    <g transform="matrix(4.16667,0,0,4.16667,1575.49,171.958)">
                        <path d="M43.818,0.398C43.775,0.733 43.764,1.059 43.815,1.352L44.82,7.215C45.002,8.277 44.371,8.735 43.418,8.234L38.153,5.466C37.914,5.34 37.637,5.246 37.341,5.184L37.489,27.723C36.921,28.066 36.521,28.661 36.521,29.374C36.521,30.455 37.398,31.332 38.479,31.332C39.56,31.332 40.437,30.455 40.437,29.374C40.437,28.652 40.028,28.048 39.447,27.708L39.416,22.866C47.64,29.421 58.823,27.719 58.823,27.719C58.823,27.719 64.832,15.789 59.061,5.225L43.818,0.398Z" style="fill-rule:nonzero;"/>
                    </g>
                    <g transform="matrix(4.16667,0,0,4.16667,1575.49,-31.4375)">
                        <path d="M68.572,51.947C67.886,51.723 67.185,51.926 66.682,52.374L62.029,50.895C70.828,45.103 72.67,33.92 72.67,33.92C72.67,33.92 63.2,24.539 51.386,26.735L41.921,39.971C42.191,40.091 42.463,40.177 42.723,40.215L48.61,41.069C49.676,41.224 49.917,41.967 49.146,42.718L44.886,46.87C44.742,47.011 44.62,47.197 44.498,47.381L66.091,54.24C66.241,54.887 66.685,55.452 67.362,55.672C68.391,56.006 69.496,55.443 69.83,54.415C70.164,53.386 69.601,52.281 68.572,51.947Z" style="fill-rule:nonzero;"/>
                    </g>
                </g>
            </g>
        </g>
    </g>
</svg>
