<?xml version="1.0" encoding="UTF-8" standalone="no"?>
<!DOCTYPE svg PUBLIC "-//W3C//DTD SVG 1.1//EN" "http://www.w3.org/Graphics/SVG/1.1/DTD/svg11.dtd">
<svg width="100%" height="100%" viewBox="0 0 600 300" version="1.1" xmlns="http://www.w3.org/2000/svg" xmlns:xlink="http://www.w3.org/1999/xlink" xml:space="preserve" xmlns:serif="http://www.serif.com/" style="fill-rule:evenodd;clip-rule:evenodd;stroke-linejoin:round;stroke-miterlimit:2;">
    <g transform="matrix(1,0,0,1,-4550,0)">
        <g id="logo-macrame" transform="matrix(1,0,0,0.5,0,0)">
            <rect x="4550" y="0" width="600" height="600" style="fill:none;"/>
            <g transform="matrix(0.605819,0,0,1.21164,2827.26,-1437.46)">
                <g transform="matrix(0.864931,0,0,0.864931,1336.2,1355.05)">
                    <g transform="matrix(74.4116,0,0,74.4116,2215.12,117.7)">
                        <path d="M0.72,0L0.719,-0.42L0.513,-0.074L0.44,-0.074L0.235,-0.411L0.235,0L0.083,0L0.083,-0.7L0.217,-0.7L0.479,-0.265L0.737,-0.7L0.87,-0.7L0.872,0L0.72,0Z" style="fill-rule:nonzero;"/>
                    </g>
                    <g transform="matrix(74.4116,0,0,74.4116,2286.18,117.7)">
                        <path d="M0.289,-0.546C0.372,-0.546 0.436,-0.526 0.481,-0.487C0.526,-0.447 0.548,-0.387 0.548,-0.307L0.548,0L0.402,0L0.402,-0.067C0.373,-0.017 0.318,0.008 0.238,0.008C0.197,0.008 0.161,0.001 0.131,-0.013C0.1,-0.027 0.077,-0.046 0.061,-0.071C0.045,-0.096 0.037,-0.124 0.037,-0.155C0.037,-0.205 0.056,-0.244 0.094,-0.273C0.131,-0.302 0.189,-0.316 0.268,-0.316L0.392,-0.316C0.392,-0.35 0.382,-0.376 0.361,-0.395C0.34,-0.413 0.309,-0.422 0.268,-0.422C0.239,-0.422 0.211,-0.418 0.184,-0.408C0.156,-0.4 0.132,-0.387 0.113,-0.372L0.057,-0.481C0.086,-0.502 0.122,-0.518 0.163,-0.529C0.203,-0.54 0.246,-0.546 0.289,-0.546ZM0.277,-0.097C0.304,-0.097 0.327,-0.103 0.348,-0.116C0.369,-0.128 0.383,-0.146 0.392,-0.17L0.392,-0.225L0.285,-0.225C0.221,-0.225 0.189,-0.204 0.189,-0.162C0.189,-0.142 0.197,-0.126 0.213,-0.115C0.228,-0.103 0.25,-0.097 0.277,-0.097Z" style="fill-rule:nonzero;"/>
                    </g>
                    <g transform="matrix(74.4116,0,0,74.4116,2332.54,117.7)">
                        <path d="M0.332,0.008C0.275,0.008 0.223,-0.004 0.178,-0.028C0.132,-0.051 0.096,-0.084 0.07,-0.126C0.045,-0.168 0.032,-0.216 0.032,-0.269C0.032,-0.322 0.045,-0.37 0.07,-0.412C0.096,-0.454 0.132,-0.487 0.178,-0.51C0.223,-0.534 0.275,-0.546 0.332,-0.546C0.389,-0.546 0.438,-0.534 0.481,-0.51C0.523,-0.487 0.554,-0.453 0.573,-0.409L0.452,-0.344C0.424,-0.393 0.384,-0.418 0.331,-0.418C0.29,-0.418 0.257,-0.405 0.23,-0.378C0.203,-0.351 0.19,-0.315 0.19,-0.269C0.19,-0.223 0.203,-0.187 0.23,-0.16C0.257,-0.133 0.29,-0.12 0.331,-0.12C0.384,-0.12 0.425,-0.145 0.452,-0.194L0.573,-0.128C0.554,-0.085 0.523,-0.052 0.481,-0.028C0.438,-0.004 0.389,0.008 0.332,0.008Z" style="fill-rule:nonzero;"/>
                    </g>
                    <g transform="matrix(74.4116,0,0,74.4116,2376.51,117.7)">
                        <path d="M0.221,-0.467C0.24,-0.493 0.265,-0.513 0.297,-0.526C0.328,-0.539 0.365,-0.546 0.406,-0.546L0.406,-0.402C0.389,-0.403 0.377,-0.404 0.371,-0.404C0.326,-0.404 0.291,-0.392 0.266,-0.367C0.241,-0.342 0.228,-0.304 0.228,-0.254L0.228,0L0.072,0L0.072,-0.538L0.221,-0.538L0.221,-0.467Z" style="fill-rule:nonzero;"/>
                    </g>
                    <g transform="matrix(74.4116,0,0,74.4116,2408.06,117.7)">
                        <path d="M0.289,-0.546C0.372,-0.546 0.436,-0.526 0.481,-0.487C0.526,-0.447 0.548,-0.387 0.548,-0.307L0.548,0L0.402,0L0.402,-0.067C0.373,-0.017 0.318,0.008 0.238,0.008C0.197,0.008 0.161,0.001 0.131,-0.013C0.1,-0.027 0.077,-0.046 0.061,-0.071C0.045,-0.096 0.037,-0.124 0.037,-0.155C0.037,-0.205 0.056,-0.244 0.094,-0.273C0.131,-0.302 0.189,-0.316 0.268,-0.316L0.392,-0.316C0.392,-0.35 0.382,-0.376 0.361,-0.395C0.34,-0.413 0.309,-0.422 0.268,-0.422C0.239,-0.422 0.211,-0.418 0.184,-0.408C0.156,-0.4 0.132,-0.387 0.113,-0.372L0.057,-0.481C0.086,-0.502 0.122,-0.518 0.163,-0.529C0.203,-0.54 0.246,-0.546 0.289,-0.546ZM0.277,-0.097C0.304,-0.097 0.327,-0.103 0.348,-0.116C0.369,-0.128 0.383,-0.146 0.392,-0.17L0.392,-0.225L0.285,-0.225C0.221,-0.225 0.189,-0.204 0.189,-0.162C0.189,-0.142 0.197,-0.126 0.213,-0.115C0.228,-0.103 0.25,-0.097 0.277,-0.097Z" style="fill-rule:nonzero;"/>
                    </g>
                    <g transform="matrix(74.4116,0,0,74.4116,2453.98,117.7)">
                        <path d="M0.761,-0.546C0.828,-0.546 0.882,-0.526 0.922,-0.487C0.961,-0.447 0.981,-0.387 0.981,-0.308L0.981,0L0.825,0L0.825,-0.284C0.825,-0.327 0.816,-0.359 0.799,-0.38C0.781,-0.401 0.756,-0.411 0.723,-0.411C0.686,-0.411 0.657,-0.399 0.636,-0.376C0.615,-0.352 0.604,-0.317 0.604,-0.27L0.604,0L0.448,0L0.448,-0.284C0.448,-0.369 0.414,-0.411 0.346,-0.411C0.31,-0.411 0.281,-0.399 0.26,-0.376C0.239,-0.352 0.228,-0.317 0.228,-0.27L0.228,0L0.072,0L0.072,-0.538L0.221,-0.538L0.221,-0.476C0.241,-0.499 0.266,-0.516 0.295,-0.528C0.324,-0.54 0.355,-0.546 0.39,-0.546C0.428,-0.546 0.462,-0.539 0.493,-0.524C0.524,-0.508 0.548,-0.487 0.567,-0.458C0.589,-0.486 0.617,-0.508 0.651,-0.523C0.684,-0.538 0.721,-0.546 0.761,-0.546Z" style="fill-rule:nonzero;"/>
                    </g>
                    <g transform="matrix(74.4116,0,0,74.4116,2532.48,117.7)">
                        <path d="M0.599,-0.267C0.599,-0.265 0.598,-0.251 0.596,-0.225L0.189,-0.225C0.196,-0.192 0.214,-0.165 0.241,-0.146C0.268,-0.127 0.302,-0.117 0.343,-0.117C0.371,-0.117 0.396,-0.121 0.418,-0.13C0.439,-0.138 0.459,-0.151 0.478,-0.169L0.561,-0.079C0.51,-0.021 0.436,0.008 0.339,0.008C0.278,0.008 0.225,-0.004 0.178,-0.028C0.131,-0.051 0.095,-0.084 0.07,-0.126C0.045,-0.168 0.032,-0.216 0.032,-0.269C0.032,-0.322 0.045,-0.369 0.07,-0.411C0.095,-0.454 0.129,-0.487 0.172,-0.51C0.216,-0.534 0.265,-0.546 0.319,-0.546C0.372,-0.546 0.419,-0.535 0.462,-0.512C0.505,-0.489 0.538,-0.457 0.563,-0.414C0.587,-0.372 0.599,-0.323 0.599,-0.267ZM0.32,-0.428C0.285,-0.428 0.255,-0.418 0.231,-0.398C0.207,-0.378 0.192,-0.351 0.187,-0.316L0.452,-0.316C0.447,-0.35 0.432,-0.377 0.408,-0.398C0.384,-0.418 0.355,-0.428 0.32,-0.428ZM0.36,-0.751L0.528,-0.751L0.378,-0.607L0.256,-0.607L0.36,-0.751Z" style="fill-rule:nonzero;"/>
                    </g>
                </g>
                <g transform="matrix(1.00113,0,0,0.98205,1405.41,1370.97)">
                    <path d="M1735.17,2.946C1744.27,3.078 1752.41,11.687 1751.81,21.203C1751.55,25.414 1749.71,29.474 1746.7,32.46L1741.84,37.237L1762.69,59.035L1783.54,37.237C1780.97,34.719 1778.13,32.404 1776.26,29.488C1770.28,20.136 1775.99,5.208 1787.52,3.192C1796.38,1.643 1805.86,8.567 1807.06,17.865C1807.72,22.928 1806,28.236 1802.53,31.962C1802.53,31.962 1797.7,37.013 1797.7,37.013C1804.19,43.389 1811.03,49.415 1815.11,57.326C1821.9,70.487 1821.71,86.953 1815,100.22C1811.13,107.875 1806.05,114.883 1800.19,121.138L1799.91,121.433L1796.16,125.376L1788.99,118.289C1796.54,110.353 1803.92,102.108 1807.95,91.483C1812.83,78.588 1809.61,63.005 1799.71,53.128C1799.71,53.128 1790.73,44.303 1790.73,44.303L1769.66,66.328C1772.14,68.914 1774.9,71.303 1776.66,74.239C1781.9,82.931 1777.28,96.215 1767.04,99.09C1758.17,101.579 1747.86,94.882 1746.47,85.456C1745.73,80.443 1747.37,75.145 1750.84,71.419C1750.84,71.419 1755.71,66.328 1755.71,66.328L1734.64,44.305C1728.87,49.987 1722.62,55.215 1719.04,62.228C1713.22,73.627 1714.64,87.747 1721.17,99.093C1724.24,104.425 1727.98,109.339 1732.14,113.828L1732.65,114.362L1736.38,118.294L1729.2,125.376C1720.36,116.065 1711.78,106.235 1707.5,93.415C1702.09,77.196 1706.38,58.12 1718.7,45.84C1721.29,43.29 1723.88,40.746 1726.47,38.2L1727.67,37.014C1723.46,32.61 1719.08,28.202 1718.32,22.373C1717.08,12.973 1724.54,3.285 1734.52,2.952C1734.74,2.947 1734.95,2.945 1735.17,2.946ZM1758.11,78.41C1754.56,82.145 1757.48,90.199 1763.47,89.457C1768.1,88.883 1770.91,82.247 1767.27,78.41L1762.69,73.621C1761.16,75.217 1759.63,76.814 1758.11,78.41ZM1734.93,13.129C1729.69,13.202 1726.05,20.603 1730.06,24.924C1730.06,24.924 1734.86,29.947 1734.86,29.947C1738.39,26.477 1742.73,23.083 1741.67,18.503C1740.98,15.515 1738.17,13.204 1735.14,13.13C1735.07,13.129 1735,13.129 1734.93,13.129ZM1790.3,13.129C1787.31,13.172 1784.52,15.376 1783.75,18.316C1783.12,20.715 1783.86,23.391 1785.62,25.146L1790.51,29.947C1793.51,26.813 1797.29,23.878 1797.21,19.95C1797.14,16.349 1794,13.112 1790.3,13.129Z"/>
                </g>
            </g>
        </g>
    </g>
</svg>
