<?xml version="1.0" encoding="UTF-8" standalone="no"?>
<!DOCTYPE svg PUBLIC "-//W3C//DTD SVG 1.1//EN" "http://www.w3.org/Graphics/SVG/1.1/DTD/svg11.dtd">
<svg width="100%" height="100%" viewBox="0 0 600 300" version="1.1" xmlns="http://www.w3.org/2000/svg" xmlns:xlink="http://www.w3.org/1999/xlink" xml:space="preserve" xmlns:serif="http://www.serif.com/" style="fill-rule:evenodd;clip-rule:evenodd;stroke-linejoin:round;stroke-miterlimit:2;">
    <g transform="matrix(1,0,0,1,-1300,0)">
        <g id="logo-franco" transform="matrix(1,0,0,0.5,0,0)">
            <rect x="1300" y="0" width="600" height="600" style="fill:none;"/>
            <g transform="matrix(0.354444,0,0,0.708889,902.12,-632.607)">
                <path d="M1698.65,1378.88C1691.82,1372.04 1680.74,1372.04 1673.91,1378.88C1673.9,1378.88 1673.9,1378.88 1673.9,1378.88C1667.07,1385.71 1667.07,1396.79 1673.9,1403.62C1673.9,1403.63 1673.9,1403.63 1673.9,1403.63C1677.19,1406.91 1681.64,1408.75 1686.28,1408.75C1690.92,1408.75 1695.37,1406.91 1698.65,1403.63C1698.65,1403.63 1698.65,1403.63 1698.65,1403.63C1705.49,1396.79 1705.49,1385.71 1698.65,1378.88C1698.65,1378.88 1698.65,1378.88 1698.65,1378.88ZM1696.01,1306.01C1693.1,1303.1 1689.15,1301.46 1685.04,1301.46C1680.92,1301.46 1676.97,1303.1 1674.06,1306.01C1662.9,1317.17 1645.7,1334.36 1634.54,1345.53C1631.63,1348.44 1630,1352.38 1630,1356.5C1630,1360.62 1631.63,1364.57 1634.54,1367.48C1634.54,1367.48 1634.55,1367.48 1634.55,1367.48C1637.46,1370.39 1641.4,1372.02 1645.52,1372.02C1649.64,1372.02 1653.59,1370.39 1656.5,1367.48C1667.66,1356.32 1684.85,1339.12 1696.02,1327.96C1698.93,1325.05 1700.56,1321.1 1700.56,1316.99C1700.56,1312.87 1698.93,1308.92 1696.02,1306.01C1696.01,1306.01 1696.01,1306.01 1696.01,1306.01ZM1736.74,1322.54C1738.21,1321.06 1739.04,1319.07 1739.04,1316.99C1739.04,1314.9 1738.21,1312.91 1736.74,1311.43C1729.04,1303.73 1716.05,1290.74 1716.05,1290.74C1710.48,1285.17 1710.48,1276.13 1716.05,1270.56C1716.05,1270.56 1716.05,1270.56 1716.05,1270.56C1721.63,1264.99 1730.66,1264.99 1736.24,1270.56L1772.57,1306.89C1778.14,1312.47 1778.14,1321.5 1772.57,1327.08C1762.31,1337.34 1746.5,1353.15 1736.24,1363.41C1730.66,1368.98 1721.63,1368.98 1716.05,1363.41C1716.05,1363.41 1716.05,1363.41 1716.05,1363.41C1710.48,1357.84 1710.48,1348.8 1716.05,1343.23C1716.05,1343.23 1729.04,1330.24 1736.74,1322.54ZM2213.28,1360.46C2204.49,1360.46 2196.57,1358.62 2189.52,1354.94C2182.47,1351.26 2176.95,1346.11 2172.95,1339.5C2168.95,1332.88 2166.95,1325.38 2166.95,1316.99C2166.95,1308.59 2168.95,1301.09 2172.95,1294.47C2176.95,1287.86 2182.47,1282.71 2189.52,1279.03C2196.57,1275.35 2204.49,1273.51 2213.28,1273.51C2221.36,1273.51 2228.57,1274.93 2234.9,1277.78C2241.24,1280.63 2246.46,1284.75 2250.58,1290.14L2232.88,1305.94C2227.73,1299.44 2221.68,1296.2 2214.71,1296.2C2208.85,1296.2 2204.13,1298.08 2200.57,1301.84C2197.01,1305.6 2195.22,1310.65 2195.22,1316.99C2195.22,1323.32 2197.01,1328.37 2200.57,1332.13C2204.13,1335.89 2208.85,1337.77 2214.71,1337.77C2221.68,1337.77 2227.73,1334.53 2232.88,1328.03L2250.58,1343.83C2246.46,1349.22 2241.24,1353.34 2234.9,1356.19C2228.57,1359.04 2221.36,1360.46 2213.28,1360.46ZM2300.47,1360.46C2291.53,1360.46 2283.49,1358.6 2276.36,1354.88C2269.23,1351.16 2263.65,1345.99 2259.61,1339.38C2255.57,1332.77 2253.55,1325.3 2253.55,1316.99C2253.55,1308.67 2255.57,1301.2 2259.61,1294.59C2263.65,1287.98 2269.23,1282.81 2276.36,1279.09C2283.49,1275.37 2291.53,1273.51 2300.47,1273.51C2309.42,1273.51 2317.46,1275.37 2324.59,1279.09C2331.72,1282.81 2337.3,1287.98 2341.34,1294.59C2345.38,1301.2 2347.4,1308.67 2347.4,1316.99C2347.4,1325.3 2345.38,1332.77 2341.34,1339.38C2337.3,1345.99 2331.72,1351.16 2324.59,1354.88C2317.46,1358.6 2309.42,1360.46 2300.47,1360.46ZM1842.05,1358.56L1814.02,1358.56L1814.02,1275.41L1881.61,1275.41L1881.61,1296.55L1842.05,1296.55L1842.05,1310.81L1876.74,1310.81L1876.74,1331.95L1842.05,1331.95L1842.05,1358.56ZM1998.5,1358.56L1940.3,1358.56L1926.16,1337.65L1918.56,1337.65L1918.56,1358.56L1890.52,1358.56L1890.52,1275.41L1930.55,1275.41C1938.24,1275.41 1944.93,1276.67 1950.63,1279.21C1956.33,1281.74 1960.73,1285.39 1963.82,1290.14C1966.9,1294.89 1968.45,1300.43 1968.45,1306.77C1968.45,1312.71 1967.1,1317.9 1964.41,1322.33C1961.72,1326.77 1957.84,1330.29 1952.77,1332.9L1970.09,1358.35L2006.34,1275.41L2033.9,1275.41L2070.25,1358.56L2041.27,1358.56L2035.68,1344.07L2004.09,1344.07L1998.5,1358.56ZM2102.09,1358.56L2074.77,1358.56L2074.77,1275.41L2097.81,1275.41L2129.41,1313.18L2129.41,1275.41L2156.74,1275.41L2156.74,1358.56L2133.69,1358.56L2102.09,1320.79L2102.09,1358.56ZM2300.47,1337.77C2303.96,1337.77 2307.11,1336.92 2309.92,1335.22C2312.73,1333.52 2314.97,1331.1 2316.63,1327.97C2318.29,1324.85 2319.13,1321.18 2319.13,1316.99C2319.13,1312.79 2318.29,1309.13 2316.63,1306C2314.97,1302.87 2312.73,1300.45 2309.92,1298.75C2307.11,1297.05 2303.96,1296.2 2300.47,1296.2C2296.99,1296.2 2293.84,1297.05 2291.03,1298.75C2288.22,1300.45 2285.98,1302.87 2284.32,1306C2282.66,1309.13 2281.83,1312.79 2281.83,1316.99C2281.83,1321.18 2282.66,1324.85 2284.32,1327.97C2285.98,1331.1 2288.22,1333.52 2291.03,1335.22C2293.84,1336.92 2296.99,1337.77 2300.47,1337.77ZM1696.01,1226.98C1689.95,1220.91 1680.12,1220.91 1674.06,1226.98C1654.64,1246.39 1614.45,1286.59 1595.03,1306.01C1588.97,1312.07 1588.97,1321.9 1595.03,1327.96C1595.03,1327.96 1595.03,1327.96 1595.03,1327.96C1601.09,1334.02 1610.92,1334.02 1616.98,1327.96C1636.4,1308.54 1676.6,1268.35 1696.02,1248.93C1702.08,1242.87 1702.08,1233.04 1696.02,1226.98C1696.01,1226.98 1696.01,1226.98 1696.01,1226.98ZM2027.96,1323.88L2019.89,1302.97L2011.81,1323.88L2027.96,1323.88ZM1940.18,1306.77C1940.18,1303.68 1939.23,1301.28 1937.33,1299.58C1935.42,1297.88 1932.57,1297.03 1928.77,1297.03L1918.56,1297.03L1918.56,1316.51L1928.77,1316.51C1932.57,1316.51 1935.42,1315.66 1937.33,1313.96C1939.23,1312.25 1940.18,1309.86 1940.18,1306.77Z" style="fill-rule:nonzero;"/>
            </g>
        </g>
    </g>
</svg>
