<?xml version="1.0" encoding="UTF-8" standalone="no"?><!DOCTYPE svg PUBLIC "-//W3C//DTD SVG 1.1//EN" "http://www.w3.org/Graphics/SVG/1.1/DTD/svg11.dtd"><svg width="100%" height="100%" viewBox="0 0 2160 2160" version="1.1" xmlns="http://www.w3.org/2000/svg" xmlns:xlink="http://www.w3.org/1999/xlink" xml:space="preserve" xmlns:serif="http://www.serif.com/" style="fill-rule:evenodd;clip-rule:evenodd;stroke-linejoin:round;stroke-miterlimit:2;"><rect id="logofolio-pp-3" x="0" y="0" width="2160" height="2160" style="fill:#fff;"/><g id="logofolio-pp-31" serif:id="logofolio-pp-3"><g><path d="M1023.93,1058.68l-0,17.116l-62.873,0l0,-78.31l61.418,-0l0,17.117l-39.491,-0l0,13.2l34.793,0l0,16.557l-34.793,0l0,14.32l40.946,0Z" style="fill-rule:nonzero;"/><path d="M1098.88,1015.16l-25.059,60.634l-21.927,0l-24.948,-60.634l21.815,-0l14.544,37.029l15.326,-37.029l20.249,-0Z" style="fill-rule:nonzero;"/><path d="M1164.66,1045.59c-0,0.149 -0.112,1.902 -0.336,5.258l-44.078,0c0.896,3.133 2.63,5.538 5.203,7.216c2.572,1.678 5.798,2.517 9.676,2.517c2.909,-0 5.426,-0.41 7.552,-1.231c2.126,-0.82 4.27,-2.163 6.432,-4.027l11.188,11.635c-5.892,6.563 -14.506,9.845 -25.843,9.845c-7.085,-0 -13.312,-1.343 -18.682,-4.028c-5.37,-2.685 -9.528,-6.414 -12.474,-11.187c-2.946,-4.774 -4.419,-10.181 -4.419,-16.222c0,-5.966 1.436,-11.318 4.307,-16.053c2.872,-4.736 6.843,-8.446 11.915,-11.132c5.071,-2.685 10.777,-4.027 17.116,-4.027c6.041,0 11.523,1.249 16.445,3.748c4.922,2.498 8.819,6.115 11.691,10.851c2.871,4.736 4.307,10.349 4.307,16.837Zm-32.331,-16.333c-3.282,-0 -6.023,0.932 -8.223,2.797c-2.2,1.864 -3.599,4.4 -4.195,7.607l24.836,0c-0.597,-3.207 -1.996,-5.743 -4.196,-7.607c-2.2,-1.865 -4.94,-2.797 -8.222,-2.797Z" style="fill-rule:nonzero;"/><path d="M1194.76,1022.43c2.162,-2.759 4.978,-4.828 8.446,-6.209c3.468,-1.379 7.439,-2.069 11.914,-2.069l0,19.13c-1.939,-0.224 -3.543,-0.335 -4.81,-0.335c-4.549,-0 -8.111,1.23 -10.684,3.691c-2.573,2.462 -3.86,6.228 -3.86,11.299l0,27.856l-21.255,0l-0,-60.634l20.249,-0l-0,7.271Z" style="fill-rule:nonzero;"/><path d="M1288.5,1015.16l0,49.559c0,11.262 -3.058,19.708 -9.173,25.339c-6.116,5.631 -14.917,8.447 -26.402,8.447c-5.966,-0 -11.56,-0.672 -16.781,-2.014c-5.221,-1.342 -9.658,-3.319 -13.313,-5.929l7.719,-14.88c2.462,2.014 5.576,3.599 9.342,4.755c3.766,1.156 7.477,1.734 11.131,1.734c5.593,0 9.695,-1.23 12.306,-3.692c2.61,-2.46 3.915,-6.115 3.915,-10.963l0,-2.014c-4.101,4.773 -10.105,7.16 -18.011,7.16c-5.37,0 -10.329,-1.212 -14.879,-3.636c-4.549,-2.424 -8.167,-5.854 -10.852,-10.292c-2.684,-4.437 -4.027,-9.565 -4.027,-15.382c-0,-5.743 1.343,-10.833 4.027,-15.271c2.685,-4.438 6.303,-7.869 10.852,-10.292c4.55,-2.424 9.509,-3.636 14.879,-3.636c8.652,0 14.991,2.797 19.019,8.39l-0,-7.383l20.248,-0Zm-34.232,40.609c3.803,0 6.954,-1.155 9.452,-3.468c2.499,-2.312 3.748,-5.295 3.748,-8.949c0,-3.655 -1.23,-6.619 -3.692,-8.894c-2.46,-2.275 -5.63,-3.413 -9.508,-3.413c-3.879,0 -7.067,1.138 -9.566,3.413c-2.498,2.275 -3.747,5.239 -3.747,8.894c-0,3.654 1.267,6.637 3.803,8.949c2.536,2.313 5.706,3.468 9.51,3.468Z" style="fill-rule:nonzero;"/><path d="M1322.4,1022.43c2.164,-2.759 4.979,-4.828 8.447,-6.209c3.468,-1.379 7.44,-2.069 11.914,-2.069l0,19.13c-1.939,-0.224 -3.542,-0.335 -4.811,-0.335c-4.549,-0 -8.11,1.23 -10.683,3.691c-2.573,2.462 -3.86,6.228 -3.86,11.299l0,27.856l-21.255,0l-0,-60.634l20.248,-0l0,7.271Z" style="fill-rule:nonzero;"/><path d="M1412.91,1045.59c-0,0.149 -0.112,1.902 -0.336,5.258l-44.084,0c0.895,3.133 2.633,5.538 5.205,7.216c2.573,1.678 5.801,2.517 9.679,2.517c2.908,-0 5.428,-0.41 7.553,-1.231c2.126,-0.82 4.266,-2.163 6.428,-4.027l11.192,11.635c-5.898,6.563 -14.51,9.845 -25.844,9.845c-7.084,-0 -13.318,-1.343 -18.687,-4.028c-5.368,-2.685 -9.522,-6.414 -12.467,-11.187c-2.953,-4.774 -4.422,-10.181 -4.422,-16.222c0,-5.966 1.432,-11.318 4.31,-16.053c2.871,-4.736 6.838,-8.446 11.908,-11.132c5.071,-2.685 10.783,-4.027 17.121,-4.027c6.04,0 11.52,1.249 16.442,3.748c4.921,2.498 8.821,6.115 11.692,10.851c2.87,4.736 4.31,10.349 4.31,16.837Zm-32.332,-16.333c-3.281,-0 -6.025,0.932 -8.225,2.797c-2.2,1.864 -3.602,4.4 -4.198,7.607l24.838,0c-0.597,-3.207 -1.991,-5.743 -4.191,-7.607c-2.207,-1.865 -4.944,-2.797 -8.224,-2.797Z" style="fill-rule:nonzero;"/><path d="M1484.73,1045.59c-0,0.149 -0.112,1.902 -0.336,5.258l-44.083,0c0.894,3.133 2.632,5.538 5.204,7.216c2.573,1.678 5.802,2.517 9.679,2.517c2.908,-0 5.421,-0.41 7.554,-1.231c2.125,-0.82 4.265,-2.163 6.427,-4.027l11.193,11.635c-5.899,6.563 -14.511,9.845 -25.845,9.845c-7.084,-0 -13.318,-1.343 -18.686,-4.028c-5.369,-2.685 -9.522,-6.414 -12.475,-11.187c-2.946,-4.774 -4.415,-10.181 -4.415,-16.222c0,-5.966 1.432,-11.318 4.303,-16.053c2.878,-4.736 6.845,-8.446 11.916,-11.132c5.07,-2.685 10.782,-4.027 17.12,-4.027c6.04,0 11.521,1.249 16.442,3.748c4.921,2.498 8.821,6.115 11.692,10.851c2.871,4.736 4.31,10.349 4.31,16.837Zm-32.332,-16.333c-3.281,-0 -6.025,0.932 -8.225,2.797c-2.2,1.864 -3.601,4.4 -4.198,7.607l24.838,0c-0.596,-3.207 -1.991,-5.743 -4.198,-7.607c-2.2,-1.865 -4.936,-2.797 -8.217,-2.797Z" style="fill-rule:nonzero;"/><path d="M1534.06,1014.15c7.531,0 13.593,2.237 18.179,6.713c4.586,4.474 6.883,11.224 6.883,20.248l-0,34.68l-21.259,0l-0,-31.212c-0,-8.278 -3.318,-12.417 -9.955,-12.417c-3.654,-0 -6.584,1.193 -8.784,3.58c-2.199,2.386 -3.303,5.966 -3.303,10.739l-0,29.31l-21.251,0l-0,-60.634l20.244,-0l0,6.6c2.394,-2.461 5.227,-4.344 8.508,-5.65c3.281,-1.304 6.86,-1.957 10.738,-1.957Z" style="fill-rule:nonzero;"/><path d="M1031.76,1187.67l-0.223,-41.505l-20.137,33.785l-9.845,0l-20.025,-32.666l0,40.386l-20.473,-0l0,-78.311l18.236,0l27.521,45.197l26.849,-45.197l18.235,0l0.224,78.311l-20.362,-0Z" style="fill-rule:nonzero;"/><path d="M1097.2,1188.67c-6.489,0 -12.343,-1.342 -17.564,-4.027c-5.221,-2.685 -9.304,-6.414 -12.25,-11.187c-2.946,-4.773 -4.419,-10.181 -4.419,-16.221c0,-5.967 1.473,-11.337 4.419,-16.11c2.946,-4.773 7.011,-8.484 12.194,-11.132c5.184,-2.647 11.057,-3.971 17.62,-3.971c6.563,0 12.455,1.324 17.676,3.971c5.22,2.648 9.285,6.34 12.194,11.076c2.908,4.735 4.363,10.124 4.363,16.166c-0,6.04 -1.455,11.448 -4.363,16.221c-2.909,4.773 -6.974,8.502 -12.194,11.187c-5.221,2.685 -11.113,4.027 -17.676,4.027Zm-0,-16.892c3.729,-0 6.787,-1.287 9.174,-3.86c2.386,-2.573 3.58,-6.134 3.58,-10.683c-0,-4.476 -1.194,-7.981 -3.58,-10.516c-2.387,-2.536 -5.445,-3.804 -9.174,-3.804c-3.729,0 -6.787,1.268 -9.173,3.804c-2.387,2.535 -3.58,6.04 -3.58,10.516c-0,4.549 1.193,8.11 3.58,10.683c2.386,2.573 5.444,3.86 9.173,3.86Z" style="fill-rule:nonzero;"/><path d="M1161.53,1134.31c2.162,-2.759 4.978,-4.829 8.446,-6.208c3.468,-1.38 7.439,-2.07 11.914,-2.07l0,19.13c-1.939,-0.224 -3.543,-0.336 -4.81,-0.336c-4.549,0 -8.111,1.232 -10.684,3.692c-2.573,2.462 -3.86,6.228 -3.86,11.299l0,27.857l-21.255,-0l-0,-60.635l20.249,-0l-0,7.271Z" style="fill-rule:nonzero;"/><path d="M1234.36,1185.21c-1.79,1.119 -3.971,1.977 -6.544,2.574c-2.573,0.596 -5.314,0.894 -8.223,0.894c-7.906,0 -13.984,-1.939 -18.235,-5.817c-4.251,-3.878 -6.377,-9.658 -6.377,-17.34l0,-20.361l-8.838,-0l0,-15.886l8.838,0l0,-15.773l21.256,-0l-0,15.773l13.872,0l-0,15.886l-13.872,-0l-0,20.137c-0,2.163 0.578,3.86 1.734,5.09c1.156,1.231 2.704,1.846 4.643,1.846c2.461,0 4.623,-0.634 6.488,-1.902l5.258,14.879Z" style="fill-rule:nonzero;"/><path d="M1305.96,1127.03l-0,49.559c-0,11.262 -3.058,19.708 -9.174,25.339c-6.116,5.631 -14.917,8.447 -26.402,8.447c-5.967,-0 -11.56,-0.672 -16.78,-2.014c-5.222,-1.342 -9.659,-3.319 -13.314,-5.929l7.72,-14.879c2.461,2.013 5.575,3.598 9.341,4.754c3.767,1.156 7.477,1.734 11.131,1.734c5.594,0 9.696,-1.23 12.306,-3.691c2.611,-2.462 3.916,-6.116 3.916,-10.964l-0,-2.014c-4.102,4.774 -10.106,7.16 -18.012,7.16c-5.369,0 -10.33,-1.212 -14.879,-3.636c-4.549,-2.423 -8.166,-5.854 -10.851,-10.292c-2.686,-4.437 -4.028,-9.565 -4.028,-15.382c0,-5.743 1.342,-10.833 4.028,-15.271c2.685,-4.437 6.302,-7.868 10.851,-10.292c4.549,-2.424 9.51,-3.636 14.879,-3.636c8.651,0 14.991,2.797 19.018,8.39l0,-7.383l20.25,-0Zm-34.234,40.61c3.804,-0 6.955,-1.156 9.454,-3.468c2.498,-2.312 3.747,-5.296 3.747,-8.95c0,-3.655 -1.23,-6.62 -3.691,-8.894c-2.462,-2.275 -5.631,-3.412 -9.51,-3.412c-3.878,0 -7.066,1.137 -9.564,3.412c-2.499,2.274 -3.748,5.239 -3.748,8.894c-0,3.654 1.267,6.638 3.803,8.95c2.536,2.312 5.705,3.468 9.509,3.468Z" style="fill-rule:nonzero;"/><path d="M1345.45,1126.03c10.068,0 17.748,2.294 23.042,6.88c5.302,4.587 7.949,11.616 7.949,21.088l0,33.674l-19.805,-0l0,-7.831c-3.057,5.892 -9.022,8.837 -17.898,8.837c-4.699,0 -8.764,-0.82 -12.194,-2.461c-3.431,-1.64 -6.022,-3.859 -7.775,-6.656c-1.753,-2.797 -2.629,-5.985 -2.629,-9.565c0,-5.743 2.2,-10.199 6.6,-13.369c4.4,-3.169 11.187,-4.755 20.361,-4.755l12.081,0c-0.373,-6.414 -4.66,-9.62 -12.864,-9.62c-2.909,-0 -5.855,0.466 -8.838,1.398c-2.984,0.932 -5.519,2.219 -7.608,3.86l-7.159,-14.432c3.356,-2.238 7.439,-3.971 12.25,-5.202c4.81,-1.231 9.639,-1.846 14.487,-1.846Zm-0.783,49.224c2.462,-0 4.625,-0.597 6.489,-1.79c1.864,-1.193 3.206,-2.946 4.026,-5.258l0,-5.258l-9.172,-0c-6.191,-0 -9.286,2.051 -9.286,6.153c0,1.864 0.708,3.356 2.126,4.475c1.417,1.118 3.356,1.678 5.817,1.678Z" style="fill-rule:nonzero;"/><path d="M1455.98,1127.03l0,49.559c0,11.262 -3.057,19.708 -9.172,25.339c-6.122,5.631 -14.92,8.447 -26.404,8.447c-5.965,-0 -11.557,-0.672 -16.784,-2.014c-5.22,-1.342 -9.657,-3.319 -13.311,-5.929l7.718,-14.879c2.461,2.013 5.578,3.598 9.343,4.754c3.766,1.156 7.479,1.734 11.133,1.734c5.592,0 9.694,-1.23 12.303,-3.691c2.61,-2.462 3.915,-6.116 3.915,-10.964l0,-2.014c-4.101,4.774 -10.104,7.16 -18.008,7.16c-5.368,0 -10.334,-1.212 -14.883,-3.636c-4.549,-2.423 -8.165,-5.854 -10.849,-10.292c-2.685,-4.437 -4.027,-9.565 -4.027,-15.382c-0,-5.743 1.342,-10.833 4.027,-15.271c2.684,-4.437 6.3,-7.868 10.849,-10.292c4.549,-2.424 9.515,-3.636 14.883,-3.636c8.65,0 14.988,2.797 19.015,8.39l-0,-7.383l20.252,-0Zm-34.233,40.61c3.803,-0 6.957,-1.156 9.455,-3.468c2.498,-2.312 3.743,-5.296 3.743,-8.95c-0,-3.655 -1.23,-6.62 -3.691,-8.894c-2.461,-2.275 -5.63,-3.412 -9.507,-3.412c-3.878,0 -7.069,1.137 -9.567,3.412c-2.498,2.274 -3.743,5.239 -3.743,8.894c-0,3.654 1.267,6.638 3.802,8.95c2.536,2.312 5.705,3.468 9.508,3.468Z" style="fill-rule:nonzero;"/><path d="M1531.6,1157.46c0,0.15 -0.112,1.902 -0.335,5.258l-44.076,0c0.894,3.133 2.624,5.538 5.197,7.216c2.572,1.678 5.801,2.517 9.678,2.517c2.909,0 5.429,-0.41 7.554,-1.231c2.125,-0.82 4.265,-2.162 6.428,-4.027l11.192,11.635c-5.891,6.563 -14.511,9.844 -25.845,9.844c-7.083,0 -13.31,-1.342 -18.678,-4.027c-5.377,-2.685 -9.53,-6.414 -12.475,-11.187c-2.946,-4.773 -4.422,-10.181 -4.422,-16.221c-0,-5.967 1.439,-11.318 4.31,-16.054c2.871,-4.736 6.837,-8.447 11.915,-11.132c5.071,-2.685 10.775,-4.027 17.113,-4.027c6.04,0 11.521,1.249 16.442,3.748c4.929,2.498 8.821,6.116 11.692,10.851c2.871,4.736 4.31,10.349 4.31,16.837Zm-32.332,-16.333c-3.281,-0 -6.025,0.932 -8.224,2.797c-2.2,1.864 -3.595,4.4 -4.191,7.607l24.831,-0c-0.597,-3.207 -1.991,-5.743 -4.191,-7.607c-2.2,-1.865 -4.944,-2.797 -8.225,-2.797Z" style="fill-rule:nonzero;"/><path d="M827.937,1108.97c17.09,-6.769 35.806,-10.503 55.419,-10.503c6.112,0 12.136,0.362 18.044,1.066c-6.187,77.526 -71.149,138.602 -150.262,138.602c-79.114,0 -144.075,-61.076 -150.263,-138.602c5.909,-0.704 11.933,-1.066 18.045,-1.066c19.613,0 38.329,3.734 55.419,10.503c9.424,33.552 40.259,58.178 76.799,58.178c36.54,-0 67.374,-24.626 76.799,-58.178Zm36.09,-106.26c10.306,18.535 16.179,39.876 16.179,62.579c0,2.657 -0.079,5.295 -0.239,7.919l-0.502,-0.001c-51.47,-0 -97.559,23.225 -128.327,59.784c-30.768,-36.559 -76.857,-59.784 -128.327,-59.784l-0.502,0.001c-0.159,-2.624 -0.24,-5.262 -0.24,-7.919c0,-22.703 5.874,-44.044 16.18,-62.579c41.368,2.643 79.891,15.837 112.889,36.929c32.998,-21.092 71.521,-34.286 112.889,-36.929Zm-169.175,-17.602c12.417,-26.023 32.042,-47.967 56.286,-63.239c24.244,15.272 43.868,37.216 56.286,63.239c-19.804,5.597 -38.662,13.442 -56.286,23.243c-17.624,-9.801 -36.483,-17.646 -56.286,-23.243Z"/></g></g></svg>