<?xml version="1.0" encoding="UTF-8" standalone="no"?>
<!DOCTYPE svg PUBLIC "-//W3C//DTD SVG 1.1//EN" "http://www.w3.org/Graphics/SVG/1.1/DTD/svg11.dtd">
<svg width="100%" height="100%" viewBox="0 0 600 300" version="1.1" xmlns="http://www.w3.org/2000/svg" xmlns:xlink="http://www.w3.org/1999/xlink" xml:space="preserve" xmlns:serif="http://www.serif.com/" style="fill-rule:evenodd;clip-rule:evenodd;stroke-linejoin:round;stroke-miterlimit:2;">
    <g transform="matrix(1,0,0,1,-2600,0)">
        <g id="logo-greenverd" transform="matrix(1,0,0,0.5,0,0)">
            <rect x="2600" y="0" width="600" height="600" style="fill:none;"/>
            <g transform="matrix(0.0779231,0,0,0.156689,2759.99,258.917)">
                <g transform="matrix(4.16667,0,0,4.14427,0,134.597)">
                    <path d="M154.517,15.839C160.599,6.378 171.298,1.648 186.615,1.648L186.615,21.751C184.813,21.414 183.18,21.245 181.716,21.245C173.495,21.245 167.075,23.638 162.457,28.424C157.84,33.211 155.531,40.109 155.531,49.119L155.531,92.875L134.413,92.875L134.413,2.661L154.517,2.661L154.517,15.839Z" style="fill-rule:nonzero;"/>
                </g>
                <g transform="matrix(4.16667,0,0,4.14427,0,139.497)">
                    <path d="M243.21,74.967C253.008,74.967 261.174,71.701 267.706,65.169L278.856,78.177C274.914,83.02 269.846,86.68 263.652,89.158C257.457,91.636 250.474,92.875 242.703,92.875C232.792,92.875 224.064,90.904 216.518,86.962C208.972,83.02 203.143,77.529 199.032,70.49C194.922,63.451 192.866,55.483 192.866,46.585C192.866,37.801 194.865,29.889 198.864,22.849C202.862,15.81 208.38,10.32 215.42,6.378C222.459,2.436 230.427,0.465 239.324,0.465C247.771,0.465 255.458,2.295 262.384,5.956C269.311,9.616 274.801,14.853 278.856,21.667C282.911,28.481 284.938,36.449 284.938,45.572L215.842,59.087C217.982,64.268 221.417,68.21 226.147,70.913C230.877,73.616 236.565,74.967 243.21,74.967ZM239.324,17.359C231.553,17.359 225.274,19.893 220.488,24.961C215.701,30.029 213.308,36.843 213.308,45.403L213.308,45.572L264.327,35.773C262.863,30.255 259.907,25.806 255.458,22.427C251.009,19.048 245.631,17.359 239.324,17.359Z" style="fill-rule:nonzero;"/>
                </g>
                <g transform="matrix(4.16667,0,0,4.14427,0,139.497)">
                    <path d="M344.742,74.967C354.541,74.967 362.706,71.701 369.238,65.169L380.388,78.177C376.446,83.02 371.378,86.68 365.184,89.158C358.989,91.636 352.006,92.875 344.235,92.875C334.324,92.875 325.596,90.904 318.05,86.962C310.504,83.02 304.675,77.529 300.565,70.49C296.454,63.451 294.398,55.483 294.398,46.585C294.398,37.801 296.397,29.889 300.396,22.849C304.394,15.81 309.913,10.32 316.952,6.378C323.991,2.436 331.959,0.465 340.857,0.465C349.303,0.465 356.99,2.295 363.917,5.956C370.843,9.616 376.334,14.853 380.388,21.667C384.443,28.481 386.47,36.449 386.47,45.572L317.374,59.087C319.514,64.268 322.949,68.21 327.679,70.913C332.41,73.616 338.097,74.967 344.742,74.967ZM340.857,17.359C333.085,17.359 326.806,19.893 322.02,24.961C317.233,30.029 314.84,36.843 314.84,45.403L314.84,45.572L365.859,35.773C364.395,30.255 361.439,25.806 356.99,22.427C352.541,19.048 347.164,17.359 340.857,17.359Z" style="fill-rule:nonzero;"/>
                </g>
                <g transform="matrix(4.16667,0,0,4.14427,0,134.597)">
                    <path d="M454.552,1.648C465.928,1.648 475.05,4.97 481.92,11.615C488.791,18.26 492.226,28.115 492.226,41.179L492.226,92.875L471.108,92.875L471.108,43.882C471.108,35.998 469.25,30.057 465.533,26.059C461.817,22.061 456.523,20.062 449.653,20.062C441.882,20.062 435.744,22.399 431.239,27.073C426.734,31.747 424.481,38.476 424.481,47.261L424.481,92.875L403.364,92.875L403.364,2.661L423.468,2.661L423.468,14.318C426.959,10.151 431.351,6.997 436.645,4.858C441.938,2.718 447.907,1.648 454.552,1.648Z" style="fill-rule:nonzero;"/>
                </g>
                <g transform="matrix(4.16667,0,0,4.14427,0,138.798)">
                    <path d="M598.488,1.648L559.801,91.861L538.008,91.861L499.321,1.648L521.283,1.648L549.327,68.547L578.215,1.648L598.488,1.648Z" style="fill-rule:nonzero;"/>
                </g>
                <g transform="matrix(4.16667,0,0,4.14427,0,139.497)">
                    <path d="M648.663,74.967C658.461,74.967 666.627,71.701 673.159,65.169L684.309,78.177C680.367,83.02 675.299,86.68 669.105,89.158C662.91,91.636 655.927,92.875 648.156,92.875C638.245,92.875 629.517,90.904 621.971,86.962C614.425,83.02 608.596,77.529 604.485,70.49C600.375,63.451 598.319,55.483 598.319,46.585C598.319,37.801 600.318,29.889 604.317,22.849C608.315,15.81 613.833,10.32 620.873,6.378C627.912,2.436 635.88,0.465 644.777,0.465C653.224,0.465 660.911,2.295 667.837,5.956C674.764,9.616 680.254,14.853 684.309,21.667C688.364,28.481 690.391,36.449 690.391,45.572L621.295,59.087C623.435,64.268 626.87,68.21 631.6,70.913C636.33,73.616 642.018,74.967 648.663,74.967ZM644.777,17.359C637.006,17.359 630.727,19.893 625.941,24.961C621.154,30.029 618.761,36.843 618.761,45.403L618.761,45.572L669.78,35.773C668.316,30.255 665.36,25.806 660.911,22.427C656.462,19.048 651.084,17.359 644.777,17.359Z" style="fill-rule:nonzero;"/>
                </g>
                <g transform="matrix(4.16667,0,0,4.14427,0,134.597)">
                    <path d="M727.388,15.839C733.47,6.378 744.17,1.648 759.487,1.648L759.487,21.751C757.685,21.414 756.052,21.245 754.588,21.245C746.366,21.245 739.946,23.638 735.329,28.424C730.711,33.211 728.402,40.109 728.402,49.119L728.402,92.875L707.285,92.875L707.285,2.661L727.388,2.661L727.388,15.839Z" style="fill-rule:nonzero;"/>
                </g>
                <g transform="matrix(4.16667,0,0,4.14427,0,-1.9275)">
                    <path d="M861.526,0.465L861.526,125.818L841.253,125.818L841.253,114.161C837.762,118.44 833.454,121.65 828.329,123.79C823.205,125.93 817.545,127 811.351,127C802.679,127 794.879,125.085 787.953,121.256C781.026,117.427 775.592,111.993 771.65,104.953C767.708,97.914 765.738,89.833 765.738,80.711C765.738,71.588 767.708,63.535 771.65,56.553C775.592,49.57 781.026,44.164 787.953,40.334C794.879,36.505 802.679,34.59 811.351,34.59C817.32,34.59 822.782,35.604 827.738,37.631C832.694,39.659 836.917,42.7 840.408,46.754L840.408,0.465L861.526,0.465ZM813.885,108.924C818.953,108.924 823.515,107.769 827.569,105.46C831.624,103.152 834.833,99.857 837.199,95.577C839.564,91.298 840.746,86.342 840.746,80.711C840.746,75.08 839.564,70.124 837.199,65.844C834.833,61.564 831.624,58.27 827.569,55.961C823.515,53.652 818.953,52.498 813.885,52.498C808.817,52.498 804.256,53.652 800.201,55.961C796.146,58.27 792.937,61.564 790.572,65.844C788.206,70.124 787.024,75.08 787.024,80.711C787.024,86.342 788.206,91.298 790.572,95.577C792.937,99.857 796.146,103.152 800.201,105.46C804.256,107.769 808.817,108.924 813.885,108.924Z" style="fill-rule:nonzero;"/>
                </g>
                <g transform="matrix(4.16667,0,0,4.14427,0,152.691)">
                    <path d="M111.099,21.266L111.099,68.89L92.3,68.89L92.3,40.064L63.474,40.064L63.474,21.266L111.099,21.266Z"/>
                </g>
                <g transform="matrix(4.16667,0,0,4.14427,0,1.78286)">
                    <path d="M61.008,124.103C50.117,124.091 40.122,121.725 31.023,117.007C21.9,112.277 14.608,105.407 9.145,96.397C3.683,87.387 0.952,76.631 0.952,64.13C0.952,52.304 3.711,41.689 9.23,32.285C14.748,22.881 22.379,15.56 32.121,10.323C41.863,5.086 52.816,2.467 64.98,2.467C74.891,2.467 83.901,4.1 92.01,7.366C100.119,10.633 106.933,15.419 112.451,21.726L98.598,35.241C89.588,26.231 78.72,21.726 65.993,21.726C57.659,21.726 50.254,23.5 43.778,27.048C37.302,30.595 32.234,35.579 28.573,41.999C24.913,48.418 23.083,55.739 23.083,63.961C23.083,72.633 24.913,80.094 28.573,86.345C32.234,92.596 37.105,97.326 43.186,100.536C48.67,103.43 54.611,105.019 61.011,105.304L92.3,105.304L92.3,124.103L61.008,124.103Z" style="fill-rule:nonzero;"/>
                </g>
            </g>
        </g>
    </g>
</svg>
