<?xml version="1.0" encoding="UTF-8" standalone="no"?><!DOCTYPE svg PUBLIC "-//W3C//DTD SVG 1.1//EN" "http://www.w3.org/Graphics/SVG/1.1/DTD/svg11.dtd"><svg width="100%" height="100%" viewBox="0 0 2160 2160" version="1.1" xmlns="http://www.w3.org/2000/svg" xmlns:xlink="http://www.w3.org/1999/xlink" xml:space="preserve" xmlns:serif="http://www.serif.com/" style="fill-rule:evenodd;clip-rule:evenodd;stroke-linejoin:round;stroke-miterlimit:2;"><rect id="logofolio-pp-1" x="0" y="0" width="2160" height="2160" style="fill:#fff;"/><g id="logofolio-pp-11" serif:id="logofolio-pp-1"><path d="M1149.25,1106.86c-13.347,-14.238 -32.562,-23.213 -54.005,-23.213c-40.559,0 -73.146,32.108 -73.146,71.22c-0,39.113 32.587,71.22 73.146,71.22c21.443,0 40.658,-8.974 54.005,-23.212c13.347,14.238 32.562,23.212 54.006,23.212c40.558,0 73.145,-32.107 73.145,-71.22c0,-39.112 -32.587,-71.22 -73.145,-71.22c-21.444,0 -40.659,8.975 -54.006,23.213Zm316.423,115.701c-11.221,-0 -21.763,-1.203 -31.627,-3.607c-9.865,-2.404 -18.003,-5.579 -24.414,-9.525l16.83,-32.182c13.934,8.014 28.483,12.022 43.65,12.022c5.548,-0 9.802,-0.678 12.761,-2.035c2.96,-1.356 4.439,-3.206 4.439,-5.548c0,-2.22 -1.51,-4.008 -4.531,-5.364c-3.021,-1.356 -7.799,-2.836 -14.334,-4.439c-8.631,-2.219 -15.783,-4.47 -21.455,-6.751c-5.672,-2.281 -10.635,-5.795 -14.888,-10.542c-4.254,-4.747 -6.381,-11.005 -6.381,-18.773c-0,-9.741 2.62,-18.28 7.86,-25.616c5.241,-7.337 12.793,-13.009 22.657,-17.016c9.864,-4.007 21.516,-6.011 34.956,-6.011c9.618,0 18.588,0.956 26.911,2.867c8.323,1.911 15.506,4.655 21.547,8.23l-15.721,31.812c-5.055,-3.205 -10.635,-5.61 -16.738,-7.213c-6.104,-1.603 -12.361,-2.404 -18.773,-2.404c-6.042,-0 -10.727,0.863 -14.056,2.589c-3.33,1.726 -4.994,3.761 -4.994,6.104c-0,2.342 1.51,4.192 4.531,5.548c3.021,1.357 7.984,2.836 14.889,4.439c8.385,1.973 15.444,4.069 21.177,6.289c5.734,2.219 10.697,5.672 14.889,10.357c4.192,4.686 6.288,10.851 6.288,18.496c0,9.617 -2.651,18.063 -7.953,25.338c-5.302,7.275 -12.885,12.916 -22.749,16.924c-9.864,4.007 -21.455,6.011 -34.771,6.011Zm-444.007,-132.428l-25.894,129.468l-43.649,0l9.617,-47.718l-40.32,0l-9.617,47.718l-43.649,0l25.893,-129.468l43.649,0l-9.247,45.869l40.32,0l9.247,-45.869l43.65,0Zm338.583,0c17.262,0 30.641,3.761 40.135,11.283c9.494,7.521 14.241,18.063 14.241,31.627c0,10.85 -2.681,20.406 -8.045,28.668c-5.364,8.261 -13.009,14.673 -22.934,19.235c-9.926,4.562 -21.424,6.843 -34.494,6.843l-22.38,0l-6.288,31.812l-43.65,0l25.894,-129.468l57.521,0Zm-238.443,100.59c4.81,-0 8.715,3.905 8.715,8.715c-0,4.81 -3.905,8.716 -8.715,8.716c-4.811,-0 -8.716,-3.906 -8.716,-8.716c0,-4.81 3.905,-8.715 8.716,-8.715Zm81.45,-68.796c19.055,0 34.865,14.564 34.865,32.94c0,18.377 -15.81,32.94 -34.865,32.94c-19.056,0 -34.866,-14.563 -34.866,-32.94c0,-18.376 15.81,-32.94 34.866,-32.94Zm-108.011,0c19.055,0 34.865,14.564 34.865,32.94c-0,18.377 -15.81,32.94 -34.865,32.94c-19.056,0 -34.866,-14.563 -34.866,-32.94c0,-18.376 15.81,-32.94 34.866,-32.94Zm256.126,32.201c6.042,-0 10.727,-1.511 14.057,-4.532c3.329,-3.021 4.993,-7.244 4.993,-12.669c0,-8.755 -5.425,-13.132 -16.276,-13.132l-14.611,0l-6.104,30.333l17.941,-0Zm-174.676,-52.547c4.81,0 8.715,3.905 8.715,8.715c-0,4.811 -3.905,8.716 -8.715,8.716c-4.811,-0 -8.716,-3.905 -8.716,-8.716c0,-4.81 3.905,-8.715 8.716,-8.715Zm-518.386,-134.739l-3.514,12.762l3.33,0c15.536,0 27.465,3.083 35.788,9.248c8.323,6.165 12.485,15.228 12.485,27.188c-0,10.234 -2.836,19.174 -8.508,26.819c-5.672,7.644 -13.471,13.47 -23.397,17.478c-9.926,4.007 -21.177,6.011 -33.754,6.011c-9.494,-0 -18.526,-1.11 -27.096,-3.329c-8.57,-2.22 -16.183,-5.611 -22.842,-10.173l19.79,-30.332c4.932,3.082 10.296,5.425 16.091,7.028c5.796,1.603 11.467,2.404 17.016,2.404c6.042,0 10.666,-0.955 13.872,-2.866c3.206,-1.912 4.808,-4.594 4.808,-8.046c0,-2.836 -1.233,-4.963 -3.699,-6.381c-2.466,-1.418 -6.596,-2.127 -12.392,-2.127l-39.395,0l22.195,-78.605l86.003,-0l-6.658,32.921l-50.123,0Zm279.466,-32.921l43.649,-0l-19.05,95.621l58.446,-0l-6.844,33.847l-102.094,-0l25.893,-129.468Zm150.368,32.921l-2.959,15.167l54.746,-0l-6.288,31.442l-54.932,-0l-3.329,17.016l64.919,-0l-6.658,32.922l-107.644,-0l25.894,-129.468l105.239,-0l-6.658,32.921l-62.33,0Zm265.224,0l-2.959,15.167l54.746,-0l-6.288,31.442l-54.931,-0l-3.33,17.016l64.919,-0l-6.658,32.922l-107.643,-0l25.893,-129.468l105.239,-0l-6.658,32.921l-62.33,0Zm-503.815,0l-2.959,15.167l54.746,-0l-6.288,31.442l-54.932,-0l-3.329,17.016l64.919,-0l-6.658,32.922l-107.644,-0l25.894,-129.468l105.239,-0l-6.658,32.921l-62.33,0Zm463.31,-32.921l-80.64,129.468l-42.909,-0l-28.853,-129.468l44.759,-0l16.091,75.461l46.793,-75.461l44.759,-0Zm256.347,-0l-25.894,129.468l-35.881,-0l-37.176,-60.296l-12.022,60.296l-42.539,-0l25.893,-129.468l35.882,-0l37.175,60.295l12.022,-60.295l42.54,-0Zm-841.542,47.903l55.487,-0l-6.289,31.442l-55.486,-0l6.288,-31.442Z" style="fill-rule:nonzero;"/></g></svg>