<?xml version="1.0" encoding="UTF-8" standalone="no"?>
<!DOCTYPE svg PUBLIC "-//W3C//DTD SVG 1.1//EN" "http://www.w3.org/Graphics/SVG/1.1/DTD/svg11.dtd">
<svg width="100%" height="100%" viewBox="0 0 600 300" version="1.1" xmlns="http://www.w3.org/2000/svg" xmlns:xlink="http://www.w3.org/1999/xlink" xml:space="preserve" xmlns:serif="http://www.serif.com/" style="fill-rule:evenodd;clip-rule:evenodd;stroke-linejoin:round;stroke-miterlimit:2;">
    <g transform="matrix(1,0,0,1,-8450,0)">
        <g id="logo-skole" transform="matrix(1,0,0,0.5,0,0)">
            <rect x="8450" y="0" width="600" height="600" style="fill:none;"/>
            <g transform="matrix(0.561595,0,0,1.12319,5559.14,961.698)">
                <path d="M5697.51,-605.077C5712.51,-604.936 5726.48,-592.582 5728.13,-577.436C5729.55,-564.312 5721.58,-550.685 5709.37,-545.519C5698.79,-541.038 5685.74,-543.089 5677.02,-550.642C5667.12,-559.22 5663.61,-574.419 5668.9,-586.489C5673.63,-597.318 5684.87,-604.886 5696.91,-605.075C5697.11,-605.077 5697.31,-605.078 5697.51,-605.077ZM5601.14,-623.078L5570.4,-623.078C5570.71,-622.911 5571.03,-622.742 5571.34,-622.574C5585.68,-614.793 5598.85,-605.565 5603.13,-587.7C5606.43,-573.899 5600.82,-558.359 5589.33,-549.979C5575.8,-540.11 5555.33,-541.272 5542.99,-553.324C5536.2,-559.959 5532.23,-569.302 5532.14,-578.845L5532.12,-585.055L5544.12,-585.101C5544.14,-579.61 5544.06,-574.067 5546.26,-569.209C5551.5,-557.628 5566.88,-551.732 5578.67,-557.506C5585.59,-560.898 5590.69,-567.797 5591.86,-575.42C5594.78,-594.497 5576.64,-607.417 5558.03,-615.758C5551.34,-618.755 5544.41,-621.253 5537.32,-623.099L5536.87,-623.211L5534.9,-623.691L5534.9,-635.078L5601.14,-635.078L5601.14,-623.078ZM5784.06,-564.239C5788.79,-557.096 5798.62,-553.276 5807.01,-556.525C5810.96,-558.058 5814.36,-560.971 5816.51,-564.641C5816.51,-564.641 5826.95,-558.715 5826.95,-558.715C5819.94,-546.695 5804.26,-540.474 5790.92,-544.635C5778.5,-548.508 5769.25,-560.861 5769.12,-573.941C5768.96,-590.019 5782.89,-604.92 5799.64,-605.237C5799.89,-605.24 5800.15,-605.241 5800.4,-605.24C5811.99,-605.099 5822.84,-597.951 5827.94,-587.342C5828.47,-586.238 5828.69,-585.69 5828.96,-584.952C5830.16,-581.782 5830.85,-579.778 5831.45,-576.936L5784.06,-564.239ZM5763.8,-623.078L5749.6,-623.078L5749.2,-574.826C5749.13,-564.503 5757.86,-555.041 5768.68,-554.756L5768.95,-554.752L5768.92,-543.404C5752.5,-543.335 5737.37,-557.497 5737.19,-574.807L5736.7,-635.078L5743.2,-635.078L5743.2,-635.078L5763.8,-635.078L5763.8,-623.078ZM5642.2,-623.078L5628.11,-623.078L5628.11,-584.52C5629.76,-584.317 5631.39,-584.004 5632.99,-583.587C5635.37,-594.701 5645.61,-603.863 5657.5,-603.975L5657.64,-603.975C5657.65,-599.975 5657.67,-595.975 5657.68,-591.975C5657.5,-591.974 5657.32,-591.971 5657.15,-591.965C5650.42,-591.688 5644.58,-585.262 5644.48,-578.568C5655.65,-571.478 5663.61,-559.031 5663.66,-544.904L5651.66,-544.858C5651.66,-545.106 5651.66,-545.355 5651.65,-545.604C5651.3,-558.404 5641.1,-570.168 5628.11,-572.41L5628.11,-544.881L5615.11,-544.881L5615.11,-635.078L5621.61,-635.078L5621.61,-635.078L5642.2,-635.078L5642.2,-623.078ZM5697.18,-593.078C5686.43,-592.976 5676.95,-582.372 5678.49,-571.418C5679.74,-562.491 5688.12,-555.135 5697.18,-555.078C5709.84,-554.999 5720.57,-570.157 5714.28,-582.616C5711.19,-588.734 5704.65,-592.919 5697.68,-593.074C5697.51,-593.077 5697.35,-593.078 5697.18,-593.078ZM5697.31,-582.085C5701.73,-582.085 5705.31,-578.497 5705.31,-574.078C5705.31,-569.659 5701.73,-566.071 5697.31,-566.071C5692.89,-566.071 5689.3,-569.659 5689.3,-574.078C5689.3,-578.497 5692.89,-582.085 5697.31,-582.085ZM5816.19,-584.155C5810.86,-594.039 5797.31,-596.141 5788.66,-589.291C5785.79,-587.016 5783.55,-583.737 5782.34,-580.295C5781.73,-578.55 5781.34,-576.703 5781.23,-574.856L5816.19,-584.155Z"/>
            </g>
        </g>
    </g>
</svg>
