<?xml version="1.0" encoding="UTF-8" standalone="no"?>
<!DOCTYPE svg PUBLIC "-//W3C//DTD SVG 1.1//EN" "http://www.w3.org/Graphics/SVG/1.1/DTD/svg11.dtd">
<svg width="100%" height="100%" viewBox="0 0 2500 1250" version="1.1" xmlns="http://www.w3.org/2000/svg" xmlns:xlink="http://www.w3.org/1999/xlink" xml:space="preserve" xmlns:serif="http://www.serif.com/" style="fill-rule:evenodd;clip-rule:evenodd;stroke-linejoin:round;stroke-miterlimit:2;">
    <rect id="logo-nots" x="0" y="0" width="2500" height="1250" style="fill:none;"/>
    <g>
        <path d="M1077.77,526.315l-43.472,-0l0,146.387c0,2.984 -0.769,5.33 -2.318,7.037c-1.544,1.702 -3.382,2.553 -5.51,2.553c-3.944,0 -6.873,-2.078 -8.793,-6.23c-3.513,-7.675 -9.11,-27.488 -16.78,-59.455c-6.923,-29.086 -14.222,-50.126 -21.891,-63.126c-11.402,-19.496 -26.801,-29.245 -46.189,-29.245c-14.494,0 -26.37,3.197 -35.638,9.59c-10.763,7.457 -16.141,18.324 -16.141,32.6l-0,156.621l43.149,0l0,-146.551c0,-2.771 0.53,-4.926 1.599,-6.47c1.063,-1.543 2.929,-2.64 5.591,-3.278c4.048,-0.535 9.323,7.986 15.82,25.568c4.691,12.89 10.179,30.739 16.463,53.542c6.928,25.142 10.812,38.992 11.669,41.551c4.26,12.678 11.505,22.426 21.733,29.245c9.164,6.071 19.496,9.11 31.007,9.11c13.316,-0 24.771,-3.781 34.361,-11.347c10.229,-8.095 15.34,-18.324 15.34,-30.685l-0,-157.417Z" style="fill-rule:nonzero;"/>
        <path d="M1345.35,723.047l42.67,0l0,-153.904l44.11,-0l0,-41.23l-130.731,0l-0,41.23l43.951,-0l0,153.904Z" style="fill-rule:nonzero;"/>
        <path d="M1606.01,704.511c8.63,-11.189 12.95,-24.881 12.95,-41.077c0,-16.3 -4.32,-29.992 -12.95,-41.072c-9.585,-12.361 -22.644,-18.536 -39.151,-18.536l-61.212,0c-4.898,0 -8.657,-1.642 -11.265,-4.937c-2.612,-3.278 -3.916,-7.255 -3.916,-11.919c-0,-4.773 1.358,-8.941 4.075,-12.498c2.716,-3.551 6.42,-5.329 11.106,-5.329l103.881,-0l0,-41.23l-111.071,0c-16.518,0 -29.675,6.175 -39.478,18.515c-8.734,11.068 -13.103,24.58 -13.103,40.542c-0,16.174 4.369,29.736 13.103,40.7c9.699,12.231 22.857,18.346 39.478,18.346l61.37,-0c4.686,-0 8.254,1.68 10.709,5.04c2.449,3.355 3.671,7.425 3.671,12.22c-0,4.795 -1.277,9.033 -3.835,12.71c-2.553,3.677 -6.072,5.51 -10.545,5.51l-104.361,-0l-0,41.551l111.393,0c16.507,0 29.566,-6.181 39.151,-18.536Z" style="fill-rule:nonzero;"/>
        <path d="M1267.6,554.097c-28.361,-28.361 -69.607,-36.014 -105.044,-23.184l14.904,40.957c14.838,-5.368 31.465,-4.402 45.61,3.017c3.278,1.718 6.426,3.786 9.377,6.197c1.484,1.2 2.918,2.498 4.299,3.873c1.374,1.375 2.662,2.809 3.867,4.288c2.411,2.956 4.473,6.098 6.197,9.377c1.724,3.284 3.104,6.704 4.135,10.201c0.513,1.746 0.949,3.513 1.288,5.297c0.692,3.567 1.036,7.19 1.036,10.801c0,1.811 -0.087,3.622 -0.256,5.422c-1.211,12.618 -6.634,24.903 -16.267,34.547c-1.179,1.179 -2.412,2.253 -3.661,3.306c-5.171,4.337 -10.932,7.577 -17.003,9.776c-1.064,0.392 -2.128,0.802 -3.202,1.118c-3.503,1.036 -7.076,1.724 -10.687,2.067c-3.606,0.35 -7.239,0.35 -10.839,0c-3.611,-0.343 -7.185,-1.031 -10.687,-2.067c-8.733,-2.58 -16.97,-7.31 -23.866,-14.2c-9.633,-9.644 -15.056,-21.929 -16.267,-34.547c-0.169,-1.8 -0.256,-3.611 -0.256,-5.422c-0,-3.611 0.343,-7.234 1.031,-10.801c0.343,-1.784 0.78,-3.551 1.293,-5.297c1.031,-3.497 2.411,-6.917 4.135,-10.201c1.723,-3.279 3.785,-6.421 6.197,-9.377c1.205,-1.479 2.493,-2.913 3.867,-4.288c1.179,-1.173 2.411,-2.258 3.661,-3.306l-28.034,-33.412c-2.215,1.865 -4.397,3.775 -6.481,5.858c-39.047,39.048 -39.047,102.6 0,141.653c28.361,28.355 69.607,36.014 105.043,23.184c10.763,-3.895 20.975,-9.639 30.129,-17.331c2.215,-1.86 4.397,-3.775 6.481,-5.853c39.047,-39.053 39.047,-102.605 -0,-141.653Z" style="fill-rule:nonzero;"/>
        <path d="M1185.9,595.038l-8.439,-23.168c-2.373,0.862 -4.719,1.822 -6.983,3.017c-3.278,1.718 -6.431,3.786 -9.383,6.197l-0.632,0.567l15.912,18.962c2.908,-2.444 6.104,-4.331 9.525,-5.575Z" style="fill-rule:nonzero;"/>
    </g>
</svg>
