<?xml version="1.0" encoding="UTF-8" standalone="no"?><!DOCTYPE svg PUBLIC "-//W3C//DTD SVG 1.1//EN" "http://www.w3.org/Graphics/SVG/1.1/DTD/svg11.dtd"><svg width="100%" height="100%" viewBox="0 0 2160 2160" version="1.1" xmlns="http://www.w3.org/2000/svg" xmlns:xlink="http://www.w3.org/1999/xlink" xml:space="preserve" xmlns:serif="http://www.serif.com/" style="fill-rule:evenodd;clip-rule:evenodd;stroke-linejoin:round;stroke-miterlimit:2;"><rect id="logofolio-pp-5" x="0" y="0" width="2160" height="2160" style="fill:#fff;"/><g id="logofolio-pp-51" serif:id="logofolio-pp-5"><g><path d="M1323.56,1100.4c-43.394,-0 -91.206,34.132 -106.573,76.354c-8.46,23.243 -5.774,44.256 4.346,59.502c10.285,15.493 28.521,25.638 52.797,25.638c43.394,0 91.206,-34.133 106.573,-76.355c8.46,-23.243 5.775,-44.255 -4.346,-59.501c-10.284,-15.494 -28.52,-25.638 -52.797,-25.638Zm-497.869,2.187l29.179,-0l-0,157.12l-29.179,-0l-0,-157.12Zm174.402,157.12l-32.097,-46.014c-1.347,0.15 -3.367,0.224 -6.06,0.224l-35.464,0l-0,45.79l-29.18,-0l0,-157.12l64.644,-0c13.617,-0 25.476,2.245 35.576,6.734c10.101,4.489 17.844,10.923 23.231,19.303c5.387,8.38 8.081,18.331 8.081,29.853c-0,11.821 -2.881,21.996 -8.642,30.526c-5.761,8.529 -14.028,14.889 -24.802,19.079l36.137,51.625l-31.424,-0Zm164.078,-0l-32.097,-46.014c-1.347,0.15 -3.367,0.224 -6.06,0.224l-35.465,0l0,45.79l-29.179,-0l0,-157.12l64.644,-0c13.617,-0 25.475,2.245 35.576,6.734c10.101,4.489 17.844,10.923 23.231,19.303c5.387,8.38 8.081,18.331 8.081,29.853c-0,11.821 -2.881,21.996 -8.642,30.526c-5.761,8.529 -14.028,14.889 -24.802,19.079l36.137,51.625l-31.424,-0Zm353.071,-0l-32.098,-46.014c-1.346,0.15 -3.367,0.224 -6.06,0.224l-35.464,0l-0,45.79l-29.18,-0l0,-157.12l64.644,-0c13.617,-0 25.476,2.245 35.576,6.734c10.101,4.489 17.845,10.923 23.232,19.303c5.387,8.38 8.08,18.331 8.08,29.853c-0,11.821 -2.881,21.996 -8.642,30.526c-5.761,8.529 -14.028,14.889 -24.802,19.079l36.137,51.625l-31.423,-0Zm-761.582,-0l-0.224,-104.148l-51.625,86.191l-13.019,0l-51.625,-84.845l0,102.802l-27.832,-0l-0,-157.12l24.016,-0l62.399,104.148l61.277,-104.148l24.017,-0l0.224,157.12l-27.608,-0Zm567.9,-133.622c14.246,0 25.362,5.067 31.397,14.158c6.2,9.34 6.792,22.273 1.61,36.511c-11.914,32.733 -48.795,59.454 -82.437,59.454c-14.245,0 -25.362,-5.066 -31.397,-14.158c-6.199,-9.339 -6.792,-22.272 -1.609,-36.511c11.914,-32.733 48.794,-59.454 82.436,-59.454Zm-324.14,32.392c0,-10.026 -3.292,-17.732 -9.876,-23.119c-6.584,-5.387 -16.236,-8.081 -28.955,-8.081l-34.117,0l-0,62.624l34.117,-0c12.719,-0 22.371,-2.731 28.955,-8.193c6.584,-5.462 9.876,-13.206 9.876,-23.231Zm164.078,-0c-0,-10.026 -3.292,-17.732 -9.876,-23.119c-6.584,-5.387 -16.236,-8.081 -28.955,-8.081l-34.118,0l0,62.624l34.118,-0c12.719,-0 22.371,-2.731 28.955,-8.193c6.584,-5.462 9.876,-13.206 9.876,-23.231Zm353.07,-0c0,-10.026 -3.292,-17.732 -9.876,-23.119c-6.584,-5.387 -16.236,-8.081 -28.955,-8.081l-34.117,0l-0,62.624l34.117,-0c12.719,-0 22.371,-2.731 28.955,-8.193c6.584,-5.462 9.876,-13.206 9.876,-23.231Zm-4.04,-181.364l27.608,-0l0,62.623c-8.08,6.434 -17.507,11.373 -28.281,14.814c-10.774,3.442 -21.848,5.163 -33.22,5.163c-16.011,-0 -30.451,-3.479 -43.32,-10.438c-12.869,-6.958 -22.97,-16.572 -30.302,-28.842c-7.332,-12.271 -10.998,-26.112 -10.998,-41.525c-0,-15.412 3.666,-29.254 10.998,-41.524c7.332,-12.27 17.47,-21.885 30.414,-28.843c12.944,-6.958 27.496,-10.437 43.657,-10.437c13.168,-0 25.139,2.17 35.913,6.509c10.774,4.34 19.827,10.699 27.159,19.079l-18.405,17.957c-11.971,-11.972 -26.411,-17.957 -43.32,-17.957c-11.074,-0 -20.912,2.319 -29.516,6.958c-8.605,4.639 -15.338,11.148 -20.201,19.528c-4.864,8.38 -7.295,17.956 -7.295,28.73c-0,10.475 2.431,19.902 7.295,28.282c4.863,8.38 11.596,14.964 20.201,19.752c8.604,4.788 18.368,7.183 29.291,7.183c12.27,-0 23.044,-2.694 32.322,-8.081l-0,-48.931Zm-725.893,-76.765l29.18,0l-0,132.43l82.151,-0l-0,24.69l-111.331,0l0,-157.12Zm134.45,0l29.179,0l0,157.12l-29.179,0l-0,-157.12Zm230.741,0l29.179,0l0,157.12l-29.179,0l0,-157.12Zm211.214,0l-0,157.12l-24.017,0l-86.64,-106.392l-0,106.392l-28.955,0l-0,-157.12l24.017,0l86.64,106.393l-0,-106.393l28.955,0Zm-227.824,0l-68.459,157.12l-28.73,0l-68.684,-157.12l31.648,0l52.299,121.207l52.747,-121.207l29.179,0Z" style="fill-rule:nonzero;"/></g></g></svg>