<?xml version="1.0" encoding="UTF-8" standalone="no"?><!DOCTYPE svg PUBLIC "-//W3C//DTD SVG 1.1//EN" "http://www.w3.org/Graphics/SVG/1.1/DTD/svg11.dtd"><svg width="100%" height="100%" viewBox="0 0 2160 2160" version="1.1" xmlns="http://www.w3.org/2000/svg" xmlns:xlink="http://www.w3.org/1999/xlink" xml:space="preserve" xmlns:serif="http://www.serif.com/" style="fill-rule:evenodd;clip-rule:evenodd;stroke-linejoin:round;stroke-miterlimit:2;"><rect id="logofolio-pp-6" x="0" y="0" width="2160" height="2160" style="fill:#fff;"/><g id="logofolio-pp-61" serif:id="logofolio-pp-6"><g><path d="M676.872,1174.39c-10.191,-10.192 -26.716,-10.192 -36.907,0c-0.002,0.001 -0.003,0.003 -0.005,0.004c-10.192,10.192 -10.192,26.716 0,36.908c0.001,0.001 0.002,0.002 0.002,0.002c4.895,4.895 11.534,7.645 18.456,7.645c6.923,0 13.562,-2.75 18.457,-7.645c-0,0 -0,0 -0,0c10.192,-10.193 10.192,-26.719 -0,-36.912c-0.001,-0.001 -0.002,-0.001 -0.003,-0.002Z"/><path d="M672.936,1065.71c-4.341,-4.342 -10.23,-6.781 -16.37,-6.781c-6.14,0 -12.028,2.439 -16.37,6.781c-16.646,16.646 -42.293,42.293 -58.939,58.939c-4.342,4.342 -6.781,10.23 -6.781,16.37c0,6.14 2.439,12.029 6.781,16.37c0.001,0.001 0.002,0.002 0.003,0.003c4.341,4.341 10.23,6.781 16.37,6.781c6.14,-0 12.028,-2.44 16.37,-6.781c16.646,-16.646 42.293,-42.293 58.939,-58.939c4.341,-4.342 6.781,-10.23 6.781,-16.37c-0,-6.14 -2.44,-12.029 -6.781,-16.37c-0.001,-0.001 -0.002,-0.002 -0.003,-0.003Z"/><path d="M733.682,1090.36c2.196,-2.195 3.429,-5.173 3.429,-8.278c0,-3.106 -1.233,-6.084 -3.429,-8.279c-11.486,-11.486 -30.858,-30.858 -30.858,-30.858c-8.313,-8.313 -8.313,-21.792 0,-30.105c0,-0 0,-0 0,-0c8.313,-8.314 21.792,-8.314 30.105,-0l54.191,54.19c8.312,8.313 8.312,21.79 -0,30.103c-15.306,15.305 -38.887,38.886 -54.192,54.192c-8.313,8.312 -21.79,8.312 -30.103,-0c-0,-0.001 -0.001,-0.001 -0.001,-0.002c-8.313,-8.313 -8.313,-21.791 0,-30.105c0,0 19.372,-19.372 30.858,-30.858Z"/><path d="M1444.43,1146.93c-13.111,-0 -24.923,-2.747 -35.435,-8.239c-10.513,-5.493 -18.752,-13.17 -24.717,-23.033c-5.965,-9.863 -8.947,-21.055 -8.947,-33.575c-0,-12.521 2.982,-23.712 8.947,-33.575c5.965,-9.863 14.204,-17.54 24.717,-23.033c10.512,-5.492 22.324,-8.239 35.435,-8.239c12.048,0 22.797,2.126 32.246,6.379c9.449,4.252 17.245,10.394 23.387,18.426l-26.399,23.565c-7.678,-9.686 -16.714,-14.529 -27.108,-14.529c-8.741,0 -15.769,2.805 -21.084,8.416c-5.315,5.611 -7.973,13.141 -7.973,22.59c0,9.449 2.658,16.979 7.973,22.59c5.315,5.611 12.343,8.416 21.084,8.416c10.394,-0 19.43,-4.843 27.108,-14.529l26.399,23.565c-6.142,8.032 -13.938,14.174 -23.387,18.426c-9.449,4.253 -20.198,6.379 -32.246,6.379Z"/><path d="M890.751,1144.09l-41.814,-0l0,-124.024l100.814,0l-0,31.538l-59,-0l-0,21.261l51.735,-0l0,31.537l-51.735,0l-0,39.688Z"/><path d="M1278.59,1144.09l-40.751,-0l-0,-124.024l34.372,0l47.129,56.342l0,-56.342l40.751,0l-0,124.024l-34.372,-0l-47.129,-56.342l-0,56.342Z"/><path d="M1574.48,1146.93c-13.348,-0 -25.337,-2.776 -35.967,-8.328c-10.631,-5.551 -18.958,-13.258 -24.982,-23.121c-6.024,-9.863 -9.036,-20.996 -9.036,-33.398c-0,-12.402 3.012,-23.535 9.036,-33.398c6.024,-9.863 14.351,-17.57 24.982,-23.121c10.63,-5.552 22.619,-8.328 35.967,-8.328c13.347,0 25.336,2.776 35.966,8.328c10.631,5.551 18.958,13.258 24.982,23.121c6.024,9.863 9.036,20.996 9.036,33.398c0,12.402 -3.012,23.535 -9.036,33.398c-6.024,9.863 -14.351,17.57 -24.982,23.121c-10.63,5.552 -22.619,8.328 -35.966,8.328Zm-0,-33.841c5.197,-0 9.892,-1.27 14.085,-3.809c4.193,-2.54 7.53,-6.143 10.011,-10.808c2.48,-4.666 3.72,-10.129 3.72,-16.389c0,-6.26 -1.24,-11.723 -3.72,-16.389c-2.481,-4.666 -5.818,-8.268 -10.011,-10.808c-4.193,-2.539 -8.888,-3.809 -14.085,-3.809c-5.198,0 -9.893,1.27 -14.086,3.809c-4.193,2.54 -7.53,6.142 -10.01,10.808c-2.481,4.666 -3.721,10.129 -3.721,16.389c-0,6.26 1.24,11.723 3.721,16.389c2.48,4.665 5.817,8.268 10.01,10.808c4.193,2.539 8.888,3.809 14.086,3.809Z"/><path d="M672.936,947.834c-9.041,-9.041 -23.699,-9.041 -32.74,-0c-28.964,28.964 -88.912,88.912 -117.876,117.876c-9.041,9.041 -9.041,23.699 0,32.74c0.001,0 0.002,0.001 0.003,0.002c9.041,9.041 23.699,9.041 32.74,0c28.964,-28.964 88.912,-88.912 117.876,-117.876c9.041,-9.041 9.041,-23.699 -0,-32.74c-0.001,-0.001 -0.002,-0.001 -0.003,-0.002Z"/><path d="M1124.09,1144.09l-86.816,-0l-21.084,-31.183l-11.339,-0l-0,31.183l-41.814,-0l-0,-124.024l59.708,0c11.458,0 21.439,1.89 29.943,5.67c8.505,3.78 15.06,9.213 19.667,16.3c4.606,7.087 6.91,15.355 6.91,24.805c-0,8.859 -2.008,16.595 -6.024,23.21c-4.016,6.615 -9.804,11.871 -17.364,15.769l25.83,37.953l54.077,-123.707l41.105,0l54.216,124.024l-43.231,-0l-8.327,-21.616l-47.129,0l-8.328,21.616Zm43.94,-51.736l-12.048,-31.183l-12.048,31.183l24.096,0Zm-130.933,-25.513c-0,-4.607 -1.418,-8.18 -4.253,-10.719c-2.834,-2.54 -7.087,-3.81 -12.756,-3.81l-15.237,0l-0,29.057l15.237,0c5.669,0 9.922,-1.27 12.756,-3.809c2.835,-2.54 4.253,-6.113 4.253,-10.719Z"/></g></g></svg>