<?xml version="1.0" encoding="UTF-8" standalone="no"?><!DOCTYPE svg PUBLIC "-//W3C//DTD SVG 1.1//EN" "http://www.w3.org/Graphics/SVG/1.1/DTD/svg11.dtd"><svg width="100%" height="100%" viewBox="0 0 2160 2160" version="1.1" xmlns="http://www.w3.org/2000/svg" xmlns:xlink="http://www.w3.org/1999/xlink" xml:space="preserve" xmlns:serif="http://www.serif.com/" style="fill-rule:evenodd;clip-rule:evenodd;stroke-linejoin:round;stroke-miterlimit:2;"><rect id="logofolio-pp-2" x="0" y="0" width="2160" height="2160" style="fill:#fff;"/><g id="logofolio-pp-21" serif:id="logofolio-pp-2"><g><path d="M843.911,1128.07c-10.456,-0 -19.877,-2.191 -28.261,-6.571c-8.384,-4.38 -14.954,-10.504 -19.712,-18.37c-4.757,-7.865 -7.136,-16.791 -7.136,-26.777c0,-9.985 2.379,-18.911 7.136,-26.777c4.758,-7.866 11.328,-13.989 19.712,-18.369c8.384,-4.381 17.805,-6.571 28.261,-6.571c9.609,-0 18.181,1.696 25.718,5.087c7.536,3.391 13.753,8.29 18.652,14.696l-21.055,18.793c-6.123,-7.725 -13.329,-11.587 -21.619,-11.587c-6.971,0 -12.576,2.237 -16.815,6.712c-4.24,4.475 -6.359,10.48 -6.359,18.016c-0,7.537 2.119,13.542 6.359,18.017c4.239,4.474 9.844,6.712 16.815,6.712c8.29,-0 15.496,-3.863 21.619,-11.587l21.055,18.793c-4.899,6.406 -11.116,11.304 -18.652,14.696c-7.537,3.391 -16.109,5.087 -25.718,5.087Z" style="fill-rule:nonzero;"/><path d="M896.9,1048.51l31.935,0l0,77.294l-31.935,-0l0,-77.294Zm15.968,-6.217c-5.747,-0 -10.386,-1.531 -13.919,-4.592c-3.532,-3.062 -5.299,-6.948 -5.299,-11.658c0,-4.71 1.767,-8.596 5.299,-11.658c3.533,-3.061 8.172,-4.592 13.919,-4.592c5.84,-0 10.503,1.46 13.989,4.38c3.485,2.921 5.228,6.689 5.228,11.305c0,4.898 -1.743,8.925 -5.228,12.081c-3.486,3.156 -8.149,4.734 -13.989,4.734Z" style="fill-rule:nonzero;"/><path d="M996.096,1123.12c-4.804,2.732 -11.351,4.098 -19.641,4.098c-10.834,-0 -19.171,-2.614 -25.011,-7.843c-5.841,-5.228 -8.761,-13.07 -8.761,-23.527l-0,-64.717l31.935,-0l-0,21.619l15.826,0l-0,23.316l-15.826,-0l-0,19.5c-0,2.355 0.612,4.192 1.837,5.511c1.224,1.318 2.826,1.978 4.804,1.978c2.732,-0 5.134,-0.707 7.207,-2.12l7.63,22.185Z" style="fill-rule:nonzero;"/><path d="M1088.65,1048.51l0,61.892c0,14.695 -4.074,25.741 -12.223,33.136c-8.148,7.394 -19.664,11.092 -34.548,11.092c-7.631,-0 -14.767,-0.824 -21.408,-2.473c-6.641,-1.648 -12.317,-4.027 -17.027,-7.136l10.739,-21.761c3.014,2.261 6.806,4.098 11.375,5.511c4.569,1.413 8.926,2.12 13.071,2.12c6.311,-0 10.904,-1.366 13.777,-4.098c2.873,-2.732 4.31,-6.736 4.31,-12.011l-0,-0.565c-5.558,4.898 -12.341,7.348 -20.348,7.348c-9.797,-0 -17.663,-2.991 -23.598,-8.973c-5.935,-5.982 -8.902,-15.002 -8.902,-27.06l-0,-37.022l31.934,0l0,31.511c0,5.276 0.848,9.044 2.544,11.305c1.696,2.26 4.192,3.391 7.489,3.391c3.109,-0 5.699,-1.248 7.772,-3.745c2.072,-2.496 3.109,-6.429 3.109,-11.799l-0,-30.663l31.934,0Z" style="fill-rule:nonzero;"/><path d="M1153.93,1128.07c-15.167,-0 -26.989,-4.098 -35.467,-12.294c-8.479,-8.195 -12.718,-19.688 -12.718,-34.478l0,-54.402l33.348,-0l-0,53.413c-0,7.253 1.295,12.529 3.886,15.826c2.59,3.297 6.335,4.946 11.234,4.946c4.898,-0 8.643,-1.649 11.233,-4.946c2.591,-3.297 3.886,-8.573 3.886,-15.826l0,-53.413l32.783,-0l-0,54.402c-0,14.79 -4.239,26.283 -12.718,34.478c-8.478,8.196 -20.3,12.294 -35.467,12.294Z" style="fill-rule:nonzero;"/><path d="M1265.14,1047.1c6.783,0 13.024,1.625 18.723,4.875c5.7,3.25 10.221,7.937 13.565,14.06c3.345,6.123 5.017,13.189 5.017,21.196c-0,8.007 -1.672,15.049 -5.017,21.125c-3.344,6.076 -7.865,10.739 -13.565,13.989c-5.699,3.25 -11.94,4.875 -18.723,4.875c-8.572,-0 -15.119,-2.214 -19.641,-6.641l0,32.641l-31.935,-0l0,-104.707l30.381,0l-0,6.359c4.616,-5.181 11.681,-7.772 21.195,-7.772Zm-7.63,55.25c3.674,0 6.688,-1.319 9.043,-3.956c2.356,-2.638 3.533,-6.359 3.533,-11.163c0,-4.805 -1.177,-8.549 -3.533,-11.234c-2.355,-2.685 -5.369,-4.027 -9.043,-4.027c-3.674,-0 -6.688,1.342 -9.043,4.027c-2.356,2.685 -3.533,6.429 -3.533,11.234c-0,4.804 1.177,8.525 3.533,11.163c2.355,2.637 5.369,3.956 9.043,3.956Z" style="fill-rule:nonzero;"/><path d="M1397.96,1020.96l0,104.848l-30.38,-0l0,-6.359c-4.616,5.181 -11.681,7.772 -21.196,7.772c-6.782,-0 -13.023,-1.625 -18.722,-4.875c-5.7,-3.25 -10.221,-7.937 -13.566,-14.06c-3.344,-6.123 -5.016,-13.188 -5.016,-21.196c0,-8.007 1.672,-15.048 5.016,-21.125c3.345,-6.076 7.866,-10.739 13.566,-13.989c5.699,-3.25 11.94,-4.875 18.722,-4.875c8.573,0 15.12,2.214 19.642,6.642l-0,-32.783l31.934,0Zm-43.945,81.391c3.674,0 6.688,-1.342 9.043,-4.027c2.355,-2.685 3.533,-6.429 3.533,-11.234c-0,-4.804 -1.178,-8.525 -3.533,-11.163c-2.355,-2.637 -5.369,-3.956 -9.043,-3.956c-3.674,-0 -6.689,1.319 -9.044,3.956c-2.355,2.638 -3.532,6.359 -3.532,11.163c-0,4.805 1.177,8.549 3.532,11.234c2.355,2.685 5.37,4.027 9.044,4.027Z" style="fill-rule:nonzero;"/><path d="M1496.88,1048.51l-0,77.294l-30.381,-0l0,-6.359c-4.616,5.181 -11.681,7.772 -21.196,7.772c-6.782,-0 -13.023,-1.625 -18.722,-4.875c-5.7,-3.25 -10.221,-7.937 -13.566,-14.06c-3.344,-6.123 -5.016,-13.188 -5.016,-21.196c0,-8.007 1.672,-15.048 5.016,-21.125c3.345,-6.076 7.866,-10.739 13.566,-13.989c5.699,-3.25 11.94,-4.875 18.722,-4.875c8.573,0 15.12,2.214 19.642,6.642l-0,-5.229l31.935,0Zm-43.946,53.837c3.674,0 6.688,-1.342 9.043,-4.027c2.355,-2.685 3.533,-6.429 3.533,-11.234c-0,-4.804 -1.178,-8.525 -3.533,-11.163c-2.355,-2.637 -5.369,-3.956 -9.043,-3.956c-3.674,-0 -6.689,1.319 -9.044,3.956c-2.355,2.638 -3.532,6.359 -3.532,11.163c-0,4.805 1.177,8.549 3.532,11.234c2.355,2.685 5.37,4.027 9.044,4.027Z" style="fill-rule:nonzero;"/><path d="M1564.14,1123.12c-4.804,2.732 -11.351,4.098 -19.641,4.098c-10.833,-0 -19.17,-2.614 -25.011,-7.843c-5.84,-5.228 -8.761,-13.07 -8.761,-23.527l0,-64.717l31.935,-0l0,21.619l15.826,0l0,23.316l-15.826,-0l0,19.5c0,2.355 0.612,4.192 1.837,5.511c1.225,1.318 2.826,1.978 4.804,1.978c2.732,-0 5.135,-0.707 7.207,-2.12l7.63,22.185Z" style="fill-rule:nonzero;"/><path d="M1613.74,1103.62c3.392,0 6.241,-0.424 8.549,-1.272c2.308,-0.848 4.828,-2.308 7.56,-4.38l16.674,16.815c-7.725,8.29 -18.982,12.435 -33.772,12.435c-9.326,-0 -17.522,-1.719 -24.587,-5.158c-7.065,-3.438 -12.529,-8.219 -16.391,-14.342c-3.862,-6.123 -5.794,-13 -5.794,-20.631c0,-7.724 1.932,-14.625 5.794,-20.701c3.862,-6.076 9.161,-10.809 15.897,-14.201c6.735,-3.391 14.295,-5.087 22.679,-5.087c7.63,0 14.648,1.531 21.054,4.593c6.406,3.061 11.493,7.583 15.261,13.565c3.768,5.982 5.652,13.118 5.652,21.408l-52.848,10.173c2.356,4.522 7.113,6.783 14.272,6.783Zm-3.25,-34.761c-3.674,0 -6.665,1.084 -8.973,3.25c-2.308,2.167 -3.697,5.37 -4.168,9.609l24.728,-4.804c-0.848,-2.45 -2.284,-4.404 -4.31,-5.865c-2.025,-1.46 -4.451,-2.19 -7.277,-2.19Z" style="fill-rule:nonzero;"/><path d="M766.59,1139.03l-62.827,-62.827l62.827,-62.827l-62.827,-62.827l-62.827,62.827l62.827,62.827l-31.413,31.413c-17.338,17.338 -45.49,17.338 -62.827,0c-17.338,-17.337 -17.338,-45.489 -0,-62.826l31.413,-31.414l-62.826,-62.827l-31.414,31.414c-52.012,52.012 -52.012,136.468 0,188.48c52.013,52.013 136.468,52.013 188.48,0l31.414,-31.413Z"/></g></g></svg>