<?xml version="1.0" encoding="UTF-8" standalone="no"?>
<!DOCTYPE svg PUBLIC "-//W3C//DTD SVG 1.1//EN" "http://www.w3.org/Graphics/SVG/1.1/DTD/svg11.dtd">
<svg width="100%" height="100%" viewBox="0 0 600 300" version="1.1" xmlns="http://www.w3.org/2000/svg" xmlns:xlink="http://www.w3.org/1999/xlink" xml:space="preserve" xmlns:serif="http://www.serif.com/" style="fill-rule:evenodd;clip-rule:evenodd;stroke-linejoin:round;stroke-miterlimit:2;">
    <g id="logo-cityupdate" transform="matrix(0.5,0,0,0.403226,0,0)">
        <rect x="0" y="0" width="1200" height="744" style="fill:none;"/>
        <g transform="matrix(0.841723,0,0,1.04938,94.9663,-16.2699)">
            <g transform="matrix(2.38017,0,0,2.36737,261.065,291.308)">
                <path d="M45.653,17.541C45.554,17.465 45.504,17.427 45.504,17.427C45.143,17.141 44.784,16.857 44.424,16.573C44.038,16.33 43.65,16.087 43.263,15.844C42.516,15.302 41.651,14.986 40.846,14.542C38.926,13.73 36.901,13.137 34.806,12.856C34.087,12.801 33.369,12.746 32.651,12.691C31.951,12.709 31.252,12.726 30.553,12.744C29.857,12.829 29.16,12.914 28.464,12.999C26.367,13.387 24.33,14.068 22.396,14.993C20.482,15.964 18.736,17.239 17.13,18.692C16.63,19.214 16.131,19.735 15.631,20.257L15.621,20.268C15.175,20.841 14.729,21.413 14.283,21.984C13.895,22.596 13.506,23.209 13.117,23.821C12.082,25.736 11.253,27.775 10.756,29.923C10.611,30.649 10.511,31.386 10.373,32.118C10.318,32.862 10.263,33.605 10.208,34.349C10.226,35.072 10.244,35.796 10.263,36.518C10.463,38.733 10.954,40.922 11.724,43.025C12.54,45.111 13.68,47.057 15.029,48.863C15.521,49.432 16.011,50.002 16.502,50.571C16.639,50.702 16.775,50.832 16.912,50.963L17.731,51.746C17.868,51.876 18.005,52.007 18.141,52.137L18.153,52.148C18.75,52.612 19.347,53.076 19.944,53.541C21.832,54.806 23.861,55.88 26.037,56.608C28.24,57.297 30.538,57.698 32.871,57.786C35.17,57.795 37.47,57.508 39.712,56.927C41.956,56.285 44.096,55.31 46.099,54.089C46.924,53.474 47.837,52.963 48.587,52.243C48.98,51.905 49.374,51.568 49.767,51.23C50.125,50.852 50.482,50.475 50.84,50.097C50.84,50.097 51.039,49.891 51.435,49.479L51.697,49.207C53.033,47.817 55.243,47.774 56.632,49.111C57.973,50.4 58.054,52.51 56.859,53.904L56.619,54.183L56.619,54.183C56.299,54.555 56.139,54.74 56.139,54.74C55.699,55.247 55.257,55.754 54.816,56.261C54.329,56.724 53.841,57.188 53.354,57.652C52.407,58.618 51.277,59.369 50.216,60.208C47.677,61.94 44.911,63.355 41.977,64.339C39.05,65.259 36.002,65.789 32.917,65.908C29.785,65.951 26.646,65.561 23.597,64.75C20.578,63.9 17.707,62.573 15.027,60.928C14.173,60.327 13.319,59.724 12.467,59.123L12.448,59.109C11.656,58.422 10.865,57.735 10.073,57.048C9.333,56.305 8.623,55.527 7.902,54.759C5.873,52.33 4.135,49.639 2.839,46.726C1.589,43.797 0.737,40.701 0.314,37.527C0.237,36.486 0.162,35.446 0.086,34.406C0.107,33.327 0.119,32.244 0.169,31.163C0.297,30.089 0.403,29.008 0.573,27.936C1.143,24.762 2.203,21.682 3.628,18.77C4.154,17.832 4.672,16.883 5.23,15.96C5.852,15.079 6.474,14.198 7.096,13.318L7.11,13.299C7.818,12.485 8.525,11.671 9.232,10.857C11.518,8.542 14.092,6.483 16.949,4.864C19.825,3.291 22.91,2.097 26.12,1.357C27.185,1.156 28.257,0.982 29.329,0.807C30.414,0.728 31.498,0.648 32.582,0.569C33.706,0.591 34.835,0.601 35.961,0.661C39.264,0.93 42.525,1.694 45.648,2.866C46.982,3.468 48.371,3.978 49.624,4.747C50.262,5.108 50.906,5.466 51.535,5.844C52.135,6.264 52.736,6.686 53.336,7.107C53.336,7.107 53.664,7.342 54.319,7.811C57.237,9.9 57.909,13.96 55.819,16.879C53.729,19.797 49.67,20.469 46.752,18.379L46.604,18.27L46.1,17.884L45.653,17.541Z"/>
            </g>
            <g transform="matrix(2.38017,0,0,2.36737,261.065,302.539)">
                <path d="M44.842,19.86C45.905,20.872 46.864,22.019 47.629,23.308C48.373,24.602 48.953,26.003 49.315,27.471C49.655,28.942 49.795,30.464 49.723,31.99C49.625,33.515 49.307,35.031 48.788,36.492C48.249,37.948 47.479,39.319 46.551,40.581C45.593,41.813 44.476,42.927 43.198,43.871C41.904,44.789 40.484,45.548 38.967,46.078C37.446,46.587 35.854,46.889 34.235,46.967C32.618,47.014 30.987,46.837 29.396,46.436C27.809,46.016 26.281,45.35 24.857,44.494C23.446,43.612 22.175,42.533 21.051,41.295C19.957,40.028 19.01,38.611 18.299,37.066C17.607,35.516 17.123,33.868 16.883,32.173C16.669,30.476 16.69,28.746 16.949,27.034C17.233,25.326 17.772,23.653 18.528,22.069C19.305,20.492 20.328,19.044 21.508,17.739L21.599,17.639C24.012,14.97 28.132,14.762 30.802,17.175C33.471,19.587 33.679,23.708 31.266,26.377C31.095,26.566 30.887,26.767 30.7,26.932C30.321,27.261 29.958,27.61 29.66,28.024C29.384,28.447 29.139,28.907 28.966,29.413C28.817,29.923 28.726,30.461 28.701,31.016C28.704,31.567 28.783,32.121 28.925,32.669C29.086,33.211 29.339,33.724 29.643,34.227C29.983,34.71 30.382,35.169 30.838,35.562C31.311,35.93 31.826,36.261 32.4,36.506C32.978,36.73 33.594,36.889 34.235,36.967C34.877,37.014 35.53,36.98 36.181,36.864C36.825,36.728 37.446,36.49 38.05,36.185C38.638,35.854 39.192,35.43 39.697,34.942C40.168,34.433 40.599,33.874 40.933,33.243C42.297,30.717 41.984,27.208 39.893,24.81L39.792,24.695C38.522,23.238 38.673,21.027 40.13,19.758C41.5,18.563 43.548,18.637 44.842,19.86Z"/>
            </g>
            <g transform="matrix(2.38017,0,0,2.36737,261.065,285.7)">
                <path d="M95.319,41.826C95.487,41.826 95.655,41.857 95.823,41.921C95.991,41.983 96.152,42.091 96.306,42.246L99.12,45.207C97.888,46.817 96.344,48.031 94.49,48.85C92.634,49.67 90.44,50.079 87.906,50.079C85.582,50.079 83.5,49.683 81.659,48.892C79.817,48.101 78.256,47.009 76.975,45.616C75.695,44.223 74.711,42.571 74.025,40.661C73.338,38.75 72.995,36.673 72.995,34.434C72.995,32.152 73.366,30.055 74.109,28.144C74.851,26.233 75.894,24.585 77.238,23.199C78.582,21.813 80.192,20.735 82.068,19.964C83.944,19.195 86.008,18.81 88.263,18.81C89.411,18.81 90.492,18.912 91.507,19.114C92.522,19.317 93.471,19.597 94.353,19.955C95.235,20.311 96.046,20.742 96.789,21.246C97.531,21.75 98.189,22.296 98.763,22.883L96.369,26.096C96.214,26.293 96.033,26.471 95.823,26.632C95.613,26.794 95.319,26.874 94.941,26.874C94.689,26.874 94.451,26.818 94.227,26.706C94.003,26.594 93.765,26.458 93.513,26.297C93.261,26.135 92.984,25.961 92.683,25.771C92.382,25.583 92.025,25.408 91.613,25.247C91.2,25.086 90.716,24.949 90.164,24.837C89.61,24.725 88.963,24.669 88.221,24.669C87.045,24.669 85.97,24.886 84.998,25.32C84.024,25.754 83.184,26.387 82.477,27.22C81.77,28.053 81.224,29.076 80.839,30.287C80.455,31.498 80.262,32.88 80.262,34.434C80.262,36.002 80.475,37.395 80.902,38.613C81.33,39.831 81.911,40.856 82.645,41.689C83.38,42.522 84.238,43.156 85.218,43.589C86.198,44.024 87.248,44.241 88.368,44.241C89.011,44.241 89.6,44.21 90.132,44.146C90.664,44.084 91.161,43.978 91.623,43.832C92.085,43.684 92.519,43.489 92.925,43.244C93.331,42.999 93.744,42.687 94.164,42.309C94.332,42.169 94.513,42.053 94.71,41.963C94.906,41.872 95.109,41.826 95.319,41.826Z" style="fill-rule:nonzero;"/>
            </g>
            <g transform="matrix(2.38017,0,0,2.36737,261.065,281.971)">
                <path d="M107.814,51.318L101.556,51.318L101.556,29.226L107.814,29.226L107.814,51.318ZM108.402,22.842C108.402,23.991 108.031,24.893 107.289,25.551C106.546,26.209 105.671,26.538 104.664,26.538C103.656,26.538 102.781,26.209 102.039,25.551C101.296,24.893 100.925,23.991 100.925,22.842C100.925,21.694 101.296,20.791 102.039,20.133C102.781,19.475 103.656,19.146 104.664,19.146C105.671,19.146 106.546,19.475 107.289,20.133C108.031,20.791 108.402,21.694 108.402,22.842Z" style="fill-rule:nonzero;"/>
            </g>
            <g transform="matrix(2.38017,0,0,2.36737,261.065,291.616)">
                <path d="M111.803,19.65L118.061,18.642L118.061,25.152L125.579,25.152L125.579,30.36L118.061,30.36L118.061,38.13C118.061,39.446 118.292,40.496 118.754,41.28C119.215,42.064 120.146,42.456 121.546,42.456C122.219,42.456 122.912,42.393 123.626,42.267C124.339,42.141 124.991,41.966 125.579,41.742L126.461,46.614C125.705,46.923 124.865,47.188 123.941,47.412C123.017,47.635 121.882,47.748 120.539,47.748C118.831,47.748 117.417,47.517 116.296,47.054C115.176,46.592 114.281,45.949 113.609,45.123C112.937,44.298 112.467,43.296 112.202,42.12C111.935,40.944 111.803,39.642 111.803,38.214L111.803,19.65Z" style="fill-rule:nonzero;"/>
            </g>
            <g transform="matrix(2.38017,0,0,2.36737,261.065,324.227)">
                <path d="M149.476,11.377C148.213,15.633 146.894,19.623 145.518,23.347C144.143,27.071 142.641,30.683 141.013,34.183C140.423,35.442 139.835,36.514 139.246,37.396C138.657,38.277 138.011,39.006 137.311,39.58C136.61,40.153 135.818,40.573 134.934,40.84C134.051,41.106 133.021,41.238 131.843,41.238C130.862,41.238 129.957,41.148 129.13,40.966C128.303,40.783 127.624,40.58 127.09,40.356L128.182,35.358C128.827,35.583 129.401,35.736 129.905,35.82C130.409,35.904 130.942,35.946 131.503,35.946C132.623,35.946 133.484,35.646 134.087,35.044C134.688,34.441 135.2,33.608 135.621,32.545C134.191,29.745 132.762,26.602 131.334,23.116C129.905,19.63 128.56,15.717 127.3,11.377L133.936,11.377C134.217,12.469 134.548,13.652 134.928,14.926C135.307,16.2 135.709,17.487 136.13,18.79C136.551,20.092 136.981,21.359 137.417,22.591C137.852,23.823 138.268,24.942 138.662,25.951C139.026,24.942 139.406,23.823 139.8,22.591C140.194,21.359 140.581,20.092 140.96,18.79C141.339,17.487 141.705,16.2 142.056,14.926C142.408,13.652 142.723,12.469 143.005,11.377L149.476,11.377Z" style="fill-rule:nonzero;"/>
            </g>
            <g transform="matrix(2.38017,0,0,2.36737,261.065,290.619)">
                <path d="M164.596,48.253C162.552,48.253 160.788,47.966 159.304,47.391C157.82,46.818 156.595,46.02 155.629,44.998C154.663,43.976 153.949,42.758 153.487,41.344C153.025,39.93 152.795,38.369 152.795,36.661L152.795,18.558L159.346,18.558L159.346,36.115C159.346,37.291 159.479,38.292 159.745,39.118C160.011,39.944 160.376,40.616 160.838,41.134C161.299,41.652 161.859,42.023 162.517,42.247C163.174,42.471 163.896,42.583 164.68,42.583C166.276,42.583 167.571,42.094 168.565,41.113C169.558,40.133 170.056,38.467 170.056,36.115L170.056,18.558L176.608,18.558L176.608,36.661C176.608,38.369 176.37,39.937 175.894,41.365C175.418,42.793 174.69,44.018 173.711,45.04C172.73,46.062 171.484,46.853 169.972,47.413C168.461,47.972 166.668,48.253 164.596,48.253Z" style="fill-rule:nonzero;"/>
            </g>
            <g transform="matrix(2.38017,0,0,2.36737,261.065,323.033)">
                <path d="M194.122,23.095C194.122,21.163 193.687,19.616 192.82,18.454C191.952,17.292 190.664,16.711 188.956,16.711C188.395,16.711 187.878,16.732 187.402,16.774C186.925,16.816 186.534,16.865 186.226,16.921L186.226,28.219C186.618,28.471 187.129,28.681 187.759,28.849C188.389,29.017 189.026,29.101 189.67,29.101C192.637,29.101 194.122,27.099 194.122,23.095ZM200.505,22.927C200.505,24.635 200.296,26.189 199.876,27.589C199.456,28.989 198.839,30.193 198.028,31.2C197.215,32.209 196.208,32.993 195.004,33.553C193.799,34.112 192.414,34.393 190.846,34.393C189.978,34.393 189.166,34.309 188.41,34.141C187.654,33.973 186.925,33.735 186.226,33.427L186.226,41.742L179.968,41.742L179.968,12.637C180.528,12.469 181.171,12.308 181.9,12.153C182.628,12 183.391,11.867 184.189,11.755C184.987,11.644 185.798,11.552 186.625,11.482C187.451,11.412 188.242,11.377 188.998,11.377C190.818,11.377 192.442,11.65 193.87,12.195C195.297,12.741 196.502,13.512 197.482,14.506C198.462,15.5 199.211,16.711 199.729,18.139C200.246,19.567 200.505,21.163 200.505,22.927Z" style="fill-rule:nonzero;"/>
            </g>
            <g transform="matrix(2.38017,0,0,2.36737,261.065,282.27)">
                <path d="M208.99,39.978C208.99,41.91 209.423,43.464 210.292,44.64C211.159,45.816 212.447,46.404 214.156,46.404C214.715,46.404 215.233,46.383 215.71,46.341C216.185,46.299 216.577,46.25 216.885,46.194L216.885,34.812C216.493,34.56 215.982,34.35 215.352,34.182C214.722,34.014 214.086,33.93 213.441,33.93C210.473,33.93 208.99,35.946 208.99,39.978ZM223.143,50.478C222.583,50.646 221.939,50.807 221.212,50.96C220.483,51.115 219.72,51.247 218.922,51.36C218.125,51.471 217.312,51.563 216.487,51.633C215.66,51.703 214.87,51.738 214.114,51.738C212.293,51.738 210.67,51.471 209.242,50.94C207.813,50.409 206.609,49.645 205.629,48.651C204.649,47.658 203.9,46.453 203.382,45.038C202.863,43.625 202.604,42.036 202.604,40.272C202.604,38.48 202.83,36.864 203.277,35.42C203.725,33.979 204.37,32.753 205.21,31.746C206.049,30.738 207.079,29.968 208.296,29.436C209.514,28.905 210.907,28.638 212.475,28.638C213.343,28.638 214.12,28.722 214.806,28.89C215.492,29.058 216.185,29.296 216.885,29.604L216.885,19.608L223.143,18.6L223.143,50.478Z" style="fill-rule:nonzero;"/>
            </g>
            <g transform="matrix(2.38017,0,0,2.36737,261.065,305.536)">
                <path d="M235.785,36.996C236.401,36.996 236.989,36.982 237.549,36.954C238.109,36.926 238.557,36.884 238.893,36.828L238.893,32.082C238.641,32.026 238.263,31.97 237.759,31.914C237.254,31.858 236.793,31.83 236.373,31.83C235.785,31.83 235.232,31.865 234.713,31.935C234.196,32.005 233.741,32.138 233.349,32.334C232.957,32.53 232.649,32.795 232.425,33.131C232.201,33.467 232.088,33.888 232.088,34.392C232.088,35.373 232.418,36.05 233.076,36.429C233.733,36.807 234.636,36.996 235.785,36.996ZM235.281,18.684C237.129,18.684 238.669,18.894 239.901,19.314C241.132,19.734 242.12,20.336 242.862,21.12C243.603,21.904 244.129,22.856 244.437,23.976C244.745,25.096 244.899,26.342 244.899,27.713L244.899,40.734C244.003,40.93 242.756,41.161 241.161,41.427C239.565,41.693 237.633,41.826 235.365,41.826C233.937,41.826 232.641,41.7 231.48,41.448C230.318,41.196 229.317,40.783 228.477,40.209C227.637,39.635 226.993,38.886 226.545,37.961C226.096,37.038 225.873,35.904 225.873,34.56C225.873,33.272 226.131,32.18 226.65,31.284C227.168,30.388 227.861,29.674 228.729,29.142C229.596,28.61 230.59,28.225 231.711,27.987C232.831,27.75 233.993,27.629 235.197,27.629C236.008,27.629 236.73,27.666 237.36,27.735C237.99,27.805 238.501,27.896 238.893,28.007L238.893,27.419C238.893,26.356 238.571,25.502 237.927,24.858C237.283,24.214 236.163,23.892 234.567,23.892C233.503,23.892 232.453,23.969 231.417,24.123C230.38,24.277 229.485,24.495 228.729,24.774L227.931,19.734C228.295,19.623 228.75,19.502 229.296,19.376C229.842,19.251 230.436,19.139 231.081,19.041C231.725,18.943 232.404,18.859 233.118,18.789C233.832,18.719 234.552,18.684 235.281,18.684Z" style="fill-rule:nonzero;"/>
            </g>
            <g transform="matrix(2.38017,0,0,2.36737,261.065,291.616)">
                <path d="M247.838,19.65L254.096,18.642L254.096,25.152L261.614,25.152L261.614,30.36L254.096,30.36L254.096,38.13C254.096,39.446 254.327,40.496 254.789,41.28C255.251,42.064 256.181,42.456 257.582,42.456C258.254,42.456 258.947,42.393 259.661,42.267C260.375,42.141 261.026,41.966 261.614,41.742L262.496,46.614C261.74,46.923 260.9,47.188 259.976,47.412C259.052,47.635 257.918,47.748 256.574,47.748C254.866,47.748 253.452,47.517 252.332,47.054C251.212,46.592 250.316,45.949 249.644,45.123C248.972,44.298 248.503,43.296 248.237,42.12C247.97,40.944 247.838,39.642 247.838,38.214L247.838,19.65Z" style="fill-rule:nonzero;"/>
            </g>
            <g transform="matrix(2.38017,0,0,2.36737,261.065,305.834)">
                <path d="M278.666,27.965C278.637,27.434 278.546,26.916 278.393,26.412C278.239,25.908 278.001,25.46 277.678,25.068C277.357,24.676 276.951,24.354 276.461,24.102C275.97,23.85 275.362,23.724 274.633,23.724C273.933,23.724 273.332,23.843 272.828,24.081C272.324,24.319 271.904,24.634 271.568,25.026C271.232,25.418 270.972,25.873 270.791,26.391C270.608,26.91 270.476,27.434 270.392,27.965L278.666,27.965ZM263.965,30.36C263.965,28.4 264.266,26.685 264.869,25.214C265.47,23.745 266.261,22.52 267.242,21.54C268.221,20.56 269.348,19.818 270.623,19.314C271.896,18.81 273.206,18.558 274.549,18.558C277.685,18.558 280.164,19.517 281.984,21.435C283.803,23.353 284.713,26.174 284.713,29.898C284.713,30.262 284.7,30.661 284.671,31.095C284.643,31.529 284.616,31.914 284.588,32.25L270.392,32.25C270.532,33.538 271.133,34.56 272.198,35.316C273.261,36.072 274.69,36.45 276.482,36.45C277.629,36.45 278.756,36.345 279.863,36.135C280.968,35.924 281.872,35.667 282.572,35.358L283.412,40.44C283.076,40.608 282.628,40.776 282.068,40.944C281.507,41.112 280.884,41.259 280.199,41.385C279.512,41.511 278.777,41.616 277.994,41.7C277.21,41.784 276.425,41.826 275.642,41.826C273.653,41.826 271.924,41.532 270.455,40.944C268.985,40.356 267.767,39.551 266.8,38.529C265.835,37.507 265.121,36.296 264.659,34.896C264.197,33.496 263.965,31.984 263.965,30.36Z" style="fill-rule:nonzero;"/>
            </g>
        </g>
    </g>
</svg>
