<?xml version="1.0" encoding="UTF-8" standalone="no"?>
<!DOCTYPE svg PUBLIC "-//W3C//DTD SVG 1.1//EN" "http://www.w3.org/Graphics/SVG/1.1/DTD/svg11.dtd">
<svg width="100%" height="100%" viewBox="0 0 2500 1250" version="1.1" xmlns="http://www.w3.org/2000/svg" xmlns:xlink="http://www.w3.org/1999/xlink" xml:space="preserve" xmlns:serif="http://www.serif.com/" style="fill-rule:evenodd;clip-rule:evenodd;stroke-linejoin:round;stroke-miterlimit:2;">
    <rect id="logo-cityupdate" x="0" y="0" width="2500" height="1250" style="fill:none;"/>
    <g>
        <path d="M846.195,559.475c-0.415,-0.318 -0.621,-0.476 -0.621,-0.476c-1.507,-1.194 -3.005,-2.379 -4.508,-3.565c-1.611,-1.014 -3.231,-2.028 -4.846,-3.043c-3.118,-2.262 -6.728,-3.581 -10.088,-5.434c-8.014,-3.389 -16.466,-5.864 -25.21,-7.037c-3.001,-0.23 -5.998,-0.459 -8.995,-0.689c-2.921,0.075 -5.839,0.146 -8.756,0.222c-2.905,0.354 -5.815,0.709 -8.72,1.064c-8.752,1.619 -17.254,4.462 -25.326,8.323c-7.989,4.052 -15.277,9.374 -21.98,15.439c-2.087,2.178 -4.17,4.353 -6.256,6.532l-0.042,0.046c-1.862,2.391 -3.723,4.779 -5.585,7.162c-1.619,2.554 -3.243,5.113 -4.866,7.667c-4.32,7.993 -7.781,16.504 -9.855,25.469c-0.605,3.03 -1.023,6.106 -1.599,9.162c-0.229,3.105 -0.459,6.206 -0.688,9.311c0.075,3.018 0.15,6.04 0.229,9.053c0.835,9.245 2.884,18.382 6.098,27.16c3.406,8.706 8.164,16.829 13.795,24.366c2.053,2.375 4.099,4.754 6.148,7.129c0.57,0.545 1.14,1.09 1.71,1.634l3.421,3.269c0.57,0.544 1.14,1.089 1.71,1.634l0.05,0.046c2.492,1.936 4.984,3.873 7.475,5.814c7.881,5.28 16.349,9.762 25.432,12.801c9.194,2.876 18.786,4.549 28.524,4.917c9.595,0.037 19.195,-1.161 28.553,-3.586c9.366,-2.679 18.298,-6.749 26.658,-11.845c3.444,-2.567 7.254,-4.7 10.385,-7.705c1.64,-1.411 3.284,-2.817 4.925,-4.228c1.494,-1.578 2.984,-3.151 4.478,-4.729c0,-0 0.831,-0.86 2.484,-2.579l1.093,-1.136c5.577,-5.801 14.801,-5.981 20.598,-0.4c5.597,5.38 5.935,14.186 0.948,20.005l-1.002,1.164l-0.001,0c-1.335,1.552 -2.003,2.325 -2.003,2.325c-1.836,2.116 -3.681,4.232 -5.522,6.349c-2.032,1.932 -4.069,3.869 -6.102,5.805c-3.952,4.032 -8.669,7.167 -13.097,10.669c-10.598,7.229 -22.142,13.135 -34.388,17.242c-12.217,3.84 -24.939,6.052 -37.815,6.549c-13.073,0.179 -26.175,-1.449 -38.901,-4.834c-12.6,-3.547 -24.584,-9.086 -35.769,-15.952c-3.565,-2.509 -7.129,-5.025 -10.685,-7.534l-0.08,-0.058c-3.305,-2.868 -6.607,-5.735 -9.913,-8.603c-3.088,-3.101 -6.052,-6.348 -9.061,-9.554c-8.469,-10.138 -15.723,-21.37 -21.132,-33.528c-5.218,-12.225 -8.774,-25.147 -10.539,-38.395c-0.322,-4.345 -0.635,-8.686 -0.952,-13.027c0.088,-4.503 0.138,-9.024 0.347,-13.535c0.534,-4.483 0.976,-8.995 1.686,-13.469c2.379,-13.248 6.803,-26.104 12.751,-38.258c2.195,-3.915 4.357,-7.876 6.686,-11.728c2.597,-3.678 5.193,-7.355 7.789,-11.028l0.058,-0.079c2.955,-3.397 5.906,-6.795 8.857,-10.192c9.542,-9.663 20.285,-18.257 32.21,-25.014c12.004,-6.566 24.88,-11.549 38.278,-14.638c4.445,-0.839 8.919,-1.565 13.394,-2.296c4.528,-0.329 9.053,-0.663 13.577,-0.993c4.692,0.092 9.404,0.134 14.104,0.384c13.786,1.123 27.397,4.312 40.432,9.203c5.568,2.513 11.365,4.642 16.595,7.851c2.663,1.507 5.351,3.001 7.976,4.579c2.504,1.753 5.013,3.514 7.517,5.272c0,-0 1.369,0.98 4.103,2.938c12.179,8.719 14.984,25.665 6.261,37.848c-8.723,12.18 -25.665,14.984 -37.844,6.261l-0.618,-0.455l-2.104,-1.611l-1.866,-1.431Z"/>
        <path d="M842.811,588.954c4.436,4.224 8.439,9.012 11.632,14.392c3.105,5.401 5.526,11.248 7.037,17.375c1.419,6.14 2.004,12.493 1.703,18.862c-0.409,6.365 -1.736,12.693 -3.902,18.791c-2.25,6.077 -5.464,11.799 -9.337,17.066c-3.999,5.143 -8.661,9.792 -13.995,13.732c-5.401,3.832 -11.328,7 -17.66,9.212c-6.348,2.125 -12.993,3.385 -19.75,3.711c-6.749,0.196 -13.557,-0.543 -20.198,-2.217c-6.623,-1.753 -13.001,-4.533 -18.945,-8.105c-5.889,-3.682 -11.194,-8.185 -15.885,-13.352c-4.566,-5.289 -8.519,-11.203 -11.487,-17.652c-2.888,-6.469 -4.908,-13.348 -5.91,-20.422c-0.893,-7.083 -0.805,-14.304 0.276,-21.45c1.185,-7.128 3.435,-14.111 6.59,-20.723c3.243,-6.582 7.513,-12.626 12.438,-18.072l0.38,-0.418c10.071,-11.14 27.268,-12.008 38.412,-1.936c11.14,10.067 12.008,27.267 1.937,38.407c-0.714,0.789 -1.582,1.628 -2.363,2.317c-1.582,1.373 -3.097,2.83 -4.341,4.558c-1.152,1.765 -2.174,3.685 -2.896,5.797c-0.622,2.129 -1.002,4.374 -1.106,6.691c0.012,2.299 0.342,4.612 0.935,6.899c0.672,2.262 1.728,4.403 2.996,6.503c1.419,2.016 3.085,3.932 4.988,5.572c1.974,1.536 4.124,2.917 6.52,3.94c2.412,0.935 4.983,1.599 7.659,1.924c2.679,0.196 5.405,0.054 8.122,-0.43c2.688,-0.567 5.28,-1.561 7.801,-2.834c2.454,-1.381 4.766,-3.151 6.874,-5.188c1.966,-2.124 3.765,-4.458 5.159,-7.091c5.693,-10.543 4.387,-25.189 -4.341,-35.198l-0.421,-0.48c-5.301,-6.081 -4.671,-15.31 1.41,-20.606c5.719,-4.988 14.267,-4.679 19.668,0.425Z"/>
        <path d="M1053.49,650.948c0.701,0 1.402,0.13 2.103,0.397c0.701,0.259 1.373,0.709 2.016,1.356l11.745,12.359c-5.142,6.72 -11.586,11.787 -19.325,15.205c-7.746,3.423 -16.904,5.13 -27.48,5.13c-9.7,0 -18.39,-1.653 -26.074,-4.954c-7.688,-3.302 -14.204,-7.86 -19.55,-13.674c-5.343,-5.814 -9.45,-12.709 -12.313,-20.681c-2.868,-7.976 -4.299,-16.645 -4.299,-25.991c-0,-9.524 1.548,-18.277 4.649,-26.253c3.097,-7.976 7.451,-14.855 13.06,-20.64c5.61,-5.785 12.33,-10.284 20.16,-13.502c7.83,-3.21 16.445,-4.817 25.857,-4.817c4.791,0 9.303,0.426 13.54,1.269c4.236,0.847 8.197,2.016 11.879,3.51c3.681,1.486 7.066,3.285 10.167,5.389c3.097,2.103 5.843,4.382 8.239,6.832l-9.992,13.411c-0.647,0.822 -1.402,1.565 -2.279,2.237c-0.876,0.676 -2.103,1.01 -3.681,1.01c-1.052,0 -2.045,-0.234 -2.98,-0.701c-0.935,-0.468 -1.929,-1.035 -2.98,-1.707c-1.052,-0.676 -2.208,-1.403 -3.465,-2.196c-1.256,-0.784 -2.746,-1.515 -4.466,-2.187c-1.724,-0.672 -3.744,-1.244 -6.048,-1.711c-2.312,-0.468 -5.012,-0.701 -8.109,-0.701c-4.909,-0 -9.396,0.905 -13.453,2.717c-4.065,1.811 -7.571,4.453 -10.522,7.93c-2.951,3.477 -5.23,7.747 -6.837,12.801c-1.602,5.055 -2.408,10.823 -2.408,17.309c0,6.545 0.889,12.359 2.671,17.443c1.787,5.084 4.212,9.362 7.275,12.839c3.068,3.476 6.649,6.123 10.74,7.93c4.09,1.815 8.472,2.721 13.147,2.721c2.684,0 5.142,-0.129 7.363,-0.396c2.22,-0.259 4.295,-0.702 6.223,-1.311c1.928,-0.618 3.74,-1.432 5.434,-2.454c1.695,-1.023 3.419,-2.325 5.172,-3.903c0.701,-0.584 1.456,-1.068 2.279,-1.444c0.818,-0.38 1.665,-0.572 2.542,-0.572Z" style="fill-rule:nonzero;"/>
        <path d="M1105.65,683.993l-26.12,-0l-0,-92.209l26.12,0l-0,92.209Zm2.454,-118.855c-0,4.796 -1.549,8.561 -4.646,11.307c-3.101,2.747 -6.753,4.12 -10.956,4.12c-4.207,-0 -7.859,-1.373 -10.956,-4.12c-3.101,-2.746 -4.65,-6.511 -4.65,-11.307c0,-4.791 1.549,-8.56 4.65,-11.307c3.097,-2.746 6.749,-4.119 10.956,-4.119c4.203,-0 7.855,1.373 10.956,4.119c3.097,2.747 4.646,6.516 4.646,11.307Z" style="fill-rule:nonzero;"/>
        <path d="M1122.3,568.82l26.12,-4.208l-0,27.172l31.379,0l-0,21.738l-31.379,-0l-0,32.43c-0,5.493 0.964,9.876 2.892,13.148c1.925,3.272 5.81,4.908 11.654,4.908c2.809,0 5.701,-0.263 8.681,-0.789c2.976,-0.525 5.698,-1.256 8.152,-2.191l3.681,20.335c-3.155,1.29 -6.661,2.396 -10.518,3.331c-3.856,0.931 -8.594,1.402 -14.199,1.402c-7.129,0 -13.031,-0.964 -17.71,-2.896c-4.675,-1.929 -8.41,-4.612 -11.215,-8.06c-2.805,-3.444 -4.766,-7.626 -5.873,-12.534c-1.114,-4.909 -1.665,-10.343 -1.665,-16.303l0,-77.483Z" style="fill-rule:nonzero;"/>
        <path d="M1279.54,591.784c-5.271,17.764 -10.777,34.418 -16.52,49.961c-5.739,15.543 -12.008,30.619 -18.803,45.228c-2.463,5.255 -4.917,9.729 -7.375,13.41c-2.459,3.677 -5.155,6.72 -8.077,9.116c-2.925,2.392 -6.231,4.145 -9.921,5.259c-3.685,1.11 -7.984,1.661 -12.901,1.661c-4.095,0 -7.872,-0.375 -11.324,-1.135c-3.452,-0.764 -6.286,-1.611 -8.514,-2.546l4.557,-20.861c2.693,0.939 5.088,1.578 7.192,1.928c2.104,0.351 4.328,0.526 6.67,0.526c4.674,0 8.268,-1.252 10.785,-3.765c2.508,-2.516 4.645,-5.993 6.403,-10.43c-5.969,-11.687 -11.933,-24.805 -17.894,-39.355c-5.964,-14.55 -11.578,-30.882 -16.837,-48.997l27.698,0c1.173,4.558 2.554,9.496 4.14,14.813c1.582,5.318 3.26,10.689 5.017,16.128c1.757,5.434 3.552,10.722 5.372,15.865c1.815,5.142 3.552,9.812 5.196,14.024c1.52,-4.212 3.106,-8.882 4.75,-14.024c1.645,-5.143 3.26,-10.431 4.842,-15.865c1.582,-5.439 3.109,-10.81 4.574,-16.128c1.469,-5.317 2.784,-10.255 3.961,-14.813l27.009,0Z" style="fill-rule:nonzero;"/>
        <path d="M1342.64,686.447c-8.532,-0 -15.894,-1.198 -22.088,-3.598c-6.194,-2.392 -11.307,-5.722 -15.339,-9.988c-4.032,-4.266 -7.012,-9.349 -8.941,-15.251c-1.928,-5.902 -2.888,-12.417 -2.888,-19.546l0,-75.559l27.343,-0l-0,73.28c-0,4.908 0.555,9.086 1.665,12.534c1.111,3.447 2.634,6.252 4.562,8.414c1.924,2.162 4.262,3.711 7.008,4.646c2.742,0.935 5.756,1.402 9.028,1.402c6.662,0 12.067,-2.041 16.216,-6.135c4.144,-4.091 6.223,-11.044 6.223,-20.861l-0,-73.28l27.347,-0l-0,75.559c-0,7.129 -0.994,13.673 -2.98,19.633c-1.987,5.961 -5.026,11.074 -9.112,15.339c-4.094,4.266 -9.295,7.567 -15.606,9.905c-6.306,2.333 -13.79,3.506 -22.438,3.506Z" style="fill-rule:nonzero;"/>
        <path d="M1465.88,638.59c0,-8.064 -1.815,-14.521 -5.434,-19.371c-3.623,-4.85 -8.999,-7.275 -16.128,-7.275c-2.341,-0 -4.499,0.087 -6.486,0.263c-1.991,0.175 -3.623,0.38 -4.908,0.613l-0,47.156c1.636,1.052 3.769,1.929 6.398,2.63c2.63,0.701 5.289,1.052 7.977,1.052c12.383,-0 18.581,-8.356 18.581,-25.068Zm26.642,-0.702c0,7.129 -0.872,13.615 -2.625,19.459c-1.753,5.843 -4.329,10.869 -7.714,15.072c-3.393,4.211 -7.596,7.483 -12.621,9.821c-5.03,2.333 -10.81,3.506 -17.355,3.506c-3.623,-0 -7.012,-0.351 -10.168,-1.052c-3.155,-0.701 -6.198,-1.695 -9.115,-2.98l-0,34.705l-26.12,0l-0,-121.479c2.337,-0.702 5.021,-1.374 8.064,-2.021c3.038,-0.638 6.223,-1.193 9.554,-1.661c3.33,-0.463 6.715,-0.847 10.167,-1.139c3.448,-0.292 6.749,-0.438 9.905,-0.438c7.596,-0 14.374,1.139 20.335,3.414c5.956,2.279 10.985,5.497 15.076,9.645c4.09,4.149 7.216,9.204 9.378,15.164c2.158,5.96 3.239,12.622 3.239,19.984Z" style="fill-rule:nonzero;"/>
        <path d="M1527.94,637.187c0,8.064 1.807,14.55 5.434,19.459c3.619,4.908 8.995,7.362 16.128,7.362c2.333,0 4.495,-0.087 6.486,-0.263c1.983,-0.175 3.619,-0.379 4.905,-0.613l-0,-47.507c-1.637,-1.052 -3.769,-1.928 -6.399,-2.629c-2.629,-0.702 -5.284,-1.052 -7.976,-1.052c-12.388,-0 -18.578,8.414 -18.578,25.243Zm59.072,43.826c-2.337,0.701 -5.025,1.373 -8.059,2.011c-3.043,0.647 -6.228,1.198 -9.558,1.67c-3.327,0.463 -6.72,0.847 -10.164,1.139c-3.451,0.292 -6.749,0.439 -9.904,0.439c-7.601,-0 -14.375,-1.115 -20.335,-3.331c-5.965,-2.216 -10.99,-5.405 -15.08,-9.554c-4.091,-4.145 -7.217,-9.174 -9.379,-15.08c-2.166,-5.898 -3.247,-12.53 -3.247,-19.893c-0,-7.479 0.943,-14.224 2.809,-20.251c1.87,-6.015 4.562,-11.132 8.068,-15.335c3.502,-4.207 7.801,-7.421 12.88,-9.641c5.084,-2.217 10.898,-3.331 17.443,-3.331c3.623,-0 6.866,0.35 9.729,1.052c2.863,0.701 5.756,1.694 8.678,2.98l-0,-41.722l26.119,-4.207l0,133.054Z" style="fill-rule:nonzero;"/>
        <path d="M1639.78,665.761c2.571,0 5.025,-0.058 7.363,-0.175c2.337,-0.117 4.207,-0.292 5.609,-0.526l0,-19.809c-1.051,-0.234 -2.629,-0.467 -4.733,-0.701c-2.107,-0.234 -4.032,-0.351 -5.785,-0.351c-2.454,0 -4.762,0.146 -6.928,0.438c-2.158,0.293 -4.057,0.848 -5.693,1.666c-1.636,0.818 -2.922,1.924 -3.857,3.326c-0.935,1.403 -1.407,3.16 -1.407,5.264c0,4.094 1.378,6.92 4.124,8.502c2.742,1.577 6.511,2.366 11.307,2.366Zm-2.103,-76.431c7.713,-0 14.141,0.876 19.283,2.629c5.138,1.753 9.261,4.266 12.358,7.538c3.093,3.273 5.289,7.246 6.574,11.921c1.286,4.675 1.929,9.875 1.929,15.598l-0,54.347c-3.74,0.818 -8.945,1.782 -15.602,2.893c-6.662,1.11 -14.726,1.665 -24.192,1.665c-5.96,-0 -11.369,-0.526 -16.215,-1.578c-4.85,-1.052 -9.028,-2.775 -12.534,-5.171c-3.506,-2.396 -6.194,-5.522 -8.064,-9.383c-1.874,-3.852 -2.805,-8.586 -2.805,-14.195c0,-5.376 1.077,-9.934 3.243,-13.674c2.162,-3.739 5.055,-6.72 8.678,-8.94c3.618,-2.221 7.767,-3.827 12.446,-4.821c4.675,-0.989 9.525,-1.494 14.55,-1.494c3.385,-0 6.398,0.154 9.028,0.442c2.629,0.293 4.762,0.672 6.398,1.136l0,-2.455c0,-4.436 -1.344,-8.001 -4.031,-10.689c-2.688,-2.688 -7.363,-4.032 -14.025,-4.032c-4.441,0 -8.823,0.322 -13.147,0.964c-4.328,0.643 -8.064,1.553 -11.219,2.718l-3.331,-21.037c1.519,-0.463 3.418,-0.968 5.697,-1.494c2.279,-0.521 4.758,-0.989 7.45,-1.398c2.688,-0.409 5.522,-0.76 8.503,-1.052c2.98,-0.292 5.985,-0.438 9.028,-0.438Z" style="fill-rule:nonzero;"/>
        <path d="M1690.08,568.82l26.12,-4.208l0,27.172l31.379,0l0,21.738l-31.379,-0l0,32.43c0,5.493 0.964,9.876 2.893,13.148c1.928,3.272 5.81,4.908 11.657,4.908c2.805,0 5.698,-0.263 8.678,-0.789c2.98,-0.525 5.697,-1.256 8.151,-2.191l3.682,20.335c-3.156,1.29 -6.662,2.396 -10.518,3.331c-3.857,0.931 -8.59,1.402 -14.2,1.402c-7.129,0 -13.031,-0.964 -17.705,-2.896c-4.675,-1.929 -8.415,-4.612 -11.22,-8.06c-2.804,-3.444 -4.762,-7.626 -5.872,-12.534c-1.115,-4.909 -1.666,-10.343 -1.666,-16.303l0,-77.483Z" style="fill-rule:nonzero;"/>
        <path d="M1818.76,628.593c-0.121,-2.216 -0.501,-4.378 -1.14,-6.482c-0.643,-2.103 -1.636,-3.973 -2.984,-5.609c-1.34,-1.637 -3.035,-2.98 -5.08,-4.032c-2.049,-1.052 -4.587,-1.578 -7.63,-1.578c-2.921,-0 -5.43,0.497 -7.533,1.49c-2.104,0.993 -3.857,2.308 -5.259,3.944c-1.403,1.636 -2.488,3.536 -3.243,5.698c-0.764,2.166 -1.315,4.353 -1.666,6.569l34.535,0Zm-61.36,9.997c-0,-8.181 1.256,-15.339 3.773,-21.479c2.509,-6.131 5.81,-11.244 9.905,-15.335c4.086,-4.09 8.79,-7.187 14.111,-9.291c5.314,-2.103 10.781,-3.155 16.387,-3.155c13.089,-0 23.436,4.003 31.032,12.008c7.593,8.005 11.391,19.78 11.391,35.323c-0,1.52 -0.054,3.185 -0.175,4.996c-0.117,1.812 -0.23,3.419 -0.347,4.821l-59.252,0c0.585,5.376 3.093,9.642 7.538,12.797c4.437,3.156 10.401,4.733 17.881,4.733c4.787,0 9.491,-0.438 14.112,-1.314c4.612,-0.881 8.385,-1.954 11.307,-3.244l3.506,21.212c-1.403,0.701 -3.273,1.402 -5.61,2.104c-2.342,0.701 -4.942,1.314 -7.801,1.84c-2.867,0.526 -5.935,0.964 -9.203,1.315c-3.273,0.351 -6.549,0.526 -9.817,0.526c-8.302,-0 -15.518,-1.227 -21.65,-3.681c-6.135,-2.455 -11.219,-5.815 -15.255,-10.08c-4.028,-4.266 -7.008,-9.32 -8.936,-15.164c-1.929,-5.843 -2.897,-12.154 -2.897,-18.932Z" style="fill-rule:nonzero;"/>
    </g>
</svg>
