<?xml version="1.0" encoding="UTF-8" standalone="no"?>
<!DOCTYPE svg PUBLIC "-//W3C//DTD SVG 1.1//EN" "http://www.w3.org/Graphics/SVG/1.1/DTD/svg11.dtd">
<svg width="100%" height="100%" viewBox="0 0 2500 1250" version="1.1" xmlns="http://www.w3.org/2000/svg" xmlns:xlink="http://www.w3.org/1999/xlink" xml:space="preserve" xmlns:serif="http://www.serif.com/" style="fill-rule:evenodd;clip-rule:evenodd;stroke-linejoin:round;stroke-miterlimit:2;">
    <rect id="logo-effisoo" x="-0" y="0" width="2500" height="1250" style="fill:none;"/>
    <g>
        <path d="M1063.11,620.464l0,-10.949l-35.536,0l0,-134.7l49.05,-0l0,-32.471l-86.526,-0l0,365.312l91.531,0l0,-32.471l-54.055,0l0,-154.721l35.536,0Z" style="fill-rule:nonzero;"/>
        <path d="M1190.74,474.815l0,-32.471l-86.526,-0l0,172.476l37.476,0l0,-77.792l35.536,0l0,-10.949l-35.536,0l0,-51.264l49.05,-0Z" style="fill-rule:nonzero;"/>
        <path d="M1190.74,667.651l0,-32.471l-86.526,-0l0,172.476l37.476,0l0,-77.792l35.536,0l0,-10.949l-35.536,0l0,-51.264l49.05,-0Z" style="fill-rule:nonzero;"/>
        <rect x="1215.21" y="442.344" width="37.476" height="365.312" style="fill-rule:nonzero;"/>
        <path d="M1321.59,812.661c31.537,0 58.02,-18.485 58.02,-61.506c0,-58.071 -66.568,-200.245 -66.568,-256.814c-0,-13.016 4.013,-23.03 20.565,-23.03c21.03,0 29.048,4.007 29.048,17.523c0,13.517 -6.514,31.539 -29.066,86.106l33.044,-0c5.469,-34.042 5.469,-72.089 5.469,-91.112c0,-31.002 -12.453,-46.489 -38.513,-46.489c-31.54,-0 -58.023,18.485 -58.023,63.009c0,72.088 66.568,189.232 66.568,255.313c0,13.016 -4.013,23.028 -20.565,23.028c-24.533,-0 -34.053,-4.005 -34.053,-18.523c-0,-16.019 9.52,-47.057 32.069,-90.11l-36.047,-0c-4.475,27.534 -5.469,64.078 -5.469,96.118c-0,31 13.957,46.487 43.521,46.487Z" style="fill-rule:nonzero;"/>
        <path d="M1449.46,617.526c33.048,-0 60.442,-18.767 60.442,-68.543l-0,-52.248c-0,-43.673 -18.77,-59.396 -54.335,-59.396c-33.048,-0 -60.442,18.766 -60.442,68.544l0,52.248c0,43.671 19.277,59.395 54.335,59.395Zm2.545,-145.697c10.179,0 19.85,5.592 19.85,42.186l-0,40.051c-0,17.788 -3.054,28.969 -16.288,28.969c-12.215,0 -22.395,-5.59 -22.395,-42.184l0,-40.05c0,-17.789 3.563,-28.972 18.833,-28.972Z" style="fill-rule:nonzero;"/>
        <path d="M1449.46,812.661c33.048,0 60.442,-18.767 60.442,-68.542l-0,-52.249c-0,-43.672 -18.77,-59.396 -54.335,-59.396c-33.048,0 -60.442,18.767 -60.442,68.545l0,52.248c0,43.671 19.277,59.394 54.335,59.394Zm2.545,-145.696c10.179,-0 19.85,5.592 19.85,42.185l-0,40.051c-0,17.789 -3.054,28.97 -16.288,28.97c-12.215,-0 -22.395,-5.591 -22.395,-42.184l0,-40.051c0,-17.788 3.563,-28.971 18.833,-28.971Z" style="fill-rule:nonzero;"/>
    </g>
</svg>
