<?xml version="1.0" encoding="UTF-8" standalone="no"?>
<!DOCTYPE svg PUBLIC "-//W3C//DTD SVG 1.1//EN" "http://www.w3.org/Graphics/SVG/1.1/DTD/svg11.dtd">
<svg width="100%" height="100%" viewBox="0 0 2500 1250" version="1.1" xmlns="http://www.w3.org/2000/svg" xmlns:xlink="http://www.w3.org/1999/xlink" xml:space="preserve" xmlns:serif="http://www.serif.com/" style="fill-rule:evenodd;clip-rule:evenodd;stroke-linejoin:round;stroke-miterlimit:2;">
    <rect id="logo-jrs" x="0" y="0" width="2500" height="1250" style="fill:none;"/>
    <g>
        <g transform="matrix(0.788133,0,0,0.788133,-417.519,283.262)">
            <g transform="matrix(119.994,0,0,119.994,2142.33,355.379)">
                <path d="M0.331,-0.716l0.144,0l0,0.453c0,0.06 -0.005,0.105 -0.016,0.137c-0.014,0.042 -0.039,0.075 -0.076,0.1c-0.036,0.026 -0.085,0.038 -0.145,0.038c-0.071,0 -0.125,-0.02 -0.163,-0.059c-0.038,-0.04 -0.058,-0.098 -0.058,-0.174l0.136,-0.016c0.002,0.041 0.008,0.07 0.018,0.087c0.016,0.026 0.04,0.039 0.072,0.039c0.032,-0 0.055,-0.01 0.068,-0.028c0.013,-0.018 0.02,-0.056 0.02,-0.114l0,-0.463Z" style="fill-rule:nonzero;"/>
            </g>
            <g transform="matrix(119.994,0,0,119.994,2209.06,355.379)">
                <path d="M0.718,-0l-0.157,-0l-0.062,-0.163l-0.287,0l-0.059,0.163l-0.153,-0l0.279,-0.716l0.153,0l0.286,0.716Zm-0.266,-0.283l-0.098,-0.266l-0.097,0.266l0.195,-0Z" style="fill-rule:nonzero;"/>
            </g>
            <g transform="matrix(119.994,0,0,119.994,2295.72,355.379)">
                <path d="M0.073,-0l-0,-0.716l0.232,0c0.088,0 0.145,0.004 0.172,0.011c0.041,0.011 0.075,0.034 0.103,0.07c0.027,0.036 0.041,0.082 0.041,0.139c0,0.044 -0.008,0.081 -0.024,0.111c-0.016,0.03 -0.036,0.054 -0.061,0.071c-0.024,0.017 -0.049,0.028 -0.075,0.034c-0.034,0.007 -0.084,0.01 -0.149,0.01l-0.095,-0l0,0.27l-0.144,-0Zm0.144,-0.595l0,0.203l0.079,0c0.057,0 0.095,-0.003 0.115,-0.011c0.019,-0.007 0.034,-0.019 0.045,-0.035c0.011,-0.016 0.016,-0.034 0.016,-0.056c0,-0.026 -0.007,-0.047 -0.023,-0.064c-0.015,-0.017 -0.034,-0.028 -0.058,-0.032c-0.017,-0.003 -0.052,-0.005 -0.104,-0.005l-0.07,0Z" style="fill-rule:nonzero;"/>
            </g>
            <g transform="matrix(119.994,0,0,119.994,2366.85,355.379)">
                <path d="M0.718,-0l-0.157,-0l-0.062,-0.163l-0.287,0l-0.059,0.163l-0.153,-0l0.279,-0.716l0.153,0l0.286,0.716Zm-0.266,-0.283l-0.098,-0.266l-0.097,0.266l0.195,-0Z" style="fill-rule:nonzero;"/>
            </g>
            <g transform="matrix(119.994,0,0,119.994,2453.51,355.379)">
                <path d="M0.074,-0l0,-0.716l0.141,0l0.293,0.478l-0,-0.478l0.134,0l0,0.716l-0.145,-0l-0.289,-0.467l0,0.467l-0.134,-0Z" style="fill-rule:nonzero;"/>
            </g>
            <g transform="matrix(119.994,0,0,119.994,2142.33,479.299)">
                <path d="M0.073,-0l0,-0.716l0.304,0c0.077,0 0.133,0.007 0.167,0.019c0.035,0.013 0.063,0.036 0.083,0.069c0.021,0.033 0.032,0.071 0.032,0.113c-0,0.054 -0.016,0.098 -0.048,0.133c-0.031,0.035 -0.078,0.057 -0.141,0.066c0.031,0.018 0.057,0.038 0.077,0.06c0.02,0.022 0.048,0.061 0.082,0.116l0.088,0.14l-0.173,-0l-0.105,-0.156c-0.037,-0.055 -0.062,-0.091 -0.076,-0.105c-0.013,-0.014 -0.028,-0.024 -0.043,-0.03c-0.015,-0.005 -0.04,-0.008 -0.073,-0.008l-0.029,0l-0,0.299l-0.145,-0Zm0.145,-0.413l0.107,-0c0.069,-0 0.112,-0.003 0.13,-0.009c0.017,-0.006 0.03,-0.016 0.04,-0.03c0.01,-0.014 0.015,-0.032 0.015,-0.054c-0,-0.024 -0.007,-0.043 -0.02,-0.058c-0.012,-0.015 -0.031,-0.024 -0.054,-0.028c-0.012,-0.002 -0.047,-0.003 -0.105,-0.003l-0.113,0l-0,0.182Z" style="fill-rule:nonzero;"/>
            </g>
            <g transform="matrix(119.994,0,0,119.994,2228.99,479.299)">
                <path d="M0.043,-0.354c0,-0.072 0.011,-0.134 0.033,-0.183c0.016,-0.037 0.039,-0.069 0.067,-0.098c0.028,-0.029 0.059,-0.051 0.092,-0.065c0.045,-0.019 0.096,-0.028 0.155,-0.028c0.105,-0 0.19,0.033 0.253,0.098c0.063,0.066 0.095,0.157 0.095,0.273c-0,0.116 -0.032,0.206 -0.094,0.271c-0.063,0.066 -0.147,0.098 -0.252,0.098c-0.107,0 -0.191,-0.032 -0.254,-0.097c-0.063,-0.065 -0.095,-0.155 -0.095,-0.269Zm0.149,-0.004c0,0.081 0.019,0.142 0.057,0.184c0.037,0.042 0.084,0.063 0.142,0.063c0.058,-0 0.105,-0.021 0.142,-0.063c0.037,-0.041 0.055,-0.103 0.055,-0.186c0,-0.082 -0.018,-0.144 -0.054,-0.184c-0.036,-0.04 -0.083,-0.06 -0.143,-0.06c-0.059,-0 -0.107,0.02 -0.144,0.061c-0.036,0.041 -0.055,0.102 -0.055,0.185Z" style="fill-rule:nonzero;"/>
            </g>
            <g transform="matrix(119.994,0,0,119.994,2322.32,479.299)">
                <path d="M0.261,-0l-0,-0.301l-0.262,-0.415l0.169,0l0.168,0.283l0.165,-0.283l0.167,0l-0.263,0.416l-0,0.3l-0.144,-0Z" style="fill-rule:nonzero;"/>
            </g>
            <g transform="matrix(119.994,0,0,119.994,2391.34,479.299)">
                <path d="M0.718,-0l-0.157,-0l-0.062,-0.163l-0.287,0l-0.059,0.163l-0.153,-0l0.279,-0.716l0.153,0l0.286,0.716Zm-0.266,-0.283l-0.098,-0.266l-0.097,0.266l0.195,-0Z" style="fill-rule:nonzero;"/>
            </g>
            <g transform="matrix(119.994,0,0,119.994,2478,479.299)">
                <path d="M0.077,-0l-0,-0.71l0.144,0l0,0.589l0.36,0l-0,0.121l-0.504,-0Z" style="fill-rule:nonzero;"/>
            </g>
            <g transform="matrix(119.994,0,0,119.994,2142.33,603.219)">
                <path d="M0.036,-0.233l0.141,-0.014c0.008,0.048 0.025,0.082 0.051,0.104c0.026,0.023 0.061,0.034 0.105,0.034c0.047,-0 0.082,-0.01 0.105,-0.03c0.024,-0.02 0.036,-0.043 0.036,-0.069c-0,-0.017 -0.005,-0.031 -0.015,-0.043c-0.01,-0.012 -0.028,-0.022 -0.052,-0.031c-0.017,-0.006 -0.056,-0.017 -0.116,-0.031c-0.077,-0.02 -0.132,-0.043 -0.163,-0.071c-0.044,-0.04 -0.066,-0.088 -0.066,-0.144c0,-0.037 0.01,-0.071 0.031,-0.103c0.021,-0.031 0.05,-0.056 0.089,-0.072c0.039,-0.017 0.086,-0.025 0.141,-0.025c0.09,-0 0.158,0.02 0.203,0.059c0.046,0.039 0.069,0.092 0.072,0.158l-0.145,0.006c-0.006,-0.037 -0.019,-0.063 -0.04,-0.079c-0.02,-0.016 -0.051,-0.024 -0.091,-0.024c-0.042,-0 -0.075,0.008 -0.099,0.025c-0.015,0.012 -0.023,0.026 -0.023,0.045c0,0.017 0.007,0.031 0.022,0.043c0.018,0.016 0.062,0.032 0.132,0.048c0.071,0.017 0.123,0.034 0.156,0.052c0.034,0.017 0.061,0.042 0.08,0.072c0.019,0.031 0.028,0.069 0.028,0.115c0,0.041 -0.011,0.079 -0.034,0.115c-0.023,0.036 -0.055,0.062 -0.097,0.08c-0.041,0.017 -0.093,0.026 -0.155,0.026c-0.091,-0 -0.16,-0.021 -0.209,-0.063c-0.048,-0.042 -0.077,-0.103 -0.087,-0.183Z" style="fill-rule:nonzero;"/>
            </g>
            <g transform="matrix(119.994,0,0,119.994,2222.36,603.219)">
                <path d="M0.073,-0l-0,-0.716l0.531,0l-0,0.121l-0.387,0l0,0.159l0.36,-0l-0,0.121l-0.36,-0l0,0.194l0.4,0l0,0.121l-0.544,-0Z" style="fill-rule:nonzero;"/>
            </g>
            <g transform="matrix(119.994,0,0,119.994,2302.4,603.219)">
                <path d="M0.073,-0l0,-0.716l0.304,0c0.077,0 0.133,0.007 0.167,0.019c0.035,0.013 0.063,0.036 0.083,0.069c0.021,0.033 0.032,0.071 0.032,0.113c-0,0.054 -0.016,0.098 -0.048,0.133c-0.031,0.035 -0.078,0.057 -0.141,0.066c0.031,0.018 0.057,0.038 0.077,0.06c0.02,0.022 0.048,0.061 0.082,0.116l0.088,0.14l-0.173,-0l-0.105,-0.156c-0.037,-0.055 -0.062,-0.091 -0.076,-0.105c-0.013,-0.014 -0.028,-0.024 -0.043,-0.03c-0.015,-0.005 -0.04,-0.008 -0.073,-0.008l-0.029,0l-0,0.299l-0.145,-0Zm0.145,-0.413l0.107,-0c0.069,-0 0.112,-0.003 0.13,-0.009c0.017,-0.006 0.03,-0.016 0.04,-0.03c0.01,-0.014 0.015,-0.032 0.015,-0.054c-0,-0.024 -0.007,-0.043 -0.02,-0.058c-0.012,-0.015 -0.031,-0.024 -0.054,-0.028c-0.012,-0.002 -0.047,-0.003 -0.105,-0.003l-0.113,0l-0,0.182Z" style="fill-rule:nonzero;"/>
            </g>
            <g transform="matrix(119.994,0,0,119.994,2386.89,603.219)">
                <path d="M0.255,-0l-0.255,-0.716l0.156,0l0.181,0.53l0.176,-0.53l0.153,0l-0.256,0.716l-0.155,-0Z" style="fill-rule:nonzero;"/>
            </g>
            <g transform="matrix(119.994,0,0,119.994,2466.92,603.219)">
                <rect x="0.068" y="-0.716" width="0.145" height="0.716" style="fill-rule:nonzero;"/>
            </g>
            <g transform="matrix(119.994,0,0,119.994,2500.26,603.219)">
                <path d="M0.531,-0.263l0.14,0.044c-0.022,0.078 -0.057,0.136 -0.107,0.174c-0.05,0.038 -0.114,0.057 -0.19,0.057c-0.096,0 -0.174,-0.032 -0.235,-0.097c-0.061,-0.065 -0.092,-0.154 -0.092,-0.267c0,-0.119 0.031,-0.211 0.093,-0.277c0.061,-0.066 0.142,-0.099 0.242,-0.099c0.088,-0 0.159,0.026 0.214,0.078c0.032,0.03 0.057,0.074 0.073,0.131l-0.143,0.035c-0.009,-0.037 -0.026,-0.067 -0.053,-0.088c-0.027,-0.022 -0.06,-0.032 -0.098,-0.032c-0.053,-0 -0.096,0.019 -0.129,0.057c-0.033,0.038 -0.05,0.099 -0.05,0.185c0,0.09 0.017,0.155 0.049,0.193c0.033,0.038 0.075,0.058 0.127,0.058c0.038,-0 0.072,-0.013 0.099,-0.037c0.028,-0.024 0.048,-0.063 0.06,-0.115Z" style="fill-rule:nonzero;"/>
            </g>
            <g transform="matrix(119.994,0,0,119.994,2586.92,603.219)">
                <path d="M0.073,-0l-0,-0.716l0.531,0l-0,0.121l-0.387,0l0,0.159l0.36,-0l-0,0.121l-0.36,-0l0,0.194l0.4,0l0,0.121l-0.544,-0Z" style="fill-rule:nonzero;"/>
            </g>
        </g>
        <g>
            <path d="M1005.07,595.131l13.821,-28.011c2.505,-5.072 6.601,-5.072 9.106,0l13.827,28.011c0.556,1.123 1.375,2.231 2.294,3.292l70.194,-97.968c3.477,0.305 7.011,-0.998 9.211,-4.022c3.34,-4.595 2.321,-11.028 -2.274,-14.363c-4.594,-3.34 -11.027,-2.321 -14.362,2.274c-2.232,3.067 -2.352,6.89 -0.935,10.135l-14.945,20.853c-14.583,-53.458 -67.563,-80.859 -67.563,-80.859c0,-0 -62.259,32.09 -70.425,94.696l50.418,68.314c0.588,-0.782 1.234,-1.549 1.633,-2.352Z" style="fill-rule:nonzero;"/>
            <path d="M901.608,669.116l78.932,-26.293c-0.51,-0.704 -0.977,-1.481 -1.549,-2.043l-22.366,-21.803c-4.054,-3.944 -2.788,-7.846 2.81,-8.66l30.909,-4.484c1.691,-0.247 3.45,-0.945 5.183,-1.812l-71.538,-97.123c1.349,-3.219 1.213,-6.979 -0.988,-10.003c-3.334,-4.595 -9.767,-5.614 -14.362,-2.274c-4.595,3.345 -5.614,9.767 -2.274,14.367c2.227,3.067 5.829,4.37 9.348,4.018l15.097,20.495c-55.317,-2.615 -97.716,39.275 -97.716,39.275c-0,-0 11.306,69.306 68.514,96.34Z" style="fill-rule:nonzero;"/>
            <path d="M1014.35,679.697l-27.648,14.536c-5.005,2.631 -8.318,0.226 -7.368,-5.351l5.288,-30.788c0.299,-1.765 0.147,-3.755 -0.184,-5.772l-113.139,37.589c-2.636,-2.284 -6.259,-3.319 -9.82,-2.158c-5.398,1.754 -8.355,7.557 -6.601,12.96c1.76,5.398 7.557,8.36 12.961,6.601c3.602,-1.171 5.955,-4.191 6.711,-7.641l24.019,-7.987c-19.43,51.741 7.236,104.868 7.236,104.868c0,0 69.47,10.666 112.856,-35.451l-0.62,-82.692c-1.323,0.32 -2.604,0.714 -3.691,1.286Z" style="fill-rule:nonzero;"/>
            <path d="M1062.3,653.084c-0.225,1.759 -0.283,3.471 -0.015,5.01l5.277,30.788c0.956,5.577 -2.358,7.982 -7.362,5.351l-27.648,-14.536c-1.255,-0.661 -2.71,-1.155 -4.264,-1.48l0.777,118.358c-2.983,1.802 -5.083,4.926 -5.083,8.67c-0,5.677 4.605,10.282 10.282,10.282c5.676,0 10.282,-4.605 10.282,-10.282c-0,-3.791 -2.148,-6.963 -5.199,-8.748l-0.163,-25.427c43.187,34.422 101.912,25.484 101.912,25.484c0,0 31.555,-62.647 1.25,-118.122l-80.046,-25.348Z" style="fill-rule:nonzero;"/>
            <path d="M1192.29,667.441c-3.602,-1.176 -7.284,-0.11 -9.925,2.242l-24.434,-7.766c46.206,-30.416 55.879,-89.141 55.879,-89.141c-0,-0 -49.73,-49.262 -111.769,-37.731l-49.703,69.506c1.418,0.631 2.846,1.082 4.211,1.282l30.915,4.484c5.597,0.814 6.863,4.716 2.814,8.66l-22.37,21.803c-0.756,0.741 -1.397,1.717 -2.038,2.684l113.391,36.018c0.788,3.398 3.12,6.365 6.675,7.52c5.403,1.754 11.206,-1.203 12.96,-6.601c1.754,-5.403 -1.202,-11.206 -6.606,-12.96Z" style="fill-rule:nonzero;"/>
        </g>
    </g>
</svg>
