<?xml version="1.0" encoding="UTF-8" standalone="no"?><!DOCTYPE svg PUBLIC "-//W3C//DTD SVG 1.1//EN" "http://www.w3.org/Graphics/SVG/1.1/DTD/svg11.dtd"><svg width="100%" height="100%" viewBox="0 0 600 600" version="1.1" xmlns="http://www.w3.org/2000/svg" xmlns:xlink="http://www.w3.org/1999/xlink" xml:space="preserve" xmlns:serif="http://www.serif.com/" style="fill-rule:evenodd;clip-rule:evenodd;stroke-linejoin:round;stroke-miterlimit:2;"><rect id="logo-jrs" x="0" y="0" width="600" height="600" style="fill:none;"/><g id="logo-jrs1" serif:id="logo-jrs"><g><g transform="matrix(0.213825,0,0,0.213825,-152.461,207.285)"><g transform="matrix(119.994,0,0,119.994,2142.33,355.379)"><path d="M0.27,0.01c-0.049,0 -0.093,-0.008 -0.13,-0.025c-0.037,-0.017 -0.067,-0.042 -0.088,-0.077c-0.021,-0.034 -0.033,-0.078 -0.035,-0.131l0.001,-0.003l0.134,0c0.002,0.046 0.013,0.079 0.031,0.097c0.018,0.019 0.043,0.028 0.073,0.028c0.019,0 0.037,-0.004 0.051,-0.013c0.015,-0.008 0.027,-0.021 0.036,-0.038c0.008,-0.016 0.012,-0.037 0.012,-0.061l0,-0.397l-0.095,-0.015l0,-0.086l0.314,0l0,0.086l-0.076,0.015l0,0.397c0,0.045 -0.009,0.085 -0.027,0.118c-0.017,0.034 -0.043,0.06 -0.077,0.078c-0.034,0.018 -0.075,0.027 -0.124,0.027Z" style="fill:#fff;fill-rule:nonzero;"/></g><g transform="matrix(119.994,0,0,119.994,2206.9,355.379)"><path d="M0.02,0l0,-0.085l0.051,-0.008l0.226,-0.618l0.146,0l0.224,0.618l0.051,0.008l0,0.085l-0.242,0l0,-0.085l0.049,-0.009l-0.031,-0.098l-0.25,0l-0.031,0.098l0.049,0.009l0,0.085l-0.242,0Zm0.258,-0.297l0.182,0l-0.083,-0.244l-0.006,-0.021l-0.003,0l-0.008,0.023l-0.082,0.242Z" style="fill:#fff;fill-rule:nonzero;"/></g><g transform="matrix(119.994,0,0,119.994,2295.49,355.379)"><path d="M0.027,0l0,-0.085l0.076,-0.015l0,-0.51l-0.076,-0.015l0,-0.086l0.339,0c0.054,0 0.101,0.01 0.14,0.029c0.04,0.019 0.07,0.045 0.091,0.079c0.021,0.034 0.032,0.074 0.032,0.119c0,0.045 -0.011,0.085 -0.032,0.119c-0.021,0.034 -0.051,0.06 -0.091,0.079c-0.039,0.019 -0.086,0.028 -0.14,0.028l-0.12,0l0,0.158l0.076,0.015l0,0.085l-0.295,0Zm0.219,-0.368l0.12,0c0.039,0 0.069,-0.01 0.09,-0.032c0.02,-0.022 0.03,-0.049 0.03,-0.083c0,-0.034 -0.01,-0.062 -0.03,-0.085c-0.021,-0.022 -0.051,-0.033 -0.09,-0.033l-0.12,0l0,0.233Z" style="fill:#fff;fill-rule:nonzero;"/></g><g transform="matrix(119.994,0,0,119.994,2359.29,355.379)"><path d="M0.02,0l0,-0.085l0.051,-0.008l0.226,-0.618l0.146,0l0.224,0.618l0.051,0.008l0,0.085l-0.242,0l0,-0.085l0.049,-0.009l-0.031,-0.098l-0.25,0l-0.031,0.098l0.049,0.009l0,0.085l-0.242,0Zm0.258,-0.297l0.182,0l-0.083,-0.244l-0.006,-0.021l-0.003,0l-0.008,0.023l-0.082,0.242Z" style="fill:#fff;fill-rule:nonzero;"/></g><g transform="matrix(119.994,0,0,119.994,2447.88,355.379)"><path d="M0.027,0l0,-0.085l0.076,-0.015l0,-0.51l-0.076,-0.015l0,-0.086l0.221,0l0.309,0.493l0.003,0l0,-0.392l-0.091,-0.015l0,-0.086l0.295,0l0,0.086l-0.077,0.015l0,0.61l-0.137,0l-0.317,-0.488l-0.003,0l0,0.388l0.092,0.015l0,0.085l-0.295,0Z" style="fill:#fff;fill-rule:nonzero;"/></g><g transform="matrix(119.994,0,0,119.994,2142.33,475.373)"><path d="M0.027,0l0,-0.085l0.076,-0.015l0,-0.51l-0.076,-0.015l0,-0.086l0.337,0c0.055,0 0.102,0.009 0.141,0.025c0.039,0.017 0.069,0.042 0.09,0.073c0.021,0.032 0.031,0.07 0.031,0.114c0,0.042 -0.01,0.079 -0.031,0.112c-0.021,0.033 -0.05,0.059 -0.087,0.077c-0.037,0.019 -0.08,0.029 -0.128,0.029l-0.134,0l0,0.181l0.076,0.015l0,0.085l-0.295,0Zm0.458,0l-0.12,-0.307l0.129,-0.032l0.103,0.239l0.061,0.015l0,0.085l-0.173,0Zm-0.239,-0.391l0.116,0c0.041,0 0.072,-0.008 0.092,-0.026c0.02,-0.017 0.03,-0.042 0.03,-0.076c0,-0.033 -0.01,-0.059 -0.03,-0.079c-0.02,-0.019 -0.05,-0.029 -0.09,-0.029l-0.118,0l0,0.21Z" style="fill:#fff;fill-rule:nonzero;"/></g><g transform="matrix(119.994,0,0,119.994,2224.83,475.373)"><path d="M0.353,0.01c-0.048,0 -0.091,-0.009 -0.131,-0.027c-0.039,-0.018 -0.073,-0.043 -0.102,-0.075c-0.028,-0.032 -0.05,-0.071 -0.065,-0.114c-0.016,-0.044 -0.023,-0.092 -0.023,-0.144l0,-0.011c0,-0.052 0.007,-0.099 0.023,-0.143c0.015,-0.044 0.037,-0.082 0.065,-0.115c0.028,-0.032 0.062,-0.057 0.102,-0.075c0.039,-0.018 0.083,-0.027 0.131,-0.027c0.048,0 0.092,0.009 0.131,0.027c0.04,0.018 0.074,0.043 0.103,0.075c0.029,0.033 0.051,0.071 0.066,0.115c0.016,0.044 0.023,0.091 0.023,0.143l0,0.011c0,0.052 -0.007,0.1 -0.023,0.144c-0.015,0.043 -0.037,0.082 -0.066,0.114c-0.029,0.032 -0.063,0.057 -0.102,0.075c-0.04,0.018 -0.084,0.027 -0.132,0.027Zm0,-0.111c0.04,0 0.074,-0.01 0.101,-0.031c0.026,-0.021 0.046,-0.05 0.06,-0.087c0.013,-0.038 0.02,-0.081 0.02,-0.131l0,-0.012c0,-0.049 -0.007,-0.092 -0.02,-0.129c-0.014,-0.038 -0.034,-0.067 -0.061,-0.088c-0.027,-0.02 -0.06,-0.031 -0.1,-0.031c-0.04,0 -0.073,0.01 -0.1,0.031c-0.026,0.021 -0.046,0.05 -0.059,0.087c-0.013,0.037 -0.02,0.08 -0.02,0.13l0,0.012c0,0.05 0.007,0.093 0.02,0.131c0.013,0.037 0.033,0.066 0.06,0.087c0.026,0.021 0.059,0.031 0.099,0.031Z" style="fill:#fff;fill-rule:nonzero;"/></g><g transform="matrix(119.994,0,0,119.994,2307.03,475.373)"><path d="M0.221,0l0,-0.085l0.076,-0.015l0,-0.144l-0.211,-0.371l-0.068,-0.01l0,-0.086l0.283,0l0,0.086l-0.058,0.008l0.118,0.227l0.011,0.023l0.003,0l0.011,-0.022l0.131,-0.228l-0.078,-0.008l0,-0.086l0.278,0l0,0.086l-0.07,0.01l-0.208,0.36l0,0.155l0.076,0.015l0,0.085l-0.294,0Z" style="fill:#fff;fill-rule:nonzero;"/></g><g transform="matrix(119.994,0,0,119.994,2380.38,475.373)"><path d="M0.02,0l0,-0.085l0.051,-0.008l0.226,-0.618l0.146,0l0.224,0.618l0.051,0.008l0,0.085l-0.242,0l0,-0.085l0.049,-0.009l-0.031,-0.098l-0.25,0l-0.031,0.098l0.049,0.009l0,0.085l-0.242,0Zm0.258,-0.297l0.182,0l-0.083,-0.244l-0.006,-0.021l-0.003,0l-0.008,0.023l-0.082,0.242Z" style="fill:#fff;fill-rule:nonzero;"/></g><g transform="matrix(119.994,0,0,119.994,2468.97,475.373)"><path d="M0.027,0l0,-0.085l0.076,-0.015l0,-0.51l-0.076,-0.015l0,-0.086l0.305,0l0,0.086l-0.086,0.015l0,0.501l0.2,0l0.007,-0.104l0.109,0l0,0.213l-0.535,0Z" style="fill:#fff;fill-rule:nonzero;"/></g><g transform="matrix(119.994,0,0,119.994,2142.33,595.367)"><path d="M0.317,0.01c-0.052,0 -0.1,-0.006 -0.143,-0.017c-0.043,-0.012 -0.085,-0.032 -0.127,-0.061l0,-0.172l0.111,0l0.015,0.101c0.015,0.012 0.035,0.022 0.06,0.03c0.026,0.008 0.054,0.011 0.084,0.011c0.026,0 0.048,-0.003 0.066,-0.01c0.017,-0.008 0.031,-0.018 0.04,-0.031c0.009,-0.013 0.014,-0.029 0.014,-0.047c0,-0.016 -0.004,-0.032 -0.012,-0.045c-0.009,-0.013 -0.022,-0.025 -0.041,-0.036c-0.019,-0.011 -0.045,-0.021 -0.078,-0.031c-0.056,-0.017 -0.103,-0.035 -0.14,-0.055c-0.037,-0.019 -0.064,-0.043 -0.083,-0.071c-0.018,-0.027 -0.027,-0.06 -0.027,-0.099c0,-0.038 0.01,-0.072 0.032,-0.102c0.021,-0.029 0.051,-0.052 0.088,-0.069c0.038,-0.017 0.082,-0.026 0.131,-0.027c0.055,0 0.103,0.006 0.145,0.02c0.043,0.013 0.079,0.033 0.11,0.057l0,0.16l-0.107,0l-0.019,-0.098c-0.012,-0.007 -0.029,-0.014 -0.05,-0.02c-0.021,-0.006 -0.045,-0.009 -0.072,-0.009c-0.022,0 -0.042,0.004 -0.06,0.01c-0.017,0.007 -0.031,0.017 -0.041,0.03c-0.01,0.013 -0.015,0.029 -0.015,0.048c0,0.016 0.004,0.029 0.013,0.041c0.009,0.012 0.023,0.023 0.044,0.034c0.021,0.011 0.049,0.022 0.086,0.034c0.078,0.022 0.138,0.051 0.178,0.086c0.041,0.036 0.061,0.083 0.061,0.141c0,0.041 -0.011,0.076 -0.033,0.105c-0.021,0.03 -0.052,0.052 -0.091,0.068c-0.04,0.016 -0.086,0.024 -0.139,0.024Z" style="fill:#fff;fill-rule:nonzero;"/></g><g transform="matrix(119.994,0,0,119.994,2215.39,595.367)"><path d="M0.027,0l0,-0.085l0.076,-0.015l0,-0.51l-0.076,-0.015l0,-0.086l0.552,0l0,0.192l-0.109,0l-0.007,-0.082l-0.217,0l0,0.179l0.24,0l0,0.109l-0.24,0l0,0.204l0.229,0l0.006,-0.085l0.109,0l0,0.194l-0.563,0Z" style="fill:#fff;fill-rule:nonzero;"/></g><g transform="matrix(119.994,0,0,119.994,2292.03,595.367)"><path d="M0.027,0l0,-0.085l0.076,-0.015l0,-0.51l-0.076,-0.015l0,-0.086l0.337,0c0.055,0 0.102,0.009 0.141,0.025c0.039,0.017 0.069,0.042 0.09,0.073c0.021,0.032 0.031,0.07 0.031,0.114c0,0.042 -0.01,0.079 -0.031,0.112c-0.021,0.033 -0.05,0.059 -0.087,0.077c-0.037,0.019 -0.08,0.029 -0.128,0.029l-0.134,0l0,0.181l0.076,0.015l0,0.085l-0.295,0Zm0.458,0l-0.12,-0.307l0.129,-0.032l0.103,0.239l0.061,0.015l0,0.085l-0.173,0Zm-0.239,-0.391l0.116,0c0.041,0 0.072,-0.008 0.092,-0.026c0.02,-0.017 0.03,-0.042 0.03,-0.076c0,-0.033 -0.01,-0.059 -0.03,-0.079c-0.02,-0.019 -0.05,-0.029 -0.09,-0.029l-0.118,0l0,0.21Z" style="fill:#fff;fill-rule:nonzero;"/></g><g transform="matrix(119.994,0,0,119.994,2369.25,595.367)"><path d="M0.309,0l-0.229,-0.617l-0.063,-0.008l0,-0.086l0.282,0l0,0.086l-0.064,0.01l0.14,0.419l0.011,0.039l0.003,0l0.01,-0.038l0.14,-0.42l-0.075,-0.01l0,-0.086l0.269,0l0,0.086l-0.064,0.008l-0.214,0.617l-0.146,0Z" style="fill:#fff;fill-rule:nonzero;"/></g><g transform="matrix(119.994,0,0,119.994,2459.19,595.367)"><path d="M0.027,0l0,-0.085l0.076,-0.015l0,-0.51l-0.076,-0.015l0,-0.086l0.294,0l0,0.086l-0.075,0.015l0,0.51l0.075,0.015l0,0.085l-0.294,0Z" style="fill:#fff;fill-rule:nonzero;"/></g><g transform="matrix(119.994,0,0,119.994,2501.02,595.367)"><path d="M0.366,0.01c-0.069,0 -0.129,-0.014 -0.18,-0.043c-0.052,-0.029 -0.091,-0.07 -0.119,-0.123c-0.028,-0.052 -0.042,-0.115 -0.042,-0.187l0,-0.024c0,-0.069 0.014,-0.13 0.041,-0.184c0.027,-0.053 0.065,-0.095 0.115,-0.125c0.049,-0.03 0.109,-0.045 0.177,-0.045c0.049,0 0.094,0.007 0.136,0.02c0.042,0.014 0.08,0.035 0.113,0.063l0,0.172l-0.106,0l-0.015,-0.108c-0.01,-0.008 -0.022,-0.015 -0.035,-0.02c-0.013,-0.006 -0.026,-0.01 -0.041,-0.013c-0.015,-0.003 -0.031,-0.004 -0.048,-0.004c-0.041,0 -0.075,0.01 -0.104,0.029c-0.029,0.02 -0.051,0.048 -0.067,0.085c-0.015,0.036 -0.023,0.079 -0.023,0.129l0,0.025c0,0.05 0.008,0.093 0.024,0.129c0.017,0.037 0.04,0.065 0.07,0.085c0.03,0.02 0.065,0.03 0.106,0.03c0.021,0 0.041,-0.002 0.062,-0.007c0.021,-0.005 0.039,-0.011 0.056,-0.019l0.015,-0.1l0.106,0l0,0.17c-0.028,0.019 -0.062,0.034 -0.104,0.046c-0.041,0.013 -0.087,0.019 -0.137,0.019Z" style="fill:#fff;fill-rule:nonzero;"/></g><g transform="matrix(119.994,0,0,119.994,2578.42,595.367)"><path d="M0.027,0l0,-0.085l0.076,-0.015l0,-0.51l-0.076,-0.015l0,-0.086l0.552,0l0,0.192l-0.109,0l-0.007,-0.082l-0.217,0l0,0.179l0.24,0l0,0.109l-0.24,0l0,0.204l0.229,0l0.006,-0.085l0.109,0l0,0.194l-0.563,0Z" style="fill:#fff;fill-rule:nonzero;"/></g></g><g><path d="M233.496,291.896l3.749,-7.599c0.68,-1.376 1.791,-1.376 2.471,0l3.751,7.599c0.151,0.305 0.373,0.606 0.623,0.894l19.044,-26.58c0.943,0.083 1.902,-0.27 2.499,-1.091c0.906,-1.247 0.629,-2.992 -0.617,-3.897c-1.247,-0.906 -2.992,-0.629 -3.897,0.617c-0.605,0.832 -0.638,1.87 -0.253,2.75l-4.055,5.658c-3.957,-14.504 -18.33,-21.938 -18.33,-21.938c0,0 -16.892,8.706 -19.107,25.692l13.678,18.534c0.16,-0.213 0.335,-0.421 0.444,-0.639Z" style="fill:#fff;fill-rule:nonzero;"/><path d="M205.425,311.969l21.414,-7.134c-0.138,-0.19 -0.265,-0.401 -0.42,-0.554l-6.068,-5.915c-1.1,-1.07 -0.756,-2.129 0.762,-2.349l8.386,-1.217c0.459,-0.067 0.936,-0.257 1.406,-0.492l-19.408,-26.35c0.366,-0.873 0.329,-1.893 -0.268,-2.714c-0.905,-1.246 -2.65,-1.523 -3.897,-0.617c-1.246,0.908 -1.523,2.65 -0.617,3.898c0.605,0.833 1.582,1.186 2.536,1.09l4.096,5.561c-15.007,-0.71 -26.51,10.655 -26.51,10.655c0,0 3.067,18.804 18.588,26.138Z" style="fill:#fff;fill-rule:nonzero;"/><path d="M236.012,314.84l-7.501,3.943c-1.358,0.714 -2.257,0.062 -1.999,-1.452l1.434,-8.353c0.082,-0.478 0.04,-1.018 -0.05,-1.565l-30.695,10.198c-0.715,-0.62 -1.698,-0.901 -2.664,-0.586c-1.465,0.476 -2.267,2.05 -1.791,3.516c0.478,1.465 2.05,2.268 3.516,1.791c0.978,-0.318 1.616,-1.137 1.821,-2.073l6.517,-2.167c-5.272,14.038 1.963,28.452 1.963,28.452c0,0 18.847,2.893 30.618,-9.619l-0.168,-22.434c-0.359,0.087 -0.706,0.193 -1.001,0.349Z" style="fill:#fff;fill-rule:nonzero;"/><path d="M249.022,307.619c-0.061,0.478 -0.077,0.942 -0.004,1.359l1.432,8.353c0.259,1.514 -0.64,2.166 -1.998,1.452l-7.501,-3.943c-0.34,-0.18 -0.735,-0.314 -1.157,-0.402l0.211,32.111c-0.809,0.489 -1.379,1.337 -1.379,2.352c0,1.541 1.249,2.79 2.789,2.79c1.541,0 2.79,-1.249 2.79,-2.79c0,-1.028 -0.583,-1.889 -1.41,-2.373l-0.045,-6.898c11.717,9.338 27.65,6.914 27.65,6.914c0,0 8.561,-16.997 0.339,-32.048l-21.717,-6.877Z" style="fill:#fff;fill-rule:nonzero;"/><path d="M284.289,311.514c-0.977,-0.319 -1.976,-0.029 -2.693,0.609l-6.629,-2.107c12.536,-8.252 15.16,-24.185 15.16,-24.185c0,0 -13.491,-13.365 -30.323,-10.236l-13.485,18.857c0.385,0.171 0.772,0.294 1.143,0.348l8.387,1.217c1.519,0.22 1.862,1.279 0.764,2.349l-6.069,5.915c-0.206,0.201 -0.379,0.466 -0.553,0.728l30.763,9.772c0.214,0.922 0.847,1.727 1.811,2.04c1.466,0.476 3.04,-0.326 3.516,-1.79c0.476,-1.466 -0.326,-3.041 -1.792,-3.517Z" style="fill:#fff;fill-rule:nonzero;"/></g></g></g></svg>
