<?xml version="1.0" encoding="UTF-8" standalone="no"?>
<!DOCTYPE svg PUBLIC "-//W3C//DTD SVG 1.1//EN" "http://www.w3.org/Graphics/SVG/1.1/DTD/svg11.dtd">
<svg width="100%" height="100%" viewBox="0 0 2500 1250" version="1.1" xmlns="http://www.w3.org/2000/svg" xmlns:xlink="http://www.w3.org/1999/xlink" xml:space="preserve" xmlns:serif="http://www.serif.com/" style="fill-rule:evenodd;clip-rule:evenodd;stroke-linejoin:round;stroke-miterlimit:2;">
    <rect id="logo-inspiration-family" x="0" y="0" width="2500" height="1250" style="fill:none;"/>
    <g id="logo-inspiration-family1" serif:id="logo-inspiration-family">
        <g>
            <g>
                <clipPath id="_clip1">
                    <rect x="774.273" y="482.037" width="951.455" height="284.557"/>
                </clipPath>
                <g clip-path="url(#_clip1)">
                    <rect x="1155" y="524.564" width="16.774" height="72.48"/>
                    <path d="M1221.68,540.51c6.903,-0 12.476,2.071 16.722,6.212c4.245,4.142 6.367,10.286 6.367,18.43l0,31.892l-16.152,-0l-0,-29.407c-0,-4.417 -0.966,-7.714 -2.899,-9.888c-1.933,-2.174 -4.729,-3.261 -8.387,-3.261c-4.073,-0 -7.317,1.26 -9.733,3.779c-2.416,2.52 -3.624,6.264 -3.624,11.234l0,27.543l-16.152,-0l-0,-55.706l15.427,-0l0,6.523c2.14,-2.347 4.798,-4.159 7.973,-5.436c3.175,-1.277 6.662,-1.915 10.458,-1.915Z" style="fill-rule:nonzero;"/>
                    <path d="M1278.12,597.872c-4.625,0 -9.146,-0.57 -13.564,-1.709c-4.418,-1.139 -7.938,-2.571 -10.561,-4.296l5.385,-11.597c2.484,1.587 5.487,2.882 9.007,3.883c3.521,1 6.972,1.501 10.354,1.501c6.834,-0 10.251,-1.691 10.251,-5.073c0,-1.588 -0.932,-2.727 -2.795,-3.417c-1.864,-0.691 -4.729,-1.278 -8.594,-1.761c-4.556,-0.69 -8.318,-1.484 -11.287,-2.381c-2.968,-0.897 -5.539,-2.485 -7.713,-4.763c-2.175,-2.278 -3.262,-5.522 -3.262,-9.733c0,-3.521 1.018,-6.644 3.054,-9.371c2.037,-2.727 5.005,-4.849 8.906,-6.367c3.9,-1.52 8.507,-2.278 13.822,-2.278c3.935,-0 7.852,0.431 11.752,1.294c3.9,0.863 7.127,2.053 9.681,3.572l-5.384,11.493c-4.901,-2.761 -10.251,-4.142 -16.049,-4.142c-3.451,0 -6.04,0.483 -7.765,1.45c-1.726,0.967 -2.589,2.209 -2.589,3.728c-0,1.725 0.932,2.933 2.796,3.624c1.864,0.69 4.832,1.346 8.904,1.967c4.556,0.759 8.284,1.57 11.183,2.433c2.899,0.863 5.418,2.433 7.558,4.711c2.14,2.278 3.21,5.453 3.21,9.527c0,3.451 -1.035,6.522 -3.106,9.214c-2.071,2.693 -5.091,4.781 -9.06,6.265c-3.969,1.484 -8.68,2.226 -14.134,2.226Z" style="fill-rule:nonzero;"/>
                    <path d="M1347.28,540.51c5.177,-0 9.888,1.19 14.133,3.572c4.245,2.381 7.576,5.729 9.992,10.044c2.416,4.314 3.624,9.335 3.624,15.065c0,5.729 -1.208,10.751 -3.624,15.065c-2.416,4.314 -5.747,7.662 -9.992,10.044c-4.245,2.381 -8.956,3.572 -14.133,3.572c-7.11,0 -12.701,-2.244 -16.775,-6.73l0,25.988l-16.152,0l-0,-75.792l15.428,-0l0,6.419c4.004,-4.832 9.837,-7.247 17.499,-7.247Zm-2.796,44.108c4.141,0 7.541,-1.397 10.199,-4.193c2.658,-2.796 3.986,-6.54 3.986,-11.234c0,-4.694 -1.328,-8.439 -3.986,-11.235c-2.658,-2.796 -6.058,-4.193 -10.199,-4.193c-4.142,-0 -7.541,1.397 -10.199,4.193c-2.657,2.796 -3.986,6.541 -3.986,11.235c0,4.694 1.329,8.438 3.986,11.234c2.658,2.796 6.057,4.193 10.199,4.193Z" style="fill-rule:nonzero;"/>
                    <path d="M1385.8,541.338l16.153,-0l-0,55.706l-16.153,-0l0,-55.706Zm8.077,-7.766c-2.968,-0 -5.385,-0.862 -7.249,-2.589c-1.863,-1.725 -2.795,-3.865 -2.795,-6.419c-0,-2.554 0.932,-4.694 2.795,-6.42c1.864,-1.725 4.281,-2.588 7.249,-2.588c2.968,-0 5.384,0.828 7.247,2.485c1.864,1.656 2.796,3.727 2.796,6.213c0,2.692 -0.932,4.918 -2.796,6.678c-1.863,1.76 -4.279,2.64 -7.247,2.64Z" style="fill-rule:nonzero;"/>
                    <path d="M1432.39,548.689c1.932,-2.691 4.538,-4.728 7.817,-6.108c3.279,-1.381 7.058,-2.071 11.338,-2.071l0,14.91c-1.795,-0.139 -3.003,-0.208 -3.624,-0.208c-4.625,0 -8.249,1.294 -10.872,3.883c-2.623,2.589 -3.934,6.471 -3.934,11.649l-0,26.3l-16.153,-0l-0,-55.706l15.428,-0l-0,7.351Z" style="fill-rule:nonzero;"/>
                    <path d="M1483.34,540.51c8.629,-0 15.256,2.053 19.881,6.16c4.625,4.107 6.937,10.303 6.937,18.586l-0,31.788l-15.118,-0l0,-6.938c-3.036,5.178 -8.697,7.766 -16.98,7.766c-4.28,0 -7.99,-0.725 -11.131,-2.174c-3.141,-1.45 -5.54,-3.452 -7.196,-6.006c-1.657,-2.554 -2.486,-5.453 -2.486,-8.697c0,-5.177 1.95,-9.251 5.85,-12.219c3.901,-2.968 9.924,-4.452 18.069,-4.452l12.839,-0c-0,-3.52 -1.069,-6.23 -3.21,-8.128c-2.14,-1.898 -5.35,-2.847 -9.629,-2.847c-2.968,-0 -5.885,0.466 -8.749,1.398c-2.865,0.931 -5.299,2.191 -7.3,3.779l-5.799,-11.287c3.038,-2.139 6.679,-3.796 10.924,-4.969c4.246,-1.174 8.611,-1.76 13.098,-1.76Zm-1.242,46.49c2.761,-0 5.211,-0.639 7.351,-1.915c2.14,-1.278 3.659,-3.159 4.556,-5.643l-0,-5.695l-11.079,-0c-6.627,-0 -9.94,2.174 -9.94,6.523c-0,2.07 0.812,3.71 2.433,4.918c1.622,1.208 3.848,1.812 6.679,1.812Z" style="fill-rule:nonzero;"/>
                    <path d="M1560.68,594.352c-1.587,1.173 -3.537,2.053 -5.85,2.64c-2.312,0.586 -4.746,0.88 -7.3,0.88c-6.626,0 -11.752,-1.691 -15.375,-5.074c-3.624,-3.382 -5.437,-8.352 -5.437,-14.91l0,-22.883l-8.593,0l-0,-12.424l8.593,-0l0,-13.565l16.153,-0l-0,13.565l13.875,-0l0,12.424l-13.875,0l-0,22.676c-0,2.347 0.604,4.159 1.812,5.436c1.208,1.277 2.916,1.915 5.125,1.915c2.554,0 4.729,-0.69 6.524,-2.071l4.348,11.391Z" style="fill-rule:nonzero;"/>
                    <path d="M1569.79,541.338l16.157,-0l-0,55.706l-16.157,-0l0,-55.706Zm8.079,-7.766c-2.965,-0 -5.383,-0.862 -7.249,-2.589c-1.865,-1.725 -2.79,-3.865 -2.79,-6.419c0,-2.554 0.925,-4.694 2.79,-6.42c1.866,-1.725 4.284,-2.588 7.249,-2.588c2.972,-0 5.382,0.828 7.248,2.485c1.865,1.656 2.798,3.727 2.798,6.213c-0,2.692 -0.933,4.918 -2.798,6.678c-1.866,1.76 -4.276,2.64 -7.248,2.64Z" style="fill-rule:nonzero;"/>
                    <path d="M1627.47,597.872c-5.865,0 -11.129,-1.226 -15.793,-3.676c-4.655,-2.45 -8.299,-5.85 -10.923,-10.199c-2.625,-4.348 -3.937,-9.284 -3.937,-14.806c0,-5.522 1.312,-10.458 3.937,-14.807c2.624,-4.349 6.268,-7.749 10.923,-10.199c4.664,-2.45 9.928,-3.675 15.793,-3.675c5.865,-0 11.114,1.225 15.738,3.675c4.624,2.45 8.252,5.85 10.868,10.199c2.625,4.349 3.937,9.285 3.937,14.807c-0,5.522 -1.312,10.458 -3.937,14.806c-2.616,4.349 -6.244,7.749 -10.868,10.199c-4.624,2.45 -9.873,3.676 -15.738,3.676Zm0,-13.254c4.142,0 7.541,-1.397 10.197,-4.193c2.656,-2.796 3.984,-6.54 3.984,-11.234c-0,-4.694 -1.328,-8.439 -3.984,-11.235c-2.656,-2.796 -6.055,-4.193 -10.197,-4.193c-4.142,-0 -7.556,1.397 -10.252,4.193c-2.695,2.796 -4.039,6.541 -4.039,11.235c0,4.694 1.344,8.438 4.039,11.234c2.696,2.796 6.11,4.193 10.252,4.193Z" style="fill-rule:nonzero;"/>
                    <path d="M1702.64,540.51c6.9,-0 12.481,2.071 16.725,6.212c4.245,4.142 6.363,10.286 6.363,18.43l0,31.892l-16.148,-0l-0,-29.407c-0,-4.417 -0.973,-7.714 -2.901,-9.888c-1.937,-2.174 -4.727,-3.261 -8.387,-3.261c-4.07,-0 -7.319,1.26 -9.73,3.779c-2.419,2.52 -3.628,6.264 -3.628,11.234l-0,27.543l-16.149,-0l0,-55.706l15.422,-0l-0,6.523c2.142,-2.347 4.798,-4.159 7.975,-5.436c3.178,-1.277 6.664,-1.915 10.458,-1.915Z" style="fill-rule:nonzero;"/>
                    <path d="M1171.78,654.509l-0,19.156l33.547,-0l0,13.46l-33.547,0l-0,26.404l-16.775,-0l0,-72.48l54.774,-0l0,13.46l-37.999,0Z" style="fill-rule:nonzero;"/>
                    <path d="M1240.94,656.994c8.628,0 15.255,2.054 19.879,6.161c4.626,4.107 6.938,10.303 6.938,18.586l0,31.788l-15.117,-0l0,-6.938c-3.038,5.178 -8.698,7.766 -16.981,7.766c-4.28,0 -7.99,-0.725 -11.131,-2.174c-3.14,-1.45 -5.539,-3.452 -7.196,-6.006c-1.657,-2.554 -2.485,-5.453 -2.485,-8.697c-0,-5.177 1.95,-9.25 5.85,-12.218c3.9,-2.969 9.923,-4.453 18.068,-4.453l12.84,0c-0,-3.52 -1.071,-6.23 -3.21,-8.128c-2.14,-1.898 -5.35,-2.848 -9.63,-2.848c-2.968,0 -5.884,0.467 -8.749,1.399c-2.864,0.932 -5.298,2.192 -7.299,3.779l-5.799,-11.286c3.037,-2.14 6.678,-3.796 10.924,-4.97c4.245,-1.174 8.611,-1.761 13.098,-1.761Zm-1.243,46.491c2.761,0 5.212,-0.638 7.351,-1.915c2.14,-1.277 3.659,-3.158 4.557,-5.643l-0,-5.695l-11.079,-0c-6.627,-0 -9.941,2.174 -9.941,6.523c0,2.071 0.811,3.71 2.434,4.918c1.622,1.208 3.848,1.812 6.678,1.812Z" style="fill-rule:nonzero;"/>
                    <path d="M1353.7,656.994c6.972,0 12.512,2.054 16.619,6.161c4.107,4.107 6.161,10.269 6.161,18.483l-0,31.891l-16.153,-0l0,-29.406c0,-4.418 -0.914,-7.714 -2.744,-9.888c-1.829,-2.175 -4.435,-3.263 -7.818,-3.263c-3.796,0 -6.799,1.226 -9.007,3.677c-2.21,2.45 -3.314,6.092 -3.314,10.924l0,27.956l-16.152,-0l-0,-29.406c-0,-8.767 -3.521,-13.151 -10.562,-13.151c-3.727,0 -6.695,1.226 -8.905,3.677c-2.208,2.45 -3.313,6.092 -3.313,10.924l-0,27.956l-16.153,-0l0,-55.706l15.428,-0l0,6.42c2.071,-2.347 4.608,-4.142 7.61,-5.385c3.003,-1.242 6.299,-1.864 9.889,-1.864c3.935,0 7.49,0.777 10.665,2.331c3.175,1.552 5.729,3.813 7.662,6.782c2.278,-2.9 5.16,-5.143 8.646,-6.731c3.485,-1.588 7.299,-2.382 11.441,-2.382Z" style="fill-rule:nonzero;"/>
                    <path d="M1390.98,657.823l16.153,-0l0,55.706l-16.153,-0l0,-55.706Zm8.077,-7.765c-2.969,-0 -5.384,-0.864 -7.248,-2.589c-1.864,-1.726 -2.796,-3.866 -2.796,-6.42c0,-2.554 0.932,-4.694 2.796,-6.42c1.864,-1.725 4.279,-2.588 7.248,-2.588c2.968,0 5.384,0.829 7.248,2.485c1.863,1.656 2.795,3.727 2.795,6.212c0,2.693 -0.932,4.918 -2.795,6.679c-1.864,1.76 -4.28,2.641 -7.248,2.641Z" style="fill-rule:nonzero;"/>
                    <rect x="1422.14" y="636.7" width="16.153" height="76.828"/>
                    <path d="M1508.6,657.823l-25.16,59.123c-2.554,6.419 -5.712,10.941 -9.474,13.564c-3.763,2.623 -8.301,3.934 -13.616,3.934c-2.9,0 -5.764,-0.448 -8.594,-1.346c-2.83,-0.897 -5.142,-2.14 -6.937,-3.727l5.902,-11.494c1.242,1.105 2.675,1.968 4.297,2.589c1.621,0.621 3.227,0.932 4.814,0.932c2.209,-0 4.004,-0.535 5.385,-1.605c1.38,-1.07 2.622,-2.847 3.727,-5.332l0.207,-0.518l-24.125,-56.12l16.67,-0l15.635,37.793l15.738,-37.793l15.531,-0Z" style="fill-rule:nonzero;"/>
                    <path d="M844.248,652.047c5.829,-6.907 9.343,-15.826 9.343,-25.559c0,-21.889 -17.77,-39.66 -39.659,-39.66c-21.889,-0 -39.659,17.771 -39.659,39.66c-0,9.633 3.442,18.468 9.162,25.342l-0.009,-0c25.287,30.439 22.106,44.454 5.474,69.035l0.003,0c-3.227,4.757 -5.112,10.495 -5.112,16.669c-0,16.416 13.328,29.744 29.745,29.744c16.416,0 29.744,-13.328 29.744,-29.744c0,-6.099 -1.839,-11.771 -4.993,-16.492l0.002,-0c-16.456,-24.7 -19.536,-38.737 5.967,-68.995l-0.008,0Zm72.799,40.87c19.7,-0 35.693,15.994 35.693,35.693c0,19.7 -15.993,35.694 -35.693,35.694c-19.7,-0 -35.694,-15.994 -35.694,-35.694c-0,-19.699 15.994,-35.693 35.694,-35.693Zm103.114,11.898c13.133,-0 23.796,10.662 23.796,23.795c0,13.134 -10.663,23.796 -23.796,23.796c-13.133,0 -23.795,-10.662 -23.795,-23.796c-0,-13.133 10.662,-23.795 23.795,-23.795Zm-25.559,-49.004c6.906,5.83 15.826,9.344 25.559,9.344c21.889,-0 39.66,-17.771 39.66,-39.659c-0,-21.889 -17.771,-39.66 -39.66,-39.66c-9.633,0 -18.468,3.443 -25.342,9.162l0,-0.008c-30.44,25.286 -44.454,22.106 -69.036,5.474l0,0.002c-4.757,-3.226 -10.494,-5.111 -16.668,-5.111c-16.417,-0 -29.744,13.328 -29.744,29.744c-0,16.416 13.327,29.745 29.744,29.745c6.099,-0 11.771,-1.84 16.492,-4.994l0,0.003c24.7,-16.456 38.737,-19.537 68.995,5.967l-0,-0.009Zm-51.995,-103.114c-6.907,5.829 -15.826,9.343 -25.56,9.343c-21.889,0 -39.66,-17.77 -39.66,-39.659c0,-21.889 17.771,-39.659 39.66,-39.659c9.633,-0 18.469,3.442 25.343,9.162l-0,-0.009c30.438,25.288 44.454,22.106 69.035,5.474l-0,0.003c4.756,-3.227 10.494,-5.112 16.668,-5.112c16.417,0 29.745,13.328 29.745,29.744c0,16.417 -13.328,29.745 -29.745,29.745c-6.099,0 -11.771,-1.839 -16.491,-4.993l-0,0.002c-24.701,-16.456 -38.737,-19.536 -68.995,5.967l-0,-0.008Zm-128.675,-54.111c13.133,-0 23.796,10.662 23.796,23.795c-0,13.133 -10.663,23.796 -23.796,23.796c-13.133,0 -23.796,-10.663 -23.796,-23.796c0,-13.133 10.663,-23.795 23.796,-23.795Z"/>
                </g>
            </g>
        </g>
    </g>
</svg>
