<?xml version="1.0" encoding="UTF-8" standalone="no"?>
<!DOCTYPE svg PUBLIC "-//W3C//DTD SVG 1.1//EN" "http://www.w3.org/Graphics/SVG/1.1/DTD/svg11.dtd">
<svg width="100%" height="100%" viewBox="0 0 2500 1250" version="1.1" xmlns="http://www.w3.org/2000/svg" xmlns:xlink="http://www.w3.org/1999/xlink" xml:space="preserve" xmlns:serif="http://www.serif.com/" style="fill-rule:evenodd;clip-rule:evenodd;stroke-linejoin:round;stroke-miterlimit:2;">
    <rect id="logo-persi" x="0" y="0" width="2500" height="1250" style="fill:none;"/>
    <g>
        <path d="M963.541,608.477l-0,-32.884c-0,-5.077 -4.036,-9.191 -9.009,-9.191l-96.845,-0c-4.979,-0 -9.009,4.114 -9.009,9.191l-0,32.884c-0,1.403 -1.009,2.542 -2.252,2.542l-25.473,0c-1.403,0 -2.542,-1.139 -2.542,-2.542l-0,-40.672c-0,-16.848 13.655,-30.504 30.504,-30.504l114.389,0c16.849,0 30.504,13.656 30.504,30.504l0,40.672c0,1.403 -1.139,2.542 -2.542,2.542l-25.473,0c-1.243,0 -2.252,-1.139 -2.252,-2.542Zm30.267,73.718c0,16.848 -13.655,30.504 -30.504,30.504l-114.389,-0c-16.849,-0 -30.504,-13.656 -30.504,-30.504l-0,-40.672c-0,-1.407 1.139,-2.542 2.542,-2.542l25.473,-0c1.243,-0 2.252,1.135 2.252,2.542l-0,32.884c-0,5.077 4.03,9.191 9.009,9.191l96.845,0c4.973,0 9.009,-4.114 9.009,-9.191l-0,-32.884c-0,-1.407 1.009,-2.542 2.252,-2.542l25.473,-0c1.403,-0 2.542,1.135 2.542,2.542l0,40.672Zm-19.065,-184.295l-137.267,0c-32.294,0 -58.466,26.176 -58.466,58.466l-0,137.268c-0,32.29 26.172,58.466 58.466,58.466l137.267,-0c32.287,-0 58.466,-26.176 58.466,-58.466l-0,-137.268c-0,-32.29 -26.179,-58.466 -58.466,-58.466Z" style="fill-rule:nonzero;"/>
        <path d="M1351.65,584.016l-87.688,0c-2.067,0 -3.745,1.678 -3.745,3.749l-0,23.254c-0,2.071 1.678,3.749 3.745,3.749l69.159,-0c2.071,-0 3.749,1.677 3.749,3.748l-0,16.255c-0,2.071 -1.678,3.749 -3.749,3.749l-69.159,-0c-2.067,-0 -3.745,1.678 -3.745,3.749l-0,20.051c-0,2.071 1.678,3.748 3.745,3.748l87.688,0c2.071,0 3.749,1.678 3.749,3.749l0,16.255c0,2.071 -1.678,3.749 -3.749,3.749l-111.617,-0c-2.074,-0 -3.752,-1.678 -3.752,-3.749l0,-122.056c0,-2.071 1.678,-3.749 3.752,-3.749l111.617,0c2.071,0 3.749,1.678 3.749,3.749l0,16.252c0,2.071 -1.678,3.748 -3.749,3.748Z" style="fill-rule:nonzero;"/>
        <path d="M1484.44,615.232c2.067,-0 3.745,-1.678 3.745,-3.749l0,-23.538c0,-2.068 -1.678,-3.749 -3.745,-3.749l-74.375,-0c-2.071,-0 -3.749,1.681 -3.749,3.749l0,23.538c0,2.071 1.678,3.749 3.749,3.749l74.375,-0Zm27.643,68.43c2.051,2.437 0.315,6.159 -2.867,6.159l-21.265,-0c-1.108,-0 -2.159,-0.488 -2.871,-1.336l-35.177,-48.169c-0.712,-0.847 -1.763,-1.335 -2.868,-1.335l-36.97,-0c-2.071,-0 -3.749,1.678 -3.749,3.749l0,43.342c0,2.071 -1.678,3.749 -3.749,3.749l-16.255,-0c-2.074,-0 -3.752,-1.678 -3.752,-3.749l0,-121.876c0,-2.071 1.678,-3.749 3.752,-3.749l100.616,0c13.852,0 25.192,11.337 25.192,25.01l0,28.514c0,13.676 -11.34,25.01 -25.192,25.01l-7.023,-0l32.178,44.681Z" style="fill-rule:nonzero;"/>
        <path d="M1700.99,560.267l16.248,0c2.071,0 3.749,1.678 3.749,3.749l0,122.056c0,2.071 -1.678,3.749 -3.749,3.749l-16.248,-0c-2.074,-0 -3.752,-1.678 -3.752,-3.749l0,-122.056c0,-2.071 1.678,-3.749 3.752,-3.749Z" style="fill-rule:nonzero;"/>
        <path d="M1190.24,611.483c-0,2.071 -1.678,3.749 -3.749,3.749l-74.375,-0c-2.071,-0 -3.749,-1.678 -3.749,-3.749l0,-23.538c0,-2.068 1.678,-3.749 3.749,-3.749l74.375,-0c2.071,-0 3.749,1.681 3.749,3.749l-0,23.538Zm-81.873,31.247c0,-2.071 1.678,-3.749 3.749,-3.749l76.863,-0c13.852,-0 25.189,-11.334 25.189,-25.006l0,-28.518c0,-13.673 -11.337,-25.01 -25.189,-25.01l-100.612,0c-2.075,0 -3.752,1.678 -3.752,3.749l-0,121.876c-0,2.071 1.677,3.749 3.752,3.749l16.252,-0c2.07,-0 3.748,-1.678 3.748,-3.749l0,-43.342Z" style="fill-rule:nonzero;"/>
        <path d="M1643.9,614.768l-77.046,-0c-2.071,-0 -3.745,-1.681 -3.745,-3.749l0,-23.342c0,-2.071 1.674,-3.749 3.745,-3.749l94.559,0c2.071,0 3.749,-1.677 3.749,-3.748l-0,-16.252c-0,-2.071 -1.678,-3.749 -3.749,-3.749l-97.05,0c-13.811,0 -25.01,11.199 -25.01,25.01l0,28.318c0,13.815 11.199,25.013 25.014,25.013l76.958,-0c1.952,0.02 3.504,1.542 3.653,3.46l0,20.601c-0.142,1.813 -1.545,3.23 -3.352,3.399l-94.775,0c-2.068,0 -3.749,1.678 -3.749,3.749l0,16.258c0,2.068 1.681,3.746 3.749,3.746l97.049,-0c13.673,-0 25.01,-11.158 25.01,-25.014l0,-24.942c0,-13.855 -11.337,-25.009 -25.01,-25.009Z" style="fill-rule:nonzero;"/>
    </g>
</svg>
