<?xml version="1.0" encoding="UTF-8" standalone="no"?>
<!DOCTYPE svg PUBLIC "-//W3C//DTD SVG 1.1//EN" "http://www.w3.org/Graphics/SVG/1.1/DTD/svg11.dtd">
<svg width="100%" height="100%" viewBox="0 0 2500 1250" version="1.1" xmlns="http://www.w3.org/2000/svg" xmlns:xlink="http://www.w3.org/1999/xlink" xml:space="preserve" xmlns:serif="http://www.serif.com/" style="fill-rule:evenodd;clip-rule:evenodd;stroke-linejoin:round;stroke-miterlimit:2;">
    <rect id="logo-franco" x="0" y="0" width="2500" height="1250" style="fill:none;"/>
    <g>
        <path d="M850.824,718.463c-10.091,-10.092 -26.454,-10.092 -36.546,-0c-0.001,0.001 -0.002,0.003 -0.004,0.004c-10.092,10.092 -10.092,26.454 0,36.546c0.001,0.001 0.002,0.001 0.002,0.002c4.847,4.847 11.421,7.57 18.275,7.57c6.855,-0 13.429,-2.723 18.276,-7.57c-0,0 -0,0 -0,0c10.093,-10.093 10.093,-26.457 -0,-36.55c-0.001,-0.001 -0.002,-0.002 -0.003,-0.002Zm-3.897,-107.616c-4.299,-4.299 -10.13,-6.714 -16.21,-6.714c-6.079,-0 -11.91,2.415 -16.209,6.714c-16.483,16.483 -41.878,41.878 -58.362,58.362c-4.299,4.299 -6.714,10.129 -6.714,16.209c0,6.08 2.415,11.911 6.714,16.21c0.001,0 0.002,0.001 0.003,0.002c4.299,4.299 10.13,6.714 16.21,6.714c6.079,0 11.91,-2.415 16.209,-6.714c16.483,-16.483 41.878,-41.878 58.362,-58.361c4.299,-4.299 6.714,-10.13 6.714,-16.21c-0,-6.08 -2.415,-11.91 -6.714,-16.209c-0.001,-0.001 -0.002,-0.002 -0.003,-0.003Zm60.15,24.41c2.174,-2.174 3.396,-5.123 3.396,-8.198c-0,-3.074 -1.222,-6.023 -3.396,-8.197c-11.373,-11.373 -30.555,-30.556 -30.555,-30.556c-8.232,-8.232 -8.232,-21.578 -0,-29.81c-0,0 -0,0 -0,0c8.232,-8.232 21.578,-8.232 29.81,0l53.659,53.659c8.231,8.232 8.231,21.577 -0,29.808c-15.155,15.155 -38.505,38.505 -53.66,53.66c-8.232,8.232 -21.577,8.232 -29.808,0c-0,0 -0.001,-0 -0.001,-0.001c-8.232,-8.232 -8.232,-21.578 -0,-29.81c-0,0 19.182,-19.182 30.555,-30.555Zm703.778,56.014c-12.982,-0 -24.678,-2.72 -35.088,-8.158c-10.409,-5.439 -18.567,-13.041 -24.474,-22.808c-5.906,-9.766 -8.859,-20.848 -8.859,-33.245c-0,-12.398 2.953,-23.48 8.859,-33.246c5.907,-9.766 14.065,-17.369 24.474,-22.807c10.41,-5.439 22.106,-8.158 35.088,-8.158c11.93,-0 22.573,2.105 31.93,6.315c9.357,4.211 17.076,10.293 23.158,18.246l-26.14,23.334c-7.603,-9.591 -16.55,-14.386 -26.843,-14.386c-8.655,-0 -15.614,2.777 -20.877,8.333c-5.263,5.556 -7.895,13.012 -7.895,22.369c0,9.356 2.632,16.813 7.895,22.368c5.263,5.556 12.222,8.334 20.877,8.334c10.293,-0 19.24,-4.796 26.843,-14.387l26.14,23.334c-6.082,7.953 -13.801,14.035 -23.158,18.246c-9.357,4.21 -20,6.316 -31.93,6.316Zm128.773,-0c-13.217,-0 -25.088,-2.749 -35.614,-8.246c-10.527,-5.497 -18.772,-13.129 -24.737,-22.895c-5.965,-9.766 -8.948,-20.79 -8.948,-33.07c0,-12.281 2.983,-23.305 8.948,-33.071c5.965,-9.766 14.21,-17.398 24.737,-22.895c10.526,-5.497 22.397,-8.245 35.614,-8.245c13.216,-0 25.088,2.748 35.614,8.245c10.527,5.497 18.772,13.129 24.737,22.895c5.965,9.766 8.948,20.79 8.948,33.071c-0,12.28 -2.983,23.304 -8.948,33.07c-5.965,9.766 -14.21,17.398 -24.737,22.895c-10.526,5.497 -22.398,8.246 -35.614,8.246Zm-677.022,-2.808l-41.404,0l0,-122.807l99.825,-0l0,31.228l-58.421,-0l0,21.053l51.228,-0l0,31.228l-51.228,-0l0,39.298Zm231.054,0l-85.965,0l-20.878,-30.877l-11.228,0l0,30.877l-41.404,0l0,-122.807l59.124,-0c11.345,-0 21.228,1.871 29.649,5.614c8.421,3.742 14.912,9.123 19.474,16.14c4.561,7.018 6.842,15.205 6.842,24.562c-0,8.772 -1.988,16.433 -5.965,22.982c-3.977,6.55 -9.708,11.755 -17.193,15.615l25.576,37.581l53.547,-122.494l40.702,-0l53.685,122.807l-42.808,0l-8.245,-21.403l-46.667,-0l-8.246,21.403Zm152.984,0l-40.352,0l0,-122.807l34.036,-0l46.667,55.79l-0,-55.79l40.351,-0l-0,122.807l-34.035,0l-46.667,-55.789l-0,55.789Zm292.984,-30.701c5.146,-0 9.795,-1.258 13.947,-3.772c4.152,-2.515 7.457,-6.082 9.913,-10.702c2.456,-4.62 3.684,-10.03 3.684,-16.228c-0,-6.199 -1.228,-11.609 -3.684,-16.229c-2.456,-4.62 -5.761,-8.187 -9.913,-10.701c-4.152,-2.515 -8.801,-3.772 -13.947,-3.772c-5.146,-0 -9.795,1.257 -13.948,3.772c-4.152,2.514 -7.456,6.081 -9.912,10.701c-2.456,4.62 -3.684,10.03 -3.684,16.229c-0,6.198 1.228,11.608 3.684,16.228c2.456,4.62 5.76,8.187 9.912,10.702c4.153,2.514 8.802,3.772 13.948,3.772Zm-892.701,-163.633c-8.952,-8.952 -23.467,-8.952 -32.419,0c-28.68,28.68 -88.04,88.041 -116.72,116.721c-8.953,8.952 -8.953,23.466 -0,32.419c0,0.001 0.001,0.001 0.002,0.002c8.952,8.953 23.467,8.953 32.419,0c28.68,-28.68 88.041,-88.04 116.721,-116.72c8.952,-8.952 8.952,-23.467 -0,-32.419c-0.001,-0.001 -0.002,-0.002 -0.003,-0.003Zm490.242,143.106l-11.93,-30.877l-11.93,30.877l23.86,0Zm-129.65,-25.263c0,-4.562 -1.403,-8.1 -4.21,-10.614c-2.807,-2.515 -7.018,-3.772 -12.632,-3.772l-15.088,-0l0,28.772l15.088,-0c5.614,-0 9.825,-1.257 12.632,-3.772c2.807,-2.515 4.21,-6.053 4.21,-10.614Z" style="fill-rule:nonzero;"/>
    </g>
</svg>
