<?xml version="1.0" encoding="UTF-8" standalone="no"?>
<!DOCTYPE svg PUBLIC "-//W3C//DTD SVG 1.1//EN" "http://www.w3.org/Graphics/SVG/1.1/DTD/svg11.dtd">
<svg width="100%" height="100%" viewBox="0 0 2500 1250" version="1.1" xmlns="http://www.w3.org/2000/svg" xmlns:xlink="http://www.w3.org/1999/xlink" xml:space="preserve" xmlns:serif="http://www.serif.com/" style="fill-rule:evenodd;clip-rule:evenodd;stroke-linejoin:round;stroke-miterlimit:2;">
    <rect id="logo-living-mirror" x="0" y="0" width="2500" height="1250" style="fill:none;"/>
    <g id="logo-living-mirror1" serif:id="logo-living-mirror">
        <g>
            <path d="M1447.91,635.327c-35.261,-0 -74.112,27.736 -86.599,62.044c-6.874,18.887 -4.692,35.961 3.532,48.349c8.357,12.59 23.175,20.833 42.901,20.833c35.261,0 74.112,-27.735 86.599,-62.044c6.874,-18.886 4.692,-35.961 -3.531,-48.349c-8.357,-12.59 -23.176,-20.833 -42.902,-20.833Zm-404.556,1.777l23.71,0l-0,127.672l-23.71,-0l-0,-127.672Zm141.715,127.672l-26.082,-37.39c-1.094,0.122 -2.735,0.183 -4.924,0.183l-28.817,-0l-0,37.207l-23.711,-0l0,-127.672l52.528,0c11.065,0 20.701,1.824 28.908,5.472c8.208,3.648 14.5,8.876 18.878,15.685c4.377,6.81 6.566,14.895 6.566,24.258c-0,9.606 -2.341,17.874 -7.022,24.805c-4.682,6.931 -11.4,12.098 -20.154,15.503l29.364,41.949l-25.534,-0Zm133.325,-0l-26.081,-37.39c-1.094,0.122 -2.736,0.183 -4.924,0.183l-28.818,-0l0,37.207l-23.71,-0l-0,-127.672l52.528,0c11.064,0 20.701,1.824 28.908,5.472c8.207,3.648 14.5,8.876 18.877,15.685c4.377,6.81 6.566,14.895 6.566,24.258c0,9.606 -2.341,17.874 -7.022,24.805c-4.681,6.931 -11.399,12.098 -20.154,15.503l29.365,41.949l-25.535,-0Zm286.897,-0l-26.082,-37.39c-1.094,0.122 -2.736,0.183 -4.924,0.183l-28.818,-0l0,37.207l-23.71,-0l-0,-127.672l52.528,0c11.065,0 20.701,1.824 28.908,5.472c8.208,3.648 14.5,8.876 18.877,15.685c4.378,6.81 6.566,14.895 6.566,24.258c0,9.606 -2.34,17.874 -7.022,24.805c-4.681,6.931 -11.399,12.098 -20.154,15.503l29.365,41.949l-25.534,-0Zm-618.843,-0l-0.182,-84.628l-41.949,70.037l-10.579,-0l-41.949,-68.943l0,83.534l-22.616,-0l0,-127.672l19.516,0l50.703,84.628l49.792,-84.628l19.516,0l0.182,127.672l-22.434,-0Zm461.462,-108.577c11.576,-0 20.608,4.116 25.512,11.504c5.038,7.589 5.519,18.098 1.308,29.668c-9.681,26.598 -39.649,48.311 -66.986,48.311c-11.575,-0 -20.608,-4.117 -25.512,-11.505c-5.038,-7.588 -5.519,-18.098 -1.308,-29.668c9.681,-26.598 39.649,-48.31 66.986,-48.31Zm-263.388,26.32c-0,-8.147 -2.675,-14.409 -8.025,-18.786c-5.35,-4.377 -13.193,-6.566 -23.528,-6.566l-27.723,0l-0,50.886l27.723,0c10.335,0 18.178,-2.219 23.528,-6.657c5.35,-4.438 8.025,-10.73 8.025,-18.877Zm133.325,0c0,-8.147 -2.675,-14.409 -8.025,-18.786c-5.35,-4.377 -13.192,-6.566 -23.528,-6.566l-27.723,0l0,50.886l27.723,0c10.336,0 18.178,-2.219 23.528,-6.657c5.35,-4.438 8.025,-10.73 8.025,-18.877Zm286.896,0c0,-8.147 -2.675,-14.409 -8.025,-18.786c-5.35,-4.377 -13.192,-6.566 -23.528,-6.566l-27.723,0l0,50.886l27.723,0c10.336,0 18.178,-2.219 23.528,-6.657c5.35,-4.438 8.025,-10.73 8.025,-18.877Zm-3.283,-147.372l22.434,0l0,50.886c-6.566,5.229 -14.226,9.241 -22.981,12.038c-8.754,2.797 -17.752,4.195 -26.993,4.195c-13.01,-0 -24.744,-2.827 -35.201,-8.481c-10.457,-5.654 -18.664,-13.466 -24.622,-23.437c-5.958,-9.971 -8.937,-21.218 -8.937,-33.742c-0,-12.524 2.979,-23.771 8.937,-33.742c5.958,-9.97 14.196,-17.782 24.713,-23.436c10.518,-5.654 22.343,-8.481 35.475,-8.481c10.7,-0 20.427,1.763 29.182,5.289c8.754,3.526 16.111,8.694 22.069,15.503l-14.956,14.591c-9.727,-9.728 -21.461,-14.591 -35.201,-14.591c-8.998,-0 -16.992,1.884 -23.984,5.654c-6.992,3.769 -12.463,9.058 -16.415,15.868c-3.952,6.809 -5.928,14.591 -5.928,23.345c0,8.512 1.976,16.172 5.928,22.981c3.952,6.809 9.423,12.159 16.415,16.05c6.992,3.891 14.925,5.837 23.802,5.837c9.97,-0 18.725,-2.189 26.263,-6.566l0,-39.761Zm-589.842,-62.377l23.71,0l0,107.609l66.754,0l0,20.063l-90.464,-0l0,-127.672Zm109.25,0l23.711,0l-0,127.672l-23.711,-0l0,-127.672Zm187.495,0l23.711,0l-0,127.672l-23.711,-0l0,-127.672Zm171.627,0l0,127.672l-19.515,-0l-70.402,-86.452l-0,86.452l-23.528,-0l-0,-127.672l19.515,0l70.402,86.452l0,-86.452l23.528,0Zm-185.124,0l-55.628,127.672l-23.346,-0l-55.81,-127.672l25.716,0l42.497,98.49l42.861,-98.49l23.71,0Z" style="fill-rule:nonzero;"/>
        </g>
    </g>
</svg>
