<?xml version="1.0" encoding="UTF-8" standalone="no"?>
<!DOCTYPE svg PUBLIC "-//W3C//DTD SVG 1.1//EN" "http://www.w3.org/Graphics/SVG/1.1/DTD/svg11.dtd">
<svg width="100%" height="100%" viewBox="0 0 600 300" version="1.1" xmlns="http://www.w3.org/2000/svg" xmlns:xlink="http://www.w3.org/1999/xlink" xml:space="preserve" xmlns:serif="http://www.serif.com/" style="fill-rule:evenodd;clip-rule:evenodd;stroke-linejoin:round;stroke-miterlimit:2;">
    <g transform="matrix(1,0,0,1,-3900,0)">
        <g id="logo-jtbsi" transform="matrix(1,0,0,0.5,0,0)">
            <rect x="3900" y="0" width="600" height="600" style="fill:none;"/>
            <g transform="matrix(0.678955,0,0,17.0485,3635.23,-1338.06)">
                <g transform="matrix(1.31826,0,0,0.104999,660.56,100.465)">
                    <path d="M21.752,6.715C18.359,6.715 15.599,9.475 15.599,12.867C15.599,16.259 18.359,19.021 21.752,19.021C25.144,19.021 27.904,16.259 27.904,12.867C27.904,9.475 25.144,6.715 21.752,6.715ZM21.752,25.439C14.819,25.439 9.179,19.799 9.179,12.867C9.179,5.935 14.819,0.296 21.752,0.296C28.683,0.296 34.323,5.935 34.323,12.867C34.323,19.799 28.683,25.439 21.752,25.439Z" style="fill-rule:nonzero;"/>
                </g>
                <g transform="matrix(1.31826,0,0,0.104999,660.56,77.5281)">
                    <path d="M95.739,115.94C92.347,115.94 89.587,118.7 89.587,122.093C89.587,125.485 92.347,128.245 95.739,128.245C99.132,128.245 101.893,125.485 101.893,122.093C101.893,118.7 99.132,115.94 95.739,115.94ZM95.739,134.664C88.808,134.664 83.168,129.025 83.168,122.093C83.168,115.161 88.808,109.521 95.739,109.521C102.672,109.521 108.312,115.161 108.312,122.093C108.312,129.025 102.672,134.664 95.739,134.664Z" style="fill-rule:nonzero;"/>
                </g>
                <g transform="matrix(1.31826,0,0,0.104999,660.56,85.6327)">
                    <path d="M29.608,107.852L26.447,113.328C26.301,113.579 26.301,113.888 26.447,114.139L34.278,127.703C34.435,127.973 34.239,128.311 33.927,128.311L9.577,128.311C9.264,128.311 9.069,127.973 9.225,127.703L11.905,123.061L14.806,118.037L21.752,106.006L34.278,84.31L64.003,32.807C64.159,32.536 63.964,32.198 63.652,32.198L57.331,32.198C57.041,32.198 56.774,32.353 56.628,32.604L38.376,64.236L34.63,70.725L22.103,92.421C21.947,92.691 21.556,92.691 21.4,92.421L15.688,82.528L9.225,71.333C9.069,71.062 9.264,70.725 9.577,70.725L25.239,70.725C25.529,70.725 25.797,70.57 25.941,70.319L29.102,64.844C29.258,64.574 29.063,64.236 28.751,64.236L3.369,64.236C2.552,64.236 1.735,64.489 1.124,65.03C-0.082,66.098 -0.309,67.798 0.445,69.102L9.845,85.384L17.771,99.112C17.916,99.363 17.916,99.672 17.771,99.923L0.445,129.934C-0.309,131.238 -0.082,132.938 1.124,134.005C1.735,134.547 2.552,134.8 3.369,134.8L40.135,134.8C40.951,134.8 41.768,134.547 42.38,134.005C43.586,132.938 43.813,131.238 43.059,129.934L30.311,107.852C30.154,107.582 29.763,107.582 29.608,107.852Z" style="fill-rule:nonzero;"/>
                </g>
                <g transform="matrix(1.31826,0,0,0.104999,660.56,92.3606)">
                    <path d="M87.884,27.108L91.045,21.632C91.19,21.381 91.19,21.072 91.045,20.821L83.213,7.257C83.058,6.987 83.252,6.649 83.565,6.649L107.915,6.649C108.227,6.649 108.422,6.987 108.266,7.257L105.586,11.899L102.685,16.923L95.739,28.954L83.213,50.65L53.488,102.153C53.332,102.424 53.527,102.762 53.839,102.762L60.16,102.762C60.45,102.762 60.718,102.607 60.862,102.356L79.116,70.724L82.862,64.235L95.389,42.539C95.545,42.269 95.935,42.269 96.091,42.539L101.803,52.432L108.266,63.627C108.422,63.898 108.227,64.235 107.915,64.235L92.252,64.235C91.963,64.235 91.694,64.39 91.55,64.641L88.389,70.116C88.233,70.386 88.428,70.724 88.74,70.724L114.122,70.724C114.94,70.724 115.756,70.471 116.367,69.93C117.574,68.862 117.8,67.162 117.046,65.858L107.646,49.576L99.721,35.848C99.575,35.597 99.575,35.288 99.721,35.037L117.046,5.026C117.8,3.722 117.574,2.022 116.367,0.955C115.756,0.413 114.94,0.16 114.122,0.16L77.357,0.16C76.54,0.16 75.724,0.413 75.111,0.955C73.905,2.022 73.679,3.722 74.433,5.026L87.181,27.108C87.337,27.378 87.728,27.378 87.884,27.108Z" style="fill-rule:nonzero;"/>
                </g>
                <g transform="matrix(0,-0.104999,-1.31826,0,826.958,102.25)">
                    <ellipse cx="58.746" cy="67.48" rx="12.572" ry="12.572"/>
                </g>
                <g transform="matrix(1.31826,0,0,0.104999,660.56,83.3585)">
                    <path d="M140.864,101.49L141.716,98.778C142.164,99.016 142.561,99.137 142.904,99.137C143.652,99.137 144.025,98.673 144.025,97.746L144.025,86.695L147.164,86.695L147.164,98.015C147.164,99.226 146.81,100.186 146.1,100.895C145.389,101.607 144.437,101.962 143.241,101.962C142.373,101.962 141.581,101.803 140.864,101.49Z" style="fill-rule:nonzero;"/>
                </g>
                <g transform="matrix(1.31826,0,0,0.104999,660.56,83.3537)">
                    <path d="M153.234,101.178C152.292,100.655 151.564,99.918 151.048,98.969C150.532,98.02 150.275,96.926 150.275,95.685L150.275,86.741L153.548,86.741L153.548,95.438C153.548,96.545 153.813,97.423 154.344,98.073C154.874,98.722 155.595,99.048 156.507,99.048C157.418,99.048 158.143,98.722 158.681,98.073C159.22,97.423 159.488,96.545 159.488,95.438L159.488,86.741L162.738,86.741L162.738,95.685C162.738,96.926 162.482,98.02 161.965,98.969C161.45,99.918 160.721,100.655 159.779,101.178C158.838,101.7 157.747,101.962 156.507,101.962C155.266,101.962 154.176,101.7 153.234,101.178Z" style="fill-rule:nonzero;"/>
                </g>
                <g transform="matrix(1.31826,0,0,0.104999,660.56,83.323)">
                    <path d="M170.562,99.138C172.071,99.138 173.26,98.697 174.126,97.815C174.992,96.934 175.427,95.724 175.427,94.184C175.427,92.795 175.056,91.725 174.316,90.979C173.576,90.231 172.512,89.858 171.122,89.858L169.105,89.858L169.105,99.138L170.562,99.138ZM165.855,101.962L165.855,87.033C166.497,87.019 167.445,87.011 168.701,87.011C169.971,87.011 170.921,87.019 171.548,87.033C173.013,87.049 174.286,87.344 175.369,87.919C176.453,88.494 177.289,89.313 177.881,90.372C178.472,91.434 178.766,92.674 178.766,94.094C178.766,95.649 178.426,97.016 177.746,98.197C177.066,99.377 176.109,100.296 174.877,100.953C173.645,101.612 172.212,101.948 170.584,101.962C170.062,101.978 169.276,101.984 168.23,101.984C167.169,101.984 166.377,101.978 165.855,101.962Z" style="fill-rule:nonzero;"/>
                </g>
                <g transform="matrix(1.31826,0,0,0.104999,660.56,83.3349)">
                    <path d="M190.818,97.971C191.56,97.09 191.929,95.917 191.929,94.453C191.929,93.496 191.761,92.647 191.425,91.907C191.089,91.169 190.61,90.6 189.989,90.204C189.37,89.808 188.663,89.61 187.87,89.61C187.079,89.61 186.373,89.808 185.754,90.204C185.133,90.6 184.655,91.169 184.318,91.907C183.983,92.647 183.815,93.496 183.815,94.453C183.815,95.408 183.983,96.252 184.318,96.986C184.655,97.717 185.13,98.285 185.742,98.689C186.355,99.093 187.066,99.294 187.87,99.294C189.097,99.294 190.08,98.854 190.818,97.971ZM183.993,101.177C182.873,100.534 182.002,99.63 181.382,98.465C180.762,97.299 180.451,95.963 180.451,94.453C180.451,92.927 180.758,91.582 181.371,90.416C181.983,89.252 182.85,88.347 183.972,87.704C185.092,87.063 186.391,86.741 187.87,86.741C189.335,86.741 190.629,87.058 191.749,87.693C192.871,88.328 193.737,89.222 194.35,90.372C194.962,91.524 195.27,92.853 195.27,94.362C195.27,95.902 194.962,97.258 194.35,98.43C193.737,99.604 192.871,100.515 191.749,101.166C190.629,101.816 189.335,102.141 187.87,102.141C186.407,102.141 185.114,101.819 183.993,101.177Z" style="fill-rule:nonzero;"/>
                </g>
                <g transform="matrix(1.31826,0,0,0.104999,660.56,83.323)">
                    <path d="M205.401,89.858L201.321,89.858L201.321,87.033L212.709,87.033L212.709,89.858L208.675,89.858L208.675,101.962L205.401,101.962L205.401,89.858Z" style="fill-rule:nonzero;"/>
                </g>
                <g transform="matrix(1.31826,0,0,0.104999,660.56,83.323)">
                    <path d="M214.614,87.033L223.693,87.033L223.693,89.858L217.819,89.858L217.819,92.839L222.685,92.839L222.685,95.573L217.819,95.573L217.819,99.138L223.693,99.138L223.693,101.962L214.614,101.962L214.614,87.033Z" style="fill-rule:nonzero;"/>
                </g>
                <g transform="matrix(1.31826,0,0,0.104999,660.56,83.323)">
                    <path d="M234.553,95.776L232.536,90.059L230.586,95.776L234.553,95.776ZM230.653,87.033L234.553,87.033L240.091,101.962L236.728,101.962L235.518,98.555L229.644,98.555L228.501,101.962L225.183,101.962L230.653,87.033Z" style="fill-rule:nonzero;"/>
                </g>
                <g transform="matrix(1.31826,0,0,0.104999,660.56,83.3655)">
                    <path d="M245.305,91.024L244.362,101.558L241.471,101.558L242.883,86.629L246.918,86.629L250.729,97.344L254.428,86.629L258.462,86.629L259.829,101.558L256.916,101.558L255.885,91.068L251.939,101.715L249.273,101.962L245.305,91.024Z" style="fill-rule:nonzero;"/>
                </g>
                <g transform="matrix(1.31826,0,0,0.104999,660.56,88.972)">
                    <path d="M147.275,72.574C148.083,72.574 148.714,72.387 149.17,72.013C149.626,71.641 149.854,71.138 149.854,70.511C149.854,69.944 149.659,69.502 149.271,69.188C148.882,68.875 148.322,68.718 147.59,68.718L145.841,68.718L145.841,72.574L147.275,72.574ZM146.962,66.207C147.709,66.207 148.288,66.036 148.699,65.692C149.11,65.348 149.316,64.87 149.316,64.257C149.316,63.151 148.628,62.598 147.254,62.598L145.841,62.598L145.841,66.207L146.962,66.207ZM142.726,60.133L147.724,60.133C149.174,60.133 150.32,60.48 151.165,61.176C152.009,61.87 152.432,62.816 152.432,64.011C152.432,65.371 151.841,66.418 150.66,67.15C152.231,67.777 153.015,68.882 153.015,70.467C153.015,71.363 152.79,72.159 152.342,72.854C151.894,73.549 151.27,74.091 150.47,74.479C149.67,74.867 148.771,75.062 147.77,75.062L142.726,75.062L142.726,60.133Z" style="fill-rule:nonzero;"/>
                </g>
                <g transform="matrix(1.31826,0,0,0.104999,660.56,88.1694)">
                    <path d="M154.816,73.606C155.488,72.753 155.944,72.013 156.184,71.386L154.884,69.436C154.884,69.092 154.977,68.752 155.164,68.416C155.351,68.08 155.615,67.808 155.959,67.597C156.303,67.388 156.691,67.283 157.125,67.283C157.768,67.283 158.314,67.511 158.762,67.967C159.21,68.424 159.434,69.002 159.434,69.704C159.434,70.526 159.106,71.461 158.448,72.506C157.79,73.553 156.759,74.568 155.354,75.556L154.816,73.606Z" style="fill-rule:nonzero;"/>
                </g>
                <g transform="matrix(1.31826,0,0,0.104999,660.56,88.1694)">
                    <path d="M161.306,73.606C161.979,72.753 162.435,72.013 162.674,71.386L161.374,69.436C161.374,69.092 161.467,68.752 161.653,68.416C161.84,68.08 162.106,67.808 162.449,67.597C162.793,67.388 163.182,67.283 163.615,67.283C164.257,67.283 164.804,67.511 165.252,67.967C165.7,68.424 165.923,69.002 165.923,69.704C165.923,70.526 165.596,71.461 164.938,72.506C164.28,73.553 163.248,74.568 161.844,75.556L161.306,73.606Z" style="fill-rule:nonzero;"/>
                </g>
                <g transform="matrix(1.31826,0,0,0.104999,660.56,88.9721)">
                    <path d="M169.919,75.061C169.135,74.866 168.458,74.605 167.89,74.276L168.158,71.272C168.831,71.692 169.537,72.017 170.276,72.248C171.017,72.479 171.7,72.595 172.328,72.595C173.046,72.595 173.629,72.446 174.077,72.147C174.525,71.849 174.749,71.453 174.749,70.959C174.749,70.554 174.6,70.246 174.3,70.028C174.002,69.812 173.53,69.577 172.889,69.322L172.351,69.099L172.104,68.997C172.015,68.961 171.91,68.92 171.79,68.874C170.953,68.53 170.28,68.205 169.773,67.9C169.265,67.592 168.827,67.163 168.461,66.61C168.095,66.057 167.912,65.339 167.912,64.459C167.912,63.024 168.398,61.896 169.369,61.073C170.34,60.251 171.692,59.841 173.427,59.841C174.741,59.841 176.086,60.109 177.461,60.647L176.968,63.607C176.415,63.293 175.821,63.046 175.186,62.867C174.551,62.688 173.949,62.597 173.382,62.597C172.679,62.597 172.133,62.735 171.745,63.012C171.357,63.29 171.162,63.659 171.162,64.121C171.162,64.525 171.297,64.839 171.566,65.064C171.835,65.287 172.268,65.527 172.866,65.78L173.785,66.139C174.652,66.467 175.369,66.789 175.937,67.103C176.505,67.416 176.991,67.869 177.395,68.459C177.798,69.049 177.999,69.816 177.999,70.757C177.999,72.207 177.507,73.335 176.52,74.143C175.533,74.949 174.158,75.353 172.396,75.353C171.528,75.353 170.703,75.255 169.919,75.061Z" style="fill-rule:nonzero;"/>
                </g>
                <g transform="matrix(1.31826,0,0,0.104999,660.56,88.972)">
                    <path d="M180.491,60.133L183.764,60.133L183.764,65.916L190.107,65.916L190.107,60.133L193.403,60.133L193.403,75.062L190.107,75.062L190.107,68.695L183.764,68.695L183.764,75.062L180.491,75.062L180.491,60.133Z" style="fill-rule:nonzero;"/>
                </g>
                <g transform="matrix(1.31826,0,0,0.104999,660.56,88.972)">
                    <path d="M196.57,60.133L205.649,60.133L205.649,62.956L199.776,62.956L199.776,65.938L204.641,65.938L204.641,68.673L199.776,68.673L199.776,72.238L205.649,72.238L205.649,75.062L196.57,75.062L196.57,60.133Z" style="fill-rule:nonzero;"/>
                </g>
                <g transform="matrix(1.31826,0,0,0.104999,660.56,88.972)">
                    <path d="M207.171,60.133L210.758,60.133L214.3,71.52L217.819,60.133L221.159,60.133L216.138,75.062L212.215,75.062L207.171,60.133Z" style="fill-rule:nonzero;"/>
                </g>
                <g transform="matrix(1.31826,0,0,0.104999,660.56,88.972)">
                    <path d="M229.812,68.875L227.794,63.159L225.844,68.875L229.812,68.875ZM225.911,60.133L229.812,60.133L235.349,75.062L231.986,75.062L230.775,71.655L224.902,71.655L223.759,75.062L220.441,75.062L225.911,60.133Z" style="fill-rule:nonzero;"/>
                </g>
                <g transform="matrix(1.31826,0,0,0.104999,660.56,94.6207)">
                    <rect x="142.904" y="33.234" width="3.251" height="14.929"/>
                </g>
                <g transform="matrix(1.31826,0,0,0.104999,660.56,94.6207)">
                    <path d="M150.928,48.163C150.143,47.97 149.467,47.709 148.899,47.379L149.168,44.375C149.84,44.793 150.546,45.118 151.286,45.35C152.025,45.583 152.709,45.698 153.337,45.698C154.055,45.698 154.637,45.549 155.085,45.25C155.534,44.95 155.758,44.554 155.758,44.062C155.758,43.658 155.609,43.347 155.31,43.13C155.01,42.915 154.54,42.679 153.898,42.425L153.359,42.2C153.285,42.17 153.203,42.137 153.112,42.101C153.024,42.063 152.918,42.021 152.799,41.977C151.962,41.633 151.289,41.309 150.782,41.001C150.274,40.695 149.836,40.266 149.471,39.713C149.104,39.16 148.921,38.443 148.921,37.561C148.921,36.125 149.406,34.997 150.378,34.175C151.35,33.355 152.702,32.942 154.436,32.942C155.75,32.942 157.095,33.212 158.47,33.749L157.978,36.708C157.425,36.395 156.83,36.149 156.195,35.968C155.56,35.79 154.958,35.701 154.391,35.701C153.688,35.701 153.143,35.838 152.754,36.114C152.365,36.391 152.172,36.762 152.172,37.225C152.172,37.628 152.306,37.942 152.575,38.166C152.844,38.391 153.277,38.63 153.875,38.883L154.794,39.241C155.66,39.571 156.378,39.892 156.946,40.206C157.514,40.52 157.999,40.971 158.403,41.562C158.807,42.153 159.009,42.918 159.009,43.859C159.009,45.309 158.515,46.438 157.529,47.244C156.542,48.051 155.167,48.455 153.404,48.455C152.537,48.455 151.712,48.358 150.928,48.163Z" style="fill-rule:nonzero;"/>
                </g>
                <g transform="matrix(1.31826,0,0,0.104999,660.56,94.6184)">
                    <path d="M165.961,39.868C166.724,39.868 167.325,39.675 167.766,39.285C168.207,38.897 168.428,38.375 168.428,37.717C168.428,37.12 168.233,36.664 167.845,36.35C167.456,36.036 166.888,35.879 166.142,35.879L164.572,35.879L164.572,39.868L165.961,39.868ZM161.456,33.256C161.904,33.242 162.741,33.234 163.967,33.234C165.207,33.234 166.052,33.242 166.5,33.256C168.203,33.316 169.474,33.731 170.311,34.5C171.148,35.27 171.566,36.304 171.566,37.605C171.566,38.71 171.285,39.648 170.725,40.418C170.165,41.188 169.383,41.691 168.383,41.931C168.696,42.186 169.018,42.533 169.347,42.973C169.675,43.415 170.131,44.098 170.714,45.024C171.327,45.996 171.946,47.049 172.574,48.185L168.808,48.185L166.275,43.479C166.007,42.984 165.764,42.675 165.547,42.547C165.33,42.42 165.005,42.357 164.572,42.357L164.572,48.185L161.456,48.185L161.456,33.256Z" style="fill-rule:nonzero;"/>
                </g>
                <g transform="matrix(1.31826,0,0,0.104999,660.56,94.6207)">
                    <path d="M182.812,41.977L180.794,36.26L178.844,41.977L182.812,41.977ZM178.912,33.234L182.812,33.234L188.348,48.163L184.986,48.163L183.775,44.755L177.902,44.755L176.759,48.163L173.441,48.163L178.912,33.234Z" style="fill-rule:nonzero;"/>
                </g>
                <g transform="matrix(1.31826,0,0,0.104999,660.56,94.6207)">
                    <path d="M190.002,33.234L199.081,33.234L199.081,36.059L193.209,36.059L193.209,39.04L198.072,39.04L198.072,41.774L193.209,41.774L193.209,45.338L199.081,45.338L199.081,48.163L190.002,48.163L190.002,33.234Z" style="fill-rule:nonzero;"/>
                </g>
                <g transform="matrix(1.31826,0,0,0.104999,660.56,94.6207)">
                    <path d="M201.9,33.234L205.151,33.234L205.151,45.338L210.531,45.338L210.531,48.163L201.9,48.163L201.9,33.234Z" style="fill-rule:nonzero;"/>
                </g>
            </g>
        </g>
    </g>
</svg>
