<?xml version="1.0" encoding="UTF-8" standalone="no"?>
<!DOCTYPE svg PUBLIC "-//W3C//DTD SVG 1.1//EN" "http://www.w3.org/Graphics/SVG/1.1/DTD/svg11.dtd">
<svg width="100%" height="100%" viewBox="0 0 2500 1250" version="1.1" xmlns="http://www.w3.org/2000/svg" xmlns:xlink="http://www.w3.org/1999/xlink" xml:space="preserve" xmlns:serif="http://www.serif.com/" style="fill-rule:evenodd;clip-rule:evenodd;stroke-linejoin:round;stroke-miterlimit:2;">
    <rect id="logo-macrame" x="0" y="0" width="2500" height="1250" style="fill:none;"/>
    <g>
        <g>
            <path d="M1148.05,682.741l-0.162,-68.234l-33.468,56.212l-11.86,0l-33.304,-54.75l-0,66.772l-24.695,0l0,-113.723l21.77,-0l42.566,70.671l41.915,-70.671l21.607,-0l0.325,113.723l-24.694,0Z" style="fill-rule:nonzero;"/>
            <path d="M1233.18,594.037c13.539,-0 23.937,3.222 31.193,9.666c7.257,6.445 10.885,16.165 10.885,29.162l0,49.876l-23.719,0l-0,-10.885c-4.766,8.124 -13.647,12.185 -26.644,12.185c-6.715,0 -12.537,-1.137 -17.465,-3.412c-4.928,-2.274 -8.692,-5.415 -11.291,-9.422c-2.599,-4.008 -3.899,-8.557 -3.899,-13.647c-0,-8.123 3.06,-14.514 9.179,-19.171c6.119,-4.657 15.569,-6.986 28.35,-6.986l20.145,0c0,-5.524 -1.679,-9.775 -5.036,-12.753c-3.358,-2.979 -8.394,-4.468 -15.109,-4.468c-4.657,0 -9.234,0.731 -13.728,2.193c-4.495,1.463 -8.313,3.439 -11.454,5.93l-9.098,-17.708c4.766,-3.358 10.479,-5.957 17.14,-7.798c6.661,-1.842 13.511,-2.762 20.551,-2.762Zm-1.949,72.946c4.332,-0 8.177,-1.002 11.535,-3.006c3.357,-2.004 5.74,-4.955 7.148,-8.854l0,-8.936l-17.383,0c-10.398,0 -15.597,3.412 -15.597,10.235c0,3.25 1.273,5.822 3.818,7.717c2.545,1.896 6.038,2.844 10.479,2.844Z" style="fill-rule:nonzero;"/>
            <path d="M1341.38,684.041c-9.315,0 -17.682,-1.922 -25.101,-5.767c-7.419,-3.845 -13.213,-9.179 -17.383,-16.003c-4.17,-6.823 -6.255,-14.567 -6.255,-23.232c-0,-8.665 2.085,-16.409 6.255,-23.232c4.17,-6.824 9.964,-12.158 17.383,-16.003c7.419,-3.845 15.786,-5.767 25.101,-5.767c9.206,-0 17.248,1.922 24.125,5.767c6.878,3.845 11.887,9.342 15.028,16.49l-19.658,10.56c-4.549,-8.015 -11.101,-12.022 -19.658,-12.022c-6.607,-0 -12.076,2.166 -16.409,6.499c-4.332,4.332 -6.498,10.235 -6.498,17.708c-0,7.473 2.166,13.376 6.498,17.708c4.333,4.333 9.802,6.499 16.409,6.499c8.665,-0 15.217,-4.008 19.658,-12.022l19.658,10.722c-3.141,6.932 -8.15,12.347 -15.028,16.246c-6.877,3.9 -14.919,5.849 -24.125,5.849Z" style="fill-rule:nonzero;"/>
            <path d="M1419.36,606.871c3.032,-4.224 7.121,-7.419 12.266,-9.585c5.144,-2.166 11.074,-3.249 17.789,-3.249l0,23.394c-2.816,-0.216 -4.711,-0.325 -5.686,-0.325c-7.257,0 -12.943,2.031 -17.058,6.093c-4.116,4.061 -6.174,10.154 -6.174,18.277l-0,41.265l-25.344,0l-0,-87.405l24.207,0l-0,11.535Z" style="fill-rule:nonzero;"/>
            <path d="M1499.29,594.037c13.539,-0 23.937,3.222 31.193,9.666c7.257,6.445 10.885,16.165 10.885,29.162l0,49.876l-23.719,0l-0,-10.885c-4.766,8.124 -13.647,12.185 -26.644,12.185c-6.715,0 -12.537,-1.137 -17.465,-3.412c-4.928,-2.274 -8.692,-5.415 -11.291,-9.422c-2.6,-4.008 -3.899,-8.557 -3.899,-13.647c-0,-8.123 3.059,-14.514 9.179,-19.171c6.119,-4.657 15.569,-6.986 28.35,-6.986l20.145,0c-0,-5.524 -1.679,-9.775 -5.036,-12.753c-3.358,-2.979 -8.394,-4.468 -15.109,-4.468c-4.658,0 -9.234,0.731 -13.728,2.193c-4.495,1.463 -8.313,3.439 -11.454,5.93l-9.098,-17.708c4.766,-3.358 10.479,-5.957 17.14,-7.798c6.661,-1.842 13.511,-2.762 20.551,-2.762Zm-1.949,72.946c4.332,-0 8.177,-1.002 11.535,-3.006c3.357,-2.004 5.74,-4.955 7.148,-8.854l-0,-8.936l-17.384,0c-10.397,0 -15.596,3.412 -15.596,10.235c0,3.25 1.273,5.822 3.818,7.717c2.545,1.896 6.038,2.844 10.479,2.844Z" style="fill-rule:nonzero;"/>
            <path d="M1676.21,594.037c10.939,-0 19.631,3.222 26.075,9.666c6.445,6.445 9.667,16.111 9.667,29l-0,50.038l-25.344,0l-0,-46.139c-0,-6.932 -1.435,-12.103 -4.305,-15.515c-2.871,-3.412 -6.959,-5.118 -12.266,-5.118c-5.957,0 -10.669,1.923 -14.135,5.768c-3.466,3.845 -5.198,9.558 -5.198,17.139l-0,43.865l-25.345,0l0,-46.139c0,-13.755 -5.523,-20.633 -16.571,-20.633c-5.848,0 -10.506,1.923 -13.972,5.768c-3.465,3.845 -5.198,9.558 -5.198,17.139l-0,43.865l-25.345,0l0,-87.405l24.207,0l0,10.073c3.25,-3.682 7.23,-6.498 11.941,-8.448c4.712,-1.949 9.883,-2.924 15.516,-2.924c6.173,-0 11.751,1.218 16.733,3.655c4.982,2.437 8.99,5.984 12.022,10.641c3.575,-4.548 8.096,-8.068 13.566,-10.56c5.47,-2.491 11.454,-3.736 17.952,-3.736Z" style="fill-rule:nonzero;"/>
            <path d="M1821.29,639.364c0,0.325 -0.162,2.599 -0.487,6.823l-66.122,0c1.191,5.416 4.007,9.694 8.448,12.835c4.44,3.141 9.964,4.711 16.571,4.711c4.549,0 8.583,-0.677 12.103,-2.031c3.52,-1.353 6.797,-3.492 9.829,-6.417l13.485,14.622c-8.232,9.423 -20.254,14.134 -36.067,14.134c-9.856,0 -18.575,-1.922 -26.156,-5.767c-7.582,-3.845 -13.431,-9.179 -17.546,-16.003c-4.116,-6.823 -6.174,-14.567 -6.174,-23.232c0,-8.556 2.031,-16.273 6.092,-23.151c4.062,-6.878 9.64,-12.239 16.734,-16.084c7.094,-3.845 15.028,-5.767 23.801,-5.767c8.556,-0 16.3,1.841 23.232,5.524c6.932,3.682 12.374,8.962 16.327,15.84c3.954,6.877 5.93,14.865 5.93,23.963Zm-45.327,-26.157c-5.74,0 -10.56,1.625 -14.459,4.874c-3.899,3.25 -6.282,7.69 -7.148,13.322l43.052,0c-0.866,-5.524 -3.249,-9.937 -7.148,-13.241c-3.899,-3.303 -8.665,-4.955 -14.297,-4.955Zm6.499,-52.475l27.293,-0l-24.357,23.395l-19.82,-0l16.884,-23.395Z" style="fill-rule:nonzero;"/>
        </g>
        <path d="M754.435,473.252c22.998,0.326 43.566,21.667 42.06,45.258c-0.667,10.439 -5.315,20.502 -12.915,27.905l-12.29,11.843l52.691,54.035l52.692,-54.035c-6.478,-6.243 -13.666,-11.983 -18.379,-19.21c-15.121,-23.183 -0.706,-60.189 28.443,-65.186c22.395,-3.84 46.336,13.323 49.382,36.373c1.658,12.549 -2.675,25.708 -11.439,34.945c-0,0 -12.207,12.521 -12.207,12.521c16.403,15.806 33.666,30.745 43.981,50.354c17.163,32.627 16.691,73.445 -0.261,106.333c-9.781,18.976 -22.632,36.347 -37.429,51.853l-0.704,0.732l-9.474,9.775l-18.126,-17.568c19.067,-19.673 37.736,-40.111 47.907,-66.452c12.342,-31.964 4.191,-70.593 -20.815,-95.078c-0,0 -22.702,-21.877 -22.702,-21.877l-53.24,54.598c6.252,6.412 13.231,12.332 17.697,19.612c13.219,21.546 1.56,54.477 -24.323,61.602c-22.416,6.171 -48.465,-10.43 -51.982,-33.797c-1.87,-12.427 2.271,-25.561 11.047,-34.797c0,-0 12.304,-12.62 12.304,-12.62l-53.237,-54.594c-14.606,14.087 -30.398,27.046 -39.442,44.431c-14.698,28.256 -11.116,63.259 5.39,91.384c7.757,13.219 17.213,25.401 27.735,36.529l1.268,1.323l9.435,9.748l-18.137,17.556c-22.342,-23.081 -44.036,-47.451 -54.844,-79.23c-13.673,-40.205 -2.82,-87.495 28.307,-117.936c6.531,-6.321 13.076,-12.628 19.618,-18.939l3.047,-2.938c-10.646,-10.917 -21.704,-21.846 -23.637,-36.295c-3.117,-23.303 15.734,-47.319 40.957,-48.143c0.541,-0.013 1.081,-0.017 1.622,-0.015Zm57.968,187.071c-8.953,9.257 -1.575,29.224 13.553,27.385c11.706,-1.424 18.802,-17.874 9.604,-27.385l-11.579,-11.874c-3.859,3.958 -7.719,7.916 -11.578,11.874Zm-58.559,-161.829c-13.246,0.181 -22.437,18.528 -12.32,29.238c0,0 12.142,12.453 12.142,12.453c8.925,-8.601 19.891,-17.016 17.207,-28.37c-1.75,-7.405 -8.848,-13.135 -16.511,-13.319c-0.173,-0.002 -0.345,-0.003 -0.518,-0.002Zm139.919,-0c-7.546,0.107 -14.609,5.569 -16.558,12.858c-1.59,5.948 0.274,12.581 4.742,16.933l12.349,11.9c7.577,-7.77 17.137,-15.043 16.938,-24.781c-0.182,-8.929 -8.111,-16.952 -17.471,-16.91Z"/>
    </g>
</svg>
