<?xml version="1.0" encoding="UTF-8" standalone="no"?>
<!DOCTYPE svg PUBLIC "-//W3C//DTD SVG 1.1//EN" "http://www.w3.org/Graphics/SVG/1.1/DTD/svg11.dtd">
<svg width="100%" height="100%" viewBox="0 0 600 300" version="1.1" xmlns="http://www.w3.org/2000/svg" xmlns:xlink="http://www.w3.org/1999/xlink" xml:space="preserve" xmlns:serif="http://www.serif.com/" style="fill-rule:evenodd;clip-rule:evenodd;stroke-linejoin:round;stroke-miterlimit:2;">
    <g transform="matrix(1,0,0,1,-9750,0)">
        <rect id="logo-living-mirror" x="9750" y="0" width="600" height="300" style="fill:none;"/>
        <g id="logo-living-mirror1" serif:id="logo-living-mirror">
            <g transform="matrix(0.162431,0,0,0.162431,8685.84,-1335.91)">
                <path d="M8654.44,9160.18C8608.83,9160.18 8558.57,9196.06 8542.42,9240.44C8533.52,9264.87 8536.34,9286.96 8546.98,9302.99C8557.79,9319.27 8576.96,9329.94 8602.48,9329.94C8648.1,9329.94 8698.35,9294.06 8714.51,9249.68C8723.4,9225.24 8720.58,9203.16 8709.94,9187.13C8699.13,9170.84 8679.96,9160.18 8654.44,9160.18ZM8131.1,9162.48L8161.77,9162.48L8161.77,9327.64L8131.1,9327.64L8131.1,9162.48ZM8314.42,9327.64L8280.68,9279.27C8279.27,9279.43 8277.15,9279.51 8274.31,9279.51L8237.03,9279.51L8237.03,9327.64L8206.36,9327.64L8206.36,9162.48L8274.31,9162.48C8288.63,9162.48 8301.09,9164.84 8311.71,9169.56C8322.33,9174.28 8330.47,9181.04 8336.13,9189.85C8341.79,9198.66 8344.62,9209.12 8344.62,9221.23C8344.62,9233.66 8341.6,9244.35 8335.54,9253.32C8329.49,9262.28 8320.79,9268.97 8309.47,9273.37L8347.45,9327.64L8314.42,9327.64ZM8486.9,9327.64L8453.16,9279.27C8451.74,9279.43 8449.62,9279.51 8446.79,9279.51L8409.51,9279.51L8409.51,9327.64L8378.84,9327.64L8378.84,9162.48L8446.79,9162.48C8461.1,9162.48 8473.57,9164.84 8484.18,9169.56C8494.8,9174.28 8502.94,9181.04 8508.6,9189.85C8514.27,9198.66 8517.1,9209.12 8517.1,9221.23C8517.1,9233.66 8514.07,9244.35 8508.01,9253.32C8501.96,9262.28 8493.27,9268.97 8481.94,9273.37L8519.93,9327.64L8486.9,9327.64ZM8858.03,9327.64L8824.29,9279.27C8822.88,9279.43 8820.75,9279.51 8817.92,9279.51L8780.64,9279.51L8780.64,9327.64L8749.97,9327.64L8749.97,9162.48L8817.92,9162.48C8832.24,9162.48 8844.7,9164.84 8855.32,9169.56C8865.94,9174.28 8874.08,9181.04 8879.74,9189.85C8885.4,9198.66 8888.23,9209.12 8888.23,9221.23C8888.23,9233.66 8885.2,9244.35 8879.15,9253.32C8873.09,9262.28 8864.4,9268.97 8853.08,9273.37L8891.06,9327.64L8858.03,9327.64ZM8057.48,9327.64L8057.25,9218.16L8002.98,9308.76L7989.3,9308.76L7935.03,9219.58L7935.03,9327.64L7905.77,9327.64L7905.77,9162.48L7931.02,9162.48L7996.61,9271.96L8061.02,9162.48L8086.27,9162.48L8086.5,9327.64L8057.48,9327.64ZM8654.44,9187.18C8669.42,9187.18 8681.1,9192.51 8687.44,9202.06C8693.96,9211.88 8694.58,9225.48 8689.14,9240.44C8676.61,9274.85 8637.84,9302.94 8602.48,9302.94C8587.51,9302.94 8575.82,9297.61 8569.48,9288.06C8562.96,9278.24 8562.34,9264.64 8567.79,9249.68C8580.31,9215.27 8619.08,9187.18 8654.44,9187.18ZM8313.72,9221.23C8313.72,9210.69 8310.26,9202.59 8303.33,9196.93C8296.41,9191.26 8286.27,9188.43 8272.9,9188.43L8237.03,9188.43L8237.03,9254.26L8272.9,9254.26C8286.27,9254.26 8296.41,9251.39 8303.33,9245.65C8310.26,9239.91 8313.72,9231.77 8313.72,9221.23ZM8486.19,9221.23C8486.19,9210.69 8482.73,9202.59 8475.81,9196.93C8468.89,9191.26 8458.74,9188.43 8445.37,9188.43L8409.51,9188.43L8409.51,9254.26L8445.37,9254.26C8458.74,9254.26 8468.89,9251.39 8475.81,9245.65C8482.73,9239.91 8486.19,9231.77 8486.19,9221.23ZM8857.32,9221.23C8857.32,9210.69 8853.86,9202.59 8846.94,9196.93C8840.02,9191.26 8829.88,9188.43 8816.51,9188.43L8780.64,9188.43L8780.64,9254.26L8816.51,9254.26C8829.88,9254.26 8840.02,9251.39 8846.94,9245.65C8853.86,9239.91 8857.32,9231.77 8857.32,9221.23ZM8853.08,9030.59L8882.1,9030.59L8882.1,9096.41C8873.6,9103.18 8863.69,9108.37 8852.37,9111.98C8841.05,9115.6 8829.41,9117.41 8817.45,9117.41C8800.62,9117.41 8785.44,9113.75 8771.91,9106.44C8758.39,9099.13 8747.77,9089.02 8740.06,9076.12C8732.35,9063.22 8728.5,9048.67 8728.5,9032.47C8728.5,9016.27 8732.35,9001.72 8740.06,8988.82C8747.77,8975.93 8758.43,8965.82 8772.03,8958.51C8785.64,8951.19 8800.93,8947.53 8817.92,8947.53C8831.76,8947.53 8844.35,8949.81 8855.67,8954.38C8867,8958.94 8876.51,8965.62 8884.22,8974.43L8864.88,8993.31C8852.29,8980.72 8837.11,8974.43 8819.34,8974.43C8807.7,8974.43 8797.36,8976.87 8788.31,8981.75C8779.27,8986.62 8772.19,8993.46 8767.08,9002.27C8761.97,9011.08 8759.41,9021.15 8759.41,9032.47C8759.41,9043.48 8761.97,9053.39 8767.08,9062.2C8772.19,9071.01 8779.27,9077.93 8788.31,9082.96C8797.36,9088 8807.62,9090.51 8819.1,9090.51C8832,9090.51 8843.33,9087.68 8853.08,9082.02L8853.08,9030.59ZM8090.04,8949.89L8120.72,8949.89L8120.72,9089.1L8207.07,9089.1L8207.07,9115.05L8090.04,9115.05L8090.04,8949.89ZM8231.37,8949.89L8262.05,8949.89L8262.05,9115.05L8231.37,9115.05L8231.37,8949.89ZM8473.92,8949.89L8504.59,8949.89L8504.59,9115.05L8473.92,9115.05L8473.92,8949.89ZM8695.94,8949.89L8695.94,9115.05L8670.69,9115.05L8579.62,9003.22L8579.62,9115.05L8549.18,9115.05L8549.18,8949.89L8574.43,8949.89L8665.5,9061.73L8665.5,8949.89L8695.94,8949.89ZM8456.46,8949.89L8384.5,9115.05L8354.3,9115.05L8282.1,8949.89L8315.37,8949.89L8370.34,9077.3L8425.79,8949.89L8456.46,8949.89Z" style="fill-rule:nonzero;"/>
            </g>
        </g>
    </g>
</svg>
