<?xml version="1.0" encoding="UTF-8" standalone="no"?>
<!DOCTYPE svg PUBLIC "-//W3C//DTD SVG 1.1//EN" "http://www.w3.org/Graphics/SVG/1.1/DTD/svg11.dtd">
<svg width="100%" height="100%" viewBox="0 0 600 300" version="1.1" xmlns="http://www.w3.org/2000/svg" xmlns:xlink="http://www.w3.org/1999/xlink" xml:space="preserve" xmlns:serif="http://www.serif.com/" style="fill-rule:evenodd;clip-rule:evenodd;stroke-linejoin:round;stroke-miterlimit:2;">
    <g transform="matrix(1,0,0,1,-5850,0)">
        <g id="logo-nots" transform="matrix(1,0,0,0.5,0,0)">
            <rect x="5850" y="0" width="600" height="600" style="fill:none;"/>
            <g transform="matrix(0.855346,0,0,1.71069,889.624,-205.086)">
                <g transform="matrix(1.53063,0,0,1.53063,6046.41,256.441)">
                    <path d="M36.103,7.266L28.134,7.266L28.134,34.101C28.134,34.648 27.993,35.078 27.709,35.391C27.426,35.703 27.089,35.859 26.699,35.859C25.976,35.859 25.439,35.478 25.087,34.717C24.443,33.31 23.417,29.678 22.011,23.818C20.742,18.486 19.404,14.629 17.998,12.246C15.908,8.672 13.085,6.885 9.531,6.885C6.874,6.885 4.697,7.471 2.998,8.643C1.025,10.01 0.039,12.002 0.039,14.619L0.039,43.33L7.949,43.33L7.949,16.465C7.949,15.957 8.046,15.562 8.242,15.279C8.437,14.996 8.779,14.795 9.267,14.678C10.009,14.58 10.976,16.142 12.167,19.365C13.027,21.728 14.033,25 15.185,29.18C16.455,33.789 17.167,36.328 17.324,36.797C18.105,39.121 19.433,40.908 21.308,42.158C22.988,43.271 24.882,43.828 26.992,43.828C29.433,43.828 31.533,43.135 33.291,41.748C35.166,40.264 36.103,38.389 36.103,36.123L36.103,7.266Z" style="fill-rule:nonzero;"/>
                </g>
                <g transform="matrix(1.53063,0,0,1.53063,6046.41,256.711)">
                    <path d="M85.154,43.154L92.976,43.154L92.976,14.941L101.062,14.941L101.062,7.383L77.097,7.383L77.097,14.941L85.154,14.941L85.154,43.154Z" style="fill-rule:nonzero;"/>
                </g>
                <g transform="matrix(1.53063,0,0,1.53063,6046.41,256.711)">
                    <path d="M132.937,39.756C134.519,37.705 135.311,35.195 135.311,32.226C135.311,29.238 134.519,26.728 132.937,24.697C131.18,22.431 128.786,21.299 125.76,21.299L114.539,21.299C113.641,21.299 112.952,20.998 112.474,20.394C111.995,19.793 111.756,19.064 111.756,18.209C111.756,17.334 112.005,16.57 112.503,15.918C113.001,15.267 113.68,14.941 114.539,14.941L133.582,14.941L133.582,7.383L113.221,7.383C110.193,7.383 107.781,8.515 105.984,10.777C104.383,12.806 103.582,15.283 103.582,18.209C103.582,21.174 104.383,23.66 105.984,25.67C107.762,27.912 110.174,29.033 113.221,29.033L124.471,29.033C125.33,29.033 125.984,29.341 126.434,29.957C126.883,30.572 127.107,31.318 127.107,32.197C127.107,33.076 126.873,33.853 126.404,34.527C125.936,35.201 125.291,35.537 124.471,35.537L105.34,35.537L105.34,43.154L125.76,43.154C128.786,43.154 131.18,42.021 132.937,39.756Z" style="fill-rule:nonzero;"/>
                </g>
                <g transform="matrix(1.53063,0,0,1.53063,6046.41,256.398)">
                    <path d="M70.902,12.387C65.703,7.188 58.142,5.785 51.646,8.137L54.378,15.645C57.098,14.661 60.146,14.838 62.739,16.198C63.34,16.513 63.917,16.892 64.458,17.334C64.73,17.554 64.993,17.792 65.246,18.044C65.498,18.296 65.734,18.559 65.955,18.83C66.397,19.372 66.775,19.948 67.091,20.549C67.407,21.151 67.66,21.778 67.849,22.419C67.943,22.739 68.023,23.063 68.085,23.39C68.212,24.044 68.275,24.708 68.275,25.37C68.275,25.702 68.259,26.034 68.228,26.364C68.006,28.677 67.012,30.929 65.246,32.697C65.03,32.913 64.804,33.11 64.575,33.303C63.627,34.098 62.571,34.692 61.458,35.095C61.263,35.167 61.068,35.242 60.871,35.3C60.229,35.49 59.574,35.616 58.912,35.679C58.251,35.743 57.585,35.743 56.925,35.679C56.263,35.616 55.608,35.49 54.966,35.3C53.365,34.827 51.855,33.96 50.591,32.697C48.825,30.929 47.831,28.677 47.609,26.364C47.578,26.034 47.562,25.702 47.562,25.37C47.562,24.708 47.625,24.044 47.751,23.39C47.814,23.063 47.894,22.739 47.988,22.419C48.177,21.778 48.43,21.151 48.746,20.549C49.062,19.948 49.44,19.372 49.882,18.83C50.103,18.559 50.339,18.296 50.591,18.044C50.807,17.829 51.033,17.63 51.262,17.438L46.123,11.313C45.717,11.655 45.317,12.005 44.935,12.387C37.777,19.545 37.777,31.195 44.935,38.354C50.134,43.552 57.695,44.956 64.191,42.604C66.164,41.89 68.036,40.837 69.714,39.427C70.12,39.086 70.52,38.735 70.902,38.354C78.06,31.195 78.06,19.545 70.902,12.387Z" style="fill-rule:nonzero;"/>
                </g>
                <g transform="matrix(1.53063,0,0,1.53063,6046.41,234.691)">
                    <path d="M55.925,34.074L54.378,29.827C53.943,29.985 53.513,30.161 53.098,30.38C52.497,30.695 51.919,31.074 51.378,31.516L51.262,31.62L54.179,35.096C54.712,34.648 55.298,34.302 55.925,34.074Z" style="fill-rule:nonzero;"/>
                </g>
            </g>
        </g>
    </g>
</svg>
