<?xml version="1.0" encoding="UTF-8" standalone="no"?>
<!DOCTYPE svg PUBLIC "-//W3C//DTD SVG 1.1//EN" "http://www.w3.org/Graphics/SVG/1.1/DTD/svg11.dtd">
<svg width="100%" height="100%" viewBox="0 0 2500 1250" version="1.1" xmlns="http://www.w3.org/2000/svg" xmlns:xlink="http://www.w3.org/1999/xlink" xml:space="preserve" xmlns:serif="http://www.serif.com/" style="fill-rule:evenodd;clip-rule:evenodd;stroke-linejoin:round;stroke-miterlimit:2;">
    <rect id="logo-roar-neon" x="0" y="0" width="2500" height="1250" style="fill:none;"/>
    <g id="logo-roar-neon1" serif:id="logo-roar-neon">
        <g>
            <path d="M1119.67,477.336c2.315,-1.366 4.762,-2.61 7.339,-3.732c8.139,-3.544 17.58,-5.316 28.322,-5.316c10.631,0 20.016,1.772 28.155,5.316c8.14,3.543 14.978,8.305 20.515,14.285c5.537,5.98 9.717,12.652 12.541,20.017c2.824,7.364 4.236,14.866 4.236,22.508l0,3.654c0,6.866 -1.356,13.953 -4.07,21.262c-1.636,4.409 -3.766,8.626 -6.391,12.653l97.33,97.33c2.714,-1.696 5.616,-3.217 8.705,-4.562c8.139,-3.543 17.58,-5.315 28.321,-5.315c10.632,-0 20.017,1.772 28.156,5.315c8.14,3.544 14.978,8.306 20.515,14.286c5.537,5.98 9.717,12.652 12.541,20.016c2.824,7.365 4.236,14.867 4.236,22.508l0,3.655c0,6.866 -1.357,13.953 -4.07,21.262c-1.816,4.892 -4.239,9.548 -7.27,13.968l54.869,54.869l-17.283,17.284l-55.016,-55.016c-2.483,1.596 -5.13,3.05 -7.94,4.36c-8.195,3.82 -17.774,5.73 -28.738,5.73c-11.074,0 -20.708,-1.91 -28.903,-5.73c-8.195,-3.821 -15.005,-8.86 -20.431,-15.116c-5.427,-6.257 -9.469,-13.04 -12.127,-20.349c-2.657,-7.309 -3.986,-14.396 -3.986,-21.262l-0,-3.655c-0,-7.641 1.384,-15.143 4.153,-22.508c0.044,-0.119 0.09,-0.238 0.135,-0.356l26.989,26.989c0.191,4.177 0.95,8.09 2.277,11.739c1.551,4.263 3.821,8.001 6.811,11.212c2.99,3.212 6.589,5.704 10.797,7.475c4.208,1.772 8.97,2.658 14.285,2.658c5.316,0 10.078,-0.886 14.286,-2.658c0.216,-0.091 0.43,-0.183 0.643,-0.278l-166.272,-166.272c-2.861,1.944 -5.948,3.688 -9.262,5.233c-8.195,3.82 -17.774,5.731 -28.737,5.731c-11.074,-0 -20.709,-1.911 -28.904,-5.731c-8.194,-3.821 -15.005,-8.859 -20.431,-15.116c-5.427,-6.257 -9.469,-13.04 -12.126,-20.349c-2.658,-7.309 -3.987,-14.396 -3.987,-21.262l-0,-3.654c-0,-7.642 1.384,-15.144 4.153,-22.508c0.245,-0.652 0.501,-1.299 0.767,-1.938l26.309,26.309l-0,0.13c-0,4.983 0.775,9.607 2.325,13.87c1.551,4.264 3.821,8.001 6.811,11.213c2.99,3.211 6.589,5.703 10.797,7.475c4.208,1.771 8.97,2.657 14.286,2.657c5.315,0 10.077,-0.886 14.285,-2.657c0.729,-0.307 1.44,-0.636 2.131,-0.986l-125.294,-125.294l17.283,-17.284l55.934,55.935Zm-3.209,303.015l-0,-121.261l76.743,0l-0,25.249l-46.843,0l-0,21.761l44.351,-0l0,25.249l-44.351,-0l-0,23.753l47.839,0l0,25.249l-77.739,0Zm-183.114,-96.676l-0,96.676l-28.571,0l-0,-121.261l50.664,0l40.365,96.677l2.491,-0l0,-96.677l28.904,0l-0,121.261l-50.996,0l-40.365,-96.676l-2.492,-0Zm568.029,-0l-0,96.676l-28.572,0l0,-121.261l50.664,0l40.365,96.677l2.492,-0l-0,-96.677l28.903,0l0,121.261l-50.996,0l-40.365,-96.676l-2.491,-0Zm-125.029,50.338c0.075,-0.195 0.148,-0.391 0.22,-0.588c1.55,-4.264 2.325,-8.887 2.325,-13.87c0,-5.316 -0.803,-10.133 -2.408,-14.452c-1.606,-4.319 -3.904,-8.029 -6.894,-11.129c-2.99,-3.101 -6.589,-5.482 -10.797,-7.143c-4.208,-1.661 -8.915,-2.492 -14.12,-2.492c-5.315,0 -10.077,0.831 -14.285,2.492c-0.292,0.115 -0.58,0.234 -0.867,0.356l46.826,46.826Zm-414.346,-263.067c10.52,-0 19.601,1.578 27.242,4.734c7.641,3.156 13.511,7.807 17.608,13.953c4.097,6.146 6.146,13.76 6.146,22.841l0,2.657c0,9.081 -2.076,16.639 -6.229,22.674c-3.881,5.64 -9.261,9.975 -16.139,13.003l29.677,42.395l-35.548,0l-24.606,-37.208l-17.586,-0l0,37.208l-30.896,0l-0,-122.257l50.331,-0Zm568.029,-0c10.52,-0 19.601,1.578 27.242,4.734c7.641,3.156 13.51,7.807 17.608,13.953c4.097,6.146 6.146,13.76 6.146,22.841l-0,2.657c-0,9.081 -2.077,16.639 -6.23,22.674c-3.88,5.64 -9.26,9.975 -16.138,13.003l29.676,42.395l-35.547,0l-24.606,-37.208l-17.586,-0l-0,37.208l-30.897,0l0,-122.257l50.332,-0Zm-210.183,94.185l-8.562,28.072l-30.896,0l38.869,-121.26l49.501,-0l40.199,121.26l-31.893,0l-8.796,-28.072l-48.422,-0Zm-132.266,-19.884c1.312,-3.975 1.968,-8.255 1.968,-12.84c0,-5.316 -0.802,-10.133 -2.408,-14.452c-1.606,-4.319 -3.904,-8.028 -6.894,-11.129c-2.99,-3.101 -6.589,-5.482 -10.797,-7.143c-4.208,-1.661 -8.915,-2.492 -14.119,-2.492c-5.021,0 -9.548,0.741 -13.582,2.224l45.832,45.832Zm153.089,-48.388l-13.122,43.023l32.81,-0l-13.481,-43.023l-6.207,0Zm-398.104,35.382l21.262,-0c3.655,-0 6.811,-0.72 9.469,-2.16c2.657,-1.439 4.734,-3.488 6.229,-6.146c1.495,-2.658 2.242,-5.758 2.242,-9.302c0,-3.654 -0.747,-6.811 -2.242,-9.468c-1.495,-2.658 -3.572,-4.707 -6.229,-6.146c-2.658,-1.44 -5.814,-2.16 -9.469,-2.16l-21.262,0l0,35.382Zm568.029,-0l21.262,-0c3.654,-0 6.81,-0.72 9.468,-2.16c2.658,-1.439 4.734,-3.488 6.229,-6.146c1.495,-2.658 2.243,-5.758 2.243,-9.302c-0,-3.654 -0.748,-6.811 -2.243,-9.468c-1.495,-2.658 -3.571,-4.707 -6.229,-6.146c-2.658,-1.44 -5.814,-2.16 -9.468,-2.16l-21.262,0l-0,35.382Z" style="fill-rule:nonzero;"/>
        </g>
    </g>
</svg>
