<?xml version="1.0" encoding="UTF-8" standalone="no"?>
<!DOCTYPE svg PUBLIC "-//W3C//DTD SVG 1.1//EN" "http://www.w3.org/Graphics/SVG/1.1/DTD/svg11.dtd">
<svg width="100%" height="100%" viewBox="0 0 2500 1250" version="1.1" xmlns="http://www.w3.org/2000/svg" xmlns:xlink="http://www.w3.org/1999/xlink" xml:space="preserve" xmlns:serif="http://www.serif.com/" style="fill-rule:evenodd;clip-rule:evenodd;stroke-linejoin:round;stroke-miterlimit:2;">
    <rect id="logo-greenverd" x="0" y="0" width="2500" height="1250" style="fill:none;"/>
    <g>
        <path d="M875.642,604.774c8.228,-12.799 22.702,-19.198 43.423,-19.198l0,27.197c-2.438,-0.457 -4.647,-0.686 -6.627,-0.686c-11.122,0 -19.807,3.238 -26.054,9.713c-6.247,6.476 -9.37,15.808 -9.37,27.997l-0,59.193l-28.569,0l-0,-122.043l27.197,0l0,17.827Z" style="fill-rule:nonzero;"/>
        <path d="M995.629,686.364c13.255,0 24.302,-4.418 33.139,-13.255l15.084,17.598c-5.333,6.551 -12.189,11.503 -20.569,14.855c-8.381,3.352 -17.827,5.028 -28.34,5.028c-13.408,0 -25.216,-2.666 -35.424,-7.999c-10.209,-5.333 -18.094,-12.76 -23.656,-22.283c-5.56,-9.523 -8.341,-20.302 -8.341,-32.339c-0,-11.885 2.704,-22.588 8.114,-32.111c5.409,-9.523 12.874,-16.95 22.397,-22.283c9.523,-5.333 20.302,-7.999 32.339,-7.999c11.427,-0 21.826,2.476 31.196,7.428c9.371,4.951 16.798,12.036 22.284,21.254c5.485,9.218 8.228,19.998 8.228,32.339l-93.476,18.284c2.895,7.009 7.542,12.342 13.941,15.998c6.399,3.657 14.094,5.485 23.084,5.485Zm-5.257,-77.934c-10.513,0 -19.008,3.429 -25.482,10.285c-6.476,6.856 -9.714,16.074 -9.714,27.654l0,0.228l69.02,-13.255c-1.98,-7.466 -5.979,-13.484 -11.998,-18.055c-6.019,-4.571 -13.294,-6.857 -21.826,-6.857Z" style="fill-rule:nonzero;"/>
        <path d="M1132.98,686.364c13.257,0 24.303,-4.418 33.139,-13.255l15.084,17.598c-5.333,6.551 -12.189,11.503 -20.568,14.855c-8.381,3.352 -17.828,5.028 -28.341,5.028c-13.407,0 -25.215,-2.666 -35.423,-7.999c-10.209,-5.333 -18.095,-12.76 -23.655,-22.283c-5.561,-9.523 -8.343,-20.302 -8.343,-32.339c0,-11.885 2.705,-22.588 8.115,-32.111c5.408,-9.523 12.875,-16.95 22.397,-22.283c9.523,-5.333 20.302,-7.999 32.34,-7.999c11.426,-0 21.825,2.476 31.196,7.428c9.37,4.951 16.798,12.036 22.282,21.254c5.486,9.218 8.228,19.998 8.228,32.339l-93.475,18.284c2.895,7.009 7.542,12.342 13.941,15.998c6.4,3.657 14.094,5.485 23.083,5.485Zm-5.255,-77.934c-10.515,0 -19.009,3.429 -25.484,10.285c-6.476,6.856 -9.713,16.074 -9.713,27.654l-0,0.228l69.02,-13.255c-1.981,-7.466 -5.979,-13.484 -11.998,-18.055c-6.019,-4.571 -13.293,-6.857 -21.825,-6.857Z" style="fill-rule:nonzero;"/>
        <path d="M1281.54,585.576c15.389,-0 27.73,4.495 37.024,13.484c9.295,8.99 13.942,22.321 13.942,39.995l0,69.935l-28.569,0l0,-66.278c0,-10.665 -2.513,-18.702 -7.542,-24.111c-5.027,-5.409 -12.189,-8.114 -21.483,-8.114c-10.513,0 -18.816,3.162 -24.911,9.485c-6.094,6.323 -9.142,15.427 -9.142,27.311l-0,61.707l-28.568,0l-0,-122.043l27.197,0l0,15.77c4.723,-5.638 10.665,-9.904 17.827,-12.799c7.16,-2.895 15.235,-4.342 24.225,-4.342Z" style="fill-rule:nonzero;"/>
        <path d="M1476.26,586.947l-52.337,122.043l-29.482,0l-52.337,-122.043l29.71,0l37.939,90.504l39.081,-90.504l27.426,0Z" style="fill-rule:nonzero;"/>
        <path d="M1544.14,686.364c13.255,0 24.302,-4.418 33.139,-13.255l15.084,17.598c-5.333,6.551 -12.189,11.503 -20.568,14.855c-8.381,3.352 -17.828,5.028 -28.341,5.028c-13.408,0 -25.215,-2.666 -35.424,-7.999c-10.208,-5.333 -18.094,-12.76 -23.655,-22.283c-5.56,-9.523 -8.342,-20.302 -8.342,-32.339c0,-11.885 2.704,-22.588 8.114,-32.111c5.409,-9.523 12.874,-16.95 22.398,-22.283c9.522,-5.333 20.302,-7.999 32.338,-7.999c11.427,-0 21.827,2.476 31.196,7.428c9.371,4.951 16.798,12.036 22.284,21.254c5.486,9.218 8.228,19.998 8.228,32.339l-93.475,18.284c2.895,7.009 7.542,12.342 13.941,15.998c6.399,3.657 14.094,5.485 23.083,5.485Zm-5.257,-77.934c-10.513,0 -19.007,3.429 -25.482,10.285c-6.476,6.856 -9.713,16.074 -9.713,27.654l-0,0.228l69.02,-13.255c-1.981,-7.466 -5.98,-13.484 -11.998,-18.055c-6.019,-4.571 -13.295,-6.857 -21.827,-6.857Z" style="fill-rule:nonzero;"/>
        <path d="M1650.64,604.774c8.228,-12.799 22.703,-19.198 43.424,-19.198l0,27.197c-2.438,-0.457 -4.647,-0.686 -6.627,-0.686c-11.123,0 -19.808,3.238 -26.054,9.713c-6.248,6.476 -9.372,15.808 -9.372,27.997l0,59.193l-28.567,0l-0,-122.043l27.196,0l-0,17.827Z" style="fill-rule:nonzero;"/>
        <path d="M1832.11,539.41l-0,169.58l-27.426,0l-0,-15.769c-4.723,5.79 -10.551,10.132 -17.484,13.027c-6.932,2.895 -14.589,4.342 -22.969,4.342c-11.731,0 -22.283,-2.59 -31.653,-7.77c-9.371,-5.181 -16.722,-12.532 -22.055,-22.055c-5.333,-9.523 -7.998,-20.455 -7.998,-32.796c-0,-12.342 2.665,-23.236 7.998,-32.682c5.333,-9.447 12.684,-16.76 22.055,-21.941c9.37,-5.18 19.922,-7.77 31.653,-7.77c8.075,-0 15.465,1.371 22.169,4.114c6.705,2.742 12.418,6.856 17.141,12.341l-0,-62.621l28.569,-0Zm-64.45,146.726c6.856,-0 13.027,-1.562 18.512,-4.685c5.485,-3.124 9.827,-7.58 13.027,-13.37c3.2,-5.79 4.799,-12.494 4.799,-20.112c-0,-7.618 -1.599,-14.322 -4.799,-20.112c-3.2,-5.79 -7.542,-10.247 -13.027,-13.37c-5.485,-3.124 -11.656,-4.685 -18.512,-4.685c-6.857,-0 -13.027,1.561 -18.513,4.685c-5.485,3.123 -9.827,7.58 -13.026,13.37c-3.201,5.79 -4.8,12.494 -4.8,20.112c0,7.618 1.599,14.322 4.8,20.112c3.199,5.79 7.541,10.246 13.026,13.37c5.486,3.123 11.656,4.685 18.513,4.685Z" style="fill-rule:nonzero;"/>
        <path d="M816.905,618.022l-0,64.428l-25.432,0l-0,-38.996l-38.997,0l0,-25.432l64.429,0Z"/>
        <path d="M749.14,707.882c-14.734,-0.017 -28.256,-3.216 -40.565,-9.599c-12.341,-6.399 -22.207,-15.693 -29.596,-27.882c-7.39,-12.189 -11.085,-26.74 -11.085,-43.653c0,-15.998 3.733,-30.358 11.199,-43.08c7.466,-12.722 17.788,-22.626 30.968,-29.711c13.179,-7.085 27.997,-10.628 44.452,-10.628c13.408,-0 25.597,2.209 36.567,6.628c10.971,4.419 20.189,10.894 27.654,19.426l-18.74,18.284c-12.19,-12.189 -26.893,-18.284 -44.11,-18.284c-11.275,0 -21.293,2.4 -30.054,7.2c-8.76,4.799 -15.617,11.541 -20.569,20.226c-4.951,8.685 -7.427,18.588 -7.427,29.711c-0,11.732 2.476,21.826 7.427,30.282c4.952,8.456 11.542,14.856 19.77,19.198c7.418,3.915 15.455,6.065 24.113,6.45l42.329,0l-0,25.432l-42.333,0Z" style="fill-rule:nonzero;"/>
    </g>
</svg>
