<?xml version="1.0" encoding="UTF-8" standalone="no"?>
<!DOCTYPE svg PUBLIC "-//W3C//DTD SVG 1.1//EN" "http://www.w3.org/Graphics/SVG/1.1/DTD/svg11.dtd">
<svg width="100%" height="100%" viewBox="0 0 2500 1250" version="1.1" xmlns="http://www.w3.org/2000/svg" xmlns:xlink="http://www.w3.org/1999/xlink" xml:space="preserve" xmlns:serif="http://www.serif.com/" style="fill-rule:evenodd;clip-rule:evenodd;stroke-linejoin:round;stroke-miterlimit:2;">
    <rect id="logo-mitipi" x="0" y="0" width="2500" height="1250" style="fill:none;"/>
    <g>
        <path d="M1090.44,731.643c1.981,3.396 1.995,7.592 0.037,11.001c-1.958,3.409 -5.589,5.511 -9.521,5.511c-22.087,-0 -57.079,-0 -70.227,-0c-2.871,-0.001 -5.257,-2.215 -5.472,-5.079c-2.547,-29.956 -27.708,-53.497 -58.325,-53.497c-30.617,0 -55.778,23.541 -58.357,53.494c-0.214,2.847 -2.586,5.047 -5.44,5.047c-13.148,0.035 -48.14,0.035 -70.227,0.035c-3.932,-0 -7.563,-2.102 -9.521,-5.511c-1.958,-3.409 -1.944,-7.605 0.037,-11.001c26.128,-44.79 98.448,-168.767 129.283,-221.627c2.951,-5.059 8.368,-8.171 14.225,-8.171c5.857,0 11.274,3.112 14.225,8.171c30.835,52.86 103.155,176.837 129.283,221.627Z"/>
        <g>
            <path d="M1421.48,579.44l29.582,0l-0,20.566l-29.582,-0l0,50.808c0.014,2.154 0.924,5.198 0.924,5.198c0.045,0.206 0.095,0.41 0.147,0.613c1.145,4.244 4.211,7.91 8.156,9.897c1.698,0.855 3.619,1.037 5.553,1.054l3.797,0.006l11.187,-0.024l-0,21.489l-11.237,-0.025l-3.815,0.006c-6.322,-0.032 -12.278,-1.013 -19.643,-4.839c-7.885,-4.096 -14.2,-10.95 -17.849,-19.073l-0.094,-0.216c-1.665,-4.463 -2.499,-9.218 -2.53,-14.006l0,-50.888l-3.889,-0c-7.92,-0 -14.339,-6.42 -14.339,-14.339c-0,-3.483 -0,-6.227 -0,-6.227l18.228,0l0,-25.09l25.404,0l0,25.09Z"/>
            <path d="M1146.27,688.438l-9.239,0c-4.367,0 -8.556,-1.735 -11.645,-4.823c-3.088,-3.089 -4.823,-7.277 -4.823,-11.645c-0,-30.647 -0,-93.352 -0,-93.352l24.473,-0l-0,13.984c4.113,-4.936 9.255,-8.706 15.424,-11.311c6.17,-2.605 13.025,-3.907 20.566,-3.907c8.226,-0 15.527,1.542 21.902,4.627c6.376,3.085 11.414,7.643 15.116,13.676c4.525,-5.758 10.352,-10.248 17.481,-13.47c7.13,-3.222 15.013,-4.833 23.651,-4.833c13.847,-0 24.816,4.01 32.905,12.031c8.089,8.02 12.134,20.051 12.134,36.092l-0,62.931l-9.239,0c-4.368,0 -8.557,-1.735 -11.645,-4.823c-3.088,-3.089 -4.824,-7.277 -4.824,-11.645c0,-17.653 0,-43.172 0,-43.172c0,-9.597 -2.125,-16.83 -6.375,-21.697c-4.25,-4.867 -10.351,-7.301 -18.303,-7.301c-8.638,0 -15.562,2.845 -20.772,8.535c-5.21,5.69 -7.815,13.813 -7.815,24.37l0,55.733l-9.238,0c-4.368,0 -8.557,-1.735 -11.645,-4.823c-3.089,-3.089 -4.824,-7.277 -4.824,-11.645c0,-17.653 0,-43.172 0,-43.172c0,-9.597 -2.125,-16.83 -6.375,-21.697c-4.251,-4.867 -10.352,-7.301 -18.304,-7.301c-8.774,0 -15.733,2.811 -20.874,8.432c-5.141,5.621 -7.712,13.779 -7.712,24.473l-0,55.733Z"/>
            <path d="M1358.82,688.438l-9.239,0c-4.368,0 -8.557,-1.735 -11.645,-4.823c-3.089,-3.089 -4.824,-7.277 -4.824,-11.645c0,-30.647 0,-93.352 0,-93.352l25.708,-0l-0,109.82Z"/>
            <path d="M1695.91,688.438l-9.239,0c-4.368,0 -8.556,-1.735 -11.645,-4.823c-3.088,-3.089 -4.824,-7.277 -4.824,-11.645c0,-30.647 0,-93.352 0,-93.352l25.708,-0l-0,109.82Z"/>
            <path d="M1501.57,688.438l-9.239,0c-4.368,0 -8.556,-1.735 -11.645,-4.823c-3.088,-3.089 -4.824,-7.277 -4.824,-11.645c0,-30.647 0,-93.352 0,-93.352l25.708,-0l-0,109.82Z"/>
            <path d="M1345.97,560.107c-4.253,-0 -7.818,-1.435 -10.696,-4.303c-2.877,-2.869 -4.315,-6.439 -4.315,-10.709c-0,-4.269 1.438,-7.839 4.315,-10.708c2.878,-2.868 6.443,-4.303 10.696,-4.303c4.253,0 7.818,1.368 10.696,4.103c2.877,2.736 4.315,6.172 4.315,10.308c0,4.403 -1.407,8.106 -4.222,11.108c-2.814,3.003 -6.411,4.504 -10.789,4.504Z"/>
            <path d="M1488.71,560.107c-4.253,-0 -7.818,-1.435 -10.696,-4.303c-2.877,-2.869 -4.315,-6.439 -4.315,-10.709c-0,-4.269 1.438,-7.839 4.315,-10.708c2.878,-2.868 6.443,-4.303 10.696,-4.303c4.253,0 7.818,1.368 10.696,4.103c2.877,2.736 4.315,6.172 4.315,10.308c0,4.403 -1.407,8.106 -4.222,11.108c-2.814,3.003 -6.411,4.504 -10.789,4.504Z"/>
            <path d="M1683.06,560.107c-4.253,-0 -7.818,-1.435 -10.696,-4.303c-2.877,-2.869 -4.315,-6.439 -4.315,-10.709c-0,-4.269 1.438,-7.839 4.315,-10.708c2.878,-2.868 6.443,-4.303 10.696,-4.303c4.253,0 7.818,1.368 10.696,4.103c2.877,2.736 4.315,6.172 4.315,10.308c0,4.403 -1.407,8.106 -4.222,11.108c-2.814,3.003 -6.411,4.504 -10.789,4.504Z"/>
            <path d="M1556.79,728.336l-9.239,-0c-4.368,-0 -8.557,-1.735 -11.645,-4.824c-3.088,-3.088 -4.824,-7.277 -4.824,-11.645c0,-38.904 0,-133.249 0,-133.249l24.474,-0l-0,14.396c4.25,-5.21 9.494,-9.118 15.732,-11.723c6.239,-2.605 13.128,-3.907 20.669,-3.907c10.694,-0 20.257,2.33 28.689,6.992c8.432,4.662 15.047,11.243 19.846,19.743c4.799,8.501 7.198,18.304 7.198,29.409c0,11.106 -2.399,20.943 -7.198,29.512c-4.799,8.569 -11.414,15.184 -19.846,19.846c-8.432,4.661 -17.995,6.992 -28.689,6.992c-14.807,0 -26.53,-4.936 -35.167,-14.807l-0,53.265Zm32.288,-60.463c9.46,-0 17.241,-3.154 23.342,-9.46c6.101,-6.307 9.152,-14.602 9.152,-24.885c-0,-10.283 -3.051,-18.578 -9.152,-24.884c-6.101,-6.307 -13.882,-9.461 -23.342,-9.461c-6.17,0 -11.723,1.406 -16.658,4.216c-4.936,2.811 -8.844,6.821 -11.723,12.031c-2.879,5.21 -4.319,11.243 -4.319,18.098c0,6.855 1.44,12.888 4.319,18.098c2.879,5.21 6.787,9.22 11.723,12.031c4.935,2.81 10.488,4.216 16.658,4.216Z"/>
        </g>
    </g>
</svg>
