<?xml version="1.0" encoding="UTF-8" standalone="no"?><!DOCTYPE svg PUBLIC "-//W3C//DTD SVG 1.1//EN" "http://www.w3.org/Graphics/SVG/1.1/DTD/svg11.dtd"><svg width="100%" height="100%" viewBox="0 0 2160 2160" version="1.1" xmlns="http://www.w3.org/2000/svg" xmlns:xlink="http://www.w3.org/1999/xlink" xml:space="preserve" xmlns:serif="http://www.serif.com/" style="fill-rule:evenodd;clip-rule:evenodd;stroke-linejoin:round;stroke-miterlimit:2;"><rect id="logofolio-pp-4" x="0" y="0" width="2160" height="2160" style="fill:#fff;"/><g id="logofolio-pp-41" serif:id="logofolio-pp-4"><g><g><clipPath id="_clip1"><rect x="587.708" y="927.552" width="1014.58" height="303.437"/></clipPath><g clip-path="url(#_clip1)"><rect x="963.7" y="972.9" width="17.887" height="77.289"/><path d="M1034.81,989.904c7.361,-0 13.304,2.208 17.831,6.624c4.528,4.417 6.791,10.968 6.791,19.653l-0,34.008l-17.225,0l0,-31.358c0,-4.711 -1.03,-8.225 -3.091,-10.544c-2.061,-2.319 -5.042,-3.478 -8.943,-3.478c-4.344,0 -7.803,1.344 -10.379,4.03c-2.576,2.687 -3.864,6.68 -3.864,11.98l-0,29.37l-17.224,0l-0,-59.402l16.451,-0l-0,6.955c2.282,-2.502 5.115,-4.434 8.501,-5.796c3.386,-1.361 7.104,-2.042 11.152,-2.042Z" style="fill-rule:nonzero;"/><path d="M1094.98,1051.07c-4.931,0 -9.753,-0.607 -14.463,-1.822c-4.711,-1.215 -8.465,-2.742 -11.262,-4.582l5.742,-12.366c2.649,1.693 5.851,3.073 9.605,4.14c3.754,1.068 7.434,1.601 11.041,1.601c7.287,0 10.931,-1.803 10.931,-5.41c0,-1.693 -0.994,-2.907 -2.981,-3.643c-1.988,-0.737 -5.042,-1.362 -9.164,-1.877c-4.858,-0.736 -8.87,-1.583 -12.035,-2.54c-3.165,-0.957 -5.907,-2.65 -8.226,-5.079c-2.319,-2.429 -3.478,-5.889 -3.478,-10.379c0,-3.754 1.086,-7.085 3.257,-9.992c2.171,-2.908 5.336,-5.171 9.496,-6.79c4.159,-1.62 9.072,-2.429 14.74,-2.429c4.195,-0 8.373,0.46 12.531,1.379c4.159,0.921 7.601,2.19 10.324,3.81l-5.742,12.256c-5.225,-2.944 -10.93,-4.417 -17.113,-4.417c-3.68,0 -6.441,0.515 -8.281,1.546c-1.84,1.031 -2.76,2.356 -2.76,3.975c-0,1.84 0.993,3.128 2.981,3.865c1.987,0.735 5.152,1.435 9.495,2.097c4.858,0.81 8.833,1.674 11.925,2.595c3.091,0.919 5.778,2.594 8.06,5.023c2.281,2.43 3.423,5.815 3.423,10.159c-0,3.68 -1.105,6.955 -3.313,9.826c-2.208,2.871 -5.428,5.098 -9.661,6.68c-4.232,1.583 -9.256,2.374 -15.072,2.374Z" style="fill-rule:nonzero;"/><path d="M1168.74,989.904c5.52,-0 10.543,1.269 15.07,3.809c4.527,2.539 8.079,6.109 10.655,10.71c2.577,4.601 3.865,9.955 3.865,16.065c-0,6.11 -1.288,11.464 -3.865,16.065c-2.576,4.6 -6.128,8.17 -10.655,10.71c-4.527,2.539 -9.55,3.809 -15.07,3.809c-7.582,0 -13.545,-2.393 -17.888,-7.177l0,27.713l-17.224,0l-0,-80.821l16.452,-0l-0,6.845c4.269,-5.152 10.489,-7.728 18.66,-7.728Zm-2.982,47.035c4.416,-0 8.041,-1.49 10.876,-4.472c2.834,-2.981 4.251,-6.974 4.251,-11.979c-0,-5.005 -1.417,-8.999 -4.251,-11.98c-2.835,-2.982 -6.46,-4.472 -10.876,-4.472c-4.416,0 -8.042,1.49 -10.875,4.472c-2.834,2.981 -4.251,6.975 -4.251,11.98c0,5.005 1.417,8.998 4.251,11.979c2.833,2.982 6.459,4.472 10.875,4.472Z" style="fill-rule:nonzero;"/><path d="M1209.81,990.787l17.225,-0l-0,59.402l-17.225,0l0,-59.402Zm8.613,-8.281c-3.165,-0 -5.742,-0.92 -7.729,-2.761c-1.988,-1.84 -2.982,-4.121 -2.982,-6.845c0,-2.723 0.994,-5.006 2.982,-6.846c1.987,-1.84 4.564,-2.76 7.729,-2.76c3.165,-0 5.742,0.883 7.728,2.65c1.988,1.767 2.982,3.975 2.982,6.625c-0,2.871 -0.994,5.244 -2.982,7.121c-1.986,1.878 -4.563,2.816 -7.728,2.816Z" style="fill-rule:nonzero;"/><path d="M1259.5,998.626c2.06,-2.87 4.839,-5.042 8.336,-6.514c3.496,-1.473 7.526,-2.208 12.09,-2.208l-0,15.899c-1.914,-0.148 -3.202,-0.221 -3.865,-0.221c-4.931,0 -8.796,1.38 -11.594,4.14c-2.796,2.761 -4.195,6.901 -4.195,12.422l0,28.045l-17.224,0l0,-59.402l16.452,-0l-0,7.839Z" style="fill-rule:nonzero;"/><path d="M1313.82,989.904c9.201,-0 16.268,2.189 21.2,6.569c4.931,4.38 7.397,10.986 7.397,19.819l-0,33.897l-16.12,0l-0,-7.398c-3.239,5.521 -9.275,8.281 -18.108,8.281c-4.563,0 -8.52,-0.773 -11.869,-2.318c-3.349,-1.546 -5.907,-3.681 -7.674,-6.405c-1.767,-2.723 -2.65,-5.815 -2.65,-9.274c-0,-5.521 2.079,-9.864 6.238,-13.029c4.16,-3.165 10.582,-4.748 19.268,-4.748l13.69,-0c0,-3.753 -1.14,-6.643 -3.422,-8.667c-2.282,-2.024 -5.705,-3.036 -10.268,-3.036c-3.165,-0 -6.276,0.497 -9.33,1.491c-3.055,0.993 -5.65,2.336 -7.784,4.029l-6.184,-12.035c3.24,-2.282 7.122,-4.048 11.649,-5.299c4.527,-1.252 9.182,-1.877 13.967,-1.877Zm-1.325,49.575c2.944,-0 5.557,-0.682 7.839,-2.043c2.283,-1.362 3.902,-3.368 4.858,-6.017l0,-6.073l-11.813,-0c-7.067,-0 -10.6,2.319 -10.6,6.956c-0,2.208 0.865,3.957 2.595,5.245c1.729,1.288 4.103,1.932 7.121,1.932Z" style="fill-rule:nonzero;"/><path d="M1396.3,1047.32c-1.693,1.251 -3.772,2.19 -6.238,2.815c-2.466,0.626 -5.061,0.939 -7.784,0.939c-7.066,0 -12.532,-1.803 -16.396,-5.41c-3.865,-3.607 -5.797,-8.907 -5.797,-15.899l-0,-24.402l-9.164,0l-0,-13.249l9.164,0l-0,-14.465l17.224,0l-0,14.465l14.796,0l-0,13.249l-14.796,0l-0,24.181c-0,2.502 0.645,4.434 1.933,5.796c1.288,1.362 3.109,2.043 5.465,2.043c2.723,-0 5.042,-0.736 6.956,-2.209l4.637,12.146Z" style="fill-rule:nonzero;"/><path d="M1406.01,990.787l17.229,-0l-0,59.402l-17.229,0l0,-59.402Zm8.615,-8.281c-3.161,-0 -5.74,-0.92 -7.73,-2.761c-1.989,-1.84 -2.975,-4.121 -2.975,-6.845c0,-2.723 0.986,-5.006 2.975,-6.846c1.99,-1.84 4.569,-2.76 7.73,-2.76c3.169,-0 5.74,0.883 7.729,2.65c1.989,1.767 2.984,3.975 2.984,6.625c-0,2.871 -0.995,5.244 -2.984,7.121c-1.989,1.878 -4.56,2.816 -7.729,2.816Z" style="fill-rule:nonzero;"/><path d="M1467.51,1051.07c-6.254,0 -11.867,-1.307 -16.84,-3.92c-4.965,-2.613 -8.851,-6.238 -11.649,-10.876c-2.798,-4.636 -4.198,-9.899 -4.198,-15.788c0,-5.889 1.4,-11.152 4.198,-15.789c2.798,-4.638 6.684,-8.263 11.649,-10.876c4.973,-2.613 10.586,-3.919 16.84,-3.919c6.255,-0 11.851,1.306 16.782,3.919c4.931,2.613 8.8,6.238 11.59,10.876c2.798,4.637 4.197,9.9 4.197,15.789c0,5.889 -1.399,11.152 -4.197,15.788c-2.79,4.638 -6.659,8.263 -11.59,10.876c-4.931,2.613 -10.527,3.92 -16.782,3.92Zm0,-14.133c4.417,-0 8.041,-1.49 10.874,-4.472c2.832,-2.981 4.248,-6.974 4.248,-11.979c-0,-5.005 -1.416,-8.999 -4.248,-11.98c-2.833,-2.982 -6.457,-4.472 -10.874,-4.472c-4.416,0 -8.058,1.49 -10.932,4.472c-2.874,2.981 -4.307,6.975 -4.307,11.98c0,5.005 1.433,8.998 4.307,11.979c2.874,2.982 6.516,4.472 10.932,4.472Z" style="fill-rule:nonzero;"/><path d="M1547.67,989.904c7.359,-0 13.309,2.208 17.836,6.624c4.526,4.417 6.785,10.968 6.785,19.653l-0,34.008l-17.22,0l-0,-31.358c-0,-4.711 -1.037,-8.225 -3.094,-10.544c-2.065,-2.319 -5.04,-3.478 -8.943,-3.478c-4.34,0 -7.805,1.344 -10.375,4.03c-2.58,2.687 -3.869,6.68 -3.869,11.98l-0,29.37l-17.22,0l-0,-59.402l16.444,-0l0,6.955c2.285,-2.502 5.117,-4.434 8.505,-5.796c3.388,-1.361 7.105,-2.042 11.151,-2.042Z" style="fill-rule:nonzero;"/><path d="M981.588,1111.47l-0,20.427l35.773,-0l0,14.353l-35.773,0l-0,28.156l-17.888,-0l0,-77.289l58.408,-0l0,14.353l-40.52,0Z" style="fill-rule:nonzero;"/><path d="M1055.34,1114.12c9.201,0 16.267,2.19 21.199,6.57c4.932,4.379 7.398,10.986 7.398,19.819l-0,33.897l-16.121,-0l0,-7.398c-3.239,5.521 -9.275,8.281 -18.107,8.281c-4.564,-0 -8.52,-0.773 -11.87,-2.319c-3.348,-1.546 -5.907,-3.68 -7.673,-6.404c-1.767,-2.723 -2.65,-5.815 -2.65,-9.274c-0,-5.521 2.079,-9.864 6.238,-13.029c4.159,-3.165 10.581,-4.748 19.267,-4.748l13.691,0c0,-3.754 -1.141,-6.643 -3.423,-8.667c-2.281,-2.025 -5.704,-3.037 -10.268,-3.037c-3.165,0 -6.275,0.497 -9.329,1.491c-3.055,0.994 -5.65,2.338 -7.784,4.03l-6.184,-12.035c3.238,-2.281 7.122,-4.048 11.649,-5.3c4.527,-1.251 9.182,-1.877 13.967,-1.877Zm-1.325,49.576c2.944,-0 5.557,-0.681 7.839,-2.043c2.282,-1.362 3.902,-3.368 4.858,-6.017l0,-6.073l-11.814,-0c-7.066,-0 -10.6,2.318 -10.6,6.956c0,2.208 0.865,3.956 2.596,5.244c1.729,1.289 4.103,1.933 7.121,1.933Z" style="fill-rule:nonzero;"/><path d="M1175.58,1114.12c7.434,0 13.342,2.19 17.721,6.57c4.38,4.379 6.57,10.95 6.57,19.709l-0,34.007l-17.225,-0l0,-31.357c0,-4.711 -0.975,-8.226 -2.926,-10.545c-1.95,-2.318 -4.729,-3.478 -8.336,-3.478c-4.049,-0 -7.251,1.306 -9.606,3.92c-2.355,2.613 -3.533,6.496 -3.533,11.649l0,29.811l-17.224,-0l-0,-31.357c-0,-9.349 -3.754,-14.023 -11.262,-14.023c-3.975,-0 -7.14,1.306 -9.496,3.92c-2.355,2.613 -3.533,6.496 -3.533,11.649l-0,29.811l-17.224,-0l-0,-59.402l16.451,-0l-0,6.845c2.208,-2.502 4.914,-4.416 8.115,-5.741c3.202,-1.325 6.717,-1.988 10.545,-1.988c4.195,0 7.987,0.829 11.373,2.485c3.385,1.656 6.109,4.067 8.17,7.232c2.429,-3.092 5.502,-5.484 9.219,-7.177c3.717,-1.693 7.784,-2.54 12.201,-2.54Z" style="fill-rule:nonzero;"/><path d="M1215.33,1115l17.225,-0l-0,59.402l-17.225,-0l0,-59.402Zm8.613,-8.281c-3.166,0 -5.742,-0.92 -7.729,-2.76c-1.988,-1.84 -2.982,-4.123 -2.982,-6.846c0,-2.724 0.994,-5.005 2.982,-6.846c1.987,-1.84 4.563,-2.76 7.729,-2.76c3.165,0 5.741,0.884 7.728,2.65c1.988,1.766 2.981,3.975 2.981,6.625c0,2.87 -0.993,5.244 -2.981,7.121c-1.987,1.877 -4.563,2.816 -7.728,2.816Z" style="fill-rule:nonzero;"/><rect x="1248.56" y="1092.48" width="17.224" height="81.926"/><path d="M1340.76,1115l-26.829,63.045c-2.724,6.846 -6.092,11.667 -10.103,14.464c-4.012,2.797 -8.852,4.196 -14.519,4.196c-3.092,-0 -6.147,-0.479 -9.164,-1.435c-3.019,-0.957 -5.484,-2.282 -7.398,-3.975l6.294,-12.256c1.325,1.178 2.852,2.098 4.581,2.76c1.73,0.663 3.442,0.994 5.134,0.994c2.356,-0 4.27,-0.571 5.742,-1.711c1.472,-1.141 2.797,-3.037 3.975,-5.687l0.221,-0.552l-25.726,-59.843l17.776,-0l16.672,40.3l16.783,-40.3l16.561,-0Z" style="fill-rule:nonzero;"/><path d="M662.326,1108.84c6.216,-7.365 9.964,-16.876 9.964,-27.256c-0,-23.341 -18.95,-42.291 -42.291,-42.291c-23.341,-0 -42.291,18.95 -42.291,42.291c0,10.272 3.671,19.694 9.77,27.024l-0.009,-0c26.965,32.459 23.573,47.403 5.837,73.616l0.003,-0c-3.441,5.072 -5.451,11.19 -5.451,17.774c-0,17.506 14.212,31.718 31.718,31.718c17.506,0 31.718,-14.212 31.718,-31.718c0,-6.503 -1.961,-12.552 -5.324,-17.586l0.002,0c-17.547,-26.338 -20.833,-41.307 6.363,-73.572l-0.009,-0Zm77.629,43.581c21.007,0 38.062,17.055 38.062,38.062c0,21.007 -17.055,38.062 -38.062,38.062c-21.007,-0 -38.062,-17.055 -38.062,-38.062c0,-21.007 17.055,-38.062 38.062,-38.062Zm109.956,12.687c14.005,0 25.375,11.37 25.375,25.375c0,14.004 -11.37,25.374 -25.375,25.374c-14.004,0 -25.374,-11.37 -25.374,-25.374c0,-14.005 11.37,-25.375 25.374,-25.375Zm-27.255,-52.255c7.364,6.217 16.876,9.964 27.255,9.964c23.341,0 42.291,-18.949 42.291,-42.291c0,-23.341 -18.95,-42.29 -42.291,-42.29c-10.272,-0 -19.693,3.671 -27.023,9.77l-0,-0.01c-32.459,26.965 -47.404,23.573 -73.617,5.838l0,0.003c-5.072,-3.441 -11.19,-5.451 -17.774,-5.451c-17.506,-0 -31.718,14.212 -31.718,31.717c0,17.506 14.212,31.719 31.718,31.719c6.503,-0 12.552,-1.962 17.587,-5.325l-0,0.003c26.338,-17.548 41.307,-20.833 73.572,6.363l0,-0.01Zm-55.445,-109.956c-7.365,6.216 -16.876,9.964 -27.256,9.964c-23.341,-0 -42.291,-18.95 -42.291,-42.291c0,-23.341 18.95,-42.29 42.291,-42.29c10.272,-0 19.695,3.67 27.025,9.769l-0,-0.009c32.458,26.965 47.403,23.573 73.615,5.838l0,0.002c5.073,-3.44 11.191,-5.451 17.775,-5.451c17.506,0 31.718,14.213 31.718,31.718c0,17.506 -14.212,31.719 -31.718,31.719c-6.504,-0 -12.552,-1.962 -17.586,-5.325l-0,0.003c-26.339,-17.548 -41.307,-20.833 -73.573,6.362l0,-0.009Zm-137.212,-57.701c14.005,0 25.375,11.37 25.375,25.374c-0,14.005 -11.37,25.375 -25.375,25.375c-14.005,0 -25.374,-11.37 -25.374,-25.375c-0,-14.004 11.369,-25.374 25.374,-25.374Z"/></g></g></g></g></svg>