<?xml version="1.0" encoding="UTF-8" standalone="no"?>
<!DOCTYPE svg PUBLIC "-//W3C//DTD SVG 1.1//EN" "http://www.w3.org/Graphics/SVG/1.1/DTD/svg11.dtd">
<svg width="100%" height="100%" viewBox="0 0 2500 1250" version="1.1" xmlns="http://www.w3.org/2000/svg" xmlns:xlink="http://www.w3.org/1999/xlink" xml:space="preserve" xmlns:serif="http://www.serif.com/" style="fill-rule:evenodd;clip-rule:evenodd;stroke-linejoin:round;stroke-miterlimit:2;">
    <rect id="logo-jrs" x="0" y="0" width="2500" height="1250" style="fill:none;"/>
    <g>
        <g transform="matrix(0.788133,0,0,0.788133,-417.519,283.262)">
            <g transform="matrix(119.994,0,0,119.994,2142.33,355.379)">
                <path d="M0.27,0.01c-0.049,0 -0.093,-0.008 -0.13,-0.025c-0.037,-0.017 -0.067,-0.042 -0.088,-0.077c-0.021,-0.034 -0.033,-0.078 -0.035,-0.131l0.001,-0.003l0.134,-0c0.002,0.046 0.013,0.079 0.031,0.097c0.018,0.019 0.043,0.028 0.073,0.028c0.019,-0 0.037,-0.004 0.051,-0.013c0.015,-0.008 0.027,-0.021 0.036,-0.038c0.008,-0.016 0.012,-0.037 0.012,-0.061l0,-0.397l-0.095,-0.015l-0,-0.086l0.314,0l-0,0.086l-0.076,0.015l-0,0.397c-0,0.045 -0.009,0.085 -0.027,0.118c-0.017,0.034 -0.043,0.06 -0.077,0.078c-0.034,0.018 -0.075,0.027 -0.124,0.027Z" style="fill-rule:nonzero;"/>
            </g>
            <g transform="matrix(119.994,0,0,119.994,2206.9,355.379)">
                <path d="M0.02,-0l0,-0.085l0.051,-0.008l0.226,-0.618l0.146,0l0.224,0.618l0.051,0.008l0,0.085l-0.242,-0l0,-0.085l0.049,-0.009l-0.031,-0.098l-0.25,0l-0.031,0.098l0.049,0.009l0,0.085l-0.242,-0Zm0.258,-0.297l0.182,0l-0.083,-0.244l-0.006,-0.021l-0.003,-0l-0.008,0.023l-0.082,0.242Z" style="fill-rule:nonzero;"/>
            </g>
            <g transform="matrix(119.994,0,0,119.994,2295.49,355.379)">
                <path d="M0.027,-0l0,-0.085l0.076,-0.015l0,-0.51l-0.076,-0.015l0,-0.086l0.339,0c0.054,0 0.101,0.01 0.14,0.029c0.04,0.019 0.07,0.045 0.091,0.079c0.021,0.034 0.032,0.074 0.032,0.119c-0,0.045 -0.011,0.085 -0.032,0.119c-0.021,0.034 -0.051,0.06 -0.091,0.079c-0.039,0.019 -0.086,0.028 -0.14,0.028l-0.12,0l-0,0.158l0.076,0.015l-0,0.085l-0.295,-0Zm0.219,-0.368l0.12,0c0.039,0 0.069,-0.01 0.09,-0.032c0.02,-0.022 0.03,-0.049 0.03,-0.083c0,-0.034 -0.01,-0.062 -0.03,-0.085c-0.021,-0.022 -0.051,-0.033 -0.09,-0.033l-0.12,-0l-0,0.233Z" style="fill-rule:nonzero;"/>
            </g>
            <g transform="matrix(119.994,0,0,119.994,2359.29,355.379)">
                <path d="M0.02,-0l0,-0.085l0.051,-0.008l0.226,-0.618l0.146,0l0.224,0.618l0.051,0.008l0,0.085l-0.242,-0l0,-0.085l0.049,-0.009l-0.031,-0.098l-0.25,0l-0.031,0.098l0.049,0.009l0,0.085l-0.242,-0Zm0.258,-0.297l0.182,0l-0.083,-0.244l-0.006,-0.021l-0.003,-0l-0.008,0.023l-0.082,0.242Z" style="fill-rule:nonzero;"/>
            </g>
            <g transform="matrix(119.994,0,0,119.994,2447.88,355.379)">
                <path d="M0.027,-0l0,-0.085l0.076,-0.015l0,-0.51l-0.076,-0.015l0,-0.086l0.221,0l0.309,0.493l0.003,-0l0,-0.392l-0.091,-0.015l0,-0.086l0.295,0l-0,0.086l-0.077,0.015l0,0.61l-0.137,-0l-0.317,-0.488l-0.003,0l0,0.388l0.092,0.015l-0,0.085l-0.295,-0Z" style="fill-rule:nonzero;"/>
            </g>
            <g transform="matrix(119.994,0,0,119.994,2142.33,475.373)">
                <path d="M0.027,-0l0,-0.085l0.076,-0.015l0,-0.51l-0.076,-0.015l0,-0.086l0.337,0c0.055,0 0.102,0.009 0.141,0.025c0.039,0.017 0.069,0.042 0.09,0.073c0.021,0.032 0.031,0.07 0.031,0.114c0,0.042 -0.01,0.079 -0.031,0.112c-0.021,0.033 -0.05,0.059 -0.087,0.077c-0.037,0.019 -0.08,0.029 -0.128,0.029l-0.134,0l-0,0.181l0.076,0.015l-0,0.085l-0.295,-0Zm0.458,-0l-0.12,-0.307l0.129,-0.032l0.103,0.239l0.061,0.015l-0,0.085l-0.173,-0Zm-0.239,-0.391l0.116,0c0.041,0 0.072,-0.008 0.092,-0.026c0.02,-0.017 0.03,-0.042 0.03,-0.076c0,-0.033 -0.01,-0.059 -0.03,-0.079c-0.02,-0.019 -0.05,-0.029 -0.09,-0.029l-0.118,-0l-0,0.21Z" style="fill-rule:nonzero;"/>
            </g>
            <g transform="matrix(119.994,0,0,119.994,2224.83,475.373)">
                <path d="M0.353,0.01c-0.048,0 -0.091,-0.009 -0.131,-0.027c-0.039,-0.018 -0.073,-0.043 -0.102,-0.075c-0.028,-0.032 -0.05,-0.071 -0.065,-0.114c-0.016,-0.044 -0.023,-0.092 -0.023,-0.144l-0,-0.011c-0,-0.052 0.007,-0.099 0.023,-0.143c0.015,-0.044 0.037,-0.082 0.065,-0.115c0.028,-0.032 0.062,-0.057 0.102,-0.075c0.039,-0.018 0.083,-0.027 0.131,-0.027c0.048,-0 0.092,0.009 0.131,0.027c0.04,0.018 0.074,0.043 0.103,0.075c0.029,0.033 0.051,0.071 0.066,0.115c0.016,0.044 0.023,0.091 0.023,0.143l0,0.011c0,0.052 -0.007,0.1 -0.023,0.144c-0.015,0.043 -0.037,0.082 -0.066,0.114c-0.029,0.032 -0.063,0.057 -0.102,0.075c-0.04,0.018 -0.084,0.027 -0.132,0.027Zm0,-0.111c0.04,0 0.074,-0.01 0.101,-0.031c0.026,-0.021 0.046,-0.05 0.06,-0.087c0.013,-0.038 0.02,-0.081 0.02,-0.131l0,-0.012c0,-0.049 -0.007,-0.092 -0.02,-0.129c-0.014,-0.038 -0.034,-0.067 -0.061,-0.088c-0.027,-0.02 -0.06,-0.031 -0.1,-0.031c-0.04,0 -0.073,0.01 -0.1,0.031c-0.026,0.021 -0.046,0.05 -0.059,0.087c-0.013,0.037 -0.02,0.08 -0.02,0.13l0,0.012c0,0.05 0.007,0.093 0.02,0.131c0.013,0.037 0.033,0.066 0.06,0.087c0.026,0.021 0.059,0.031 0.099,0.031Z" style="fill-rule:nonzero;"/>
            </g>
            <g transform="matrix(119.994,0,0,119.994,2307.03,475.373)">
                <path d="M0.221,-0l-0,-0.085l0.076,-0.015l-0,-0.144l-0.211,-0.371l-0.068,-0.01l-0,-0.086l0.283,0l0,0.086l-0.058,0.008l0.118,0.227l0.011,0.023l0.003,-0l0.011,-0.022l0.131,-0.228l-0.078,-0.008l-0,-0.086l0.278,0l0,0.086l-0.07,0.01l-0.208,0.36l-0,0.155l0.076,0.015l0,0.085l-0.294,-0Z" style="fill-rule:nonzero;"/>
            </g>
            <g transform="matrix(119.994,0,0,119.994,2380.38,475.373)">
                <path d="M0.02,-0l0,-0.085l0.051,-0.008l0.226,-0.618l0.146,0l0.224,0.618l0.051,0.008l0,0.085l-0.242,-0l0,-0.085l0.049,-0.009l-0.031,-0.098l-0.25,0l-0.031,0.098l0.049,0.009l0,0.085l-0.242,-0Zm0.258,-0.297l0.182,0l-0.083,-0.244l-0.006,-0.021l-0.003,-0l-0.008,0.023l-0.082,0.242Z" style="fill-rule:nonzero;"/>
            </g>
            <g transform="matrix(119.994,0,0,119.994,2468.97,475.373)">
                <path d="M0.027,-0l0,-0.085l0.076,-0.015l0,-0.51l-0.076,-0.015l0,-0.086l0.305,0l-0,0.086l-0.086,0.015l-0,0.501l0.2,-0l0.007,-0.104l0.109,-0l0,0.213l-0.535,-0Z" style="fill-rule:nonzero;"/>
            </g>
            <g transform="matrix(119.994,0,0,119.994,2142.33,595.367)">
                <path d="M0.317,0.01c-0.052,0 -0.1,-0.006 -0.143,-0.017c-0.043,-0.012 -0.085,-0.032 -0.127,-0.061l0,-0.172l0.111,-0l0.015,0.101c0.015,0.012 0.035,0.022 0.06,0.03c0.026,0.008 0.054,0.011 0.084,0.011c0.026,0 0.048,-0.003 0.066,-0.01c0.017,-0.008 0.031,-0.018 0.04,-0.031c0.009,-0.013 0.014,-0.029 0.014,-0.047c0,-0.016 -0.004,-0.032 -0.012,-0.045c-0.009,-0.013 -0.022,-0.025 -0.041,-0.036c-0.019,-0.011 -0.045,-0.021 -0.078,-0.031c-0.056,-0.017 -0.103,-0.035 -0.14,-0.055c-0.037,-0.019 -0.064,-0.043 -0.083,-0.071c-0.018,-0.027 -0.027,-0.06 -0.027,-0.099c-0,-0.038 0.01,-0.072 0.032,-0.102c0.021,-0.029 0.051,-0.052 0.088,-0.069c0.038,-0.017 0.082,-0.026 0.131,-0.027c0.055,-0 0.103,0.006 0.145,0.02c0.043,0.013 0.079,0.033 0.11,0.057l-0,0.16l-0.107,0l-0.019,-0.098c-0.012,-0.007 -0.029,-0.014 -0.05,-0.02c-0.021,-0.006 -0.045,-0.009 -0.072,-0.009c-0.022,0 -0.042,0.004 -0.06,0.01c-0.017,0.007 -0.031,0.017 -0.041,0.03c-0.01,0.013 -0.015,0.029 -0.015,0.048c-0,0.016 0.004,0.029 0.013,0.041c0.009,0.012 0.023,0.023 0.044,0.034c0.021,0.011 0.049,0.022 0.086,0.034c0.078,0.022 0.138,0.051 0.178,0.086c0.041,0.036 0.061,0.083 0.061,0.141c0,0.041 -0.011,0.076 -0.033,0.105c-0.021,0.03 -0.052,0.052 -0.091,0.068c-0.04,0.016 -0.086,0.024 -0.139,0.024Z" style="fill-rule:nonzero;"/>
            </g>
            <g transform="matrix(119.994,0,0,119.994,2215.39,595.367)">
                <path d="M0.027,-0l0,-0.085l0.076,-0.015l0,-0.51l-0.076,-0.015l0,-0.086l0.552,0l0,0.192l-0.109,-0l-0.007,-0.082l-0.217,-0l-0,0.179l0.24,-0l0,0.109l-0.24,0l-0,0.204l0.229,-0l0.006,-0.085l0.109,-0l-0,0.194l-0.563,-0Z" style="fill-rule:nonzero;"/>
            </g>
            <g transform="matrix(119.994,0,0,119.994,2292.03,595.367)">
                <path d="M0.027,-0l0,-0.085l0.076,-0.015l0,-0.51l-0.076,-0.015l0,-0.086l0.337,0c0.055,0 0.102,0.009 0.141,0.025c0.039,0.017 0.069,0.042 0.09,0.073c0.021,0.032 0.031,0.07 0.031,0.114c0,0.042 -0.01,0.079 -0.031,0.112c-0.021,0.033 -0.05,0.059 -0.087,0.077c-0.037,0.019 -0.08,0.029 -0.128,0.029l-0.134,0l-0,0.181l0.076,0.015l-0,0.085l-0.295,-0Zm0.458,-0l-0.12,-0.307l0.129,-0.032l0.103,0.239l0.061,0.015l-0,0.085l-0.173,-0Zm-0.239,-0.391l0.116,0c0.041,0 0.072,-0.008 0.092,-0.026c0.02,-0.017 0.03,-0.042 0.03,-0.076c0,-0.033 -0.01,-0.059 -0.03,-0.079c-0.02,-0.019 -0.05,-0.029 -0.09,-0.029l-0.118,-0l-0,0.21Z" style="fill-rule:nonzero;"/>
            </g>
            <g transform="matrix(119.994,0,0,119.994,2369.25,595.367)">
                <path d="M0.309,-0l-0.229,-0.617l-0.063,-0.008l-0,-0.086l0.282,0l0,0.086l-0.064,0.01l0.14,0.419l0.011,0.039l0.003,0l0.01,-0.038l0.14,-0.42l-0.075,-0.01l-0,-0.086l0.269,0l0,0.086l-0.064,0.008l-0.214,0.617l-0.146,-0Z" style="fill-rule:nonzero;"/>
            </g>
            <g transform="matrix(119.994,0,0,119.994,2459.19,595.367)">
                <path d="M0.027,-0l0,-0.085l0.076,-0.015l0,-0.51l-0.076,-0.015l0,-0.086l0.294,0l0,0.086l-0.075,0.015l-0,0.51l0.075,0.015l0,0.085l-0.294,-0Z" style="fill-rule:nonzero;"/>
            </g>
            <g transform="matrix(119.994,0,0,119.994,2501.02,595.367)">
                <path d="M0.366,0.01c-0.069,0 -0.129,-0.014 -0.18,-0.043c-0.052,-0.029 -0.091,-0.07 -0.119,-0.123c-0.028,-0.052 -0.042,-0.115 -0.042,-0.187l0,-0.024c0,-0.069 0.014,-0.13 0.041,-0.184c0.027,-0.053 0.065,-0.095 0.115,-0.125c0.049,-0.03 0.109,-0.045 0.177,-0.045c0.049,-0 0.094,0.007 0.136,0.02c0.042,0.014 0.08,0.035 0.113,0.063l-0,0.172l-0.106,-0l-0.015,-0.108c-0.01,-0.008 -0.022,-0.015 -0.035,-0.02c-0.013,-0.006 -0.026,-0.01 -0.041,-0.013c-0.015,-0.003 -0.031,-0.004 -0.048,-0.004c-0.041,-0 -0.075,0.01 -0.104,0.029c-0.029,0.02 -0.051,0.048 -0.067,0.085c-0.015,0.036 -0.023,0.079 -0.023,0.129l-0,0.025c-0,0.05 0.008,0.093 0.024,0.129c0.017,0.037 0.04,0.065 0.07,0.085c0.03,0.02 0.065,0.03 0.106,0.03c0.021,-0 0.041,-0.002 0.062,-0.007c0.021,-0.005 0.039,-0.011 0.056,-0.019l0.015,-0.1l0.106,0l-0,0.17c-0.028,0.019 -0.062,0.034 -0.104,0.046c-0.041,0.013 -0.087,0.019 -0.137,0.019Z" style="fill-rule:nonzero;"/>
            </g>
            <g transform="matrix(119.994,0,0,119.994,2578.42,595.367)">
                <path d="M0.027,-0l0,-0.085l0.076,-0.015l0,-0.51l-0.076,-0.015l0,-0.086l0.552,0l0,0.192l-0.109,-0l-0.007,-0.082l-0.217,-0l-0,0.179l0.24,-0l0,0.109l-0.24,0l-0,0.204l0.229,-0l0.006,-0.085l0.109,-0l-0,0.194l-0.563,-0Z" style="fill-rule:nonzero;"/>
            </g>
        </g>
        <g>
            <path d="M1005.07,595.131l13.821,-28.011c2.505,-5.072 6.601,-5.072 9.106,0l13.827,28.011c0.556,1.123 1.375,2.231 2.294,3.292l70.194,-97.968c3.477,0.305 7.011,-0.998 9.211,-4.022c3.34,-4.595 2.321,-11.028 -2.274,-14.363c-4.594,-3.34 -11.027,-2.321 -14.362,2.274c-2.232,3.067 -2.352,6.89 -0.935,10.135l-14.945,20.853c-14.583,-53.458 -67.563,-80.859 -67.563,-80.859c0,-0 -62.259,32.09 -70.425,94.696l50.418,68.314c0.588,-0.782 1.234,-1.549 1.633,-2.352Z" style="fill-rule:nonzero;"/>
            <path d="M901.608,669.116l78.932,-26.293c-0.51,-0.704 -0.977,-1.481 -1.549,-2.043l-22.366,-21.803c-4.054,-3.944 -2.788,-7.846 2.81,-8.66l30.909,-4.484c1.691,-0.247 3.45,-0.945 5.183,-1.812l-71.538,-97.123c1.349,-3.219 1.213,-6.979 -0.988,-10.003c-3.334,-4.595 -9.767,-5.614 -14.362,-2.274c-4.595,3.345 -5.614,9.767 -2.274,14.367c2.227,3.067 5.829,4.37 9.348,4.018l15.097,20.495c-55.317,-2.615 -97.716,39.275 -97.716,39.275c-0,-0 11.306,69.306 68.514,96.34Z" style="fill-rule:nonzero;"/>
            <path d="M1014.35,679.697l-27.648,14.536c-5.005,2.631 -8.318,0.226 -7.368,-5.351l5.288,-30.788c0.299,-1.765 0.147,-3.755 -0.184,-5.772l-113.139,37.589c-2.636,-2.284 -6.259,-3.319 -9.82,-2.158c-5.398,1.754 -8.355,7.557 -6.601,12.96c1.76,5.398 7.557,8.36 12.961,6.601c3.602,-1.171 5.955,-4.191 6.711,-7.641l24.019,-7.987c-19.43,51.741 7.236,104.868 7.236,104.868c0,0 69.47,10.666 112.856,-35.451l-0.62,-82.692c-1.323,0.32 -2.604,0.714 -3.691,1.286Z" style="fill-rule:nonzero;"/>
            <path d="M1062.3,653.084c-0.225,1.759 -0.283,3.471 -0.015,5.01l5.277,30.788c0.956,5.577 -2.358,7.982 -7.362,5.351l-27.648,-14.536c-1.255,-0.661 -2.71,-1.155 -4.264,-1.48l0.777,118.358c-2.983,1.802 -5.083,4.926 -5.083,8.67c-0,5.677 4.605,10.282 10.282,10.282c5.676,0 10.282,-4.605 10.282,-10.282c-0,-3.791 -2.148,-6.963 -5.199,-8.748l-0.163,-25.427c43.187,34.422 101.912,25.484 101.912,25.484c0,0 31.555,-62.647 1.25,-118.122l-80.046,-25.348Z" style="fill-rule:nonzero;"/>
            <path d="M1192.29,667.441c-3.602,-1.176 -7.284,-0.11 -9.925,2.242l-24.434,-7.766c46.206,-30.416 55.879,-89.141 55.879,-89.141c-0,-0 -49.73,-49.262 -111.769,-37.731l-49.703,69.506c1.418,0.631 2.846,1.082 4.211,1.282l30.915,4.484c5.597,0.814 6.863,4.716 2.814,8.66l-22.37,21.803c-0.756,0.741 -1.397,1.717 -2.038,2.684l113.391,36.018c0.788,3.398 3.12,6.365 6.675,7.52c5.403,1.754 11.206,-1.203 12.96,-6.601c1.754,-5.403 -1.202,-11.206 -6.606,-12.96Z" style="fill-rule:nonzero;"/>
        </g>
    </g>
</svg>
