<?xml version="1.0" encoding="UTF-8" standalone="no"?><!DOCTYPE svg PUBLIC "-//W3C//DTD SVG 1.1//EN" "http://www.w3.org/Graphics/SVG/1.1/DTD/svg11.dtd"><svg width="100%" height="100%" viewBox="0 0 2160 2160" version="1.1" xmlns="http://www.w3.org/2000/svg" xmlns:xlink="http://www.w3.org/1999/xlink" xml:space="preserve" xmlns:serif="http://www.serif.com/" style="fill-rule:evenodd;clip-rule:evenodd;stroke-linejoin:round;stroke-miterlimit:2;"><rect id="logofolio-pp-8" x="0" y="0" width="2160" height="2160" style="fill:#fff;"/><g id="logofolio-pp-81" serif:id="logofolio-pp-8"><path d="M1121.42,1037.98c39.507,0.373 76.328,32.913 80.65,72.805c3.745,34.569 -17.249,70.46 -49.394,84.069c-27.876,11.801 -62.247,6.398 -85.212,-13.496c-26.084,-22.594 -35.313,-62.626 -21.402,-94.419c12.479,-28.52 42.076,-48.454 73.782,-48.954c0.526,-0.005 1.051,-0.007 1.576,-0.005Zm-253.821,-47.412l-80.972,-0c0.832,0.44 1.661,0.884 2.489,1.329c37.767,20.492 72.441,44.799 83.716,91.853c8.711,36.353 -6.08,77.283 -36.338,99.354c-35.636,25.994 -89.545,22.934 -122.045,-8.808c-17.895,-17.476 -28.361,-42.086 -28.588,-67.223l-0.064,-16.355l31.607,-0.122c0.056,14.462 -0.144,29.064 5.642,41.859c13.795,30.504 54.302,46.032 85.36,30.824c18.243,-8.934 31.684,-27.106 34.759,-47.183c7.697,-50.247 -40.098,-84.278 -89.12,-106.247c-17.617,-7.895 -35.864,-14.474 -54.549,-19.336c0,0 -1.168,-0.295 -1.168,-0.295l-5.188,-1.265l0,-29.992l174.459,-0l0,31.607Zm481.803,154.977c12.458,18.814 38.346,28.876 60.433,20.318c10.418,-4.037 19.363,-11.71 25.045,-21.376c0,0 27.488,15.607 27.488,15.607c-18.468,31.661 -59.771,48.047 -94.909,37.087c-32.711,-10.202 -57.072,-42.737 -57.418,-77.19c-0.426,-42.347 36.284,-81.596 80.384,-82.431c0.674,-0.009 1.347,-0.011 2.021,-0.008c30.527,0.372 59.101,19.197 72.528,47.141c1.398,2.909 1.963,4.353 2.697,6.296c3.151,8.35 4.972,13.627 6.538,21.115l-124.807,33.441Zm-53.381,-154.977l-37.388,-0l-1.043,127.092c-0.183,27.19 22.787,52.112 51.289,52.862l0.733,0.012l-0.095,29.889c-43.243,0.183 -83.1,-37.119 -83.564,-82.713l-1.302,-158.749l17.12,-0l0,-0l54.25,-0l-0,31.607Zm-320.259,-0l-37.129,-0l-0,101.559c4.345,0.534 8.643,1.36 12.868,2.457c6.25,-29.274 33.217,-53.404 64.541,-53.699l0.374,-0.001c0.034,10.535 0.069,21.071 0.103,31.607c-0.467,0.001 -0.934,0.009 -1.4,0.025c-17.715,0.731 -33.112,17.658 -33.369,35.288c29.434,18.674 50.378,51.458 50.522,88.669l-31.607,0.122c-0.003,-0.656 -0.01,-1.311 -0.025,-1.966c-0.919,-33.714 -27.8,-64.699 -62.007,-70.604l-0,72.509l-34.241,-0l-0,-237.573l17.12,-0l0,-0l54.25,-0l-0,31.607Zm144.807,79.019c-28.318,0.267 -53.29,28.198 -49.234,57.049c3.306,23.515 25.368,42.888 49.232,43.038c33.35,0.21 61.616,-39.715 45.041,-72.531c-8.139,-16.115 -25.365,-27.138 -43.741,-27.548c-0.432,-0.007 -0.865,-0.01 -1.298,-0.008Zm0.325,28.953c11.64,0 21.09,9.45 21.09,21.09c0,11.64 -9.45,21.091 -21.09,21.091c-11.64,-0 -21.09,-9.451 -21.09,-21.091c-0,-11.64 9.45,-21.09 21.09,-21.09Zm313.128,-5.453c-14.044,-26.032 -49.719,-31.57 -72.5,-13.527c-7.566,5.993 -13.459,14.629 -16.651,23.695c-1.618,4.598 -2.641,9.461 -2.924,14.326l92.075,-24.494Z"/></g></svg>