<?xml version="1.0" encoding="UTF-8" standalone="no"?><!DOCTYPE svg PUBLIC "-//W3C//DTD SVG 1.1//EN" "http://www.w3.org/Graphics/SVG/1.1/DTD/svg11.dtd"><svg width="100%" height="100%" viewBox="0 0 2160 2160" version="1.1" xmlns="http://www.w3.org/2000/svg" xmlns:xlink="http://www.w3.org/1999/xlink" xml:space="preserve" xmlns:serif="http://www.serif.com/" style="fill-rule:evenodd;clip-rule:evenodd;stroke-linejoin:round;stroke-miterlimit:2;"><rect id="logofolio-pp-10" x="0" y="0" width="2160" height="2160" style="fill:#fff;"/><g id="logofolio-pp-101" serif:id="logofolio-pp-10"><g><path d="M771.954,991.046c2.968,2.968 8.742,7.469 10.528,9.255c6.788,6.788 8.888,16.501 6.299,25.098c-0.514,1.706 -1.673,3.79 -2.861,5.653c-2.027,3.202 -2.432,7.17 -1.093,10.714c4.482,11.895 6.93,24.781 6.93,38.234c-0,30.012 -12.183,57.202 -31.87,76.888c-19.686,19.686 -46.875,31.869 -76.887,31.869c-13.454,0 -26.34,-2.448 -38.234,-6.93c-3.545,-1.338 -7.513,-0.934 -10.714,1.093c-1.863,1.188 -3.947,2.347 -5.654,2.861c-8.597,2.589 -18.309,0.49 -25.097,-6.298c-1.787,-1.787 -6.288,-7.561 -9.256,-10.529c-2.967,-2.968 -8.741,-7.469 -10.528,-9.255c-6.788,-6.788 -8.887,-16.501 -6.299,-25.098c0.514,-1.706 1.673,-3.79 2.861,-5.653c2.027,-3.202 2.432,-7.17 1.093,-10.714c-4.482,-11.895 -6.93,-24.781 -6.93,-38.234c0,-30.012 12.184,-57.202 31.87,-76.888c19.686,-19.686 46.875,-31.869 76.888,-31.869c13.453,-0 26.339,2.448 38.233,6.93c3.545,1.338 7.513,0.934 10.714,-1.093c1.863,-1.188 3.947,-2.347 5.654,-2.861c8.597,-2.589 18.309,-0.49 25.097,6.298c1.787,1.787 6.288,7.561 9.256,10.529Zm-113.864,70.682c-0,-15.156 -12.286,-27.441 -27.441,-27.441l-2.325,-0l-0,60.438c-0,15.155 12.286,27.441 27.441,27.441l2.325,0l-0,-60.438Zm39.793,-28.219c-0,-5.789 -2.412,-11.317 -6.656,-15.256l-8.227,-7.636l-8.328,7.729c-4.18,3.879 -6.555,9.324 -6.555,15.027l-0,93.118c-0,5.789 2.411,11.317 6.655,15.256l8.228,7.636l8.327,-7.729c4.18,-3.879 6.556,-9.324 6.556,-15.027l-0,-93.118Zm39.792,0.778l-2.324,-0c-15.156,-0 -27.442,12.285 -27.442,27.441l0,60.438l2.325,0c15.156,0 27.441,-12.286 27.441,-27.441l0,-60.438Z"/><g><path d="M1009.51,1151.57c-10.149,-0 -19.36,-2.364 -27.633,-7.091c-8.272,-4.727 -14.772,-11.227 -19.499,-19.5c-4.728,-8.272 -7.091,-17.483 -7.091,-27.633c-0,-10.01 2.398,-19.152 7.195,-27.424c4.797,-8.273 11.331,-14.807 19.604,-19.604c8.272,-4.797 17.414,-7.195 27.424,-7.195c10.428,0 19.743,2.329 27.946,6.987c8.203,4.657 14.633,11.087 19.291,19.291c4.658,8.203 6.987,17.518 6.987,27.945c-0,10.15 -2.364,19.361 -7.091,27.633c-4.727,8.273 -11.227,14.773 -19.5,19.5c-8.272,4.727 -17.483,7.091 -27.633,7.091Zm-33.368,-54.224c-0,10.428 3.128,18.979 9.385,25.652c6.256,6.674 14.251,10.011 23.983,10.011c9.733,-0 17.727,-3.337 23.984,-10.011c6.256,-6.673 9.384,-15.224 9.384,-25.652c0,-10.427 -3.128,-18.978 -9.384,-25.651c-6.257,-6.674 -14.251,-10.011 -23.984,-10.011c-9.732,0 -17.727,3.337 -23.983,10.011c-6.257,6.673 -9.385,15.224 -9.385,25.651Z" style="fill-rule:nonzero;"/><path d="M831.861,1081.7c-0,-16.545 2.85,-30.101 8.551,-40.667c5.7,-10.567 13.208,-18.249 22.523,-23.045c9.315,-4.797 19.534,-7.195 30.657,-7.195c8.759,-0 16.823,1.564 24.192,4.692c7.369,3.128 13.243,7.612 17.623,13.452c4.379,5.839 6.569,12.791 6.569,20.855c0,7.925 -2.329,14.737 -6.986,20.438c-4.658,5.7 -11.088,10.149 -19.291,13.347c9.315,2.503 16.267,5.735 20.855,9.698c4.588,3.962 6.882,9.767 6.882,17.414c-0,6.395 -0.313,12.2 -0.939,17.414c-0.625,5.214 -1.633,12.339 -3.024,21.376l-107.612,0l-0,-67.779Zm89.26,48.801c0.973,-6.535 1.46,-12.235 1.46,-17.101c-0,-4.588 -2.433,-8.446 -7.299,-11.575c-4.867,-3.128 -10.532,-5.457 -16.997,-6.986c-6.466,-1.53 -11.923,-2.294 -16.372,-2.294c-5.283,-0 -15.085,1.112 -29.405,3.337l-0,34.619l68.613,0Zm-25.86,-58.186c17.101,-2.502 25.651,-9.593 25.651,-21.272c0,-6.674 -2.641,-11.853 -7.925,-15.537c-5.283,-3.685 -11.956,-5.527 -20.02,-5.527c-6.952,0 -13.487,1.564 -19.604,4.693c-6.118,3.128 -11.123,8.064 -15.016,14.807c-3.893,6.743 -5.839,15.259 -5.839,25.547l-0,3.337l42.753,-6.048Z" style="fill-rule:nonzero;"/><path d="M1153.58,1045.21l-0,31.282l-18.77,0l0,-12.513l-35.871,0l0,85.506l-19.604,0l0,-104.275l74.245,-0Z" style="fill-rule:nonzero;"/><path d="M1164.6,1073.57c0,-5.84 1.669,-11.088 5.006,-15.746c3.336,-4.658 7.89,-8.273 13.66,-10.845c5.77,-2.572 12.339,-3.858 19.708,-3.858c10.427,0 19.291,2.225 26.59,6.674c7.299,4.449 11.783,10.219 13.452,17.309l-18.144,8.343c-1.113,-4.311 -3.511,-7.786 -7.195,-10.428c-3.685,-2.642 -8.377,-3.963 -14.078,-3.963c-6.117,0 -10.844,1.113 -14.181,3.337c-3.337,2.225 -5.005,5.353 -5.005,9.385c-0,3.476 1.077,6.222 3.232,8.238c2.155,2.016 4.936,3.545 8.342,4.588c3.407,1.043 8.586,2.259 15.537,3.65c8.621,1.807 15.607,3.684 20.96,5.631c5.353,1.946 9.941,5.04 13.764,9.28c3.824,4.241 5.735,10.045 5.735,17.414c0,9.037 -3.163,16.198 -9.489,21.481c-6.326,5.283 -15.12,7.925 -26.381,7.925c-3.476,-0 -6.917,-0.417 -10.324,-1.251c-3.406,-0.835 -8.098,-2.225 -14.077,-4.171c-4.171,-1.391 -7.647,-2.468 -10.428,-3.233c-2.78,-0.765 -5.213,-1.147 -7.299,-1.147c-3.754,-0 -5.561,2.433 -5.422,7.299l0.208,2.294l-17.101,-2.502c-0.417,-2.781 -0.626,-5.284 -0.626,-7.508c0,-6.257 2.121,-10.845 6.361,-13.765c4.241,-2.919 9.003,-4.379 14.286,-4.379c4.31,-0 8.203,0.452 11.679,1.355c3.476,0.904 7.786,2.329 12.93,4.276c4.449,1.668 8.099,2.92 10.949,3.754c2.85,0.834 5.874,1.251 9.072,1.251c4.727,0 8.446,-0.938 11.158,-2.815c2.711,-1.877 4.066,-4.484 4.066,-7.821c0,-4.31 -1.946,-7.612 -5.839,-9.906c-3.893,-2.294 -10.984,-4.623 -21.272,-6.987c-9.038,-2.085 -16.198,-4.136 -21.481,-6.152c-5.283,-2.016 -9.663,-5.179 -13.139,-9.489c-3.476,-4.31 -5.214,-10.15 -5.214,-17.518Z" style="fill-rule:nonzero;"/><path d="M1315.49,1151.57c-9.872,-0 -18.805,-2.329 -26.799,-6.987c-7.995,-4.657 -14.286,-11.088 -18.874,-19.291c-4.588,-8.203 -6.882,-17.518 -6.882,-27.946c-0,-9.871 2.016,-18.943 6.048,-27.216c4.032,-8.272 9.663,-14.841 16.892,-19.708c7.23,-4.866 15.503,-7.299 24.818,-7.299c4.727,0 8.794,0.556 12.2,1.668c3.407,1.113 6.987,2.642 10.741,4.589c3.615,1.946 6.256,2.919 7.925,2.919c1.807,0 2.85,-0.521 3.128,-1.564c0.278,-1.043 0.417,-2.885 0.417,-5.526l0,-2.295l15.85,4.172c0.417,2.224 0.626,4.379 0.626,6.465c-0,5.978 -1.808,10.566 -5.423,13.764c-3.615,3.198 -7.855,4.797 -12.721,4.797c-2.92,-0 -5.492,-0.417 -7.717,-1.252c-2.224,-0.834 -4.866,-2.085 -7.925,-3.754c-3.476,-1.807 -6.326,-3.128 -8.55,-3.962c-2.225,-0.834 -4.867,-1.251 -7.925,-1.251c-8.064,-0 -14.668,3.267 -19.813,9.802c-5.144,6.534 -7.716,14.946 -7.716,25.234c-0,10.984 2.92,19.813 8.759,26.486c5.84,6.674 13.486,10.011 22.941,10.011c7.647,-0 14.112,-2.259 19.395,-6.778c5.283,-4.519 8.62,-10.601 10.011,-18.248l18.144,6.465c-1.252,7.09 -4.067,13.417 -8.447,18.978c-4.379,5.561 -9.976,9.906 -16.788,13.034c-6.813,3.129 -14.251,4.693 -22.315,4.693Z" style="fill-rule:nonzero;"/><path d="M1376.64,1003.5l19.395,0l-0,92.806c8.064,-16.267 17.066,-29.198 27.007,-38.791c9.941,-9.593 19.569,-14.39 28.885,-14.39c5.005,0 8.933,2.155 11.783,6.465c2.85,4.31 4.97,11.401 6.361,21.272c0.834,6.257 1.46,17.032 1.877,32.326c0.417,15.294 0.625,30.726 0.625,46.298l-19.812,0c-0,-13.208 -0.278,-27.668 -0.834,-43.378c-0.556,-15.711 -1.182,-26.347 -1.877,-31.909c-0.417,-3.337 -0.904,-5.7 -1.46,-7.091c-0.556,-1.39 -1.46,-2.085 -2.711,-2.085c-1.391,-0 -3.824,1.39 -7.3,4.171c-4.866,3.893 -10.149,9.906 -15.849,18.04c-5.701,8.133 -11.019,17.657 -15.955,28.571c-4.935,10.914 -8.654,22.141 -11.157,33.681l-18.978,0l-0,-145.986Z" style="fill-rule:nonzero;"/><path d="M1524.86,1045.21l-0,-41.711l19.603,0l0,41.711l41.294,-0l-0,30.865l-18.77,0l-0,-13.139l-22.524,0l0,86.549l-19.603,0l-0,-86.549l-22.524,0l-0,13.139l-18.77,0l0,-30.865l41.294,-0Z" style="fill-rule:nonzero;"/></g></g></g></svg>