<?xml version="1.0" encoding="UTF-8" standalone="no"?><!DOCTYPE svg PUBLIC "-//W3C//DTD SVG 1.1//EN" "http://www.w3.org/Graphics/SVG/1.1/DTD/svg11.dtd"><svg width="100%" height="100%" viewBox="0 0 2160 2160" version="1.1" xmlns="http://www.w3.org/2000/svg" xmlns:xlink="http://www.w3.org/1999/xlink" xml:space="preserve" xmlns:serif="http://www.serif.com/" style="fill-rule:evenodd;clip-rule:evenodd;stroke-linejoin:round;stroke-miterlimit:2;"><rect id="logofolio-pp-7" x="0" y="0" width="2160" height="2160" style="fill:#fff;"/><g id="logofolio-pp-71" serif:id="logofolio-pp-7"><g><path d="M913.148,1191.52c2.072,3.551 2.086,7.939 0.039,11.504c-2.048,3.564 -5.845,5.762 -9.956,5.762c-23.097,0 -59.688,0 -73.436,0c-3.003,-0 -5.498,-2.316 -5.723,-5.31c-2.663,-31.326 -28.975,-55.942 -60.991,-55.942c-32.016,-0 -58.327,24.616 -61.024,55.939c-0.224,2.976 -2.704,5.277 -5.689,5.277c-13.749,0.036 -50.34,0.036 -73.437,0.036c-4.111,0 -7.908,-2.198 -9.955,-5.762c-2.048,-3.565 -2.033,-7.953 0.038,-11.504c27.323,-46.837 102.948,-176.481 135.192,-231.756c3.086,-5.291 8.75,-8.544 14.875,-8.544c6.125,-0 11.79,3.253 14.876,8.544c32.244,55.275 107.869,184.919 135.191,231.756Z"/><g><path d="M1259.31,1032.36l30.933,-0l0,21.506l-30.933,-0l-0,53.13c0.014,2.253 0.966,5.436 0.966,5.436c0.046,0.215 0.099,0.428 0.153,0.641c1.198,4.438 4.404,8.271 8.529,10.349c1.776,0.894 3.784,1.084 5.807,1.102l3.971,0.007l11.697,-0.026l0,22.471l-11.75,-0.026l-3.989,0.007c-6.612,-0.034 -12.84,-1.06 -20.541,-5.061c-8.245,-4.283 -14.849,-11.451 -18.665,-19.945l-0.098,-0.225c-1.742,-4.667 -2.614,-9.639 -2.645,-14.646l-0,-53.214l-4.068,-0c-8.281,-0 -14.994,-6.714 -14.994,-14.995c-0,-3.642 -0,-6.511 -0,-6.511l19.062,-0l-0,-26.237l26.565,-0l-0,26.237Z"/><path d="M971.532,1146.34l-9.661,-0c-4.567,-0 -8.947,-1.814 -12.177,-5.044c-3.23,-3.23 -5.044,-7.61 -5.044,-12.177c-0,-32.048 -0,-97.619 -0,-97.619l25.592,-0l-0,14.624c4.301,-5.162 9.677,-9.105 16.129,-11.829c6.452,-2.724 13.62,-4.086 21.506,-4.086c8.602,0 16.236,1.613 22.903,4.839c6.667,3.226 11.936,7.993 15.807,14.301c4.731,-6.021 10.824,-10.717 18.28,-14.086c7.455,-3.369 15.699,-5.054 24.731,-5.054c14.481,0 25.95,4.194 34.409,12.581c8.459,8.387 12.689,20.968 12.689,37.743l-0,65.807l-9.661,-0c-4.567,-0 -8.948,-1.814 -12.177,-5.044c-3.23,-3.23 -5.045,-7.61 -5.045,-12.177c0,-18.46 0,-45.146 0,-45.146c0,-10.035 -2.222,-17.598 -6.666,-22.688c-4.445,-5.09 -10.825,-7.635 -19.14,-7.635c-9.033,0 -16.273,2.975 -21.721,8.925c-5.448,5.95 -8.172,14.445 -8.172,25.485l-0,58.28l-9.661,-0c-4.567,-0 -8.948,-1.814 -12.177,-5.044c-3.23,-3.23 -5.044,-7.61 -5.044,-12.177c-0,-18.46 -0,-45.146 -0,-45.146c-0,-10.035 -2.223,-17.598 -6.667,-22.688c-4.445,-5.09 -10.825,-7.635 -19.14,-7.635c-9.176,0 -16.452,2.94 -21.828,8.818c-5.377,5.878 -8.065,14.409 -8.065,25.592l0,58.28Z"/><path d="M1193.79,1146.34l-9.661,-0c-4.567,-0 -8.947,-1.814 -12.177,-5.044c-3.23,-3.23 -5.044,-7.61 -5.044,-12.177c0,-32.048 0,-97.619 0,-97.619l26.882,-0l0,114.84Z"/><path d="M1546.29,1146.34l-9.661,-0c-4.567,-0 -8.947,-1.814 -12.177,-5.044c-3.23,-3.23 -5.044,-7.61 -5.044,-12.177c0,-32.048 0,-97.619 0,-97.619l26.882,-0l0,114.84Z"/><path d="M1343.07,1146.34l-9.661,-0c-4.568,-0 -8.948,-1.814 -12.178,-5.044c-3.229,-3.23 -5.044,-7.61 -5.044,-12.177c0,-32.048 0,-97.619 0,-97.619l26.883,-0l-0,114.84Z"/><path d="M1180.35,1012.14c-4.448,-0 -8.176,-1.5 -11.184,-4.5c-3.009,-3 -4.513,-6.733 -4.513,-11.198c-0,-4.465 1.504,-8.197 4.513,-11.197c3.008,-3 6.736,-4.5 11.184,-4.5c4.448,-0 8.176,1.43 11.185,4.291c3.008,2.86 4.513,6.453 4.513,10.779c-0,4.604 -1.472,8.476 -4.415,11.616c-2.944,3.139 -6.704,4.709 -11.283,4.709Z"/><path d="M1329.62,1012.14c-4.447,-0 -8.175,-1.5 -11.184,-4.5c-3.009,-3 -4.513,-6.733 -4.513,-11.198c0,-4.465 1.504,-8.197 4.513,-11.197c3.009,-3 6.737,-4.5 11.184,-4.5c4.448,-0 8.176,1.43 11.185,4.291c3.009,2.86 4.513,6.453 4.513,10.779c-0,4.604 -1.472,8.476 -4.415,11.616c-2.943,3.139 -6.704,4.709 -11.283,4.709Z"/><path d="M1532.85,1012.14c-4.448,-0 -8.176,-1.5 -11.184,-4.5c-3.009,-3 -4.513,-6.733 -4.513,-11.198c-0,-4.465 1.504,-8.197 4.513,-11.197c3.008,-3 6.736,-4.5 11.184,-4.5c4.448,-0 8.176,1.43 11.185,4.291c3.008,2.86 4.513,6.453 4.513,10.779c-0,4.604 -1.472,8.476 -4.415,11.616c-2.944,3.139 -6.704,4.709 -11.283,4.709Z"/><path d="M1400.81,1188.06l-9.66,-0c-4.568,-0 -8.948,-1.814 -12.178,-5.044c-3.229,-3.23 -5.044,-7.61 -5.044,-12.177c0,-40.682 0,-139.34 0,-139.34l25.592,-0l-0,15.054c4.444,-5.448 9.928,-9.535 16.452,-12.259c6.523,-2.724 13.728,-4.086 21.613,-4.086c11.183,0 21.183,2.438 30,7.312c8.818,4.875 15.735,11.757 20.753,20.646c5.018,8.889 7.527,19.14 7.527,30.753c0,11.613 -2.509,21.9 -7.527,30.86c-5.018,8.961 -11.935,15.879 -20.753,20.753c-8.817,4.875 -18.817,7.312 -30,7.312c-15.484,0 -27.742,-5.161 -36.775,-15.484l0,55.7Zm33.764,-63.227c9.893,0 18.029,-3.297 24.409,-9.892c6.38,-6.595 9.57,-15.269 9.57,-26.022c0,-10.753 -3.19,-19.427 -9.57,-26.022c-6.38,-6.595 -14.516,-9.893 -24.409,-9.893c-6.452,0 -12.258,1.47 -17.419,4.409c-5.162,2.939 -9.248,7.133 -12.259,12.581c-3.01,5.448 -4.516,11.756 -4.516,18.925c0,7.168 1.506,13.477 4.516,18.925c3.011,5.448 7.097,9.641 12.259,12.581c5.161,2.939 10.967,4.408 17.419,4.408Z"/></g></g></g></svg>