<?xml version="1.0" encoding="UTF-8" standalone="no"?>
<!DOCTYPE svg PUBLIC "-//W3C//DTD SVG 1.1//EN" "http://www.w3.org/Graphics/SVG/1.1/DTD/svg11.dtd">
<svg width="100%" height="100%" viewBox="0 0 2500 1250" version="1.1" xmlns="http://www.w3.org/2000/svg" xmlns:xlink="http://www.w3.org/1999/xlink" xml:space="preserve" xmlns:serif="http://www.serif.com/" style="fill-rule:evenodd;clip-rule:evenodd;stroke-linejoin:round;stroke-miterlimit:2;">
    <rect id="logo-giftbot" x="0" y="0" width="2500" height="1250" style="fill:none;"/>
    <g>
        <g>
            <path d="M1224.46,671.231c-13.188,7.597 -29.578,11.397 -49.167,11.397c-21.727,0 -38.853,-6.012 -51.382,-18.039c-12.525,-12.024 -18.788,-28.584 -18.788,-49.684c-0,-21.223 6.841,-38.522 20.531,-51.897c13.689,-13.374 31.899,-20.061 54.629,-20.061c14.319,-0 26.938,1.977 37.866,5.931l-0,28.54c-10.423,-6.028 -23.17,-9.041 -38.242,-9.041c-12.622,0 -22.904,4.096 -30.848,12.291c-7.941,8.195 -11.915,19.136 -11.915,32.825c0,13.876 3.566,24.614 10.693,32.211c7.125,7.6 16.75,11.397 28.868,11.397c7.285,0 13.062,-1.035 17.332,-3.105l-0,-26.376l-27.032,-0l-0,-24.299l57.455,-0l-0,67.91Z" style="fill-rule:nonzero;"/>
            <rect x="1239.37" y="583.822" width="29.764" height="96.45"/>
            <path d="M1324.48,583.822l44.91,0l0,-20.814l29.668,-8.478l-0,29.292l21.666,0l-0,21.949l-21.666,-0l-0,38.991c-0,10.047 3.99,15.072 11.963,15.072c3.141,-0 6.372,-0.91 9.703,-2.733l-0,22.042c-4.398,2.321 -11.021,3.485 -19.875,3.485c-20.975,0 -31.459,-10.895 -31.459,-32.683l0,-44.174l-44.91,-0l-0,74.501l-29.668,-0l0,-74.501l-16.203,-0l-0,-21.949l16.203,0l0,-11.96c0,-10.988 3.578,-19.843 10.735,-26.562c7.16,-6.719 16.891,-10.079 29.198,-10.079c6.028,0 11.054,0.63 15.072,1.884l0,23.171c-3.832,-1.508 -7.504,-2.261 -11.021,-2.261c-9.545,0 -14.316,5.18 -14.316,15.542l-0,10.265Z" style="fill-rule:nonzero;"/>
            <path d="M1469.71,622.254l-0,35.603l16.483,-0c7.031,-0 12.542,-1.633 16.528,-4.9c3.99,-3.263 5.983,-7.722 5.983,-13.374c0,-5.401 -1.964,-9.639 -5.886,-12.715c-3.926,-3.077 -9.404,-4.614 -16.439,-4.614l-16.669,0Zm-0,-54.632l-0,32.024l13.374,0c6.279,0 11.224,-1.52 14.834,-4.568c3.61,-3.045 5.417,-7.237 5.417,-12.574c0,-9.921 -7.41,-14.882 -22.228,-14.882l-11.397,-0Zm-30.424,112.65l0,-135.065l49.167,-0c15.069,-0 26.655,2.762 34.754,8.288c8.102,5.527 12.153,13.31 12.153,23.357c-0,7.285 -2.466,13.657 -7.395,19.123c-4.928,5.462 -11.223,9.262 -18.885,11.397l0,0.376c9.607,1.193 17.284,4.739 23.029,10.642c5.745,5.902 8.62,13.094 8.62,21.569c-0,12.371 -4.427,22.183 -13.281,29.436c-8.854,7.25 -20.943,10.877 -36.262,10.877l-51.9,-0Z" style="fill-rule:nonzero;"/>
            <path d="M1601.44,604.263c-7.034,-0 -12.496,2.418 -16.39,7.253c-3.893,4.835 -5.841,11.677 -5.841,20.531c-0,18.525 7.474,27.787 22.418,27.787c14.255,-0 21.379,-9.513 21.379,-28.539c0,-18.02 -7.188,-27.032 -21.566,-27.032Zm-0.755,78.365c-16.075,0 -28.713,-4.507 -37.911,-13.516c-9.198,-9.011 -13.799,-21.241 -13.799,-36.686c-0,-15.949 4.774,-28.43 14.316,-37.441c9.546,-9.012 22.45,-13.516 38.712,-13.516c16.014,-0 28.571,4.504 37.676,13.516c9.105,9.011 13.658,20.926 13.658,35.744c-0,16.014 -4.694,28.665 -14.082,37.959c-9.388,9.291 -22.245,13.94 -38.57,13.94Z" style="fill-rule:nonzero;"/>
            <path d="M1724.32,679.143c-4.395,2.321 -11.021,3.485 -19.872,3.485c-20.974,0 -31.462,-10.895 -31.462,-32.683l0,-44.174l-15.634,-0l0,-21.949l15.634,0l0,-20.814l29.672,-8.478l-0,29.292l21.662,0l0,21.949l-21.662,-0l-0,38.991c-0,10.047 3.986,15.072 11.963,15.072c3.137,-0 6.372,-0.91 9.699,-2.733l0,22.042Z" style="fill-rule:nonzero;"/>
            <path d="M1266.11,540.111l-23.334,0c-1.775,0 -3.215,1.437 -3.215,3.215l0,19.866c0,1.777 1.44,3.215 3.215,3.215l23.334,-0c1.778,-0 3.215,-1.438 3.215,-3.215l0,-19.866c0,-1.778 -1.437,-3.215 -3.215,-3.215Z" style="fill-rule:nonzero;"/>
        </g>
        <g>
            <path d="M865.486,654.86l-0.006,-0.006l-6.456,6.462c-1.061,1.064 -2.784,1.064 -3.845,0l-9.693,-9.69c-1.061,-1.061 -1.061,-2.781 -0.003,-3.845l39.412,-39.458c0.514,-0.514 0.151,-1.395 -0.579,-1.395l-103.197,0c-3.006,0 -5.44,2.437 -5.44,5.44l-0,66.174c-0,15.268 12.378,27.646 27.649,27.646l93.366,-0c3.006,-0 5.437,-2.434 5.437,-5.437l-0,-80.622c-0,-0.727 -0.878,-1.09 -1.389,-0.576l-35.256,35.307Z" style="fill-rule:nonzero;"/>
            <path d="M1042.18,606.928l-103.198,0c-0.73,0 -1.093,0.881 -0.579,1.395l39.413,39.458c1.061,1.064 1.058,2.784 -0.003,3.845l-9.694,9.69c-1.061,1.064 -2.784,1.064 -3.845,0l-6.455,-6.462l-0.007,0.006l-35.252,-35.303c-0.515,-0.518 -1.395,-0.151 -1.395,0.575l-0,80.619c-0,3.003 2.437,5.437 5.443,5.437l42.971,-0c1.627,-0 2.884,1.427 2.72,3.044c-2.643,25.974 -39.053,30.366 -49.016,31.079c-1.421,0.103 -2.504,1.286 -2.504,2.711l-0,15.062c-0,1.421 1.096,2.604 2.514,2.71c18.554,1.402 124.327,6.562 124.327,-80.477l-0,-67.949c-0,-3.003 -2.434,-5.44 -5.44,-5.44Z" style="fill-rule:nonzero;"/>
            <path d="M966.794,566.59l0.627,-0.814c0.405,-0.514 0.819,-1.025 1.189,-1.543c0.559,-0.797 1.08,-1.598 1.543,-2.405c3.913,-6.79 2.897,-11.487 1.376,-14.342c-0.691,-1.299 -1.488,-2.215 -1.974,-2.774c-0.263,-0.302 -0.559,-0.614 -0.868,-0.92l-0.302,-0.289l-0.797,-0.691l-0.315,-0.257c-0.383,-0.283 -0.791,-0.55 -1.225,-0.798l-0.36,-0.177c-0.354,-0.183 -0.733,-0.35 -1.132,-0.495l-0.485,-0.17c-0.525,-0.164 -1.074,-0.299 -1.666,-0.383l-0.077,-0.016c-0.637,-0.087 -1.331,-0.106 -2.054,-0.08l-0.367,0.019c-0.717,0.045 -1.472,0.142 -2.279,0.312l-0.335,0.08c-0.858,0.2 -1.758,0.454 -2.729,0.817c-1.73,0.649 -3.482,1.517 -5.231,2.578c-1.749,1.065 -3.495,2.322 -5.215,3.746c-1.716,1.427 -3.401,3.019 -5.034,4.758c-7.954,8.475 -14.596,20.367 -16.95,32.796c-0.096,0.505 0.302,0.977 0.817,0.977c5.002,0.004 -0.09,-0.019 0.292,-0.022c17.329,-0.244 34.578,-9.179 43.551,-19.907Z" style="fill-rule:nonzero;"/>
            <path d="M836.558,571.393c-1.489,-2.588 -2.665,-5.192 -3.53,-7.79c-0.573,-1.73 -1.01,-3.459 -1.309,-5.179c-0.148,-0.859 -0.263,-1.714 -0.341,-2.569c-0.72,-7.681 1.364,-15.091 6.199,-21.573c0.537,-0.72 1.109,-1.43 1.717,-2.125c9.156,-10.538 22.341,-13.606 36.159,-8.423c9.262,3.475 17.965,10.204 25.25,18.792c0.492,0.582 1.428,0.25 1.428,-0.512l-0,-47.941c-0,-3.003 -2.431,-5.437 -5.437,-5.437l-93.366,0c-15.271,0 -27.649,12.378 -27.649,27.649l-0,66.171c-0,3.003 2.434,5.436 5.44,5.436l67.816,0c0.762,0 1.09,-0.939 0.512,-1.434c-5.414,-4.629 -9.835,-9.77 -12.889,-15.065Z" style="fill-rule:nonzero;"/>
            <path d="M856.507,566.59c8.973,10.728 26.221,19.663 43.55,19.907c0.383,0.003 -4.71,0.026 0.293,0.022c0.514,0 0.913,-0.472 0.816,-0.977c-2.35,-12.429 -8.995,-24.321 -16.949,-32.796c-1.633,-1.739 -3.318,-3.331 -5.035,-4.758c-1.717,-1.424 -3.462,-2.681 -5.211,-3.746c-1.753,-1.061 -3.505,-1.929 -5.234,-2.578c-0.971,-0.363 -1.868,-0.617 -2.73,-0.817l-0.331,-0.08c-0.807,-0.17 -1.563,-0.267 -2.28,-0.312l-0.369,-0.019c-0.724,-0.026 -1.418,-0.007 -2.055,0.08l-0.074,0.016c-0.594,0.084 -1.144,0.222 -1.668,0.386l-0.486,0.167c-0.398,0.145 -0.774,0.312 -1.131,0.495l-0.36,0.177c-0.434,0.248 -0.843,0.515 -1.222,0.798l-0.318,0.257l-0.801,0.691l-0.299,0.289c-0.308,0.306 -0.601,0.618 -0.865,0.92c-0.488,0.559 -1.286,1.475 -1.977,2.774c-0.276,0.518 -0.537,1.1 -0.752,1.743c-0.216,0.64 -0.389,1.347 -0.492,2.115c-0.367,2.691 0.132,6.163 2.62,10.484c0.466,0.807 0.984,1.608 1.547,2.405c0.366,0.518 0.781,1.029 1.186,1.543l0.627,0.814Z" style="fill-rule:nonzero;"/>
            <path d="M1019.97,488.636l-93.363,0c-3.006,0 -5.443,2.434 -5.443,5.437l-0,47.941c-0,0.762 0.938,1.09 1.433,0.512c7.282,-8.588 15.985,-15.317 25.251,-18.792c13.815,-5.183 26.999,-2.115 36.159,8.423c0.604,0.695 1.177,1.405 1.713,2.125c4.836,6.482 6.919,13.892 6.202,21.573c-0.08,0.855 -0.196,1.71 -0.344,2.569c-0.299,1.72 -0.733,3.449 -1.308,5.179c-0.865,2.598 -2.039,5.202 -3.53,7.79c-1.656,2.874 -3.717,5.703 -6.119,8.433c-1.597,1.82 -3.353,3.591 -5.243,5.301c-0.267,0.245 -0.617,0.544 -0.99,0.856c-1.058,0.906 -1.248,1.884 0.112,1.909l67.679,0c3.006,0 5.44,-2.433 5.44,-5.436l-0,-66.174c-0,-15.268 -12.378,-27.646 -27.649,-27.646Z" style="fill-rule:nonzero;"/>
        </g>
    </g>
</svg>
