<?xml version="1.0" encoding="UTF-8" standalone="no"?><!DOCTYPE svg PUBLIC "-//W3C//DTD SVG 1.1//EN" "http://www.w3.org/Graphics/SVG/1.1/DTD/svg11.dtd"><svg width="100%" height="100%" viewBox="0 0 600 600" version="1.1" xmlns="http://www.w3.org/2000/svg" xmlns:xlink="http://www.w3.org/1999/xlink" xml:space="preserve" xmlns:serif="http://www.serif.com/" style="fill-rule:evenodd;clip-rule:evenodd;stroke-linejoin:round;stroke-miterlimit:2;"><rect id="logo-franco" x="0" y="0" width="600" height="600" style="fill:none;"/><g id="logo-franco1" serif:id="logo-franco"><g><path d="M204.198,322.431c-2.422,-2.422 -6.349,-2.422 -8.771,0c-0.001,0 -0.001,0.001 -0.001,0.001c-2.422,2.422 -2.422,6.349 0,8.771c0,0 0,0 0,0.001c1.164,1.163 2.741,1.816 4.386,1.816c1.645,0 3.223,-0.653 4.386,-1.816c0,0 0,0 0,0c2.423,-2.423 2.423,-6.35 0,-8.772c0,-0.001 0,-0.001 0,-0.001Zm-0.936,-25.828c-1.031,-1.031 -2.431,-1.611 -3.89,-1.611c-1.459,0 -2.858,0.58 -3.89,1.611c-3.956,3.956 -10.051,10.051 -14.007,14.007c-1.032,1.032 -1.611,2.431 -1.611,3.89c0,1.459 0.579,2.859 1.611,3.891c0,0 0.001,0 0.001,0c1.032,1.032 2.431,1.612 3.89,1.612c1.459,0 2.859,-0.58 3.89,-1.612c3.956,-3.956 10.051,-10.051 14.007,-14.007c1.032,-1.031 1.611,-2.431 1.611,-3.89c0,-1.459 -0.579,-2.858 -1.611,-3.89c0,0 0,0 -0.001,-0.001Zm14.437,5.859c0.521,-0.522 0.814,-1.23 0.814,-1.968c0,-0.738 -0.293,-1.445 -0.814,-1.967c-2.73,-2.73 -7.334,-7.334 -7.334,-7.334c-1.975,-1.975 -1.975,-5.178 0,-7.154c0,0 0,0 0,0c1.976,-1.976 5.179,-1.976 7.155,0l12.878,12.878c1.975,1.976 1.975,5.179 0,7.154c-3.637,3.637 -9.241,9.241 -12.879,12.879c-1.975,1.975 -5.178,1.975 -7.153,0c-0.001,0 -0.001,-0.001 -0.001,-0.001c-1.975,-1.975 -1.975,-5.178 0,-7.154c0,0 4.604,-4.604 7.334,-7.333Zm168.906,13.443c-3.116,0 -5.923,-0.653 -8.421,-1.958c-2.498,-1.305 -4.456,-3.13 -5.874,-5.474c-1.417,-2.344 -2.126,-5.003 -2.126,-7.979c0,-2.975 0.709,-5.635 2.126,-7.979c1.418,-2.344 3.376,-4.168 5.874,-5.473c2.498,-1.306 5.305,-1.958 8.421,-1.958c2.863,0 5.418,0.505 7.663,1.515c2.246,1.011 4.099,2.471 5.558,4.379l-6.273,5.6c-1.825,-2.301 -3.972,-3.452 -6.442,-3.452c-2.078,0 -3.748,0.667 -5.011,2c-1.263,1.333 -1.895,3.123 -1.895,5.368c0,2.246 0.632,4.035 1.895,5.369c1.263,1.333 2.933,2 5.011,2c2.47,0 4.617,-1.151 6.442,-3.453l6.273,5.6c-1.459,1.909 -3.312,3.369 -5.558,4.379c-2.245,1.011 -4.8,1.516 -7.663,1.516Zm30.906,0c-3.172,0 -6.021,-0.66 -8.548,-1.979c-2.526,-1.319 -4.505,-3.151 -5.937,-5.495c-1.431,-2.344 -2.147,-4.989 -2.147,-7.937c0,-2.947 0.716,-5.593 2.147,-7.937c1.432,-2.343 3.411,-4.175 5.937,-5.494c2.527,-1.32 5.376,-1.979 8.548,-1.979c3.172,0 6.021,0.659 8.547,1.979c2.526,1.319 4.505,3.151 5.937,5.494c1.432,2.344 2.147,4.99 2.147,7.937c0,2.948 -0.715,5.593 -2.147,7.937c-1.432,2.344 -3.411,4.176 -5.937,5.495c-2.526,1.319 -5.375,1.979 -8.547,1.979Zm-162.486,-0.674l-9.936,0l0,-29.474l23.958,0l0,7.495l-14.022,0l0,5.053l12.295,0l0,7.495l-12.295,0l0,9.431Zm55.453,0l-20.631,0l-5.011,-7.41l-2.695,0l0,7.41l-9.936,0l0,-29.474l14.189,0c2.723,0 5.095,0.449 7.116,1.348c2.021,0.898 3.579,2.189 4.674,3.873c1.094,1.685 1.642,3.65 1.642,5.895c0,2.106 -0.477,3.944 -1.432,5.516c-0.954,1.572 -2.33,2.821 -4.126,3.747l6.138,9.02l12.851,-29.399l9.769,0l12.884,29.474l-10.274,0l-1.979,-5.137l-11.2,0l-1.979,5.137Zm36.716,0l-9.684,0l0,-29.474l8.169,0l11.2,13.39l0,-13.39l9.684,0l0,29.474l-8.168,0l-11.201,-13.389l0,13.389Zm70.317,-7.368c1.235,0 2.351,-0.302 3.347,-0.906c0.997,-0.603 1.79,-1.459 2.379,-2.568c0.59,-1.109 0.884,-2.407 0.884,-3.895c0,-1.487 -0.294,-2.786 -0.884,-3.894c-0.589,-1.109 -1.382,-1.965 -2.379,-2.569c-0.996,-0.603 -2.112,-0.905 -3.347,-0.905c-1.235,0 -2.351,0.302 -3.348,0.905c-0.996,0.604 -1.789,1.46 -2.379,2.569c-0.589,1.108 -0.884,2.407 -0.884,3.894c0,1.488 0.295,2.786 0.884,3.895c0.59,1.109 1.383,1.965 2.379,2.568c0.997,0.604 2.113,0.906 3.348,0.906Zm-214.249,-39.272c-2.148,-2.148 -5.632,-2.148 -7.78,0c-6.883,6.883 -21.13,21.13 -28.013,28.013c-2.149,2.148 -2.149,5.632 0,7.78c0,0.001 0,0.001 0.001,0.001c2.148,2.149 5.632,2.149 7.78,0c6.883,-6.883 21.13,-21.13 28.013,-28.013c2.149,-2.148 2.149,-5.632 0,-7.78c0,-0.001 0,-0.001 -0.001,-0.001Zm117.659,34.345l-2.864,-7.41l-2.863,7.41l5.727,0Zm-31.116,-6.063c0,-1.095 -0.337,-1.944 -1.011,-2.547c-0.674,-0.604 -1.684,-0.905 -3.032,-0.905l-3.621,0l0,6.905l3.621,0c1.348,0 2.358,-0.302 3.032,-0.905c0.674,-0.604 1.011,-1.453 1.011,-2.548Z" style="fill:#fff;fill-rule:nonzero;"/></g></g></svg>
