<?xml version="1.0" encoding="UTF-8" standalone="no"?><!DOCTYPE svg PUBLIC "-//W3C//DTD SVG 1.1//EN" "http://www.w3.org/Graphics/SVG/1.1/DTD/svg11.dtd"><svg width="100%" height="100%" viewBox="0 0 600 600" version="1.1" xmlns="http://www.w3.org/2000/svg" xmlns:xlink="http://www.w3.org/1999/xlink" xml:space="preserve" xmlns:serif="http://www.serif.com/" style="fill-rule:evenodd;clip-rule:evenodd;stroke-linejoin:round;stroke-miterlimit:2;"><rect id="logo-jtbsi" x="0" y="0" width="600" height="600" style="fill:none;"/><g id="logo-jtbsi1" serif:id="logo-jtbsi"><g><path d="M203.186,343.374c-3.037,0 -5.508,2.47 -5.508,5.506c0,3.036 2.471,5.508 5.508,5.508c3.036,0 5.506,-2.472 5.506,-5.508c0,-3.036 -2.47,-5.506 -5.506,-5.506Zm0,16.758c-6.206,0 -11.254,-5.048 -11.254,-11.252c0,-6.204 5.048,-11.252 11.254,-11.252c6.203,0 11.251,5.048 11.251,11.252c0,6.204 -5.048,11.252 -11.251,11.252Z" style="fill:#fff;fill-rule:nonzero;"/><path d="M269.407,245.613c-3.036,0 -5.506,2.47 -5.506,5.507c0,3.036 2.47,5.506 5.506,5.506c3.037,0 5.508,-2.47 5.508,-5.506c0,-3.037 -2.471,-5.507 -5.508,-5.507Zm0,16.759c-6.204,0 -11.252,-5.048 -11.252,-11.252c0,-6.204 5.048,-11.252 11.252,-11.252c6.205,0 11.253,5.048 11.253,11.252c0,6.204 -5.048,11.252 -11.253,11.252Z" style="fill:#fff;fill-rule:nonzero;"/><path d="M210.217,307.459l-2.829,4.902c-0.131,0.224 -0.131,0.501 0,0.725l7.009,12.141c0.14,0.241 -0.035,0.544 -0.314,0.544l-21.795,0c-0.28,0 -0.454,-0.303 -0.315,-0.544l2.399,-4.155l2.597,-4.497l6.217,-10.768l11.211,-19.419l26.605,-46.097c0.14,-0.243 -0.035,-0.545 -0.314,-0.545l-5.658,0c-0.259,0 -0.498,0.139 -0.629,0.363l-16.336,28.312l-3.353,5.808l-11.212,19.419c-0.14,0.242 -0.49,0.242 -0.63,0l-5.112,-8.855l-5.785,-10.02c-0.139,-0.242 0.035,-0.544 0.315,-0.544l14.019,0c0.259,0 0.499,-0.139 0.628,-0.363l2.829,-4.901c0.14,-0.241 -0.035,-0.544 -0.314,-0.544l-22.718,0c-0.731,0 -1.463,0.227 -2.009,0.711c-1.08,0.956 -1.283,2.477 -0.608,3.644l8.413,14.573l7.094,12.288c0.13,0.224 0.13,0.501 0,0.725l-15.507,26.862c-0.675,1.167 -0.472,2.688 0.608,3.643c0.546,0.485 1.278,0.712 2.009,0.712l32.907,0c0.73,0 1.462,-0.227 2.009,-0.712c1.08,-0.955 1.283,-2.476 0.608,-3.643l-11.41,-19.765c-0.14,-0.241 -0.49,-0.241 -0.629,0Z" style="fill:#fff;fill-rule:nonzero;"/><path d="M262.376,292.541l2.83,-4.902c0.129,-0.224 0.129,-0.501 0,-0.725l-7.01,-12.141c-0.139,-0.241 0.035,-0.544 0.315,-0.544l21.794,0c0.279,0 0.454,0.303 0.314,0.544l-2.399,4.155l-2.596,4.497l-6.217,10.768l-11.211,19.419l-26.605,46.097c-0.14,0.243 0.034,0.545 0.314,0.545l5.657,0c0.26,0 0.5,-0.139 0.629,-0.363l16.338,-28.312l3.352,-5.808l11.213,-19.419c0.139,-0.242 0.488,-0.242 0.628,0l5.112,8.855l5.785,10.02c0.14,0.242 -0.035,0.544 -0.314,0.544l-14.019,0c-0.259,0 -0.5,0.139 -0.628,0.363l-2.83,4.901c-0.139,0.241 0.035,0.544 0.315,0.544l22.717,0c0.733,0 1.463,-0.227 2.01,-0.711c1.08,-0.956 1.282,-2.477 0.608,-3.644l-8.414,-14.573l-7.093,-12.288c-0.131,-0.224 -0.131,-0.501 0,-0.725l15.507,-26.862c0.674,-1.167 0.472,-2.688 -0.608,-3.643c-0.547,-0.485 -1.277,-0.712 -2.01,-0.712l-32.906,0c-0.731,0 -1.461,0.227 -2.01,0.712c-1.079,0.955 -1.282,2.476 -0.607,3.643l11.41,19.765c0.14,0.241 0.49,0.241 0.629,0Z" style="fill:#fff;fill-rule:nonzero;"/><path d="M247.548,300c0,-6.21 -5.042,-11.252 -11.252,-11.252c-6.21,0 -11.252,5.042 -11.252,11.252c0,6.21 5.042,11.252 11.252,11.252c6.21,0 11.252,-5.042 11.252,-11.252Z" style="fill:#fff;"/><path d="M309.796,282.379l0.762,-2.427c0.401,0.213 0.757,0.321 1.064,0.321c0.669,0 1.003,-0.415 1.003,-1.245l0,-9.891l2.809,0l0,10.132c0,1.084 -0.316,1.943 -0.952,2.578c-0.636,0.637 -1.488,0.955 -2.559,0.955c-0.777,0 -1.486,-0.143 -2.127,-0.423Z" style="fill:#fff;fill-rule:nonzero;"/><path d="M320.867,282.059c-0.843,-0.468 -1.494,-1.128 -1.956,-1.977c-0.462,-0.85 -0.692,-1.829 -0.692,-2.94l0,-8.005l2.929,0l0,7.784c0,0.991 0.238,1.777 0.713,2.359c0.474,0.581 1.12,0.872 1.936,0.872c0.815,0 1.464,-0.291 1.946,-0.872c0.482,-0.582 0.722,-1.368 0.722,-2.359l0,-7.784l2.909,0l0,8.005c0,1.111 -0.229,2.09 -0.692,2.94c-0.461,0.849 -1.113,1.509 -1.957,1.977c-0.842,0.467 -1.818,0.702 -2.928,0.702c-1.111,0 -2.087,-0.235 -2.93,-0.702Z" style="fill:#fff;fill-rule:nonzero;"/><path d="M336.377,279.972c1.35,0 2.414,-0.395 3.19,-1.184c0.775,-0.789 1.164,-1.872 1.164,-3.25c0,-1.244 -0.332,-2.201 -0.994,-2.869c-0.663,-0.669 -1.615,-1.003 -2.859,-1.003l-1.805,0l0,8.306l1.304,0Zm-4.213,2.527l0,-13.362c0.574,-0.012 1.423,-0.019 2.547,-0.019c1.137,0 1.987,0.007 2.548,0.019c1.311,0.015 2.451,0.279 3.42,0.793c0.97,0.515 1.719,1.248 2.248,2.196c0.529,0.95 0.793,2.06 0.793,3.331c0,1.392 -0.305,2.615 -0.913,3.672c-0.609,1.057 -1.466,1.879 -2.568,2.467c-1.103,0.59 -2.386,0.891 -3.843,0.903c-0.467,0.015 -1.17,0.02 -2.107,0.02c-0.949,0 -1.658,-0.005 -2.125,-0.02Z" style="fill:#fff;fill-rule:nonzero;"/><path d="M354.507,279.028c0.664,-0.788 0.994,-1.838 0.994,-3.148c0,-0.857 -0.15,-1.617 -0.451,-2.279c-0.301,-0.661 -0.73,-1.17 -1.285,-1.524c-0.554,-0.355 -1.187,-0.532 -1.897,-0.532c-0.708,0 -1.34,0.177 -1.894,0.532c-0.556,0.354 -0.984,0.863 -1.285,1.524c-0.3,0.662 -0.45,1.422 -0.45,2.279c0,0.854 0.15,1.61 0.45,2.267c0.301,0.654 0.727,1.162 1.274,1.524c0.549,0.362 1.185,0.541 1.905,0.541c1.098,0 1.978,-0.393 2.639,-1.184Zm-6.109,2.87c-1.003,-0.576 -1.782,-1.385 -2.337,-2.428c-0.555,-1.043 -0.833,-2.239 -0.833,-3.59c0,-1.366 0.274,-2.57 0.823,-3.614c0.548,-1.042 1.324,-1.852 2.328,-2.427c1.003,-0.574 2.165,-0.862 3.489,-0.862c1.311,0 2.469,0.284 3.472,0.852c1.004,0.568 1.779,1.369 2.328,2.398c0.548,1.031 0.823,2.22 0.823,3.571c0,1.378 -0.275,2.592 -0.823,3.641c-0.549,1.051 -1.324,1.866 -2.328,2.449c-1.003,0.582 -2.161,0.873 -3.472,0.873c-1.309,0 -2.467,-0.289 -3.47,-0.863Z" style="fill:#fff;fill-rule:nonzero;"/><path d="M367.559,271.666l-3.652,0l0,-2.529l10.193,0l0,2.529l-3.611,0l0,10.833l-2.93,0l0,-10.833Z" style="fill:#fff;fill-rule:nonzero;"/><path d="M375.805,269.137l8.126,0l0,2.529l-5.257,0l0,2.668l4.355,0l0,2.447l-4.355,0l0,3.191l5.257,0l0,2.527l-8.126,0l0,-13.362Z" style="fill:#fff;fill-rule:nonzero;"/><path d="M393.651,276.963l-1.805,-5.117l-1.745,5.117l3.55,0Zm-3.49,-7.826l3.49,0l4.957,13.362l-3.01,0l-1.083,-3.049l-5.258,0l-1.023,3.049l-2.969,0l4.896,-13.362Z" style="fill:#fff;fill-rule:nonzero;"/><path d="M403.275,273.071l-0.844,9.428l-2.588,0l1.264,-13.362l3.611,0l3.411,9.591l3.311,-9.591l3.611,0l1.223,13.362l-2.607,0l-0.923,-9.389l-3.532,9.53l-2.386,0.221l-3.551,-9.79Z" style="fill:#fff;fill-rule:nonzero;"/><path d="M315.534,304.349c0.723,0 1.288,-0.167 1.696,-0.502c0.408,-0.333 0.612,-0.783 0.612,-1.344c0,-0.508 -0.174,-0.904 -0.522,-1.185c-0.348,-0.28 -0.849,-0.42 -1.504,-0.42l-1.566,0l0,3.451l1.284,0Zm-0.28,-5.699c0.668,0 1.186,-0.153 1.554,-0.461c0.368,-0.308 0.553,-0.735 0.553,-1.284c0,-0.99 -0.616,-1.485 -1.846,-1.485l-1.265,0l0,3.23l1.004,0Zm-3.792,-5.436l4.474,0c1.297,0 2.323,0.31 3.079,0.933c0.756,0.621 1.135,1.468 1.135,2.538c0,1.217 -0.529,2.154 -1.587,2.809c1.407,0.561 2.108,1.551 2.108,2.969c0,0.802 -0.201,1.515 -0.602,2.137c-0.401,0.622 -0.96,1.107 -1.676,1.454c-0.716,0.347 -1.52,0.522 -2.416,0.522l-4.515,0l0,-13.362Z" style="fill:#fff;fill-rule:nonzero;"/><path d="M322.283,298.431c0.602,-0.763 1.01,-1.426 1.225,-1.987l-1.164,-1.745c0,-0.308 0.083,-0.613 0.251,-0.913c0.167,-0.301 0.403,-0.544 0.711,-0.733c0.308,-0.187 0.655,-0.281 1.044,-0.281c0.575,0 1.064,0.204 1.465,0.612c0.401,0.409 0.602,0.926 0.602,1.555c0,0.735 -0.294,1.572 -0.883,2.507c-0.589,0.938 -1.512,1.846 -2.769,2.73l-0.482,-1.745Z" style="fill:#fff;fill-rule:nonzero;"/><path d="M328.092,298.431c0.602,-0.763 1.011,-1.426 1.225,-1.987l-1.164,-1.745c0,-0.308 0.083,-0.613 0.25,-0.913c0.167,-0.301 0.405,-0.544 0.712,-0.733c0.308,-0.187 0.656,-0.281 1.044,-0.281c0.574,0 1.064,0.204 1.465,0.612c0.401,0.409 0.601,0.926 0.601,1.555c0,0.735 -0.293,1.572 -0.882,2.507c-0.589,0.938 -1.513,1.846 -2.769,2.73l-0.482,-1.745Z" style="fill:#fff;fill-rule:nonzero;"/><path d="M335.801,306.576c-0.702,-0.175 -1.308,-0.408 -1.816,-0.703l0.24,-2.688c0.602,0.375 1.234,0.666 1.896,0.873c0.663,0.207 1.274,0.311 1.836,0.311c0.643,0 1.165,-0.134 1.566,-0.401c0.401,-0.267 0.601,-0.621 0.601,-1.064c0,-0.362 -0.133,-0.638 -0.402,-0.833c-0.266,-0.193 -0.689,-0.404 -1.263,-0.632l-0.481,-0.199l-0.221,-0.092c-0.08,-0.032 -0.174,-0.069 -0.281,-0.11c-0.749,-0.308 -1.352,-0.599 -1.806,-0.872c-0.454,-0.275 -0.846,-0.659 -1.174,-1.154c-0.327,-0.495 -0.491,-1.138 -0.491,-1.925c0,-1.285 0.435,-2.294 1.304,-3.031c0.869,-0.736 2.079,-1.103 3.632,-1.103c1.176,0 2.38,0.24 3.61,0.722l-0.441,2.649c-0.495,-0.281 -1.026,-0.502 -1.595,-0.662c-0.568,-0.16 -1.107,-0.242 -1.614,-0.242c-0.63,0 -1.118,0.124 -1.466,0.372c-0.347,0.248 -0.521,0.579 -0.521,0.992c0,0.362 0.12,0.643 0.361,0.844c0.241,0.2 0.629,0.415 1.164,0.641l0.822,0.321c0.776,0.294 1.418,0.582 1.926,0.863c0.509,0.28 0.944,0.686 1.305,1.214c0.361,0.528 0.541,1.214 0.541,2.057c0,1.297 -0.44,2.307 -1.324,3.03c-0.883,0.722 -2.114,1.083 -3.691,1.083c-0.777,0 -1.515,-0.087 -2.217,-0.261Z" style="fill:#fff;fill-rule:nonzero;"/><path d="M345.263,293.214l2.93,0l0,5.176l5.677,0l0,-5.176l2.95,0l0,13.362l-2.95,0l0,-5.699l-5.677,0l0,5.699l-2.93,0l0,-13.362Z" style="fill:#fff;fill-rule:nonzero;"/><path d="M359.655,293.214l8.126,0l0,2.526l-5.257,0l0,2.67l4.355,0l0,2.447l-4.355,0l0,3.191l5.257,0l0,2.528l-8.126,0l0,-13.362Z" style="fill:#fff;fill-rule:nonzero;"/><path d="M369.143,293.214l3.211,0l3.17,10.192l3.15,-10.192l2.989,0l-4.494,13.362l-3.511,0l-4.515,-13.362Z" style="fill:#fff;fill-rule:nonzero;"/><path d="M389.408,301.038l-1.806,-5.116l-1.746,5.116l3.552,0Zm-3.492,-7.824l3.492,0l4.956,13.362l-3.01,0l-1.084,-3.05l-5.257,0l-1.023,3.05l-2.97,0l4.896,-13.362Z" style="fill:#fff;fill-rule:nonzero;"/><rect x="311.622" y="317.29" width="2.91" height="13.362" style="fill:#fff;"/><path d="M318.803,330.652c-0.702,-0.173 -1.307,-0.407 -1.816,-0.702l0.241,-2.689c0.602,0.374 1.233,0.665 1.896,0.873c0.661,0.208 1.273,0.311 1.836,0.311c0.642,0 1.163,-0.133 1.564,-0.401c0.402,-0.268 0.602,-0.623 0.602,-1.063c0,-0.362 -0.133,-0.64 -0.401,-0.834c-0.268,-0.193 -0.689,-0.404 -1.263,-0.631l-0.483,-0.202c-0.066,-0.026 -0.139,-0.056 -0.221,-0.088c-0.079,-0.034 -0.174,-0.072 -0.28,-0.111c-0.749,-0.308 -1.352,-0.598 -1.805,-0.874c-0.455,-0.274 -0.847,-0.658 -1.174,-1.153c-0.328,-0.494 -0.492,-1.136 -0.492,-1.926c0,-1.285 0.434,-2.295 1.304,-3.03c0.87,-0.734 2.08,-1.104 3.632,-1.104c1.176,0 2.38,0.242 3.611,0.722l-0.441,2.649c-0.495,-0.28 -1.027,-0.5 -1.595,-0.662c-0.569,-0.16 -1.108,-0.239 -1.615,-0.239c-0.629,0 -1.117,0.122 -1.465,0.369c-0.348,0.248 -0.521,0.58 -0.521,0.995c0,0.36 0.12,0.641 0.36,0.842c0.241,0.201 0.629,0.415 1.164,0.642l0.823,0.32c0.775,0.295 1.417,0.583 1.926,0.864c0.508,0.281 0.942,0.684 1.304,1.213c0.361,0.529 0.542,1.214 0.542,2.056c0,1.298 -0.442,2.309 -1.324,3.03c-0.884,0.722 -2.115,1.084 -3.693,1.084c-0.776,0 -1.514,-0.087 -2.216,-0.261Z" style="fill:#fff;fill-rule:nonzero;"/><path d="M332.259,323.208c0.682,0 1.22,-0.173 1.615,-0.522c0.395,-0.348 0.593,-0.815 0.593,-1.404c0,-0.534 -0.175,-0.942 -0.522,-1.223c-0.348,-0.281 -0.857,-0.422 -1.524,-0.422l-1.406,0l0,3.571l1.244,0Zm-4.033,-5.918c0.401,-0.013 1.15,-0.02 2.248,-0.02c1.11,0 1.866,0.007 2.267,0.02c1.524,0.053 2.662,0.425 3.411,1.113c0.749,0.689 1.123,1.615 1.123,2.779c0,0.989 -0.251,1.829 -0.753,2.518c-0.501,0.689 -1.201,1.139 -2.096,1.354c0.28,0.228 0.569,0.539 0.863,0.933c0.294,0.395 0.702,1.007 1.224,1.835c0.548,0.87 1.102,1.813 1.664,2.83l-3.37,0l-2.267,-4.212c-0.24,-0.444 -0.458,-0.72 -0.652,-0.835c-0.194,-0.113 -0.485,-0.17 -0.873,-0.17l0,5.217l-2.789,0l0,-13.362Z" style="fill:#fff;fill-rule:nonzero;"/><path d="M347.341,325.115l-1.806,-5.117l-1.746,5.117l3.552,0Zm-3.491,-7.825l3.491,0l4.955,13.362l-3.009,0l-1.084,-3.051l-5.257,0l-1.023,3.051l-2.97,0l4.897,-13.362Z" style="fill:#fff;fill-rule:nonzero;"/><path d="M353.776,317.29l8.126,0l0,2.528l-5.255,0l0,2.668l4.352,0l0,2.447l-4.352,0l0,3.19l5.255,0l0,2.529l-8.126,0l0,-13.362Z" style="fill:#fff;fill-rule:nonzero;"/><path d="M364.425,317.29l2.91,0l0,10.833l4.816,0l0,2.529l-7.726,0l0,-13.362Z" style="fill:#fff;fill-rule:nonzero;"/></g></g></svg>
