<?xml version="1.0" encoding="UTF-8" standalone="no"?>
<!DOCTYPE svg PUBLIC "-//W3C//DTD SVG 1.1//EN" "http://www.w3.org/Graphics/SVG/1.1/DTD/svg11.dtd">
<svg width="100%" height="100%" viewBox="0 0 600 300" version="1.1" xmlns="http://www.w3.org/2000/svg" xmlns:xlink="http://www.w3.org/1999/xlink" xml:space="preserve" xmlns:serif="http://www.serif.com/" style="fill-rule:evenodd;clip-rule:evenodd;stroke-linejoin:round;stroke-miterlimit:2;">
    <g transform="matrix(1,0,0,1,-10400,0)">
        <rect id="logo-inspiration-family" x="10400" y="0" width="600" height="300" style="fill:none;"/>
        <g id="logo-inspiration-family1" serif:id="logo-inspiration-family">
            <g transform="matrix(0.189704,0,0,0.189704,10585.8,115.689)">
                <g>
                    <clipPath id="_clip1">
                        <rect x="0" y="0" width="1203.71" height="360"/>
                    </clipPath>
                    <g clip-path="url(#_clip1)">
                        <g transform="matrix(1,0,0,1,0,-160.7)">
                            <rect x="481.672" y="214.502" width="21.221" height="91.696"/>
                        </g>
                        <g transform="matrix(1,0,0,1,0,-140.527)">
                            <path d="M566.033,214.502C574.766,214.502 581.817,217.122 587.188,222.361C592.559,227.601 595.244,235.374 595.244,245.678L595.244,286.025L574.809,286.025L574.809,248.822C574.809,243.233 573.587,239.063 571.141,236.312C568.696,233.561 565.159,232.186 560.531,232.186C555.378,232.186 551.274,233.78 548.217,236.967C545.161,240.155 543.633,244.892 543.633,251.18L543.633,286.025L523.198,286.025L523.198,215.55L542.716,215.55L542.716,223.802C545.423,220.833 548.785,218.541 552.802,216.925C556.819,215.31 561.23,214.502 566.033,214.502Z" style="fill-rule:nonzero;"/>
                        </g>
                        <g transform="matrix(1,0,0,1,0,-139.479)">
                            <path d="M637.424,286.025C631.573,286.025 625.853,285.304 620.264,283.863C614.675,282.422 610.221,280.61 606.903,278.427L613.715,263.756C616.858,265.764 620.657,267.402 625.111,268.668C629.565,269.934 633.931,270.567 638.21,270.567C646.856,270.567 651.179,268.428 651.179,264.149C651.179,262.14 650,260.699 647.642,259.826C645.284,258.952 641.66,258.21 636.77,257.599C631.006,256.726 626.246,255.721 622.491,254.586C618.736,253.451 615.483,251.442 612.732,248.56C609.981,245.678 608.606,241.574 608.606,236.247C608.606,231.793 609.894,227.841 612.47,224.392C615.046,220.942 618.801,218.257 623.736,216.336C628.67,214.414 634.499,213.454 641.223,213.454C646.201,213.454 651.157,214 656.091,215.091C661.025,216.183 665.108,217.689 668.339,219.611L661.527,234.151C655.327,230.658 648.559,228.911 641.223,228.911C636.857,228.911 633.582,229.522 631.399,230.745C629.216,231.968 628.124,233.54 628.124,235.461C628.124,237.644 629.303,239.172 631.661,240.046C634.019,240.919 637.774,241.749 642.926,242.535C648.69,243.495 653.406,244.521 657.074,245.613C660.741,246.704 663.929,248.691 666.636,251.573C669.343,254.455 670.697,258.472 670.697,263.625C670.697,267.991 669.387,271.877 666.767,275.283C664.147,278.689 660.327,281.331 655.305,283.208C650.284,285.086 644.324,286.025 637.424,286.025Z" style="fill-rule:nonzero;"/>
                        </g>
                        <g transform="matrix(1,0,0,1,0,-115.115)">
                            <path d="M724.929,189.09C731.478,189.09 737.438,190.596 742.809,193.609C748.18,196.622 752.394,200.857 755.45,206.316C758.507,211.774 760.035,218.127 760.035,225.375C760.035,232.624 758.507,238.977 755.45,244.435C752.394,249.893 748.18,254.128 742.809,257.141C737.438,260.154 731.478,261.661 724.929,261.661C715.934,261.661 708.86,258.822 703.707,253.146L703.707,286.025L683.272,286.025L683.272,190.138L702.791,190.138L702.791,198.259C707.856,192.146 715.235,189.09 724.929,189.09ZM721.392,244.893C726.631,244.893 730.932,243.125 734.295,239.588C737.657,236.051 739.338,231.314 739.338,225.375C739.338,219.437 737.657,214.699 734.295,211.162C730.932,207.625 726.631,205.857 721.392,205.857C716.152,205.857 711.851,207.625 708.489,211.162C705.127,214.699 703.446,219.437 703.446,225.375C703.446,231.314 705.127,236.051 708.489,239.588C711.851,243.125 716.152,244.893 721.392,244.893Z" style="fill-rule:nonzero;"/>
                        </g>
                        <g transform="matrix(1,0,0,1,0,-172.097)">
                            <path d="M773.658,247.12L794.093,247.12L794.093,317.595L773.658,317.595L773.658,247.12ZM783.876,237.295C780.121,237.295 777.064,236.204 774.706,234.02C772.348,231.837 771.169,229.13 771.169,225.899C771.169,222.668 772.348,219.96 774.706,217.777C777.064,215.594 780.121,214.502 783.876,214.502C787.631,214.502 790.688,215.55 793.045,217.646C795.403,219.742 796.582,222.362 796.582,225.506C796.582,228.912 795.403,231.728 793.045,233.955C790.688,236.182 787.631,237.295 783.876,237.295Z" style="fill-rule:nonzero;"/>
                        </g>
                        <g transform="matrix(1,0,0,1,0,-140.527)">
                            <path d="M832.606,224.85C835.051,221.445 838.348,218.868 842.496,217.122C846.644,215.375 851.425,214.502 856.84,214.502L856.84,233.365C854.569,233.19 853.041,233.103 852.255,233.103C846.404,233.103 841.819,234.74 838.5,238.015C835.182,241.29 833.523,246.202 833.523,252.752L833.523,286.025L813.088,286.025L813.088,215.55L832.606,215.55L832.606,224.85Z" style="fill-rule:nonzero;"/>
                        </g>
                        <g transform="matrix(1,0,0,1,0,-139.479)">
                            <path d="M897.055,213.454C907.971,213.454 916.355,216.052 922.206,221.248C928.057,226.444 930.982,234.282 930.982,244.761L930.982,284.977L911.857,284.977L911.857,276.2C908.015,282.75 900.854,286.025 890.374,286.025C884.96,286.025 880.266,285.108 876.292,283.274C872.319,281.44 869.284,278.907 867.188,275.676C865.092,272.445 864.044,268.777 864.044,264.673C864.044,258.123 866.511,252.97 871.445,249.215C876.38,245.46 883.999,243.582 894.304,243.582L910.547,243.582C910.547,239.129 909.194,235.701 906.486,233.299C903.779,230.898 899.718,229.697 894.304,229.697C890.549,229.697 886.859,230.287 883.235,231.466C879.611,232.644 876.532,234.238 874,236.247L866.664,221.968C870.507,219.261 875.113,217.165 880.484,215.681C885.855,214.196 891.378,213.454 897.055,213.454ZM895.483,272.27C898.976,272.27 902.076,271.462 904.783,269.847C907.491,268.231 909.412,265.851 910.547,262.708L910.547,255.503L896.531,255.503C888.147,255.503 883.955,258.254 883.955,263.756C883.955,266.375 884.982,268.45 887.034,269.978C889.086,271.506 891.902,272.27 895.483,272.27Z" style="fill-rule:nonzero;"/>
                        </g>
                        <g transform="matrix(1,0,0,1,0,-154.02)">
                            <path d="M994.907,296.112C992.899,297.596 990.432,298.71 987.506,299.452C984.581,300.194 981.502,300.566 978.271,300.566C969.888,300.566 963.403,298.426 958.819,294.147C954.234,289.868 951.941,283.58 951.941,275.284L951.941,246.334L941.069,246.334L941.069,230.615L951.941,230.615L951.941,213.454L972.376,213.454L972.376,230.615L989.93,230.615L989.93,246.334L972.376,246.334L972.376,275.022C972.376,277.991 973.141,280.283 974.669,281.899C976.197,283.514 978.358,284.322 981.153,284.322C984.384,284.322 987.135,283.449 989.406,281.702L994.907,296.112Z" style="fill-rule:nonzero;"/>
                        </g>
                        <g transform="matrix(1,0,0,1,0,-172.097)">
                            <path d="M1006.43,247.12L1026.87,247.12L1026.87,317.595L1006.43,317.595L1006.43,247.12ZM1016.65,237.295C1012.9,237.295 1009.84,236.204 1007.48,234.02C1005.12,231.837 1003.95,229.13 1003.95,225.899C1003.95,222.668 1005.12,219.96 1007.48,217.777C1009.84,215.594 1012.9,214.502 1016.65,214.502C1020.41,214.502 1023.46,215.55 1025.82,217.646C1028.18,219.742 1029.36,222.362 1029.36,225.506C1029.36,228.912 1028.18,231.728 1025.82,233.955C1023.46,236.182 1020.41,237.295 1016.65,237.295Z" style="fill-rule:nonzero;"/>
                        </g>
                        <g transform="matrix(1,0,0,1,0,-139.479)">
                            <path d="M1079.4,286.025C1071.98,286.025 1065.32,284.474 1059.42,281.374C1053.53,278.274 1048.92,273.973 1045.6,268.471C1042.28,262.97 1040.62,256.726 1040.62,249.739C1040.62,242.753 1042.28,236.509 1045.6,231.007C1048.92,225.505 1053.53,221.204 1059.42,218.104C1065.32,215.004 1071.98,213.454 1079.4,213.454C1086.82,213.454 1093.46,215.004 1099.31,218.104C1105.16,221.204 1109.75,225.505 1113.06,231.007C1116.38,236.509 1118.04,242.753 1118.04,249.739C1118.04,256.726 1116.38,262.97 1113.06,268.471C1109.75,273.973 1105.16,278.274 1099.31,281.374C1093.46,284.474 1086.82,286.025 1079.4,286.025ZM1079.4,269.257C1084.64,269.257 1088.94,267.489 1092.3,263.952C1095.66,260.415 1097.34,255.678 1097.34,249.739C1097.34,243.801 1095.66,239.063 1092.3,235.526C1088.94,231.989 1084.64,230.221 1079.4,230.221C1074.16,230.221 1069.84,231.989 1066.43,235.526C1063.02,239.063 1061.32,243.801 1061.32,249.739C1061.32,255.678 1063.02,260.415 1066.43,263.952C1069.84,267.489 1074.16,269.257 1079.4,269.257Z" style="fill-rule:nonzero;"/>
                        </g>
                        <g transform="matrix(1,0,0,1,0,-140.527)">
                            <path d="M1174.5,214.502C1183.23,214.502 1190.29,217.122 1195.66,222.361C1201.03,227.601 1203.71,235.374 1203.71,245.678L1203.71,286.025L1183.28,286.025L1183.28,248.822C1183.28,243.233 1182.05,239.063 1179.61,236.312C1177.16,233.561 1173.63,232.186 1169,232.186C1163.85,232.186 1159.74,233.78 1156.69,236.967C1153.63,240.155 1152.1,244.892 1152.1,251.18L1152.1,286.025L1131.67,286.025L1131.67,215.55L1151.18,215.55L1151.18,223.802C1153.89,220.833 1157.25,218.541 1161.27,216.925C1165.29,215.31 1169.7,214.502 1174.5,214.502Z" style="fill-rule:nonzero;"/>
                        </g>
                        <g transform="matrix(1,0,0,1,0,134.036)">
                            <path d="M502.894,84.163L502.894,108.397L545.336,108.397L545.336,125.426L502.894,125.426L502.894,158.83L481.672,158.83L481.672,67.134L550.968,67.134L550.968,84.163L502.894,84.163Z" style="fill-rule:nonzero;"/>
                        </g>
                        <g transform="matrix(1,0,0,1,0,155.257)">
                            <path d="M590.398,66.086C601.314,66.086 609.697,68.684 615.548,73.88C621.4,79.076 624.325,86.914 624.325,97.394L624.325,137.609L605.2,137.609L605.2,128.833C601.357,135.382 594.196,138.657 583.717,138.657C578.302,138.657 573.609,137.74 569.635,135.906C565.662,134.072 562.627,131.54 560.531,128.309C558.435,125.077 557.387,121.41 557.387,117.305C557.387,110.755 559.854,105.603 564.788,101.848C569.722,98.092 577.342,96.215 587.647,96.215L603.89,96.215C603.89,91.761 602.536,88.333 599.829,85.932C597.122,83.53 593.061,82.329 587.647,82.329C583.892,82.329 580.202,82.919 576.578,84.098C572.954,85.277 569.875,86.871 567.343,88.879L560.007,74.601C563.849,71.894 568.456,69.798 573.827,68.313C579.198,66.828 584.721,66.086 590.398,66.086ZM588.826,124.903C592.319,124.903 595.419,124.095 598.126,122.479C600.833,120.864 602.755,118.484 603.89,115.34L603.89,108.135L589.874,108.135C581.49,108.135 577.298,110.886 577.298,116.388C577.298,119.008 578.324,121.082 580.377,122.61C582.429,124.139 585.245,124.903 588.826,124.903Z" style="fill-rule:nonzero;"/>
                        </g>
                        <g transform="matrix(1,0,0,1,0,154.209)">
                            <path d="M733.05,67.134C741.87,67.134 748.879,69.732 754.075,74.928C759.271,80.124 761.869,87.919 761.869,98.311L761.869,138.657L741.434,138.657L741.434,101.455C741.434,95.866 740.277,91.696 737.962,88.945C735.648,86.194 732.352,84.818 728.072,84.818C723.269,84.818 719.47,86.368 716.676,89.469C713.881,92.569 712.484,97.176 712.484,103.289L712.484,138.657L692.049,138.657L692.049,101.455C692.049,90.364 687.595,84.818 678.688,84.818C673.972,84.818 670.217,86.368 667.422,89.469C664.628,92.569 663.23,97.176 663.23,103.289L663.23,138.657L642.795,138.657L642.795,68.182L662.313,68.182L662.313,76.304C664.933,73.335 668.143,71.064 671.941,69.492C675.74,67.92 679.91,67.134 684.451,67.134C689.429,67.134 693.927,68.117 697.944,70.082C701.961,72.046 705.192,74.907 707.637,78.662C710.519,74.994 714.165,72.156 718.575,70.147C722.985,68.138 727.81,67.134 733.05,67.134Z" style="fill-rule:nonzero;"/>
                        </g>
                        <g transform="matrix(1,0,0,1,0,122.64)">
                            <path d="M780.208,99.751L800.643,99.751L800.643,170.226L780.208,170.226L780.208,99.751ZM790.426,89.927C786.67,89.927 783.614,88.835 781.256,86.652C778.898,84.469 777.719,81.761 777.719,78.53C777.719,75.299 778.898,72.592 781.256,70.408C783.614,68.225 786.67,67.134 790.426,67.134C794.181,67.134 797.237,68.182 799.595,70.277C801.953,72.373 803.132,74.993 803.132,78.137C803.132,81.543 801.953,84.359 799.595,86.586C797.237,88.813 794.181,89.927 790.426,89.927Z" style="fill-rule:nonzero;"/>
                        </g>
                        <g transform="matrix(1,0,0,1,0,128.534)">
                            <rect x="819.637" y="67.134" width="20.435" height="97.198"/>
                        </g>
                        <g transform="matrix(1,0,0,1,0,181.718)">
                            <path d="M929.017,40.673L897.186,115.471C893.955,123.593 889.959,129.313 885.2,132.631C880.44,135.95 874.698,137.609 867.974,137.609C864.306,137.609 860.682,137.041 857.102,135.906C853.521,134.771 850.596,133.199 848.325,131.19L855.792,116.65C857.364,118.047 859.176,119.139 861.228,119.925C863.28,120.711 865.311,121.104 867.319,121.104C870.114,121.104 872.384,120.427 874.131,119.073C875.877,117.72 877.449,115.471 878.847,112.327L879.109,111.672L848.587,40.673L869.677,40.673L889.457,88.486L909.368,40.673L929.017,40.673Z" style="fill-rule:nonzero;"/>
                        </g>
                        <g transform="matrix(1,0,0,1,0,1.732)">
                            <path d="M88.527,213.352C95.902,204.614 100.348,193.33 100.348,181.016C100.348,153.324 77.866,130.841 50.174,130.841C22.482,130.841 0,153.324 0,181.016C0,193.203 4.355,204.381 11.591,213.077L11.58,213.077C43.572,251.587 39.547,269.317 18.505,300.416L18.509,300.416C14.427,306.434 12.042,313.692 12.042,321.503C12.042,342.272 28.903,359.134 49.673,359.134C70.441,359.134 87.303,342.272 87.303,321.503C87.303,313.788 84.976,306.611 80.986,300.639L80.989,300.639C60.17,269.391 56.273,251.632 88.538,213.352L88.527,213.352ZM180.627,265.057C205.55,265.057 225.784,285.291 225.784,310.214C225.784,335.137 205.55,355.371 180.627,355.371C155.704,355.371 135.47,335.137 135.47,310.214C135.47,285.291 155.704,265.057 180.627,265.057ZM311.08,280.11C327.695,280.11 341.185,293.599 341.185,310.214C341.185,326.829 327.695,340.319 311.08,340.319C294.465,340.319 280.976,326.829 280.976,310.214C280.976,293.599 294.465,280.11 311.08,280.11ZM278.744,218.114C287.481,225.489 298.766,229.935 311.08,229.935C338.772,229.935 361.254,207.453 361.254,179.761C361.254,152.069 338.772,129.587 311.08,129.587C298.893,129.587 287.715,133.942 279.019,141.178L279.019,141.167C240.509,173.158 222.779,169.134 191.68,148.093L191.68,148.096C185.662,144.014 178.404,141.629 170.592,141.629C149.823,141.629 132.962,158.491 132.962,179.259C132.962,200.028 149.823,216.89 170.592,216.89C178.308,216.89 185.484,214.563 191.457,210.573L191.457,210.576C222.705,189.757 240.464,185.86 278.744,218.125L278.744,218.114ZM212.964,87.661C204.226,95.036 192.942,99.482 180.627,99.482C152.935,99.482 130.453,77 130.453,49.308C130.453,21.616 152.935,-0.866 180.627,-0.866C192.814,-0.866 203.993,3.489 212.689,10.725L212.689,10.714C251.198,42.706 268.929,38.681 300.027,17.64L300.027,17.643C306.045,13.561 313.304,11.176 321.115,11.176C341.884,11.176 358.746,28.038 358.746,48.806C358.746,69.575 341.884,86.437 321.115,86.437C313.399,86.437 306.223,84.11 300.251,80.12L300.251,80.123C269.002,59.304 251.244,55.407 212.964,87.672L212.964,87.661ZM50.174,19.204C66.789,19.204 80.279,32.693 80.279,49.308C80.279,65.923 66.789,79.413 50.174,79.413C33.559,79.413 20.07,65.923 20.07,49.308C20.07,32.693 33.559,19.204 50.174,19.204Z"/>
                        </g>
                    </g>
                </g>
            </g>
        </g>
    </g>
</svg>
