<?xml version="1.0" encoding="UTF-8" standalone="no"?>
<!DOCTYPE svg PUBLIC "-//W3C//DTD SVG 1.1//EN" "http://www.w3.org/Graphics/SVG/1.1/DTD/svg11.dtd">
<svg width="100%" height="100%" viewBox="0 0 2500 1250" version="1.1" xmlns="http://www.w3.org/2000/svg" xmlns:xlink="http://www.w3.org/1999/xlink" xml:space="preserve" xmlns:serif="http://www.serif.com/" style="fill-rule:evenodd;clip-rule:evenodd;stroke-linejoin:round;stroke-miterlimit:2;">
    <rect id="logo-skole" x="0" y="0" width="2500" height="1250" style="fill:none;"/>
    <path d="M1286.8,587.67c35.098,0.331 67.81,29.239 71.649,64.679c3.327,30.711 -15.324,62.597 -43.881,74.687c-24.766,10.484 -55.3,5.684 -75.703,-11.989c-23.173,-20.073 -31.372,-55.638 -19.014,-83.882c11.087,-25.338 37.381,-43.047 65.549,-43.491c0.467,-0.004 0.933,-0.006 1.4,-0.004Zm-225.494,-42.121l-71.936,-0c0.739,0.39 1.475,0.785 2.211,1.18c33.552,18.205 64.357,39.8 74.374,81.603c7.739,32.295 -5.402,68.658 -32.283,88.266c-31.659,23.093 -79.552,20.374 -108.425,-7.825c-15.898,-15.527 -25.196,-37.39 -25.398,-59.721l-0.056,-14.53l28.079,-0.108c0.05,12.848 -0.127,25.82 5.013,37.187c12.255,27.099 48.241,40.895 75.833,27.384c16.208,-7.937 28.148,-24.081 30.88,-41.918c6.838,-44.639 -35.622,-74.872 -79.173,-94.389c-15.651,-7.014 -31.862,-12.859 -48.462,-17.178c-0,0 -1.038,-0.262 -1.038,-0.262l-4.609,-1.124l0,-26.645l154.99,-0l-0,28.08Zm428.033,137.681c11.068,16.715 34.066,25.654 53.688,18.05c9.255,-3.586 17.203,-10.403 22.251,-18.99c-0,0 24.42,13.865 24.42,13.865c-16.407,28.128 -53.101,42.685 -84.317,32.949c-29.061,-9.064 -50.703,-37.968 -51.011,-68.576c-0.377,-37.621 32.235,-72.49 71.414,-73.232c0.598,-0.008 1.196,-0.01 1.795,-0.006c27.12,0.33 52.506,17.054 64.434,41.879c1.242,2.584 1.744,3.867 2.396,5.594c2.8,7.418 4.417,12.106 5.808,18.758l-110.878,29.709Zm-47.424,-137.681l-33.216,-0l-0.926,112.908c-0.163,24.156 20.244,46.296 45.565,46.963l0.652,0.01l-0.085,26.554c-38.417,0.162 -73.826,-32.977 -74.238,-73.482l-1.157,-141.033l15.21,-0l-0,-0l48.195,-0l-0,28.08Zm-284.518,-0l-32.985,-0l-0,90.225c3.86,0.474 7.678,1.208 11.432,2.183c5.552,-26.007 29.51,-47.445 57.338,-47.707l0.332,-0.001c0.031,9.36 0.062,18.72 0.092,28.08c-0.415,0.001 -0.829,0.008 -1.244,0.023c-15.738,0.649 -29.417,15.686 -29.645,31.349c26.149,16.59 44.756,45.716 44.884,78.773l-28.08,0.109c-0.002,-0.582 -0.009,-1.164 -0.022,-1.747c-0.816,-29.951 -24.698,-57.478 -55.087,-62.725l-0,64.418l-30.42,-0l-0,-211.06l15.21,-0l0,-0l48.195,-0l0,28.08Zm128.647,70.2c-25.158,0.238 -47.343,25.052 -43.74,50.682c2.937,20.891 22.537,38.102 43.738,38.235c29.628,0.186 54.74,-35.283 40.014,-64.436c-7.231,-14.316 -22.534,-24.109 -38.859,-24.474c-0.384,-0.006 -0.768,-0.008 -1.153,-0.007Zm0.288,25.722c10.341,0 18.737,8.396 18.737,18.737c-0,10.341 -8.396,18.736 -18.737,18.736c-10.341,0 -18.736,-8.395 -18.736,-18.736c-0,-10.341 8.395,-18.737 18.736,-18.737Zm278.183,-4.844c-12.477,-23.127 -44.17,-28.047 -64.409,-12.017c-6.722,5.323 -11.957,12.995 -14.793,21.05c-1.437,4.084 -2.346,8.405 -2.597,12.727l81.799,-21.76Z"/>
</svg>
