<?xml version="1.0" encoding="UTF-8" standalone="no"?><!DOCTYPE svg PUBLIC "-//W3C//DTD SVG 1.1//EN" "http://www.w3.org/Graphics/SVG/1.1/DTD/svg11.dtd"><svg width="100%" height="100%" viewBox="0 0 900 600" version="1.1" xmlns="http://www.w3.org/2000/svg" xmlns:xlink="http://www.w3.org/1999/xlink" xml:space="preserve" xmlns:serif="http://www.serif.com/" style="fill-rule:evenodd;clip-rule:evenodd;stroke-linejoin:round;stroke-miterlimit:1.41421;"><rect id="logo-ufc-en" x="0" y="0" width="900" height="600" style="fill:none;"/><g><path d="M328.697,240.94c0,5.995 -1.215,10.3 -3.651,12.92c-2.436,2.62 -6.464,3.93 -12.091,3.93c-5.572,0 -9.585,-1.298 -12.048,-3.887c-2.464,-2.593 -3.694,-6.913 -3.694,-12.963l0,-22.302l7.802,0l0,21.747c0,2.602 0.248,4.648 0.745,6.142c0.5,1.494 1.292,2.593 2.381,3.295c1.089,0.7 2.672,1.05 4.759,1.05c2.97,0 5.044,-0.789 6.225,-2.366c1.181,-1.577 1.77,-4.246 1.77,-8.011l0,-21.857l7.802,0l0,22.302Z" style="fill:#fff;fill-rule:nonzero;"/><path d="M357.671,256.931l-10.598,-15.991l-2.322,2.684l0,13.307l-7.802,0l0,-38.29l7.802,0l0,14.939l12.533,-14.939l9.1,0l-14.276,16.488l15.301,21.802l-9.738,0Z" style="fill:#fff;fill-rule:nonzero;"/><path d="M392.841,230.342c0,-1.954 -0.494,-3.264 -1.479,-3.927c-0.988,-0.666 -2.617,-0.997 -4.884,-0.997l-6.06,0l0,10.211l5.725,0c1.755,0 3.102,-0.169 4.041,-0.5c0.942,-0.332 1.62,-0.847 2.034,-1.55c0.414,-0.699 0.623,-1.779 0.623,-3.237m1.301,26.588l-9.769,-14.496l-3.955,0l0,14.496l-7.802,0l0,-38.289l13.917,0c4.924,0 8.526,0.883 10.803,2.654c2.279,1.77 3.418,4.675 3.418,8.716c0,3.264 -0.688,5.866 -2.062,7.802c-1.375,1.936 -3.326,3.173 -5.851,3.706l10.235,15.411l-8.934,0Z" style="fill:#fff;fill-rule:nonzero;"/><path d="M419.255,242.323l10.321,0l-5.145,-15.826l-5.176,15.826Zm-12.45,14.607l12.671,-38.29l10.156,0l12.699,38.29l-7.996,0l-2.546,-7.772l-14.746,0l-2.491,7.772l-7.747,0Z" style="fill:#fff;fill-rule:nonzero;"/><path d="M465.425,256.931l-18.482,0l0,-6.005l5.339,0l0,-26.281l-5.339,0l0,-6.004l18.482,0l0,6.004l-5.311,0l0,26.281l5.311,0l0,6.005Z" style="fill:#fff;fill-rule:nonzero;"/><path d="M493.762,256.931l-13.945,-27.361l0,27.361l-7.636,0l0,-38.29l10.127,0l12.975,25.812l0,-25.812l7.664,0l0,38.29l-9.185,0Z" style="fill:#fff;fill-rule:nonzero;"/><path d="M528.215,256.931l-18.482,0l0,-6.005l5.341,0l0,-26.281l-5.341,0l0,-6.004l18.482,0l0,6.004l-5.311,0l0,26.281l5.311,0l0,6.005Z" style="fill:#fff;fill-rule:nonzero;"/><path d="M545.248,242.323l10.321,0l-5.145,-15.826l-5.176,15.826Zm-12.45,14.607l12.671,-38.29l10.155,0l12.699,38.29l-7.996,0l-2.546,-7.772l-14.745,0l-2.492,7.772l-7.746,0Z" style="fill:#fff;fill-rule:nonzero;"/><path d="M595.095,256.931l-13.944,-27.361l0,27.361l-7.637,0l0,-38.29l10.128,0l12.975,25.812l0,-25.812l7.664,0l0,38.29l-9.186,0Z" style="fill:#fff;fill-rule:nonzero;"/><path d="M305.014,287.59l0,11.251l49.393,0l0,6.891l-49.393,0l0,13.012l-7.802,0l0,-38.29l57.106,0l0,7.136l-49.304,0Z" style="fill:#fff;fill-rule:nonzero;"/><path d="M360.193,318.745l0,-38.29l7.802,0l0,31.15l16.105,0l0,7.14l-23.907,0Z" style="fill:#fff;fill-rule:nonzero;"/><path d="M400.186,304.137l10.318,0l-5.145,-15.825l-5.173,15.825Zm-12.45,14.607l12.671,-38.29l10.153,0l12.701,38.29l-7.995,0l-2.547,-7.774l-14.748,0l-2.488,7.774l-7.747,0Z" style="fill:#fff;fill-rule:nonzero;"/><path d="M452.369,291.216c-0.978,-1.586 -2.169,-2.758 -3.571,-3.516c-1.402,-0.755 -3.163,-1.132 -5.283,-1.132c-3.486,0 -6.008,1.12 -7.566,3.363c-1.559,2.239 -2.338,5.571 -2.338,9.998c0,4.391 0.77,7.606 2.31,9.643c1.54,2.038 4.016,3.056 7.428,3.056c2.583,0 4.961,-0.534 7.14,-1.601l0,-5.949l-7.471,0l0,-6.891l15.297,0l0,16.933c-1.77,1.328 -3.967,2.399 -6.596,3.209c-2.629,0.813 -5.336,1.218 -8.121,1.218c-5.977,0 -10.475,-1.559 -13.5,-4.676c-3.028,-3.117 -4.538,-8.097 -4.538,-14.942c0,-13.518 5.949,-20.28 17.844,-20.28c3.467,0 6.492,0.583 9.076,1.746c2.58,1.16 4.547,2.866 5.894,5.118l-6.005,4.703Z" style="fill:#fff;fill-rule:nonzero;"/><path d="M328.366,374.222c-1.641,2.455 -3.657,4.256 -6.047,5.409c-2.387,1.154 -5.326,1.731 -8.811,1.731c-11.859,0 -17.789,-6.649 -17.789,-19.949c0,-6.808 1.503,-11.834 4.51,-15.08c3.007,-3.246 7.339,-4.869 13.002,-4.869c3.747,0 6.796,0.632 9.159,1.896c2.359,1.264 4.16,2.918 5.396,4.968l-6.062,4.7c-0.884,-1.325 -1.697,-2.286 -2.433,-2.875c-0.74,-0.592 -1.577,-1.034 -2.519,-1.328c-0.939,-0.298 -2.065,-0.442 -3.375,-0.442c-3.136,0 -5.522,1 -7.164,3c-1.644,2.001 -2.464,5.345 -2.464,10.03c0,4.372 0.77,7.637 2.311,9.793c1.54,2.16 3.997,3.237 7.372,3.237c2.271,0 4.035,-0.432 5.299,-1.301c1.264,-0.865 2.411,-2.018 3.445,-3.457l6.17,4.537Z" style="fill:#fff;fill-rule:nonzero;"/><path d="M356.86,361.412c0,-4.538 -0.641,-7.842 -1.924,-9.919c-1.282,-2.074 -3.454,-3.111 -6.513,-3.111c-3.065,0 -5.238,1.037 -6.517,3.111c-1.282,2.077 -1.924,5.381 -1.924,9.919c0,4.538 0.651,7.845 1.952,9.919c1.301,2.074 3.461,3.114 6.489,3.114c3.059,0 5.231,-1.04 6.513,-3.114c1.283,-2.074 1.924,-5.381 1.924,-9.919m8.051,0c0,6.658 -1.406,11.647 -4.219,14.969c-2.813,3.32 -6.903,4.98 -12.269,4.98c-5.664,0 -9.83,-1.749 -12.494,-5.243c-2.666,-3.495 -3.997,-8.398 -3.997,-14.706c0,-6.345 1.331,-11.254 3.997,-14.733c2.664,-3.476 6.83,-5.213 12.494,-5.213c5.697,0 9.87,1.737 12.518,5.213c2.644,3.479 3.97,8.388 3.97,14.733" style="fill:#fff;fill-rule:nonzero;"/><path d="M402.002,380.558l0,-25.729l-9.186,15.991l-4.51,0l-9.075,-15.991l0,25.729l-7.526,0l0,-38.29l8.992,0l9.99,18.175l10.069,-18.175l8.8,0l0,38.29l-7.554,0Z" style="fill:#fff;fill-rule:nonzero;"/><path d="M437.85,355.159c0,-2.157 -0.595,-3.715 -1.786,-4.676c-1.187,-0.957 -3.332,-1.439 -6.43,-1.439l-3.903,0l0,12.868l3.182,0c2.859,0 4.838,-0.199 5.933,-0.595c1.099,-0.399 1.875,-1.065 2.326,-2.007c0.451,-0.942 0.678,-2.325 0.678,-4.151m8.051,-0.055c0,4.611 -1.083,8.035 -3.253,10.266c-2.166,2.23 -5.685,3.347 -10.551,3.347l-6.366,0l0,11.84l-7.802,0l0,-38.29l14.386,0c4.335,0 7.683,1.009 10.045,3.028c2.359,2.022 3.541,5.29 3.541,9.809" style="fill:#fff;fill-rule:nonzero;"/><path d="M458.899,365.95l10.318,0l-5.145,-15.825l-5.173,15.825Zm-12.45,14.607l12.671,-38.29l10.153,0l12.702,38.29l-7.996,0l-2.546,-7.771l-14.749,0l-2.488,7.771l-7.747,0Z" style="fill:#fff;fill-rule:nonzero;"/><path d="M508.747,380.558l-13.944,-27.362l0,27.362l-7.637,0l0,-38.29l10.128,0l12.975,25.812l0,-25.812l7.664,0l0,38.29l-9.186,0Z" style="fill:#fff;fill-rule:nonzero;"/><path d="M542.866,365.95l0,14.607l-7.857,0l0,-14.441l-11.981,-23.849l8.523,0l7.471,16.019l7.633,-16.019l8.22,0l-12.009,23.683Z" style="fill:#fff;fill-rule:nonzero;"/></g></svg>