<?xml version="1.0" encoding="UTF-8" standalone="no"?><!DOCTYPE svg PUBLIC "-//W3C//DTD SVG 1.1//EN" "http://www.w3.org/Graphics/SVG/1.1/DTD/svg11.dtd"><svg width="100%" height="100%" viewBox="0 0 1200 744" version="1.1" xmlns="http://www.w3.org/2000/svg" xmlns:xlink="http://www.w3.org/1999/xlink" xml:space="preserve" xmlns:serif="http://www.serif.com/" style="fill-rule:evenodd;clip-rule:evenodd;stroke-linejoin:round;stroke-miterlimit:2;"><rect id="logo-persi" x="0" y="0" width="1200" height="744" style="fill:none;"/><g><path d="M428.71,362.12l0,-19.663c0,-3.036 -2.414,-5.496 -5.387,-5.496l-57.909,0c-2.977,0 -5.387,2.46 -5.387,5.496l0,19.663c0,0.839 -0.604,1.52 -1.347,1.52l-15.232,0c-0.839,0 -1.52,-0.681 -1.52,-1.52l0,-24.32c0,-10.075 8.166,-18.24 18.24,-18.24l68.4,0c10.075,0 18.24,8.165 18.24,18.24l0,24.32c0,0.839 -0.681,1.52 -1.52,1.52l-15.231,0c-0.744,0 -1.347,-0.681 -1.347,-1.52Zm18.098,44.08c0,10.075 -8.165,18.24 -18.24,18.24l-68.4,0c-10.074,0 -18.24,-8.165 -18.24,-18.24l0,-24.32c0,-0.841 0.681,-1.52 1.52,-1.52l15.232,0c0.743,0 1.347,0.679 1.347,1.52l0,19.663c0,3.036 2.41,5.496 5.387,5.496l57.909,0c2.973,0 5.387,-2.46 5.387,-5.496l0,-19.663c0,-0.841 0.603,-1.52 1.347,-1.52l15.231,0c0.839,0 1.52,0.679 1.52,1.52l0,24.32Zm-11.4,-110.2l-82.08,0c-19.31,0 -34.96,15.652 -34.96,34.96l0,82.08c0,19.308 15.65,34.96 34.96,34.96l82.08,0c19.306,0 34.96,-15.652 34.96,-34.96l0,-82.08c0,-19.308 -15.654,-34.96 -34.96,-34.96Z" style="fill:#fff;fill-rule:nonzero;"/><path d="M660.784,347.494l-52.434,0c-1.236,0 -2.24,1.003 -2.24,2.241l0,13.905c0,1.238 1.004,2.241 2.24,2.241l41.354,0c1.238,0 2.241,1.004 2.241,2.242l0,9.72c0,1.238 -1.003,2.241 -2.241,2.241l-41.354,0c-1.236,0 -2.24,1.004 -2.24,2.242l0,11.99c0,1.238 1.004,2.241 2.24,2.241l52.434,0c1.238,0 2.241,1.003 2.241,2.242l0,9.72c0,1.238 -1.003,2.241 -2.241,2.241l-66.742,0c-1.241,0 -2.244,-1.003 -2.244,-2.241l0,-72.985c0,-1.238 1.003,-2.241 2.244,-2.241l66.742,0c1.238,0 2.241,1.003 2.241,2.241l0,9.718c0,1.238 -1.003,2.242 -2.241,2.242Z" style="fill:#fff;fill-rule:nonzero;"/><path d="M740.183,366.159c1.236,0 2.239,-1.003 2.239,-2.241l0,-14.076c0,-1.236 -1.003,-2.241 -2.239,-2.241l-44.474,0c-1.238,0 -2.241,1.005 -2.241,2.241l0,14.076c0,1.238 1.003,2.241 2.241,2.241l44.474,0Zm16.529,40.919c1.226,1.457 0.188,3.682 -1.715,3.682l-12.715,0c-0.663,0 -1.291,-0.292 -1.716,-0.799l-21.035,-28.802c-0.426,-0.507 -1.054,-0.799 -1.715,-0.799l-22.107,0c-1.238,0 -2.241,1.003 -2.241,2.241l0,25.918c0,1.238 -1.003,2.241 -2.242,2.241l-9.72,0c-1.24,0 -2.243,-1.003 -2.243,-2.241l0,-72.877c0,-1.239 1.003,-2.242 2.243,-2.242l60.164,0c8.283,0 15.064,6.779 15.064,14.955l0,17.05c0,8.178 -6.781,14.955 -15.064,14.955l-4.199,0l19.241,26.718Z" style="fill:#fff;fill-rule:nonzero;"/><path d="M869.674,333.293l9.716,0c1.238,0 2.242,1.003 2.242,2.241l0,72.985c0,1.238 -1.004,2.241 -2.242,2.241l-9.716,0c-1.24,0 -2.243,-1.003 -2.243,-2.241l0,-72.985c0,-1.238 1.003,-2.241 2.243,-2.241Z" style="fill:#fff;fill-rule:nonzero;"/><path d="M564.266,363.918c0,1.238 -1.003,2.241 -2.242,2.241l-44.473,0c-1.238,0 -2.241,-1.003 -2.241,-2.241l0,-14.076c0,-1.236 1.003,-2.241 2.241,-2.241l44.473,0c1.239,0 2.242,1.005 2.242,2.241l0,14.076Zm-48.956,18.683c0,-1.238 1.003,-2.241 2.241,-2.241l45.961,0c8.283,0 15.062,-6.777 15.062,-14.953l0,-17.052c0,-8.176 -6.779,-14.955 -15.062,-14.955l-60.162,0c-1.24,0 -2.243,1.003 -2.243,2.242l0,72.877c0,1.238 1.003,2.241 2.243,2.241l9.718,0c1.238,0 2.242,-1.003 2.242,-2.241l0,-25.918Z" style="fill:#fff;fill-rule:nonzero;"/><path d="M835.537,365.881l-46.07,0c-1.238,0 -2.239,-1.005 -2.239,-2.241l0,-13.958c0,-1.238 1.001,-2.241 2.239,-2.241l56.542,0c1.238,0 2.241,-1.003 2.241,-2.242l0,-9.718c0,-1.238 -1.003,-2.241 -2.241,-2.241l-10.472,0l-47.56,0c-8.258,0 -14.954,6.696 -14.954,14.955l0,16.933c0,8.26 6.696,14.956 14.956,14.956l46.018,0c1.167,0.013 2.095,0.923 2.185,2.07l0,12.318c-0.085,1.084 -0.925,1.931 -2.005,2.032l-46.198,0l-10.473,0c-1.237,0 -2.242,1.004 -2.242,2.242l0,9.722c0,1.236 1.005,2.239 2.242,2.239l58.031,0c8.176,0 14.955,-6.671 14.955,-14.956l0,-14.915c0,-8.285 -6.779,-14.955 -14.955,-14.955Z" style="fill:#fff;fill-rule:nonzero;"/></g></svg>