<?xml version="1.0" encoding="UTF-8" standalone="no"?><!DOCTYPE svg PUBLIC "-//W3C//DTD SVG 1.1//EN" "http://www.w3.org/Graphics/SVG/1.1/DTD/svg11.dtd"><svg width="100%" height="100%" viewBox="0 0 900 600" version="1.1" xmlns="http://www.w3.org/2000/svg" xmlns:xlink="http://www.w3.org/1999/xlink" xml:space="preserve" xmlns:serif="http://www.serif.com/" style="fill-rule:evenodd;clip-rule:evenodd;stroke-linejoin:round;stroke-miterlimit:1.41421;"><rect id="logo-staffbot" x="0" y="0" width="900" height="600" style="fill:none;"/><g><path d="M395.223,267.147l-5.96,0l-1.48,-8.321c-1.2,-1.013 -2.8,-1.853 -4.801,-2.519c-2,-0.667 -4.32,-1 -6.96,-1c-4.186,0 -7.402,0.886 -9.642,2.66c-2.24,1.774 -3.359,4.087 -3.359,6.94c0,2.535 1.14,4.646 3.42,6.341c2.28,1.694 5.965,3.18 11.061,4.46c6.135,1.521 10.796,3.761 13.982,6.722c3.185,2.96 4.781,6.625 4.781,11c0,4.695 -1.915,8.468 -5.742,11.321c-3.826,2.856 -8.835,4.281 -15.02,4.281c-4.482,0 -8.462,-0.733 -11.944,-2.201c-3.48,-1.465 -6.313,-3.386 -8.499,-5.76l0,-10.84l5.92,0l1.52,8.36c1.521,1.253 3.334,2.28 5.441,3.08c2.106,0.801 4.627,1.201 7.562,1.201c3.973,0 7.114,-0.84 9.42,-2.522c2.307,-1.679 3.461,-3.959 3.461,-6.839c0,-2.667 -1.001,-4.901 -3.001,-6.701c-2.001,-1.801 -5.535,-3.315 -10.601,-4.542c-6.162,-1.464 -10.976,-3.625 -14.441,-6.481c-3.467,-2.853 -5.202,-6.439 -5.202,-10.759c0,-4.562 1.935,-8.356 5.8,-11.381c3.867,-3.028 8.896,-4.542 15.083,-4.542c4.08,0 7.795,0.701 11.141,2.101c3.347,1.399 6.035,3.1 8.06,5.101l0,10.84Z" style="fill:#fff;fill-rule:nonzero;"/><path d="M416.574,254.465l0,10.442l8.202,0l0,5.841l-8.202,0l0,26.283c0,2.026 0.42,3.453 1.261,4.28c0.84,0.827 1.954,1.24 3.34,1.24c0.694,0 1.475,-0.06 2.341,-0.179c0.865,-0.12 1.594,-0.246 2.179,-0.38l1.081,5.4c-0.747,0.481 -1.841,0.874 -3.282,1.18c-1.44,0.306 -2.88,0.46 -4.32,0.46c-3.199,0 -5.746,-0.966 -7.641,-2.9c-1.893,-1.934 -2.839,-4.967 -2.839,-9.101l0,-26.283l-6.841,0l0,-5.841l6.841,0l0,-10.442l7.88,0Z" style="fill:#fff;fill-rule:nonzero;"/><path d="M447.355,302.432c2.614,0 4.999,-0.627 7.16,-1.882c2.159,-1.253 3.707,-2.759 4.641,-4.52l0,-7.12l-8.402,0c-3.227,0 -5.78,0.747 -7.661,2.24c-1.88,1.494 -2.819,3.306 -2.819,5.441c0,1.894 0.585,3.339 1.759,4.34c1.174,1 2.946,1.501 5.322,1.501Zm12.68,5.76c-0.239,-1.174 -0.426,-2.227 -0.56,-3.161c-0.134,-0.933 -0.227,-1.865 -0.279,-2.799c-1.521,1.946 -3.421,3.566 -5.701,4.86c-2.281,1.295 -4.715,1.94 -7.301,1.94c-4.507,0 -7.936,-1.1 -10.282,-3.3c-2.346,-2.201 -3.52,-5.301 -3.52,-9.302c0,-4.106 1.66,-7.274 4.98,-9.499c3.322,-2.227 7.876,-3.342 13.663,-3.342l8.121,0l0,-5.041c0,-2.534 -0.8,-4.54 -2.401,-6.019c-1.6,-1.482 -3.827,-2.221 -6.681,-2.221c-1.974,0 -3.715,0.253 -5.221,0.759c-1.506,0.508 -2.726,1.202 -3.66,2.082l-0.84,4.56l-6.081,0l0,-8.401c1.974,-1.575 4.362,-2.835 7.161,-3.781c2.8,-0.946 5.841,-1.42 9.121,-1.42c4.907,0 8.881,1.255 11.922,3.76c3.04,2.508 4.559,6.095 4.559,10.762l0,20.842c0,0.56 0.007,1.106 0.022,1.64c0.013,0.534 0.045,1.066 0.099,1.6l3.201,0.44l0,5.041l-10.322,0Z" style="fill:#fff;fill-rule:nonzero;"/><path d="M476.254,270.748l0,-5.841l6.762,0l0,-5.481c0,-4.614 1.205,-8.18 3.621,-10.701c2.414,-2.52 5.78,-3.78 10.1,-3.78c0.906,0 1.82,0.075 2.741,0.22c0.919,0.146 1.939,0.354 3.06,0.62l-0.96,6c-0.48,-0.106 -1.06,-0.2 -1.74,-0.279c-0.681,-0.08 -1.38,-0.119 -2.101,-0.119c-2.32,0 -4.041,0.686 -5.16,2.06c-1.121,1.373 -1.681,3.366 -1.681,5.979l0,5.481l9.042,0l0,5.841l-9.042,0l0,31.284l6.522,1.119l0,5.041l-20.924,0l0,-5.041l6.522,-1.119l0,-31.284l-6.762,0Z" style="fill:#fff;fill-rule:nonzero;"/><path d="M505.797,270.748l0,-5.841l6.76,0l0,-5.481c0,-4.614 1.205,-8.18 3.621,-10.701c2.414,-2.52 5.781,-3.78 10.101,-3.78c0.906,0 1.819,0.075 2.74,0.22c0.921,0.146 1.939,0.354 3.06,0.62l-0.959,6c-0.481,-0.106 -1.061,-0.2 -1.741,-0.279c-0.679,-0.08 -1.38,-0.119 -2.101,-0.119c-2.32,0 -4.041,0.686 -5.16,2.06c-1.121,1.373 -1.68,3.366 -1.68,5.979l0,5.481l9.041,0l0,5.841l-9.041,0l0,31.284l6.521,1.119l0,5.041l-20.922,0l0,-5.041l6.52,-1.119l0,-31.284l-6.76,0Z" style="fill:#fff;fill-rule:nonzero;"/><path d="M570.216,280.87l0,21.162l13.601,0c3.601,0 6.395,-0.886 8.381,-2.66c1.987,-1.776 2.981,-4.287 2.981,-7.541c0,-3.414 -0.835,-6.096 -2.502,-8.042c-1.665,-1.946 -4.219,-2.919 -7.66,-2.919l-14.801,0Zm0,-6.162l13.161,0c2.826,-0.08 5.114,-0.919 6.861,-2.52c1.746,-1.6 2.619,-3.814 2.619,-6.641c0,-3.146 -0.985,-5.501 -2.959,-7.06c-1.974,-1.56 -4.826,-2.341 -8.561,-2.341l-11.121,0l0,18.562Zm11.121,-24.761c6.081,0 10.836,1.314 14.261,3.939c3.426,2.626 5.141,6.567 5.141,11.821c0,2.586 -0.82,4.901 -2.461,6.941c-1.64,2.04 -3.805,3.554 -6.5,4.541c3.495,0.746 6.254,2.465 8.281,5.16c2.025,2.695 3.04,5.827 3.04,9.401c0,5.335 -1.734,9.407 -5.201,12.221c-3.467,2.814 -8.16,4.221 -14.081,4.221l-28.003,0l0,-5.041l6.52,-1.119l0,-45.886l-6.52,-1.121l0,-5.078l25.523,0Z" style="fill:#fff;fill-rule:nonzero;"/><path d="M617.514,287.03c0,4.586 0.968,8.375 2.902,11.361c1.934,2.986 4.806,4.481 8.62,4.481c3.735,0 6.575,-1.495 8.521,-4.481c1.946,-2.986 2.922,-6.775 2.922,-11.361l0,-0.88c0,-4.535 -0.976,-8.308 -2.922,-11.321c-1.946,-3.014 -4.814,-4.521 -8.6,-4.521c-3.788,0 -6.641,1.507 -8.561,4.521c-1.921,3.013 -2.882,6.786 -2.882,11.321l0,0.88Zm-7.881,-0.88c0,-6.401 1.736,-11.675 5.201,-15.822c3.467,-4.146 8.176,-6.221 14.123,-6.221c5.975,0 10.7,2.067 14.18,6.201c3.48,4.135 5.221,9.414 5.221,15.842l0,0.88c0,6.454 -1.734,11.735 -5.199,15.842c-3.467,4.106 -8.176,6.16 -14.123,6.16c-6,0 -10.735,-2.06 -14.202,-6.18c-3.465,-4.122 -5.201,-9.396 -5.201,-15.822l0,-0.88Z" style="fill:#fff;fill-rule:nonzero;"/><path d="M667.315,254.465l0,10.442l8.2,0l0,5.841l-8.2,0l0,26.283c0,2.026 0.42,3.453 1.26,4.28c0.839,0.827 1.954,1.24 3.341,1.24c0.693,0 1.473,-0.06 2.339,-0.179c0.867,-0.12 1.594,-0.246 2.181,-0.38l1.08,5.4c-0.746,0.481 -1.841,0.874 -3.281,1.18c-1.44,0.306 -2.88,0.46 -4.32,0.46c-3.2,0 -5.746,-0.966 -7.641,-2.9c-1.895,-1.934 -2.84,-4.967 -2.84,-9.101l0,-26.283l-6.842,0l0,-5.841l6.842,0l0,-10.442l7.881,0Z" style="fill:#fff;fill-rule:nonzero;"/><path d="M357.462,333.209l0.08,1.92c1.269,-1.495 2.982,-2.24 5.136,-2.24c2.422,0 4.071,0.929 4.945,2.784c0.576,-0.832 1.326,-1.505 2.249,-2.016c0.921,-0.512 2.013,-0.768 3.272,-0.768c3.799,0 5.728,2.01 5.793,6.033l0,11.601l-2.961,0l0,-11.426c0,-1.239 -0.283,-2.161 -0.848,-2.776c-0.566,-0.613 -1.515,-0.919 -2.849,-0.919c-1.098,0 -2.009,0.327 -2.736,0.983c-0.726,0.657 -1.146,1.538 -1.265,2.649l0,11.489l-2.976,0l0,-11.345c0,-2.518 -1.232,-3.776 -3.697,-3.776c-1.941,0 -3.27,0.826 -3.982,2.48l0,12.641l-2.962,0l0,-17.314l2.801,0Z" style="fill:#fff;fill-rule:nonzero;"/><path d="M385.593,342.058c0,1.921 0.446,3.462 1.336,4.624c0.891,1.162 2.081,1.744 3.576,1.744c1.504,0 2.7,-0.588 3.584,-1.767c0.886,-1.179 1.329,-2.83 1.329,-4.953c0,-1.898 -0.451,-3.439 -1.352,-4.616c-0.903,-1.179 -2.098,-1.769 -3.593,-1.769c-1.463,0 -2.64,0.582 -3.536,1.744c-0.896,1.162 -1.344,2.827 -1.344,4.993Zm-2.976,-0.352c0,-1.697 0.334,-3.223 1,-4.577c0.666,-1.354 1.594,-2.4 2.784,-3.136c1.191,-0.736 2.546,-1.104 4.072,-1.104c2.358,0 4.264,0.816 5.721,2.448c1.456,1.632 2.184,3.803 2.184,6.513l0,0.208c0,1.686 -0.321,3.199 -0.967,4.536c-0.647,1.338 -1.569,2.383 -2.77,3.128c-1.198,0.746 -2.577,1.121 -4.136,1.121c-2.346,0 -4.249,-0.816 -5.704,-2.448c-1.457,-1.632 -2.184,-3.793 -2.184,-6.481l0,-0.208Z" style="fill:#fff;fill-rule:nonzero;"/><path d="M413.788,341.722c0,-2.017 -0.39,-3.574 -1.169,-4.672c-0.777,-1.098 -1.898,-1.648 -3.359,-1.648c-1.953,0 -3.355,0.906 -4.208,2.719l0,7.49c0.904,1.813 2.32,2.719 4.239,2.719c1.419,0 2.523,-0.55 3.313,-1.648c0.789,-1.098 1.184,-2.753 1.184,-4.96Zm2.961,0.336c0,2.647 -0.608,4.771 -1.825,6.377c-1.217,1.607 -2.849,2.408 -4.897,2.408c-2.186,0 -3.877,-0.773 -5.072,-2.321l-0.144,2.001l-2.72,0l0,-24.58l2.961,0l0,9.169c1.194,-1.481 2.84,-2.223 4.943,-2.223c2.103,0 3.753,0.795 4.954,2.384c1.2,1.59 1.8,3.766 1.8,6.529l0,0.256Z" style="fill:#fff;fill-rule:nonzero;"/><path d="M423.693,350.523l-2.961,0l0,-17.314l2.961,0l0,17.314Zm-3.201,-21.906c0,-0.48 0.147,-0.887 0.442,-1.217c0.292,-0.329 0.727,-0.496 1.304,-0.496c0.575,0 1.013,0.167 1.311,0.496c0.298,0.33 0.448,0.737 0.448,1.217c0,0.479 -0.15,0.879 -0.448,1.2c-0.298,0.321 -0.736,0.479 -1.311,0.479c-0.577,0 -1.012,-0.158 -1.304,-0.479c-0.295,-0.321 -0.442,-0.721 -0.442,-1.2Z" style="fill:#fff;fill-rule:nonzero;"/><rect x="428.686" y="325.943" width="2.961" height="24.579" style="fill:#fff;"/><path d="M443.2,335.321c-1.195,0 -2.199,0.434 -3.009,1.304c-0.81,0.87 -1.311,2.088 -1.504,3.657l8.673,0l0,-0.225c-0.086,-1.504 -0.49,-2.67 -1.215,-3.496c-0.728,-0.825 -1.708,-1.24 -2.945,-1.24Zm0.367,15.522c-2.346,0 -4.256,-0.77 -5.729,-2.313c-1.471,-1.542 -2.207,-3.602 -2.207,-6.184l0,-0.544c0,-1.718 0.328,-3.251 0.984,-4.602c0.655,-1.349 1.574,-2.405 2.751,-3.167c1.179,-0.762 2.457,-1.144 3.834,-1.144c2.25,0 3.999,0.742 5.248,2.223c1.248,1.483 1.871,3.608 1.871,6.37l0,1.232l-11.728,0c0.043,1.706 0.542,3.087 1.496,4.137c0.954,1.05 2.169,1.575 3.64,1.575c1.047,0 1.931,-0.213 2.657,-0.64c0.726,-0.426 1.359,-0.991 1.903,-1.696l1.809,1.409c-1.45,2.23 -3.626,3.344 -6.529,3.344Z" style="fill:#fff;fill-rule:nonzero;"/><path d="M464.098,342.058c0,1.962 0.406,3.498 1.216,4.609c0.811,1.11 1.93,1.663 3.36,1.663c1.878,0 3.249,-0.841 4.113,-2.527l0,-7.953c-0.886,-1.633 -2.247,-2.448 -4.08,-2.448c-1.45,0 -2.582,0.559 -3.393,1.679c-0.81,1.12 -1.216,2.778 -1.216,4.977Zm-2.961,-0.336c0,-2.657 0.631,-4.793 1.889,-6.41c1.258,-1.615 2.905,-2.423 4.944,-2.423c2.027,0 3.634,0.694 4.817,2.08l0,-9.026l2.96,0l0,24.58l-2.72,0l-0.144,-1.855c-1.184,1.448 -2.832,2.175 -4.945,2.175c-2.007,0 -3.64,-0.823 -4.905,-2.465c-1.263,-1.641 -1.896,-3.786 -1.896,-6.433l0,-0.223Z" style="fill:#fff;fill-rule:nonzero;"/><path d="M482.532,342.058c0,1.921 0.446,3.462 1.336,4.624c0.891,1.162 2.083,1.744 3.577,1.744c1.503,0 2.697,-0.588 3.585,-1.767c0.886,-1.179 1.327,-2.83 1.327,-4.953c0,-1.898 -0.449,-3.439 -1.352,-4.616c-0.903,-1.179 -2.098,-1.769 -3.593,-1.769c-1.461,0 -2.64,0.582 -3.536,1.744c-0.896,1.162 -1.344,2.827 -1.344,4.993Zm-2.976,-0.352c0,-1.697 0.334,-3.223 1,-4.577c0.665,-1.354 1.594,-2.4 2.784,-3.136c1.191,-0.736 2.546,-1.104 4.072,-1.104c2.358,0 4.266,0.816 5.721,2.448c1.456,1.632 2.184,3.803 2.184,6.513l0,0.208c0,1.686 -0.323,3.199 -0.968,4.536c-0.646,1.338 -1.569,2.383 -2.769,3.128c-1.2,0.746 -2.577,1.121 -4.135,1.121c-2.347,0 -4.249,-0.816 -5.705,-2.448c-1.457,-1.632 -2.184,-3.793 -2.184,-6.481l0,-0.208Z" style="fill:#fff;fill-rule:nonzero;"/><path d="M505.975,348.426c1.055,0 1.978,-0.319 2.768,-0.96c0.79,-0.64 1.227,-1.44 1.311,-2.399l2.801,0c-0.055,0.992 -0.394,1.936 -1.024,2.832c-0.63,0.896 -1.471,1.61 -2.519,2.144c-1.052,0.534 -2.163,0.8 -3.337,0.8c-2.359,0 -4.234,-0.787 -5.626,-2.36c-1.392,-1.574 -2.088,-3.727 -2.088,-6.457l0,-0.496c0,-1.686 0.311,-3.184 0.929,-4.497c0.619,-1.312 1.506,-2.329 2.664,-3.056c1.159,-0.726 2.526,-1.088 4.105,-1.088c1.942,0 3.554,0.582 4.841,1.744c1.284,1.162 1.969,2.672 2.055,4.528l-2.801,0c-0.084,-1.119 -0.509,-2.04 -1.271,-2.759c-0.763,-0.721 -1.705,-1.081 -2.824,-1.081c-1.505,0 -2.67,0.542 -3.497,1.625c-0.827,1.081 -1.24,2.648 -1.24,4.697l0,0.559c0,1.994 0.41,3.531 1.232,4.607c0.822,1.08 1.994,1.617 3.521,1.617Z" style="fill:#fff;fill-rule:nonzero;"/><path d="M526.873,348.81c-1.152,1.356 -2.842,2.033 -5.072,2.033c-1.847,0 -3.251,-0.535 -4.216,-1.608c-0.967,-1.073 -1.455,-2.659 -1.465,-4.762l0,-11.264l2.959,0l0,11.185c0,2.624 1.067,3.936 3.201,3.936c2.263,0 3.766,-0.841 4.512,-2.527l0,-12.594l2.961,0l0,17.314l-2.816,0l-0.064,-1.713Z" style="fill:#fff;fill-rule:nonzero;"/><path d="M537.034,333.209l0.081,1.92c1.27,-1.495 2.981,-2.24 5.135,-2.24c2.422,0 4.069,0.929 4.945,2.784c0.575,-0.832 1.326,-1.505 2.249,-2.016c0.922,-0.512 2.013,-0.768 3.271,-0.768c3.798,0 5.729,2.01 5.794,6.033l0,11.601l-2.961,0l0,-11.426c0,-1.239 -0.282,-2.161 -0.849,-2.776c-0.565,-0.613 -1.514,-0.919 -2.847,-0.919c-1.099,0 -2.01,0.327 -2.737,0.983c-0.726,0.657 -1.146,1.538 -1.263,2.649l0,11.489l-2.98,0l0,-11.345c0,-2.518 -1.231,-3.776 -3.693,-3.776c-1.943,0 -3.272,0.826 -3.985,2.48l0,12.641l-2.961,0l0,-17.314l2.801,0Z" style="fill:#fff;fill-rule:nonzero;"/><path d="M569.789,335.321c-1.194,0 -2.197,0.434 -3.007,1.304c-0.81,0.87 -1.313,2.088 -1.505,3.657l8.673,0l0,-0.225c-0.086,-1.504 -0.491,-2.67 -1.217,-3.496c-0.725,-0.825 -1.706,-1.24 -2.944,-1.24Zm0.369,15.522c-2.346,0 -4.256,-0.77 -5.729,-2.313c-1.473,-1.542 -2.207,-3.602 -2.207,-6.184l0,-0.544c0,-1.718 0.327,-3.251 0.984,-4.602c0.654,-1.349 1.574,-2.405 2.751,-3.167c1.178,-0.762 2.456,-1.144 3.832,-1.144c2.252,0 4.001,0.742 5.249,2.223c1.248,1.483 1.872,3.608 1.872,6.37l0,1.232l-11.729,0c0.042,1.706 0.543,3.087 1.496,4.137c0.954,1.05 2.168,1.575 3.641,1.575c1.045,0 1.929,-0.213 2.655,-0.64c0.726,-0.426 1.361,-0.991 1.905,-1.696l1.808,1.409c-1.449,2.23 -3.625,3.344 -6.528,3.344Z" style="fill:#fff;fill-rule:nonzero;"/><path d="M583.134,333.209l0.098,2.176c1.321,-1.665 3.05,-2.496 5.183,-2.496c3.659,0 5.505,2.065 5.537,6.193l0,11.441l-2.96,0l0,-11.458c-0.01,-1.248 -0.296,-2.17 -0.856,-2.767c-0.56,-0.599 -1.432,-0.896 -2.617,-0.896c-0.959,0 -1.802,0.254 -2.528,0.767c-0.726,0.512 -1.29,1.185 -1.696,2.017l0,12.337l-2.96,0l0,-17.314l2.799,0Z" style="fill:#fff;fill-rule:nonzero;"/><path d="M602.433,329.017l0,4.192l3.232,0l0,2.289l-3.232,0l0,10.751c0,0.694 0.144,1.213 0.433,1.561c0.288,0.347 0.777,0.52 1.472,0.52c0.342,0 0.81,-0.064 1.408,-0.191l0,2.387c-0.778,0.21 -1.536,0.317 -2.273,0.317c-1.323,0 -2.319,-0.4 -2.992,-1.2c-0.672,-0.8 -1.009,-1.938 -1.009,-3.409l0,-10.736l-3.151,0l0,-2.289l3.151,0l0,-4.192l2.961,0Z" style="fill:#fff;fill-rule:nonzero;"/><path d="M614.899,348.266c0.927,0 1.809,-0.24 2.64,-0.719c0.832,-0.48 1.434,-1.105 1.809,-1.873l0,-3.552l-2.321,0c-3.626,0 -5.441,1.062 -5.441,3.185c0,0.927 0.311,1.653 0.927,2.175c0.619,0.523 1.415,0.784 2.386,0.784Zm4.912,2.257c-0.17,-0.343 -0.309,-0.951 -0.415,-1.824c-1.377,1.43 -3.019,2.144 -4.929,2.144c-1.707,0 -3.106,-0.482 -4.201,-1.448c-1.094,-0.967 -1.64,-2.19 -1.64,-3.672c0,-1.804 0.686,-3.202 2.057,-4.201c1.369,-0.998 3.298,-1.496 5.785,-1.496l2.88,0l0,-1.361c0,-1.033 -0.311,-1.858 -0.929,-2.471c-0.619,-0.614 -1.531,-0.921 -2.736,-0.921c-1.057,0 -1.943,0.266 -2.656,0.8c-0.715,0.534 -1.073,1.179 -1.073,1.936l-2.975,0c0,-0.863 0.305,-1.698 0.919,-2.503c0.615,-0.807 1.446,-1.442 2.496,-1.913c1.05,-0.47 2.207,-0.704 3.464,-0.704c1.995,0 3.559,0.497 4.689,1.496c1.13,0.999 1.719,2.371 1.76,4.122l0,7.967c0,1.59 0.202,2.855 0.609,3.792l0,0.257l-3.105,0Z" style="fill:#fff;fill-rule:nonzero;"/><path d="M630.964,329.017l0,4.192l3.232,0l0,2.289l-3.232,0l0,10.751c0,0.694 0.145,1.213 0.433,1.561c0.288,0.347 0.777,0.52 1.472,0.52c0.342,0 0.81,-0.064 1.408,-0.191l0,2.387c-0.779,0.21 -1.536,0.317 -2.271,0.317c-1.323,0 -2.322,-0.4 -2.995,-1.2c-0.671,-0.8 -1.006,-1.938 -1.006,-3.409l0,-10.736l-3.153,0l0,-2.289l3.153,0l0,-4.192l2.959,0Z" style="fill:#fff;fill-rule:nonzero;"/><path d="M640.869,350.523l-2.96,0l0,-17.314l2.96,0l0,17.314Zm-3.199,-21.906c0,-0.48 0.145,-0.887 0.439,-1.217c0.295,-0.329 0.728,-0.496 1.303,-0.496c0.577,0 1.015,0.167 1.313,0.496c0.299,0.33 0.448,0.737 0.448,1.217c0,0.479 -0.149,0.879 -0.448,1.2c-0.298,0.321 -0.736,0.479 -1.313,0.479c-0.575,0 -1.008,-0.158 -1.303,-0.479c-0.294,-0.321 -0.439,-0.721 -0.439,-1.2Z" style="fill:#fff;fill-rule:nonzero;"/><path d="M647.798,342.058c0,1.921 0.446,3.462 1.336,4.624c0.891,1.162 2.083,1.744 3.577,1.744c1.505,0 2.698,-0.588 3.585,-1.767c0.886,-1.179 1.327,-2.83 1.327,-4.953c0,-1.898 -0.449,-3.439 -1.352,-4.616c-0.901,-1.179 -2.098,-1.769 -3.593,-1.769c-1.461,0 -2.64,0.582 -3.536,1.744c-0.896,1.162 -1.344,2.827 -1.344,4.993Zm-2.976,-0.352c0,-1.697 0.334,-3.223 1,-4.577c0.666,-1.354 1.594,-2.4 2.784,-3.136c1.191,-0.736 2.546,-1.104 4.072,-1.104c2.359,0 4.266,0.816 5.721,2.448c1.456,1.632 2.185,3.803 2.185,6.513l0,0.208c0,1.686 -0.322,3.199 -0.969,4.536c-0.644,1.338 -1.569,2.383 -2.767,3.128c-1.2,0.746 -2.579,1.121 -4.137,1.121c-2.346,0 -4.249,-0.816 -5.705,-2.448c-1.457,-1.632 -2.184,-3.793 -2.184,-6.481l0,-0.208Z" style="fill:#fff;fill-rule:nonzero;"/><path d="M667.097,333.209l0.095,2.176c1.323,-1.665 3.051,-2.496 5.185,-2.496c3.659,0 5.506,2.065 5.537,6.193l0,11.441l-2.961,0l0,-11.458c-0.01,-1.248 -0.296,-2.17 -0.856,-2.767c-0.559,-0.599 -1.432,-0.896 -2.616,-0.896c-0.96,0 -1.802,0.254 -2.528,0.767c-0.726,0.512 -1.291,1.185 -1.696,2.017l0,12.337l-2.961,0l0,-17.314l2.801,0Z" style="fill:#fff;fill-rule:nonzero;"/><path d="M304.633,316.237c-0.617,-1.489 -1.324,-2.957 -2.126,-4.401c-1.769,-3.056 -3.751,-6.076 -6.15,-8.951c-4.648,-5.818 -10.35,-11.276 -16.006,-16.966c-1.168,-1.167 -2.346,-2.351 -3.522,-3.555l-0.23,0.177l-0.231,0.176c-1.08,0.821 -2.172,1.623 -3.273,2.408c-3.444,2.406 -6.956,4.707 -10.586,6.817c-1.814,1.064 -3.659,2.07 -5.532,3.05c-1.916,0.984 -3.667,1.933 -5.858,2.905l-7.922,-4.659l3.166,-8.868c1.561,-0.397 3.5,-0.984 5.241,-1.604c1.779,-0.638 3.559,-1.309 5.318,-2.039c3.527,-1.438 6.986,-3.058 10.304,-4.906c0.785,-0.433 1.565,-0.876 2.337,-1.331c-1.97,-2.296 -3.865,-4.681 -5.627,-7.176c-2.452,-3.429 -4.704,-7.054 -6.575,-10.979c-1.854,-3.918 -3.411,-8.141 -3.887,-12.858c-0.23,-2.389 -0.143,-4.761 0.261,-7.054c0.331,-2.32 1.111,-4.582 2.068,-6.729c1.002,-2.143 2.341,-4.107 3.867,-5.894c1.589,-1.736 3.376,-3.265 5.335,-4.545c1.991,-1.23 4.135,-2.189 6.38,-2.844c2.254,-0.633 4.613,-0.893 6.957,-0.845c4.681,0.113 9.265,1.637 13.043,4.322c3.783,2.659 6.866,6.398 8.611,10.708c0.907,2.143 1.425,4.41 1.74,6.681c0.126,1.131 0.186,2.282 0.217,3.403c-0.028,1.106 -0.03,2.215 -0.094,3.321c-0.63,8.938 -4.762,17.233 -10.067,23.945c-2.044,2.579 -4.252,4.979 -6.581,7.232c0.941,0.848 1.894,1.695 2.854,2.545c5.929,5.298 12.169,10.532 17.919,16.869c2.913,3.097 5.59,6.603 8.036,10.323c2.413,3.771 4.413,7.911 5.939,12.263c1.371,4.382 2.43,8.944 2.69,13.502c0.45,4.561 0.149,9.133 -0.476,13.785c-1.513,9.244 -5.803,18.626 -12.878,25.604c-3.508,3.464 -7.522,6.432 -11.887,8.665c-4.376,2.201 -9.024,3.776 -13.792,4.739c-9.537,1.757 -19.576,1.192 -28.978,-2.307c-2.373,-0.806 -4.63,-1.959 -6.896,-3.095c-2.183,-1.316 -4.391,-2.612 -6.395,-4.255c-4.056,-3.165 -7.749,-6.997 -10.555,-11.403c-2.867,-4.351 -5.08,-9.154 -6.405,-14.059c-1.504,-4.916 -2.005,-9.871 -2.301,-14.774l11.851,-12.137l12.727,12.137c-0.022,3.067 -0.015,6.147 0.638,8.947c0.493,2.875 1.491,5.504 2.802,7.943c1.257,2.485 3.049,4.636 5.114,6.567c0.995,1.015 2.204,1.805 3.353,2.691c1.266,0.726 2.491,1.548 3.878,2.125c5.398,2.587 11.853,3.526 18.076,2.819c3.103,-0.411 6.142,-1.206 9.01,-2.381c2.855,-1.21 5.448,-2.884 7.781,-4.849c4.564,-3.905 7.692,-9.354 9.287,-15.602l-25.787,0c-2.262,0 -4.095,-1.834 -4.095,-4.096c0,-2.263 1.833,-4.096 4.095,-4.096l26.876,0c0.133,-3.086 -0.046,-6.203 -0.587,-9.218l-46.883,0c-2.261,0 -4.096,-1.833 -4.096,-4.096c0,-2.262 1.835,-4.097 4.096,-4.097l44.411,0Zm-19.426,-41.055l0.004,-0.004l-0.001,-0.001l0,0l-0.004,-0.004l0.001,0.009Zm-15.644,-0.692l0.003,0.004l0.001,-0.006l-0.004,0.002Zm8.676,-5.893l0,-0.001l-0.001,0l2.505,-2.08c1.53,-1.34 2.984,-2.749 4.346,-4.231c5.007,-5.391 8.636,-11.92 9.509,-19.001c0.5,-3.596 0.185,-6.99 -0.981,-10.155c-1.187,-3.106 -3.225,-5.95 -6.023,-7.826c-2.736,-1.936 -6.074,-3.009 -9.377,-3.074c-3.295,-0.008 -6.57,1.105 -9.318,2.961c-1.351,0.966 -2.574,2.093 -3.614,3.371c-0.987,1.316 -1.844,2.722 -2.454,4.241c-1.188,2.994 -1.59,6.511 -1.071,9.647c0.516,3.235 1.916,6.57 3.68,9.749c1.766,3.193 3.928,6.266 6.307,9.194c2.017,2.516 4.193,4.893 6.492,7.205Z" style="fill:#fff;"/></g></svg>