<?xml version="1.0" encoding="UTF-8" standalone="no"?><!DOCTYPE svg PUBLIC "-//W3C//DTD SVG 1.1//EN" "http://www.w3.org/Graphics/SVG/1.1/DTD/svg11.dtd"><svg width="100%" height="100%" viewBox="0 0 900 600" version="1.1" xmlns="http://www.w3.org/2000/svg" xmlns:xlink="http://www.w3.org/1999/xlink" xml:space="preserve" xmlns:serif="http://www.serif.com/" style="fill-rule:evenodd;clip-rule:evenodd;stroke-linejoin:round;stroke-miterlimit:1.41421;"><rect id="logo-jtbsi" x="0" y="0" width="900" height="600" style="fill:none;"/><g><path d="M276.066,377.924c-5.456,0 -9.894,4.438 -9.894,9.892c0,5.455 4.438,9.896 9.894,9.896c5.454,0 9.892,-4.441 9.892,-9.896c0,-5.454 -4.438,-9.892 -9.892,-9.892Zm0,30.108c-11.148,0 -20.218,-9.069 -20.218,-20.216c0,-11.146 9.07,-20.214 20.218,-20.214c11.145,0 20.214,9.068 20.214,20.214c0,11.147 -9.069,20.216 -20.214,20.216Z" style="fill:#fff;fill-rule:nonzero;"/><path d="M395.037,202.29c-5.454,0 -9.892,4.438 -9.892,9.894c0,5.454 4.438,9.892 9.892,9.892c5.456,0 9.896,-4.438 9.896,-9.892c0,-5.456 -4.44,-9.894 -9.896,-9.894Zm0,30.108c-11.145,0 -20.214,-9.068 -20.214,-20.214c0,-11.147 9.069,-20.216 20.214,-20.216c11.149,0 20.218,9.069 20.218,20.216c0,11.146 -9.069,20.214 -20.218,20.214Z" style="fill:#fff;fill-rule:nonzero;"/><path d="M288.698,313.401l-5.082,8.806c-0.235,0.403 -0.235,0.9 0,1.304l12.592,21.811c0.252,0.434 -0.063,0.977 -0.565,0.977l-39.155,0c-0.503,0 -0.816,-0.543 -0.566,-0.977l4.31,-7.465l4.665,-8.078l11.169,-19.346l20.142,-34.888l47.798,-82.817c0.251,-0.435 -0.063,-0.979 -0.565,-0.979l-10.164,0c-0.466,0 -0.896,0.249 -1.13,0.653l-29.35,50.864l-6.023,10.435l-20.144,34.887c-0.251,0.434 -0.879,0.434 -1.13,0l-9.185,-15.908l-10.393,-18.002c-0.25,-0.435 0.063,-0.977 0.566,-0.977l25.185,0c0.466,0 0.897,-0.25 1.129,-0.653l5.083,-8.804c0.251,-0.434 -0.063,-0.978 -0.565,-0.978l-40.814,0c-1.314,0 -2.628,0.407 -3.61,1.277c-1.939,1.717 -2.304,4.451 -1.092,6.548l15.115,26.181l12.745,22.075c0.234,0.404 0.234,0.901 0,1.304l-27.86,48.258c-1.212,2.097 -0.847,4.831 1.092,6.546c0.982,0.872 2.296,1.279 3.61,1.279l59.12,0c1.312,0 2.626,-0.407 3.61,-1.279c1.939,-1.715 2.304,-4.449 1.092,-6.546l-20.499,-35.508c-0.253,-0.434 -0.881,-0.434 -1.131,0Z" style="fill:#fff;fill-rule:nonzero;"/><path d="M382.407,286.599l5.082,-8.806c0.234,-0.403 0.234,-0.9 0,-1.304l-12.593,-21.811c-0.25,-0.434 0.062,-0.977 0.566,-0.977l39.154,0c0.502,0 0.816,0.543 0.565,0.977l-4.31,7.465l-4.664,8.078l-11.17,19.346l-20.141,34.888l-47.798,82.817c-0.251,0.435 0.062,0.979 0.564,0.979l10.164,0c0.467,0 0.897,-0.249 1.129,-0.653l29.353,-50.864l6.023,-10.435l20.144,-34.887c0.25,-0.434 0.878,-0.434 1.128,0l9.185,15.908l10.393,18.002c0.251,0.435 -0.063,0.977 -0.565,0.977l-25.186,0c-0.464,0 -0.897,0.25 -1.129,0.653l-5.082,8.804c-0.251,0.434 0.062,0.978 0.564,0.978l40.814,0c1.316,0 2.628,-0.407 3.61,-1.277c1.941,-1.717 2.305,-4.451 1.092,-6.548l-15.115,-26.181l-12.744,-22.075c-0.234,-0.404 -0.234,-0.901 0,-1.304l27.859,-48.258c1.213,-2.097 0.849,-4.831 -1.092,-6.546c-0.982,-0.872 -2.294,-1.279 -3.61,-1.279l-59.118,0c-1.314,0 -2.626,0.407 -3.612,1.279c-1.939,1.715 -2.302,4.449 -1.09,6.546l20.499,35.508c0.251,0.434 0.88,0.434 1.131,0Z" style="fill:#fff;fill-rule:nonzero;"/><path d="M355.767,300c0,-11.157 -9.058,-20.216 -20.215,-20.216c-11.157,0 -20.215,9.059 -20.215,20.216c0,11.157 9.058,20.216 20.215,20.216c11.157,0 20.215,-9.059 20.215,-20.216Z" style="fill:#fff;"/><path d="M467.599,268.343l1.37,-4.361c0.72,0.383 1.358,0.578 1.91,0.578c1.203,0 1.803,-0.747 1.803,-2.237l0,-17.77l5.047,0l0,18.202c0,1.948 -0.569,3.491 -1.711,4.631c-1.143,1.145 -2.674,1.716 -4.597,1.716c-1.396,0 -2.669,-0.255 -3.822,-0.759Z" style="fill:#fff;fill-rule:nonzero;"/><path d="M487.49,267.768c-1.515,-0.841 -2.686,-2.027 -3.515,-3.553c-0.83,-1.526 -1.243,-3.285 -1.243,-5.28l0,-14.382l5.263,0l0,13.985c0,1.78 0.426,3.191 1.28,4.237c0.852,1.043 2.011,1.567 3.478,1.567c1.465,0 2.63,-0.524 3.495,-1.567c0.867,-1.046 1.298,-2.457 1.298,-4.237l0,-13.985l5.226,0l0,14.382c0,1.995 -0.412,3.754 -1.243,5.28c-0.828,1.526 -2,2.712 -3.515,3.553c-1.513,0.839 -3.267,1.26 -5.261,1.26c-1.996,0 -3.749,-0.421 -5.263,-1.26Z" style="fill:#fff;fill-rule:nonzero;"/><path d="M515.353,264.018c2.427,0 4.339,-0.709 5.731,-2.128c1.393,-1.416 2.092,-3.362 2.092,-5.838c0,-2.234 -0.596,-3.954 -1.786,-5.154c-1.19,-1.203 -2.901,-1.803 -5.136,-1.803l-3.244,0l0,14.923l2.343,0Zm-7.569,4.541l0,-24.006c1.033,-0.023 2.557,-0.036 4.577,-0.036c2.042,0 3.569,0.013 4.578,0.036c2.355,0.026 4.402,0.5 6.144,1.424c1.743,0.925 3.087,2.242 4.039,3.945c0.95,1.708 1.423,3.702 1.423,5.985c0,2.5 -0.547,4.698 -1.64,6.598c-1.093,1.897 -2.632,3.375 -4.613,4.431c-1.981,1.06 -4.286,1.6 -6.903,1.623c-0.84,0.025 -2.104,0.035 -3.786,0.035c-1.706,0 -2.979,-0.01 -3.819,-0.035Z" style="fill:#fff;fill-rule:nonzero;"/><path d="M547.925,262.323c1.193,-1.417 1.786,-3.303 1.786,-5.657c0,-1.539 -0.27,-2.904 -0.81,-4.094c-0.54,-1.187 -1.311,-2.102 -2.309,-2.739c-0.995,-0.636 -2.132,-0.955 -3.408,-0.955c-1.271,0 -2.407,0.319 -3.402,0.955c-0.999,0.637 -1.767,1.552 -2.309,2.739c-0.539,1.19 -0.809,2.555 -0.809,4.094c0,1.536 0.27,2.893 0.809,4.073c0.542,1.175 1.306,2.089 2.29,2.738c0.985,0.65 2.129,0.973 3.421,0.973c1.974,0 3.554,-0.707 4.741,-2.127Zm-10.975,5.155c-1.801,-1.034 -3.201,-2.487 -4.198,-4.361c-0.997,-1.875 -1.497,-4.023 -1.497,-6.451c0,-2.454 0.493,-4.617 1.479,-6.492c0.984,-1.871 2.378,-3.327 4.182,-4.361c1.801,-1.03 3.89,-1.548 6.268,-1.548c2.356,0 4.437,0.51 6.238,1.531c1.804,1.021 3.197,2.458 4.182,4.308c0.984,1.852 1.48,3.989 1.48,6.416c0,2.476 -0.496,4.656 -1.48,6.541c-0.985,1.888 -2.378,3.353 -4.182,4.399c-1.801,1.046 -3.882,1.568 -6.238,1.568c-2.352,0 -4.431,-0.518 -6.234,-1.55Z" style="fill:#fff;fill-rule:nonzero;"/><path d="M571.374,249.095l-6.56,0l0,-4.542l18.312,0l0,4.542l-6.487,0l0,19.464l-5.265,0l0,-19.464Z" style="fill:#fff;fill-rule:nonzero;"/><path d="M586.189,244.553l14.599,0l0,4.542l-9.445,0l0,4.794l7.824,0l0,4.396l-7.824,0l0,5.733l9.445,0l0,4.541l-14.599,0l0,-24.006Z" style="fill:#fff;fill-rule:nonzero;"/><path d="M618.251,258.612l-3.243,-9.193l-3.136,9.193l6.379,0Zm-6.271,-14.059l6.271,0l8.905,24.006l-5.408,0l-1.945,-5.479l-9.446,0l-1.838,5.479l-5.335,0l8.796,-24.006Z" style="fill:#fff;fill-rule:nonzero;"/><path d="M635.54,251.62l-1.516,16.939l-4.649,0l2.271,-24.006l6.488,0l6.128,17.23l5.948,-17.23l6.487,0l2.198,24.006l-4.684,0l-1.658,-16.868l-6.345,17.12l-4.287,0.397l-6.381,-17.588Z" style="fill:#fff;fill-rule:nonzero;"/><path d="M477.908,307.813c1.299,0 2.313,-0.3 3.047,-0.902c0.733,-0.598 1.1,-1.407 1.1,-2.415c0,-0.912 -0.314,-1.622 -0.938,-2.127c-0.625,-0.504 -1.526,-0.756 -2.703,-0.756l-2.812,0l0,6.2l2.306,0Zm-0.504,-10.238c1.201,0 2.132,-0.275 2.793,-0.828c0.661,-0.553 0.992,-1.322 0.992,-2.307c0,-1.779 -1.106,-2.668 -3.315,-2.668l-2.272,0l0,5.803l1.802,0Zm-6.811,-9.767l8.037,0c2.331,0 4.174,0.558 5.533,1.677c1.357,1.116 2.037,2.637 2.037,4.559c0,2.187 -0.95,3.87 -2.849,5.047c2.526,1.009 3.786,2.786 3.786,5.334c0,1.441 -0.361,2.721 -1.082,3.839c-0.72,1.117 -1.723,1.989 -3.01,2.613c-1.286,0.623 -2.732,0.937 -4.342,0.937l-8.11,0l0,-24.006Z" style="fill:#fff;fill-rule:nonzero;"/><path d="M490.034,297.181c1.08,-1.371 1.813,-2.561 2.199,-3.57l-2.09,-3.135c0,-0.553 0.149,-1.1 0.45,-1.64c0.301,-0.541 0.725,-0.978 1.278,-1.317c0.554,-0.336 1.178,-0.505 1.875,-0.505c1.034,0 1.912,0.366 2.633,1.1c0.72,0.734 1.08,1.664 1.08,2.793c0,1.322 -0.527,2.825 -1.585,4.505c-1.058,1.684 -2.716,3.316 -4.975,4.905l-0.865,-3.136Z" style="fill:#fff;fill-rule:nonzero;"/><path d="M500.469,297.181c1.083,-1.371 1.816,-2.561 2.2,-3.57l-2.09,-3.135c0,-0.553 0.149,-1.1 0.448,-1.64c0.301,-0.541 0.729,-0.978 1.28,-1.317c0.554,-0.336 1.179,-0.505 1.875,-0.505c1.033,0 1.912,0.366 2.633,1.1c0.72,0.734 1.079,1.664 1.079,2.793c0,1.322 -0.526,2.825 -1.584,4.505c-1.058,1.684 -2.718,3.316 -4.975,4.905l-0.866,-3.136Z" style="fill:#fff;fill-rule:nonzero;"/><path d="M514.319,311.814c-1.26,-0.314 -2.349,-0.733 -3.262,-1.262l0.431,-4.831c1.082,0.676 2.217,1.198 3.405,1.57c1.192,0.371 2.29,0.558 3.3,0.558c1.154,0 2.092,-0.24 2.812,-0.721c0.721,-0.479 1.081,-1.116 1.081,-1.91c0,-0.651 -0.24,-1.147 -0.722,-1.497c-0.479,-0.347 -1.238,-0.725 -2.269,-1.135l-0.865,-0.359l-0.397,-0.164c-0.143,-0.058 -0.312,-0.124 -0.505,-0.198c-1.346,-0.553 -2.428,-1.075 -3.244,-1.566c-0.816,-0.495 -1.521,-1.185 -2.109,-2.074c-0.589,-0.889 -0.883,-2.044 -0.883,-3.459c0,-2.308 0.781,-4.121 2.343,-5.445c1.561,-1.322 3.735,-1.981 6.525,-1.981c2.113,0 4.276,0.431 6.487,1.296l-0.793,4.76c-0.889,-0.505 -1.844,-0.902 -2.865,-1.19c-1.022,-0.288 -1.99,-0.434 -2.901,-0.434c-1.131,0 -2.009,0.222 -2.633,0.667c-0.623,0.447 -0.937,1.041 -0.937,1.783c0,0.65 0.217,1.155 0.65,1.517c0.432,0.358 1.128,0.744 2.09,1.151l1.478,0.577c1.394,0.528 2.547,1.046 3.46,1.551c0.914,0.503 1.695,1.231 2.345,2.18c0.648,0.949 0.971,2.182 0.971,3.695c0,2.332 -0.791,4.146 -2.378,5.445c-1.587,1.296 -3.798,1.946 -6.632,1.946c-1.396,0 -2.722,-0.158 -3.983,-0.47Z" style="fill:#fff;fill-rule:nonzero;"/><path d="M531.319,287.808l5.263,0l0,9.299l10.2,0l0,-9.299l5.3,0l0,24.006l-5.3,0l0,-10.238l-10.2,0l0,10.238l-5.263,0l0,-24.006Z" style="fill:#fff;fill-rule:nonzero;"/><path d="M557.174,287.808l14.599,0l0,4.54l-9.444,0l0,4.795l7.823,0l0,4.397l-7.823,0l0,5.733l9.444,0l0,4.541l-14.599,0l0,-24.006Z" style="fill:#fff;fill-rule:nonzero;"/><path d="M574.221,287.808l5.768,0l5.695,18.31l5.659,-18.31l5.37,0l-8.073,24.006l-6.309,0l-8.11,-24.006Z" style="fill:#fff;fill-rule:nonzero;"/><path d="M610.627,301.865l-3.245,-9.191l-3.135,9.191l6.38,0Zm-6.272,-14.057l6.272,0l8.904,24.006l-5.408,0l-1.947,-5.478l-9.444,0l-1.838,5.478l-5.335,0l8.796,-24.006Z" style="fill:#fff;fill-rule:nonzero;"/><rect x="470.879" y="331.062" width="5.228" height="24.006" style="fill:#fff;"/><path d="M483.782,355.068c-1.263,-0.311 -2.35,-0.73 -3.263,-1.261l0.432,-4.83c1.081,0.672 2.216,1.194 3.406,1.567c1.189,0.375 2.288,0.56 3.298,0.56c1.155,0 2.091,-0.24 2.811,-0.72c0.722,-0.483 1.082,-1.12 1.082,-1.911c0,-0.649 -0.239,-1.149 -0.72,-1.498c-0.483,-0.346 -1.238,-0.726 -2.271,-1.134l-0.866,-0.362c-0.119,-0.048 -0.251,-0.101 -0.398,-0.159c-0.141,-0.061 -0.311,-0.129 -0.503,-0.199c-1.346,-0.554 -2.428,-1.075 -3.243,-1.57c-0.817,-0.492 -1.521,-1.182 -2.108,-2.071c-0.59,-0.889 -0.885,-2.042 -0.885,-3.46c0,-2.309 0.78,-4.123 2.343,-5.445c1.563,-1.319 3.737,-1.983 6.525,-1.983c2.113,0 4.276,0.434 6.487,1.298l-0.791,4.758c-0.889,-0.503 -1.846,-0.899 -2.867,-1.19c-1.021,-0.286 -1.989,-0.429 -2.901,-0.429c-1.13,0 -2.007,0.22 -2.632,0.664c-0.626,0.445 -0.936,1.042 -0.936,1.786c0,0.648 0.215,1.153 0.648,1.514c0.433,0.361 1.129,0.746 2.09,1.152l1.478,0.576c1.393,0.531 2.547,1.047 3.461,1.552c0.913,0.505 1.693,1.23 2.342,2.18c0.65,0.951 0.975,2.181 0.975,3.694c0,2.331 -0.794,4.147 -2.38,5.443c-1.587,1.298 -3.798,1.947 -6.633,1.947c-1.394,0 -2.721,-0.156 -3.981,-0.469Z" style="fill:#fff;fill-rule:nonzero;"/><path d="M507.955,341.694c1.227,0 2.193,-0.31 2.902,-0.938c0.709,-0.623 1.065,-1.463 1.065,-2.521c0,-0.96 -0.314,-1.693 -0.938,-2.198c-0.625,-0.505 -1.539,-0.757 -2.738,-0.757l-2.525,0l0,6.414l2.234,0Zm-7.244,-10.632c0.72,-0.023 2.066,-0.036 4.037,-0.036c1.994,0 3.353,0.013 4.073,0.036c2.739,0.096 4.783,0.764 6.129,2c1.345,1.238 2.018,2.901 2.018,4.993c0,1.777 -0.452,3.285 -1.353,4.523c-0.9,1.239 -2.158,2.047 -3.766,2.433c0.504,0.41 1.021,0.968 1.55,1.676c0.528,0.711 1.261,1.809 2.199,3.298c0.985,1.563 1.981,3.256 2.99,5.083l-6.055,0l-4.073,-7.568c-0.431,-0.795 -0.822,-1.292 -1.171,-1.498c-0.349,-0.204 -0.872,-0.306 -1.568,-0.306l0,9.372l-5.01,0l0,-24.006Z" style="fill:#fff;fill-rule:nonzero;"/><path d="M535.051,345.121l-3.245,-9.193l-3.135,9.193l6.38,0Zm-6.271,-14.059l6.271,0l8.902,24.006l-5.406,0l-1.947,-5.48l-9.444,0l-1.838,5.48l-5.335,0l8.797,-24.006Z" style="fill:#fff;fill-rule:nonzero;"/><path d="M546.613,331.062l14.599,0l0,4.542l-9.442,0l0,4.794l7.819,0l0,4.396l-7.819,0l0,5.731l9.442,0l0,4.543l-14.599,0l0,-24.006Z" style="fill:#fff;fill-rule:nonzero;"/><path d="M565.745,331.062l5.227,0l0,19.463l8.651,0l0,4.543l-13.878,0l0,-24.006Z" style="fill:#fff;fill-rule:nonzero;"/></g></svg>