<?xml version="1.0" encoding="UTF-8" standalone="no"?><!DOCTYPE svg PUBLIC "-//W3C//DTD SVG 1.1//EN" "http://www.w3.org/Graphics/SVG/1.1/DTD/svg11.dtd"><svg width="100%" height="100%" viewBox="0 0 900 600" version="1.1" xmlns="http://www.w3.org/2000/svg" xmlns:xlink="http://www.w3.org/1999/xlink" xml:space="preserve" xmlns:serif="http://www.serif.com/" style="fill-rule:evenodd;clip-rule:evenodd;stroke-linejoin:round;stroke-miterlimit:2;"><rect id="logo-mitipi" x="0" y="0" width="900" height="600" style="fill:none;"/><path d="M376.151,349.358c0.917,1.572 0.923,3.514 0.017,5.091c-0.906,1.578 -2.587,2.551 -4.407,2.551c-10.222,0 -26.418,0 -32.503,0c-1.329,0 -2.433,-1.025 -2.533,-2.351c-1.178,-13.864 -12.824,-24.76 -26.994,-24.76c-14.171,0 -25.817,10.896 -27.01,24.759c-0.099,1.318 -1.197,2.336 -2.518,2.336c-6.085,0.016 -22.281,0.016 -32.503,0.016c-1.82,0 -3.5,-0.973 -4.407,-2.551c-0.906,-1.577 -0.899,-3.519 0.017,-5.091c12.093,-20.731 45.565,-78.111 59.837,-102.576c1.366,-2.342 3.873,-3.782 6.584,-3.782c2.711,0 5.218,1.44 6.584,3.782c14.271,24.465 47.743,81.845 59.836,102.576Zm215.84,-1.531l-4.276,0c-2.022,0 -3.961,-0.803 -5.39,-2.232c-1.43,-1.43 -2.233,-3.368 -2.233,-5.39c0,-18.006 0,-61.672 0,-61.672l11.327,0l0,6.663c1.968,-2.412 4.395,-4.22 7.282,-5.426c2.887,-1.206 6.076,-1.808 9.566,-1.808c4.95,0 9.376,1.078 13.278,3.236c3.903,2.157 6.965,5.203 9.186,9.138c2.221,3.934 3.331,8.471 3.331,13.611c0,5.14 -1.11,9.693 -3.331,13.659c-2.221,3.966 -5.283,7.028 -9.186,9.185c-3.902,2.158 -8.328,3.237 -13.278,3.237c-6.853,0 -12.279,-2.285 -16.276,-6.854l0,24.653Zm-62.627,-68.914l13.692,0l0,9.519l-13.692,0l0,23.516c0.007,0.997 0.428,2.406 0.428,2.406c0.021,0.095 0.044,0.189 0.068,0.283c0.53,1.965 1.949,3.661 3.775,4.581c0.786,0.395 1.675,0.48 2.57,0.488l1.758,0.003l5.177,-0.012l0,9.946l-5.201,-0.012l-1.765,0.003c-2.927,-0.014 -5.683,-0.469 -9.092,-2.239c-3.649,-1.896 -6.572,-5.069 -8.261,-8.828l-0.043,-0.1c-0.771,-2.066 -1.157,-4.266 -1.171,-6.482l0,-23.553l-1.801,0c-3.665,0 -6.636,-2.971 -6.636,-6.637c0,-1.612 0,-2.882 0,-2.882l8.437,0l0,-11.612l11.757,0l0,11.612Zm-28.999,50.448l-4.276,0c-2.021,0 -3.96,-0.803 -5.389,-2.232c-1.43,-1.43 -2.233,-3.368 -2.233,-5.39c0,-14.184 0,-43.206 0,-43.206l11.898,0l0,50.828Zm156.018,0l-4.276,0c-2.021,0 -3.96,-0.803 -5.389,-2.232c-1.43,-1.43 -2.233,-3.368 -2.233,-5.39c0,-14.184 0,-43.206 0,-43.206l11.898,0l0,50.828Zm-89.95,0l-4.275,0c-2.022,0 -3.961,-0.803 -5.39,-2.232c-1.43,-1.43 -2.233,-3.368 -2.233,-5.39c0,-14.184 0,-43.206 0,-43.206l11.898,0l0,50.828Zm-164.441,0l-4.276,0c-2.022,0 -3.96,-0.803 -5.39,-2.232c-1.429,-1.43 -2.232,-3.368 -2.232,-5.39c0,-14.184 0,-43.206 0,-43.206l11.327,0l0,6.472c1.903,-2.284 4.283,-4.029 7.138,-5.235c2.856,-1.206 6.029,-1.808 9.519,-1.808c3.807,0 7.186,0.713 10.137,2.141c2.951,1.428 5.283,3.538 6.996,6.33c2.094,-2.665 4.791,-4.743 8.091,-6.235c3.3,-1.491 6.948,-2.236 10.946,-2.236c6.409,0 11.486,1.856 15.23,5.568c3.744,3.712 5.616,9.28 5.616,16.705l0,29.126l-4.276,0c-2.022,0 -3.96,-0.803 -5.39,-2.232c-1.429,-1.43 -2.232,-3.368 -2.232,-5.39l0,-19.981c0,-4.442 -0.984,-7.79 -2.951,-10.042c-1.967,-2.253 -4.791,-3.379 -8.472,-3.379c-3.997,0 -7.202,1.316 -9.613,3.95c-2.412,2.633 -3.617,6.393 -3.617,11.279l0,25.795l-4.276,0c-2.022,0 -3.96,-0.803 -5.39,-2.232c-1.429,-1.43 -2.232,-3.368 -2.232,-5.39l0,-19.981c0,-4.442 -0.984,-7.79 -2.951,-10.042c-1.967,-2.253 -4.791,-3.379 -8.472,-3.379c-4.061,0 -7.281,1.301 -9.661,3.902c-2.38,2.602 -3.569,6.378 -3.569,11.327l0,25.795Zm204.943,-9.518c4.378,0 7.979,-1.46 10.803,-4.379c2.824,-2.919 4.236,-6.758 4.236,-11.517c0,-4.759 -1.412,-8.598 -4.236,-11.517c-2.824,-2.919 -6.425,-4.379 -10.803,-4.379c-2.856,0 -5.426,0.651 -7.71,1.951c-2.285,1.301 -4.093,3.157 -5.426,5.569c-1.333,2.411 -1.999,5.203 -1.999,8.376c0,3.173 0.666,5.965 1.999,8.376c1.333,2.412 3.141,4.268 5.426,5.569c2.284,1.301 4.854,1.951 7.71,1.951Zm43.499,-49.878c-1.968,0 -3.619,-0.664 -4.95,-1.991c-1.332,-1.328 -1.998,-2.98 -1.998,-4.956c0,-1.977 0.666,-3.629 1.998,-4.957c1.331,-1.327 2.982,-1.991 4.95,-1.991c1.969,0 3.619,0.633 4.95,1.899c1.332,1.266 1.998,2.856 1.998,4.771c0,2.038 -0.652,3.751 -1.954,5.141c-1.303,1.39 -2.967,2.084 -4.994,2.084Zm-156.018,0c-1.968,0 -3.618,-0.664 -4.95,-1.991c-1.332,-1.328 -1.998,-2.98 -1.998,-4.956c0,-1.977 0.666,-3.629 1.998,-4.957c1.332,-1.327 2.982,-1.991 4.95,-1.991c1.969,0 3.619,0.633 4.951,1.899c1.331,1.266 1.997,2.856 1.997,4.771c0,2.038 -0.651,3.751 -1.954,5.141c-1.303,1.39 -2.967,2.084 -4.994,2.084Zm66.068,0c-1.968,0 -3.618,-0.664 -4.95,-1.991c-1.332,-1.328 -1.997,-2.98 -1.997,-4.956c0,-1.977 0.665,-3.629 1.997,-4.957c1.332,-1.327 2.982,-1.991 4.95,-1.991c1.969,0 3.619,0.633 4.951,1.899c1.331,1.266 1.997,2.856 1.997,4.771c0,2.038 -0.651,3.751 -1.954,5.141c-1.303,1.39 -2.967,2.084 -4.994,2.084Z" style="fill:#fff;"/></svg>