<?xml version="1.0" encoding="UTF-8" standalone="no"?><!DOCTYPE svg PUBLIC "-//W3C//DTD SVG 1.1//EN" "http://www.w3.org/Graphics/SVG/1.1/DTD/svg11.dtd"><svg width="100%" height="100%" viewBox="0 0 900 600" version="1.1" xmlns="http://www.w3.org/2000/svg" xmlns:xlink="http://www.w3.org/1999/xlink" xml:space="preserve" xmlns:serif="http://www.serif.com/" style="fill-rule:evenodd;clip-rule:evenodd;stroke-linejoin:round;stroke-miterlimit:1.41421;"><rect id="logo-polarsol" x="0" y="0" width="900" height="600" style="fill:none;"/><g><path d="M375.13,279.979l0,12.296l7.512,0c3.754,0 5.994,-2.242 5.994,-6.178c0,-3.998 -2.301,-6.118 -5.994,-6.118l-7.512,0Zm0,18.595l0,12.841c0,1.939 -1.577,3.514 -3.514,3.514c-1.939,0 -3.514,-1.575 -3.514,-3.514l0,-34.224c0,-1.937 1.575,-3.512 3.514,-3.512l11.569,0c7.088,0 12.72,3.936 12.72,12.418c0,8.358 -5.511,12.477 -12.72,12.477l-8.055,0Z" style="fill:#fff;fill-rule:nonzero;"/><path d="M411.713,291.669c-4.362,0 -6.664,3.028 -6.664,9.025c0,5.935 2.302,8.965 6.664,8.965c4.36,0 6.662,-3.03 6.662,-8.965c0,-5.997 -2.302,-9.025 -6.662,-9.025Zm0,23.563c-8.177,0 -13.265,-4.665 -13.265,-14.538c0,-9.933 5.088,-14.597 13.265,-14.597c8.177,0 13.265,4.664 13.265,14.597c0,9.873 -5.088,14.538 -13.265,14.538Z" style="fill:#fff;fill-rule:nonzero;"/><path d="M436.301,274.587l0,33.195c0,0.726 0.727,1.091 1.151,1.091c1.696,0 3.028,1.33 3.028,3.026c0,1.696 -1.332,3.03 -3.028,3.03c-4.725,0 -7.691,-2.666 -7.691,-7.754l0,-32.588c0,-1.815 1.451,-3.269 3.269,-3.269c1.817,0 3.271,1.454 3.271,3.269Z" style="fill:#fff;fill-rule:nonzero;"/><path d="M460.528,304.329l0,-1.696l-7.085,0c-2.666,0 -4.121,1.271 -4.121,3.451c0,2.303 1.636,3.697 5.029,3.697c3.209,0 6.177,-2.061 6.177,-5.452Zm-11.569,-10.115c-0.605,0.424 -1.089,0.605 -1.818,0.605c-1.574,0 -2.845,-1.272 -2.845,-2.847c0,-0.667 0.243,-1.394 0.787,-1.999c1.696,-1.877 4.724,-3.876 9.934,-3.876c7.51,0 11.994,3.693 11.994,10.116l0,15.505c0,1.756 -1.456,3.211 -3.212,3.211c-1.756,0 -3.209,-1.455 -3.209,-3.211c-1.636,2.606 -4.302,3.514 -7.936,3.514c-5.937,0 -9.873,-3.695 -9.873,-9.148c0,-5.633 4.544,-8.54 9.814,-8.54l7.933,0l0,-1.089c0,-2.725 -1.999,-4.543 -5.511,-4.543c-2.665,0 -4.543,1.211 -6.058,2.302Z" style="fill:#fff;fill-rule:nonzero;"/><path d="M479.303,290.033c1.15,-2.361 3.997,-3.877 6.542,-3.877c1.696,0 3.09,1.394 3.09,3.09c0,1.695 -1.394,3.088 -3.09,3.088c-4.179,0 -6.542,2.666 -6.542,6.724l0,12.6c0,1.816 -1.454,3.271 -3.271,3.271c-1.816,0 -3.271,-1.455 -3.271,-3.271l0,-21.928c0,-1.816 1.455,-3.269 3.271,-3.269c1.817,0 3.271,1.453 3.271,3.269l0,0.303Z" style="fill:#fff;fill-rule:nonzero;"/><path d="M498.26,294.092c0,4.482 14.9,2.423 14.9,12.418c0,5.694 -4.846,8.6 -11.083,8.6c-5.212,0 -9.208,-2.361 -10.723,-4.24c-0.484,-0.606 -0.727,-1.151 -0.727,-1.878c0,-1.575 1.334,-2.908 2.907,-2.908c0.605,0 1.212,0.183 1.877,0.728c1.637,1.332 3.636,2.483 6.666,2.483c2.725,0 4.479,-0.727 4.479,-2.423c0,-4.906 -14.838,-2.363 -14.838,-12.658c0,-5.453 4.543,-8.117 10.116,-8.117c4.3,0 8.117,1.634 9.811,3.755c0.363,0.483 0.605,0.909 0.605,1.817c0,1.575 -1.332,2.909 -2.906,2.909c-0.848,0 -1.394,-0.364 -2.059,-0.848c-1.332,-0.972 -2.968,-1.939 -5.451,-1.939c-2.242,0 -3.574,0.786 -3.574,2.301Z" style="fill:#fff;fill-rule:nonzero;"/><path d="M529.816,291.669c-4.36,0 -6.663,3.028 -6.663,9.025c0,5.935 2.303,8.965 6.663,8.965c4.36,0 6.662,-3.03 6.662,-8.965c0,-5.997 -2.302,-9.025 -6.662,-9.025Zm0,23.563c-8.176,0 -13.265,-4.665 -13.265,-14.538c0,-9.933 5.089,-14.597 13.265,-14.597c8.177,0 13.266,4.664 13.266,14.597c0,9.873 -5.089,14.538 -13.266,14.538Z" style="fill:#fff;fill-rule:nonzero;"/><path d="M554.404,274.587l0,33.195c0,0.726 0.727,1.091 1.151,1.091c1.696,0 3.028,1.33 3.028,3.026c0,1.696 -1.332,3.03 -3.028,3.03c-4.725,0 -7.691,-2.666 -7.691,-7.754l0,-32.588c0,-1.815 1.451,-3.269 3.269,-3.269c1.818,0 3.271,1.454 3.271,3.269Z" style="fill:#fff;fill-rule:nonzero;"/><path d="M588.079,312.687l-13.75,-34.647c-0.181,-0.425 -0.243,-0.787 -0.243,-1.332c0,-1.938 1.575,-3.512 3.514,-3.512c1.758,0 2.847,1.089 3.21,2.058l10.54,27.923l10.539,-27.923c0.365,-0.908 1.454,-2.058 3.212,-2.058c1.937,0 3.512,1.574 3.512,3.512c0,0.545 -0.06,0.907 -0.243,1.332l-13.749,34.647c-0.484,1.213 -1.454,2.242 -3.271,2.242c-1.816,0 -2.786,-1.029 -3.271,-2.242Z" style="fill:#fff;fill-rule:nonzero;"/><path d="M619.332,311.658c0,1.816 -1.453,3.271 -3.271,3.271c-1.818,0 -3.269,-1.455 -3.269,-3.271l0,-21.928c0,-1.816 1.451,-3.269 3.269,-3.269c1.818,0 3.271,1.453 3.271,3.269l0,21.928Zm-7.147,-32.285c0,-2.787 1.393,-3.997 3.876,-3.997c2.544,0 3.936,1.21 3.936,3.997c0,2.362 -1.392,3.815 -3.936,3.815c-2.483,0 -3.876,-1.453 -3.876,-3.815Z" style="fill:#fff;fill-rule:nonzero;"/><path d="M632.231,274.587l0,33.195c0,0.726 0.727,1.091 1.151,1.091c1.698,0 3.028,1.33 3.028,3.026c0,1.696 -1.33,3.03 -3.028,3.03c-4.725,0 -7.691,-2.666 -7.691,-7.754l0,-32.588c0,-1.815 1.451,-3.269 3.271,-3.269c1.818,0 3.269,1.454 3.269,3.269Z" style="fill:#fff;fill-rule:nonzero;"/><path d="M646.948,274.587l0,33.195c0,0.726 0.727,1.091 1.151,1.091c1.696,0 3.028,1.33 3.028,3.026c0,1.696 -1.332,3.03 -3.028,3.03c-4.725,0 -7.691,-2.666 -7.691,-7.754l0,-32.588c0,-1.815 1.453,-3.269 3.271,-3.269c1.816,0 3.269,1.454 3.269,3.269Z" style="fill:#fff;fill-rule:nonzero;"/><path d="M671.175,304.329l0,-1.696l-7.085,0c-2.666,0 -4.119,1.271 -4.119,3.451c0,2.303 1.634,3.697 5.027,3.697c3.209,0 6.177,-2.061 6.177,-5.452Zm-11.569,-10.115c-0.605,0.424 -1.091,0.605 -1.817,0.605c-1.575,0 -2.845,-1.272 -2.845,-2.847c0,-0.667 0.242,-1.394 0.786,-1.999c1.696,-1.877 4.724,-3.876 9.935,-3.876c7.509,0 11.993,3.693 11.993,10.116l0,15.505c0,1.756 -1.454,3.211 -3.211,3.211c-1.756,0 -3.21,-1.455 -3.21,-3.211c-1.636,2.606 -4.302,3.514 -7.936,3.514c-5.935,0 -9.873,-3.695 -9.873,-9.148c0,-5.633 4.544,-8.54 9.814,-8.54l7.933,0l0,-1.089c0,-2.725 -1.996,-4.543 -5.51,-4.543c-2.666,0 -4.544,1.211 -6.059,2.302Z" style="fill:#fff;fill-rule:nonzero;"/><path d="M701.157,298.21c0,-4.179 -2.485,-6.541 -5.997,-6.541c-4.181,0 -6.482,3.028 -6.482,8.963c0,5.997 2.361,9.027 6.482,9.027c3.634,0 5.997,-3.09 5.997,-3.09l0,-8.359Zm-18.96,2.422c0,-9.871 4.784,-14.535 12.963,-14.535c7.329,0 12.537,4.057 12.537,12.113l0,15.326c0,8.357 -4.117,13.082 -13.082,13.082c-4.908,0 -8.541,-1.515 -10.602,-3.998c-0.301,-0.362 -0.605,-0.968 -0.605,-1.754c0,-1.577 1.332,-2.909 2.908,-2.909c0.727,0 1.211,0.243 1.938,0.727c1.515,1.091 3.514,2.361 6.361,2.361c4.3,0 6.48,-2.24 6.48,-5.935l0,-2.301c-1.212,1.21 -3.695,2.423 -6.602,2.423c-7.631,0 -12.296,-4.725 -12.296,-14.6Z" style="fill:#fff;fill-rule:nonzero;"/><path d="M718.84,297.544l11.993,0c0,-2.966 -1.696,-5.875 -5.634,-5.875c-3.512,0 -6.056,1.997 -6.359,5.875Zm6.359,-11.447c10.239,0 12.117,7.874 12.117,12.053c0,2.241 0,4.846 -3.697,4.846l-14.96,0c0,4.362 3.088,6.361 7.088,6.361c2.663,0 4.543,-0.91 5.994,-1.88c0.667,-0.422 1.151,-0.665 1.939,-0.665c1.575,0 2.847,1.272 2.847,2.847c0,0.97 -0.485,1.756 -1.029,2.24c-1.031,0.97 -4.241,3.333 -9.751,3.333c-8.42,0 -13.63,-4.543 -13.63,-14.659c0,-9.268 4.846,-14.476 13.082,-14.476Z" style="fill:#fff;fill-rule:nonzero;"/><path d="M374.65,335.384c-2.764,0 -4.291,1.781 -4.482,4.611l8.551,0c0,-2.29 -0.794,-4.611 -4.069,-4.611Zm0,-1.842c5.087,0 6.074,4.038 6.074,6.199c0,0.921 0,2.033 -1.273,2.033l-9.283,0c0,3.148 1.812,5.181 4.8,5.181c1.845,0 2.924,-0.697 3.815,-1.366c0.19,-0.127 0.318,-0.191 0.572,-0.191c0.509,0 0.923,0.414 0.923,0.921c0,0.349 -0.16,0.542 -0.35,0.733c-0.477,0.476 -2.13,1.779 -4.96,1.779c-4.227,0 -6.866,-2.321 -6.866,-7.66c0,-4.896 2.417,-7.629 6.548,-7.629Z" style="fill:#fff;fill-rule:nonzero;"/><path d="M389.461,333.542c2.83,0 4.387,1.493 4.896,2.193c0.158,0.222 0.222,0.382 0.222,0.603c0,0.54 -0.413,0.924 -0.92,0.924c-0.319,0 -0.541,-0.127 -0.763,-0.384c-0.478,-0.54 -1.338,-1.494 -3.435,-1.494c-2.924,0 -4.481,1.878 -4.481,5.787c0,3.973 1.557,5.815 4.481,5.815c1.845,0 2.957,-0.825 3.688,-1.366c0.223,-0.158 0.381,-0.222 0.603,-0.222c0.509,0 0.923,0.414 0.923,0.921c0,0.288 -0.096,0.509 -0.414,0.795c-0.698,0.574 -2.225,1.717 -4.8,1.717c-4.1,0 -6.548,-2.448 -6.548,-7.66c0,-5.214 2.448,-7.629 6.548,-7.629Z" style="fill:#fff;fill-rule:nonzero;"/><path d="M408.214,341.171c0,-4.006 -1.684,-5.787 -4.608,-5.787c-2.924,0 -4.609,1.781 -4.609,5.787c0,4.069 1.685,5.815 4.609,5.815c2.924,0 4.608,-1.746 4.608,-5.815Zm2.067,0c0,5.212 -2.543,7.66 -6.675,7.66c-4.1,0 -6.675,-2.448 -6.675,-7.66c0,-5.214 2.575,-7.629 6.675,-7.629c4.132,0 6.675,2.415 6.675,7.629Z" style="fill:#fff;fill-rule:nonzero;"/><path d="M415.335,326.803l0,18.15c0,1.272 0.41,1.812 1.27,1.812c0.507,0 0.952,0.412 0.952,0.954c0,0.539 -0.445,0.954 -0.952,0.954c-2.13,0 -3.306,-1.272 -3.306,-3.72l0,-18.15c0,-0.54 0.476,-1.018 1.016,-1.018c0.573,0 1.02,0.478 1.02,1.018Z" style="fill:#fff;fill-rule:nonzero;"/><path d="M430.59,341.171c0,-4.006 -1.685,-5.787 -4.607,-5.787c-2.928,0 -4.611,1.781 -4.611,5.787c0,4.069 1.683,5.815 4.611,5.815c2.922,0 4.607,-1.746 4.607,-5.815Zm2.066,0c0,5.212 -2.543,7.66 -6.673,7.66c-4.102,0 -6.677,-2.448 -6.677,-7.66c0,-5.214 2.575,-7.629 6.677,-7.629c4.13,0 6.673,2.415 6.673,7.629Z" style="fill:#fff;fill-rule:nonzero;"/><path d="M444.828,338.883c0,-2.099 -1.333,-3.499 -3.783,-3.499c-2.446,0 -3.78,1.4 -3.78,3.499c0,2.097 1.334,3.495 3.78,3.495c2.45,0 3.783,-1.398 3.783,-3.495Zm-2.16,8.93l-3.306,0c-1.845,0.318 -2.67,1.272 -2.67,2.545c0,1.939 2.225,2.669 4.736,2.669c2.51,0 4.736,-0.73 4.736,-2.797c0,-1.75 -1.43,-2.417 -3.496,-2.417Zm1.779,-13.477c0.539,-0.985 1.241,-1.716 2.829,-1.716c0.509,0 0.922,0.413 0.922,0.922c0,0.508 -0.413,0.921 -0.922,0.921c-0.954,0 -1.303,0.478 -1.526,0.987c0.732,0.888 1.145,2.064 1.145,3.433c0,3.242 -2.161,5.339 -5.85,5.339c-1.365,0 -2.541,-0.287 -3.431,-0.796c-0.349,0.287 -0.573,0.638 -0.573,1.147c0,0.667 0.445,1.334 2.352,1.334l3.275,0c3.082,0 5.563,1.336 5.563,4.323c0,3.306 -2.988,4.576 -6.834,4.576c-3.277,0 -6.771,-0.952 -6.771,-4.448c0,-1.463 0.921,-2.608 2.415,-3.212c-1.176,-0.381 -1.97,-1.334 -1.97,-2.573c0,-0.954 0.509,-1.717 1.272,-2.226c-0.763,-0.954 -1.145,-2.099 -1.145,-3.464c0,-3.242 2.161,-5.341 5.847,-5.341c1.305,0 2.513,0.287 3.402,0.794Z" style="fill:#fff;fill-rule:nonzero;"/><path d="M452.87,347.655c0,0.573 -0.445,1.018 -1.016,1.018c-0.572,0 -1.017,-0.445 -1.017,-1.018l0,-12.907c0,-0.57 0.445,-1.016 1.017,-1.016c0.571,0 1.016,0.446 1.016,1.016l0,12.907Zm-2.224,-18.117c0,-0.923 0.445,-1.274 1.208,-1.274c0.762,0 1.207,0.351 1.207,1.274c0,0.761 -0.445,1.207 -1.207,1.207c-0.763,0 -1.208,-0.446 -1.208,-1.207Z" style="fill:#fff;fill-rule:nonzero;"/><path d="M462.597,333.542c2.827,0 4.387,1.493 4.894,2.193c0.16,0.222 0.221,0.382 0.221,0.603c0,0.54 -0.41,0.924 -0.919,0.924c-0.318,0 -0.54,-0.127 -0.763,-0.384c-0.478,-0.54 -1.336,-1.494 -3.433,-1.494c-2.925,0 -4.482,1.878 -4.482,5.787c0,3.973 1.557,5.815 4.482,5.815c1.842,0 2.955,-0.825 3.687,-1.366c0.222,-0.158 0.382,-0.222 0.603,-0.222c0.509,0 0.922,0.414 0.922,0.921c0,0.288 -0.097,0.509 -0.413,0.795c-0.699,0.574 -2.224,1.717 -4.799,1.717c-4.1,0 -6.548,-2.448 -6.548,-7.66c0,-5.214 2.448,-7.629 6.548,-7.629Z" style="fill:#fff;fill-rule:nonzero;"/><path d="M480.078,342.919l0,-1.336l-4.482,0c-2.066,0 -3.497,0.858 -3.497,2.703c0,1.654 1.145,2.7 3.624,2.7c2.227,0 4.355,-1.366 4.355,-4.067Zm-7.439,-5.848c-0.318,0.349 -0.54,0.443 -0.827,0.443c-0.507,0 -0.921,-0.412 -0.921,-0.921c0,-0.222 0.063,-0.382 0.158,-0.54c0.89,-1.397 2.608,-2.511 5.278,-2.511c3.687,0 5.721,2.16 5.721,5.404l0,8.742c0,0.54 -0.444,0.985 -0.985,0.985c-0.542,0 -0.985,-0.445 -0.985,-0.985l0,-1.145c-0.795,1.494 -2.639,2.288 -4.546,2.288c-3.369,0 -5.499,-1.621 -5.499,-4.545c0,-2.797 2.13,-4.484 5.563,-4.484l4.482,0l0,-0.856c0,-2.162 -1.431,-3.496 -3.751,-3.496c-1.685,0 -2.703,0.507 -3.688,1.621Z" style="fill:#fff;fill-rule:nonzero;"/><path d="M487.898,326.803l0,18.15c0,1.272 0.412,1.812 1.27,1.812c0.507,0 0.952,0.412 0.952,0.954c0,0.539 -0.445,0.954 -0.952,0.954c-2.13,0 -3.306,-1.272 -3.306,-3.72l0,-18.15c0,-0.54 0.476,-1.018 1.016,-1.018c0.572,0 1.02,0.478 1.02,1.018Z" style="fill:#fff;fill-rule:nonzero;"/><path d="M499.939,335.893c-0.54,0 -0.952,-0.412 -0.952,-0.952c0,-0.542 0.412,-0.954 0.952,-0.954l1.081,0l0,-1.876c0,-2.86 1.623,-5.466 5.5,-5.466c0.541,0 0.952,0.412 0.952,0.952c0,0.542 -0.411,0.956 -0.952,0.956c-2.479,0 -3.466,1.492 -3.466,3.558l0,1.876l2.893,0c0.542,0 0.954,0.412 0.954,0.954c0,0.54 -0.412,0.952 -0.954,0.952l-2.893,0l0,11.762c0,0.573 -0.443,1.018 -1.016,1.018c-0.572,0 -1.018,-0.445 -1.018,-1.018l0,-11.762l-1.081,0Z" style="fill:#fff;fill-rule:nonzero;"/><path d="M519.743,341.171c0,-4.006 -1.685,-5.787 -4.607,-5.787c-2.928,0 -4.611,1.781 -4.611,5.787c0,4.069 1.683,5.815 4.611,5.815c2.922,0 4.607,-1.746 4.607,-5.815Zm2.066,0c0,5.212 -2.542,7.66 -6.673,7.66c-4.102,0 -6.677,-2.448 -6.677,-7.66c0,-5.214 2.575,-7.629 6.677,-7.629c4.131,0 6.673,2.415 6.673,7.629Z" style="fill:#fff;fill-rule:nonzero;"/><path d="M535.317,341.171c0,-4.006 -1.684,-5.787 -4.608,-5.787c-2.926,0 -4.611,1.781 -4.611,5.787c0,4.069 1.685,5.815 4.611,5.815c2.924,0 4.608,-1.746 4.608,-5.815Zm2.065,0c0,5.212 -2.541,7.66 -6.673,7.66c-4.102,0 -6.677,-2.448 -6.677,-7.66c0,-5.214 2.575,-7.629 6.677,-7.629c4.132,0 6.673,2.415 6.673,7.629Z" style="fill:#fff;fill-rule:nonzero;"/><path d="M541.355,330.648c0,-0.539 0.478,-1.015 1.017,-1.015c0.573,0 1.018,0.476 1.018,1.015l0,3.339l2.066,0c0.54,0 0.953,0.412 0.953,0.954c0,0.54 -0.413,0.952 -0.953,0.952l-2.066,0l0,8.774c0,1.367 0.761,2.098 1.843,2.098c0.54,0 0.985,0.412 0.985,0.954c0,0.539 -0.445,0.954 -0.985,0.954c-2.51,0 -3.878,-1.687 -3.878,-4.006l0,-8.774l-1.242,0c-0.538,0 -0.952,-0.412 -0.952,-0.952c0,-0.542 0.414,-0.954 0.952,-0.954l1.242,0l0,-3.339Z" style="fill:#fff;fill-rule:nonzero;"/><path d="M555.784,346.986c2.924,0 4.576,-1.842 4.576,-5.815c0,-3.975 -1.715,-5.787 -4.639,-5.787c-2.354,0 -4.324,1.654 -4.324,5.787c0,4.1 1.908,5.815 4.387,5.815Zm-4.321,-12.238l0,1.02c0.603,-1.081 2.191,-2.226 4.321,-2.226c4.131,0 6.645,2.415 6.645,7.629c0,5.212 -2.514,7.66 -6.645,7.66c-2.13,0 -3.654,-1.143 -4.321,-2.224l0,7.184c0,0.541 -0.478,1.015 -1.02,1.015c-0.54,0 -1.016,-0.474 -1.016,-1.015l0,-19.043c0,-0.57 0.476,-1.016 1.016,-1.016c0.542,0 1.02,0.446 1.02,1.016Z" style="fill:#fff;fill-rule:nonzero;"/><path d="M567.641,336.148c0.632,-1.461 2.224,-2.541 4.416,-2.541c0.541,0 0.987,0.443 0.987,0.985c0,0.54 -0.446,0.983 -0.987,0.983c-2.922,0 -4.416,2.036 -4.416,4.96l0,7.12c0,0.573 -0.448,1.018 -1.02,1.018c-0.571,0 -1.016,-0.445 -1.016,-1.018l0,-12.907c0,-0.57 0.445,-1.016 1.016,-1.016c0.572,0 1.02,0.446 1.02,1.016l0,1.4Z" style="fill:#fff;fill-rule:nonzero;"/><path d="M577.429,347.655c0,0.573 -0.445,1.018 -1.018,1.018c-0.572,0 -1.016,-0.445 -1.016,-1.018l0,-12.907c0,-0.57 0.444,-1.016 1.016,-1.016c0.573,0 1.018,0.446 1.018,1.016l0,12.907Zm-2.225,-18.117c0,-0.923 0.446,-1.274 1.207,-1.274c0.763,0 1.209,0.351 1.209,1.274c0,0.761 -0.446,1.207 -1.209,1.207c-0.761,0 -1.207,-0.446 -1.207,-1.207Z" style="fill:#fff;fill-rule:nonzero;"/><path d="M593.672,339.168l0,8.487c0,0.573 -0.445,1.018 -1.019,1.018c-0.571,0 -1.016,-0.445 -1.016,-1.018l0,-8.074c0,-2.51 -0.731,-4.227 -3.817,-4.227c-3.146,0 -4.225,1.908 -4.225,4.448l0,7.853c0,0.573 -0.445,1.018 -1.018,1.018c-0.572,0 -1.017,-0.445 -1.017,-1.018l0,-12.907c0,-0.57 0.445,-1.016 1.017,-1.016c0.573,0 1.018,0.446 1.018,1.016l0,1.02c0.605,-1.209 2.161,-2.226 4.225,-2.226c4.896,0 5.852,2.924 5.852,5.626Z" style="fill:#fff;fill-rule:nonzero;"/><path d="M598.277,330.648c0,-0.539 0.478,-1.015 1.02,-1.015c0.57,0 1.016,0.476 1.016,1.015l0,3.339l2.066,0c0.54,0 0.952,0.412 0.952,0.954c0,0.54 -0.412,0.952 -0.952,0.952l-2.066,0l0,8.774c0,1.367 0.761,2.098 1.844,2.098c0.538,0 0.983,0.412 0.983,0.954c0,0.539 -0.445,0.954 -0.983,0.954c-2.511,0 -3.88,-1.687 -3.88,-4.006l0,-8.774l-1.239,0c-0.54,0 -0.952,-0.412 -0.952,-0.952c0,-0.542 0.412,-0.954 0.952,-0.954l1.239,0l0,-3.339Z" style="fill:#fff;fill-rule:nonzero;"/><path d="M187.376,359.448c-2.754,0 -5.287,-1.818 -6.07,-4.601c-2.205,-7.843 -3.001,-15.993 -2.367,-24.226c2.608,-33.873 30.118,-61.279 63.989,-63.75c19.554,-1.438 38.164,5.097 52.442,18.37c14.082,13.09 22.159,31.62 22.159,50.837c0,6.367 -0.868,12.682 -2.579,18.769c-0.945,3.354 -4.428,5.303 -7.782,4.366c-3.354,-0.945 -5.308,-4.428 -4.366,-7.782c1.398,-4.975 2.109,-10.141 2.109,-15.353c0,-15.723 -6.61,-30.885 -18.133,-41.596c-11.681,-10.862 -26.924,-16.192 -42.93,-15.028c-27.699,2.022 -50.196,24.436 -52.329,52.135c-0.519,6.754 0.131,13.427 1.935,19.842c0.942,3.354 -1.012,6.837 -4.366,7.782c-0.571,0.16 -1.145,0.235 -1.712,0.235Z" style="fill:#fff;"/><path d="M260.747,241.41c0,6.97 -5.65,12.62 -12.618,12.62c-6.97,0 -12.62,-5.65 -12.62,-12.62c0,-5.206 7.046,-15.129 10.608,-19.815c1.012,-1.332 3.009,-1.332 4.022,0c3.563,4.686 10.608,14.609 10.608,19.815Z" style="fill:#fff;"/><clipPath id="_clip1"><path d="M305.694,258.199c-1.533,5.723 -7.414,9.118 -13.137,7.585c-5.721,-1.532 -9.115,-7.413 -7.583,-13.136c1.109,-4.139 8.613,-10.455 12.678,-13.632c1.32,-1.033 3.252,-0.514 3.88,1.039c1.931,4.786 5.27,14.006 4.162,18.144Z"/></clipPath><g clip-path="url(#_clip1)"><rect x="284.606" y="238.479" width="21.307" height="27.673" style="fill:#fff;"/></g><clipPath id="_clip2"><path d="M332.438,294.302c-2.44,4.226 -7.841,5.673 -12.066,3.233c-4.223,-2.438 -5.671,-7.841 -3.233,-12.065c1.683,-2.914 8.412,-6.164 12.425,-7.901c1.554,-0.671 3.308,0.341 3.503,2.024c0.503,4.343 1.052,11.795 -0.629,14.709Z"/></clipPath><g clip-path="url(#_clip2)"><rect x="315.955" y="277.36" width="17.616" height="21.361" style="fill:#fff;"/></g><clipPath id="_clip3"><path d="M190.563,258.199c1.532,5.723 7.413,9.118 13.136,7.585c5.721,-1.532 9.115,-7.413 7.583,-13.136c-1.108,-4.139 -8.611,-10.455 -12.678,-13.632c-1.32,-1.033 -3.251,-0.514 -3.88,1.039c-1.931,4.786 -5.27,14.006 -4.161,18.144Z"/></clipPath><g clip-path="url(#_clip3)"><rect x="190.342" y="238.479" width="21.307" height="27.673" style="fill:#fff;"/></g><clipPath id="_clip4"><path d="M163.818,294.302c2.44,4.226 7.841,5.673 12.066,3.233c4.225,-2.438 5.671,-7.841 3.233,-12.065c-1.683,-2.914 -8.412,-6.164 -12.425,-7.901c-1.554,-0.671 -3.308,0.341 -3.503,2.024c-0.503,4.343 -1.052,11.795 0.629,14.709Z"/></clipPath><g clip-path="url(#_clip4)"><rect x="162.684" y="277.36" width="17.617" height="21.361" style="fill:#fff;"/></g><path d="M196.054,379.404c-2.18,0 -4.302,-1.132 -5.468,-3.155c-1.745,-3.017 -0.71,-6.876 2.307,-8.619l40.446,-23.35c9.123,-5.268 20.459,-5.266 29.59,0.006l40.434,23.343c3.017,1.744 4.052,5.601 2.309,8.62c-1.742,3.012 -5.601,4.053 -8.618,2.309l-40.436,-23.345c-5.235,-3.022 -11.739,-3.026 -16.97,-0.006l-40.446,23.351c-0.993,0.574 -2.078,0.846 -3.148,0.846Z" style="fill:#fff;fill-rule:nonzero;"/></g></svg>