<?xml version="1.0" encoding="UTF-8" standalone="no"?><!DOCTYPE svg PUBLIC "-//W3C//DTD SVG 1.1//EN" "http://www.w3.org/Graphics/SVG/1.1/DTD/svg11.dtd"><svg width="100%" height="100%" viewBox="0 0 900 600" version="1.1" xmlns="http://www.w3.org/2000/svg" xmlns:xlink="http://www.w3.org/1999/xlink" xml:space="preserve" xmlns:serif="http://www.serif.com/" style="fill-rule:evenodd;clip-rule:evenodd;stroke-linejoin:round;stroke-miterlimit:1.41421;"><rect id="logo-cityupdate" x="0" y="0" width="900" height="600" style="fill:none;"/><g><path d="M280.047,272.422c-0.175,-0.134 -0.262,-0.201 -0.262,-0.201c-0.634,-0.502 -1.265,-1.001 -1.897,-1.5c-0.678,-0.427 -1.36,-0.854 -2.04,-1.28c-1.312,-0.953 -2.831,-1.508 -4.246,-2.288c-3.372,-1.426 -6.93,-2.468 -10.61,-2.961c-1.263,-0.097 -2.524,-0.194 -3.786,-0.29c-1.229,0.031 -2.457,0.061 -3.685,0.093c-1.223,0.149 -2.447,0.298 -3.67,0.448c-3.684,0.681 -7.262,1.878 -10.659,3.503c-3.363,1.705 -6.43,3.945 -9.251,6.498c-0.878,0.917 -1.755,1.832 -2.633,2.749l-0.018,0.019c-0.783,1.007 -1.567,2.012 -2.35,3.015c-0.682,1.075 -1.365,2.152 -2.049,3.227c-1.818,3.364 -3.274,6.946 -4.147,10.719c-0.255,1.275 -0.431,2.57 -0.673,3.856c-0.097,1.307 -0.193,2.612 -0.29,3.919c0.032,1.27 0.063,2.542 0.097,3.81c0.351,3.891 1.214,7.737 2.566,11.431c1.434,3.664 3.436,7.083 5.806,10.256c0.864,0.999 1.725,2 2.588,3c0.24,0.229 0.479,0.458 0.719,0.688l1.44,1.375c0.24,0.229 0.48,0.459 0.72,0.688l0.021,0.019c1.049,0.815 2.098,1.63 3.146,2.447c3.317,2.222 6.881,4.109 10.704,5.388c3.87,1.21 7.907,1.915 12.005,2.069c4.039,0.016 8.079,-0.488 12.017,-1.509c3.942,-1.127 7.702,-2.84 11.22,-4.985c1.45,-1.08 3.053,-1.978 4.371,-3.243c0.69,-0.594 1.382,-1.186 2.073,-1.779c0.629,-0.664 1.256,-1.327 1.885,-1.991c0,0 0.349,-0.362 1.045,-1.085l0.46,-0.478c2.347,-2.442 6.229,-2.518 8.67,-0.169c2.355,2.265 2.498,5.971 0.398,8.42l-0.421,0.49l0,0c-0.562,0.653 -0.844,0.979 -0.844,0.979c-0.772,0.89 -1.549,1.781 -2.324,2.671c-0.855,0.814 -1.712,1.629 -2.568,2.444c-1.663,1.697 -3.649,3.016 -5.512,4.49c-4.461,3.043 -9.32,5.528 -14.474,7.257c-5.142,1.616 -10.496,2.547 -15.915,2.756c-5.502,0.076 -11.016,-0.609 -16.373,-2.034c-5.303,-1.493 -10.346,-3.824 -15.054,-6.714c-1.501,-1.056 -3.001,-2.115 -4.497,-3.171l-0.034,-0.024c-1.391,-1.207 -2.781,-2.414 -4.172,-3.621c-1.3,-1.305 -2.547,-2.672 -3.814,-4.021c-3.564,-4.267 -6.617,-8.994 -8.894,-14.112c-2.196,-5.145 -3.692,-10.584 -4.435,-16.159c-0.136,-1.829 -0.267,-3.656 -0.401,-5.483c0.037,-1.895 0.058,-3.798 0.146,-5.697c0.225,-1.886 0.411,-3.785 0.71,-5.669c1.001,-5.575 2.863,-10.986 5.366,-16.101c0.924,-1.648 1.834,-3.315 2.814,-4.937c1.093,-1.547 2.186,-3.095 3.278,-4.641l0.025,-0.033c1.244,-1.43 2.486,-2.86 3.728,-4.29c4.015,-4.067 8.537,-7.684 13.556,-10.528c5.052,-2.763 10.472,-4.861 16.111,-6.161c1.87,-0.353 3.754,-0.658 5.637,-0.966c1.906,-0.139 3.81,-0.279 5.714,-0.418c1.975,0.039 3.958,0.056 5.936,0.162c5.802,0.472 11.531,1.814 17.017,3.873c2.344,1.058 4.784,1.954 6.985,3.305c1.12,0.634 2.252,1.263 3.357,1.927c1.054,0.737 2.109,1.479 3.163,2.218c0,0 0.577,0.413 1.727,1.237c5.126,3.67 6.307,10.802 2.635,15.93c-3.671,5.126 -10.802,6.306 -15.928,2.635l-0.26,-0.192l-0.885,-0.678l-0.785,-0.602Z" style="fill:#fff;"/><path d="M278.622,284.829c1.868,1.778 3.552,3.793 4.896,6.057c1.307,2.273 2.326,4.734 2.962,7.313c0.597,2.584 0.843,5.258 0.717,7.939c-0.173,2.679 -0.731,5.342 -1.643,7.908c-0.947,2.558 -2.299,4.966 -3.93,7.183c-1.683,2.165 -3.645,4.122 -5.89,5.78c-2.273,1.612 -4.767,2.946 -7.432,3.877c-2.672,0.894 -5.469,1.425 -8.313,1.562c-2.841,0.082 -5.706,-0.229 -8.501,-0.933c-2.787,-0.738 -5.472,-1.908 -7.973,-3.412c-2.479,-1.549 -4.712,-3.445 -6.686,-5.619c-1.922,-2.226 -3.585,-4.715 -4.834,-7.429c-1.216,-2.723 -2.066,-5.618 -2.488,-8.596c-0.376,-2.981 -0.339,-6.02 0.116,-9.027c0.499,-3.001 1.446,-5.94 2.774,-8.722c1.365,-2.771 3.162,-5.314 5.235,-7.607l0.16,-0.176c4.238,-4.688 11.476,-5.053 16.166,-0.815c4.689,4.238 5.054,11.477 0.815,16.165c-0.3,0.332 -0.665,0.686 -0.994,0.975c-0.666,0.578 -1.303,1.191 -1.827,1.919c-0.485,0.743 -0.915,1.551 -1.219,2.44c-0.262,0.896 -0.422,1.841 -0.465,2.816c0.005,0.968 0.144,1.941 0.393,2.903c0.283,0.953 0.727,1.854 1.261,2.737c0.598,0.849 1.299,1.655 2.1,2.346c0.83,0.646 1.735,1.227 2.744,1.658c1.015,0.393 2.097,0.673 3.223,0.81c1.128,0.082 2.275,0.023 3.419,-0.181c1.131,-0.239 2.222,-0.657 3.283,-1.193c1.033,-0.581 2.006,-1.326 2.893,-2.184c0.827,-0.894 1.585,-1.876 2.171,-2.984c2.396,-4.438 1.847,-10.602 -1.827,-14.814l-0.177,-0.202c-2.231,-2.56 -1.966,-6.444 0.594,-8.673c2.406,-2.099 6.004,-1.969 8.277,0.179Z" style="fill:#fff;"/><path d="M367.294,310.921c0.296,0 0.591,0.055 0.886,0.167c0.295,0.109 0.578,0.299 0.848,0.571l4.944,5.201c-2.165,2.829 -4.877,4.961 -8.134,6.4c-3.26,1.441 -7.114,2.159 -11.566,2.159c-4.082,0 -7.74,-0.696 -10.974,-2.085c-3.236,-1.39 -5.978,-3.308 -8.228,-5.755c-2.249,-2.447 -3.977,-5.349 -5.182,-8.704c-1.207,-3.357 -1.81,-7.006 -1.81,-10.939c0,-4.009 0.652,-7.693 1.957,-11.05c1.304,-3.357 3.136,-6.252 5.497,-8.687c2.361,-2.434 5.189,-4.328 8.485,-5.683c3.295,-1.35 6.921,-2.027 10.882,-2.027c2.017,0 3.916,0.179 5.699,0.534c1.783,0.357 3.45,0.849 4.999,1.478c1.55,0.625 2.974,1.382 4.28,2.268c1.303,0.885 2.459,1.844 3.467,2.875l-4.205,5.644c-0.272,0.347 -0.59,0.659 -0.959,0.942c-0.369,0.285 -0.886,0.425 -1.55,0.425c-0.442,0 -0.86,-0.098 -1.254,-0.295c-0.393,-0.197 -0.811,-0.436 -1.254,-0.718c-0.443,-0.285 -0.929,-0.591 -1.458,-0.924c-0.529,-0.331 -1.156,-0.638 -1.88,-0.921c-0.725,-0.283 -1.576,-0.523 -2.545,-0.72c-0.974,-0.197 -2.11,-0.295 -3.414,-0.295c-2.065,0 -3.954,0.381 -5.661,1.143c-1.711,0.763 -3.187,1.875 -4.429,3.338c-1.242,1.463 -2.201,3.26 -2.877,5.388c-0.675,2.127 -1.014,4.555 -1.014,7.285c0,2.754 0.374,5.201 1.124,7.341c0.752,2.14 1.773,3.94 3.062,5.403c1.291,1.464 2.799,2.578 4.52,3.338c1.722,0.764 3.566,1.146 5.534,1.146c1.129,0 2.164,-0.055 3.098,-0.167c0.935,-0.109 1.808,-0.295 2.62,-0.552c0.811,-0.26 1.574,-0.603 2.287,-1.033c0.713,-0.43 1.439,-0.978 2.176,-1.642c0.296,-0.246 0.614,-0.45 0.96,-0.608c0.344,-0.16 0.7,-0.241 1.069,-0.241Z" style="fill:#fff;fill-rule:nonzero;"/><path d="M389.244,324.829l-10.993,0l0,-38.809l10.993,0l0,38.809Zm1.033,-50.024c0,2.019 -0.652,3.603 -1.955,4.759c-1.305,1.156 -2.842,1.734 -4.611,1.734c-1.771,0 -3.308,-0.578 -4.612,-1.734c-1.305,-1.156 -1.957,-2.74 -1.957,-4.759c0,-2.016 0.652,-3.603 1.957,-4.758c1.304,-1.156 2.841,-1.734 4.612,-1.734c1.769,0 3.306,0.578 4.611,1.734c1.303,1.155 1.955,2.742 1.955,4.758Z" style="fill:#fff;fill-rule:nonzero;"/><path d="M396.252,276.355l10.993,-1.771l0,11.436l13.207,0l0,9.149l-13.207,0l0,13.649c0,2.312 0.406,4.157 1.217,5.534c0.81,1.377 2.446,2.066 4.905,2.066c1.182,0 2.4,-0.111 3.654,-0.332c1.252,-0.222 2.398,-0.529 3.431,-0.922l1.549,8.558c-1.328,0.543 -2.804,1.008 -4.427,1.402c-1.623,0.392 -3.617,0.59 -5.976,0.59c-3,0 -5.484,-0.406 -7.454,-1.219c-1.967,-0.812 -3.539,-1.941 -4.72,-3.392c-1.18,-1.449 -2.006,-3.21 -2.471,-5.275c-0.47,-2.066 -0.701,-4.354 -0.701,-6.862l0,-32.611Z" style="fill:#fff;fill-rule:nonzero;"/><path d="M462.431,286.02c-2.219,7.477 -4.536,14.486 -6.953,21.028c-2.415,6.542 -5.054,12.887 -7.914,19.035c-1.036,2.212 -2.069,4.095 -3.104,5.644c-1.034,1.548 -2.169,2.829 -3.399,3.837c-1.231,1.006 -2.623,1.744 -4.176,2.213c-1.551,0.468 -3.36,0.699 -5.429,0.699c-1.724,0 -3.314,-0.158 -4.766,-0.477c-1.453,-0.322 -2.646,-0.678 -3.584,-1.072l1.918,-8.78c1.133,0.395 2.142,0.664 3.027,0.812c0.885,0.147 1.822,0.221 2.807,0.221c1.968,0 3.48,-0.527 4.54,-1.584c1.055,-1.06 1.955,-2.523 2.694,-4.39c-2.512,-4.919 -5.022,-10.44 -7.531,-16.564c-2.51,-6.124 -4.873,-12.998 -7.086,-20.622l11.657,0c0.494,1.918 1.075,3.997 1.743,6.235c0.666,2.238 1.372,4.498 2.111,6.787c0.74,2.288 1.495,4.513 2.261,6.678c0.764,2.164 1.495,4.13 2.187,5.902c0.64,-1.772 1.307,-3.738 1.999,-5.902c0.693,-2.165 1.372,-4.39 2.038,-6.678c0.666,-2.289 1.309,-4.549 1.926,-6.787c0.618,-2.238 1.171,-4.317 1.667,-6.235l11.367,0Z" style="fill:#fff;fill-rule:nonzero;"/><path d="M488.992,325.862c-3.59,0 -6.689,-0.504 -9.296,-1.515c-2.607,-1.006 -4.759,-2.408 -6.456,-4.203c-1.697,-1.796 -2.951,-3.935 -3.763,-6.419c-0.811,-2.484 -1.215,-5.226 -1.215,-8.227l0,-31.801l11.508,0l0,30.842c0,2.066 0.233,3.824 0.701,5.275c0.467,1.451 1.108,2.632 1.92,3.542c0.809,0.91 1.793,1.562 2.949,1.955c1.154,0.394 2.423,0.59 3.8,0.59c2.803,0 5.078,-0.859 6.825,-2.582c1.744,-1.722 2.619,-4.648 2.619,-8.78l0,-30.842l11.51,0l0,31.801c0,3.001 -0.419,5.755 -1.255,8.264c-0.836,2.508 -2.115,4.66 -3.835,6.456c-1.723,1.795 -3.912,3.184 -6.568,4.168c-2.654,0.982 -5.804,1.476 -9.444,1.476Z" style="fill:#fff;fill-rule:nonzero;"/><path d="M540.86,305.72c0,-3.394 -0.764,-6.112 -2.287,-8.153c-1.525,-2.041 -3.787,-3.062 -6.788,-3.062c-0.985,0 -1.894,0.037 -2.73,0.111c-0.838,0.073 -1.525,0.159 -2.066,0.258l0,19.847c0.689,0.443 1.587,0.811 2.693,1.107c1.107,0.295 2.226,0.442 3.357,0.442c5.212,0 7.821,-3.517 7.821,-10.55Zm11.213,-0.296c0,3.001 -0.367,5.731 -1.105,8.19c-0.738,2.459 -1.822,4.575 -3.246,6.344c-1.428,1.772 -3.197,3.149 -5.312,4.133c-2.117,0.982 -4.55,1.476 -7.305,1.476c-1.525,0 -2.951,-0.148 -4.279,-0.443c-1.328,-0.295 -2.609,-0.713 -3.837,-1.254l0,14.606l-10.993,0l0,-51.128c0.984,-0.295 2.113,-0.578 3.394,-0.85c1.279,-0.269 2.619,-0.502 4.021,-0.699c1.402,-0.195 2.826,-0.357 4.279,-0.48c1.451,-0.123 2.841,-0.184 4.169,-0.184c3.197,0 6.05,0.479 8.558,1.437c2.507,0.959 4.624,2.313 6.346,4.059c1.721,1.747 3.037,3.874 3.947,6.382c0.908,2.509 1.363,5.313 1.363,8.411Z" style="fill:#fff;fill-rule:nonzero;"/><path d="M566.979,305.129c0,3.394 0.76,6.124 2.287,8.19c1.523,2.066 3.785,3.099 6.788,3.099c0.982,0 1.892,-0.037 2.729,-0.111c0.835,-0.074 1.524,-0.16 2.065,-0.258l0,-19.995c-0.689,-0.442 -1.587,-0.811 -2.693,-1.106c-1.107,-0.296 -2.224,-0.443 -3.357,-0.443c-5.214,0 -7.819,3.541 -7.819,10.624Zm24.862,18.446c-0.984,0.295 -2.115,0.577 -3.392,0.846c-1.281,0.273 -2.621,0.504 -4.023,0.703c-1.4,0.195 -2.828,0.357 -4.278,0.48c-1.452,0.122 -2.84,0.184 -4.168,0.184c-3.199,0 -6.05,-0.469 -8.559,-1.402c-2.51,-0.933 -4.625,-2.275 -6.347,-4.021c-1.721,-1.744 -3.037,-3.861 -3.947,-6.347c-0.912,-2.482 -1.367,-5.273 -1.367,-8.372c0,-3.148 0.397,-5.987 1.183,-8.524c0.787,-2.531 1.92,-4.685 3.395,-6.454c1.474,-1.77 3.284,-3.123 5.421,-4.058c2.14,-0.932 4.587,-1.401 7.342,-1.401c1.524,0 2.889,0.147 4.094,0.442c1.206,0.295 2.423,0.713 3.653,1.254l0,-17.559l10.993,-1.771l0,56Z" style="fill:#fff;fill-rule:nonzero;"/><path d="M614.049,317.156c1.082,0 2.115,-0.025 3.099,-0.074c0.983,-0.049 1.77,-0.123 2.361,-0.222l0,-8.337c-0.443,-0.098 -1.107,-0.196 -1.992,-0.295c-0.888,-0.098 -1.697,-0.147 -2.435,-0.147c-1.033,0 -2.005,0.061 -2.916,0.184c-0.908,0.123 -1.708,0.357 -2.396,0.701c-0.689,0.344 -1.23,0.81 -1.624,1.4c-0.393,0.59 -0.592,1.33 -0.592,2.215c0,1.724 0.58,2.913 1.736,3.579c1.154,0.664 2.74,0.996 4.759,0.996Zm-0.885,-32.169c3.246,0 5.951,0.369 8.115,1.107c2.163,0.738 3.899,1.795 5.202,3.172c1.302,1.378 2.226,3.05 2.767,5.018c0.541,1.967 0.811,4.156 0.811,6.564l0,22.874c-1.574,0.344 -3.764,0.75 -6.566,1.217c-2.804,0.468 -6.198,0.701 -10.182,0.701c-2.508,0 -4.785,-0.221 -6.825,-0.664c-2.041,-0.442 -3.799,-1.168 -5.275,-2.176c-1.476,-1.009 -2.607,-2.324 -3.394,-3.949c-0.789,-1.622 -1.18,-3.614 -1.18,-5.975c0,-2.262 0.453,-4.181 1.365,-5.755c0.91,-1.574 2.127,-2.828 3.652,-3.762c1.523,-0.935 3.269,-1.611 5.238,-2.029c1.968,-0.417 4.009,-0.629 6.124,-0.629c1.425,0 2.693,0.065 3.8,0.186c1.106,0.123 2.004,0.283 2.693,0.478l0,-1.033c0,-1.868 -0.566,-3.368 -1.697,-4.499c-1.132,-1.131 -3.099,-1.697 -5.903,-1.697c-1.869,0 -3.713,0.135 -5.533,0.406c-1.822,0.27 -3.394,0.653 -4.722,1.143l-1.402,-8.853c0.639,-0.195 1.439,-0.408 2.398,-0.629c0.959,-0.22 2.002,-0.417 3.135,-0.589c1.132,-0.172 2.325,-0.319 3.579,-0.442c1.254,-0.123 2.519,-0.185 3.8,-0.185Z" style="fill:#fff;fill-rule:nonzero;"/><path d="M635.222,276.355l10.994,-1.771l0,11.436l13.206,0l0,9.149l-13.206,0l0,13.649c0,2.312 0.405,4.157 1.217,5.534c0.812,1.377 2.445,2.066 4.906,2.066c1.181,0 2.398,-0.111 3.653,-0.332c1.254,-0.222 2.397,-0.529 3.43,-0.922l1.55,8.558c-1.328,0.543 -2.804,1.008 -4.427,1.402c-1.623,0.392 -3.615,0.59 -5.976,0.59c-3.001,0 -5.485,-0.406 -7.452,-1.219c-1.968,-0.812 -3.542,-1.941 -4.722,-3.392c-1.181,-1.449 -2.005,-3.21 -2.472,-5.275c-0.469,-2.066 -0.701,-4.354 -0.701,-6.862l0,-32.611Z" style="fill:#fff;fill-rule:nonzero;"/><path d="M689.377,301.512c-0.051,-0.932 -0.21,-1.842 -0.479,-2.728c-0.271,-0.885 -0.689,-1.672 -1.256,-2.361c-0.564,-0.688 -1.277,-1.254 -2.138,-1.697c-0.863,-0.442 -1.931,-0.664 -3.211,-0.664c-1.23,0 -2.286,0.209 -3.171,0.627c-0.886,0.418 -1.623,0.972 -2.214,1.66c-0.59,0.689 -1.047,1.488 -1.365,2.398c-0.321,0.912 -0.553,1.833 -0.7,2.765l14.534,0Zm-25.825,4.208c0,-3.444 0.529,-6.456 1.588,-9.04c1.056,-2.581 2.446,-4.733 4.169,-6.454c1.72,-1.722 3.7,-3.025 5.939,-3.911c2.237,-0.885 4.538,-1.328 6.897,-1.328c5.509,0 9.864,1.685 13.061,5.054c3.195,3.369 4.794,8.325 4.794,14.867c0,0.639 -0.023,1.34 -0.074,2.103c-0.049,0.762 -0.096,1.438 -0.146,2.029l-24.937,0c0.245,2.262 1.301,4.058 3.172,5.386c1.867,1.328 4.378,1.992 7.526,1.992c2.015,0 3.994,-0.185 5.939,-0.554c1.941,-0.37 3.529,-0.822 4.759,-1.365l1.476,8.928c-0.591,0.295 -1.378,0.59 -2.361,0.885c-0.986,0.295 -2.08,0.554 -3.284,0.775c-1.207,0.221 -2.498,0.406 -3.873,0.553c-1.377,0.148 -2.756,0.222 -4.132,0.222c-3.494,0 -6.531,-0.517 -9.112,-1.55c-2.582,-1.033 -4.722,-2.447 -6.42,-4.242c-1.696,-1.795 -2.95,-3.923 -3.762,-6.382c-0.811,-2.459 -1.219,-5.116 -1.219,-7.968Z" style="fill:#fff;fill-rule:nonzero;"/></g></svg>