<?xml version="1.0" encoding="UTF-8" standalone="no"?><!DOCTYPE svg PUBLIC "-//W3C//DTD SVG 1.1//EN" "http://www.w3.org/Graphics/SVG/1.1/DTD/svg11.dtd"><svg width="100%" height="100%" viewBox="0 0 900 600" version="1.1" xmlns="http://www.w3.org/2000/svg" xmlns:xlink="http://www.w3.org/1999/xlink" xml:space="preserve" xmlns:serif="http://www.serif.com/" style="fill-rule:evenodd;clip-rule:evenodd;stroke-linejoin:round;stroke-miterlimit:1.41421;"><rect id="logo-miu" x="0" y="0" width="900" height="600" style="fill:none;"/><g><rect x="445.446" y="209.512" width="9.109" height="130.567" style="fill:#fff;"/><path d="M405.972,340.079l-9.11,0l0,-115.017l-52.954,52.954c-1.778,1.78 -4.661,1.78 -6.441,0l-52.953,-52.954l0,105.908l60.73,0l0,9.109l-65.286,0c-2.515,0 -4.555,-2.04 -4.555,-4.555l0,-121.457c0,-1.841 1.11,-3.503 2.813,-4.208c1.707,-0.706 3.659,-0.315 4.963,0.987l57.508,57.509l57.511,-57.509c1.305,-1.304 3.261,-1.699 4.963,-0.987c1.702,0.705 2.811,2.367 2.811,4.208l0,126.012Z" style="fill:#fff;fill-rule:nonzero;"/><path d="M559.313,340.079c-35.999,0 -65.283,-29.286 -65.283,-65.284l0,-65.283l9.109,0l0,65.283c0,30.975 25.198,56.175 56.174,56.175c30.975,0 56.174,-25.2 56.174,-56.175l0,-56.174l-60.729,0l0,-9.109l65.284,0c2.515,0 4.555,2.039 4.555,4.555l0,60.728c0,35.998 -29.286,65.284 -65.284,65.284Z" style="fill:#fff;fill-rule:nonzero;"/><path d="M282.312,364.126l8.504,21.223l8.503,-21.223l4.446,0l0,26.009l-3.427,0l0,-10.127l0.32,-10.932l-8.537,21.059l-2.628,0l-8.521,-21.007l0.343,10.88l0,10.127l-3.432,0l0,-26.009l4.429,0Z" style="fill:#fff;fill-rule:nonzero;"/><path d="M318.54,377.186l6.787,-13.06l3.894,0l-8.965,16.31l0,9.699l-3.432,0l0,-9.699l-8.968,-16.31l3.931,0l6.753,13.06Z" style="fill:#fff;fill-rule:nonzero;"/><path d="M350.583,378.543c-2.94,-0.845 -5.078,-1.886 -6.419,-3.117c-1.339,-1.233 -2.007,-2.754 -2.007,-4.565c0,-2.048 0.815,-3.742 2.454,-5.082c1.637,-1.34 3.767,-2.01 6.387,-2.01c1.785,0 3.378,0.347 4.775,1.038c1.4,0.69 2.486,1.641 3.251,2.856c0.769,1.216 1.154,2.543 1.154,3.984l-3.448,0c0,-1.576 -0.5,-2.817 -1.501,-3.719c-0.998,-0.902 -2.41,-1.352 -4.231,-1.352c-1.69,0 -3.013,0.372 -3.96,1.117c-0.946,0.746 -1.419,1.78 -1.419,3.104c0,1.065 0.451,1.96 1.351,2.695c0.897,0.733 2.428,1.403 4.591,2.011c2.16,0.609 3.85,1.279 5.071,2.012c1.222,0.733 2.126,1.588 2.718,2.563c0.587,0.978 0.883,2.127 0.883,3.447c0,2.109 -0.824,3.798 -2.469,5.065c-1.639,1.269 -3.835,1.901 -6.588,1.901c-1.788,0 -3.452,-0.339 -5.004,-1.026c-1.546,-0.684 -2.74,-1.622 -3.58,-2.812c-0.84,-1.192 -1.26,-2.542 -1.26,-4.055l3.45,0c0,1.572 0.578,2.812 1.74,3.722c1.164,0.913 2.715,1.368 4.654,1.368c1.808,0 3.196,-0.37 4.162,-1.108c0.963,-0.736 1.446,-1.744 1.446,-3.019c0,-1.274 -0.448,-2.259 -1.34,-2.956c-0.891,-0.695 -2.508,-1.384 -4.861,-2.062Z" style="fill:#fff;fill-rule:nonzero;"/><path d="M369.341,377.151l6.161,0c1.835,0 3.238,-0.434 4.214,-1.299c0.976,-0.864 1.468,-2.116 1.468,-3.749c0,-1.551 -0.492,-2.791 -1.468,-3.722c-0.976,-0.931 -2.316,-1.415 -4.019,-1.448l-6.356,0l0,10.218Zm0,2.803l0,10.181l-3.432,0l0,-26.009l9.593,0c2.846,0 5.076,0.728 6.691,2.182c1.611,1.45 2.417,3.373 2.417,5.768c0,2.526 -0.786,4.469 -2.367,5.832c-1.576,1.363 -3.837,2.046 -6.777,2.046l-6.125,0Z" style="fill:#fff;fill-rule:nonzero;"/><path d="M392.311,380.525l8.843,0l-4.43,-12.163l-4.413,12.163Zm9.859,2.803l-10.895,0l-2.447,6.807l-3.537,0l9.932,-26.009l3,0l9.949,26.009l-3.517,0l-2.485,-6.807Z" style="fill:#fff;fill-rule:nonzero;"/><path d="M431.896,381.884c-0.322,2.749 -1.337,4.873 -3.049,6.367c-1.707,1.493 -3.981,2.24 -6.812,2.24c-3.071,0 -5.537,-1.1 -7.388,-3.304c-1.852,-2.201 -2.778,-5.149 -2.778,-8.841l0,-2.501c0,-2.416 0.432,-4.541 1.295,-6.377c0.867,-1.835 2.087,-3.241 3.673,-4.223c1.584,-0.984 3.419,-1.476 5.502,-1.476c2.759,0 4.974,0.771 6.644,2.315c1.666,1.541 2.637,3.676 2.913,6.402l-3.45,0c-0.296,-2.076 -0.944,-3.582 -1.935,-4.514c-0.998,-0.931 -2.389,-1.396 -4.172,-1.396c-2.193,0 -3.908,0.808 -5.155,2.431c-1.243,1.619 -1.865,3.927 -1.865,6.917l0,2.521c0,2.825 0.588,5.072 1.767,6.741c1.179,1.667 2.827,2.502 4.949,2.502c1.906,0 3.367,-0.43 4.383,-1.296c1.018,-0.862 1.694,-2.366 2.028,-4.508l3.45,0Z" style="fill:#fff;fill-rule:nonzero;"/><path d="M452.561,378.113l-11.271,0l0,9.219l13.092,0l0,2.803l-16.524,0l0,-26.009l16.347,0l0,2.807l-12.915,0l0,8.376l11.271,0l0,2.804Z" style="fill:#fff;fill-rule:nonzero;"/><path d="M483.338,378.65l-10.913,0l0,11.485l-3.432,0l0,-26.009l16.115,0l0,2.807l-12.683,0l0,8.912l10.913,0l0,2.805Z" style="fill:#fff;fill-rule:nonzero;"/><path d="M507.098,376.292c0,-3.086 -0.621,-5.452 -1.86,-7.101c-1.238,-1.649 -2.971,-2.474 -5.198,-2.474c-2.168,0 -3.872,0.825 -5.118,2.474c-1.243,1.649 -1.885,3.94 -1.92,6.869l0,1.912c0,2.988 0.631,5.338 1.887,7.046c1.255,1.709 2.983,2.563 5.19,2.563c2.214,0 3.93,-0.805 5.141,-2.42c1.214,-1.614 1.84,-3.927 1.878,-6.94l0,-1.929Zm3.412,1.68c0,2.548 -0.429,4.771 -1.287,6.671c-0.858,1.901 -2.075,3.35 -3.646,4.349c-1.568,1 -3.403,1.499 -5.498,1.499c-2.051,0 -3.867,-0.501 -5.448,-1.508c-1.585,-1.005 -2.816,-2.439 -3.689,-4.304c-0.877,-1.864 -1.328,-4.024 -1.35,-6.477l0,-1.874c0,-2.502 0.437,-4.711 1.301,-6.628c0.872,-1.915 2.101,-3.385 3.69,-4.403c1.59,-1.018 3.41,-1.528 5.457,-1.528c2.084,0 3.922,0.506 5.511,1.511c1.589,1.005 2.814,2.464 3.672,4.376c0.858,1.911 1.287,4.137 1.287,6.672l0,1.644Z" style="fill:#fff;fill-rule:nonzero;"/><path d="M520.369,376.81l5.27,0c1.7,0 3.056,-0.443 4.062,-1.326c1.004,-0.881 1.508,-2.062 1.508,-3.54c0,-1.612 -0.477,-2.848 -1.436,-3.705c-0.96,-0.861 -2.343,-1.296 -4.156,-1.306l-5.248,0l0,9.877Zm6.108,2.803l-6.108,0l0,10.522l-3.449,0l0,-26.009l8.609,0c2.929,0 5.185,0.668 6.762,2.002c1.576,1.334 2.366,3.274 2.366,5.823c0,1.62 -0.438,3.031 -1.315,4.233c-0.873,1.202 -2.09,2.102 -3.649,2.699l6.106,11.039l0,0.213l-3.677,0l-5.645,-10.522Z" style="fill:#fff;fill-rule:nonzero;"/><path d="M553.254,387.332l12.324,0l0,2.803l-15.772,0l0,-26.009l3.448,0l0,23.206Z" style="fill:#fff;fill-rule:nonzero;"/><rect x="571.026" y="364.126" width="3.431" height="26.01" style="fill:#fff;"/><path d="M596.353,378.65l-10.911,0l0,11.485l-3.434,0l0,-26.009l16.117,0l0,2.807l-12.683,0l0,8.912l10.911,0l0,2.805Z" style="fill:#fff;fill-rule:nonzero;"/><path d="M618.221,378.113l-11.272,0l0,9.219l13.093,0l0,2.803l-16.525,0l0,-26.009l16.348,0l0,2.807l-12.916,0l0,8.376l11.272,0l0,2.804Z" style="fill:#fff;fill-rule:nonzero;"/></g></svg>