<?xml version="1.0" encoding="UTF-8" standalone="no"?><!DOCTYPE svg PUBLIC "-//W3C//DTD SVG 1.1//EN" "http://www.w3.org/Graphics/SVG/1.1/DTD/svg11.dtd"><svg width="100%" height="100%" viewBox="0 0 1200 744" version="1.1" xmlns="http://www.w3.org/2000/svg" xmlns:xlink="http://www.w3.org/1999/xlink" xml:space="preserve" xmlns:serif="http://www.serif.com/" style="fill-rule:evenodd;clip-rule:evenodd;stroke-linejoin:round;stroke-miterlimit:2;"><rect id="logo-greenverd" x="0" y="0" width="1200" height="744" style="fill:none;"/><g><path d="M374.912,359.839c4.947,-7.696 13.649,-11.543 26.108,-11.543l0,16.352c-1.465,-0.275 -2.794,-0.412 -3.985,-0.412c-6.687,0 -11.909,1.947 -15.665,5.84c-3.756,3.894 -5.634,9.505 -5.634,16.834l0,35.591l-17.177,0l0,-73.381l16.353,0l0,10.719Z" style="fill:#fff;fill-rule:nonzero;"/><path d="M447.055,408.896c7.97,0 14.612,-2.656 19.926,-7.97l9.069,10.581c-3.206,3.939 -7.329,6.917 -12.367,8.932c-5.039,2.016 -10.719,3.023 -17.04,3.023c-8.062,0 -15.161,-1.603 -21.299,-4.809c-6.138,-3.207 -10.88,-7.673 -14.224,-13.398c-3.343,-5.726 -5.015,-12.207 -5.015,-19.445c0,-7.145 1.626,-13.581 4.879,-19.307c3.252,-5.725 7.74,-10.191 13.467,-13.398c5.725,-3.206 12.207,-4.809 19.443,-4.809c6.871,0 13.124,1.488 18.758,4.466c5.634,2.977 10.1,7.237 13.398,12.779c3.299,5.543 4.947,12.024 4.947,19.445l-56.203,10.993c1.741,4.214 4.535,7.421 8.382,9.619c3.848,2.199 8.474,3.298 13.879,3.298Zm-3.161,-46.859c-6.321,0 -11.428,2.061 -15.321,6.184c-3.894,4.122 -5.84,9.665 -5.84,16.627l0,0.138l41.499,-7.97c-1.191,-4.489 -3.595,-8.108 -7.214,-10.856c-3.619,-2.749 -7.993,-4.123 -13.124,-4.123Z" style="fill:#fff;fill-rule:nonzero;"/><path d="M529.643,408.896c7.97,0 14.612,-2.656 19.925,-7.97l9.069,10.581c-3.206,3.939 -7.328,6.917 -12.367,8.932c-5.039,2.016 -10.719,3.023 -17.04,3.023c-8.062,0 -15.161,-1.603 -21.299,-4.809c-6.138,-3.207 -10.879,-7.673 -14.223,-13.398c-3.343,-5.726 -5.016,-12.207 -5.016,-19.445c0,-7.145 1.626,-13.581 4.879,-19.307c3.252,-5.725 7.741,-10.191 13.467,-13.398c5.725,-3.206 12.207,-4.809 19.444,-4.809c6.87,0 13.123,1.488 18.758,4.466c5.633,2.977 10.1,7.237 13.397,12.779c3.299,5.543 4.948,12.024 4.948,19.445l-56.204,10.993c1.741,4.214 4.535,7.421 8.382,9.619c3.849,2.199 8.474,3.298 13.88,3.298Zm-3.161,-46.859c-6.321,0 -11.429,2.061 -15.322,6.184c-3.894,4.122 -5.84,9.665 -5.84,16.627l0,0.138l41.499,-7.97c-1.191,-4.489 -3.595,-8.108 -7.214,-10.856c-3.619,-2.749 -7.992,-4.123 -13.123,-4.123Z" style="fill:#fff;fill-rule:nonzero;"/><path d="M618.963,348.296c9.253,0 16.673,2.702 22.262,8.107c5.588,5.405 8.383,13.421 8.383,24.048l0,42.05l-17.178,0l0,-39.851c0,-6.413 -1.511,-11.246 -4.535,-14.498c-3.022,-3.252 -7.329,-4.878 -12.917,-4.878c-6.321,0 -11.314,1.901 -14.978,5.703c-3.664,3.802 -5.497,9.275 -5.497,16.421l0,37.103l-17.177,0l0,-73.381l16.353,0l0,9.482c2.84,-3.39 6.412,-5.955 10.718,-7.695c4.306,-1.741 9.161,-2.611 14.566,-2.611Z" style="fill:#fff;fill-rule:nonzero;"/><path d="M736.042,349.12l-31.468,73.381l-17.727,0l-31.468,-73.381l17.864,0l22.811,54.417l23.498,-54.417l16.49,0Z" style="fill:#fff;fill-rule:nonzero;"/><path d="M776.855,408.896c7.97,0 14.612,-2.656 19.925,-7.97l9.07,10.581c-3.207,3.939 -7.329,6.917 -12.367,8.932c-5.039,2.016 -10.719,3.023 -17.04,3.023c-8.062,0 -15.162,-1.603 -21.3,-4.809c-6.138,-3.207 -10.879,-7.673 -14.223,-13.398c-3.343,-5.726 -5.015,-12.207 -5.015,-19.445c0,-7.145 1.626,-13.581 4.879,-19.307c3.252,-5.725 7.74,-10.191 13.466,-13.398c5.726,-3.206 12.207,-4.809 19.444,-4.809c6.871,0 13.124,1.488 18.757,4.466c5.635,2.977 10.1,7.237 13.399,12.779c3.298,5.543 4.947,12.024 4.947,19.445l-56.203,10.993c1.74,4.214 4.534,7.421 8.382,9.619c3.847,2.199 8.474,3.298 13.879,3.298Zm-3.161,-46.859c-6.321,0 -11.428,2.061 -15.321,6.184c-3.894,4.122 -5.841,9.665 -5.841,16.627l0,0.138l41.5,-7.97c-1.191,-4.489 -3.595,-8.108 -7.214,-10.856c-3.619,-2.749 -7.994,-4.123 -13.124,-4.123Z" style="fill:#fff;fill-rule:nonzero;"/><path d="M840.891,359.839c4.947,-7.696 13.65,-11.543 26.109,-11.543l0,16.352c-1.465,-0.275 -2.794,-0.412 -3.984,-0.412c-6.688,0 -11.91,1.947 -15.666,5.84c-3.756,3.894 -5.634,9.505 -5.634,16.834l0,35.591l-17.177,0l0,-73.381l16.352,0l0,10.719Z" style="fill:#fff;fill-rule:nonzero;"/><path d="M950,320.538l0,101.963l-16.49,0l0,-9.482c-2.84,3.481 -6.344,6.092 -10.513,7.833c-4.168,1.74 -8.772,2.61 -13.81,2.61c-7.054,0 -13.398,-1.557 -19.032,-4.672c-5.635,-3.115 -10.055,-7.535 -13.261,-13.26c-3.207,-5.726 -4.809,-12.299 -4.809,-19.72c0,-7.42 1.602,-13.97 4.809,-19.65c3.206,-5.68 7.626,-10.078 13.261,-13.192c5.634,-3.115 11.978,-4.672 19.032,-4.672c4.855,0 9.298,0.824 13.329,2.473c4.032,1.649 7.467,4.123 10.306,7.421l0,-37.652l17.178,0Zm-38.752,88.221c4.123,0 7.833,-0.939 11.131,-2.817c3.298,-1.878 5.909,-4.558 7.833,-8.039c1.924,-3.481 2.885,-7.512 2.885,-12.093c0,-4.58 -0.961,-8.611 -2.885,-12.092c-1.924,-3.482 -4.535,-6.161 -7.833,-8.039c-3.298,-1.878 -7.008,-2.817 -11.131,-2.817c-4.122,0 -7.832,0.939 -11.13,2.817c-3.299,1.878 -5.909,4.557 -7.833,8.039c-1.924,3.481 -2.886,7.512 -2.886,12.092c0,4.581 0.962,8.612 2.886,12.093c1.924,3.481 4.534,6.161 7.833,8.039c3.298,1.878 7.008,2.817 11.13,2.817Z" style="fill:#fff;fill-rule:nonzero;"/><path d="M339.595,367.805l0,38.738l-15.292,0l0,-23.447l-23.447,0l0,-15.291l38.739,0Z" style="fill:#fff;"/><path d="M298.85,421.834c-8.859,-0.01 -16.989,-1.934 -24.39,-5.771c-7.42,-3.848 -13.352,-9.436 -17.795,-16.765c-4.443,-7.329 -6.665,-16.078 -6.665,-26.247c0,-9.619 2.244,-18.253 6.733,-25.903c4.489,-7.649 10.696,-13.604 18.62,-17.864c7.925,-4.26 16.834,-6.39 26.728,-6.39c8.062,0 15.39,1.328 21.986,3.985c6.597,2.657 12.139,6.55 16.628,11.681l-11.268,10.993c-7.329,-7.329 -16.17,-10.993 -26.522,-10.993c-6.779,0 -12.802,1.443 -18.07,4.328c-5.268,2.886 -9.39,6.94 -12.367,12.162c-2.978,5.222 -4.466,11.176 -4.466,17.864c0,7.054 1.488,13.123 4.466,18.208c2.977,5.084 6.939,8.932 11.886,11.543c4.46,2.354 9.293,3.646 14.498,3.878l25.451,0l0,15.291l-25.453,0Z" style="fill:#fff;fill-rule:nonzero;"/></g></svg>