<?xml version="1.0" encoding="UTF-8" standalone="no"?><!DOCTYPE svg PUBLIC "-//W3C//DTD SVG 1.1//EN" "http://www.w3.org/Graphics/SVG/1.1/DTD/svg11.dtd"><svg width="100%" height="100%" viewBox="0 0 900 600" version="1.1" xmlns="http://www.w3.org/2000/svg" xmlns:xlink="http://www.w3.org/1999/xlink" xml:space="preserve" xmlns:serif="http://www.serif.com/" style="fill-rule:evenodd;clip-rule:evenodd;stroke-linejoin:round;stroke-miterlimit:1.41421;"><rect id="logo-franco-group" x="0" y="0" width="900" height="600" style="fill:none;"/><g><path d="M362.769,318.383c0,1.888 -1.751,3.637 -3.848,3.637c-2.17,0 -3.848,-1.749 -3.848,-3.637l0,-42.259c0,-2.03 1.818,-4.127 4.338,-4.127l18.958,0c2.1,0 3.848,1.678 3.848,3.637c0,2.029 -1.748,3.499 -3.848,3.499l-15.6,0l0,13.852l14.271,0c1.889,0 3.778,1.539 3.778,3.569c0,2.029 -1.678,3.637 -3.778,3.637l-14.271,0l0,18.192Z" style="fill:#fff;fill-rule:nonzero;"/><path d="M397.329,294.313c0.068,0.631 0.139,1.121 0.139,1.61l0,22.389c0,2.03 -1.678,3.567 -3.778,3.567c-2.168,0 -3.78,-1.537 -3.78,-3.567l0,-22.389c0,-1.959 -0.279,-3.006 -0.977,-4.056c-0.42,-0.56 -0.698,-1.05 -0.698,-1.889c0,-1.959 1.675,-3.29 3.637,-3.29c1.258,0 2.378,0.839 3.217,2.029c3.15,-1.889 6.716,-3.009 9.165,-3.009c3.569,0 4.689,1.47 4.689,3.431c0,2.238 -1.75,3.707 -3.85,3.567c-2.939,-0.071 -4.827,-0.141 -7.764,1.607Z" style="fill:#fff;fill-rule:nonzero;"/><path d="M419.995,310.895l0,0.211c0,2.798 1.399,4.406 5.247,4.406c2.378,0 4.478,-0.698 6.646,-2.447l0,-6.296c-2.027,-0.49 -4.338,-0.771 -6.086,-0.771c-4.898,0 -5.807,2.238 -5.807,4.897Zm11.893,-12.872c0,-4.129 -2.098,-6.156 -6.435,-6.156c-1.819,0 -2.939,0.419 -4.127,0.909l-1.331,0.56c-0.42,0.209 -1.191,0.349 -1.819,0.349c-2.029,0 -2.868,-1.61 -2.868,-3.079c0,-3.707 5.388,-5.177 10.843,-5.177c9.446,0 13.294,4.969 13.294,14.272l0,14.203c0,1.749 0.699,2.03 1.748,2.238c1.47,0.279 2.1,1.191 2.1,2.519c0,1.96 -1.469,2.939 -4.129,2.939c-2.446,0 -4.267,-0.979 -5.596,-3.149c-2.59,2.24 -5.669,3.36 -9.514,3.36c-7.628,0 -11.544,-4.27 -11.544,-10.775l0,-0.211c0,-6.995 4.338,-10.564 13.081,-10.564c2.17,0 4.27,0.281 6.297,0.841l0,-3.079Z" style="fill:#fff;fill-rule:nonzero;"/><path d="M457.426,318.312c0,1.959 -1.26,3.499 -3.78,3.499c-2.519,0 -3.777,-1.54 -3.777,-3.499l0,-22.457c0,-3.079 -0.49,-3.22 -0.909,-3.92c-0.561,-0.839 -0.839,-1.259 -0.839,-2.098c0,-1.818 1.539,-3.219 3.637,-3.219c1.328,0 2.448,0.771 3.287,2.029c3.15,-2.168 6.578,-3.077 9.655,-3.077c8.118,0 12.174,5.388 12.174,13.433l0,19.309c0,1.959 -1.399,3.499 -3.777,3.499c-2.449,0 -3.78,-1.54 -3.78,-3.499l0,-19.309c0,-4.408 -2.027,-6.998 -5.526,-6.998c-2.1,0 -4.267,0.771 -6.576,2.17c0.139,0.628 0.211,1.188 0.211,1.68l0,22.457Z" style="fill:#fff;fill-rule:nonzero;"/><path d="M484.99,298.721c0,-7.344 4.126,-13.081 13.502,-13.081c3.708,0 10.843,0.978 10.843,5.177c0,1.469 -0.979,2.939 -3.358,2.939c-0.56,0 -1.05,-0.071 -1.748,-0.282c-1.54,-0.698 -2.871,-1.399 -5.177,-1.399c-4.689,0 -6.507,2.449 -6.507,6.646l0,10.007c0,4.197 1.818,6.716 6.507,6.716c2.306,0 3.637,-0.701 5.177,-1.401c0.558,-0.209 0.98,-0.35 1.678,-0.35c2.449,0 3.428,1.54 3.428,3.009c0,4.127 -7.135,5.177 -10.913,5.177c-9.306,0 -13.432,-5.807 -13.432,-13.151l0,-10.007Z" style="fill:#fff;fill-rule:nonzero;"/><path d="M534.872,309.147l0,-11.124c0,-3.71 -2.238,-6.018 -6.576,-6.018c-4.338,0 -6.578,2.308 -6.578,6.018l0,11.124c0,3.778 2.24,6.086 6.578,6.086c4.338,0 6.576,-2.308 6.576,-6.086Zm-20.709,0l0,-11.054c0,-7.206 4.897,-12.734 14.133,-12.734c9.235,0 14.131,5.528 14.131,12.734l0,11.054c0,7.136 -4.896,12.732 -14.131,12.732c-9.236,0 -14.133,-5.596 -14.133,-12.732Z" style="fill:#fff;fill-rule:nonzero;"/><path d="M569.176,304.109c0,7.836 2.59,12.734 10.494,12.734c3.361,0 5.807,-0.98 7.907,-2.589l0,-15.043l-6.789,0c-1.399,0 -2.655,-1.188 -2.655,-2.657c0,-1.47 1.256,-2.66 2.655,-2.66l8.329,0c2.238,0 3.986,0.982 3.986,3.22l0,16.72c0,5.666 -7.558,8.115 -13.782,8.115c-10.773,0 -15.741,-7.065 -15.741,-17.84l0,-14.97c0,-10.775 4.968,-17.843 15.741,-17.843c6.367,0 12.383,2.73 12.383,6.018c0,1.329 -1.05,2.449 -2.517,2.449c-0.98,0 -1.399,-0.49 -2.519,-1.19c-2.1,-1.47 -4.27,-2.168 -6.998,-2.168c-7.904,0 -10.494,4.898 -10.494,12.734l0,14.97Z" style="fill:#fff;fill-rule:nonzero;"/><path d="M607.655,319.151c0,1.54 -1.188,2.728 -2.727,2.728c-1.54,0 -2.73,-1.188 -2.73,-2.728l0,-23.647c0,-2.308 -0.279,-3.637 -1.118,-4.898c-0.282,-0.419 -0.492,-0.769 -0.492,-1.399c0,-1.469 1.19,-2.449 2.519,-2.449c1.12,0 2.099,0.769 2.8,1.889c3.007,-1.889 6.925,-3.007 9.585,-3.007c2.798,0 3.637,1.188 3.637,2.658c0,1.75 -1.259,2.868 -2.728,2.798c-2.868,-0.07 -5.388,-0.07 -8.886,2.519c0.07,0.698 0.14,1.329 0.14,1.889l0,23.647Z" style="fill:#fff;fill-rule:nonzero;"/><path d="M643.964,309.426l0,-11.752c0,-4.549 -2.589,-7.347 -7.625,-7.347c-5.039,0 -7.626,2.798 -7.626,7.347l0,11.752c0,4.617 2.587,7.417 7.626,7.417c5.036,0 7.625,-2.8 7.625,-7.417Zm-20.709,0l0,-11.684c0,-6.995 4.549,-12.453 13.084,-12.453c8.537,0 13.083,5.458 13.083,12.453l0,11.684c0,6.995 -4.546,12.453 -13.083,12.453c-8.535,0 -13.084,-5.458 -13.084,-12.453Z" style="fill:#fff;fill-rule:nonzero;"/><path d="M677.196,288.228c0,-1.47 0.909,-2.658 2.728,-2.658c1.818,0 2.73,1.188 2.73,2.658l0,24.486c0,3.85 0.698,3.85 1.258,4.898c0.141,0.278 0.49,0.771 0.49,1.399c0,1.331 -1.12,2.451 -2.589,2.451c-1.329,0 -2.238,-0.841 -3.009,-2.102c-3.077,1.75 -6.646,2.519 -9.934,2.519c-7.417,0 -11.124,-5.315 -11.124,-13.222l0,-20.429c0,-1.47 0.979,-2.658 2.73,-2.658c1.748,0 2.728,1.188 2.728,2.658l0,20.429c0,5.318 2.238,8.327 6.435,8.327c2.73,0 5.387,-0.842 7.698,-2.311c-0.073,-0.698 -0.141,-1.399 -0.141,-1.959l0,-24.486Z" style="fill:#fff;fill-rule:nonzero;"/><path d="M699.023,315.582c2.238,1.05 5.317,1.47 7.068,1.47c5.106,0 6.924,-2.869 6.924,-9.374l0,-9.095c0,-5.458 -2.167,-8.326 -6.786,-8.326c-2.379,0 -5.177,0.909 -7.555,2.378c0.208,1.05 0.349,2.03 0.349,2.869l0,20.078Zm0,4.898l0,13.224c0,1.469 -0.98,2.657 -2.728,2.657c-1.751,0 -2.728,-1.188 -2.728,-2.657l0,-38.2c0,-2.308 -0.281,-3.637 -1.12,-4.898c-0.281,-0.419 -0.492,-0.769 -0.492,-1.399c0,-1.469 1.261,-2.449 2.451,-2.449c1.12,0 2.03,0.701 2.728,1.68c3.15,-1.68 6.576,-3.079 10.215,-3.079c7.347,0 11.124,5.388 11.124,13.224l0,9.095c0,8.326 -2.798,14.133 -11.684,14.133c-2.379,0 -5.247,-0.492 -7.766,-1.331Z" style="fill:#fff;fill-rule:nonzero;"/><path d="M265.444,244.953l0.01,0l-0.01,0Zm-7.81,-16.277c-2.167,0 -4.337,0.827 -5.989,2.478l-62.49,62.488c-3.302,3.302 -3.302,8.675 0,11.977c1.601,1.601 3.727,2.481 5.989,2.481c2.262,0 4.389,-0.88 5.989,-2.481l62.49,-62.49c3.302,-3.3 3.302,-8.673 0,-11.975c-1.651,-1.651 -3.821,-2.478 -5.989,-2.478Zm-62.49,84.579c-3.639,0 -7.06,-1.416 -9.633,-3.989c-5.312,-5.312 -5.312,-13.956 0,-19.269l62.49,-62.487c5.31,-5.313 13.954,-5.313 19.266,0c5.313,5.31 5.313,13.954 0,19.266l-62.49,62.49c-2.572,2.573 -5.993,3.989 -9.633,3.989Z" style="fill:#fff;fill-rule:nonzero;"/><path d="M265.444,307.443l0.01,0l-0.01,0Zm-7.81,-16.277c-2.17,0 -4.337,0.825 -5.989,2.476l-31.243,31.246c-1.601,1.598 -2.481,3.724 -2.481,5.986c0,2.263 0.88,4.389 2.481,5.989c1.597,1.6 3.726,2.483 5.988,2.483c2.263,0 4.389,-0.883 5.989,-2.48l31.244,-31.247c3.302,-3.302 3.302,-8.675 0,-11.977c-1.651,-1.651 -3.821,-2.476 -5.989,-2.476Zm-31.244,53.335c-3.639,0 -7.06,-1.419 -9.633,-3.991c-2.575,-2.575 -3.993,-5.996 -3.993,-9.636c0,-3.639 1.418,-7.06 3.993,-9.633l31.244,-31.244c5.31,-5.309 13.954,-5.312 19.266,0c5.313,5.313 5.313,13.957 0,19.267l0,0.002l-31.244,31.244c-2.572,2.572 -5.996,3.991 -9.633,3.991Z" style="fill:#fff;fill-rule:nonzero;"/><path d="M257.634,352.919c-2.357,0 -4.716,0.897 -6.51,2.691c-3.588,3.591 -3.588,9.43 0,13.021c3.591,3.588 9.429,3.586 13.02,-0.003c3.589,-3.588 3.589,-9.427 0,-13.018c-1.796,-1.794 -4.153,-2.691 -6.51,-2.691Zm0,23.555c-3.678,0 -7.356,-1.401 -10.154,-4.199c-5.599,-5.599 -5.599,-14.71 0,-20.309c5.598,-5.598 14.71,-5.598 20.309,0c5.598,5.599 5.598,14.71 0,20.309c-2.801,2.798 -6.477,4.199 -10.155,4.199Z" style="fill:#fff;fill-rule:nonzero;"/><path d="M288.878,333.452c-0.659,0 -1.319,-0.25 -1.823,-0.754c-1.007,-1.007 -1.007,-2.638 0,-3.645l28.642,-28.642c0.281,-0.281 0.322,-0.611 0.322,-0.78c0,-0.17 -0.041,-0.5 -0.322,-0.781l-28.642,-28.64c-1.007,-1.009 -1.007,-2.64 0,-3.647c1.006,-1.006 2.638,-1.006 3.646,0l28.64,28.64c1.183,1.183 1.833,2.757 1.833,4.428c0,1.673 -0.65,3.244 -1.833,4.427l-28.64,28.64c-0.506,0.504 -1.166,0.754 -1.823,0.754Z" style="fill:#fff;fill-rule:nonzero;"/></g></svg>