<?xml version="1.0" encoding="UTF-8" standalone="no"?><!DOCTYPE svg PUBLIC "-//W3C//DTD SVG 1.1//EN" "http://www.w3.org/Graphics/SVG/1.1/DTD/svg11.dtd"><svg width="100%" height="100%" viewBox="0 0 900 600" version="1.1" xmlns="http://www.w3.org/2000/svg" xmlns:xlink="http://www.w3.org/1999/xlink" xml:space="preserve" xmlns:serif="http://www.serif.com/" style="fill-rule:evenodd;clip-rule:evenodd;stroke-linejoin:round;stroke-miterlimit:1.41421;"><rect id="logo-stonex" x="0" y="0" width="900" height="600" style="fill:none;"/><g><path d="M255.1,309.555l-11.698,0c-7.296,0 -13.232,-5.935 -13.232,-13.231c0,-7.297 5.936,-13.233 13.232,-13.233l22.821,0l0,-8.884l-22.821,0c-12.195,0 -22.117,9.921 -22.117,22.117c0,12.194 9.922,22.116 22.117,22.116l11.698,0c7.296,0 13.232,5.935 13.232,13.232c0,7.296 -5.936,13.233 -13.232,13.233l-29.167,0l0,8.884l29.167,0c12.195,0 22.117,-9.921 22.117,-22.117c0,-12.195 -9.922,-22.117 -22.117,-22.117Z" style="fill:#fff;fill-rule:nonzero;"/><path d="M311.419,244.186l-10.282,0l0,29.669l-22.611,0l0,8.886l22.611,0l0,71.017l10.282,0l0,-71.017l22.65,0l0,-8.886l-22.65,0l0,-29.669Z" style="fill:#fff;fill-rule:nonzero;"/><path d="M406.486,330.403c-2.801,4.995 -6.584,8.851 -11.35,11.568c-4.767,2.717 -10,4.077 -15.698,4.077c-5.699,0 -10.933,-1.36 -15.698,-4.077c-4.767,-2.717 -8.55,-6.573 -11.35,-11.568c-2.801,-4.994 -4.201,-10.378 -4.201,-16.157c0,-8.958 3.071,-16.596 9.212,-22.913c6.142,-6.315 13.488,-9.473 22.037,-9.473c8.5,0 15.832,3.158 21.999,9.473c6.166,6.317 9.25,13.955 9.25,22.913c0,5.779 -1.401,11.163 -4.201,16.157Zm-27.011,-58.604c-12.36,0 -22.587,4.48 -30.679,13.44c-7.357,8.128 -11.036,17.724 -11.036,28.788c0,11.164 3.887,20.918 11.662,29.266c7.772,8.348 17.79,12.521 30.053,12.521c12.211,0 22.205,-4.173 29.98,-12.521c7.773,-8.348 11.66,-18.102 11.66,-29.266c0,-11.114 -3.678,-20.734 -11.035,-28.862c-8.094,-8.91 -18.295,-13.366 -30.605,-13.366Z" style="fill:#fff;fill-rule:nonzero;"/><path d="M491.352,276.352c-4.626,-3.035 -9.927,-4.553 -15.9,-4.553c-5.875,0 -11.31,1.359 -16.304,4.075c-4.994,2.717 -9.547,6.819 -13.66,12.303l0,-14.322l-10.281,0l0,79.903l10.281,0l0,-29.303c0,-10.526 0.489,-17.771 1.469,-21.738c1.567,-6.07 4.811,-11.163 9.732,-15.275c4.921,-4.113 10.492,-6.17 16.711,-6.17c5.435,0 9.843,1.335 13.221,4.003c3.378,2.669 5.664,6.646 6.855,11.934c0.762,3.085 1.144,9.229 1.144,18.434l0,38.115l10.282,0l0,-41.126c0,-10.869 -1.102,-18.874 -3.305,-24.016c-2.203,-5.139 -5.618,-9.228 -10.245,-12.264Z" style="fill:#fff;fill-rule:nonzero;"/><path d="M648.066,311.601l27.197,-37.746l-12.36,0l-21.028,29.23l-21.252,-29.23l-12.338,0l27.41,37.821l-30.274,42.082l12.27,0l24.18,-33.559l24.321,33.559l12.523,0l-30.649,-42.157Z" style="fill:#fff;fill-rule:nonzero;"/><path d="M529.632,314.246c0,-8.958 3.071,-16.596 9.212,-22.913c6.141,-6.315 13.488,-9.473 22.037,-9.473c5.892,0 11.223,1.521 15.994,4.556l-43.366,43.366c-2.575,-4.82 -3.877,-9.994 -3.877,-15.536Zm70.496,-14.847l-9.92,3.444c1.277,3.53 1.922,7.328 1.922,11.403c0,5.779 -1.401,11.163 -4.201,16.157c-2.801,4.995 -6.584,8.851 -11.35,11.568c-4.767,2.717 -10,4.077 -15.698,4.077c-5.7,0 -10.932,-1.36 -15.698,-4.077c-2.374,-1.353 -4.503,-2.99 -6.389,-4.907l39.289,-39.29l0.195,-0.195l5.396,-5.395l7.444,-7.445c-2.095,-2.249 -4.329,-4.201 -6.701,-5.864c-6.721,-4.709 -14.55,-7.076 -23.499,-7.076c-12.36,0 -22.587,4.48 -30.679,13.44c-7.358,8.128 -11.036,17.724 -11.036,28.788c0,8.56 2.295,16.29 6.867,23.195c1.39,2.099 2.982,4.125 4.794,6.071c0.276,0.296 0.56,0.574 0.841,0.859c7.651,7.768 17.385,11.662 29.213,11.662c12.212,0 22.205,-4.173 29.98,-12.521c7.773,-8.348 11.661,-18.102 11.661,-29.266c0,-3.915 -0.463,-7.641 -1.379,-11.184c-0.302,-1.167 -0.653,-2.315 -1.052,-3.444Z" style="fill:#fff;fill-rule:nonzero;"/></g></svg>