<?xml version="1.0" encoding="UTF-8" standalone="no"?><!DOCTYPE svg PUBLIC "-//W3C//DTD SVG 1.1//EN" "http://www.w3.org/Graphics/SVG/1.1/DTD/svg11.dtd"><svg width="100%" height="100%" viewBox="0 0 1200 744" version="1.1" xmlns="http://www.w3.org/2000/svg" xmlns:xlink="http://www.w3.org/1999/xlink" xml:space="preserve" xmlns:serif="http://www.serif.com/" style="fill-rule:evenodd;clip-rule:evenodd;stroke-linejoin:round;stroke-miterlimit:2;"><rect id="logo-macrame" x="0" y="0" width="1200" height="744" style="fill:none;"/><g><g><path d="M542.892,404.343l-0.091,-38.22l-18.747,31.486l-6.643,0l-18.655,-30.667l0,37.401l-13.832,0l0,-63.701l12.194,0l23.842,39.586l23.479,-39.586l12.103,0l0.182,63.701l-13.832,0Z" style="fill:#fff;fill-rule:nonzero;"/><path d="M590.577,354.656c7.583,0 13.407,1.805 17.472,5.415c4.065,3.61 6.097,9.055 6.097,16.335l0,27.937l-13.286,0l0,-6.097c-2.67,4.55 -7.644,6.825 -14.925,6.825c-3.761,0 -7.022,-0.637 -9.782,-1.911c-2.761,-1.274 -4.869,-3.033 -6.325,-5.278c-1.456,-2.245 -2.184,-4.793 -2.184,-7.644c0,-4.55 1.714,-8.13 5.142,-10.738c3.427,-2.609 8.721,-3.913 15.879,-3.913l11.285,0c0,-3.094 -0.941,-5.476 -2.821,-7.144c-1.881,-1.668 -4.702,-2.502 -8.464,-2.502c-2.608,0 -5.171,0.409 -7.689,1.228c-2.518,0.819 -4.656,1.926 -6.416,3.322l-5.096,-9.92c2.67,-1.88 5.87,-3.336 9.601,-4.368c3.731,-1.031 7.568,-1.547 11.512,-1.547Zm-1.093,40.86c2.427,0 4.581,-0.561 6.462,-1.684c1.88,-1.122 3.215,-2.775 4.004,-4.959l0,-5.005l-9.737,0c-5.825,0 -8.737,1.911 -8.737,5.733c0,1.82 0.713,3.261 2.139,4.322c1.426,1.062 3.382,1.593 5.869,1.593Z" style="fill:#fff;fill-rule:nonzero;"/><path d="M651.184,405.071c-5.218,0 -9.904,-1.077 -14.06,-3.23c-4.156,-2.154 -7.402,-5.142 -9.737,-8.964c-2.336,-3.822 -3.504,-8.16 -3.504,-13.013c0,-4.854 1.168,-9.191 3.504,-13.013c2.335,-3.823 5.581,-6.81 9.737,-8.964c4.156,-2.154 8.842,-3.231 14.06,-3.231c5.156,0 9.661,1.077 13.513,3.231c3.853,2.154 6.659,5.232 8.418,9.237l-11.011,5.915c-2.548,-4.49 -6.219,-6.734 -11.011,-6.734c-3.701,0 -6.765,1.213 -9.192,3.64c-2.426,2.426 -3.64,5.733 -3.64,9.919c0,4.186 1.214,7.492 3.64,9.919c2.427,2.427 5.491,3.64 9.192,3.64c4.853,0 8.523,-2.245 11.011,-6.734l11.011,6.006c-1.759,3.883 -4.565,6.916 -8.418,9.1c-3.852,2.184 -8.357,3.276 -13.513,3.276Z" style="fill:#fff;fill-rule:nonzero;"/><path d="M694.864,361.845c1.699,-2.366 3.989,-4.155 6.871,-5.369c2.882,-1.213 6.203,-1.82 9.965,-1.82l0,13.105c-1.578,-0.122 -2.64,-0.182 -3.186,-0.182c-4.064,0 -7.249,1.137 -9.555,3.412c-2.305,2.275 -3.458,5.688 -3.458,10.238l0,23.114l-14.196,0l0,-48.959l13.559,0l0,6.461Z" style="fill:#fff;fill-rule:nonzero;"/><path d="M739.637,354.656c7.583,0 13.408,1.805 17.472,5.415c4.065,3.61 6.097,9.055 6.097,16.335l0,27.937l-13.286,0l0,-6.097c-2.669,4.55 -7.644,6.825 -14.924,6.825c-3.761,0 -7.022,-0.637 -9.783,-1.911c-2.76,-1.274 -4.868,-3.033 -6.324,-5.278c-1.456,-2.245 -2.184,-4.793 -2.184,-7.644c0,-4.55 1.713,-8.13 5.141,-10.738c3.428,-2.609 8.721,-3.913 15.88,-3.913l11.284,0c0,-3.094 -0.94,-5.476 -2.821,-7.144c-1.881,-1.668 -4.702,-2.502 -8.463,-2.502c-2.609,0 -5.172,0.409 -7.69,1.228c-2.517,0.819 -4.656,1.926 -6.415,3.322l-5.096,-9.92c2.669,-1.88 5.869,-3.336 9.6,-4.368c3.731,-1.031 7.569,-1.547 11.512,-1.547Zm-1.092,40.86c2.427,0 4.58,-0.561 6.461,-1.684c1.881,-1.122 3.215,-2.775 4.004,-4.959l0,-5.005l-9.737,0c-5.824,0 -8.736,1.911 -8.736,5.733c0,1.82 0.713,3.261 2.138,4.322c1.426,1.062 3.383,1.593 5.87,1.593Z" style="fill:#fff;fill-rule:nonzero;"/><path d="M838.738,354.656c6.127,0 10.996,1.805 14.605,5.415c3.61,3.61 5.415,9.024 5.415,16.244l0,28.028l-14.196,0l0,-25.844c0,-3.883 -0.804,-6.78 -2.412,-8.691c-1.608,-1.911 -3.898,-2.866 -6.87,-2.866c-3.337,0 -5.976,1.076 -7.918,3.23c-1.941,2.154 -2.912,5.354 -2.912,9.601l0,24.57l-14.196,0l0,-25.844c0,-7.705 -3.094,-11.557 -9.282,-11.557c-3.276,0 -5.885,1.076 -7.826,3.23c-1.941,2.154 -2.912,5.354 -2.912,9.601l0,24.57l-14.196,0l0,-48.959l13.559,0l0,5.642c1.82,-2.062 4.049,-3.64 6.688,-4.732c2.639,-1.092 5.536,-1.638 8.691,-1.638c3.458,0 6.583,0.683 9.373,2.048c2.791,1.365 5.036,3.352 6.734,5.96c2.002,-2.548 4.535,-4.519 7.599,-5.915c3.064,-1.395 6.416,-2.093 10.056,-2.093Z" style="fill:#fff;fill-rule:nonzero;"/><path d="M920.002,380.046c0,0.182 -0.091,1.456 -0.273,3.822l-37.038,0c0.668,3.033 2.245,5.43 4.732,7.189c2.488,1.759 5.582,2.639 9.283,2.639c2.548,0 4.808,-0.379 6.779,-1.138c1.972,-0.758 3.807,-1.956 5.506,-3.594l7.553,8.19c-4.611,5.278 -11.345,7.917 -20.202,7.917c-5.521,0 -10.405,-1.077 -14.652,-3.23c-4.246,-2.154 -7.522,-5.142 -9.828,-8.964c-2.305,-3.822 -3.458,-8.16 -3.458,-13.013c0,-4.793 1.138,-9.116 3.413,-12.968c2.275,-3.852 5.399,-6.855 9.373,-9.009c3.974,-2.154 8.417,-3.231 13.332,-3.231c4.792,0 9.13,1.032 13.013,3.094c3.883,2.063 6.931,5.021 9.145,8.873c2.215,3.852 3.322,8.327 3.322,13.423Zm-25.389,-14.651c-3.216,0 -5.916,0.91 -8.1,2.73c-2.184,1.82 -3.518,4.307 -4.004,7.462l24.116,0c-0.486,-3.094 -1.82,-5.567 -4.004,-7.417c-2.184,-1.85 -4.854,-2.775 -8.008,-2.775Zm3.64,-29.394l15.288,0l-13.644,13.104l-11.102,0l9.458,-13.104Z" style="fill:#fff;fill-rule:nonzero;"/></g><path d="M322.415,287c12.882,0.183 24.403,12.137 23.559,25.351c-0.373,5.847 -2.977,11.484 -7.234,15.63l-6.884,6.634l29.515,30.267l29.514,-30.267c-3.628,-3.497 -7.654,-6.712 -10.295,-10.76c-8.469,-12.985 -0.395,-33.714 15.932,-36.513c12.545,-2.151 25.955,7.462 27.661,20.373c0.929,7.03 -1.498,14.401 -6.407,19.575c0,0 -6.837,7.013 -6.837,7.013c9.187,8.854 18.857,17.222 24.635,28.205c9.614,18.276 9.349,41.14 -0.146,59.562c-5.479,10.629 -12.677,20.359 -20.966,29.044l-0.394,0.41l-5.307,5.476l-10.153,-9.84c10.68,-11.02 21.137,-22.469 26.834,-37.223c6.914,-17.904 2.348,-39.542 -11.659,-53.257c0,0 -12.716,-12.254 -12.716,-12.254l-29.822,30.583c3.502,3.591 7.412,6.907 9.913,10.985c7.405,12.069 0.874,30.515 -13.624,34.506c-12.556,3.456 -27.148,-5.843 -29.117,-18.931c-1.048,-6.961 1.272,-14.318 6.188,-19.492c0,0 6.891,-7.068 6.891,-7.068l-29.819,-30.58c-8.182,7.89 -17.028,15.149 -22.093,24.887c-8.234,15.827 -6.227,35.434 3.018,51.188c4.346,7.404 9.642,14.227 15.536,20.461l0.71,0.741l5.285,5.46l-10.159,9.834c-12.515,-12.929 -24.666,-26.579 -30.72,-44.38c-7.659,-22.521 -1.58,-49.009 15.855,-66.06c3.659,-3.541 7.325,-7.074 10.989,-10.609l1.707,-1.646c-5.963,-6.115 -12.157,-12.236 -13.24,-20.33c-1.746,-13.053 8.813,-26.505 22.942,-26.966c0.303,-0.007 0.605,-0.01 0.908,-0.009Zm32.47,104.786c-5.015,5.185 -0.882,16.369 7.592,15.339c6.557,-0.797 10.532,-10.012 5.379,-15.339l-6.485,-6.651c-2.162,2.217 -4.324,4.434 -6.486,6.651Zm-32.801,-90.647c-7.419,0.102 -12.567,10.379 -6.901,16.378c0,0 6.802,6.975 6.802,6.975c4.999,-4.818 11.141,-9.531 9.638,-15.891c-0.98,-4.148 -4.956,-7.357 -9.249,-7.461c-0.097,-0.001 -0.193,-0.001 -0.29,-0.001Zm78.374,0c-4.226,0.06 -8.183,3.12 -9.275,7.202c-0.89,3.332 0.154,7.048 2.657,9.485l6.917,6.666c4.244,-4.352 9.599,-8.426 9.487,-13.881c-0.102,-5.001 -4.543,-9.495 -9.786,-9.472Z" style="fill:#fff;"/></g></svg>