<?xml version="1.0" encoding="UTF-8" standalone="no"?><!DOCTYPE svg PUBLIC "-//W3C//DTD SVG 1.1//EN" "http://www.w3.org/Graphics/SVG/1.1/DTD/svg11.dtd"><svg width="100%" height="100%" viewBox="0 0 900 600" version="1.1" xmlns="http://www.w3.org/2000/svg" xmlns:xlink="http://www.w3.org/1999/xlink" xml:space="preserve" xmlns:serif="http://www.serif.com/" style="fill-rule:evenodd;clip-rule:evenodd;stroke-linejoin:round;stroke-miterlimit:1.41421;"><rect id="logo-ruporno-en" x="0" y="0" width="900" height="600" style="fill:none;"/><g><path d="M406.314,331.677l-0.174,0.172l-0.239,0.065l-0.33,-0.122c-0.115,-0.084 -0.259,-0.172 -0.436,-0.268c-0.171,-0.094 -0.38,-0.182 -0.627,-0.264c-0.246,-0.082 -0.551,-0.125 -0.911,-0.125c-0.47,0 -0.888,0.086 -1.248,0.258c-0.36,0.168 -0.662,0.411 -0.901,0.725c-0.238,0.317 -0.421,0.7 -0.545,1.152c-0.125,0.455 -0.188,0.96 -0.188,1.525c0,0.582 0.065,1.104 0.198,1.558c0.131,0.456 0.317,0.841 0.561,1.152c0.243,0.309 0.535,0.547 0.884,0.707c0.348,0.159 0.735,0.241 1.16,0.241c0.416,0 0.753,-0.05 1.024,-0.152c0.267,-0.102 0.491,-0.211 0.669,-0.329c0.176,-0.119 0.323,-0.229 0.441,-0.329l0.366,-0.155c0.155,0 0.277,0.06 0.362,0.178l0.552,0.708c-0.23,0.285 -0.487,0.521 -0.773,0.717c-0.286,0.198 -0.588,0.359 -0.909,0.484c-0.32,0.126 -0.657,0.215 -1.007,0.273c-0.352,0.061 -0.708,0.089 -1.068,0.089c-0.623,0 -1.206,-0.111 -1.746,-0.343c-0.541,-0.23 -1.008,-0.564 -1.407,-1.004c-0.397,-0.439 -0.708,-0.977 -0.94,-1.618c-0.227,-0.639 -0.343,-1.364 -0.343,-2.177c0,-0.741 0.103,-1.428 0.31,-2.055c0.206,-0.63 0.511,-1.172 0.916,-1.629c0.402,-0.457 0.9,-0.811 1.487,-1.071c0.591,-0.258 1.267,-0.388 2.027,-0.388c0.716,0 1.346,0.114 1.89,0.341c0.543,0.232 1.028,0.556 1.455,0.976l-0.51,0.708Z" style="fill:#fff;fill-rule:nonzero;"/><path d="M412.803,338.444c0.945,0 1.65,-0.319 2.117,-0.956c0.462,-0.634 0.696,-1.529 0.696,-2.684c0,-1.152 -0.234,-2.051 -0.696,-2.689c-0.467,-0.64 -1.172,-0.959 -2.117,-0.959c-0.957,0 -1.671,0.319 -2.138,0.959c-0.469,0.638 -0.705,1.537 -0.705,2.689c0,1.155 0.236,2.05 0.705,2.684c0.467,0.637 1.181,0.956 2.138,0.956Zm0,-8.792c0.735,0 1.398,0.119 1.99,0.357c0.597,0.24 1.101,0.586 1.515,1.034c0.418,0.449 0.738,0.99 0.962,1.621c0.221,0.634 0.333,1.342 0.333,2.131c0,0.788 -0.112,1.498 -0.333,2.135c-0.224,0.635 -0.544,1.177 -0.962,1.623c-0.414,0.446 -0.918,0.786 -1.515,1.027c-0.592,0.238 -1.255,0.357 -1.99,0.357c-0.742,0 -1.407,-0.119 -2.002,-0.357c-0.594,-0.241 -1.1,-0.581 -1.517,-1.027c-0.421,-0.446 -0.745,-0.988 -0.971,-1.623c-0.226,-0.637 -0.339,-1.347 -0.339,-2.135c0,-0.789 0.113,-1.497 0.339,-2.131c0.226,-0.631 0.55,-1.172 0.971,-1.621c0.417,-0.448 0.923,-0.794 1.517,-1.034c0.595,-0.238 1.26,-0.357 2.002,-0.357Z" style="fill:#fff;fill-rule:nonzero;"/><path d="M428.049,329.806l0,9.995l-1.152,0c-0.263,0 -0.433,-0.128 -0.512,-0.385l-0.137,-1.003c-0.215,0.23 -0.441,0.439 -0.679,0.632c-0.237,0.189 -0.489,0.351 -0.758,0.484c-0.267,0.135 -0.553,0.241 -0.853,0.315c-0.303,0.076 -0.628,0.116 -0.976,0.116c-0.55,0 -1.034,-0.094 -1.45,-0.276c-0.418,-0.186 -0.766,-0.443 -1.047,-0.773c-0.283,-0.333 -0.497,-0.729 -0.64,-1.194c-0.146,-0.466 -0.217,-0.982 -0.217,-1.543l0,-6.368l1.928,0l0,6.368c0,0.711 0.163,1.269 0.492,1.665c0.326,0.397 0.829,0.595 1.506,0.595c0.489,0 0.951,-0.117 1.376,-0.349c0.427,-0.235 0.826,-0.554 1.2,-0.959l0,-7.32l1.919,0Z" style="fill:#fff;fill-rule:nonzero;"/><path d="M432.531,331.195c0.22,-0.23 0.446,-0.439 0.681,-0.628c0.235,-0.19 0.487,-0.354 0.751,-0.488c0.266,-0.135 0.552,-0.24 0.857,-0.316c0.304,-0.074 0.632,-0.111 0.977,-0.111c0.552,0 1.036,0.089 1.454,0.275c0.414,0.182 0.763,0.441 1.046,0.772c0.282,0.329 0.495,0.728 0.639,1.195c0.145,0.465 0.216,0.98 0.216,1.543l0,6.364l-1.928,0l0,-6.364c0,-0.714 -0.164,-1.27 -0.493,-1.665c-0.325,-0.399 -0.827,-0.597 -1.503,-0.597c-0.492,0 -0.952,0.116 -1.382,0.349c-0.43,0.232 -0.826,0.549 -1.194,0.948l0,7.329l-1.919,0l0,-9.995l1.151,0c0.269,0 0.437,0.13 0.501,0.384l0.146,1.005Z" style="fill:#fff;fill-rule:nonzero;"/><path d="M444.728,339.96c-0.804,0 -1.427,-0.23 -1.863,-0.68c-0.435,-0.454 -0.654,-1.098 -0.654,-1.939l0,-5.979l-1.16,0l-0.28,-0.102l-0.113,-0.309l0,-0.778l1.622,-0.227l0.433,-2.98l0.152,-0.261l0.291,-0.095l0.974,0l0,3.356l2.831,0l0,1.396l-2.831,0l0,5.852c0,0.395 0.096,0.688 0.289,0.88c0.193,0.195 0.441,0.289 0.744,0.289c0.174,0 0.329,-0.02 0.456,-0.066l0.329,-0.153l0.238,-0.152l0.175,-0.069l0.153,0.041l0.113,0.146l0.572,0.924c-0.317,0.288 -0.69,0.512 -1.121,0.667c-0.435,0.159 -0.885,0.239 -1.35,0.239Z" style="fill:#fff;fill-rule:nonzero;"/><path d="M455.284,333.692c0,-0.379 -0.056,-0.73 -0.164,-1.051c-0.108,-0.324 -0.266,-0.6 -0.478,-0.837c-0.208,-0.235 -0.465,-0.419 -0.765,-0.549c-0.303,-0.133 -0.651,-0.196 -1.042,-0.196c-0.807,0 -1.441,0.232 -1.905,0.696c-0.461,0.465 -0.756,1.111 -0.881,1.937l5.235,0Zm1.582,4.682c-0.235,0.277 -0.509,0.513 -0.816,0.713c-0.308,0.199 -0.638,0.363 -0.985,0.488c-0.345,0.126 -0.705,0.215 -1.075,0.273c-0.371,0.061 -0.738,0.089 -1.098,0.089c-0.689,0 -1.325,-0.114 -1.911,-0.348c-0.589,-0.233 -1.098,-0.573 -1.525,-1.023c-0.429,-0.449 -0.766,-1.005 -1.003,-1.672c-0.241,-0.663 -0.36,-1.428 -0.36,-2.296c0,-0.694 0.106,-1.342 0.326,-1.943c0.216,-0.602 0.526,-1.121 0.929,-1.568c0.404,-0.447 0.895,-0.797 1.48,-1.052c0.583,-0.256 1.238,-0.383 1.965,-0.383c0.611,0 1.172,0.099 1.689,0.298c0.513,0.2 0.958,0.492 1.333,0.871c0.371,0.382 0.667,0.849 0.879,1.407c0.214,0.556 0.319,1.192 0.319,1.908c0,0.297 -0.031,0.493 -0.099,0.597c-0.065,0.099 -0.184,0.151 -0.362,0.151l-6.551,0c0.02,0.597 0.105,1.115 0.255,1.557c0.151,0.444 0.36,0.812 0.626,1.107c0.264,0.297 0.581,0.514 0.949,0.659c0.367,0.147 0.775,0.218 1.23,0.218c0.423,0 0.794,-0.051 1.107,-0.148c0.309,-0.099 0.578,-0.204 0.804,-0.32c0.227,-0.115 0.417,-0.222 0.57,-0.319c0.155,-0.099 0.291,-0.15 0.41,-0.15c0.158,0 0.278,0.06 0.363,0.178l0.551,0.708Z" style="fill:#fff;fill-rule:nonzero;"/><path d="M460.889,331.727c0.322,-0.657 0.708,-1.171 1.16,-1.545c0.453,-0.376 0.996,-0.56 1.633,-0.56c0.215,0 0.422,0.024 0.614,0.072c0.194,0.051 0.361,0.125 0.507,0.224l-0.129,1.444c-0.044,0.176 -0.153,0.264 -0.323,0.264c-0.091,0 -0.23,-0.017 -0.413,-0.052c-0.185,-0.036 -0.382,-0.054 -0.59,-0.054c-0.308,0 -0.582,0.044 -0.817,0.131c-0.235,0.088 -0.447,0.221 -0.634,0.394c-0.187,0.175 -0.354,0.387 -0.498,0.642c-0.143,0.252 -0.278,0.537 -0.403,0.858l0,6.256l-1.917,0l0,-9.995l1.101,0c0.211,0 0.354,0.039 0.428,0.116c0.076,0.075 0.128,0.206 0.162,0.396l0.119,1.409Z" style="fill:#fff;fill-rule:nonzero;"/><path d="M471.503,335.365c-0.781,0.028 -1.445,0.088 -1.989,0.181c-0.543,0.096 -0.988,0.224 -1.328,0.379c-0.34,0.159 -0.586,0.343 -0.738,0.558c-0.15,0.21 -0.225,0.448 -0.225,0.713c0,0.247 0.041,0.462 0.122,0.643c0.082,0.181 0.195,0.328 0.337,0.442c0.139,0.115 0.304,0.2 0.495,0.252c0.191,0.053 0.399,0.078 0.618,0.078c0.295,0 0.568,-0.03 0.812,-0.087c0.247,-0.06 0.478,-0.145 0.694,-0.252c0.217,-0.108 0.422,-0.24 0.62,-0.399c0.196,-0.156 0.391,-0.337 0.582,-0.54l0,-1.968Zm-5.627,-4.159c0.556,-0.532 1.163,-0.928 1.815,-1.192c0.651,-0.263 1.368,-0.392 2.149,-0.392c0.569,0 1.073,0.095 1.513,0.279c0.439,0.187 0.811,0.448 1.111,0.782c0.303,0.334 0.532,0.735 0.685,1.202c0.153,0.465 0.231,0.978 0.231,1.543l0,6.373l-0.855,0c-0.191,0 -0.334,-0.031 -0.432,-0.093c-0.099,-0.063 -0.178,-0.179 -0.238,-0.349l-0.207,-0.875c-0.255,0.233 -0.507,0.444 -0.756,0.623c-0.249,0.179 -0.509,0.334 -0.783,0.464c-0.272,0.127 -0.561,0.222 -0.869,0.289c-0.31,0.065 -0.651,0.1 -1.023,0.1c-0.395,0 -0.764,-0.055 -1.107,-0.165c-0.344,-0.107 -0.644,-0.272 -0.9,-0.496c-0.255,-0.225 -0.456,-0.501 -0.606,-0.835c-0.146,-0.334 -0.22,-0.725 -0.22,-1.171c0,-0.393 0.105,-0.773 0.319,-1.136c0.213,-0.365 0.562,-0.69 1.042,-0.979c0.482,-0.288 1.112,-0.526 1.889,-0.708c0.776,-0.183 1.732,-0.289 2.869,-0.314l0,-0.728c0,-0.753 -0.163,-1.318 -0.484,-1.693c-0.322,-0.373 -0.792,-0.56 -1.417,-0.56c-0.417,0 -0.77,0.052 -1.056,0.158c-0.286,0.105 -0.532,0.222 -0.737,0.349c-0.208,0.127 -0.387,0.244 -0.543,0.349c-0.153,0.106 -0.312,0.158 -0.476,0.158l-0.337,-0.108l-0.234,-0.257l-0.343,-0.618Z" style="fill:#fff;fill-rule:nonzero;"/><path d="M482.96,331.677l-0.172,0.172l-0.241,0.065l-0.329,-0.122c-0.115,-0.084 -0.258,-0.172 -0.435,-0.268c-0.173,-0.094 -0.38,-0.182 -0.629,-0.264c-0.244,-0.082 -0.549,-0.125 -0.909,-0.125c-0.472,0 -0.889,0.086 -1.249,0.258c-0.359,0.168 -0.661,0.411 -0.9,0.725c-0.239,0.317 -0.421,0.7 -0.546,1.152c-0.124,0.455 -0.187,0.96 -0.187,1.525c0,0.582 0.065,1.104 0.198,1.558c0.131,0.456 0.317,0.841 0.561,1.152c0.243,0.309 0.535,0.547 0.884,0.707c0.348,0.159 0.735,0.241 1.16,0.241c0.414,0 0.753,-0.05 1.022,-0.152c0.269,-0.102 0.493,-0.211 0.671,-0.329c0.176,-0.119 0.323,-0.229 0.441,-0.329l0.365,-0.155c0.156,0 0.28,0.06 0.363,0.178l0.552,0.708c-0.23,0.285 -0.487,0.521 -0.773,0.717c-0.286,0.198 -0.589,0.359 -0.911,0.484c-0.318,0.126 -0.654,0.215 -1.005,0.273c-0.352,0.061 -0.708,0.089 -1.068,0.089c-0.623,0 -1.206,-0.111 -1.746,-0.343c-0.541,-0.23 -1.01,-0.564 -1.407,-1.004c-0.397,-0.439 -0.708,-0.977 -0.94,-1.618c-0.227,-0.639 -0.343,-1.364 -0.343,-2.177c0,-0.741 0.103,-1.428 0.31,-2.055c0.206,-0.63 0.511,-1.172 0.914,-1.629c0.404,-0.457 0.9,-0.811 1.489,-1.071c0.591,-0.258 1.267,-0.388 2.027,-0.388c0.716,0 1.346,0.114 1.89,0.341c0.543,0.232 1.028,0.556 1.455,0.976l-0.512,0.708Z" style="fill:#fff;fill-rule:nonzero;"/><path d="M495.274,326.661c0,0.175 -0.035,0.347 -0.108,0.506c-0.074,0.162 -0.17,0.301 -0.291,0.424c-0.122,0.12 -0.263,0.215 -0.427,0.284c-0.165,0.068 -0.337,0.105 -0.511,0.105c-0.178,0 -0.347,-0.037 -0.503,-0.105c-0.158,-0.069 -0.297,-0.164 -0.417,-0.284c-0.122,-0.123 -0.218,-0.262 -0.286,-0.424c-0.07,-0.159 -0.104,-0.331 -0.104,-0.506c0,-0.185 0.034,-0.357 0.104,-0.521c0.068,-0.165 0.164,-0.307 0.286,-0.43c0.12,-0.119 0.259,-0.216 0.417,-0.284c0.156,-0.07 0.325,-0.102 0.503,-0.102c0.174,0 0.346,0.032 0.511,0.102c0.164,0.068 0.305,0.165 0.427,0.284c0.121,0.123 0.217,0.265 0.291,0.43c0.073,0.164 0.108,0.336 0.108,0.521Zm-0.434,13.14l-1.927,0l0,-8.439l-5.016,0l0,5.852c0,0.395 0.096,0.688 0.289,0.88c0.194,0.195 0.441,0.289 0.744,0.289c0.176,0 0.329,-0.02 0.456,-0.066l0.329,-0.153l0.237,-0.152l0.176,-0.069l0.153,0.041l0.115,0.146l0.57,0.924c-0.317,0.288 -0.689,0.512 -1.121,0.667c-0.434,0.159 -0.884,0.239 -1.349,0.239c-0.806,0 -1.426,-0.23 -1.864,-0.68c-0.434,-0.454 -0.652,-1.098 -0.652,-1.939l0,-5.979l-1.16,0l-0.283,-0.102l-0.111,-0.309l0,-0.778l1.633,-0.227l0.422,-2.98l0.151,-0.261l0.291,-0.095l0.974,0l0,3.356l6.943,0l0,9.835Z" style="fill:#fff;fill-rule:nonzero;"/><path d="M499.423,331.195c0.216,-0.23 0.442,-0.439 0.68,-0.628c0.235,-0.19 0.486,-0.354 0.751,-0.488c0.268,-0.135 0.551,-0.24 0.856,-0.316c0.304,-0.074 0.632,-0.111 0.98,-0.111c0.549,0 1.034,0.089 1.45,0.275c0.415,0.182 0.766,0.441 1.045,0.772c0.285,0.329 0.497,0.728 0.641,1.195c0.143,0.465 0.218,0.98 0.218,1.543l0,6.364l-1.929,0l0,-6.364c0,-0.714 -0.165,-1.27 -0.491,-1.665c-0.33,-0.399 -0.832,-0.597 -1.506,-0.597c-0.492,0 -0.951,0.116 -1.381,0.349c-0.43,0.232 -0.829,0.549 -1.195,0.948l0,7.329l-1.919,0l0,-9.995l1.152,0c0.269,0 0.434,0.13 0.502,0.384l0.146,1.005Z" style="fill:#fff;fill-rule:nonzero;"/><path d="M512.14,334.815c0.342,0 0.642,-0.048 0.902,-0.138c0.258,-0.091 0.475,-0.221 0.648,-0.39c0.174,-0.165 0.304,-0.366 0.392,-0.604c0.09,-0.235 0.133,-0.495 0.133,-0.776c0,-0.579 -0.174,-1.038 -0.525,-1.383c-0.351,-0.343 -0.868,-0.516 -1.55,-0.516c-0.675,0 -1.189,0.173 -1.54,0.516c-0.349,0.345 -0.524,0.804 -0.524,1.383c0,0.281 0.042,0.538 0.132,0.77c0.088,0.235 0.221,0.434 0.392,0.601c0.174,0.167 0.393,0.297 0.65,0.394c0.26,0.095 0.556,0.143 0.89,0.143Zm3.06,5.507c0,-0.235 -0.065,-0.425 -0.198,-0.564c-0.131,-0.142 -0.309,-0.255 -0.535,-0.337c-0.225,-0.082 -0.49,-0.139 -0.793,-0.175c-0.3,-0.037 -0.617,-0.065 -0.948,-0.083c-0.33,-0.021 -0.669,-0.039 -1.017,-0.056c-0.349,-0.017 -0.683,-0.048 -1.005,-0.094c-0.34,0.171 -0.622,0.378 -0.84,0.62c-0.221,0.242 -0.329,0.528 -0.329,0.858c0,0.207 0.053,0.405 0.161,0.587c0.108,0.186 0.277,0.344 0.502,0.478c0.226,0.135 0.512,0.24 0.857,0.314c0.343,0.077 0.754,0.113 1.234,0.113c0.471,0 0.889,-0.04 1.249,-0.122c0.36,-0.081 0.664,-0.197 0.911,-0.342c0.244,-0.15 0.431,-0.325 0.558,-0.527c0.128,-0.204 0.193,-0.429 0.193,-0.67Zm1.947,-10.14l0,0.718c0,0.235 -0.147,0.383 -0.442,0.442l-1.073,0.158c0.091,0.204 0.164,0.419 0.216,0.643c0.053,0.227 0.079,0.464 0.079,0.714c0,0.492 -0.093,0.936 -0.286,1.331c-0.189,0.398 -0.451,0.738 -0.785,1.019c-0.336,0.283 -0.732,0.5 -1.196,0.65c-0.462,0.15 -0.968,0.227 -1.52,0.227c-0.451,0 -0.873,-0.049 -1.268,-0.15c-0.196,0.118 -0.344,0.247 -0.448,0.39c-0.102,0.142 -0.151,0.281 -0.151,0.419c0,0.229 0.095,0.399 0.29,0.51c0.192,0.113 0.444,0.193 0.756,0.24c0.313,0.051 0.67,0.082 1.073,0.094c0.404,0.014 0.812,0.036 1.23,0.065c0.416,0.028 0.827,0.08 1.229,0.158c0.403,0.075 0.759,0.194 1.071,0.363c0.313,0.169 0.565,0.396 0.757,0.69c0.194,0.289 0.29,0.669 0.29,1.135c0,0.431 -0.105,0.853 -0.32,1.258c-0.213,0.405 -0.522,0.769 -0.929,1.083c-0.405,0.315 -0.9,0.567 -1.483,0.756c-0.583,0.19 -1.246,0.287 -1.988,0.287c-0.739,0 -1.386,-0.072 -1.933,-0.216c-0.548,-0.146 -1.002,-0.34 -1.367,-0.582c-0.365,-0.242 -0.637,-0.524 -0.816,-0.845c-0.181,-0.322 -0.273,-0.656 -0.273,-1.004c0,-0.485 0.154,-0.895 0.455,-1.234c0.3,-0.338 0.719,-0.601 1.248,-0.793c-0.288,-0.13 -0.518,-0.309 -0.688,-0.535c-0.17,-0.226 -0.254,-0.526 -0.254,-0.901c0,-0.143 0.026,-0.293 0.077,-0.447c0.052,-0.152 0.133,-0.306 0.242,-0.463c0.108,-0.153 0.242,-0.298 0.403,-0.437c0.161,-0.136 0.347,-0.262 0.555,-0.373c-0.493,-0.275 -0.879,-0.64 -1.161,-1.096c-0.28,-0.456 -0.422,-0.988 -0.422,-1.599c0,-0.492 0.094,-0.934 0.286,-1.328c0.189,-0.394 0.453,-0.73 0.79,-1.014c0.339,-0.28 0.742,-0.497 1.209,-0.648c0.47,-0.15 0.984,-0.226 1.54,-0.226c0.868,0 1.612,0.181 2.233,0.541l2.774,0Z" style="fill:#fff;fill-rule:nonzero;"/><path d="M528.26,332.484c0.538,0 1.011,-0.066 1.422,-0.196c0.41,-0.133 0.753,-0.317 1.027,-0.558c0.277,-0.238 0.482,-0.523 0.62,-0.854c0.139,-0.332 0.206,-0.695 0.206,-1.097c0,-0.814 -0.266,-1.428 -0.801,-1.84c-0.534,-0.413 -1.336,-0.619 -2.405,-0.619l-1.976,0l0,5.164l1.907,0Zm6.591,7.317l-1.869,0c-0.373,0 -0.646,-0.147 -0.818,-0.442l-3.491,-4.898c-0.11,-0.163 -0.234,-0.282 -0.362,-0.35c-0.132,-0.068 -0.33,-0.105 -0.591,-0.105l-1.367,0l0,5.795l-2.096,0l0,-14.125l4.072,0c0.914,0 1.698,0.095 2.357,0.282c0.657,0.187 1.201,0.451 1.633,0.798c0.429,0.341 0.746,0.757 0.952,1.243c0.207,0.485 0.311,1.03 0.311,1.633c0,0.491 -0.076,0.952 -0.226,1.385c-0.151,0.433 -0.372,0.821 -0.663,1.166c-0.292,0.345 -0.648,0.642 -1.069,0.891c-0.42,0.249 -0.896,0.439 -1.427,0.57c0.263,0.156 0.49,0.377 0.681,0.659l3.973,5.498Z" style="fill:#fff;fill-rule:nonzero;"/><path d="M544.175,329.806l0,9.995l-1.152,0c-0.261,0 -0.433,-0.128 -0.513,-0.385l-0.135,-1.003c-0.218,0.23 -0.442,0.439 -0.68,0.632c-0.235,0.189 -0.487,0.351 -0.758,0.484c-0.267,0.135 -0.553,0.241 -0.853,0.315c-0.303,0.076 -0.628,0.116 -0.976,0.116c-0.55,0 -1.036,-0.094 -1.45,-0.276c-0.419,-0.186 -0.766,-0.443 -1.047,-0.773c-0.283,-0.333 -0.496,-0.729 -0.64,-1.194c-0.146,-0.466 -0.217,-0.982 -0.217,-1.543l0,-6.368l1.928,0l0,6.368c0,0.711 0.163,1.269 0.492,1.665c0.326,0.397 0.829,0.595 1.506,0.595c0.49,0 0.951,-0.117 1.376,-0.349c0.427,-0.235 0.826,-0.554 1.2,-0.959l0,-7.32l1.919,0Z" style="fill:#fff;fill-rule:nonzero;"/><path d="M552.75,331.529l-0.165,0.182l-0.226,0.056l-0.351,-0.108c-0.127,-0.074 -0.28,-0.152 -0.461,-0.238c-0.179,-0.084 -0.394,-0.163 -0.637,-0.235c-0.242,-0.073 -0.53,-0.109 -0.864,-0.109c-0.275,0 -0.526,0.034 -0.751,0.104c-0.228,0.07 -0.418,0.162 -0.577,0.286c-0.155,0.119 -0.277,0.263 -0.365,0.431c-0.084,0.166 -0.127,0.347 -0.127,0.537c0,0.249 0.074,0.455 0.221,0.618c0.149,0.163 0.342,0.305 0.582,0.423c0.239,0.119 0.51,0.225 0.816,0.318c0.305,0.098 0.617,0.198 0.934,0.302c0.319,0.105 0.629,0.225 0.934,0.36c0.305,0.134 0.578,0.301 0.816,0.501c0.24,0.199 0.432,0.441 0.582,0.723c0.147,0.282 0.221,0.627 0.221,1.033c0,0.466 -0.085,0.896 -0.251,1.291c-0.167,0.399 -0.413,0.741 -0.739,1.03c-0.324,0.289 -0.725,0.515 -1.203,0.679c-0.481,0.162 -1.028,0.247 -1.642,0.247c-0.689,0 -1.326,-0.116 -1.909,-0.346c-0.583,-0.229 -1.072,-0.523 -1.465,-0.874l0.452,-0.74l0.196,-0.212l0.316,-0.071l0.383,0.136c0.13,0.091 0.288,0.192 0.47,0.301c0.186,0.107 0.408,0.206 0.67,0.294c0.263,0.09 0.592,0.133 0.985,0.133c0.327,0 0.612,-0.04 0.855,-0.122c0.242,-0.082 0.443,-0.195 0.604,-0.334c0.161,-0.142 0.282,-0.305 0.359,-0.487c0.079,-0.186 0.121,-0.377 0.121,-0.581c0,-0.262 -0.076,-0.481 -0.225,-0.654c-0.147,-0.172 -0.34,-0.324 -0.578,-0.449c-0.24,-0.122 -0.515,-0.23 -0.821,-0.325c-0.309,-0.091 -0.625,-0.188 -0.946,-0.293c-0.32,-0.105 -0.634,-0.228 -0.943,-0.364c-0.308,-0.137 -0.582,-0.312 -0.823,-0.521c-0.237,-0.21 -0.431,-0.467 -0.578,-0.768c-0.149,-0.3 -0.223,-0.667 -0.223,-1.101c0,-0.388 0.082,-0.758 0.243,-1.11c0.161,-0.356 0.393,-0.665 0.699,-0.936c0.304,-0.269 0.682,-0.484 1.13,-0.645c0.448,-0.16 0.96,-0.239 1.538,-0.239c0.661,0 1.262,0.105 1.794,0.314c0.537,0.208 0.993,0.499 1.375,0.862l-0.426,0.701Z" style="fill:#fff;fill-rule:nonzero;"/><path d="M561.298,331.529l-0.167,0.182l-0.226,0.056l-0.349,-0.108c-0.129,-0.074 -0.283,-0.152 -0.463,-0.238c-0.18,-0.084 -0.391,-0.163 -0.633,-0.235c-0.243,-0.073 -0.531,-0.109 -0.865,-0.109c-0.277,0 -0.529,0.034 -0.754,0.104c-0.226,0.07 -0.418,0.162 -0.574,0.286c-0.158,0.119 -0.281,0.263 -0.365,0.431c-0.087,0.166 -0.127,0.347 -0.127,0.537c0,0.249 0.071,0.455 0.221,0.618c0.146,0.163 0.341,0.305 0.58,0.423c0.238,0.119 0.512,0.225 0.818,0.318c0.305,0.098 0.614,0.198 0.934,0.302c0.317,0.105 0.628,0.225 0.934,0.36c0.305,0.134 0.575,0.301 0.815,0.501c0.238,0.199 0.433,0.441 0.58,0.723c0.148,0.282 0.222,0.627 0.222,1.033c0,0.466 -0.083,0.896 -0.252,1.291c-0.168,0.399 -0.413,0.741 -0.737,1.03c-0.323,0.289 -0.727,0.515 -1.205,0.679c-0.478,0.162 -1.025,0.247 -1.642,0.247c-0.689,0 -1.323,-0.116 -1.906,-0.346c-0.586,-0.229 -1.075,-0.523 -1.468,-0.874l0.453,-0.74l0.198,-0.212l0.314,-0.071l0.382,0.136c0.131,0.091 0.288,0.192 0.473,0.301c0.183,0.107 0.405,0.206 0.668,0.294c0.265,0.09 0.591,0.133 0.984,0.133c0.329,0 0.612,-0.04 0.855,-0.122c0.242,-0.082 0.443,-0.195 0.604,-0.334c0.163,-0.142 0.282,-0.305 0.36,-0.487c0.081,-0.186 0.118,-0.377 0.118,-0.581c0,-0.262 -0.073,-0.481 -0.22,-0.654c-0.148,-0.172 -0.341,-0.324 -0.581,-0.449c-0.24,-0.122 -0.515,-0.23 -0.821,-0.325c-0.308,-0.091 -0.622,-0.188 -0.945,-0.293c-0.321,-0.105 -0.635,-0.228 -0.943,-0.364c-0.309,-0.137 -0.583,-0.312 -0.821,-0.521c-0.24,-0.21 -0.434,-0.467 -0.581,-0.768c-0.147,-0.3 -0.221,-0.667 -0.221,-1.101c0,-0.388 0.078,-0.758 0.241,-1.11c0.161,-0.356 0.392,-0.665 0.699,-0.936c0.304,-0.269 0.68,-0.484 1.13,-0.645c0.448,-0.16 0.963,-0.239 1.54,-0.239c0.662,0 1.26,0.105 1.795,0.314c0.534,0.208 0.991,0.499 1.372,0.862l-0.424,0.701Z" style="fill:#fff;fill-rule:nonzero;"/><path d="M565.96,329.806l0,9.995l-1.919,0l0,-9.995l1.919,0Zm0.365,-3.087c0,0.179 -0.039,0.346 -0.112,0.507c-0.071,0.161 -0.167,0.303 -0.287,0.422c-0.122,0.122 -0.265,0.218 -0.43,0.286c-0.164,0.069 -0.334,0.104 -0.512,0.104c-0.175,0 -0.343,-0.035 -0.498,-0.104c-0.159,-0.068 -0.298,-0.164 -0.419,-0.286c-0.122,-0.119 -0.218,-0.261 -0.286,-0.422c-0.069,-0.161 -0.102,-0.328 -0.102,-0.507c0,-0.183 0.033,-0.355 0.102,-0.517c0.068,-0.159 0.164,-0.3 0.286,-0.422c0.121,-0.119 0.26,-0.216 0.419,-0.286c0.155,-0.068 0.323,-0.102 0.498,-0.102c0.178,0 0.348,0.034 0.512,0.102c0.165,0.07 0.308,0.167 0.43,0.286c0.12,0.122 0.216,0.263 0.287,0.422c0.073,0.162 0.112,0.334 0.112,0.517Z" style="fill:#fff;fill-rule:nonzero;"/><path d="M574.115,335.365c-0.781,0.028 -1.445,0.088 -1.989,0.181c-0.543,0.096 -0.986,0.224 -1.328,0.379c-0.342,0.159 -0.586,0.343 -0.738,0.558c-0.151,0.21 -0.225,0.448 -0.225,0.713c0,0.247 0.041,0.462 0.123,0.643c0.081,0.181 0.194,0.328 0.336,0.442c0.139,0.115 0.305,0.2 0.495,0.252c0.191,0.053 0.397,0.078 0.62,0.078c0.294,0 0.566,-0.03 0.81,-0.087c0.247,-0.06 0.479,-0.145 0.694,-0.252c0.217,-0.108 0.424,-0.24 0.62,-0.399c0.197,-0.156 0.391,-0.337 0.582,-0.54l0,-1.968Zm-5.627,-4.159c0.557,-0.532 1.163,-0.928 1.815,-1.192c0.651,-0.263 1.369,-0.392 2.149,-0.392c0.569,0 1.074,0.095 1.513,0.279c0.44,0.187 0.811,0.448 1.113,0.782c0.301,0.334 0.53,0.735 0.683,1.202c0.155,0.465 0.231,0.978 0.231,1.543l0,6.373l-0.855,0c-0.189,0 -0.334,-0.031 -0.432,-0.093c-0.099,-0.063 -0.178,-0.179 -0.238,-0.349l-0.207,-0.875c-0.254,0.233 -0.506,0.444 -0.756,0.623c-0.249,0.179 -0.509,0.334 -0.783,0.464c-0.272,0.127 -0.562,0.222 -0.868,0.289c-0.311,0.065 -0.651,0.1 -1.024,0.1c-0.393,0 -0.764,-0.055 -1.107,-0.165c-0.343,-0.107 -0.643,-0.272 -0.9,-0.496c-0.255,-0.225 -0.456,-0.501 -0.605,-0.835c-0.147,-0.334 -0.221,-0.725 -0.221,-1.171c0,-0.393 0.105,-0.773 0.319,-1.136c0.213,-0.365 0.563,-0.69 1.042,-0.979c0.482,-0.288 1.112,-0.526 1.891,-0.708c0.775,-0.183 1.73,-0.289 2.867,-0.314l0,-0.728c0,-0.753 -0.161,-1.318 -0.483,-1.693c-0.321,-0.373 -0.793,-0.56 -1.416,-0.56c-0.419,0 -0.772,0.052 -1.058,0.158c-0.286,0.105 -0.53,0.222 -0.737,0.349c-0.206,0.127 -0.387,0.244 -0.543,0.349c-0.153,0.106 -0.312,0.158 -0.475,0.158l-0.338,-0.108l-0.234,-0.257l-0.343,-0.618Z" style="fill:#fff;fill-rule:nonzero;"/><path d="M580.369,331.195c0.217,-0.23 0.442,-0.439 0.68,-0.628c0.235,-0.19 0.484,-0.354 0.752,-0.488c0.266,-0.135 0.549,-0.24 0.853,-0.316c0.307,-0.074 0.633,-0.111 0.981,-0.111c0.55,0 1.036,0.089 1.45,0.275c0.416,0.182 0.767,0.441 1.048,0.772c0.283,0.329 0.494,0.728 0.639,1.195c0.142,0.465 0.218,0.98 0.218,1.543l0,6.364l-1.928,0l0,-6.364c0,-0.714 -0.166,-1.27 -0.493,-1.665c-0.33,-0.399 -0.831,-0.597 -1.505,-0.597c-0.493,0 -0.952,0.116 -1.381,0.349c-0.429,0.232 -0.828,0.549 -1.196,0.948l0,7.329l-1.919,0l0,-9.995l1.153,0c0.269,0 0.435,0.13 0.501,0.384l0.147,1.005Z" style="fill:#fff;fill-rule:nonzero;"/><path d="M596.461,337.341c0.314,0.415 0.652,0.702 1.017,0.866c0.363,0.164 0.77,0.246 1.225,0.246c0.876,0 1.558,-0.316 2.039,-0.948c0.483,-0.632 0.722,-1.555 0.722,-2.768c0,-0.637 -0.052,-1.179 -0.161,-1.628c-0.108,-0.45 -0.266,-0.816 -0.473,-1.102c-0.205,-0.286 -0.46,-0.495 -0.76,-0.63c-0.303,-0.134 -0.644,-0.202 -1.024,-0.202c-0.557,0 -1.042,0.125 -1.45,0.372c-0.412,0.249 -0.791,0.607 -1.135,1.064l0,4.73Zm-0.099,-6.038c0.208,-0.25 0.434,-0.478 0.672,-0.683c0.24,-0.207 0.497,-0.382 0.773,-0.532c0.274,-0.147 0.569,-0.262 0.879,-0.343c0.312,-0.081 0.646,-0.123 0.999,-0.123c0.572,0 1.088,0.11 1.549,0.334c0.464,0.225 0.856,0.549 1.186,0.985c0.326,0.432 0.581,0.965 0.761,1.601c0.18,0.637 0.272,1.367 0.272,2.195c0,0.739 -0.101,1.426 -0.3,2.06c-0.2,0.631 -0.486,1.183 -0.855,1.647c-0.373,0.467 -0.824,0.83 -1.359,1.094c-0.534,0.268 -1.137,0.399 -1.803,0.399c-0.599,0 -1.111,-0.097 -1.536,-0.294c-0.427,-0.194 -0.805,-0.471 -1.139,-0.827l0,4.339l-1.919,0l0,-13.349l1.15,0c0.268,0 0.436,0.13 0.501,0.384l0.169,1.113Z" style="fill:#fff;fill-rule:nonzero;"/><path d="M607.417,331.727c0.319,-0.657 0.707,-1.171 1.16,-1.545c0.451,-0.376 0.997,-0.56 1.633,-0.56c0.216,0 0.42,0.024 0.615,0.072c0.192,0.051 0.362,0.125 0.506,0.224l-0.127,1.444c-0.048,0.176 -0.156,0.264 -0.326,0.264c-0.092,0 -0.229,-0.017 -0.415,-0.052c-0.181,-0.036 -0.379,-0.054 -0.587,-0.054c-0.31,0 -0.582,0.044 -0.817,0.131c-0.238,0.088 -0.448,0.221 -0.635,0.394c-0.186,0.175 -0.351,0.387 -0.495,0.642c-0.147,0.252 -0.281,0.537 -0.404,0.858l0,6.256l-1.918,0l0,-9.995l1.102,0c0.209,0 0.351,0.039 0.427,0.116c0.074,0.075 0.13,0.206 0.161,0.396l0.12,1.409Z" style="fill:#fff;fill-rule:nonzero;"/><path d="M616.701,338.444c0.943,0 1.648,-0.319 2.115,-0.956c0.464,-0.634 0.696,-1.529 0.696,-2.684c0,-1.152 -0.232,-2.051 -0.696,-2.689c-0.467,-0.64 -1.172,-0.959 -2.115,-0.959c-0.959,0 -1.672,0.319 -2.14,0.959c-0.469,0.638 -0.704,1.537 -0.704,2.689c0,1.155 0.235,2.05 0.704,2.684c0.468,0.637 1.181,0.956 2.14,0.956Zm0,-8.792c0.734,0 1.396,0.119 1.99,0.357c0.595,0.24 1.099,0.586 1.515,1.034c0.418,0.449 0.738,0.99 0.96,1.621c0.221,0.634 0.334,1.342 0.334,2.131c0,0.788 -0.113,1.498 -0.334,2.135c-0.222,0.635 -0.542,1.177 -0.96,1.623c-0.416,0.446 -0.92,0.786 -1.515,1.027c-0.594,0.238 -1.256,0.357 -1.99,0.357c-0.742,0 -1.409,-0.119 -2.003,-0.357c-0.593,-0.241 -1.101,-0.581 -1.518,-1.027c-0.421,-0.446 -0.744,-0.988 -0.969,-1.623c-0.226,-0.637 -0.339,-1.347 -0.339,-2.135c0,-0.789 0.113,-1.497 0.339,-2.131c0.225,-0.631 0.548,-1.172 0.969,-1.621c0.417,-0.448 0.925,-0.794 1.518,-1.034c0.594,-0.238 1.261,-0.357 2.003,-0.357Z" style="fill:#fff;fill-rule:nonzero;"/><path d="M625.551,337.341c0.314,0.415 0.656,0.702 1.018,0.866c0.365,0.164 0.773,0.246 1.224,0.246c0.88,0 1.559,-0.316 2.041,-0.948c0.484,-0.632 0.724,-1.555 0.724,-2.768c0,-0.637 -0.056,-1.179 -0.164,-1.628c-0.108,-0.45 -0.263,-0.816 -0.47,-1.102c-0.207,-0.286 -0.462,-0.495 -0.764,-0.63c-0.3,-0.134 -0.64,-0.202 -1.022,-0.202c-0.558,0 -1.04,0.125 -1.45,0.372c-0.41,0.249 -0.789,0.607 -1.137,1.064l0,4.73Zm-0.099,-6.038c0.212,-0.25 0.435,-0.478 0.676,-0.683c0.238,-0.207 0.496,-0.382 0.77,-0.532c0.275,-0.147 0.569,-0.262 0.881,-0.343c0.313,-0.081 0.644,-0.123 0.999,-0.123c0.569,0 1.086,0.11 1.55,0.334c0.46,0.225 0.856,0.549 1.182,0.985c0.33,0.432 0.585,0.965 0.764,1.601c0.181,0.637 0.269,1.367 0.269,2.195c0,0.739 -0.097,1.426 -0.3,2.06c-0.199,0.631 -0.485,1.183 -0.855,1.647c-0.369,0.467 -0.824,0.83 -1.356,1.094c-0.536,0.268 -1.136,0.399 -1.806,0.399c-0.595,0 -1.107,-0.097 -1.535,-0.294c-0.424,-0.194 -0.806,-0.471 -1.14,-0.827l0,4.339l-1.919,0l0,-13.349l1.154,0c0.267,0 0.434,0.13 0.501,0.384l0.165,1.113Z" style="fill:#fff;fill-rule:nonzero;"/><path d="M640.069,335.365c-0.781,0.028 -1.443,0.088 -1.989,0.181c-0.542,0.096 -0.986,0.224 -1.328,0.379c-0.34,0.159 -0.586,0.343 -0.736,0.558c-0.151,0.21 -0.226,0.448 -0.226,0.713c0,0.247 0.041,0.462 0.123,0.643c0.082,0.181 0.194,0.328 0.337,0.442c0.137,0.115 0.303,0.2 0.493,0.252c0.192,0.053 0.399,0.078 0.62,0.078c0.295,0 0.567,-0.03 0.812,-0.087c0.247,-0.06 0.478,-0.145 0.692,-0.252c0.218,-0.108 0.424,-0.24 0.62,-0.399c0.198,-0.156 0.392,-0.337 0.582,-0.54l0,-1.968Zm-5.625,-4.159c0.556,-0.532 1.161,-0.928 1.813,-1.192c0.651,-0.263 1.37,-0.392 2.151,-0.392c0.569,0 1.072,0.095 1.512,0.279c0.44,0.187 0.812,0.448 1.112,0.782c0.303,0.334 0.531,0.735 0.685,1.202c0.153,0.465 0.231,0.978 0.231,1.543l0,6.373l-0.856,0c-0.19,0 -0.334,-0.031 -0.432,-0.093c-0.098,-0.063 -0.178,-0.179 -0.239,-0.349l-0.205,-0.875c-0.255,0.233 -0.507,0.444 -0.756,0.623c-0.251,0.179 -0.509,0.334 -0.784,0.464c-0.271,0.127 -0.562,0.222 -0.869,0.289c-0.31,0.065 -0.65,0.1 -1.022,0.1c-0.395,0 -0.764,-0.055 -1.107,-0.165c-0.344,-0.107 -0.645,-0.272 -0.902,-0.496c-0.253,-0.225 -0.454,-0.501 -0.604,-0.835c-0.147,-0.334 -0.222,-0.725 -0.222,-1.171c0,-0.393 0.107,-0.773 0.321,-1.136c0.213,-0.365 0.561,-0.69 1.042,-0.979c0.482,-0.288 1.111,-0.526 1.889,-0.708c0.775,-0.183 1.73,-0.289 2.867,-0.314l0,-0.728c0,-0.753 -0.161,-1.318 -0.483,-1.693c-0.321,-0.373 -0.791,-0.56 -1.416,-0.56c-0.417,0 -0.771,0.052 -1.056,0.158c-0.286,0.105 -0.532,0.222 -0.738,0.349c-0.207,0.127 -0.386,0.244 -0.542,0.349c-0.155,0.106 -0.313,0.158 -0.476,0.158l-0.339,-0.108l-0.232,-0.257l-0.343,-0.618Z" style="fill:#fff;fill-rule:nonzero;"/><path d="M648.037,334.815c0.34,0 0.641,-0.048 0.898,-0.138c0.26,-0.091 0.475,-0.221 0.651,-0.39c0.171,-0.165 0.304,-0.366 0.393,-0.604c0.086,-0.235 0.131,-0.495 0.131,-0.776c0,-0.579 -0.175,-1.038 -0.524,-1.383c-0.351,-0.343 -0.868,-0.516 -1.549,-0.516c-0.678,0 -1.189,0.173 -1.539,0.516c-0.351,0.345 -0.527,0.804 -0.527,1.383c0,0.281 0.045,0.538 0.133,0.77c0.088,0.235 0.218,0.434 0.394,0.601c0.172,0.167 0.388,0.297 0.648,0.394c0.258,0.095 0.553,0.143 0.891,0.143Zm3.058,5.507c0,-0.235 -0.067,-0.425 -0.196,-0.564c-0.132,-0.142 -0.31,-0.255 -0.538,-0.337c-0.226,-0.082 -0.491,-0.139 -0.791,-0.175c-0.301,-0.037 -0.62,-0.065 -0.951,-0.083c-0.33,-0.021 -0.669,-0.039 -1.017,-0.056c-0.346,-0.017 -0.682,-0.048 -1.002,-0.094c-0.34,0.171 -0.621,0.378 -0.843,0.62c-0.218,0.242 -0.327,0.528 -0.327,0.858c0,0.207 0.054,0.405 0.162,0.587c0.108,0.186 0.277,0.344 0.502,0.478c0.226,0.135 0.511,0.24 0.856,0.314c0.343,0.077 0.756,0.113 1.233,0.113c0.474,0 0.888,-0.04 1.248,-0.122c0.361,-0.081 0.665,-0.197 0.911,-0.342c0.247,-0.15 0.431,-0.325 0.561,-0.527c0.129,-0.204 0.192,-0.429 0.192,-0.67Zm1.948,-10.14l0,0.718c0,0.235 -0.148,0.383 -0.445,0.442l-1.07,0.158c0.091,0.204 0.162,0.419 0.216,0.643c0.053,0.227 0.079,0.464 0.079,0.714c0,0.492 -0.096,0.936 -0.286,1.331c-0.19,0.398 -0.453,0.738 -0.787,1.019c-0.334,0.283 -0.733,0.5 -1.194,0.65c-0.463,0.15 -0.969,0.227 -1.519,0.227c-0.455,0 -0.877,-0.049 -1.271,-0.15c-0.197,0.118 -0.345,0.247 -0.446,0.39c-0.102,0.142 -0.154,0.281 -0.154,0.419c0,0.229 0.099,0.399 0.29,0.51c0.195,0.113 0.447,0.193 0.76,0.24c0.309,0.051 0.667,0.082 1.069,0.094c0.406,0.014 0.815,0.036 1.231,0.065c0.415,0.028 0.826,0.08 1.23,0.158c0.402,0.075 0.76,0.194 1.073,0.363c0.309,0.169 0.561,0.396 0.756,0.69c0.191,0.289 0.29,0.669 0.29,1.135c0,0.431 -0.108,0.853 -0.318,1.258c-0.215,0.405 -0.524,0.769 -0.929,1.083c-0.41,0.315 -0.903,0.567 -1.488,0.756c-0.583,0.19 -1.246,0.287 -1.985,0.287c-0.742,0 -1.386,-0.072 -1.935,-0.216c-0.547,-0.146 -1.001,-0.34 -1.365,-0.582c-0.365,-0.242 -0.635,-0.524 -0.816,-0.845c-0.183,-0.322 -0.271,-0.656 -0.271,-1.004c0,-0.485 0.15,-0.895 0.452,-1.234c0.301,-0.338 0.717,-0.601 1.251,-0.793c-0.291,-0.13 -0.52,-0.309 -0.69,-0.535c-0.172,-0.226 -0.257,-0.526 -0.257,-0.901c0,-0.143 0.027,-0.293 0.079,-0.447c0.053,-0.152 0.133,-0.306 0.24,-0.463c0.108,-0.153 0.243,-0.298 0.403,-0.437c0.161,-0.136 0.347,-0.262 0.557,-0.373c-0.492,-0.275 -0.878,-0.64 -1.161,-1.096c-0.282,-0.456 -0.422,-0.988 -0.422,-1.599c0,-0.492 0.096,-0.934 0.284,-1.328c0.19,-0.394 0.455,-0.73 0.793,-1.014c0.336,-0.28 0.739,-0.497 1.211,-0.648c0.467,-0.15 0.982,-0.226 1.539,-0.226c0.864,0 1.608,0.181 2.231,0.541l2.775,0Z" style="fill:#fff;fill-rule:nonzero;"/><path d="M660.162,335.365c-0.779,0.028 -1.443,0.088 -1.987,0.181c-0.543,0.096 -0.988,0.224 -1.328,0.379c-0.342,0.159 -0.586,0.343 -0.738,0.558c-0.151,0.21 -0.225,0.448 -0.225,0.713c0,0.247 0.04,0.462 0.122,0.643c0.082,0.181 0.195,0.328 0.337,0.442c0.139,0.115 0.304,0.2 0.495,0.252c0.191,0.053 0.397,0.078 0.618,0.078c0.295,0 0.568,-0.03 0.812,-0.087c0.247,-0.06 0.478,-0.145 0.694,-0.252c0.217,-0.108 0.424,-0.24 0.619,-0.399c0.198,-0.156 0.392,-0.337 0.581,-0.54l0,-1.968Zm-5.625,-4.159c0.557,-0.532 1.161,-0.928 1.815,-1.192c0.65,-0.263 1.369,-0.392 2.149,-0.392c0.569,0 1.073,0.095 1.513,0.279c0.439,0.187 0.811,0.448 1.111,0.782c0.303,0.334 0.531,0.735 0.685,1.202c0.153,0.465 0.231,0.978 0.231,1.543l0,6.373l-0.855,0c-0.191,0 -0.334,-0.031 -0.433,-0.093c-0.098,-0.063 -0.177,-0.179 -0.237,-0.349l-0.207,-0.875c-0.254,0.233 -0.506,0.444 -0.756,0.623c-0.251,0.179 -0.509,0.334 -0.783,0.464c-0.272,0.127 -0.562,0.222 -0.869,0.289c-0.31,0.065 -0.65,0.1 -1.023,0.1c-0.393,0 -0.764,-0.055 -1.107,-0.165c-0.343,-0.107 -0.643,-0.272 -0.9,-0.496c-0.255,-0.225 -0.456,-0.501 -0.606,-0.835c-0.146,-0.334 -0.221,-0.725 -0.221,-1.171c0,-0.393 0.106,-0.773 0.32,-1.136c0.213,-0.365 0.561,-0.69 1.042,-0.979c0.482,-0.288 1.112,-0.526 1.889,-0.708c0.777,-0.183 1.732,-0.289 2.867,-0.314l0,-0.728c0,-0.753 -0.161,-1.318 -0.482,-1.693c-0.322,-0.373 -0.792,-0.56 -1.417,-0.56c-0.417,0 -0.771,0.052 -1.056,0.158c-0.286,0.105 -0.53,0.222 -0.737,0.349c-0.208,0.127 -0.387,0.244 -0.543,0.349c-0.153,0.106 -0.312,0.158 -0.475,0.158l-0.34,-0.108l-0.232,-0.257l-0.343,-0.618Z" style="fill:#fff;fill-rule:nonzero;"/><path d="M666.418,331.195c0.215,-0.23 0.441,-0.439 0.679,-0.628c0.236,-0.19 0.485,-0.354 0.753,-0.488c0.266,-0.135 0.549,-0.24 0.853,-0.316c0.307,-0.074 0.633,-0.111 0.981,-0.111c0.55,0 1.034,0.089 1.45,0.275c0.416,0.182 0.765,0.441 1.047,0.772c0.283,0.329 0.495,0.728 0.638,1.195c0.144,0.465 0.22,0.98 0.22,1.543l0,6.364l-1.928,0l0,-6.364c0,-0.714 -0.167,-1.27 -0.493,-1.665c-0.33,-0.399 -0.831,-0.597 -1.505,-0.597c-0.493,0 -0.952,0.116 -1.382,0.349c-0.428,0.232 -0.827,0.549 -1.195,0.948l0,7.329l-1.919,0l0,-9.995l1.152,0c0.27,0 0.436,0.13 0.502,0.384l0.147,1.005Z" style="fill:#fff;fill-rule:nonzero;"/><path d="M682.066,332.228c-0.314,-0.415 -0.654,-0.701 -1.018,-0.866c-0.364,-0.164 -0.773,-0.246 -1.224,-0.246c-0.878,0 -1.559,0.317 -2.041,0.948c-0.483,0.634 -0.722,1.555 -0.722,2.771c0,0.634 0.052,1.176 0.162,1.626c0.108,0.449 0.264,0.815 0.472,1.103c0.205,0.286 0.46,0.493 0.762,0.628c0.301,0.134 0.642,0.202 1.024,0.202c0.556,0 1.037,-0.125 1.445,-0.373c0.405,-0.248 0.786,-0.599 1.14,-1.054l0,-4.739Zm1.93,-6.944l0,14.517l-1.163,0c-0.269,0 -0.435,-0.128 -0.503,-0.385l-0.165,-1.15c-0.427,0.504 -0.909,0.911 -1.451,1.215c-0.542,0.305 -1.165,0.456 -1.874,0.456c-0.57,0 -1.087,-0.11 -1.549,-0.334c-0.461,-0.222 -0.858,-0.549 -1.184,-0.977c-0.328,-0.43 -0.582,-0.963 -0.759,-1.599c-0.178,-0.637 -0.263,-1.367 -0.263,-2.192c0,-0.741 0.097,-1.431 0.295,-2.068c0.193,-0.634 0.479,-1.186 0.854,-1.651c0.375,-0.467 0.827,-0.832 1.357,-1.095c0.53,-0.267 1.13,-0.399 1.8,-0.399c0.604,0 1.118,0.099 1.54,0.296c0.424,0.195 0.802,0.474 1.135,0.836l0,-5.47l1.93,0Z" style="fill:#fff;fill-rule:nonzero;"/><path d="M692.05,335.365c-0.781,0.028 -1.443,0.088 -1.987,0.181c-0.546,0.096 -0.987,0.224 -1.328,0.379c-0.34,0.159 -0.585,0.343 -0.738,0.558c-0.15,0.21 -0.226,0.448 -0.226,0.713c0,0.247 0.042,0.462 0.123,0.643c0.083,0.181 0.193,0.328 0.335,0.442c0.141,0.115 0.308,0.2 0.496,0.252c0.191,0.053 0.396,0.078 0.619,0.078c0.297,0 0.566,-0.03 0.812,-0.087c0.246,-0.06 0.476,-0.145 0.696,-0.252c0.214,-0.108 0.422,-0.24 0.618,-0.399c0.196,-0.156 0.388,-0.337 0.58,-0.54l0,-1.968Zm-5.627,-4.159c0.557,-0.532 1.161,-0.928 1.815,-1.192c0.653,-0.263 1.369,-0.392 2.15,-0.392c0.57,0 1.076,0.095 1.515,0.279c0.439,0.187 0.809,0.448 1.112,0.782c0.3,0.334 0.527,0.735 0.682,1.202c0.156,0.465 0.232,0.978 0.232,1.543l0,6.373l-0.857,0c-0.19,0 -0.334,-0.031 -0.433,-0.093c-0.097,-0.063 -0.176,-0.179 -0.235,-0.349l-0.206,-0.875c-0.256,0.233 -0.508,0.444 -0.759,0.623c-0.247,0.179 -0.509,0.334 -0.781,0.464c-0.273,0.127 -0.561,0.222 -0.87,0.289c-0.308,0.065 -0.65,0.1 -1.024,0.1c-0.394,0 -0.761,-0.055 -1.107,-0.165c-0.343,-0.107 -0.643,-0.272 -0.898,-0.496c-0.257,-0.225 -0.458,-0.501 -0.605,-0.835c-0.15,-0.334 -0.221,-0.725 -0.221,-1.171c0,-0.393 0.105,-0.773 0.318,-1.136c0.212,-0.365 0.56,-0.69 1.043,-0.979c0.484,-0.288 1.113,-0.526 1.888,-0.708c0.777,-0.183 1.734,-0.289 2.868,-0.314l0,-0.728c0,-0.753 -0.161,-1.318 -0.481,-1.693c-0.323,-0.373 -0.795,-0.56 -1.418,-0.56c-0.419,0 -0.773,0.052 -1.058,0.158c-0.284,0.105 -0.53,0.222 -0.737,0.349c-0.206,0.127 -0.387,0.244 -0.541,0.349c-0.153,0.106 -0.311,0.158 -0.477,0.158l-0.34,-0.108l-0.23,-0.257l-0.345,-0.618Z" style="fill:#fff;fill-rule:nonzero;"/><path d="M413.334,293.917c1.289,0 2.388,-0.161 3.295,-0.49c0.907,-0.326 1.651,-0.779 2.231,-1.359c0.578,-0.582 1,-1.257 1.261,-2.035c0.263,-0.775 0.393,-1.614 0.393,-2.511c0,-1.795 -0.584,-3.199 -1.753,-4.209c-1.169,-1.008 -2.978,-1.514 -5.427,-1.514l-3.817,0l0,12.118l3.817,0Zm20.142,21.659l-8.584,0c-1.59,0 -2.733,-0.596 -3.424,-1.795l-6.789,-11.869c-0.317,-0.502 -0.673,-0.873 -1.066,-1.105c-0.392,-0.234 -0.954,-0.351 -1.683,-0.351l-2.413,0l0,15.12l-9.483,0l0,-40.876l13.3,0c2.954,0 5.473,0.304 7.559,0.913c2.084,0.609 3.788,1.453 5.107,2.539c1.318,1.084 2.276,2.365 2.875,3.842c0.6,1.478 0.896,3.088 0.896,4.826c0,1.33 -0.176,2.582 -0.531,3.76c-0.356,1.178 -0.88,2.267 -1.571,3.267c-0.693,1.002 -1.548,1.895 -2.569,2.682c-1.019,0.783 -2.191,1.43 -3.519,1.934c0.617,0.32 1.197,0.716 1.74,1.194c0.541,0.476 1.026,1.04 1.458,1.696l8.697,14.223Z" style="fill:#fff;fill-rule:nonzero;"/><path d="M453.562,308.087c1.272,0 2.409,-0.211 3.409,-0.633c1,-0.42 1.848,-1.023 2.539,-1.809c0.693,-0.785 1.22,-1.746 1.585,-2.876c0.365,-1.13 0.547,-2.415 0.547,-3.858l0,-24.211l9.483,0l0,24.211c0,2.508 -0.408,4.807 -1.22,6.903c-0.813,2.093 -1.977,3.899 -3.494,5.414c-1.514,1.514 -3.357,2.692 -5.526,3.534c-2.17,0.842 -4.61,1.263 -7.323,1.263c-2.729,0 -5.18,-0.421 -7.35,-1.263c-2.169,-0.842 -4.01,-2.02 -5.526,-3.534c-1.515,-1.515 -2.675,-3.321 -3.479,-5.414c-0.804,-2.096 -1.207,-4.395 -1.207,-6.903l0,-24.211l9.483,0l0,24.183c0,1.442 0.182,2.726 0.547,3.858c0.365,1.132 0.894,2.095 1.586,2.892c0.69,0.793 1.537,1.401 2.538,1.821c1.002,0.422 2.137,0.633 3.408,0.633Z" style="fill:#fff;fill-rule:nonzero;"/><path d="M492.952,294.76c2.469,0 4.244,-0.589 5.33,-1.768c1.085,-1.179 1.628,-2.822 1.628,-4.938c0,-0.933 -0.141,-1.785 -0.422,-2.552c-0.28,-0.767 -0.705,-1.427 -1.276,-1.977c-0.571,-0.554 -1.29,-0.977 -2.16,-1.277c-0.869,-0.3 -1.903,-0.449 -3.1,-0.449l-4.939,0l0,12.961l4.939,0Zm0,-20.06c2.879,0 5.353,0.341 7.42,1.024c2.067,0.684 3.77,1.624 5.106,2.822c1.337,1.194 2.324,2.608 2.959,4.234c0.637,1.629 0.954,3.387 0.954,5.274c0,2.041 -0.328,3.912 -0.982,5.612c-0.654,1.701 -1.654,3.161 -3.002,4.376c-1.346,1.217 -3.053,2.165 -5.12,2.847c-2.066,0.686 -4.512,1.023 -7.335,1.023l-4.939,0l0,13.664l-9.481,0l0,-40.876l14.42,0Z" style="fill:#fff;fill-rule:nonzero;"/><path d="M544.628,295.126c0,-2.021 -0.264,-3.841 -0.787,-5.458c-0.524,-1.619 -1.277,-2.987 -2.257,-4.108c-0.982,-1.123 -2.184,-1.983 -3.606,-2.584c-1.421,-0.597 -3.039,-0.897 -4.854,-0.897c-1.832,0 -3.463,0.3 -4.895,0.897c-1.43,0.601 -2.636,1.461 -3.618,2.584c-0.982,1.121 -1.735,2.489 -2.259,4.108c-0.523,1.617 -0.784,3.437 -0.784,5.458c0,2.036 0.261,3.866 0.784,5.485c0.524,1.615 1.277,2.985 2.259,4.109c0.982,1.12 2.188,1.978 3.618,2.566c1.432,0.59 3.063,0.883 4.895,0.883c1.815,0 3.433,-0.293 4.854,-0.883c1.422,-0.588 2.624,-1.446 3.606,-2.566c0.98,-1.124 1.733,-2.494 2.257,-4.109c0.523,-1.619 0.787,-3.449 0.787,-5.485Zm9.706,0c0,2.953 -0.509,5.703 -1.528,8.248c-1.02,2.542 -2.455,4.753 -4.306,6.635c-1.853,1.878 -4.084,3.352 -6.692,4.417c-2.61,1.067 -5.505,1.599 -8.684,1.599c-3.179,0 -6.078,-0.532 -8.696,-1.599c-2.619,-1.065 -4.858,-2.539 -6.718,-4.417c-1.862,-1.882 -3.303,-4.093 -4.32,-6.635c-1.021,-2.545 -1.531,-5.295 -1.531,-8.248c0,-2.956 0.51,-5.707 1.531,-8.249c1.017,-2.544 2.458,-4.75 4.32,-6.621c1.86,-1.871 4.099,-3.34 6.718,-4.405c2.618,-1.067 5.517,-1.599 8.696,-1.599c3.179,0 6.074,0.537 8.684,1.614c2.608,1.075 4.839,2.547 6.692,4.418c1.851,1.871 3.286,4.077 4.306,6.619c1.019,2.547 1.528,5.285 1.528,8.223Z" style="fill:#fff;fill-rule:nonzero;"/><path d="M573.216,293.917c1.29,0 2.388,-0.161 3.295,-0.49c0.908,-0.326 1.652,-0.779 2.231,-1.359c0.58,-0.582 1.001,-1.257 1.262,-2.035c0.263,-0.775 0.394,-1.614 0.394,-2.511c0,-1.795 -0.586,-3.199 -1.754,-4.209c-1.169,-1.008 -2.979,-1.514 -5.428,-1.514l-3.816,0l0,12.118l3.816,0Zm20.143,21.659l-8.585,0c-1.589,0 -2.732,-0.596 -3.423,-1.795l-6.79,-11.869c-0.316,-0.502 -0.672,-0.873 -1.065,-1.105c-0.393,-0.234 -0.954,-0.351 -1.684,-0.351l-2.412,0l0,15.12l-9.483,0l0,-40.876l13.299,0c2.955,0 5.474,0.304 7.56,0.913c2.084,0.609 3.786,1.453 5.105,2.539c1.319,1.084 2.278,2.365 2.876,3.842c0.599,1.478 0.899,3.088 0.899,4.826c0,1.33 -0.178,2.582 -0.534,3.76c-0.354,1.178 -0.88,2.267 -1.571,3.267c-0.691,1.002 -1.547,1.895 -2.566,2.682c-1.021,0.783 -2.195,1.43 -3.521,1.934c0.617,0.32 1.197,0.716 1.739,1.194c0.542,0.476 1.029,1.04 1.458,1.696l8.698,14.223Z" style="fill:#fff;fill-rule:nonzero;"/><path d="M632.494,274.7l0,40.876l-4.937,0c-0.73,0 -1.342,-0.117 -1.837,-0.351c-0.496,-0.235 -0.988,-0.64 -1.474,-1.219l-19.273,-24.38c0.074,0.73 0.126,1.435 0.154,2.117c0.03,0.683 0.044,1.327 0.044,1.923l0,21.91l-8.362,0l0,-40.876l4.994,0c0.411,0 0.758,0.019 1.037,0.058c0.28,0.037 0.534,0.106 0.758,0.208c0.224,0.106 0.439,0.249 0.645,0.436c0.205,0.188 0.44,0.438 0.702,0.758l19.44,24.548c-0.092,-0.786 -0.157,-1.548 -0.194,-2.287c-0.037,-0.737 -0.056,-1.435 -0.056,-2.09l0,-21.631l8.359,0Z" style="fill:#fff;fill-rule:nonzero;"/><path d="M670.817,295.126c0,-2.021 -0.263,-3.841 -0.785,-5.458c-0.525,-1.619 -1.278,-2.987 -2.258,-4.108c-0.983,-1.123 -2.185,-1.983 -3.606,-2.584c-1.422,-0.597 -3.04,-0.897 -4.853,-0.897c-1.834,0 -3.465,0.3 -4.896,0.897c-1.431,0.601 -2.636,1.461 -3.619,2.584c-0.982,1.121 -1.735,2.489 -2.258,4.108c-0.524,1.617 -0.785,3.437 -0.785,5.458c0,2.036 0.261,3.866 0.785,5.485c0.523,1.615 1.276,2.985 2.258,4.109c0.983,1.12 2.188,1.978 3.619,2.566c1.431,0.59 3.062,0.883 4.896,0.883c1.813,0 3.431,-0.293 4.853,-0.883c1.421,-0.588 2.623,-1.446 3.606,-2.566c0.98,-1.124 1.733,-2.494 2.258,-4.109c0.522,-1.619 0.785,-3.449 0.785,-5.485Zm9.706,0c0,2.953 -0.509,5.703 -1.528,8.248c-1.02,2.542 -2.454,4.753 -4.306,6.635c-1.853,1.878 -4.082,3.352 -6.692,4.417c-2.609,1.067 -5.503,1.599 -8.682,1.599c-3.181,0 -6.08,-0.532 -8.696,-1.599c-2.62,-1.065 -4.86,-2.539 -6.722,-4.417c-1.86,-1.882 -3.301,-4.093 -4.32,-6.635c-1.019,-2.545 -1.528,-5.295 -1.528,-8.248c0,-2.956 0.509,-5.707 1.528,-8.249c1.019,-2.544 2.46,-4.75 4.32,-6.621c1.862,-1.871 4.102,-3.34 6.722,-4.405c2.616,-1.067 5.515,-1.599 8.696,-1.599c3.179,0 6.073,0.537 8.682,1.614c2.61,1.075 4.839,2.547 6.692,4.418c1.852,1.871 3.286,4.077 4.306,6.619c1.019,2.547 1.528,5.285 1.528,8.223Z" style="fill:#fff;fill-rule:nonzero;"/><path d="M694.439,274.7l0,16.047c0,1.721 -0.102,3.43 -0.309,5.121c-0.206,1.693 -0.477,3.417 -0.814,5.176l-5.891,0c-0.337,-1.759 -0.608,-3.483 -0.813,-5.176c-0.206,-1.691 -0.309,-3.4 -0.309,-5.121l0,-16.047l8.136,0Zm-9.09,36.474c0,-0.675 0.128,-1.3 0.378,-1.881c0.254,-0.58 0.599,-1.086 1.039,-1.516c0.44,-0.43 0.958,-0.771 1.556,-1.025c0.6,-0.252 1.254,-0.379 1.964,-0.379c0.694,0 1.339,0.127 1.937,0.379c0.598,0.254 1.123,0.595 1.569,1.025c0.45,0.43 0.801,0.936 1.053,1.516c0.254,0.581 0.379,1.206 0.379,1.881c0,0.671 -0.125,1.301 -0.379,1.891c-0.252,0.588 -0.603,1.1 -1.053,1.53c-0.446,0.431 -0.971,0.768 -1.569,1.009c-0.598,0.245 -1.243,0.365 -1.937,0.365c-0.71,0 -1.364,-0.12 -1.964,-0.365c-0.598,-0.241 -1.116,-0.578 -1.556,-1.009c-0.44,-0.43 -0.785,-0.942 -1.039,-1.53c-0.25,-0.59 -0.378,-1.22 -0.378,-1.891Z" style="fill:#fff;fill-rule:nonzero;"/><rect x="217.271" y="234.256" width="14.103" height="3.525" style="fill:#fff;"/><path d="M222.979,252.387l-2.112,-2.836l12.125,-9.032l2.113,2.835l-12.126,9.033Z" style="fill:#fff;"/><path d="M220.866,222.491l2.114,-2.84l12.126,9.029l-2.114,2.84l-12.126,-9.029Z" style="fill:#fff;"/><path d="M320.823,281.239c-14.422,0 -24.005,-12.321 -24.613,-20.393c-0.911,-12.085 6.278,-15.051 11.039,-15.349c1.113,-0.07 3.755,0.462 4.663,0.764c1.215,0.403 2.547,0.941 3.675,1.527c1.002,0.525 2.72,1.542 5.046,3.529c2.072,1.767 4.618,5.511 4.941,5.115c0.274,-0.336 0.317,-1.134 0.317,-3.323c0,-4.405 -0.095,-11.532 -0.095,-11.532l0.007,-0.011c-0.001,-0.323 0.116,-0.519 0.323,-0.695c1.72,-0.947 2.898,-2.753 2.898,-4.852c0,-2.103 -1.183,-3.912 -2.907,-4.857c-0.212,-0.181 -0.323,-0.382 -0.321,-0.701c0,0 0.095,-7.126 0.095,-11.53c0,-2.191 0,-3.03 -0.317,-3.323c-0.521,-0.484 -2.727,2.839 -4.567,4.848c-1.84,2.007 -5.271,3.749 -5.271,3.749c-3.955,2.058 -15.835,3.105 -20.274,3.329c-0.707,0.034 -1.417,0.038 -2.123,0.064l-2.303,0c-2.019,0 -3.811,1.285 -4.445,3.202c-1.079,3.26 -2.326,10.451 -2.966,15.642l0,-0.005l0,0.003c-0.145,1.061 -0.278,1.497 -0.392,1.593l-0.03,0.006l-0.032,-0.006c-0.115,-0.096 -0.246,-0.532 -0.391,-1.593l0,-0.003l-0.002,0.002l0,0.003c-0.639,-5.191 -1.886,-12.382 -2.964,-15.642c-0.636,-1.917 -2.426,-3.202 -4.447,-3.202l-2.302,0c-0.707,-0.026 -1.415,-0.03 -2.122,-0.064c-4.441,-0.224 -16.32,-1.271 -20.274,-3.329c0,0 -3.431,-1.742 -5.271,-3.749c-1.84,-2.009 -4.046,-5.332 -4.568,-4.848c-0.316,0.293 -0.316,1.132 -0.316,3.323c0,4.404 0.095,11.53 0.095,11.53c0.002,0.319 -0.111,0.52 -0.321,0.701c-1.724,0.945 -2.907,2.754 -2.907,4.857c0,2.099 1.178,3.905 2.899,4.852c0.206,0.176 0.323,0.372 0.322,0.695l0.007,0.011c0,0 -0.095,7.127 -0.095,11.532c0,2.189 0.043,2.987 0.316,3.323c0.322,0.396 2.87,-3.348 4.942,-5.115c2.326,-1.987 4.044,-3.004 5.046,-3.529c1.127,-0.586 2.46,-1.124 3.676,-1.527c0.907,-0.302 3.549,-0.834 4.662,-0.764c4.761,0.298 11.95,3.264 11.039,15.349c-0.608,8.072 -10.193,20.393 -24.611,20.393c-20.83,0 -22.954,-20.829 -22.954,-20.829l-17.854,-10.732l0,118.277l21.042,-9.777l0,-65.037l8.608,6.256l0,54.781l12.858,-5.975l0,-39.461l8.502,6.179l0,29.332l10.839,-5.036l0,-16.418l10.529,7.652l-3.421,7.039l-7.452,15.329c-0.233,0.481 -0.247,1.039 -0.037,1.529l12.817,29.868c0.057,0.137 0.19,0.223 0.337,0.223l1.254,0l0,-23.823c-2.203,-0.98 -3.745,-3.18 -3.745,-5.747c0,-3.476 2.819,-6.293 6.296,-6.293c3.476,0 6.293,2.817 6.293,6.293c0,2.567 -1.54,4.767 -3.745,5.747l0,23.823l1.254,0c0.149,0 0.28,-0.086 0.339,-0.223l12.817,-29.868c0.21,-0.49 0.196,-1.048 -0.037,-1.529l-7.453,-15.329l-3.422,-7.039l10.531,-7.652l0,16.418l10.839,5.036l0,-29.332l8.501,-6.179l0,39.461l12.86,5.975l0,-54.781l8.608,-6.256l0,65.037l21.041,9.777l0,-118.277l-17.854,10.732c0,0 -2.126,20.829 -22.952,20.829Z" style="fill:#fff;fill-rule:nonzero;"/><rect x="335.033" y="234.256" width="14.103" height="3.525" style="fill:#fff;"/><path d="M345.532,249.565l-2.12,2.834l-12.106,-9.054l2.12,-2.834l12.106,9.054Z" style="fill:#fff;"/><path d="M333.43,231.532l-2.124,-2.839l12.106,-9.057l2.124,2.839l-12.106,9.057Z" style="fill:#fff;"/></g></svg>