<?xml version="1.0" encoding="UTF-8" standalone="no"?><!DOCTYPE svg PUBLIC "-//W3C//DTD SVG 1.1//EN" "http://www.w3.org/Graphics/SVG/1.1/DTD/svg11.dtd"><svg width="100%" height="100%" viewBox="0 0 900 600" version="1.1" xmlns="http://www.w3.org/2000/svg" xmlns:xlink="http://www.w3.org/1999/xlink" xml:space="preserve" xmlns:serif="http://www.serif.com/" style="fill-rule:evenodd;clip-rule:evenodd;stroke-linejoin:round;stroke-miterlimit:1.41421;"><rect id="logo-hirestandard" x="0" y="0" width="900" height="600" style="fill:none;"/><g><path d="M427.241,337.288l-2.682,-2.681c1.433,-1.433 2.221,-3.336 2.221,-5.361l0,-19.769c0,-6.271 5.102,-11.373 11.373,-11.373l23.695,0c4.18,0 7.582,-3.401 7.582,-7.582l0,-19.769c0,-3.036 1.183,-5.893 3.33,-8.041l2.682,2.68c-1.433,1.433 -2.221,3.336 -2.221,5.361l0,19.769c0,6.272 -5.102,11.373 -11.373,11.373l-23.695,0c-4.18,0 -7.582,3.402 -7.582,7.582l0,19.769c0,3.036 -1.183,5.893 -3.33,8.042Z" style="fill:#fff;fill-rule:nonzero;"/><path d="M411.437,300.461c-13.897,0 -22.499,-11.249 -22.499,-21.671c0,-8.696 3.001,-14.49 5.937,-19.012c3.304,-5.087 7.926,-9.74 14.545,-14.644c11.639,-8.623 26.051,-13.374 40.58,-13.374c15.265,0 29.699,4.928 41.739,14.25c3.075,2.381 7.424,2.144 10.116,-0.546l0.419,-0.419l2.68,2.68l-0.419,0.42c-4.038,4.038 -10.537,4.408 -15.117,0.862c-11.369,-8.802 -25,-13.456 -39.418,-13.456c-13.722,0 -27.332,4.486 -38.324,12.63c-6.242,4.625 -10.572,8.966 -13.621,13.662c-2.766,4.26 -5.326,9.261 -5.326,16.947c0,8.599 7.153,17.88 18.708,17.88c5.698,0 10.566,-2.241 14.079,-6.481c4.917,-5.936 6.601,-15.334 4.622,-25.785l3.725,-0.705c2.221,11.734 0.295,22.002 -5.428,28.909c-4.196,5.064 -10.232,7.853 -16.998,7.853Z" style="fill:#fff;fill-rule:nonzero;"/><path d="M403.627,251.439c-2.929,0 -5.83,-1.112 -8.013,-3.294l-0.419,-0.42l2.68,-2.68l0.419,0.419c2.692,2.69 7.038,2.927 10.116,0.546l2.321,2.997c-2.104,1.63 -4.614,2.432 -7.104,2.432Z" style="fill:#fff;fill-rule:nonzero;"/><path d="M450,368.239c-15.263,0 -29.697,-4.928 -41.738,-14.25c-3.075,-2.38 -7.424,-2.144 -10.116,0.546l-0.419,0.419l-2.68,-2.68l0.419,-0.42c4.037,-4.038 10.536,-4.409 15.117,-0.862c11.37,8.803 25.001,13.456 39.417,13.456c13.722,0 27.332,-4.485 38.325,-12.63c6.242,-4.625 10.572,-8.966 13.621,-13.662c2.765,-4.26 5.326,-9.261 5.326,-16.947c0,-8.599 -7.153,-17.88 -18.708,-17.88c-5.698,0 -10.566,2.241 -14.079,6.481c-4.917,5.936 -6.601,15.334 -4.622,25.785l-3.725,0.705c-2.221,-11.734 -0.295,-22.002 5.428,-28.909c4.196,-5.064 10.232,-7.853 16.998,-7.853c13.897,0 22.499,11.249 22.499,21.671c0,8.696 -3.002,14.49 -5.938,19.012c-3.303,5.087 -7.925,9.74 -14.544,14.644c-11.64,8.624 -26.052,13.374 -40.581,13.374Z" style="fill:#fff;fill-rule:nonzero;"/><path d="M502.126,354.954l-0.419,-0.419c-2.691,-2.69 -7.039,-2.926 -10.116,-0.546l-2.321,-2.997c4.581,-3.547 11.079,-3.176 15.117,0.862l0.418,0.42l-2.679,2.68Z" style="fill:#fff;fill-rule:nonzero;"/><path d="M450,200.011c-55.134,0 -99.989,44.855 -99.989,99.989c0,55.134 44.855,99.989 99.989,99.989c55.135,0 99.99,-44.855 99.99,-99.989c0,-55.134 -44.855,-99.989 -99.99,-99.989Zm0,203.769c-57.225,0 -103.78,-46.555 -103.78,-103.78c0,-57.225 46.555,-103.78 103.78,-103.78c57.226,0 103.781,46.555 103.781,103.78c0,57.225 -46.555,103.78 -103.781,103.78Z" style="fill:#fff;fill-rule:nonzero;"/><path d="M450,164.791c-74.554,0 -135.209,60.653 -135.209,135.209c0,74.555 60.655,135.209 135.209,135.209c74.555,0 135.209,-60.654 135.209,-135.209c0,-74.556 -60.654,-135.209 -135.209,-135.209Zm0,274.209c-76.644,0 -139,-62.355 -139,-139c0,-76.645 62.356,-139 139,-139c76.645,0 139,62.355 139,139c0,76.645 -62.355,139 -139,139Z" style="fill:#fff;fill-rule:nonzero;"/><path d="M378.15,210.317l1.153,-1.301l-6.192,-8.783l-1.611,0.649l-0.631,-0.894l4.578,-3.35l0.688,0.977l-1.316,1.415l2.524,3.578l5.448,-3.842l-2.523,-3.579l-1.774,0.765l-0.631,-0.896l4.579,-3.35l0.686,0.977l-1.152,1.3l6.193,8.784l1.612,-0.65l0.688,0.976l-4.635,3.269l-0.688,-0.976l1.315,-1.414l-2.751,-3.905l-5.451,3.841l2.754,3.905l1.774,-0.765l0.688,0.977l-4.636,3.267l-0.689,-0.975Z" style="fill:#fff;fill-rule:nonzero;"/><path d="M391.318,201.41l1.279,-1.177l-5.27,-9.363l-1.67,0.483l-0.536,-0.954l4.719,-2.771l0.586,1.04l-1.278,1.176l5.27,9.365l1.669,-0.483l0.585,1.041l-4.769,2.683l-0.585,-1.04Z" style="fill:#fff;fill-rule:nonzero;"/><path d="M399.728,189.868c1.779,-0.803 2.436,-2.104 1.789,-3.538c-0.548,-1.215 -1.886,-1.662 -3.209,-1.063l-1.907,0.86l1.966,4.354l1.361,-0.613Zm-5.231,-2.882l-1.706,0.333l-0.45,-0.997l3.406,-1.648l1.996,-0.9c2.559,-1.154 4.64,-0.608 5.556,1.424c0.794,1.76 0.537,3.319 -0.761,4.603c0.404,0.123 0.944,0.447 1.826,1.143l2.734,2.238l1.419,-0.292l0.492,1.09l-2.721,1.229l-3.059,-2.663c-1.67,-1.43 -2.234,-1.613 -3.432,-1.072l-0.816,0.368l1.841,4.083l1.707,-0.332l0.492,1.089l-4.99,2.25l-0.493,-1.088l1.38,-1.059l-4.421,-9.799Z" style="fill:#fff;fill-rule:nonzero;"/><path d="M415.388,183.442l0.493,1.517l-4.355,1.414l1.507,4.638l4.355,-1.414l-0.237,-2.017l1.231,-0.399l1.107,3.408l-9.561,3.106l-0.369,-1.136l1.485,-0.903l-3.32,-10.224l-1.732,0.147l-0.338,-1.044l3.567,-1.262l5.773,-1.876l1.046,3.218l-1.231,0.4l-1.026,-1.551l-4.071,1.324l1.323,4.07l4.353,-1.416Z" style="fill:#fff;fill-rule:nonzero;"/><path d="M427.784,186.664c0,0 0.967,0.336 2.241,0.115c1.432,-0.249 2.877,-1.228 2.635,-2.62c-0.526,-3.019 -7.384,-0.533 -8.199,-5.219c-0.478,-2.743 1.517,-4.283 3.966,-4.709c1.864,-0.324 4.275,0.065 4.275,0.065l0.481,3.349l-1.274,0.221l-1.033,-1.981c0,0 -1.06,-0.179 -2.139,0.009c-1.763,0.307 -2.448,1.374 -2.276,2.354c0.518,2.982 7.378,0.616 8.146,5.027c0.512,2.94 -1.625,4.707 -4.37,5.184c-2.059,0.357 -4.175,-0.083 -4.175,-0.083l-0.597,-3.431l1.569,-0.273l0.75,1.992Z" style="fill:#fff;fill-rule:nonzero;"/><path d="M438.86,185.826l1.959,-0.54l-0.77,-10.719l-2.581,0.186l-0.353,2.02l-1.289,0.093l-0.258,-3.573l10.82,-0.775l0.254,3.573l-1.29,0.092l-0.638,-1.949l-2.581,0.184l0.769,10.721l2.013,0.253l0.086,1.191l-6.055,0.434l-0.086,-1.191Z" style="fill:#fff;fill-rule:nonzero;"/><path d="M454.138,175.208l-2.29,5.917l4.098,0.137l-1.808,-6.054Zm-0.753,-2.495l1.993,-0.033l4.002,12.501l1.637,0.434l-0.039,1.195l-5.77,-0.195l0.04,-1.194l1.864,-0.315l-0.682,-2.233l-5.173,-0.175l-0.849,2.183l1.857,0.442l-0.039,1.193l-5.473,-0.185l0.041,-1.192l1.646,-0.323l4.945,-12.103Z" style="fill:#fff;fill-rule:nonzero;"/><path d="M466.556,186.5l-0.189,1.177l-5.305,-0.856l0.19,-1.179l1.734,-0.123l1.715,-10.607l-1.607,-0.662l0.175,-1.081l4.141,0.568l4.707,12.028l1.521,-9.408l-1.607,-0.663l0.176,-1.08l5.122,0.727l-0.19,1.179l-1.733,0.123l-1.968,12.178l-2.456,-0.397l-4.733,-11.871l-1.497,9.252l1.804,0.695Z" style="fill:#fff;fill-rule:nonzero;"/><path d="M482.671,189.662c2.381,0.715 4.488,-0.419 5.577,-4.041c1.058,-3.525 -0.008,-5.508 -2.392,-6.223l-2.287,-0.687l-3.091,10.292l2.193,0.659Zm-1.103,-11.552l-1.505,-0.867l0.314,-1.05l3.65,0.994l2.383,0.715c3.717,1.116 5.317,4.089 4.057,8.282c-1.258,4.194 -4.538,6.119 -8.35,4.974l-5.717,-1.717l0.342,-1.143l1.735,0.105l3.091,-10.293Z" style="fill:#fff;fill-rule:nonzero;"/><path d="M499.397,185.359l-4.302,4.667l3.765,1.63l0.537,-6.297Zm0.214,-2.599l1.868,0.7l-0.861,13.103l1.367,1.006l-0.476,1.095l-5.298,-2.295l0.475,-1.097l1.849,0.389l0.184,-2.33l-4.749,-2.056l-1.592,1.718l1.568,1.091l-0.476,1.096l-5.024,-2.178l0.475,-1.095l1.649,0.302l9.041,-9.449Z" style="fill:#fff;fill-rule:nonzero;"/><path d="M510.473,195.185c1.686,0.982 3.126,0.763 3.918,-0.596c0.671,-1.152 0.259,-2.498 -0.995,-3.23l-1.808,-1.052l-2.405,4.126l1.29,0.752Zm-0.689,-5.931l-1.262,-1.195l0.553,-0.946l3.316,1.819l1.892,1.102c2.424,1.414 3.187,3.424 2.063,5.35c-0.97,1.668 -2.39,2.362 -4.189,2.049c0.135,0.402 0.184,1.029 0.131,2.151l-0.236,3.524l1.06,0.988l-0.602,1.03l-2.579,-1.503l0.393,-4.033c0.195,-2.19 0.017,-2.755 -1.117,-3.417l-0.776,-0.45l-2.255,3.868l1.262,1.196l-0.603,1.032l-4.727,-2.757l0.601,-1.031l1.662,0.507l5.413,-9.284Z" style="fill:#fff;fill-rule:nonzero;"/><path d="M518.986,207.947c1.988,1.498 4.356,1.165 6.633,-1.855c2.218,-2.941 1.906,-5.171 -0.082,-6.67l-1.907,-1.437l-6.474,8.583l1.83,1.379Zm2.975,-11.221l-1.111,-1.336l0.658,-0.874l3.081,2.198l1.985,1.497c3.101,2.337 3.571,5.683 0.934,9.18c-2.637,3.497 -6.381,4.164 -9.56,1.767l-4.769,-3.595l0.719,-0.953l1.591,0.7l6.472,-8.584Z" style="fill:#fff;fill-rule:nonzero;"/><path d="M383.74,391.468c1.524,-2.168 3.651,-2.697 5.82,-1.172c1.715,1.207 2.264,2.539 2.264,2.539l-1.59,2.256l-1.263,-0.888l0.746,-1.637c0,0 -0.39,-0.408 -1.022,-0.852c-1.263,-0.888 -2.133,-0.421 -2.893,0.662l-1.017,1.446l2.383,1.676l-1.007,1.318l-2.33,-1.64l-4.701,6.682l1.489,1.724l-0.698,0.992l-5.149,-3.621l0.699,-0.993l1.854,0.629l4.7,-6.683l-1.626,-1.144l0.827,-1.174l1.751,0.964l0.763,-1.084Z" style="fill:#fff;fill-rule:nonzero;"/><path d="M394.214,412.884l-3.232,-1.685l0.564,-1.456c-0.688,0.145 -2.846,0.429 -4.426,-0.458c-2.116,-1.188 -2.334,-3.057 -1.146,-5.174l3.034,-5.41l-1.42,-1.303l0.594,-1.059l3.617,1.902l-3.792,6.758c-0.756,1.348 -0.642,2.272 0.609,2.973c1.636,0.918 3.646,0.045 3.646,0.045l3.196,-5.698l-1.42,-1.303l0.594,-1.058l3.617,1.902l-4.862,8.662l1.421,1.304l-0.594,1.058Z" style="fill:#fff;fill-rule:nonzero;"/><path d="M403.936,406.196c0.751,-0.351 2.407,-0.962 3.788,-0.372c1.014,0.436 1.695,1.087 1.695,1.087l-1.362,2.901l-1.319,-0.565l0.348,-1.653c-1.523,-0.653 -2.923,-0.076 -3.623,0.322l-2.582,6.029l1.812,1.376l-0.478,1.116l-5.785,-2.478l0.477,-1.116l1.943,0.232l3.219,-7.511l-1.551,-1.146l0.478,-1.116l3.393,1.334l-0.453,1.56Z" style="fill:#fff;fill-rule:nonzero;"/><path d="M413.496,409.824c0.644,-0.287 2.7,-1.044 4.453,-0.506c2.322,0.712 2.925,2.513 2.213,4.835l-1.811,5.911l1.42,1.013l-0.354,1.161l-5.067,-1.553l0.356,-1.16l1.534,-0.108l1.747,-5.7c0.451,-1.478 0.15,-2.379 -1.221,-2.798c-1.796,-0.551 -3.581,0.75 -3.581,0.75l-1.906,6.228l1.211,0.949l-0.358,1.161l-5.276,-1.617l0.356,-1.161l1.955,0.021l2.393,-7.811l-1.665,-0.971l0.356,-1.162l3.516,0.962l-0.271,1.556Z" style="fill:#fff;fill-rule:nonzero;"/><path d="M428.068,406.707c0.865,0.177 1.317,0.721 1.095,1.802c-0.2,0.973 -1.068,1.358 -1.717,1.226c-0.865,-0.179 -1.294,-0.83 -1.094,-1.805c0.199,-0.972 0.96,-1.38 1.716,-1.223Zm-0.588,17.121l-5.623,-1.156l0.244,-1.189l1.95,-0.164l1.643,-8.001l-1.748,-0.81l0.244,-1.189l4.024,0.714l-2.002,9.731l1.512,0.875l-0.244,1.189Z" style="fill:#fff;fill-rule:nonzero;"/><path d="M438.166,415.34l-3.173,-0.428l-0.947,7.024c-0.136,1.006 0.3,1.399 0.913,1.482c0.526,0.07 1.171,-0.087 1.781,-0.317l0.435,1.24c-1.082,0.589 -2.117,0.829 -3.211,0.681c-1.313,-0.178 -2.418,-1.062 -2.088,-3.511l0.928,-6.893l-2.188,-0.295l0.191,-1.423l2.219,0.077l0.371,-2.759l2.248,-0.142l-0.433,3.194l3.174,0.428l-0.22,1.642Z" style="fill:#fff;fill-rule:nonzero;"/><path d="M452.251,425.871l-3.646,-0.017l-0.165,-1.553c-0.547,0.445 -2.336,1.685 -4.146,1.622c-2.427,-0.087 -3.477,-1.648 -3.393,-4.077l0.221,-6.201l-1.862,-0.508l0.043,-1.213l4.087,0.032l-0.273,7.748c-0.054,1.545 0.47,2.316 1.906,2.366c1.876,0.066 3.26,-1.631 3.26,-1.631l0.232,-6.534l-1.861,-0.507l0.044,-1.213l4.086,0.033l-0.35,9.932l1.86,0.507l-0.043,1.214Z" style="fill:#fff;fill-rule:nonzero;"/><path d="M457.821,415.48c0.508,-0.655 1.699,-1.956 3.196,-2.062c1.102,-0.078 2.005,0.192 2.005,0.192l0.115,3.201l-1.431,0.099l-0.447,-1.628c-1.651,0.116 -2.633,1.27 -3.072,1.943l0.46,6.54l2.24,0.396l0.086,1.211l-6.275,0.442l-0.086,-1.212l1.833,-0.682l-0.573,-8.148l-1.903,-0.308l-0.085,-1.211l3.626,-0.366l0.311,1.593Z" style="fill:#fff;fill-rule:nonzero;"/><path d="M472.253,416.598c-0.274,-1.634 -1.13,-2.879 -2.873,-2.589c-1.742,0.29 -2.497,1.805 -2.356,3.46l5.229,-0.871Zm-5.043,2.518c0.399,2.396 1.939,3.707 3.812,3.395c2.178,-0.363 3.458,-1.809 3.458,-1.809l0.953,1.007c0,0 -1.725,2.145 -4.339,2.581c-3.485,0.581 -5.608,-1.416 -6.208,-5.01c-0.58,-3.486 1.163,-6.461 4.321,-6.987c3.158,-0.528 4.882,1.088 5.427,4.356c0.091,0.545 0.083,1.172 0.09,1.215l-7.514,1.252Z" style="fill:#fff;fill-rule:nonzero;"/><path d="M485.189,419.156c0,0 0.691,-0.01 1.828,-0.37c1.265,-0.398 2.266,-1.109 1.853,-2.415c-0.717,-2.273 -6.259,0.636 -7.469,-3.194c-0.693,-2.19 0.645,-3.817 2.814,-4.503c1.662,-0.525 3.799,-0.506 3.799,-0.506l0.835,2.861l-1.368,0.433l-0.856,-1.535c0,0 -0.733,-0.046 -1.785,0.286c-1.073,0.34 -1.766,0.929 -1.428,2.003c0.713,2.253 6.313,-0.466 7.451,3.132c0.764,2.421 -0.967,4.265 -3.493,5.063c-1.937,0.614 -3.473,0.589 -3.473,0.589l-0.985,-3.115l1.473,-0.467l0.804,1.738Z" style="fill:#fff;fill-rule:nonzero;"/><path d="M497.292,405.894l-2.963,1.215l2.687,6.558c0.387,0.94 0.961,1.063 1.534,0.828c0.49,-0.201 0.97,-0.66 1.385,-1.163l0.994,0.855c-0.642,1.052 -1.421,1.776 -2.442,2.195c-1.226,0.503 -2.626,0.288 -3.564,-1.999l-2.637,-6.438l-2.043,0.837l-0.544,-1.329l1.959,-1.04l-1.054,-2.575l1.875,-1.246l1.222,2.983l2.964,-1.214l0.627,1.533Z" style="fill:#fff;fill-rule:nonzero;"/><path d="M502.647,407.874c1.226,2.351 2.775,3.411 4.734,2.39c1.958,-1.021 2.027,-2.802 0.699,-5.347c-1.123,-2.154 -2.626,-3.364 -4.585,-2.343c-1.958,1.023 -2.176,2.756 -0.848,5.3Zm7.438,-4.128c1.737,3.329 0.953,6.604 -1.985,8.136c-2.938,1.532 -5.618,0.69 -7.457,-2.836c-1.738,-3.331 -0.805,-6.557 2.133,-8.088c2.936,-1.533 5.675,-0.344 7.309,2.788Z" style="fill:#fff;fill-rule:nonzero;"/><path d="M512.911,397.148c0.125,-0.819 0.53,-2.537 1.788,-3.359c0.922,-0.606 1.843,-0.813 1.843,-0.813l1.662,2.74l-1.202,0.787l-1.184,-1.205c-1.385,0.907 -1.679,2.395 -1.736,3.195l3.593,5.489l2.151,-0.747l0.665,1.016l-5.267,3.447l-0.666,-1.015l1.269,-1.49l-4.476,-6.839l-1.813,0.659l-0.664,-1.016l2.988,-2.088l1.049,1.239Z" style="fill:#fff;fill-rule:nonzero;"/><path d="M526.049,391.125c-1.025,-1.302 -2.376,-1.98 -3.763,-0.888c-1.388,1.095 -1.321,2.787 -0.399,4.17l4.162,-3.282Zm-3.207,4.638c1.504,1.907 3.485,2.315 4.976,1.138c1.735,-1.367 2.163,-3.251 2.163,-3.251l1.318,0.424c0,0 -0.479,2.711 -2.561,4.352c-2.775,2.188 -5.597,1.46 -7.854,-1.402c-2.187,-2.776 -2.093,-6.225 0.421,-8.207c2.516,-1.981 4.806,-1.396 6.857,1.205c0.341,0.434 0.638,0.988 0.665,1.023l-5.985,4.718Z" style="fill:#fff;fill-rule:nonzero;"/></g></svg>