<?xml version="1.0" encoding="UTF-8" standalone="no"?><!DOCTYPE svg PUBLIC "-//W3C//DTD SVG 1.1//EN" "http://www.w3.org/Graphics/SVG/1.1/DTD/svg11.dtd"><svg width="100%" height="100%" viewBox="0 0 1200 744" version="1.1" xmlns="http://www.w3.org/2000/svg" xmlns:xlink="http://www.w3.org/1999/xlink" xml:space="preserve" xmlns:serif="http://www.serif.com/" style="fill-rule:evenodd;clip-rule:evenodd;stroke-linejoin:round;stroke-miterlimit:2;"><rect id="logo-giftbot" x="0" y="0" width="1200" height="744" style="fill:none;"/><g><g><path d="M584.364,400.309c-8.075,4.652 -18.111,6.979 -30.106,6.979c-13.304,0 -23.791,-3.682 -31.463,-11.046c-7.67,-7.363 -11.505,-17.504 -11.505,-30.424c0,-12.995 4.189,-23.588 12.572,-31.778c8.382,-8.189 19.533,-12.284 33.451,-12.284c8.768,0 16.495,1.211 23.187,3.632l0,17.476c-6.383,-3.691 -14.188,-5.536 -23.417,-5.536c-7.729,0 -14.025,2.508 -18.889,7.526c-4.863,5.018 -7.296,11.718 -7.296,20.1c0,8.497 2.183,15.072 6.548,19.724c4.362,4.654 10.256,6.979 17.676,6.979c4.461,0 7.999,-0.634 10.613,-1.902l0,-16.151l-16.552,0l0,-14.879l35.181,0l0,41.584Z" style="fill:#fff;fill-rule:nonzero;"/><rect x="593.489" y="346.785" width="18.226" height="59.059" style="fill:#fff;"/><path d="M645.606,346.785l27.5,0l0,-12.745l18.167,-5.191l0,17.936l13.267,0l0,13.44l-13.267,0l0,23.876c0,6.152 2.443,9.229 7.325,9.229c1.924,0 3.902,-0.557 5.942,-1.673l0,13.497c-2.694,1.421 -6.749,2.134 -12.171,2.134c-12.843,0 -19.263,-6.672 -19.263,-20.014l0,-27.049l-27.5,0l0,45.62l-18.166,0l0,-45.62l-9.922,0l0,-13.44l9.922,0l0,-7.323c0,-6.729 2.191,-12.15 6.573,-16.265c4.384,-4.114 10.343,-6.171 17.879,-6.171c3.691,0 6.768,0.385 9.229,1.153l0,14.188c-2.346,-0.923 -4.595,-1.384 -6.748,-1.384c-5.845,0 -8.767,3.172 -8.767,9.517l0,6.285Z" style="fill:#fff;fill-rule:nonzero;"/><path d="M734.538,370.319l0,21.8l10.093,0c4.305,0 7.68,-1 10.121,-3c2.443,-1.998 3.663,-4.729 3.663,-8.189c0,-3.308 -1.203,-5.902 -3.604,-7.786c-2.404,-1.884 -5.759,-2.825 -10.066,-2.825l-10.207,0Zm0,-33.454l0,19.61l8.189,0c3.845,0 6.873,-0.931 9.084,-2.797c2.21,-1.865 3.317,-4.432 3.317,-7.7c0,-6.075 -4.538,-9.113 -13.611,-9.113l-6.979,0Zm-18.63,68.98l0,-82.705l30.107,0c9.227,0 16.322,1.691 21.281,5.075c4.961,3.384 7.441,8.15 7.441,14.302c0,4.461 -1.51,8.363 -4.528,11.71c-3.018,3.345 -6.872,5.672 -11.563,6.979l0,0.23c5.882,0.73 10.583,2.902 14.101,6.516c3.518,3.615 5.278,8.019 5.278,13.208c0,7.575 -2.711,13.583 -8.133,18.025c-5.421,4.439 -12.823,6.66 -22.204,6.66l-31.78,0Z" style="fill:#fff;fill-rule:nonzero;"/><path d="M815.199,359.302c-4.308,0 -7.652,1.48 -10.036,4.441c-2.384,2.961 -3.577,7.15 -3.577,12.572c0,11.343 4.577,17.015 13.727,17.015c8.729,0 13.091,-5.825 13.091,-17.476c0,-11.034 -4.402,-16.552 -13.205,-16.552Zm-0.463,47.986c-9.843,0 -17.582,-2.76 -23.214,-8.277c-5.632,-5.518 -8.45,-13.006 -8.45,-22.464c0,-9.766 2.924,-17.408 8.767,-22.926c5.845,-5.519 13.747,-8.277 23.704,-8.277c9.806,0 17.495,2.758 23.071,8.277c5.575,5.518 8.362,12.813 8.362,21.887c0,9.806 -2.874,17.552 -8.622,23.244c-5.749,5.689 -13.621,8.536 -23.618,8.536Z" style="fill:#fff;fill-rule:nonzero;"/><path d="M890.442,405.154c-2.691,1.421 -6.749,2.134 -12.168,2.134c-12.844,0 -19.265,-6.672 -19.265,-20.014l0,-27.049l-9.574,0l0,-13.44l9.574,0l0,-12.745l18.168,-5.191l0,17.936l13.265,0l0,13.44l-13.265,0l0,23.876c0,6.152 2.441,9.229 7.326,9.229c1.921,0 3.901,-0.557 5.939,-1.673l0,13.497Z" style="fill:#fff;fill-rule:nonzero;"/><path d="M609.862,320.02l-14.288,0c-1.087,0 -1.969,0.88 -1.969,1.968l0,12.165c0,1.088 0.882,1.968 1.969,1.968l14.288,0c1.089,0 1.969,-0.88 1.969,-1.968l0,-12.165c0,-1.088 -0.88,-1.968 -1.969,-1.968Z" style="fill:#fff;fill-rule:nonzero;"/></g><g><path d="M364.55,390.284l-0.004,-0.003l-3.953,3.956c-0.65,0.652 -1.705,0.652 -2.354,0l-5.936,-5.933c-0.65,-0.65 -0.65,-1.703 -0.002,-2.354l24.134,-24.162c0.315,-0.315 0.092,-0.854 -0.355,-0.854l-63.191,0c-1.841,0 -3.331,1.492 -3.331,3.331l0,40.52c0,9.35 7.579,16.929 16.93,16.929l57.172,0c1.84,0 3.328,-1.49 3.328,-3.329l0,-49.368c0,-0.445 -0.537,-0.667 -0.85,-0.352l-21.588,21.619Z" style="fill:#fff;fill-rule:nonzero;"/><path d="M472.746,360.934l-63.191,0c-0.447,0 -0.669,0.539 -0.354,0.854l24.133,24.162c0.65,0.651 0.648,1.704 -0.002,2.354l-5.935,5.933c-0.65,0.652 -1.705,0.652 -2.355,0l-3.953,-3.956l-0.004,0.003l-21.586,-21.617c-0.315,-0.317 -0.854,-0.093 -0.854,0.352l0,49.366c0,1.839 1.492,3.329 3.333,3.329l26.313,0c0.996,0 1.765,0.874 1.665,1.864c-1.618,15.905 -23.913,18.594 -30.014,19.031c-0.87,0.063 -1.533,0.787 -1.533,1.659l0,9.224c0,0.87 0.671,1.594 1.539,1.659c11.361,0.858 76.129,4.018 76.129,-49.279l0,-41.607c0,-1.839 -1.49,-3.331 -3.331,-3.331Z" style="fill:#fff;fill-rule:nonzero;"/><path d="M426.584,336.234l0.384,-0.499c0.248,-0.314 0.502,-0.628 0.728,-0.944c0.343,-0.489 0.661,-0.979 0.945,-1.473c2.396,-4.158 1.774,-7.034 0.842,-8.782c-0.423,-0.795 -0.911,-1.356 -1.208,-1.699c-0.162,-0.185 -0.343,-0.376 -0.532,-0.563l-0.185,-0.177l-0.488,-0.423l-0.193,-0.158c-0.234,-0.173 -0.484,-0.337 -0.75,-0.488l-0.221,-0.108c-0.216,-0.113 -0.448,-0.215 -0.692,-0.304l-0.298,-0.104c-0.321,-0.1 -0.657,-0.183 -1.019,-0.234l-0.048,-0.01c-0.39,-0.053 -0.815,-0.065 -1.258,-0.049l-0.224,0.012c-0.439,0.027 -0.902,0.086 -1.396,0.19l-0.205,0.05c-0.525,0.122 -1.076,0.277 -1.671,0.5c-1.059,0.397 -2.132,0.929 -3.203,1.579c-1.071,0.651 -2.14,1.421 -3.193,2.293c-1.051,0.874 -2.083,1.849 -3.083,2.914c-4.87,5.189 -8.938,12.471 -10.379,20.082c-0.059,0.309 0.185,0.598 0.5,0.598c3.064,0.002 -0.055,-0.012 0.18,-0.014c10.61,-0.149 21.172,-5.62 26.667,-12.189Z" style="fill:#fff;fill-rule:nonzero;"/><path d="M346.836,339.175c-0.911,-1.585 -1.632,-3.18 -2.161,-4.77c-0.351,-1.059 -0.619,-2.119 -0.802,-3.172c-0.09,-0.525 -0.161,-1.049 -0.208,-1.573c-0.441,-4.703 0.834,-9.241 3.795,-13.209c0.329,-0.441 0.679,-0.876 1.051,-1.302c5.607,-6.453 13.681,-8.331 22.142,-5.157c5.671,2.128 11,6.248 15.461,11.506c0.302,0.357 0.874,0.154 0.874,-0.313l0,-29.356c0,-1.839 -1.488,-3.329 -3.328,-3.329l-57.172,0c-9.351,0 -16.93,7.579 -16.93,16.93l0,40.519c0,1.838 1.49,3.329 3.331,3.329l41.526,0c0.467,0 0.668,-0.575 0.313,-0.878c-3.315,-2.835 -6.022,-5.983 -7.892,-9.225Z" style="fill:#fff;fill-rule:nonzero;"/><path d="M359.052,336.234c5.494,6.569 16.056,12.04 26.667,12.189c0.234,0.002 -2.884,0.016 0.179,0.014c0.315,0 0.559,-0.289 0.5,-0.598c-1.439,-7.611 -5.508,-14.893 -10.379,-20.082c-1,-1.065 -2.031,-2.04 -3.083,-2.914c-1.051,-0.872 -2.12,-1.642 -3.191,-2.293c-1.073,-0.65 -2.146,-1.182 -3.205,-1.579c-0.594,-0.223 -1.144,-0.378 -1.671,-0.5l-0.203,-0.05c-0.494,-0.104 -0.957,-0.163 -1.396,-0.19l-0.226,-0.012c-0.443,-0.016 -0.868,-0.004 -1.258,0.049l-0.045,0.01c-0.364,0.051 -0.701,0.136 -1.022,0.236l-0.297,0.102c-0.244,0.089 -0.475,0.191 -0.693,0.304l-0.221,0.108c-0.265,0.151 -0.516,0.315 -0.748,0.488l-0.195,0.158l-0.49,0.423l-0.183,0.177c-0.189,0.187 -0.368,0.378 -0.53,0.563c-0.299,0.343 -0.787,0.904 -1.21,1.699c-0.17,0.317 -0.329,0.673 -0.461,1.067c-0.132,0.392 -0.238,0.825 -0.301,1.295c-0.225,1.648 0.081,3.774 1.604,6.42c0.286,0.494 0.603,0.984 0.947,1.473c0.225,0.316 0.479,0.63 0.727,0.944l0.384,0.499Z" style="fill:#fff;fill-rule:nonzero;"/><path d="M459.147,288.5l-57.169,0c-1.841,0 -3.333,1.49 -3.333,3.329l0,29.356c0,0.467 0.575,0.668 0.878,0.313c4.459,-5.258 9.788,-9.378 15.461,-11.506c8.46,-3.174 16.533,-1.296 22.142,5.157c0.37,0.426 0.72,0.861 1.049,1.302c2.961,3.968 4.237,8.506 3.798,13.209c-0.05,0.524 -0.121,1.048 -0.211,1.573c-0.183,1.053 -0.449,2.113 -0.801,3.172c-0.53,1.59 -1.248,3.185 -2.162,4.77c-1.014,1.76 -2.276,3.492 -3.746,5.163c-0.979,1.115 -2.054,2.199 -3.211,3.247c-0.163,0.149 -0.378,0.332 -0.606,0.523c-0.648,0.556 -0.764,1.154 0.068,1.17l41.442,0c1.841,0 3.331,-1.491 3.331,-3.329l0,-40.521c0,-9.349 -7.579,-16.928 -16.93,-16.928Z" style="fill:#fff;fill-rule:nonzero;"/></g></g></svg>