<?xml version="1.0" encoding="UTF-8" standalone="no"?><!DOCTYPE svg PUBLIC "-//W3C//DTD SVG 1.1//EN" "http://www.w3.org/Graphics/SVG/1.1/DTD/svg11.dtd"><svg width="100%" height="100%" viewBox="0 0 900 600" version="1.1" xmlns="http://www.w3.org/2000/svg" xmlns:xlink="http://www.w3.org/1999/xlink" xml:space="preserve" xmlns:serif="http://www.serif.com/" style="fill-rule:evenodd;clip-rule:evenodd;stroke-linejoin:round;stroke-miterlimit:1.41421;"><rect id="logo-xchange" x="0" y="0" width="900" height="600" style="fill:none;"/><g><g><path d="M521.87,222.561c-0.423,0 -0.856,-0.109 -1.25,-0.339c-1.188,-0.693 -1.594,-2.218 -0.9,-3.408c6.698,-11.52 10.428,-24.525 10.852,-37.76c-13.235,0.424 -26.241,4.154 -37.761,10.852c-1.186,0.693 -2.713,0.288 -3.407,-0.901c-0.692,-1.191 -0.288,-2.716 0.901,-3.409c13.014,-7.568 27.816,-11.568 42.8,-11.568c1.376,0 2.49,1.117 2.49,2.493c0,14.985 -3.997,29.784 -11.565,42.8c-0.463,0.794 -1.3,1.24 -2.16,1.24Z" style="fill:#fff;fill-rule:nonzero;"/><path d="M521.876,222.561c-0.859,0 -1.696,-0.447 -2.159,-1.244c-6.812,-11.765 -16.531,-21.653 -28.162,-28.672c-5.867,3.523 -11.348,7.89 -16.314,12.996c-0.959,0.986 -2.539,1.008 -3.525,0.048c-0.987,-0.961 -1.009,-2.539 -0.049,-3.525c5.635,-5.796 11.913,-10.698 18.65,-14.575c0.77,-0.441 1.721,-0.442 2.491,0.005c12.936,7.493 23.733,18.289 31.224,31.224c0.69,1.192 0.283,2.716 -0.909,3.407c-0.393,0.227 -0.823,0.336 -1.247,0.336Z" style="fill:#fff;fill-rule:nonzero;"/><path d="M378.127,222.561c-0.86,0 -1.694,-0.446 -2.157,-1.24c-7.568,-13.016 -11.566,-27.816 -11.566,-42.8c0,-1.376 1.113,-2.493 2.491,-2.493c14.984,0 29.786,4 42.8,11.568c1.189,0.693 1.593,2.218 0.901,3.409c-0.691,1.189 -2.221,1.593 -3.407,0.901c-11.52,-6.698 -24.526,-10.428 -37.761,-10.852c0.424,13.235 4.154,26.24 10.852,37.76c0.694,1.19 0.288,2.715 -0.903,3.409c-0.394,0.229 -0.824,0.338 -1.25,0.338Z" style="fill:#fff;fill-rule:nonzero;"/><path d="M392.276,240.665c-0.625,0 -1.254,-0.235 -1.736,-0.706c-5.798,-5.635 -10.7,-11.911 -14.578,-18.65c-0.443,-0.771 -0.44,-1.721 0.006,-2.491c7.493,-12.936 18.291,-23.733 31.224,-31.224c1.192,-0.69 2.716,-0.283 3.405,0.908c0.691,1.192 0.284,2.717 -0.905,3.406c-11.767,6.813 -21.655,16.532 -28.674,28.163c3.524,5.867 7.891,11.349 12.997,16.313c0.986,0.96 1.008,2.538 0.049,3.524c-0.491,0.504 -1.139,0.757 -1.788,0.757Z" style="fill:#fff;fill-rule:nonzero;"/><path d="M533.105,347.222c-14.984,0 -29.786,-4 -42.8,-11.567c-1.189,-0.691 -1.593,-2.219 -0.901,-3.408c0.691,-1.189 2.218,-1.593 3.407,-0.901c11.52,6.699 24.526,10.428 37.761,10.851c-0.424,-13.236 -4.154,-26.24 -10.852,-37.759c-0.694,-1.19 -0.288,-2.715 0.9,-3.408c1.192,-0.692 2.717,-0.289 3.41,0.901c7.568,13.014 11.565,27.815 11.565,42.798c0,1.378 -1.114,2.493 -2.49,2.493Z" style="fill:#fff;fill-rule:nonzero;"/><path d="M491.561,335.993c-0.859,0 -1.696,-0.445 -2.158,-1.244c-0.691,-1.191 -0.284,-2.716 0.905,-3.406c11.767,-6.815 21.655,-16.533 28.672,-28.162c-3.522,-5.867 -7.889,-11.35 -12.995,-16.314c-0.986,-0.959 -1.008,-2.537 -0.049,-3.525c0.962,-0.986 2.541,-1.007 3.524,-0.048c5.798,5.636 10.7,11.91 14.575,18.647c0.443,0.772 0.443,1.723 -0.003,2.493c-7.491,12.933 -18.288,23.731 -31.224,31.224c-0.393,0.227 -0.823,0.335 -1.247,0.335Z" style="fill:#fff;fill-rule:nonzero;"/><path d="M366.895,347.222c-1.378,0 -2.491,-1.115 -2.491,-2.493c0,-14.982 3.998,-29.782 11.566,-42.798c0.691,-1.19 2.218,-1.593 3.407,-0.901c1.191,0.691 1.597,2.218 0.903,3.408c-6.698,11.52 -10.428,24.525 -10.852,37.759c13.235,-0.423 26.241,-4.152 37.761,-10.851c1.189,-0.692 2.716,-0.288 3.407,0.901c0.692,1.189 0.288,2.717 -0.901,3.408c-13.014,7.567 -27.816,11.567 -42.8,11.567Z" style="fill:#fff;fill-rule:nonzero;"/><path d="M408.442,335.993c-0.433,0 -0.864,-0.112 -1.25,-0.335c-12.933,-7.49 -23.731,-18.288 -31.224,-31.224c-0.69,-1.192 -0.283,-2.717 0.906,-3.407c1.192,-0.689 2.719,-0.283 3.409,0.908c6.814,11.766 16.531,21.654 28.162,28.671c5.87,-3.525 11.351,-7.892 16.311,-12.995c0.962,-0.986 2.542,-1.008 3.525,-0.049c0.988,0.96 1.009,2.538 0.051,3.524c-5.634,5.794 -11.906,10.697 -18.649,14.575c-0.385,0.221 -0.811,0.332 -1.241,0.332Z" style="fill:#fff;fill-rule:nonzero;"/><path d="M507.724,287.573c-0.314,0 -0.63,-0.058 -0.938,-0.183c-1.277,-0.518 -1.89,-1.972 -1.371,-3.248c2.934,-7.226 4.423,-14.797 4.423,-22.503c0,-7.723 -1.489,-15.303 -4.423,-22.53c-0.519,-1.275 0.094,-2.729 1.371,-3.247c1.281,-0.517 2.73,0.096 3.249,1.372c3.178,7.823 4.789,16.035 4.789,24.405c0,8.353 -1.611,16.555 -4.789,24.379c-0.395,0.969 -1.328,1.555 -2.311,1.555Z" style="fill:#fff;fill-rule:nonzero;"/><path d="M473.453,206.395c-0.312,0 -0.629,-0.059 -0.937,-0.184c-7.227,-2.936 -14.799,-4.424 -22.505,-4.424c-7.721,0 -15.3,1.488 -22.527,4.424c-1.28,0.521 -2.73,-0.095 -3.248,-1.371c-0.518,-1.275 0.093,-2.73 1.372,-3.248c7.825,-3.179 16.036,-4.79 24.403,-4.79c8.353,0 16.556,1.611 24.381,4.792c1.276,0.516 1.89,1.971 1.372,3.246c-0.393,0.968 -1.326,1.555 -2.311,1.555Z" style="fill:#fff;fill-rule:nonzero;"/><path d="M392.276,287.573c-0.983,0 -1.916,-0.586 -2.311,-1.555c-3.178,-7.822 -4.79,-16.025 -4.79,-24.379c0,-8.372 1.612,-16.583 4.79,-24.407c0.519,-1.274 1.977,-1.891 3.249,-1.37c1.277,0.518 1.89,1.973 1.371,3.247c-2.934,7.225 -4.426,14.805 -4.426,22.53c0,7.707 1.492,15.277 4.426,22.502c0.519,1.277 -0.094,2.73 -1.371,3.248c-0.305,0.126 -0.624,0.184 -0.938,0.184Z" style="fill:#fff;fill-rule:nonzero;"/><path d="M450.011,326.451c-8.367,0 -16.578,-1.613 -24.403,-4.792c-1.279,-0.519 -1.89,-1.972 -1.372,-3.247c0.518,-1.276 1.968,-1.889 3.248,-1.372c7.227,2.935 14.806,4.425 22.527,4.425c7.706,0 15.278,-1.49 22.505,-4.424c1.28,-0.521 2.73,0.095 3.248,1.371c0.518,1.275 -0.096,2.728 -1.372,3.247c-7.825,3.179 -16.028,4.792 -24.381,4.792Z" style="fill:#fff;fill-rule:nonzero;"/><path d="M474.072,206.869c-13.347,14.32 -20.923,32.723 -21.528,52.237c19.484,-0.604 37.878,-8.191 52.211,-21.552c-6.006,-13.625 -17.058,-24.677 -30.683,-30.685Zm-24.061,57.263c-1.377,0 -2.491,-1.117 -2.491,-2.493c0,-22.322 8.574,-43.443 24.147,-59.473c0.706,-0.731 1.783,-0.954 2.725,-0.572c16.102,6.549 29.09,19.538 35.64,35.638c0.385,0.941 0.158,2.021 -0.572,2.727c-16.047,15.588 -37.159,24.173 -59.449,24.173Z" style="fill:#fff;fill-rule:nonzero;"/><path d="M395.245,237.554c14.333,13.361 32.734,20.948 52.236,21.552c-0.607,-19.5 -8.192,-37.903 -21.553,-52.237c-13.625,6.008 -24.677,17.06 -30.683,30.685Zm54.766,26.578c-22.303,0 -43.426,-8.586 -59.471,-24.173c-0.73,-0.708 -0.957,-1.786 -0.572,-2.727c6.55,-16.1 19.538,-29.09 35.637,-35.638c0.945,-0.382 2.019,-0.159 2.727,0.572c15.588,16.046 24.174,37.168 24.174,59.473c0,1.376 -1.117,2.493 -2.495,2.493Z" style="fill:#fff;fill-rule:nonzero;"/><path d="M452.544,264.17c0.605,19.499 8.184,37.893 21.528,52.211c13.625,-6.005 24.677,-17.059 30.683,-30.683c-14.319,-13.344 -32.712,-20.924 -52.211,-21.528Zm20.909,57.672c-0.66,0 -1.308,-0.262 -1.786,-0.756c-15.573,-16.03 -24.147,-37.142 -24.147,-59.447c0,-1.378 1.114,-2.493 2.491,-2.493c22.307,0 43.417,8.576 59.449,24.146c0.73,0.709 0.957,1.787 0.572,2.728c-6.55,16.098 -19.538,29.088 -35.64,35.639c-0.303,0.124 -0.623,0.183 -0.939,0.183Z" style="fill:#fff;fill-rule:nonzero;"/><path d="M395.245,285.698c6.006,13.624 17.058,24.678 30.683,30.683c13.361,-14.334 20.946,-32.725 21.553,-52.211c-19.515,0.604 -37.917,8.183 -52.236,21.528Zm31.299,36.144c-0.316,0 -0.635,-0.059 -0.939,-0.183c-16.099,-6.551 -29.087,-19.539 -35.637,-35.639c-0.385,-0.941 -0.158,-2.019 0.572,-2.728c16.029,-15.57 37.151,-24.146 59.471,-24.146c1.378,0 2.495,1.115 2.495,2.493c0,22.288 -8.586,43.401 -24.174,59.447c-0.477,0.494 -1.125,0.756 -1.788,0.756Z" style="fill:#fff;fill-rule:nonzero;"/><path d="M356.363,412.477l-7.015,-11.609l-7.272,11.609l-5.676,0l10.127,-15.073l-10.009,-15.45l6.14,0l7.042,11.581l7.215,-11.581l5.704,0l-10.127,15.101l10.127,15.422l-6.256,0Z" style="fill:#fff;fill-rule:nonzero;"/><path d="M400.573,405.437c-1.28,2.056 -2.585,3.611 -3.915,4.669c-1.328,1.057 -2.875,1.858 -4.64,2.401c-1.765,0.544 -3.841,0.815 -6.227,0.815c-6.033,0 -10.482,-1.741 -13.342,-5.223c-2.862,-3.484 -4.292,-8.735 -4.292,-15.757c0,-7.002 1.42,-12.251 4.263,-15.743c2.841,-3.492 7.221,-5.237 13.138,-5.237c2.347,0 4.443,0.291 6.286,0.873c1.843,0.581 3.398,1.382 4.671,2.4c1.268,1.018 2.429,2.449 3.476,4.293l-4.423,2.91c-0.854,-1.436 -1.717,-2.527 -2.589,-3.275c-0.874,-0.746 -1.921,-1.338 -3.143,-1.775c-1.223,-0.436 -2.649,-0.654 -4.278,-0.654c-4.035,0 -6.999,1.343 -8.889,4.029c-1.893,2.688 -2.838,6.747 -2.838,12.179c0,5.355 0.932,9.393 2.794,12.119c1.863,2.725 4.859,4.089 8.991,4.089c2.289,0 4.278,-0.451 5.965,-1.354c1.689,-0.902 3.201,-2.459 4.539,-4.669l4.453,2.91Z" style="fill:#fff;fill-rule:nonzero;"/><path d="M426.72,412.477l0,-17.981c0,-2.91 -0.142,-4.846 -0.423,-5.806c-0.281,-0.961 -0.75,-1.663 -1.41,-2.109c-0.66,-0.447 -1.63,-0.67 -2.91,-0.67c-1.28,0 -2.774,0.486 -4.481,1.455c-1.707,0.97 -3.356,2.154 -4.948,3.55l0,21.561l-5.004,0l0,-43.327l5.004,0l0,17.343c1.418,-1.416 3.066,-2.673 4.948,-3.768c1.881,-1.097 3.773,-1.644 5.674,-1.644c2.949,0 5.111,0.838 6.489,2.516c1.377,1.679 2.066,4.516 2.066,8.512l0,20.368l-5.005,0Z" style="fill:#fff;fill-rule:nonzero;"/><path d="M458.342,396.997l-4.888,0.466c-3.318,0.292 -5.656,0.936 -7.014,1.935c-1.358,0.999 -2.036,2.459 -2.036,4.38c0,1.823 0.455,3.133 1.368,3.928c0.911,0.796 2.278,1.193 4.102,1.193c0.756,0 1.504,-0.142 2.24,-0.423c0.738,-0.281 1.464,-0.63 2.182,-1.047c0.718,-0.417 1.412,-0.893 2.081,-1.426c0.671,-0.534 1.325,-1.051 1.965,-1.557l0,-7.449Zm0,15.48l0,-3.811c-1.553,1.358 -3.113,2.483 -4.686,3.376c-1.57,0.892 -3.345,1.338 -5.325,1.338c-2.91,0 -5.156,-0.888 -6.737,-2.664c-1.58,-1.775 -2.371,-4.048 -2.371,-6.822c0,-2.095 0.412,-3.836 1.238,-5.224c0.823,-1.386 2.016,-2.483 3.578,-3.288c1.561,-0.805 3.827,-1.382 6.795,-1.731l7.508,-0.669l0,-1.484c0,-2.347 -0.654,-3.948 -1.965,-4.801c-1.309,-0.854 -3.118,-1.281 -5.426,-1.281c-2.056,0 -3.643,0.359 -4.759,1.077c-1.116,0.718 -1.914,1.494 -2.4,2.329l-4.103,-2.503c0.932,-1.687 2.352,-2.984 4.264,-3.885c1.909,-0.903 4.282,-1.353 7.114,-1.353c4.384,0 7.527,0.795 9.427,2.386c1.901,1.59 2.852,4.346 2.852,8.263l0,20.747l-5.004,0Z" style="fill:#fff;fill-rule:nonzero;"/><path d="M491.754,412.477l0,-17.981c0,-2.91 -0.146,-4.85 -0.437,-5.821c-0.291,-0.969 -0.766,-1.674 -1.426,-2.11c-0.66,-0.437 -1.619,-0.654 -2.881,-0.654c-1.279,0 -2.773,0.486 -4.48,1.455c-1.707,0.97 -3.356,2.154 -4.948,3.55l0,21.561l-5.005,0l0,-30.523l5.005,0l0,4.539c1.417,-1.416 3.066,-2.673 4.948,-3.768c1.881,-1.097 3.772,-1.644 5.674,-1.644c2.948,0 5.111,0.838 6.488,2.516c1.378,1.679 2.066,4.516 2.066,8.512l0,20.368l-5.004,0Z" style="fill:#fff;fill-rule:nonzero;"/><path d="M525.433,388.822c-2.658,-2.193 -5.277,-3.289 -7.857,-3.289c-2.541,0 -4.465,0.99 -5.776,2.968c-1.308,1.979 -1.964,4.743 -1.964,8.293c0,3.918 0.612,6.764 1.834,8.539c1.221,1.775 3.036,2.663 5.441,2.663c2.794,0 5.568,-1.309 8.322,-3.927l0,-15.247Zm5.034,22.987c0,4.094 -1.014,7.143 -3.041,9.151c-2.027,2.007 -5.387,3.012 -10.082,3.012c-4.481,0 -8.177,-0.951 -11.088,-2.852l1.863,-4.044c2.62,1.823 5.694,2.734 9.225,2.734c2.852,0 4.912,-0.596 6.183,-1.789c1.27,-1.193 1.906,-3.157 1.906,-5.893l0,-3.578c-1.145,1.105 -2.512,2.036 -4.104,2.794c-1.59,0.756 -3.316,1.133 -5.179,1.133c-3.744,0 -6.595,-1.333 -8.554,-4.001c-1.96,-2.667 -2.939,-6.523 -2.939,-11.565c0,-4.967 1.096,-8.847 3.288,-11.64c2.192,-2.793 5.189,-4.19 8.991,-4.19c3.085,0 5.917,1.126 8.497,3.375l0,-2.502l5.034,0l0,29.855Z" style="fill:#fff;fill-rule:nonzero;"/><path d="M558.71,393.884c-0.038,-2.736 -0.616,-4.86 -1.731,-6.372c-1.117,-1.514 -2.924,-2.27 -5.427,-2.27c-2.385,0 -4.175,0.684 -5.369,2.05c-1.192,1.368 -1.982,3.566 -2.371,6.592l14.898,0Zm-14.956,3.929c0,4.034 0.689,6.91 2.066,8.627c1.377,1.717 3.589,2.575 6.634,2.575c1.358,0 2.551,-0.286 3.579,-0.858c1.028,-0.573 2.017,-1.499 2.968,-2.778l4.132,2.559c-1.164,1.747 -2.58,3.089 -4.248,4.03c-1.669,0.941 -3.928,1.412 -6.78,1.412c-4.539,0 -7.929,-1.318 -10.17,-3.958c-2.239,-2.637 -3.36,-6.624 -3.36,-11.959c0,-5.587 1.089,-9.714 3.273,-12.382c2.182,-2.667 5.476,-4 9.878,-4c3.958,0 6.926,1.138 8.905,3.419c1.978,2.278 2.969,5.786 2.969,10.519l0,2.794l-19.846,0Z" style="fill:#fff;fill-rule:nonzero;"/></g></g></svg>