<?xml version="1.0" encoding="UTF-8" standalone="no"?><!DOCTYPE svg PUBLIC "-//W3C//DTD SVG 1.1//EN" "http://www.w3.org/Graphics/SVG/1.1/DTD/svg11.dtd"><svg width="100%" height="100%" viewBox="0 0 900 600" version="1.1" xmlns="http://www.w3.org/2000/svg" xmlns:xlink="http://www.w3.org/1999/xlink" xml:space="preserve" xmlns:serif="http://www.serif.com/" style="fill-rule:evenodd;clip-rule:evenodd;stroke-linejoin:round;stroke-miterlimit:2;"><rect id="logo-gu" x="0" y="0" width="900" height="600" style="fill:none;"/><g><path d="M356.309,283.74c-5.059,0 -8.713,1.404 -10.964,4.212c-2.251,2.808 -3.376,6.648 -3.376,11.521c0,2.367 0.278,4.513 0.835,6.439c0.557,1.926 1.392,3.585 2.506,4.978c1.114,1.392 2.506,2.471 4.177,3.237c1.671,0.765 3.62,1.148 5.847,1.148c1.207,0 2.24,-0.023 3.098,-0.069c0.859,-0.047 1.613,-0.14 2.263,-0.279l0,-16.777l10.859,0l0,23.878c-1.299,0.51 -3.387,1.056 -6.265,1.636c-2.877,0.58 -6.427,0.87 -10.651,0.87c-3.62,0 -6.903,-0.557 -9.85,-1.671c-2.947,-1.114 -5.465,-2.738 -7.553,-4.873c-2.088,-2.135 -3.701,-4.757 -4.838,-7.866c-1.137,-3.11 -1.706,-6.66 -1.706,-10.651c0,-4.038 0.627,-7.611 1.88,-10.72c1.253,-3.11 2.97,-5.744 5.151,-7.902c2.181,-2.158 4.746,-3.794 7.693,-4.907c2.947,-1.114 6.091,-1.671 9.432,-1.671c2.274,0 4.328,0.151 6.161,0.452c1.833,0.302 3.411,0.65 4.734,1.045c1.322,0.394 2.413,0.8 3.272,1.218c0.858,0.418 1.473,0.742 1.844,0.974l-3.132,8.702c-1.485,-0.789 -3.191,-1.473 -5.117,-2.053c-1.926,-0.581 -4.026,-0.871 -6.3,-0.871Z" style="fill:#fff;fill-rule:nonzero;"/><path d="M394.945,316.389c1.021,0 1.995,-0.023 2.923,-0.07c0.929,-0.046 1.671,-0.116 2.228,-0.208l0,-7.867c-0.418,-0.093 -1.044,-0.185 -1.88,-0.278c-0.835,-0.093 -1.601,-0.139 -2.297,-0.139c-0.974,0 -1.891,0.058 -2.75,0.174c-0.858,0.116 -1.612,0.336 -2.262,0.661c-0.65,0.325 -1.16,0.766 -1.532,1.323c-0.371,0.557 -0.556,1.253 -0.556,2.088c0,1.624 0.545,2.75 1.635,3.376c1.091,0.627 2.588,0.94 4.491,0.94Zm-0.836,-30.351c3.063,0 5.616,0.348 7.658,1.044c2.042,0.696 3.678,1.694 4.907,2.993c1.23,1.3 2.1,2.878 2.611,4.734c0.51,1.856 0.766,3.921 0.766,6.196l0,21.58c-1.485,0.325 -3.551,0.707 -6.196,1.148c-2.645,0.441 -5.847,0.662 -9.607,0.662c-2.366,0 -4.513,-0.209 -6.439,-0.627c-1.926,-0.418 -3.585,-1.102 -4.977,-2.053c-1.392,-0.952 -2.46,-2.193 -3.202,-3.725c-0.743,-1.531 -1.114,-3.411 -1.114,-5.638c0,-2.135 0.429,-3.945 1.288,-5.43c0.858,-1.485 2.007,-2.669 3.445,-3.551c1.439,-0.881 3.087,-1.52 4.943,-1.914c1.856,-0.394 3.782,-0.592 5.778,-0.592c1.346,0 2.541,0.058 3.585,0.174c1.044,0.116 1.891,0.267 2.541,0.453l0,-0.975c0,-1.763 -0.534,-3.179 -1.601,-4.246c-1.068,-1.068 -2.924,-1.601 -5.569,-1.601c-1.764,0 -3.504,0.127 -5.221,0.383c-1.717,0.255 -3.202,0.614 -4.456,1.079l-1.322,-8.354c0.603,-0.186 1.357,-0.383 2.262,-0.592c0.905,-0.209 1.891,-0.394 2.959,-0.557c1.067,-0.162 2.193,-0.301 3.376,-0.417c1.184,-0.116 2.379,-0.174 3.585,-0.174Z" style="fill:#fff;fill-rule:nonzero;"/><path d="M451.123,287.012c-2.094,7.054 -4.28,13.668 -6.56,19.84c-2.28,6.172 -4.77,12.159 -7.469,17.96c-0.976,2.089 -1.952,3.864 -2.928,5.326c-0.976,1.462 -2.045,2.668 -3.207,3.62c-1.162,0.951 -2.475,1.647 -3.938,2.088c-1.464,0.441 -3.172,0.661 -5.124,0.661c-1.627,0 -3.126,-0.15 -4.497,-0.452c-1.371,-0.302 -2.498,-0.638 -3.381,-1.009l1.81,-8.284c1.068,0.371 2.02,0.626 2.855,0.765c0.836,0.139 1.718,0.209 2.647,0.209c1.857,0 3.285,-0.499 4.283,-1.497c0.998,-0.997 1.846,-2.378 2.543,-4.142c-2.369,-4.64 -4.737,-9.85 -7.105,-15.628c-2.368,-5.778 -4.596,-12.263 -6.685,-19.457l10.999,0c0.466,1.81 1.014,3.771 1.643,5.883c0.63,2.111 1.294,4.246 1.993,6.404c0.699,2.158 1.41,4.258 2.132,6.3c0.723,2.042 1.411,3.898 2.063,5.569c0.606,-1.671 1.235,-3.527 1.887,-5.569c0.653,-2.042 1.294,-4.142 1.923,-6.3c0.629,-2.158 1.235,-4.293 1.817,-6.404c0.582,-2.112 1.106,-4.073 1.573,-5.883l10.726,0Z" style="fill:#fff;fill-rule:nonzero;"/><path d="M492.891,324.603c-3.388,0 -6.312,-0.475 -8.772,-1.427c-2.459,-0.951 -4.49,-2.274 -6.091,-3.968c-1.601,-1.693 -2.784,-3.712 -3.55,-6.056c-0.766,-2.344 -1.149,-4.931 -1.149,-7.762l0,-30.003l10.86,0l0,29.098c0,1.949 0.221,3.608 0.661,4.978c0.441,1.369 1.045,2.482 1.81,3.341c0.766,0.859 1.694,1.473 2.785,1.845c1.091,0.371 2.286,0.557 3.585,0.557c2.645,0 4.792,-0.812 6.439,-2.437c1.648,-1.624 2.472,-4.385 2.472,-8.284l0,-29.098l10.859,0l0,30.003c0,2.831 -0.394,5.43 -1.183,7.797c-0.789,2.367 -1.996,4.397 -3.62,6.091c-1.624,1.694 -3.69,3.005 -6.196,3.933c-2.506,0.928 -5.476,1.392 -8.91,1.392Z" style="fill:#fff;fill-rule:nonzero;"/><path d="M532.919,300.162c1.02,-1.108 2.075,-2.261 3.164,-3.461c1.089,-1.2 2.144,-2.388 3.164,-3.564c1.02,-1.177 1.982,-2.296 2.886,-3.357c0.904,-1.06 1.68,-1.983 2.329,-2.768l12.334,0c-2.46,2.825 -4.861,5.523 -7.205,8.093c-2.344,2.57 -4.908,5.221 -7.692,7.953c1.392,1.255 2.831,2.755 4.316,4.498c1.485,1.743 2.923,3.544 4.316,5.404c1.392,1.86 2.668,3.719 3.829,5.578c1.16,1.86 2.134,3.557 2.923,5.091l-11.926,0c-0.742,-1.21 -1.587,-2.547 -2.536,-4.013c-0.95,-1.465 -1.958,-2.931 -3.023,-4.396c-1.066,-1.465 -2.189,-2.872 -3.371,-4.221c-1.181,-1.349 -2.35,-2.489 -3.508,-3.419l0,16.049l-10.373,0l0,-52.349l10.373,-1.671l0,30.553Z" style="fill:#fff;fill-rule:nonzero;"/><path d="M584.92,296.201c-0.928,-0.232 -2.019,-0.476 -3.272,-0.731c-1.253,-0.255 -2.599,-0.383 -4.038,-0.383c-0.649,0 -1.427,0.058 -2.332,0.174c-0.905,0.116 -1.589,0.244 -2.053,0.383l0,27.985l-10.373,0l0,-34.668c1.857,-0.649 4.05,-1.264 6.579,-1.844c2.529,-0.58 5.348,-0.871 8.458,-0.871c0.557,0 1.23,0.035 2.019,0.105c0.789,0.069 1.578,0.162 2.367,0.278c0.788,0.116 1.577,0.256 2.366,0.418c0.789,0.162 1.462,0.36 2.019,0.592l-1.74,8.562Z" style="fill:#fff;fill-rule:nonzero;"/><path d="M605.525,316.389c1.021,0 1.996,-0.023 2.924,-0.07c0.928,-0.046 1.671,-0.116 2.228,-0.208l0,-7.867c-0.418,-0.093 -1.044,-0.185 -1.88,-0.278c-0.835,-0.093 -1.601,-0.139 -2.297,-0.139c-0.975,0 -1.891,0.058 -2.75,0.174c-0.858,0.116 -1.612,0.336 -2.262,0.661c-0.65,0.325 -1.16,0.766 -1.532,1.323c-0.371,0.557 -0.557,1.253 -0.557,2.088c0,1.624 0.546,2.75 1.636,3.376c1.091,0.627 2.588,0.94 4.49,0.94Zm-0.835,-30.351c3.063,0 5.616,0.348 7.658,1.044c2.042,0.696 3.677,1.694 4.907,2.993c1.23,1.3 2.1,2.878 2.611,4.734c0.51,1.856 0.766,3.921 0.766,6.196l0,21.58c-1.486,0.325 -3.551,0.707 -6.196,1.148c-2.645,0.441 -5.848,0.662 -9.607,0.662c-2.367,0 -4.513,-0.209 -6.439,-0.627c-1.926,-0.418 -3.585,-1.102 -4.977,-2.053c-1.393,-0.952 -2.46,-2.193 -3.203,-3.725c-0.742,-1.531 -1.113,-3.411 -1.113,-5.638c0,-2.135 0.429,-3.945 1.287,-5.43c0.859,-1.485 2.008,-2.669 3.446,-3.551c1.439,-0.881 3.087,-1.52 4.943,-1.914c1.856,-0.394 3.782,-0.592 5.778,-0.592c1.346,0 2.541,0.058 3.585,0.174c1.044,0.116 1.891,0.267 2.541,0.453l0,-0.975c0,-1.763 -0.534,-3.179 -1.601,-4.246c-1.068,-1.068 -2.924,-1.601 -5.569,-1.601c-1.764,0 -3.504,0.127 -5.221,0.383c-1.718,0.255 -3.203,0.614 -4.456,1.079l-1.322,-8.354c0.603,-0.186 1.357,-0.383 2.262,-0.592c0.905,-0.209 1.891,-0.394 2.959,-0.557c1.067,-0.162 2.193,-0.301 3.376,-0.417c1.183,-0.116 2.378,-0.174 3.585,-0.174Z" style="fill:#fff;fill-rule:nonzero;"/><path d="M640.402,323.629l-10.373,0l0,-36.617l10.373,0l0,36.617Zm0.974,-47.198c0,1.903 -0.615,3.399 -1.844,4.49c-1.23,1.091 -2.68,1.636 -4.351,1.636c-1.671,0 -3.121,-0.545 -4.351,-1.636c-1.23,-1.091 -1.845,-2.587 -1.845,-4.49c0,-1.903 0.615,-3.4 1.845,-4.49c1.23,-1.091 2.68,-1.636 4.351,-1.636c1.671,0 3.121,0.545 4.351,1.636c1.229,1.09 1.844,2.587 1.844,4.49Z" style="fill:#fff;fill-rule:nonzero;"/><path d="M650.148,288.265c1.763,-0.51 4.037,-0.986 6.822,-1.427c2.784,-0.441 5.708,-0.661 8.771,-0.661c3.11,0 5.697,0.406 7.762,1.218c2.065,0.812 3.701,1.961 4.908,3.446c1.206,1.485 2.065,3.249 2.575,5.291c0.511,2.042 0.766,4.316 0.766,6.822l0,20.675l-10.372,0l0,-19.422c0,-3.342 -0.441,-5.709 -1.323,-7.101c-0.882,-1.392 -2.529,-2.088 -4.942,-2.088c-0.743,0 -1.532,0.035 -2.367,0.104c-0.836,0.07 -1.578,0.151 -2.228,0.244l0,28.263l-10.372,0l0,-35.364Z" style="fill:#fff;fill-rule:nonzero;"/><path d="M689.41,305.599c0,-3.249 0.499,-6.091 1.496,-8.528c0.998,-2.436 2.309,-4.467 3.934,-6.091c1.624,-1.624 3.492,-2.854 5.603,-3.689c2.112,-0.836 4.282,-1.253 6.509,-1.253c5.198,0 9.305,1.589 12.322,4.768c3.016,3.179 4.525,7.855 4.525,14.027c0,0.604 -0.023,1.265 -0.07,1.984c-0.046,0.72 -0.093,1.358 -0.139,1.915l-23.529,0c0.232,2.134 1.229,3.828 2.993,5.081c1.764,1.253 4.13,1.88 7.101,1.88c1.902,0 3.77,-0.174 5.603,-0.522c1.834,-0.348 3.33,-0.777 4.49,-1.288l1.393,8.423c-0.557,0.279 -1.3,0.557 -2.228,0.836c-0.928,0.278 -1.961,0.522 -3.098,0.731c-1.137,0.208 -2.355,0.382 -3.654,0.522c-1.3,0.139 -2.599,0.208 -3.899,0.208c-3.295,0 -6.161,-0.487 -8.597,-1.461c-2.436,-0.975 -4.455,-2.309 -6.056,-4.003c-1.601,-1.694 -2.785,-3.701 -3.551,-6.022c-0.765,-2.32 -1.148,-4.826 -1.148,-7.518Zm24.364,-3.968c-0.046,-0.882 -0.197,-1.74 -0.452,-2.576c-0.255,-0.835 -0.65,-1.578 -1.183,-2.227c-0.534,-0.65 -1.207,-1.184 -2.019,-1.601c-0.812,-0.418 -1.822,-0.627 -3.028,-0.627c-1.161,0 -2.158,0.197 -2.994,0.592c-0.835,0.394 -1.531,0.916 -2.088,1.566c-0.557,0.65 -0.986,1.404 -1.288,2.263c-0.302,0.858 -0.522,1.728 -0.661,2.61l13.713,0Z" style="fill:#fff;fill-rule:nonzero;"/><path d="M294.945,303.055c-1.596,31.375 -27.571,56.355 -59.333,56.355c-32.79,0 -59.411,-26.621 -59.411,-59.41c0,-32.77 26.589,-59.379 59.411,-59.41l0,21.597c-20.87,0 -37.813,16.944 -37.813,37.813c0,20.869 16.943,37.813 37.813,37.813c20.869,0 37.812,-16.944 37.812,-37.813l21.598,0l-0.077,3.055Zm-59.333,-40.868l18.906,0l0,18.907l18.906,0l0,18.906l-37.812,0l0,-37.813Z" style="fill:#fff;"/></g></svg>