<?xml version="1.0" encoding="UTF-8" standalone="no"?><!DOCTYPE svg PUBLIC "-//W3C//DTD SVG 1.1//EN" "http://www.w3.org/Graphics/SVG/1.1/DTD/svg11.dtd"><svg width="100%" height="100%" viewBox="0 0 900 600" version="1.1" xmlns="http://www.w3.org/2000/svg" xmlns:xlink="http://www.w3.org/1999/xlink" xml:space="preserve" xmlns:serif="http://www.serif.com/" style="fill-rule:evenodd;clip-rule:evenodd;stroke-linejoin:round;stroke-miterlimit:1.41421;"><rect id="logo-jrs-2" x="0" y="0" width="900" height="600" style="fill:none;"/><g><path d="M469.51,231.722l0,4.595l-3.975,0.784l0,21.219c0,3.672 -1.169,6.581 -3.505,8.732c-2.336,2.147 -5.289,3.223 -8.859,3.223c-3.874,0 -6.943,-0.967 -9.202,-2.897c-2.26,-1.932 -3.347,-4.778 -3.261,-8.538l0.049,-0.153l7.241,0c0,1.999 0.467,3.456 1.4,4.369c0.934,0.916 2.194,1.373 3.773,1.373c1.377,0 2.546,-0.544 3.505,-1.633c0.959,-1.088 1.439,-2.578 1.439,-4.476l0,-21.219l-3.974,-0.784l0,-4.595l15.369,0Z" style="fill:#fff;fill-rule:nonzero;"/><path d="M483.269,253.855l8.512,0l-4.179,-13.388l-0.153,0l-4.18,13.388Zm-13.461,11.304l2.652,-0.39l11.294,-33.047l7.62,0l11.216,33.047l2.652,0.39l0,4.569l-12.644,0l0,-4.569l2.574,-0.47l-1.631,-5.222l-12.032,0l-1.631,5.222l2.575,0.47l0,4.569l-12.645,0l0,-4.569Z" style="fill:#fff;fill-rule:nonzero;"/><path d="M519.992,250.072l6.272,0c2.071,0 3.64,-0.579 4.703,-1.736c1.063,-1.155 1.592,-2.631 1.592,-4.423c0,-1.827 -0.529,-3.337 -1.592,-4.529c-1.063,-1.192 -2.632,-1.79 -4.703,-1.79l-6.272,0l0,12.478Zm6.272,-18.35c4.249,0 7.599,1.118 10.054,3.356c2.458,2.235 3.684,5.161 3.684,8.782c0,3.637 -1.226,6.56 -3.684,8.768c-2.455,2.212 -5.805,3.316 -10.054,3.316l-6.272,0l0,8.432l3.977,0.783l0,4.569l-15.372,0l0,-4.569l3.951,-0.783l0,-27.275l-3.951,-0.784l0,-4.595l17.667,0Z" style="fill:#fff;fill-rule:nonzero;"/><path d="M552.297,253.855l8.514,0l-4.182,-13.388l-0.15,0l-4.182,13.388Zm-13.459,11.304l2.653,-0.39l11.291,-33.047l7.622,0l11.216,33.047l2.65,0.39l0,4.569l-12.642,0l0,-4.569l2.574,-0.47l-1.633,-5.222l-12.03,0l-1.633,5.222l2.577,0.47l0,4.569l-12.645,0l0,-4.569Z" style="fill:#fff;fill-rule:nonzero;"/><path d="M615.556,231.722l0,4.595l-3.975,0.784l0,32.627l-7.423,0l-14.985,-25.582l-0.151,0.027l0,20.203l3.975,0.783l0,4.569l-15.37,0l0,-4.569l3.952,-0.783l0,-27.275l-3.952,-0.784l0,-4.595l11.395,0l14.988,25.579l0.148,-0.027l0,-20.173l-3.972,-0.784l0,-4.595l15.37,0Z" style="fill:#fff;fill-rule:nonzero;"/><path d="M454.75,297.481l5.146,0c2.074,0 3.63,-0.452 4.667,-1.357c1.037,-0.905 1.553,-2.211 1.553,-3.916c0,-1.704 -0.513,-3.066 -1.54,-4.085c-1.029,-1.017 -2.546,-1.527 -4.55,-1.527l-5.276,0l0,10.885Zm5.276,-16.757c4.213,0 7.519,0.987 9.914,2.962c2.396,1.976 3.596,4.702 3.596,8.185c0,1.912 -0.503,3.573 -1.503,4.983c-1.004,1.41 -2.474,2.549 -4.413,3.422c2.193,0.661 3.77,1.76 4.729,3.3c0.962,1.54 1.441,3.449 1.441,5.729l0,1.93c0,0.836 0.161,1.484 0.485,1.946c0.322,0.462 0.858,0.735 1.605,0.82l0.918,0.133l0,4.595l-3.848,0c-2.432,0 -4.14,-0.671 -5.125,-2.009c-0.986,-1.341 -1.478,-3.072 -1.478,-5.196l0,-2.169c0,-1.842 -0.48,-3.292 -1.439,-4.343c-0.962,-1.054 -2.318,-1.606 -4.068,-1.656l-6.09,0l0,10.021l3.974,0.784l0,4.568l-15.369,0l0,-4.568l3.949,-0.784l0,-27.275l-3.949,-0.783l0,-4.595l16.671,0Z" style="fill:#fff;fill-rule:nonzero;"/><path d="M505.413,299.387c0,-3.935 -0.801,-7.126 -2.398,-9.581c-1.597,-2.453 -3.959,-3.68 -7.086,-3.68c-3.126,0 -5.46,1.219 -6.997,3.653c-1.538,2.437 -2.308,5.639 -2.308,9.608l0,0.626c0,4.004 0.778,7.227 2.334,9.669c1.553,2.445 3.886,3.669 6.997,3.669c3.145,0 5.507,-1.224 7.086,-3.669c1.582,-2.442 2.372,-5.665 2.372,-9.669l0,-0.626Zm7.415,0.626c0,5.57 -1.553,10.171 -4.664,13.808c-3.108,3.637 -7.179,5.455 -12.209,5.455c-5.014,0 -9.064,-1.818 -12.146,-5.455c-3.086,-3.637 -4.628,-8.238 -4.628,-13.808l0,-0.573c0,-5.535 1.54,-10.128 4.615,-13.781c3.075,-3.656 7.119,-5.485 12.133,-5.485c5.03,0 9.106,1.829 12.222,5.485c3.119,3.653 4.677,8.246 4.677,13.781l0,0.573Z" style="fill:#fff;fill-rule:nonzero;"/><path d="M528.094,285.319l-3.033,0.443l5.761,12.475l0.153,0l5.763,-12.475l-3.01,-0.443l0,-4.595l14.045,0l0,4.595l-3.158,0.52l-10.096,19.526l0,8.012l3.977,0.784l0,4.568l-15.372,0l0,-4.568l3.977,-0.784l0,-8.405l-9.917,-19.133l-3.134,-0.52l0,-4.595l14.044,0l0,4.595Z" style="fill:#fff;fill-rule:nonzero;"/><path d="M559.733,302.857l8.514,0l-4.179,-13.388l-0.153,0l-4.182,13.388Zm-13.459,11.304l2.65,-0.391l11.293,-33.046l7.623,0l11.216,33.046l2.65,0.391l0,4.568l-12.645,0l0,-4.568l2.577,-0.47l-1.633,-5.222l-12.03,0l-1.631,5.222l2.572,0.47l0,4.568l-12.642,0l0,-4.568Z" style="fill:#fff;fill-rule:nonzero;"/><path d="M585.063,318.729l0,-4.568l3.951,-0.784l0,-27.275l-3.951,-0.783l0,-4.595l15.37,0l0,4.595l-3.975,0.783l0,26.782l10.477,0l0.355,-4.779l5.686,0l0,10.624l-27.913,0Z" style="fill:#fff;fill-rule:nonzero;"/><path d="M471.548,341.863l-5.585,0l-0.967,-5.219c-0.646,-0.417 -1.589,-0.783 -2.831,-1.097c-1.239,-0.316 -2.557,-0.47 -3.951,-0.47c-2.038,0 -3.615,0.438 -4.727,1.317c-1.112,0.879 -1.67,2.015 -1.67,3.406c0,1.29 0.581,2.344 1.745,3.173c1.164,0.825 3.174,1.699 6.028,2.623c4.097,1.165 7.203,2.705 9.318,4.619c2.116,1.914 3.174,4.428 3.174,7.545c0,3.252 -1.258,5.819 -3.772,7.699c-2.515,1.879 -5.831,2.819 -9.941,2.819c-2.94,0 -5.597,-0.478 -7.967,-1.436c-2.37,-0.959 -4.345,-2.281 -5.927,-3.966l0,-7.938l5.761,0l0.791,5.402c0.746,0.629 1.763,1.147 3.046,1.556c1.281,0.409 2.715,0.613 4.296,0.613c2.038,0 3.588,-0.425 4.651,-1.279c1.063,-0.853 1.592,-1.994 1.592,-3.42c0,-1.46 -0.505,-2.636 -1.516,-3.523c-1.012,-0.889 -2.782,-1.723 -5.315,-2.506c-4.4,-1.303 -7.732,-2.854 -9.993,-4.646c-2.26,-1.792 -3.391,-4.247 -3.391,-7.361c0,-3.08 1.276,-5.599 3.824,-7.556c2.549,-1.959 5.754,-2.96 9.611,-3.016c2.855,0 5.455,0.446 7.802,1.333c2.344,0.887 4.314,2.071 5.914,3.55l0,7.778Z" style="fill:#fff;fill-rule:nonzero;"/><path d="M499.497,351.025l-12.567,0l0,10.858l11.981,0l0.332,-4.54l5.66,0l0,10.388l-29.368,0l0,-4.569l3.954,-0.783l0,-27.275l-3.954,-0.783l0,-4.596l29.316,0l0,10.415l-5.709,0l-0.332,-4.542l-11.88,0l0,9.554l12.567,0l0,5.873Z" style="fill:#fff;fill-rule:nonzero;"/><path d="M520.816,346.482l5.15,0c2.074,0 3.627,-0.451 4.664,-1.356c1.037,-0.906 1.555,-2.212 1.555,-3.916c0,-1.704 -0.516,-3.066 -1.542,-4.086c-1.027,-1.017 -2.544,-1.526 -4.55,-1.526l-5.277,0l0,10.884Zm5.277,-16.757c4.215,0 7.521,0.988 9.917,2.963c2.395,1.975 3.593,4.702 3.593,8.185c0,1.911 -0.5,3.573 -1.504,4.983c-1.003,1.409 -2.473,2.548 -4.41,3.422c2.194,0.661 3.767,1.76 4.729,3.3c0.959,1.539 1.439,3.448 1.439,5.729l0,1.93c0,0.836 0.163,1.484 0.485,1.946c0.324,0.462 0.858,0.735 1.605,0.82l0.918,0.133l0,4.595l-3.848,0c-2.432,0 -4.138,-0.672 -5.123,-2.012c-0.985,-1.338 -1.478,-3.069 -1.478,-5.193l0,-2.169c0,-1.842 -0.482,-3.292 -1.441,-4.343c-0.96,-1.054 -2.316,-1.606 -4.066,-1.657l-6.093,0l0,10.022l3.978,0.783l0,4.569l-15.372,0l0,-4.569l3.951,-0.783l0,-27.275l-3.951,-0.783l0,-4.596l16.671,0Z" style="fill:#fff;fill-rule:nonzero;"/><path d="M557.156,334.321l-2.832,0.52l6.578,22.786l0.459,2.089l0.153,0l0.433,-2.033l6.603,-22.842l-2.805,-0.52l0,-4.596l13.562,0l0,4.596l-3.111,0.417l-10.933,32.993l-7.649,0l-10.961,-32.993l-3.06,-0.417l0,-4.596l13.563,0l0,4.596Z" style="fill:#fff;fill-rule:nonzero;"/><path d="M582.579,334.321l0,-4.596l15.37,0l0,4.596l-3.977,0.783l0,27.275l3.977,0.783l0,4.569l-15.37,0l0,-4.569l3.975,-0.783l0,-27.275l-3.975,-0.783Z" style="fill:#fff;fill-rule:nonzero;"/><path d="M631.2,342.54l-5.53,0l-0.765,-5.063c-0.731,-0.748 -1.654,-1.34 -2.767,-1.776c-1.112,-0.432 -2.426,-0.65 -3.938,-0.65c-3.23,0 -5.714,1.2 -7.456,3.602c-1.743,2.4 -2.614,5.533 -2.614,9.396l0,1.332c0,3.863 0.866,7.004 2.598,9.419c1.737,2.422 4.182,3.632 7.345,3.632c1.462,0 2.8,-0.218 4.016,-0.653c1.214,-0.438 2.152,-1.027 2.816,-1.773l0.765,-5.068l5.53,0l0,7.518c-1.493,1.776 -3.402,3.191 -5.722,4.242c-2.321,1.054 -4.916,1.58 -7.789,1.58c-4.978,0 -9.056,-1.765 -12.234,-5.299c-3.179,-3.531 -4.766,-8.065 -4.766,-13.598l0,-1.279c0,-5.517 1.579,-10.051 4.74,-13.601c3.16,-3.549 7.249,-5.325 12.26,-5.325c2.873,0 5.466,0.536 7.776,1.609c2.31,1.067 4.223,2.482 5.735,4.239l0,7.516Z" style="fill:#fff;fill-rule:nonzero;"/><path d="M659.001,351.025l-12.567,0l0,10.858l11.981,0l0.332,-4.54l5.657,0l0,10.388l-29.364,0l0,-4.569l3.951,-0.783l0,-27.275l-3.951,-0.783l0,-4.596l29.315,0l0,10.415l-5.712,0l-0.329,-4.542l-11.88,0l0,9.554l12.567,0l0,5.873Z" style="fill:#fff;fill-rule:nonzero;"/><path d="M320.506,284.9l6.826,-14.161c1.237,-2.564 3.257,-2.564 4.494,0l6.826,14.161c0.275,0.568 0.679,1.128 1.133,1.664l34.656,-49.527c1.717,0.154 3.462,-0.505 4.548,-2.034c1.649,-2.323 1.146,-5.575 -1.123,-7.26c-2.268,-1.689 -5.444,-1.174 -7.091,1.149c-1.099,1.55 -1.164,3.483 -0.461,5.124l-7.379,10.542c-7.2,-27.026 -33.357,-40.878 -33.357,-40.878c0,0 -30.739,16.223 -34.771,47.873l24.893,34.536c0.287,-0.396 0.611,-0.783 0.806,-1.189Z" style="fill:#fff;fill-rule:nonzero;"/><path d="M269.425,322.303l38.968,-13.293c-0.252,-0.355 -0.482,-0.748 -0.765,-1.032l-11.042,-11.023c-2.002,-1.994 -1.377,-3.966 1.387,-4.378l15.263,-2.267c0.832,-0.125 1.701,-0.478 2.556,-0.916l-35.32,-49.1c0.667,-1.627 0.599,-3.528 -0.487,-5.057c-1.646,-2.323 -4.822,-2.838 -7.091,-1.15c-2.269,1.692 -2.772,4.938 -1.123,7.264c1.1,1.55 2.878,2.209 4.615,2.031l7.454,10.361c-27.311,-1.322 -48.244,19.855 -48.244,19.855c0,0 5.584,35.038 33.829,48.705Z" style="fill:#fff;fill-rule:nonzero;"/><path d="M325.085,327.652l-13.651,7.348c-2.471,1.33 -4.107,0.115 -3.637,-2.705l2.61,-15.565c0.148,-0.892 0.076,-1.898 -0.09,-2.917l-55.86,19.003c-1.301,-1.155 -3.09,-1.678 -4.848,-1.092c-2.665,0.887 -4.125,3.821 -3.259,6.552c0.869,2.73 3.731,4.227 6.399,3.337c1.778,-0.592 2.94,-2.118 3.313,-3.862l11.859,-4.038c-9.593,26.157 3.573,53.016 3.573,53.016c0,0 34.298,5.391 55.722,-17.923l-0.309,-41.804c-0.653,0.162 -1.286,0.361 -1.822,0.65Z" style="fill:#fff;fill-rule:nonzero;"/><path d="M348.761,314.198c-0.111,0.889 -0.14,1.754 -0.008,2.532l2.606,15.565c0.472,2.82 -1.164,4.035 -3.635,2.705l-13.651,-7.348c-0.619,-0.334 -1.337,-0.584 -2.105,-0.749l0.384,59.836c-1.475,0.911 -2.51,2.49 -2.51,4.383c0,2.87 2.274,5.198 5.077,5.198c2.802,0 5.076,-2.328 5.076,-5.198c0,-1.916 -1.058,-3.52 -2.567,-4.423l-0.08,-12.854c21.322,17.402 50.316,12.884 50.316,12.884c0,0 15.58,-31.672 0.617,-59.717l-39.52,-12.814Z" style="fill:#fff;fill-rule:nonzero;"/><path d="M412.94,321.456c-1.778,-0.595 -3.596,-0.056 -4.9,1.133l-12.061,-3.926c22.81,-15.376 27.586,-45.065 27.586,-45.065c0,0 -24.553,-24.904 -55.18,-19.074l-24.542,35.138c0.7,0.319 1.405,0.547 2.079,0.648l15.263,2.267c2.764,0.412 3.389,2.384 1.39,4.378l-11.045,11.023c-0.373,0.374 -0.69,0.868 -1.006,1.356l55.984,18.209c0.389,1.718 1.54,3.218 3.295,3.802c2.665,0.887 5.53,-0.608 6.396,-3.337c0.869,-2.732 -0.594,-5.665 -3.259,-6.552Z" style="fill:#fff;fill-rule:nonzero;"/></g></svg>