<?xml version="1.0" encoding="UTF-8" standalone="no"?><!DOCTYPE svg PUBLIC "-//W3C//DTD SVG 1.1//EN" "http://www.w3.org/Graphics/SVG/1.1/DTD/svg11.dtd"><svg width="100%" height="100%" viewBox="0 0 1200 744" version="1.1" xmlns="http://www.w3.org/2000/svg" xmlns:xlink="http://www.w3.org/1999/xlink" xml:space="preserve" xmlns:serif="http://www.serif.com/" style="fill-rule:evenodd;clip-rule:evenodd;stroke-linejoin:round;stroke-miterlimit:2;"><rect id="logo-greex" x="0" y="0" width="1200" height="744" style="fill:none;"/><path d="M584.511,432.683c-0.206,-0.253 -0.425,-0.566 -0.657,-0.943c-2.531,-4.109 -4.328,-8.666 -5.288,-13.375c0,0 -1.936,3.44 -3.678,6.332c-6.107,10.143 -13.692,21.876 -23.691,22.503c-5.705,0.358 -11.722,-0.658 -16.349,-4.043c-0.762,-0.557 -0.58,-0.135 -1.198,-1.221c-1.639,-2.882 -1.397,-6.742 -1.572,-10.467c-0.719,-15.365 -0.39,-30.968 3.53,-45.668l0.047,-0.174c-0.267,-0.014 -0.533,-0.03 -0.8,-0.049c-1.959,-0.139 -4.565,-0.727 -6.798,-1.354c-6.625,7.798 -14.619,14.319 -23.557,19.45c0,0 -0.856,4.39 -2.332,8.254c-6.278,19.194 -24.5,33.428 -44.988,37.557c-34.387,8.655 -72.373,-11.123 -76.353,-48.67c-3.218,-30.348 13.315,-62.762 33.179,-84.405c0,0 2.034,-2.383 3.156,-3.47c2.802,-2.714 5.547,-5.515 8.607,-7.922c9.245,-7.271 20.099,-12.403 31.932,-12.518c0.327,0 0.327,0 0.654,0.001c18.372,0.234 33.561,11.91 42.639,27.593c0.33,0.574 0.594,1.185 0.786,1.819c0.106,0.338 0.227,0.737 0.346,1.132c0.385,1.272 0.49,2.611 0.309,3.927c0,0 0,0.001 -0.001,0.001c-0.18,1.313 -0.627,2.575 -1.313,3.71c-0.038,0.061 -0.075,0.123 -0.112,0.185c-0.651,1.076 -1.507,2.012 -2.519,2.756c-0.136,0.1 -0.272,0.199 -0.404,0.296c-1.074,0.79 -2.289,1.367 -3.579,1.703c-0.166,0.043 -0.333,0.086 -0.498,0.129c-1.223,0.318 -2.498,0.392 -3.75,0.218c-0.07,-0.01 -0.141,-0.02 -0.212,-0.03c-1.313,-0.182 -2.575,-0.635 -3.706,-1.328c0,0 0,0 0,0c-1.128,-0.69 -2.09,-1.62 -2.82,-2.723c-0.258,-0.39 -0.519,-0.784 -0.729,-1.102c-0.296,-0.449 -0.546,-0.926 -0.744,-1.426c-3.567,-8.904 -9.72,-16.954 -19.231,-20.197c0,0 -2.361,-0.691 -3.579,-0.817c-2.641,-0.272 -5.323,-0.737 -7.959,-0.373c-11.225,1.551 -20.151,7.853 -27.722,16.141l-0.095,0.105c-5.069,6.047 -9.156,12.901 -12.527,20.125l-0.071,0.154c-8.587,19.643 -14.174,45.804 -2.854,65.585c5.238,9.062 13.822,18.003 23.892,21.54c19.46,6.836 44.237,-0.05 53.313,-19.591c-1.501,0.415 -3.86,1.048 -5.939,1.52c-6.999,1.59 -14.22,2.259 -21.41,1.729c-10.479,-0.772 -21.101,-4.444 -28.23,-12.2c-11.186,-12.171 -10.649,-33.807 3.196,-45.412c6.666,-5.588 15.566,-8.021 24.503,-8.097c0.179,0 0.358,0 0.537,0c22.098,0.19 42.937,17.303 46.656,39.653l0.004,0.021c5.143,-2.687 10.003,-5.911 14.497,-9.632c-0.793,-0.93 -2.058,-2.418 -2.234,-2.649c-0.002,-0.002 -0.003,-0.004 -0.005,-0.007c-5.641,-7.505 -6.233,-18.987 -0.773,-26.54c1.891,-2.615 4.991,-4.213 8.318,-4.128c8.528,0.357 14.596,10.688 14.042,19.357c-0.216,3.362 -1.2,6.645 -2.689,9.7c0,0 0.637,0.167 0.637,0.167l14.004,-1.528c0,0 1.67,0.041 2.812,0.695c4.005,2.292 4.381,7.823 4.015,12.031c-1.21,13.933 -4.215,27.896 -2.917,41.819c0.073,0.79 0.296,1.942 0.296,1.942c3.588,-1.256 6.115,-4.898 8.789,-8.434c6.106,-8.076 10.892,-17.082 15.178,-26.266c0,0 0.674,-4.678 1.716,-8.918c0.182,-0.74 0.388,-1.16 0.613,-1.301c3.126,-11.313 9.638,-22.042 20.027,-28.312c6.393,-3.858 14.006,-5.614 21.433,-5.582c11.424,0.146 22.313,8.141 21.381,21.933c-1.229,18.189 -19.027,32.477 -38.668,35.292c-1.82,0.261 -3.65,0.437 -5.485,0.545l-0.152,0.009c1.6,10.308 7.596,21.354 18.732,21.189c9.679,-0.143 18.43,-6.612 24.272,-14.467c4.353,-5.852 7.942,-12.194 11.285,-18.692c0.374,-3.034 0.907,-6.03 1.559,-8.939c2.777,-12.392 9.469,-24.467 20.77,-31.288c6.232,-3.76 13.545,-5.518 20.844,-5.583c0.295,-0.001 0.295,-0.001 0.589,0.001c9.717,0.124 19.752,6.003 21.231,16.115c2.466,16.865 -11.617,33.64 -30.097,39.254c-4.506,1.369 -9.188,2.122 -13.905,2.401l-0.152,0.009c1.597,10.308 7.596,21.354 18.731,21.189c9.679,-0.143 18.429,-6.612 24.272,-14.467c8.138,-10.94 13.611,-23.598 19.787,-35.777c0.117,-0.23 0.241,-0.465 0.372,-0.702c-0.313,-0.45 -0.625,-0.901 -0.934,-1.352c-0.119,-0.176 -0.237,-0.352 -0.354,-0.529c-1.972,-3.037 -3.552,-6.506 -3.553,-10.16c-0.002,-5.466 2.439,-11.017 5.617,-15.299c1.896,-2.554 4.443,-4.557 7.975,-4.528c6.504,0.147 10.491,7.961 10.674,15.359c0,0 1.792,3.316 3.13,5.958c2.941,5.809 5.789,11.677 8.634,17.545c6.235,-10.463 10.347,-22.023 18.226,-31.807c1.359,-1.686 3.055,-3.225 5.234,-3.209c2.944,0.041 6.167,0.399 7.781,3.148c3.272,5.571 -1.468,12.298 -7.865,17.569c-0.119,0.098 -0.236,0.198 -0.353,0.298c-5.552,4.847 -8.845,11.737 -12.488,18.344c-1.424,2.581 -2.827,5.172 -4.224,7.768l-0.164,0.305c4.647,9.609 8.306,19.808 14.596,28.542c0.578,0.802 1.218,2.057 2.054,1.962c2.74,-0.355 4.647,-3.754 6.753,-6.972c5.409,-8.264 9.552,-17.372 13.799,-26.384c0,0 2.037,-2.998 4.716,-2.057c4.405,1.546 2.629,9.078 -0.164,15.005c-5.741,12.132 -11.106,25.142 -20.817,33.953c-6.519,5.915 -18.93,6.094 -23.503,-1.638c-3.696,-6.25 -6.59,-12.953 -9.661,-19.569l-0.162,-0.349c-0.374,0.649 -0.752,1.295 -1.131,1.941c-4.471,7.594 -8.741,15.852 -15.297,21.152c-4.306,3.481 -11.059,3.771 -16.31,0.818c-3.098,-1.742 -4.173,-6.345 -1.662,-9.589c2.271,-2.935 5.326,-5.215 8.022,-7.863c6.877,-6.756 13.252,-14.011 19.056,-21.67l0.04,-0.053c-3.309,-6.188 -7.276,-11.973 -11.329,-17.691c-2.867,11.348 -9.064,21.92 -15.414,31.864c-9.365,14.664 -23.992,27.315 -43.174,26.967c-9.629,-0.175 -18.821,-4.884 -24.696,-13.177c-3.21,-4.531 -5.264,-9.67 -6.428,-15.096c-0.276,0.437 -0.553,0.872 -0.829,1.306c-7.613,11.921 -18.375,22.6 -32.669,25.882c-12.835,2.947 -26.807,-0.244 -35.201,-12.092c-0.373,-0.526 -0.729,-1.06 -1.071,-1.602Zm109.679,-69.316c-4.883,0.081 -9.031,4.053 -11.532,8.033c-5.192,8.262 -7.636,18.136 -8.279,27.979l-0.007,0.113c12.822,-2.566 25.627,-10.137 25.624,-26.338c0,-0.598 -0.016,-1.195 -0.052,-1.792c-0.029,-0.489 -0.073,-0.978 -0.134,-1.464c-0.045,-0.353 -0.099,-0.705 -0.165,-1.055c-0.053,-0.281 -0.114,-0.561 -0.184,-0.838c-0.056,-0.22 -0.117,-0.439 -0.185,-0.655c-0.676,-2.147 -2.562,-3.996 -5.086,-3.983Zm-75.127,0c-4.883,0.081 -9.031,4.053 -11.532,8.033c-5.182,8.247 -7.633,18.128 -8.279,27.979l-0.008,0.113c8.817,-1.764 17.798,-5.322 22.378,-13.152c3.414,-5.834 4.644,-13.573 2.319,-19.586c-0.752,-1.946 -2.648,-3.398 -4.878,-3.387Zm-160.588,2.884c-7.626,0.058 -15.668,2.855 -18.502,10.054c-2.559,6.501 -0.022,14.355 6.317,18.151c13.736,8.226 31.843,4.596 43.921,0.801c0,0 -0.352,-3.886 -1.413,-7.051c-4.207,-12.555 -16.755,-21.756 -29.807,-21.953c-0.172,-0.002 -0.344,-0.002 -0.516,-0.002Z" style="fill:#fff;fill-rule:nonzero;"/></svg>