<?xml version="1.0" encoding="UTF-8" standalone="no"?><!DOCTYPE svg PUBLIC "-//W3C//DTD SVG 1.1//EN" "http://www.w3.org/Graphics/SVG/1.1/DTD/svg11.dtd"><svg width="100%" height="100%" viewBox="0 0 900 600" version="1.1" xmlns="http://www.w3.org/2000/svg" xmlns:xlink="http://www.w3.org/1999/xlink" xml:space="preserve" xmlns:serif="http://www.serif.com/" style="fill-rule:evenodd;clip-rule:evenodd;stroke-linejoin:round;stroke-miterlimit:1.41421;"><rect id="logo-jrs-1" x="0" y="0" width="900" height="600" style="fill:none;"/><g><path d="M464.971,236.573l0,4.598l-3.977,0.781l0,21.234c0,3.674 -1.17,6.585 -3.507,8.737c-2.34,2.149 -5.292,3.225 -8.862,3.225c-3.878,0 -6.947,-0.967 -9.209,-2.898c-2.262,-1.934 -3.349,-4.779 -3.266,-8.54l0.054,-0.16l7.243,0c0,2.003 0.464,3.462 1.404,4.378c0.933,0.914 2.192,1.368 3.774,1.368c1.375,0 2.545,-0.542 3.505,-1.631c0.96,-1.086 1.442,-2.582 1.442,-4.479l0,-21.234l-3.979,-0.781l0,-4.598l15.378,0Z" style="fill:#fff;fill-rule:nonzero;"/><path d="M478.738,258.721l8.517,0l-4.182,-13.398l-0.153,0l-4.182,13.398Zm-13.466,11.308l2.651,-0.393l11.3,-33.063l7.625,0l11.222,33.063l2.654,0.393l0,4.572l-12.649,0l0,-4.572l2.573,-0.47l-1.632,-5.225l-12.039,0l-1.629,5.225l2.573,0.47l0,4.572l-12.649,0l0,-4.572Z" style="fill:#fff;fill-rule:nonzero;"/><path d="M515.482,254.933l6.275,0c2.076,0 3.642,-0.579 4.709,-1.737c1.061,-1.158 1.593,-2.632 1.593,-4.425c0,-1.83 -0.532,-3.339 -1.593,-4.532c-1.067,-1.193 -2.633,-1.79 -4.709,-1.79l-6.275,0l0,12.484Zm6.275,-18.36c4.252,0 7.606,1.118 10.063,3.358c2.457,2.236 3.686,5.166 3.686,8.787c0,3.636 -1.229,6.563 -3.686,8.776c-2.457,2.21 -5.811,3.315 -10.063,3.315l-6.275,0l0,8.436l3.979,0.784l0,4.572l-15.378,0l0,-4.572l3.951,-0.784l0,-27.293l-3.951,-0.781l0,-4.598l17.674,0Z" style="fill:#fff;fill-rule:nonzero;"/><path d="M547.805,258.721l8.52,0l-4.182,-13.398l-0.156,0l-4.182,13.398Zm-13.466,11.308l2.651,-0.393l11.303,-33.063l7.624,0l11.223,33.063l2.654,0.393l0,4.572l-12.652,0l0,-4.572l2.576,-0.47l-1.632,-5.225l-12.04,0l-1.631,5.225l2.576,0.47l0,4.572l-12.652,0l0,-4.572Z" style="fill:#fff;fill-rule:nonzero;"/><path d="M611.101,236.573l0,4.598l-3.977,0.781l0,32.649l-7.422,0l-14.997,-25.597l-0.156,0.03l0,20.211l3.98,0.784l0,4.572l-15.379,0l0,-4.572l3.954,-0.784l0,-27.293l-3.954,-0.781l0,-4.598l11.399,0l14.997,25.596l0.156,-0.026l0,-20.191l-3.98,-0.781l0,-4.598l15.379,0Z" style="fill:#fff;fill-rule:nonzero;"/><path d="M450.2,302.372l5.152,0c2.075,0 3.632,-0.454 4.669,-1.36c1.038,-0.906 1.557,-2.21 1.557,-3.918c0,-1.705 -0.514,-3.068 -1.544,-4.088c-1.027,-1.017 -2.545,-1.527 -4.553,-1.527l-5.281,0l0,10.893Zm5.281,-16.769c4.216,0 7.526,0.988 9.923,2.964c2.395,1.977 3.596,4.707 3.596,8.187c0,1.915 -0.501,3.578 -1.505,4.989c-1.004,1.413 -2.475,2.55 -4.413,3.421c2.195,0.661 3.77,1.764 4.73,3.304c0.962,1.544 1.442,3.451 1.442,5.733l0,1.933c0,0.837 0.161,1.485 0.485,1.947c0.322,0.457 0.856,0.734 1.608,0.821l0.916,0.13l0,4.598l-3.85,0c-2.433,0 -4.14,-0.669 -5.128,-2.01c-0.986,-1.342 -1.479,-3.076 -1.479,-5.199l0,-2.167c0,-1.846 -0.48,-3.297 -1.44,-4.349c-0.962,-1.054 -2.316,-1.607 -4.067,-1.66l-6.099,0l0,10.03l3.979,0.784l0,4.571l-15.378,0l0,-4.571l3.953,-0.784l0,-27.293l-3.953,-0.781l0,-4.598l16.68,0Z" style="fill:#fff;fill-rule:nonzero;"/><path d="M500.895,304.277c0,-3.934 -0.799,-7.13 -2.4,-9.584c-1.598,-2.457 -3.961,-3.685 -7.09,-3.685c-3.128,0 -5.463,1.22 -6.999,3.658c-1.541,2.436 -2.311,5.639 -2.311,9.611l0,0.627c0,4.005 0.781,7.227 2.335,9.674c1.556,2.446 3.888,3.671 7.001,3.671c3.147,0 5.51,-1.225 7.09,-3.671c1.58,-2.447 2.374,-5.669 2.374,-9.674l0,-0.627Zm7.419,0.627c0,5.57 -1.554,10.176 -4.664,13.815c-3.113,3.639 -7.186,5.459 -12.219,5.459c-5.017,0 -9.066,-1.82 -12.153,-5.459c-3.085,-3.639 -4.628,-8.245 -4.628,-13.815l0,-0.574c0,-5.539 1.538,-10.137 4.615,-13.792c3.079,-3.655 7.123,-5.482 12.14,-5.482c5.033,0 9.111,1.827 12.232,5.482c3.121,3.655 4.677,8.253 4.677,13.792l0,0.574Z" style="fill:#fff;fill-rule:nonzero;"/><path d="M523.589,290.201l-3.035,0.444l5.766,12.484l0.153,0l5.762,-12.484l-3.009,-0.444l0,-4.598l14.055,0l0,4.598l-3.165,0.521l-10.096,19.534l0,8.019l3.977,0.784l0,4.571l-15.381,0l0,-4.571l3.979,-0.784l0,-8.41l-9.923,-19.143l-3.136,-0.521l0,-4.598l14.053,0l0,4.598Z" style="fill:#fff;fill-rule:nonzero;"/><path d="M555.245,307.751l8.52,0l-4.182,-13.398l-0.153,0l-4.185,13.398Zm-13.466,11.308l2.651,-0.393l11.301,-33.063l7.626,0l11.223,33.063l2.654,0.393l0,4.571l-12.652,0l0,-4.571l2.576,-0.47l-1.634,-5.225l-12.037,0l-1.632,5.225l2.576,0.47l0,4.571l-12.652,0l0,-4.571Z" style="fill:#fff;fill-rule:nonzero;"/><path d="M580.59,323.63l0,-4.571l3.954,-0.784l0,-27.293l-3.954,-0.781l0,-4.598l15.381,0l0,4.598l-3.979,0.781l0,26.797l10.483,0l0.355,-4.779l5.687,0l0,10.63l-27.927,0Z" style="fill:#fff;fill-rule:nonzero;"/><path d="M467.01,346.777l-5.588,0l-0.968,-5.222c-0.646,-0.42 -1.59,-0.784 -2.832,-1.1c-1.24,-0.313 -2.558,-0.467 -3.951,-0.467c-2.042,0 -3.617,0.438 -4.732,1.317c-1.116,0.88 -1.671,2.016 -1.671,3.408c0,1.289 0.584,2.349 1.746,3.172c1.165,0.829 3.178,1.705 6.032,2.627c4.098,1.166 7.209,2.707 9.323,4.622c2.117,1.918 3.178,4.433 3.178,7.549c0,3.254 -1.261,5.823 -3.775,7.703c-2.519,1.881 -5.834,2.821 -9.948,2.821c-2.942,0 -5.601,-0.478 -7.972,-1.434c-2.371,-0.962 -4.348,-2.284 -5.93,-3.974l0,-7.937l5.764,0l0.794,5.406c0.747,0.627 1.761,1.145 3.045,1.554c1.284,0.411 2.716,0.613 4.299,0.613c2.041,0 3.59,-0.425 4.656,-1.28c1.061,-0.853 1.593,-1.992 1.593,-3.421c0,-1.464 -0.506,-2.638 -1.517,-3.525c-1.015,-0.887 -2.784,-1.724 -5.319,-2.508c-4.404,-1.307 -7.735,-2.855 -9.997,-4.648c-2.265,-1.793 -3.394,-4.248 -3.394,-7.366c0,-3.081 1.274,-5.6 3.827,-7.56c2.55,-1.96 5.754,-2.964 9.616,-3.015c2.854,0 5.456,0.444 7.801,1.331c2.35,0.887 4.319,2.072 5.92,3.551l0,7.783Z" style="fill:#fff;fill-rule:nonzero;"/><path d="M494.978,355.944l-12.577,0l0,10.864l11.988,0l0.332,-4.544l5.663,0l0,10.396l-29.382,0l0,-4.571l3.951,-0.784l0,-27.293l-3.951,-0.781l0,-4.598l29.33,0l0,10.42l-5.712,0l-0.332,-4.545l-11.887,0l0,9.56l12.577,0l0,5.876Z" style="fill:#fff;fill-rule:nonzero;"/><path d="M516.31,351.402l5.149,0c2.075,0 3.629,-0.454 4.669,-1.36c1.036,-0.906 1.554,-2.21 1.554,-3.918c0,-1.705 -0.513,-3.068 -1.541,-4.088c-1.029,-1.018 -2.547,-1.528 -4.552,-1.528l-5.279,0l0,10.894Zm5.279,-16.769c4.215,0 7.523,0.988 9.92,2.964c2.397,1.976 3.598,4.707 3.598,8.187c0,1.915 -0.503,3.578 -1.505,4.988c-1.004,1.414 -2.477,2.55 -4.415,3.422c2.195,0.661 3.772,1.761 4.732,3.304c0.962,1.543 1.44,3.451 1.44,5.732l0,1.932c0,0.839 0.163,1.487 0.487,1.949c0.322,0.46 0.859,0.733 1.606,0.821l0.916,0.13l0,4.598l-3.85,0c-2.431,0 -4.14,-0.669 -5.126,-2.011c-0.986,-1.341 -1.481,-3.076 -1.481,-5.198l0,-2.167c0,-1.847 -0.478,-3.297 -1.438,-4.349c-0.965,-1.054 -2.319,-1.607 -4.07,-1.657l-6.093,0l0,10.027l3.976,0.784l0,4.571l-15.38,0l0,-4.571l3.953,-0.784l0,-27.293l-3.953,-0.781l0,-4.598l16.683,0Z" style="fill:#fff;fill-rule:nonzero;"/><path d="M552.667,339.231l-2.833,0.52l6.581,22.802l0.46,2.088l0.155,0l0.433,-2.037l6.605,-22.853l-2.804,-0.52l0,-4.598l13.567,0l0,4.598l-3.11,0.417l-10.945,33.012l-7.65,0l-10.968,-33.012l-3.059,-0.417l0,-4.598l13.568,0l0,4.598Z" style="fill:#fff;fill-rule:nonzero;"/><path d="M578.105,339.231l0,-4.598l15.381,0l0,4.598l-3.982,0.781l0,27.293l3.982,0.784l0,4.571l-15.381,0l0,-4.571l3.98,-0.784l0,-27.293l-3.98,-0.781Z" style="fill:#fff;fill-rule:nonzero;"/><path d="M626.756,347.455l-5.536,0l-0.765,-5.066c-0.731,-0.746 -1.655,-1.341 -2.765,-1.774c-1.116,-0.436 -2.428,-0.654 -3.943,-0.654c-3.23,0 -5.718,1.201 -7.461,3.602c-1.744,2.404 -2.615,5.539 -2.615,9.403l0,1.331c0,3.865 0.866,7.01 2.599,9.43c1.738,2.42 4.187,3.629 7.349,3.629c1.464,0 2.802,-0.218 4.019,-0.654c1.214,-0.433 2.153,-1.025 2.817,-1.774l0.765,-5.066l5.536,0l0,7.52c-1.497,1.777 -3.406,3.19 -5.725,4.245c-2.324,1.052 -4.921,1.58 -7.793,1.58c-4.983,0 -9.064,-1.766 -12.247,-5.302c-3.178,-3.535 -4.768,-8.069 -4.768,-13.608l0,-1.277c0,-5.52 1.582,-10.054 4.745,-13.609c3.165,-3.551 7.253,-5.325 12.27,-5.325c2.872,0 5.466,0.533 7.78,1.607c2.309,1.07 4.223,2.483 5.738,4.242l0,7.52Z" style="fill:#fff;fill-rule:nonzero;"/><path d="M654.571,355.944l-12.574,0l0,10.864l11.988,0l0.332,-4.544l5.66,0l0,10.396l-29.381,0l0,-4.571l3.953,-0.784l0,-27.293l-3.953,-0.781l0,-4.598l29.332,0l0,10.42l-5.712,0l-0.332,-4.545l-11.887,0l0,9.56l12.574,0l0,5.876Z" style="fill:#fff;fill-rule:nonzero;"/><path d="M290.881,302.322l0,13.65l24.328,0c-0.464,-4.866 -0.819,-9.406 -1.081,-13.65l-23.247,0Z" style="fill:#fff;fill-rule:nonzero;"/><path d="M290.881,322.929l0,56.515c16.951,-1.293 27.519,-15.268 27.312,-34.685c-0.065,-6.277 -1.471,-13.473 -2.304,-21.83l-25.008,0Z" style="fill:#fff;fill-rule:nonzero;"/><path d="M324.961,220.556c-46.91,0 -84.938,38.938 -84.938,86.972c0,26.616 7.611,49.067 26.662,64.891c4.133,3.431 11.778,6.831 17.4,6.831l0,-56.321l-14.414,0l0,-6.957l14.414,0l0,-13.65l-14.414,0l-7.78,-17.466c-0.204,-0.462 0.281,-0.911 0.711,-0.664c7.02,3.987 15.096,6.261 23.693,6.261c9.479,0 19.757,-2.768 27.252,-7.546l0.002,0c0.337,-39.576 11.412,-40.745 11.412,-40.745c0,0 11.072,1.169 11.409,40.745c7.497,4.778 17.775,7.546 27.254,7.546c8.598,0 16.673,-2.274 23.693,-6.261c0.431,-0.247 0.916,0.202 0.711,0.664l-7.783,17.466l-14.41,0l0,13.65l14.41,0l0,6.957l-14.41,0l0,56.321c5.624,0 13.266,-3.4 17.399,-6.831c19.051,-15.824 26.665,-38.275 26.665,-64.891c0,-48.034 -38.028,-86.972 -84.938,-86.972Z" style="fill:#fff;fill-rule:nonzero;"/><path d="M334.71,315.972l24.331,0l0,-13.65l-23.247,0c-0.264,4.244 -0.62,8.784 -1.084,13.65Z" style="fill:#fff;fill-rule:nonzero;"/><path d="M331.727,344.759c-0.205,19.417 10.361,33.392 27.314,34.685l0,-56.515l-25.011,0c-0.833,8.357 -2.236,15.553 -2.303,21.83Z" style="fill:#fff;fill-rule:nonzero;"/></g></svg>