<?xml version="1.0" encoding="UTF-8" standalone="no"?><!DOCTYPE svg PUBLIC "-//W3C//DTD SVG 1.1//EN" "http://www.w3.org/Graphics/SVG/1.1/DTD/svg11.dtd"><svg width="100%" height="100%" viewBox="0 0 900 600" version="1.1" xmlns="http://www.w3.org/2000/svg" xmlns:xlink="http://www.w3.org/1999/xlink" xml:space="preserve" xmlns:serif="http://www.serif.com/" style="fill-rule:evenodd;clip-rule:evenodd;stroke-linejoin:round;stroke-miterlimit:1.41421;"><rect id="logo-infinitymusic" x="0" y="0" width="900" height="600" style="fill:none;"/><g><rect x="282.782" y="269.836" width="4.614" height="60.976" style="fill:#fff;"/><path d="M302.396,287.781l0,7.666c3.308,-5.923 9.315,-8.361 15.329,-8.451c11.5,0 19.423,7.058 19.423,18.989l0,24.828l-4.266,0l0,-24.738c0,-9.758 -6.01,-14.986 -15.334,-14.896c-8.883,0.085 -15.068,6.793 -15.068,15.678l0,23.956l-4.268,0l0,-43.032l4.184,0Z" style="fill:#fff;fill-rule:nonzero;"/><path d="M352.736,330.813l0,-38.939l-8.798,0l0,-3.747l8.798,0l0,-3.831c0,-8.536 3.398,-14.721 12.896,-14.721c3.218,0 6.096,1.131 8.536,2.961l-2.089,3.137c-2.353,-1.394 -4.008,-2.179 -6.624,-2.179c-5.4,0 -8.536,3.31 -8.536,10.802l0,3.831l14.198,0l0,3.747l-14.198,0l0,38.939l-4.183,0Z" style="fill:#fff;fill-rule:nonzero;"/><path d="M380.261,330.813l4.265,0l0,-43.206l-4.265,0l0,43.206Zm5.661,-57.058c0,4.53 -6.88,4.53 -6.88,0c0,-4.529 6.88,-4.529 6.88,0Z" style="fill:#fff;fill-rule:nonzero;"/><path d="M400.905,287.781l0,7.666c3.311,-5.923 9.316,-8.361 15.329,-8.451c11.501,0 19.426,7.058 19.426,18.989l0,24.828l-4.268,0l0,-24.738c0,-9.758 -6.011,-14.986 -15.329,-14.896c-8.888,0.085 -15.073,6.793 -15.073,15.678l0,23.956l-4.268,0l0,-43.032l4.183,0Z" style="fill:#fff;fill-rule:nonzero;"/><path d="M446.805,330.813l4.268,0l0,-43.206l-4.268,0l0,43.206Zm5.659,-57.058c0,4.53 -6.878,4.53 -6.878,0c0,-4.529 6.878,-4.529 6.878,0Z" style="fill:#fff;fill-rule:nonzero;"/><path d="M473.109,274.803l0,12.978l14.636,0l0,3.57l-14.636,0l0,26.221c0,5.836 1.221,9.93 7.93,9.93c2.092,0 4.443,-0.698 6.619,-1.743l1.484,3.485c-2.7,1.31 -5.4,2.18 -8.103,2.18c-9.147,0 -12.111,-5.403 -12.111,-13.852l0,-26.221l-9.144,0l0,-3.57l9.144,0l0,-12.545l4.181,-0.433Z" style="fill:#fff;fill-rule:nonzero;"/><path d="M535.304,287.781l-26.219,60.976l-4.53,0l7.925,-18.468l-17.246,-42.508l4.614,0l10.02,25.433l5.05,12.461l4.966,-12.545l10.8,-25.349l4.62,0Z" style="fill:#fff;fill-rule:nonzero;"/><path d="M615.54,276.63l-23.341,35.714l-1.568,0l-23.519,-35.714l0,54.183l-4.704,0l0,-60.977c2.266,0 3.31,0 5.577,0l23.344,35.541l23.083,-35.541l5.748,0l0,60.977l-4.62,0l0,-54.183Z" style="fill:#fff;fill-rule:nonzero;"/><path d="M665.712,330.813l0,-7.754c-3.311,5.924 -9.322,8.365 -15.333,8.449c-11.497,0 -19.425,-7.052 -19.425,-18.989l0,-24.825l4.271,0l0,24.738c0,9.757 6.008,14.983 15.326,14.898c8.885,-0.087 15.073,-6.796 15.073,-15.681l0,-23.955l4.268,0l0,43.119l-4.18,0Z" style="fill:#fff;fill-rule:nonzero;"/><path d="M710.655,295.619c-4.356,-3.832 -8.624,-4.53 -13.415,-4.53c-6.709,-0.084 -13.156,2.441 -12.979,7.928c0.172,5.749 7.661,6.88 13.063,7.84c7.666,1.307 18.207,2.613 17.773,12.633c-0.259,9.493 -10.107,12.018 -17.683,12.018c-7.578,0 -15.07,-2.874 -18.817,-8.623l3.136,-2.787c3.576,5.14 10.017,7.317 15.766,7.317c5.228,0 13.156,-1.394 13.417,-8.187c0.175,-6.185 -6.97,-7.404 -14.028,-8.539c-8.361,-1.394 -16.636,-2.959 -16.723,-11.585c-0.087,-8.449 8.362,-12.108 17.075,-12.018c6.269,0 11.759,1.74 16.024,5.749l-2.609,2.784Z" style="fill:#fff;fill-rule:nonzero;"/><path d="M724.59,330.813l4.268,0l0,-43.206l-4.268,0l0,43.206Zm5.662,-57.058c0,4.53 -6.881,4.53 -6.881,0c0,-4.529 6.881,-4.529 6.881,0Z" style="fill:#fff;fill-rule:nonzero;"/><path d="M776.329,324.802c-4.358,4.355 -10.022,6.447 -15.681,6.447c-12.105,0 -22.125,-8.364 -22.125,-21.954c0,-13.586 9.668,-21.95 22.125,-21.95c5.659,0 11.323,2.179 15.681,6.447l-2.79,2.697c-3.485,-3.483 -8.274,-5.138 -12.891,-5.138c-9.755,0 -17.944,6.362 -17.944,17.944c0,11.585 8.189,17.948 17.944,17.948c4.617,0 9.322,-1.833 12.804,-5.315l2.877,2.874Z" style="fill:#fff;fill-rule:nonzero;"/><path d="M185.401,334.791c0,0 9.113,-16.861 25.166,-19.845c12.396,-2.306 23.316,4.997 23.316,15.63c0,14.575 -22.913,26.351 -48.482,4.215Zm-17.052,-12.962l-0.127,-0.09c-2.381,-1.425 -2.455,-3.64 -2.587,-4.893l0,-46.627c0,-3.651 2.917,-7.3 6.478,-8.105l53.462,-11.683c3.564,-0.808 6.478,1.523 6.478,5.174l0,51.224c0,3.733 -2.863,1.912 -2.863,1.912l-0.014,0.02c-4.026,-2.12 -8.359,-2.926 -11.906,-2.926c-21.492,0 -36.81,24.899 -36.81,24.899c-4.887,-4.023 -8.099,-6.402 -12.111,-8.905Zm-21.424,36.078c-17.812,-0.766 -18.361,-14.386 -16.323,-20.304c1.88,-5.464 11.067,-23.997 42.722,3.922c0,0 -9.322,17.117 -26.399,16.382Zm92.881,-42.111c0,-19.386 0,-77.088 0,-77.088c0,-3.654 -2.913,-5.983 -6.478,-5.177l-68.968,15.191c-3.564,0.805 -6.478,4.451 -6.478,8.105l0,55.7c0,2.714 -1.264,4.623 -3.438,4.358l-0.18,-0.002c-2.446,-0.355 -4.805,-0.482 -7.117,-0.482c-12.398,0 -23.476,10.073 -23.476,25.954c0,11.788 10.306,24.274 25.081,24.274c20.751,0 29.307,-21.644 29.307,-21.644c15.574,10.154 24.983,12.252 33.074,12.252c16.644,0 28.668,-11.976 28.668,-24.668c0,-16.767 0.005,-16.762 0.005,-16.773Z" style="fill:#fff;"/></g></svg>