<?xml version="1.0" encoding="UTF-8" standalone="no"?><!DOCTYPE svg PUBLIC "-//W3C//DTD SVG 1.1//EN" "http://www.w3.org/Graphics/SVG/1.1/DTD/svg11.dtd"><svg width="100%" height="100%" viewBox="0 0 1200 744" version="1.1" xmlns="http://www.w3.org/2000/svg" xmlns:xlink="http://www.w3.org/1999/xlink" xml:space="preserve" xmlns:serif="http://www.serif.com/" style="fill-rule:evenodd;clip-rule:evenodd;stroke-linejoin:round;stroke-miterlimit:2;"><rect id="logo-nots" x="0" y="0" width="1200" height="744" style="fill:none;"/><g><path d="M330.459,457.343l-8.762,-13.429l-2.299,0l0,17.354l2.299,0l0,-13.372l8.737,13.372l2.298,0l0,-17.354l-2.273,0l0,13.429Z" style="fill:#fff;fill-rule:nonzero;"/><path d="M348.725,453.315c-0.024,2.012 -0.443,3.555 -1.252,4.63c-0.809,1.074 -1.955,1.613 -3.431,1.613c-1.473,0 -2.627,-0.568 -3.465,-1.709c-0.834,-1.137 -1.257,-2.705 -1.257,-4.704l0,-1.27c0.025,-1.954 0.453,-3.481 1.282,-4.584c0.83,-1.096 1.967,-1.647 3.415,-1.647c1.485,0 2.642,0.551 3.468,1.647c0.826,1.103 1.24,2.68 1.24,4.738l0,1.286Zm-1.033,-8.634c-1.062,-0.672 -2.286,-1.008 -3.675,-1.008c-1.365,0 -2.581,0.34 -3.643,1.021c-1.062,0.68 -1.879,1.659 -2.46,2.937c-0.577,1.278 -0.871,2.75 -0.871,4.422l0,1.253c0.016,1.635 0.319,3.074 0.9,4.319c0.585,1.241 1.406,2.199 2.464,2.871c1.054,0.672 2.27,1.004 3.635,1.004c1.398,0 2.622,-0.332 3.671,-0.996c1.05,-0.672 1.859,-1.638 2.427,-2.9c0.573,-1.273 0.859,-2.754 0.859,-4.459l0,-1.092c0,-1.692 -0.286,-3.178 -0.859,-4.447c-0.568,-1.278 -1.386,-2.249 -2.448,-2.925Z" style="fill:#fff;fill-rule:nonzero;"/><path d="M361.093,452.377l-3.514,0l0,-6.592l3.501,0c1.208,0.008 2.133,0.298 2.772,0.871c0.638,0.577 0.962,1.398 0.962,2.473c0,0.987 -0.336,1.771 -1.008,2.364c-0.668,0.589 -1.577,0.884 -2.713,0.884Zm5.144,-0.423c0.581,-0.801 0.875,-1.743 0.875,-2.817c0,-1.701 -0.522,-3 -1.576,-3.892c-1.054,-0.887 -2.564,-1.331 -4.514,-1.331l-5.746,0l0,17.354l2.303,0l0,-7.024l4.074,0l3.767,7.024l2.456,0l0,-0.15l-4.074,-7.359c1.037,-0.403 1.85,-0.996 2.435,-1.805Z" style="fill:#fff;fill-rule:nonzero;"/><path d="M380.322,452.846c-0.813,-0.49 -1.946,-0.938 -3.385,-1.344c-1.444,-0.407 -2.465,-0.851 -3.066,-1.34c-0.598,-0.49 -0.896,-1.092 -0.896,-1.797c0,-0.883 0.315,-1.576 0.946,-2.074c0.63,-0.494 1.514,-0.747 2.642,-0.747c1.216,0 2.153,0.303 2.825,0.905c0.668,0.605 1,1.431 1,2.485l2.299,0c0,-0.967 -0.258,-1.847 -0.768,-2.66c-0.51,-0.809 -1.236,-1.443 -2.17,-1.908c-0.933,-0.457 -1.995,-0.693 -3.186,-0.693c-1.751,0 -3.169,0.452 -4.26,1.344c-1.092,0.892 -1.639,2.025 -1.639,3.39c0,1.207 0.444,2.219 1.34,3.045c0.896,0.821 2.323,1.518 4.281,2.078c1.564,0.453 2.647,0.913 3.245,1.374c0.597,0.473 0.896,1.128 0.896,1.978c0,0.847 -0.324,1.519 -0.971,2.008c-0.639,0.494 -1.564,0.739 -2.776,0.739c-1.29,0 -2.327,-0.299 -3.103,-0.909c-0.771,-0.605 -1.161,-1.431 -1.161,-2.485l-2.303,0c0,1.013 0.286,1.913 0.842,2.705c0.56,0.793 1.357,1.423 2.39,1.88c1.037,0.452 2.145,0.68 3.335,0.68c1.838,0 3.303,-0.419 4.398,-1.265c1.095,-0.851 1.643,-1.975 1.643,-3.377c0,-0.884 -0.195,-1.647 -0.585,-2.303c-0.394,-0.651 -1,-1.224 -1.813,-1.709Z" style="fill:#fff;fill-rule:nonzero;"/><path d="M399.273,443.914l-2.763,0l-7.712,8.579l0,-8.579l-2.286,0l0,17.354l2.286,0l0,-5.871l2.124,-2.203l6.148,8.074l2.738,0l-7.364,-9.692l6.829,-7.662Z" style="fill:#fff;fill-rule:nonzero;"/><path d="M422.709,453.315c-0.025,2.012 -0.439,3.555 -1.248,4.63c-0.809,1.074 -1.955,1.613 -3.436,1.613c-1.468,0 -2.622,-0.568 -3.46,-1.709c-0.838,-1.137 -1.257,-2.705 -1.257,-4.704l0,-1.27c0.025,-1.954 0.453,-3.481 1.282,-4.584c0.83,-1.096 1.967,-1.647 3.415,-1.647c1.485,0 2.638,0.551 3.464,1.647c0.825,1.103 1.24,2.68 1.24,4.738l0,1.286Zm-1.029,-8.634c-1.062,-0.672 -2.286,-1.008 -3.675,-1.008c-1.365,0 -2.581,0.34 -3.643,1.021c-1.062,0.68 -1.879,1.659 -2.46,2.937c-0.577,1.278 -0.871,2.75 -0.871,4.422l0,1.253c0.016,1.635 0.319,3.074 0.9,4.319c0.585,1.241 1.406,2.199 2.464,2.871c1.054,0.672 2.265,1.004 3.63,1.004c1.403,0 2.627,-0.332 3.672,-0.996c1.05,-0.672 1.859,-1.638 2.431,-2.9c0.573,-1.273 0.859,-2.754 0.859,-4.459l0,-1.092c0,-1.692 -0.286,-3.178 -0.859,-4.447c-0.572,-1.278 -1.386,-2.249 -2.448,-2.925Z" style="fill:#fff;fill-rule:nonzero;"/><path d="M435.081,452.377l-3.514,0l0,-6.592l3.497,0c1.212,0.008 2.137,0.298 2.771,0.871c0.643,0.577 0.967,1.398 0.967,2.473c0,0.987 -0.34,1.771 -1.008,2.364c-0.672,0.589 -1.577,0.884 -2.713,0.884Zm5.144,-0.423c0.581,-0.801 0.875,-1.743 0.875,-2.817c0,-1.701 -0.526,-3 -1.576,-3.892c-1.054,-0.887 -2.564,-1.331 -4.514,-1.331l-5.746,0l0,17.354l2.303,0l0,-7.024l4.074,0l3.767,7.024l2.452,0l0,-0.15l-4.07,-7.359c1.037,-0.403 1.846,-0.996 2.435,-1.805Z" style="fill:#fff;fill-rule:nonzero;"/><path d="M448.099,447.162c0.789,-1.079 1.954,-1.618 3.489,-1.618c2.303,0 3.668,1.153 4.095,3.456l2.29,0c-0.245,-1.697 -0.925,-3.008 -2.024,-3.937c-1.104,-0.925 -2.564,-1.39 -4.377,-1.39c-2.207,0 -3.921,0.722 -5.136,2.157c-1.224,1.44 -1.834,3.469 -1.834,6.082l0,1.51c0.017,1.614 0.324,3.029 0.925,4.253c0.598,1.224 1.448,2.17 2.543,2.833c1.096,0.664 2.353,0.992 3.763,0.992c1.398,0 2.622,-0.207 3.676,-0.622c1.054,-0.419 1.875,-1.046 2.464,-1.888l0,-6.364l-6.293,0l0,1.871l4.016,0l0,3.883c-0.419,0.457 -0.95,0.78 -1.598,0.967c-0.639,0.191 -1.394,0.282 -2.252,0.282c-1.515,0 -2.722,-0.573 -3.61,-1.718c-0.892,-1.149 -1.331,-2.696 -1.331,-4.646l0,-1.423c0.008,-2.041 0.406,-3.601 1.194,-4.68Z" style="fill:#fff;fill-rule:nonzero;"/><path d="M465.648,454.858l2.942,-8.119l2.954,8.119l-5.896,0Zm1.942,-10.944l-6.626,17.354l2.357,0l1.639,-4.543l7.264,0l1.655,4.543l2.349,0l-6.634,-17.354l-2.004,0Z" style="fill:#fff;fill-rule:nonzero;"/><path d="M490.483,457.343l-8.758,-13.429l-2.303,0l0,17.354l2.303,0l0,-13.372l8.733,13.372l2.302,0l0,-17.354l-2.277,0l0,13.429Z" style="fill:#fff;fill-rule:nonzero;"/><rect x="497.846" y="443.914" width="2.286" height="17.354" style="fill:#fff;"/><path d="M514.321,452.846c-0.817,-0.49 -1.946,-0.938 -3.385,-1.344c-1.444,-0.407 -2.465,-0.851 -3.066,-1.34c-0.598,-0.49 -0.901,-1.092 -0.901,-1.797c0,-0.883 0.32,-1.576 0.951,-2.074c0.63,-0.494 1.51,-0.747 2.642,-0.747c1.216,0 2.153,0.303 2.821,0.905c0.668,0.605 1.004,1.431 1.004,2.485l2.299,0c0,-0.967 -0.258,-1.847 -0.768,-2.66c-0.51,-0.809 -1.236,-1.443 -2.174,-1.908c-0.929,-0.457 -1.991,-0.693 -3.182,-0.693c-1.751,0 -3.169,0.452 -4.265,1.344c-1.091,0.892 -1.634,2.025 -1.634,3.39c0,1.207 0.444,2.219 1.336,3.045c0.896,0.821 2.327,1.518 4.285,2.078c1.564,0.453 2.647,0.913 3.245,1.374c0.593,0.473 0.887,1.128 0.887,1.978c0,0.847 -0.315,1.519 -0.962,2.008c-0.639,0.494 -1.568,0.739 -2.776,0.739c-1.294,0 -2.331,-0.299 -3.103,-0.909c-0.776,-0.605 -1.161,-1.431 -1.161,-2.485l-2.303,0c0,1.013 0.282,1.913 0.842,2.705c0.56,0.793 1.353,1.423 2.39,1.88c1.029,0.452 2.145,0.68 3.335,0.68c1.834,0 3.303,-0.419 4.398,-1.265c1.095,-0.851 1.643,-1.975 1.643,-3.377c0,-0.884 -0.195,-1.647 -0.589,-2.303c-0.39,-0.651 -1,-1.224 -1.809,-1.709Z" style="fill:#fff;fill-rule:nonzero;"/><path d="M523.514,454.858l2.946,-8.119l2.954,8.119l-5.9,0Zm1.942,-10.944l-6.625,17.354l2.356,0l1.635,-4.543l7.268,0l1.66,4.543l2.344,0l-6.638,-17.354l-2,0Z" style="fill:#fff;fill-rule:nonzero;"/><path d="M546.432,452.846c-0.809,-0.49 -1.942,-0.938 -3.381,-1.344c-1.444,-0.407 -2.465,-0.851 -3.066,-1.34c-0.598,-0.49 -0.896,-1.092 -0.896,-1.797c0,-0.883 0.315,-1.576 0.946,-2.074c0.634,-0.494 1.51,-0.747 2.638,-0.747c1.216,0 2.153,0.303 2.83,0.905c0.663,0.605 0.995,1.431 0.995,2.485l2.299,0c0,-0.967 -0.253,-1.847 -0.768,-2.66c-0.51,-0.809 -1.232,-1.443 -2.17,-1.908c-0.929,-0.457 -1.995,-0.693 -3.186,-0.693c-1.746,0 -3.169,0.452 -4.256,1.344c-1.091,0.892 -1.643,2.025 -1.643,3.39c0,1.207 0.444,2.219 1.344,3.045c0.892,0.821 2.319,1.518 4.286,2.078c1.559,0.453 2.642,0.913 3.236,1.374c0.597,0.473 0.9,1.128 0.9,1.978c0,0.847 -0.328,1.519 -0.971,2.008c-0.643,0.494 -1.568,0.739 -2.775,0.739c-1.295,0 -2.328,-0.299 -3.104,-0.909c-0.776,-0.605 -1.161,-1.431 -1.161,-2.485l-2.303,0c0,1.013 0.282,1.913 0.838,2.705c0.564,0.793 1.361,1.423 2.394,1.88c1.033,0.452 2.145,0.68 3.336,0.68c1.833,0 3.298,-0.419 4.397,-1.265c1.095,-0.851 1.643,-1.975 1.643,-3.377c0,-0.884 -0.199,-1.647 -0.585,-2.303c-0.398,-0.651 -1,-1.224 -1.817,-1.709Z" style="fill:#fff;fill-rule:nonzero;"/><path d="M559.89,456.235c-0.004,1.071 -0.298,1.909 -0.883,2.502c-0.581,0.597 -1.353,0.892 -2.29,0.892c-1.038,0 -1.826,-0.274 -2.369,-0.83c-0.544,-0.556 -0.818,-1.336 -0.818,-2.323l-2.286,0c0,1.589 0.482,2.821 1.444,3.705c0.954,0.883 2.303,1.319 4.029,1.319c1.655,0 2.982,-0.465 3.982,-1.402c1,-0.938 1.494,-2.236 1.494,-3.896l0,-12.288l-2.303,0l0,12.321Z" style="fill:#fff;fill-rule:nonzero;"/><path d="M578.016,453.315c-0.021,2.012 -0.436,3.555 -1.245,4.63c-0.817,1.074 -1.958,1.613 -3.435,1.613c-1.468,0 -2.626,-0.568 -3.46,-1.709c-0.842,-1.137 -1.257,-2.705 -1.257,-4.704l0,-1.27c0.021,-1.954 0.444,-3.481 1.278,-4.584c0.83,-1.096 1.971,-1.647 3.414,-1.647c1.486,0 2.639,0.551 3.469,1.647c0.825,1.103 1.236,2.68 1.236,4.738l0,1.286Zm-1.029,-8.634c-1.058,-0.672 -2.282,-1.008 -3.676,-1.008c-1.365,0 -2.576,0.34 -3.638,1.021c-1.062,0.68 -1.879,1.659 -2.464,2.937c-0.577,1.278 -0.867,2.75 -0.867,4.422l0,1.253c0.016,1.635 0.315,3.074 0.9,4.319c0.581,1.241 1.402,2.199 2.46,2.871c1.054,0.672 2.265,1.004 3.634,1.004c1.394,0 2.618,-0.332 3.668,-0.996c1.049,-0.672 1.862,-1.638 2.431,-2.9c0.577,-1.273 0.859,-2.754 0.859,-4.459l0,-1.092c0,-1.692 -0.282,-3.178 -0.859,-4.447c-0.569,-1.278 -1.386,-2.249 -2.448,-2.925Z" style="fill:#fff;fill-rule:nonzero;"/><path d="M595.644,457.343l-8.762,-13.429l-2.299,0l0,17.354l2.299,0l0,-13.372l8.737,13.372l2.298,0l0,-17.354l-2.273,0l0,13.429Z" style="fill:#fff;fill-rule:nonzero;"/><path d="M611.811,461.268l2.29,0l0,-7.667l7.281,0l0,-1.867l-7.281,0l0,-5.949l8.46,0l0,-1.871l-10.75,0l0,17.354Z" style="fill:#fff;fill-rule:nonzero;"/><path d="M637.23,453.315c-0.024,2.012 -0.443,3.555 -1.252,4.63c-0.809,1.074 -1.954,1.613 -3.431,1.613c-1.469,0 -2.627,-0.568 -3.465,-1.709c-0.833,-1.137 -1.257,-2.705 -1.257,-4.704l0,-1.27c0.025,-1.954 0.457,-3.481 1.282,-4.584c0.83,-1.096 1.971,-1.647 3.415,-1.647c1.489,0 2.642,0.551 3.468,1.647c0.826,1.103 1.24,2.68 1.24,4.738l0,1.286Zm-1.033,-8.634c-1.062,-0.672 -2.285,-1.008 -3.675,-1.008c-1.365,0 -2.581,0.34 -3.643,1.021c-1.062,0.68 -1.879,1.659 -2.46,2.937c-0.577,1.278 -0.871,2.75 -0.871,4.422l0,1.253c0.016,1.635 0.319,3.074 0.9,4.319c0.585,1.241 1.406,2.199 2.464,2.871c1.054,0.672 2.27,1.004 3.635,1.004c1.398,0 2.622,-0.332 3.671,-0.996c1.05,-0.672 1.859,-1.638 2.431,-2.9c0.569,-1.273 0.855,-2.754 0.855,-4.459l0,-1.092c0,-1.692 -0.286,-3.178 -0.855,-4.447c-0.572,-1.278 -1.389,-2.249 -2.452,-2.925Z" style="fill:#fff;fill-rule:nonzero;"/><path d="M649.598,452.377l-3.514,0l0,-6.592l3.501,0c1.208,0.008 2.133,0.298 2.772,0.871c0.639,0.577 0.962,1.398 0.962,2.473c0,0.987 -0.336,1.771 -1.008,2.364c-0.668,0.589 -1.576,0.884 -2.713,0.884Zm5.144,-0.423c0.581,-0.801 0.876,-1.743 0.876,-2.817c0,-1.701 -0.523,-3 -1.577,-3.892c-1.054,-0.887 -2.564,-1.331 -4.514,-1.331l-5.746,0l0,17.354l2.303,0l0,-7.024l4.074,0l3.767,7.024l2.456,0l0,-0.15l-4.074,-7.359c1.037,-0.403 1.85,-0.996 2.435,-1.805Z" style="fill:#fff;fill-rule:nonzero;"/><path d="M667.217,445.785l5.568,0l0,15.483l2.273,0l0,-15.483l5.58,0l0,-1.871l-13.421,0l0,1.871Z" style="fill:#fff;fill-rule:nonzero;"/><path d="M686.359,453.244l7.518,0l0,-1.871l-7.518,0l0,-5.588l8.617,0l0,-1.871l-10.907,0l0,17.354l11.023,0l0,-1.876l-8.733,0l0,-6.148Z" style="fill:#fff;fill-rule:nonzero;"/><path d="M704.601,452.377l-3.514,0l0,-6.592l3.502,0c1.207,0.008 2.132,0.298 2.771,0.871c0.643,0.577 0.963,1.398 0.963,2.473c0,0.987 -0.336,1.771 -1.008,2.364c-0.673,0.589 -1.577,0.884 -2.714,0.884Zm5.145,-0.423c0.585,-0.801 0.875,-1.743 0.875,-2.817c0,-1.701 -0.527,-3 -1.581,-3.892c-1.049,-0.887 -2.555,-1.331 -4.509,-1.331l-5.742,0l0,17.354l2.298,0l0,-7.024l4.074,0l3.767,7.024l2.456,0l0,-0.15l-4.074,-7.359c1.038,-0.403 1.851,-0.996 2.436,-1.805Z" style="fill:#fff;fill-rule:nonzero;"/><path d="M720.487,452.377l-3.514,0l0,-6.592l3.501,0c1.208,0.008 2.133,0.298 2.772,0.871c0.643,0.577 0.958,1.398 0.958,2.473c0,0.987 -0.332,1.771 -1.004,2.364c-0.676,0.589 -1.577,0.884 -2.713,0.884Zm5.144,-0.423c0.581,-0.801 0.871,-1.743 0.871,-2.817c0,-1.701 -0.522,-3 -1.576,-3.892c-1.054,-0.887 -2.556,-1.331 -4.506,-1.331l-5.746,0l0,17.354l2.299,0l0,-7.024l4.074,0l3.763,7.024l2.456,0l0,-0.15l-4.074,-7.359c1.045,-0.403 1.854,-0.996 2.439,-1.805Z" style="fill:#fff;fill-rule:nonzero;"/><path d="M732.858,453.244l7.522,0l0,-1.871l-7.522,0l0,-5.588l8.613,0l0,-1.871l-10.903,0l0,17.354l11.027,0l0,-1.876l-8.737,0l0,-6.148Z" style="fill:#fff;fill-rule:nonzero;"/><path d="M756.356,457.343l-8.758,-13.429l-2.302,0l0,17.354l2.302,0l0,-13.372l8.733,13.372l2.303,0l0,-17.354l-2.278,0l0,13.429Z" style="fill:#fff;fill-rule:nonzero;"/><path d="M766.496,447.162c0.788,-1.079 1.95,-1.618 3.481,-1.618c2.306,0 3.671,1.153 4.103,3.456l2.286,0c-0.245,-1.697 -0.921,-3.008 -2.029,-3.937c-1.1,-0.925 -2.56,-1.39 -4.369,-1.39c-2.211,0 -3.924,0.722 -5.144,2.157c-1.22,1.44 -1.83,3.469 -1.83,6.082l0,1.51c0.017,1.614 0.324,3.029 0.925,4.253c0.598,1.224 1.448,2.17 2.544,2.833c1.095,0.664 2.352,0.992 3.767,0.992c1.398,0 2.626,-0.207 3.675,-0.622c1.054,-0.419 1.876,-1.046 2.461,-1.888l0,-6.364l-6.29,0l0,1.871l4.016,0l0,3.883c-0.423,0.457 -0.954,0.78 -1.597,0.967c-0.643,0.191 -1.398,0.282 -2.253,0.282c-1.518,0 -2.721,-0.573 -3.609,-1.718c-0.892,-1.149 -1.336,-2.696 -1.336,-4.646l0,-1.423c0.004,-2.041 0.402,-3.601 1.199,-4.68Z" style="fill:#fff;fill-rule:nonzero;"/><path d="M790.185,452.846c-0.817,-0.49 -1.942,-0.938 -3.385,-1.344c-1.444,-0.407 -2.465,-0.851 -3.062,-1.34c-0.602,-0.49 -0.9,-1.092 -0.9,-1.797c0,-0.883 0.315,-1.576 0.95,-2.074c0.63,-0.494 1.506,-0.747 2.634,-0.747c1.216,0 2.157,0.303 2.825,0.905c0.668,0.605 1,1.431 1,2.485l2.303,0c0,-0.967 -0.258,-1.847 -0.772,-2.66c-0.514,-0.809 -1.236,-1.443 -2.166,-1.908c-0.933,-0.457 -1.999,-0.693 -3.19,-0.693c-1.747,0 -3.165,0.452 -4.257,1.344c-1.095,0.892 -1.642,2.025 -1.642,3.39c0,1.207 0.448,2.219 1.344,3.045c0.892,0.821 2.319,1.518 4.285,2.078c1.564,0.453 2.643,0.913 3.241,1.374c0.593,0.473 0.891,1.128 0.891,1.978c0,0.847 -0.323,1.519 -0.962,2.008c-0.647,0.494 -1.572,0.739 -2.78,0.739c-1.298,0 -2.327,-0.299 -3.103,-0.909c-0.776,-0.605 -1.162,-1.431 -1.162,-2.485l-2.298,0c0,1.013 0.278,1.913 0.838,2.705c0.56,0.793 1.357,1.423 2.39,1.88c1.033,0.452 2.145,0.68 3.335,0.68c1.838,0 3.303,-0.419 4.398,-1.265c1.095,-0.851 1.647,-1.975 1.647,-3.377c0,-0.884 -0.199,-1.647 -0.593,-2.303c-0.394,-0.651 -0.996,-1.224 -1.809,-1.709Z" style="fill:#fff;fill-rule:nonzero;"/><path d="M801.664,452.626l-4.505,-8.712l-2.622,0l5.982,10.878l0,6.476l2.29,0l0,-6.476l5.983,-10.878l-2.601,0l-4.527,8.712Z" style="fill:#fff;fill-rule:nonzero;"/><path d="M824.648,443.914l-2.763,0l-7.708,8.579l0,-8.579l-2.29,0l0,17.354l2.29,0l0,-5.871l2.12,-2.203l6.148,8.074l2.743,0l-7.36,-9.692l6.82,-7.662Z" style="fill:#fff;fill-rule:nonzero;"/><path d="M830.344,443.914l-2.298,0l0,17.354l10.525,0l0,-1.876l-8.227,0l0,-15.478Z" style="fill:#fff;fill-rule:nonzero;"/><rect x="842.206" y="443.914" width="2.286" height="17.354" style="fill:#fff;"/><path d="M860.593,457.343l-8.758,-13.429l-2.303,0l0,17.354l2.303,0l0,-13.372l8.733,13.372l2.298,0l0,-17.354l-2.273,0l0,13.429Z" style="fill:#fff;fill-rule:nonzero;"/><path d="M870.728,447.162c0.788,-1.079 1.95,-1.618 3.485,-1.618c2.302,0 3.667,1.153 4.099,3.456l2.29,0c-0.245,-1.697 -0.925,-3.008 -2.029,-3.937c-1.099,-0.925 -2.56,-1.39 -4.373,-1.39c-2.211,0 -3.924,0.722 -5.14,2.157c-1.224,1.44 -1.83,3.469 -1.83,6.082l0,1.51c0.017,1.614 0.324,3.029 0.926,4.253c0.597,1.224 1.443,2.17 2.543,2.833c1.091,0.664 2.348,0.992 3.763,0.992c1.398,0 2.622,-0.207 3.675,-0.622c1.054,-0.419 1.876,-1.046 2.465,-1.888l0,-6.364l-6.294,0l0,1.871l4.016,0l0,3.883c-0.423,0.457 -0.954,0.78 -1.597,0.967c-0.639,0.191 -1.394,0.282 -2.253,0.282c-1.514,0 -2.721,-0.573 -3.609,-1.718c-0.892,-1.149 -1.332,-2.696 -1.332,-4.646l0,-1.423c0.004,-2.041 0.402,-3.601 1.195,-4.68Z" style="fill:#fff;fill-rule:nonzero;"/><path d="M469.017,284.081l-33.061,0l0,111.33c0,2.269 -0.585,4.053 -1.763,5.352c-1.174,1.294 -2.572,1.942 -4.19,1.942c-3,0 -5.228,-1.581 -6.688,-4.738c-2.672,-5.837 -6.928,-20.906 -12.761,-45.217c-5.265,-22.121 -10.816,-38.122 -16.649,-48.009c-8.671,-14.827 -20.383,-22.241 -35.127,-22.241c-11.023,0 -20.055,2.431 -27.104,7.293c-8.185,5.672 -12.276,13.936 -12.276,24.793l0,119.114l32.816,0l0,-111.455c0,-2.108 0.403,-3.747 1.216,-4.921c0.809,-1.174 2.228,-2.008 4.252,-2.493c3.079,-0.407 7.091,6.074 12.032,19.445c3.568,9.803 7.741,23.378 12.521,40.719c5.268,19.122 8.222,29.655 8.874,31.601c3.24,9.642 8.749,17.055 16.528,22.241c6.97,4.618 14.827,6.929 23.581,6.929c10.127,0 18.84,-2.875 26.133,-8.63c7.779,-6.156 11.666,-13.935 11.666,-23.336l0,-119.719Z" style="fill:#fff;fill-rule:nonzero;"/><path d="M672.515,433.7l32.451,0l0,-117.048l33.547,0l0,-31.356l-99.424,0l0,31.356l33.426,0l0,117.048Z" style="fill:#fff;fill-rule:nonzero;"/><path d="M870.753,419.602c6.563,-8.509 9.849,-18.922 9.849,-31.24c0,-12.396 -3.286,-22.809 -9.849,-31.235c-7.29,-9.401 -17.222,-14.097 -29.776,-14.097l-46.552,0c-3.726,0 -6.584,-1.249 -8.567,-3.755c-1.987,-2.493 -2.979,-5.518 -2.979,-9.065c0,-3.63 1.033,-6.8 3.099,-9.505c2.066,-2.7 4.883,-4.053 8.447,-4.053l79.004,0l0,-31.356l-84.472,0c-12.562,0 -22.569,4.697 -30.024,14.081c-6.642,8.418 -9.965,18.694 -9.965,30.833c0,12.301 3.323,22.615 9.965,30.954c7.376,9.301 17.383,13.952 30.024,13.952l46.673,0c3.564,0 6.277,1.277 8.144,3.833c1.862,2.552 2.792,5.646 2.792,9.293c0,3.647 -0.971,6.87 -2.917,9.667c-1.941,2.796 -4.617,4.19 -8.019,4.19l-79.369,0l0,31.601l84.716,0c12.554,0 22.486,-4.701 29.776,-14.098Z" style="fill:#fff;fill-rule:nonzero;"/><path d="M613.388,305.21c-21.569,-21.569 -52.938,-27.39 -79.888,-17.632l11.335,31.148c11.284,-4.082 23.929,-3.348 34.687,2.295c2.493,1.307 4.887,2.879 7.132,4.713c1.128,0.912 2.219,1.9 3.269,2.945c1.045,1.046 2.024,2.137 2.941,3.261c1.834,2.249 3.402,4.638 4.713,7.132c1.311,2.497 2.361,5.098 3.145,7.758c0.39,1.327 0.722,2.672 0.979,4.028c0.527,2.713 0.788,5.468 0.788,8.215c0,1.377 -0.066,2.754 -0.195,4.123c-0.921,9.596 -5.045,18.939 -12.371,26.274c-0.896,0.896 -1.834,1.714 -2.784,2.514c-3.933,3.299 -8.314,5.763 -12.931,7.435c-0.809,0.298 -1.618,0.61 -2.436,0.85c-2.663,0.789 -5.381,1.311 -8.127,1.573c-2.742,0.265 -5.505,0.265 -8.244,0c-2.746,-0.262 -5.463,-0.784 -8.127,-1.573c-6.642,-1.962 -12.907,-5.559 -18.15,-10.799c-7.327,-7.335 -11.451,-16.678 -12.372,-26.274c-0.129,-1.369 -0.195,-2.746 -0.195,-4.123c0,-2.747 0.261,-5.502 0.784,-8.215c0.262,-1.356 0.593,-2.701 0.983,-4.028c0.785,-2.66 1.834,-5.261 3.145,-7.758c1.311,-2.494 2.879,-4.883 4.713,-7.132c0.917,-1.124 1.896,-2.215 2.942,-3.261c0.896,-0.892 1.833,-1.717 2.783,-2.514l-21.32,-25.411c-1.684,1.419 -3.344,2.871 -4.929,4.456c-29.696,29.696 -29.696,78.029 0,107.729c21.57,21.565 52.938,27.39 79.888,17.632c8.185,-2.962 15.952,-7.33 22.913,-13.18c1.685,-1.415 3.344,-2.871 4.929,-4.452c29.696,-29.7 29.696,-78.033 0,-107.729Z" style="fill:#fff;fill-rule:nonzero;"/><path d="M551.253,336.346l-6.418,-17.62c-1.805,0.656 -3.589,1.386 -5.311,2.295c-2.493,1.307 -4.891,2.879 -7.135,4.713l-0.482,0.431l12.102,14.421c2.211,-1.859 4.642,-3.294 7.244,-4.24Z" style="fill:#fff;fill-rule:nonzero;"/></g></svg>