<?xml version="1.0" encoding="UTF-8" standalone="no"?><!DOCTYPE svg PUBLIC "-//W3C//DTD SVG 1.1//EN" "http://www.w3.org/Graphics/SVG/1.1/DTD/svg11.dtd"><svg width="100%" height="100%" viewBox="0 0 900 600" version="1.1" xmlns="http://www.w3.org/2000/svg" xmlns:xlink="http://www.w3.org/1999/xlink" xml:space="preserve" xmlns:serif="http://www.serif.com/" style="fill-rule:evenodd;clip-rule:evenodd;stroke-linejoin:round;stroke-miterlimit:1.41421;"><rect id="logo-skole-en" x="0" y="0" width="900" height="600" style="fill:none;"/><g><path d="M313.188,339.842c-13.603,0 -26.611,-5.816 -35.69,-15.957c-7.865,-8.788 -12.198,-20.127 -12.198,-31.932l0,-5.131l10.261,0l0,5.131c0,9.275 3.404,18.185 9.583,25.088c7.135,7.968 17.355,12.539 28.044,12.539c20.748,0 37.627,-16.878 37.627,-37.627c0,-52.06 -80.415,-66.065 -81.228,-66.2l0.843,-10.192l90.646,0l0,10.261l-55.561,0c3.265,1.348 6.613,2.853 9.969,4.533c29.828,14.914 45.592,36.213 45.592,61.598c0,26.406 -21.481,47.889 -47.888,47.889Z" style="fill:#fff;fill-rule:nonzero;"/><path d="M560.844,339.842l-5.131,0c-15.403,0 -27.936,-12.531 -27.936,-27.935l0,-96.346l21.665,0l0,10.261l-11.402,0l0,86.085c0,9.745 7.928,17.673 17.673,17.673l5.131,0l0,10.262Z" style="fill:#fff;fill-rule:nonzero;"/><path d="M413.369,304.446c8.058,-6.149 13.269,-15.848 13.269,-26.744l0,-5.133l-10.261,0l0,5.133c0,12.887 -10.485,23.372 -23.375,23.372l-3.42,0l0,-75.252l11.402,0l0,-10.261l-21.663,0l0,124.28l10.261,0l0,-28.504l9.121,0c12.889,0 23.374,10.485 23.374,23.374l0,5.13l10.263,0l0,-5.13c0,-13.292 -7.752,-24.806 -18.971,-30.265Z" style="fill:#fff;fill-rule:nonzero;"/><path d="M477.992,281.692c-13.516,0 -24.514,10.997 -24.514,24.514c0,13.517 10.998,24.515 24.514,24.515c13.517,0 24.515,-10.998 24.515,-24.515c0,-13.517 -10.998,-24.514 -24.515,-24.514Zm0,59.291c-19.175,0 -34.775,-15.601 -34.775,-34.777c0,-19.175 15.6,-34.777 34.775,-34.777c19.176,0 34.776,15.602 34.776,34.777c0,19.176 -15.6,34.777 -34.776,34.777Z" style="fill:#fff;fill-rule:nonzero;"/><path d="M600.257,281.69c8.522,0 16.335,4.471 20.76,11.499l-45.015,16.385c-0.152,-1.105 -0.258,-2.222 -0.258,-3.368c0,-13.517 10.997,-24.516 24.513,-24.516Zm22.227,34.876c-4.017,8.598 -12.741,14.155 -22.227,14.155c-8.735,0 -16.397,-4.608 -20.739,-11.506l45.54,-16.575l9.642,-3.511l-1.756,-4.82c-4.983,-13.685 -18.118,-22.88 -32.687,-22.88c-19.175,0 -34.776,15.602 -34.776,34.777c0,19.176 15.601,34.777 34.776,34.777c13.454,0 25.828,-7.881 31.524,-20.073l2.171,-4.65l-9.297,-4.343l-2.171,4.649Z" style="fill:#fff;fill-rule:nonzero;"/><path d="M486.544,306.206c0,-4.72 -3.831,-8.551 -8.551,-8.551c-4.719,0 -8.551,3.831 -8.551,8.551c0,4.72 3.832,8.552 8.551,8.552c4.72,0 8.551,-3.832 8.551,-8.552Z" style="fill:#fff;"/><path d="M394.04,377.761c0,1.064 -0.195,2.011 -0.588,2.843c-0.394,0.832 -0.952,1.533 -1.676,2.103c-0.725,0.569 -1.586,1.001 -2.588,1.293c-1.002,0.295 -2.103,0.439 -3.304,0.439c-0.74,0 -1.446,-0.058 -2.115,-0.173c-0.67,-0.113 -1.271,-0.262 -1.802,-0.439c-0.532,-0.177 -0.983,-0.361 -1.353,-0.552c-0.37,-0.194 -0.64,-0.369 -0.809,-0.519c-0.17,-0.156 -0.292,-0.373 -0.369,-0.65c-0.078,-0.275 -0.115,-0.655 -0.115,-1.132c0,-0.294 0.014,-0.539 0.045,-0.74c0.031,-0.201 0.07,-0.361 0.115,-0.484l0.197,-0.268l0.289,-0.08c0.171,0 0.42,0.104 0.751,0.312c0.332,0.209 0.74,0.436 1.225,0.681c0.485,0.248 1.059,0.475 1.721,0.684c0.662,0.206 1.425,0.31 2.289,0.31c0.646,0 1.232,-0.069 1.755,-0.208c0.524,-0.138 0.979,-0.342 1.364,-0.613c0.385,-0.269 0.681,-0.611 0.89,-1.027c0.208,-0.417 0.312,-0.909 0.312,-1.479c0,-0.586 -0.151,-1.079 -0.45,-1.479c-0.302,-0.401 -0.698,-0.754 -1.191,-1.063c-0.494,-0.309 -1.048,-0.582 -1.664,-0.821c-0.616,-0.238 -1.252,-0.488 -1.907,-0.751c-0.654,-0.261 -1.293,-0.558 -1.917,-0.889c-0.625,-0.332 -1.183,-0.736 -1.675,-1.212c-0.495,-0.48 -0.891,-1.049 -1.19,-1.712c-0.302,-0.662 -0.451,-1.455 -0.451,-2.38c0,-0.815 0.158,-1.599 0.473,-2.345c0.316,-0.748 0.79,-1.403 1.422,-1.965c0.632,-0.562 1.421,-1.012 2.368,-1.351c0.948,-0.34 2.053,-0.51 3.316,-0.51c0.555,0 1.11,0.047 1.664,0.14c0.555,0.091 1.055,0.206 1.502,0.346c0.448,0.14 0.828,0.289 1.144,0.45c0.316,0.162 0.555,0.305 0.716,0.428c0.163,0.125 0.27,0.231 0.324,0.324l0.116,0.311c0.022,0.117 0.046,0.258 0.069,0.428c0.024,0.169 0.035,0.378 0.035,0.625c0,0.261 -0.011,0.488 -0.035,0.681c-0.023,0.192 -0.062,0.352 -0.115,0.475l-0.197,0.264l-0.254,0.082c-0.138,0 -0.339,-0.086 -0.601,-0.255c-0.263,-0.169 -0.601,-0.35 -1.017,-0.544c-0.416,-0.191 -0.905,-0.372 -1.467,-0.541c-0.563,-0.171 -1.206,-0.255 -1.93,-0.255c-0.648,0 -1.217,0.073 -1.71,0.219c-0.494,0.146 -0.898,0.354 -1.214,0.626c-0.316,0.268 -0.554,0.587 -0.716,0.958c-0.162,0.369 -0.242,0.771 -0.242,1.201c0,0.601 0.154,1.105 0.462,1.514c0.308,0.408 0.708,0.767 1.202,1.074c0.493,0.309 1.054,0.586 1.687,0.832c0.632,0.247 1.273,0.5 1.93,0.763c0.655,0.262 1.301,0.554 1.941,0.878c0.638,0.324 1.204,0.716 1.697,1.178c0.493,0.463 0.891,1.017 1.191,1.665c0.3,0.646 0.45,1.417 0.45,2.31Z" style="fill:#fff;fill-rule:nonzero;"/><path d="M411.373,373.948l-3.259,0c-1.048,0 -1.956,0.089 -2.726,0.266c-0.771,0.177 -1.411,0.439 -1.919,0.785c-0.508,0.348 -0.882,0.763 -1.12,1.248c-0.24,0.486 -0.359,1.044 -0.359,1.676c0,1.079 0.344,1.937 1.029,2.577c0.685,0.64 1.643,0.958 2.877,0.958c1.001,0 1.93,-0.255 2.784,-0.761c0.855,-0.508 1.753,-1.287 2.693,-2.335l0,-4.414Zm3.79,9.5c0,0.184 -0.062,0.322 -0.186,0.414c-0.123,0.093 -0.292,0.165 -0.508,0.209c-0.216,0.046 -0.531,0.069 -0.947,0.069c-0.401,0 -0.721,-0.023 -0.959,-0.069c-0.24,-0.044 -0.413,-0.116 -0.521,-0.209c-0.106,-0.092 -0.16,-0.23 -0.16,-0.414l0,-2.081c-0.91,0.97 -1.922,1.725 -3.04,2.265c-1.117,0.539 -2.299,0.807 -3.547,0.807c-1.095,0 -2.084,-0.141 -2.97,-0.425c-0.886,-0.287 -1.64,-0.698 -2.264,-1.238c-0.624,-0.538 -1.11,-1.202 -1.456,-1.987c-0.348,-0.785 -0.521,-1.679 -0.521,-2.681c0,-1.172 0.24,-2.188 0.718,-3.051c0.476,-0.862 1.163,-1.579 2.056,-2.149c0.893,-0.57 1.988,-0.996 3.281,-1.283c1.295,-0.285 2.75,-0.426 4.368,-0.426l2.866,0l0,-1.618c0,-0.801 -0.085,-1.51 -0.254,-2.126c-0.171,-0.618 -0.443,-1.129 -0.821,-1.537c-0.378,-0.409 -0.867,-0.716 -1.467,-0.925c-0.601,-0.208 -1.341,-0.312 -2.219,-0.312c-0.94,0 -1.783,0.113 -2.531,0.335c-0.748,0.223 -1.401,0.471 -1.963,0.74c-0.564,0.27 -1.033,0.516 -1.41,0.739c-0.379,0.224 -0.659,0.337 -0.843,0.337l-0.324,-0.095l-0.242,-0.276c-0.07,-0.124 -0.121,-0.282 -0.151,-0.474c-0.031,-0.191 -0.046,-0.404 -0.046,-0.635c0,-0.385 0.026,-0.69 0.08,-0.913c0.054,-0.223 0.186,-0.435 0.393,-0.635c0.208,-0.2 0.567,-0.435 1.075,-0.705c0.508,-0.27 1.094,-0.517 1.756,-0.74c0.663,-0.224 1.387,-0.408 2.172,-0.555c0.786,-0.146 1.58,-0.22 2.381,-0.22c1.493,0 2.764,0.17 3.812,0.51c1.048,0.339 1.896,0.835 2.542,1.489c0.648,0.655 1.117,1.468 1.41,2.44c0.292,0.969 0.44,2.102 0.44,3.396l0,14.029Z" style="fill:#fff;fill-rule:nonzero;"/><path d="M432.541,381.897c0,0.449 -0.032,0.802 -0.093,1.063c-0.061,0.262 -0.154,0.455 -0.277,0.579c-0.123,0.123 -0.309,0.238 -0.555,0.346c-0.247,0.108 -0.528,0.197 -0.843,0.268c-0.316,0.067 -0.651,0.126 -1.006,0.173c-0.354,0.047 -0.709,0.067 -1.063,0.067c-1.079,0 -2.002,-0.139 -2.772,-0.426c-0.771,-0.287 -1.402,-0.716 -1.895,-1.295c-0.495,-0.578 -0.852,-1.309 -1.075,-2.195c-0.223,-0.885 -0.335,-1.929 -0.335,-3.132l0,-12.155l-2.912,0c-0.231,0 -0.416,-0.124 -0.555,-0.37c-0.138,-0.245 -0.208,-0.647 -0.208,-1.202c0,-0.292 0.02,-0.539 0.059,-0.739c0.037,-0.2 0.088,-0.366 0.149,-0.496c0.061,-0.132 0.143,-0.223 0.242,-0.278l0.337,-0.081l2.888,0l0,-4.945l0.08,-0.301c0.054,-0.092 0.154,-0.173 0.301,-0.242c0.147,-0.071 0.343,-0.12 0.59,-0.15c0.245,-0.031 0.555,-0.048 0.923,-0.048c0.385,0 0.701,0.017 0.949,0.048c0.245,0.03 0.439,0.079 0.577,0.15c0.138,0.069 0.24,0.15 0.3,0.242l0.093,0.301l0,4.945l5.338,0l0.324,0.081c0.092,0.055 0.173,0.146 0.242,0.278c0.069,0.13 0.119,0.296 0.15,0.496c0.031,0.2 0.047,0.447 0.047,0.739c0,0.555 -0.07,0.957 -0.208,1.202c-0.139,0.246 -0.324,0.37 -0.555,0.37l-5.338,0l0,11.601c0,1.434 0.211,2.516 0.636,3.247c0.423,0.732 1.181,1.098 2.276,1.098c0.354,0 0.67,-0.034 0.947,-0.106c0.277,-0.067 0.523,-0.141 0.739,-0.218c0.216,-0.077 0.401,-0.15 0.556,-0.219c0.152,-0.069 0.292,-0.104 0.415,-0.104l0.22,0.058l0.162,0.219c0.037,0.107 0.072,0.255 0.103,0.437c0.031,0.186 0.047,0.419 0.047,0.694Z" style="fill:#fff;fill-rule:nonzero;"/><path d="M450.982,370.989c0.047,-2.002 -0.4,-3.573 -1.338,-4.713c-0.937,-1.14 -2.327,-1.71 -4.173,-1.71c-0.946,0 -1.775,0.178 -2.488,0.532c-0.713,0.353 -1.31,0.824 -1.79,1.408c-0.481,0.586 -0.853,1.269 -1.116,2.047c-0.263,0.776 -0.41,1.589 -0.442,2.436l11.347,0Zm3.835,1.134c0,0.6 -0.15,1.028 -0.451,1.283c-0.302,0.253 -0.646,0.38 -1.035,0.38l-13.696,0c0,1.156 0.116,2.196 0.348,3.12c0.232,0.926 0.62,1.719 1.161,2.383c0.542,0.661 1.246,1.168 2.113,1.523c0.867,0.355 1.927,0.531 3.182,0.531c0.991,0 1.873,-0.08 2.647,-0.241c0.774,-0.163 1.444,-0.344 2.009,-0.542c0.565,-0.203 1.029,-0.383 1.393,-0.545c0.364,-0.16 0.638,-0.243 0.825,-0.243l0.29,0.083l0.198,0.241c0.045,0.108 0.08,0.257 0.103,0.451c0.023,0.191 0.036,0.427 0.036,0.705c0,0.199 -0.009,0.372 -0.023,0.519c-0.015,0.145 -0.035,0.277 -0.058,0.393l-0.115,0.31l-0.209,0.269c-0.085,0.085 -0.334,0.222 -0.751,0.415c-0.416,0.191 -0.955,0.381 -1.617,0.565c-0.663,0.186 -1.43,0.352 -2.3,0.497c-0.87,0.147 -1.8,0.219 -2.784,0.219c-1.71,0 -3.209,-0.238 -4.496,-0.716c-1.286,-0.477 -2.369,-1.186 -3.246,-2.125c-0.878,-0.94 -1.54,-2.118 -1.987,-3.536c-0.447,-1.418 -0.67,-3.066 -0.67,-4.944c0,-1.788 0.231,-3.395 0.693,-4.82c0.463,-1.425 1.129,-2.634 1.998,-3.628c0.87,-0.994 1.922,-1.757 3.156,-2.287c1.232,-0.532 2.611,-0.799 4.135,-0.799c1.633,0 3.024,0.263 4.172,0.787c1.146,0.524 2.092,1.229 2.83,2.114c0.739,0.886 1.284,1.926 1.63,3.119c0.346,1.194 0.519,2.469 0.519,3.826l0,0.693Z" style="fill:#fff;fill-rule:nonzero;"/><path d="M464.431,383.424l-0.092,0.312c-0.061,0.084 -0.162,0.159 -0.301,0.219c-0.138,0.062 -0.332,0.108 -0.577,0.138c-0.247,0.032 -0.564,0.047 -0.947,0.047c-0.37,0 -0.68,-0.015 -0.925,-0.047c-0.247,-0.03 -0.443,-0.076 -0.59,-0.138c-0.147,-0.06 -0.245,-0.135 -0.299,-0.219l-0.082,-0.312l0,-30.876l0.082,-0.322c0.054,-0.093 0.152,-0.169 0.299,-0.231c0.147,-0.061 0.343,-0.108 0.59,-0.139c0.245,-0.03 0.555,-0.046 0.925,-0.046c0.383,0 0.7,0.016 0.947,0.046c0.245,0.031 0.439,0.078 0.577,0.139c0.139,0.062 0.24,0.138 0.301,0.231l0.092,0.322l0,30.876Z" style="fill:#fff;fill-rule:nonzero;"/><path d="M475.293,383.424l-0.093,0.312c-0.062,0.084 -0.162,0.159 -0.3,0.219c-0.138,0.062 -0.332,0.108 -0.579,0.138c-0.245,0.032 -0.562,0.047 -0.947,0.047c-0.369,0 -0.678,-0.015 -0.925,-0.047c-0.245,-0.03 -0.441,-0.076 -0.588,-0.138c-0.147,-0.06 -0.247,-0.135 -0.301,-0.219l-0.08,-0.312l0,-30.876l0.08,-0.322c0.054,-0.093 0.154,-0.169 0.301,-0.231c0.147,-0.061 0.343,-0.108 0.588,-0.139c0.247,-0.03 0.556,-0.046 0.925,-0.046c0.385,0 0.702,0.016 0.947,0.046c0.247,0.031 0.441,0.078 0.579,0.139c0.138,0.062 0.238,0.138 0.3,0.231l0.093,0.322l0,30.876Z" style="fill:#fff;fill-rule:nonzero;"/><path d="M486.154,383.424l-0.093,0.312c-0.061,0.084 -0.161,0.159 -0.3,0.219c-0.139,0.062 -0.331,0.108 -0.578,0.138c-0.246,0.032 -0.563,0.047 -0.947,0.047c-0.37,0 -0.678,-0.015 -0.925,-0.047c-0.246,-0.03 -0.443,-0.076 -0.588,-0.138c-0.148,-0.06 -0.247,-0.135 -0.301,-0.219l-0.081,-0.312l0,-20.8l0.081,-0.299c0.054,-0.093 0.153,-0.169 0.301,-0.231c0.145,-0.061 0.342,-0.108 0.588,-0.139c0.247,-0.03 0.555,-0.047 0.925,-0.047c0.384,0 0.701,0.017 0.947,0.047c0.247,0.031 0.439,0.078 0.578,0.139c0.139,0.062 0.239,0.138 0.3,0.231l0.093,0.299l0,20.8Zm0.439,-27.825c0,0.894 -0.171,1.502 -0.508,1.827c-0.34,0.323 -0.963,0.485 -1.872,0.485c-0.893,0 -1.505,-0.158 -1.838,-0.475c-0.331,-0.314 -0.497,-0.912 -0.497,-1.79c0,-0.893 0.171,-1.503 0.51,-1.827c0.338,-0.322 0.961,-0.484 1.872,-0.484c0.891,0 1.505,0.158 1.836,0.473c0.332,0.316 0.497,0.913 0.497,1.791Z" style="fill:#fff;fill-rule:nonzero;"/><path d="M504.017,381.897c0,0.449 -0.031,0.802 -0.092,1.063c-0.061,0.262 -0.154,0.455 -0.277,0.579c-0.125,0.123 -0.309,0.238 -0.555,0.346c-0.247,0.108 -0.528,0.197 -0.844,0.268c-0.315,0.067 -0.65,0.126 -1.005,0.173c-0.354,0.047 -0.709,0.067 -1.063,0.067c-1.079,0 -2.002,-0.139 -2.773,-0.426c-0.77,-0.287 -1.402,-0.716 -1.895,-1.295c-0.494,-0.578 -0.852,-1.309 -1.074,-2.195c-0.224,-0.885 -0.335,-1.929 -0.335,-3.132l0,-12.155l-2.913,0c-0.231,0 -0.416,-0.124 -0.554,-0.37c-0.138,-0.245 -0.208,-0.647 -0.208,-1.202c0,-0.292 0.02,-0.539 0.058,-0.739c0.038,-0.2 0.089,-0.366 0.15,-0.496c0.061,-0.132 0.143,-0.223 0.242,-0.278l0.335,-0.081l2.89,0l0,-4.945l0.08,-0.301c0.054,-0.092 0.154,-0.173 0.301,-0.242c0.146,-0.071 0.342,-0.12 0.59,-0.15c0.245,-0.031 0.553,-0.048 0.923,-0.048c0.385,0 0.702,0.017 0.948,0.048c0.246,0.03 0.439,0.079 0.578,0.15c0.138,0.069 0.238,0.15 0.3,0.242l0.092,0.301l0,4.945l5.339,0l0.324,0.081c0.092,0.055 0.173,0.146 0.242,0.278c0.069,0.13 0.119,0.296 0.149,0.496c0.032,0.2 0.047,0.447 0.047,0.739c0,0.555 -0.069,0.957 -0.207,1.202c-0.139,0.246 -0.324,0.37 -0.555,0.37l-5.339,0l0,11.601c0,1.434 0.212,2.516 0.635,3.247c0.425,0.732 1.183,1.098 2.276,1.098c0.355,0 0.672,-0.034 0.949,-0.106c0.277,-0.067 0.523,-0.141 0.739,-0.218c0.216,-0.077 0.4,-0.15 0.555,-0.219c0.153,-0.069 0.293,-0.104 0.416,-0.104l0.22,0.058l0.161,0.219c0.038,0.107 0.073,0.255 0.103,0.437c0.032,0.186 0.047,0.419 0.047,0.694Z" style="fill:#fff;fill-rule:nonzero;"/><path d="M522.459,370.989c0.045,-2.002 -0.401,-3.573 -1.338,-4.713c-0.937,-1.14 -2.329,-1.71 -4.173,-1.71c-0.946,0 -1.775,0.178 -2.488,0.532c-0.713,0.353 -1.31,0.824 -1.79,1.408c-0.481,0.586 -0.853,1.269 -1.116,2.047c-0.265,0.776 -0.41,1.589 -0.442,2.436l11.347,0Zm3.836,1.134c0,0.6 -0.151,1.028 -0.453,1.283c-0.301,0.253 -0.645,0.38 -1.034,0.38l-13.696,0c0,1.156 0.116,2.196 0.348,3.12c0.232,0.926 0.618,1.719 1.161,2.383c0.542,0.661 1.246,1.168 2.113,1.523c0.867,0.355 1.927,0.531 3.182,0.531c0.991,0 1.873,-0.08 2.647,-0.241c0.774,-0.163 1.443,-0.344 2.009,-0.542c0.565,-0.203 1.029,-0.383 1.393,-0.545c0.364,-0.16 0.638,-0.243 0.825,-0.243l0.289,0.083l0.198,0.241c0.046,0.108 0.081,0.257 0.104,0.451c0.022,0.191 0.035,0.427 0.035,0.705c0,0.199 -0.008,0.372 -0.022,0.519c-0.017,0.145 -0.035,0.277 -0.058,0.393l-0.115,0.31l-0.209,0.269c-0.085,0.085 -0.335,0.222 -0.751,0.415c-0.417,0.191 -0.957,0.381 -1.618,0.565c-0.662,0.186 -1.429,0.352 -2.299,0.497c-0.871,0.147 -1.8,0.219 -2.785,0.219c-1.709,0 -3.209,-0.238 -4.495,-0.716c-1.286,-0.477 -2.369,-1.186 -3.247,-2.125c-0.877,-0.94 -1.541,-2.118 -1.986,-3.536c-0.448,-1.418 -0.671,-3.066 -0.671,-4.944c0,-1.788 0.232,-3.395 0.694,-4.82c0.461,-1.425 1.129,-2.634 1.998,-3.628c0.87,-0.994 1.922,-1.757 3.154,-2.287c1.232,-0.532 2.613,-0.799 4.137,-0.799c1.633,0 3.024,0.263 4.172,0.787c1.146,0.524 2.091,1.229 2.83,2.114c0.739,0.886 1.283,1.926 1.63,3.119c0.347,1.194 0.52,2.469 0.52,3.826l0,0.693Z" style="fill:#fff;fill-rule:nonzero;"/><path d="M553.61,381.897c0,0.449 -0.032,0.802 -0.093,1.063c-0.061,0.262 -0.154,0.455 -0.277,0.579c-0.124,0.123 -0.309,0.238 -0.555,0.346c-0.246,0.108 -0.528,0.197 -0.843,0.268c-0.316,0.067 -0.651,0.126 -1.005,0.173c-0.355,0.047 -0.709,0.067 -1.064,0.067c-1.078,0 -2.002,-0.139 -2.773,-0.426c-0.771,-0.287 -1.401,-0.716 -1.894,-1.295c-0.494,-0.578 -0.852,-1.309 -1.075,-2.195c-0.224,-0.885 -0.336,-1.929 -0.336,-3.132l0,-12.155l-2.912,0c-0.23,0 -0.415,-0.124 -0.554,-0.37c-0.138,-0.245 -0.207,-0.647 -0.207,-1.202c0,-0.292 0.019,-0.539 0.058,-0.739c0.037,-0.2 0.088,-0.366 0.149,-0.496c0.061,-0.132 0.143,-0.223 0.243,-0.278l0.335,-0.081l2.888,0l0,-4.945l0.082,-0.301c0.054,-0.092 0.153,-0.173 0.3,-0.242c0.147,-0.071 0.342,-0.12 0.59,-0.15c0.245,-0.031 0.554,-0.048 0.923,-0.048c0.385,0 0.701,0.017 0.949,0.048c0.245,0.03 0.439,0.079 0.577,0.15c0.139,0.069 0.238,0.15 0.301,0.242l0.091,0.301l0,4.945l5.339,0l0.324,0.081c0.093,0.055 0.173,0.146 0.242,0.278c0.069,0.13 0.119,0.296 0.15,0.496c0.032,0.2 0.047,0.447 0.047,0.739c0,0.555 -0.069,0.957 -0.208,1.202c-0.138,0.246 -0.324,0.37 -0.555,0.37l-5.339,0l0,11.601c0,1.434 0.212,2.516 0.636,3.247c0.423,0.732 1.182,1.098 2.276,1.098c0.356,0 0.671,-0.034 0.948,-0.106c0.277,-0.067 0.524,-0.141 0.74,-0.218c0.216,-0.077 0.4,-0.15 0.553,-0.219c0.154,-0.069 0.293,-0.104 0.417,-0.104l0.219,0.058l0.162,0.219c0.037,0.107 0.073,0.255 0.104,0.437c0.032,0.186 0.047,0.419 0.047,0.694Z" style="fill:#fff;fill-rule:nonzero;"/><path d="M573.575,373.047c0,-1.124 -0.104,-2.188 -0.314,-3.189c-0.21,-1.002 -0.555,-1.879 -1.038,-2.635c-0.482,-0.754 -1.134,-1.352 -1.958,-1.79c-0.825,-0.44 -1.851,-0.659 -3.078,-0.659c-1.135,0 -2.11,0.201 -2.927,0.601c-0.816,0.4 -1.488,0.966 -2.017,1.698c-0.528,0.732 -0.921,1.599 -1.177,2.6c-0.258,1.002 -0.385,2.096 -0.385,3.281c0,1.141 0.105,2.211 0.316,3.214c0.209,0.999 0.559,1.874 1.048,2.621c0.49,0.747 1.146,1.341 1.97,1.779c0.824,0.44 1.851,0.66 3.078,0.66c1.12,0 2.092,-0.202 2.916,-0.602c0.823,-0.4 1.499,-0.962 2.028,-1.684c0.528,-0.726 0.917,-1.589 1.166,-2.59c0.249,-1.001 0.372,-2.103 0.372,-3.305Zm3.952,-0.255c0,1.696 -0.223,3.255 -0.669,4.68c-0.448,1.425 -1.113,2.654 -1.999,3.686c-0.886,1.033 -1.997,1.837 -3.329,2.414c-1.332,0.581 -2.877,0.867 -4.632,0.867c-1.71,0 -3.202,-0.252 -4.473,-0.761c-1.271,-0.51 -2.33,-1.249 -3.177,-2.22c-0.848,-0.969 -1.479,-2.149 -1.894,-3.535c-0.417,-1.387 -0.625,-2.957 -0.625,-4.714c0,-1.695 0.22,-3.255 0.659,-4.68c0.439,-1.425 1.101,-2.654 1.987,-3.686c0.886,-1.031 1.991,-1.833 3.316,-2.403c1.325,-0.569 2.873,-0.856 4.645,-0.856c1.71,0 3.202,0.255 4.473,0.763c1.271,0.508 2.33,1.249 3.177,2.219c0.846,0.971 1.482,2.149 1.905,3.537c0.425,1.386 0.636,2.949 0.636,4.689Z" style="fill:#fff;fill-rule:nonzero;"/><path d="M612.052,362.578c0,0.108 -0.015,0.24 -0.045,0.393c-0.032,0.154 -0.085,0.347 -0.162,0.578l-6.124,19.759c-0.046,0.169 -0.119,0.309 -0.219,0.415c-0.101,0.108 -0.24,0.193 -0.417,0.255c-0.177,0.061 -0.419,0.104 -0.728,0.126c-0.309,0.024 -0.694,0.036 -1.155,0.036c-0.477,0 -0.878,-0.015 -1.202,-0.047c-0.324,-0.03 -0.581,-0.076 -0.774,-0.138c-0.193,-0.06 -0.335,-0.147 -0.427,-0.255c-0.093,-0.107 -0.162,-0.238 -0.208,-0.392l-4.368,-15.09l-0.046,-0.209l-0.047,0.209l-4.043,15.09c-0.047,0.169 -0.121,0.309 -0.22,0.415c-0.101,0.108 -0.251,0.193 -0.45,0.255c-0.201,0.061 -0.46,0.104 -0.774,0.126c-0.316,0.024 -0.706,0.036 -1.169,0.036c-0.476,0 -0.865,-0.015 -1.166,-0.047c-0.3,-0.03 -0.546,-0.076 -0.74,-0.138c-0.193,-0.06 -0.334,-0.147 -0.427,-0.255c-0.092,-0.107 -0.162,-0.238 -0.209,-0.392l-6.077,-19.759c-0.077,-0.231 -0.13,-0.424 -0.162,-0.578c-0.03,-0.153 -0.045,-0.285 -0.045,-0.393c0,-0.138 0.03,-0.249 0.092,-0.335c0.061,-0.083 0.165,-0.154 0.312,-0.208c0.147,-0.054 0.342,-0.088 0.59,-0.105c0.245,-0.014 0.545,-0.022 0.901,-0.022c0.431,0 0.777,0.013 1.039,0.035c0.261,0.023 0.462,0.062 0.602,0.115c0.138,0.054 0.238,0.131 0.299,0.231c0.061,0.101 0.116,0.22 0.162,0.358l5.015,17.148l0.045,0.209l0.048,-0.209l4.598,-17.148c0.032,-0.138 0.081,-0.257 0.151,-0.358c0.069,-0.1 0.173,-0.177 0.311,-0.231c0.139,-0.053 0.327,-0.092 0.566,-0.115c0.239,-0.022 0.552,-0.035 0.936,-0.035c0.37,0 0.673,0.013 0.913,0.035c0.239,0.023 0.428,0.062 0.566,0.115c0.139,0.054 0.24,0.127 0.301,0.22l0.139,0.324l4.968,17.193l0.046,0.209l0.023,-0.209l4.945,-17.148c0.032,-0.138 0.081,-0.257 0.151,-0.358c0.069,-0.1 0.177,-0.177 0.324,-0.231c0.146,-0.053 0.346,-0.092 0.601,-0.115c0.253,-0.022 0.58,-0.035 0.981,-0.035c0.37,0 0.666,0.008 0.891,0.022c0.222,0.017 0.4,0.056 0.531,0.117c0.129,0.06 0.222,0.131 0.277,0.209c0.054,0.077 0.08,0.184 0.08,0.322Z" style="fill:#fff;fill-rule:nonzero;"/><path d="M634.7,383.424l-0.093,0.312c-0.061,0.084 -0.162,0.159 -0.3,0.219c-0.139,0.062 -0.333,0.108 -0.578,0.138c-0.246,0.032 -0.555,0.047 -0.925,0.047c-0.385,0 -0.702,-0.015 -0.947,-0.047c-0.246,-0.03 -0.439,-0.076 -0.577,-0.138c-0.139,-0.06 -0.24,-0.135 -0.301,-0.219l-0.092,-0.312l0,-12.18c0,-1.185 -0.093,-2.142 -0.277,-2.864c-0.186,-0.726 -0.454,-1.349 -0.809,-1.874c-0.356,-0.523 -0.814,-0.923 -1.375,-1.2c-0.563,-0.277 -1.214,-0.417 -1.953,-0.417c-0.956,0 -1.91,0.339 -2.865,1.018c-0.957,0.677 -1.956,1.671 -3.005,2.981l0,14.536l-0.092,0.312c-0.063,0.084 -0.162,0.159 -0.301,0.219c-0.138,0.062 -0.332,0.108 -0.577,0.138c-0.247,0.032 -0.564,0.047 -0.947,0.047c-0.371,0 -0.68,-0.015 -0.925,-0.047c-0.246,-0.03 -0.443,-0.076 -0.59,-0.138c-0.147,-0.06 -0.246,-0.135 -0.3,-0.219l-0.081,-0.312l0,-20.8l0.07,-0.312c0.045,-0.084 0.138,-0.16 0.277,-0.229c0.138,-0.071 0.315,-0.117 0.531,-0.14c0.216,-0.022 0.5,-0.035 0.856,-0.035c0.338,0 0.62,0.013 0.843,0.035c0.223,0.023 0.396,0.069 0.519,0.14l0.266,0.229l0.082,0.312l0,2.751c1.17,-1.31 2.337,-2.269 3.5,-2.877c1.163,-0.609 2.337,-0.914 3.524,-0.914c1.387,0 2.554,0.235 3.501,0.705c0.949,0.471 1.714,1.098 2.3,1.884c0.586,0.785 1.005,1.706 1.26,2.762c0.253,1.054 0.381,2.322 0.381,3.801l0,12.688Z" style="fill:#fff;fill-rule:nonzero;"/></g></svg>