<?xml version="1.0" encoding="UTF-8" standalone="no"?><!DOCTYPE svg PUBLIC "-//W3C//DTD SVG 1.1//EN" "http://www.w3.org/Graphics/SVG/1.1/DTD/svg11.dtd"><svg width="100%" height="100%" viewBox="0 0 900 600" version="1.1" xmlns="http://www.w3.org/2000/svg" xmlns:xlink="http://www.w3.org/1999/xlink" xml:space="preserve" xmlns:serif="http://www.serif.com/" style="fill-rule:evenodd;clip-rule:evenodd;stroke-linejoin:round;stroke-miterlimit:1.41421;"><rect id="logo-digitalhunters" x="0" y="0" width="900" height="600" style="fill:none;"/><g><path d="M375.841,284.92c-1.105,0 -2.011,0.905 -2.011,2.011l0,26.138c0,1.106 -0.905,2.011 -2.01,2.011l-26.138,0c-1.107,0 -2.01,-0.905 -2.01,-2.011l0,-26.138c0,-1.106 -0.905,-2.011 -2.012,-2.011l-26.139,0c-1.106,0 -2.011,0.905 -2.011,2.011l0,56.3c0,1.105 0.905,2.009 2.011,2.009l86.46,0c1.106,0 2.01,-0.904 2.01,-2.009l0,-56.3c0,-1.106 -0.904,-2.011 -2.01,-2.011l-26.14,0Z" style="fill:#fff;"/><path d="M343.672,383.443c0,1.106 -0.905,2.012 -2.012,2.012l-26.139,0c-1.106,0 -2.011,-0.906 -2.011,-2.012l0,-26.139c0,-1.106 0.905,-2.01 2.011,-2.01l26.139,0c1.107,0 2.012,0.904 2.012,2.01l0,26.139Z" style="fill:#fff;fill-rule:nonzero;"/><path d="M403.991,383.443c0,1.106 -0.904,2.012 -2.01,2.012l-26.14,0c-1.105,0 -2.011,-0.906 -2.011,-2.012l0,-26.139c0,-1.106 0.906,-2.01 2.011,-2.01l26.14,0c1.106,0 2.01,0.904 2.01,2.01l0,26.139Z" style="fill:#fff;fill-rule:nonzero;"/><path d="M390.332,215.968c-0.781,-0.782 -2.325,-1.423 -3.432,-1.423l-11.059,0c-1.105,0 -2.916,0 -4.021,0l-26.138,0c-1.107,0 -2.915,0 -4.022,0l-26.139,0c-1.106,0 -2.011,0.906 -2.011,2.012l0,56.299c0,1.105 0.905,2.01 2.011,2.01l26.139,0c1.107,0 2.012,-0.905 2.012,-2.01l0,-26.139c0,-1.106 0.903,-2.011 2.01,-2.011l26.138,0c1.105,0 2.01,0.905 2.01,2.011l0,26.139c0,1.105 0.906,2.01 2.011,2.01l26.14,0c1.106,0 2.01,-0.905 2.01,-2.01l0,-41.219c0,-1.107 -0.64,-2.651 -1.421,-3.432l-12.238,-12.237Z" style="fill:#fff;fill-rule:nonzero;"/><path d="M450.396,279.546c0,-1.731 -0.214,-3.343 -0.644,-4.835c-0.427,-1.492 -1.098,-2.782 -2.016,-3.87c-0.914,-1.089 -2.072,-1.937 -3.473,-2.548c-1.401,-0.609 -3.207,-0.914 -5.415,-0.914l-4.329,0l0,24.904l4.378,0c2.043,0 3.767,-0.256 5.169,-0.766c1.4,-0.512 2.572,-1.296 3.511,-2.35c0.939,-1.057 1.645,-2.378 2.114,-3.971c0.47,-1.589 0.705,-3.475 0.705,-5.65Zm4.476,-0.173c0,2.771 -0.355,5.19 -1.063,7.258c-0.709,2.069 -1.744,3.784 -3.104,5.144c-1.361,1.36 -3.029,2.379 -5.008,3.054c-1.977,0.677 -4.336,1.015 -7.072,1.015l-6.777,0c-0.38,0 -0.737,-0.128 -1.075,-0.383c-0.34,-0.256 -0.508,-0.706 -0.508,-1.348l0,-28.54c0,-0.642 0.168,-1.092 0.508,-1.348c0.338,-0.255 0.695,-0.383 1.075,-0.383l7.246,0c2.771,0 5.111,0.359 7.024,1.076c1.911,0.717 3.515,1.748 4.81,3.09c1.294,1.345 2.275,2.974 2.942,4.886c0.669,1.912 1.002,4.072 1.002,6.479Z" style="fill:#fff;fill-rule:nonzero;"/><path d="M465.037,295.225c0,0.132 -0.034,0.244 -0.1,0.335c-0.066,0.09 -0.173,0.169 -0.32,0.233c-0.149,0.066 -0.355,0.116 -0.619,0.149c-0.264,0.033 -0.603,0.049 -1.015,0.049c-0.395,0 -0.725,-0.016 -0.988,-0.049c-0.265,-0.033 -0.474,-0.083 -0.631,-0.149c-0.158,-0.064 -0.264,-0.143 -0.322,-0.233c-0.057,-0.091 -0.086,-0.203 -0.086,-0.335l0,-22.258l0.086,-0.322c0.058,-0.097 0.164,-0.18 0.322,-0.246c0.157,-0.066 0.366,-0.115 0.631,-0.148c0.263,-0.033 0.593,-0.05 0.988,-0.05c0.412,0 0.751,0.017 1.015,0.05c0.264,0.033 0.47,0.082 0.619,0.148c0.147,0.066 0.254,0.149 0.32,0.246l0.1,0.322l0,22.258Zm0.469,-29.776c0,0.957 -0.18,1.608 -0.543,1.954c-0.364,0.347 -1.031,0.52 -2.004,0.52c-0.955,0 -1.611,-0.169 -1.966,-0.507c-0.355,-0.337 -0.532,-0.977 -0.532,-1.917c0,-0.956 0.181,-1.608 0.544,-1.954c0.363,-0.345 1.03,-0.519 2.004,-0.519c0.956,0 1.612,0.169 1.966,0.506c0.354,0.34 0.531,0.978 0.531,1.917Z" style="fill:#fff;fill-rule:nonzero;"/><path d="M484.797,279.843c0,-1.517 -0.417,-2.699 -1.249,-3.549c-0.833,-0.849 -2.016,-1.274 -3.549,-1.274c-0.792,0 -1.481,0.132 -2.065,0.396c-0.585,0.263 -1.072,0.627 -1.46,1.088c-0.386,0.462 -0.675,0.994 -0.865,1.595c-0.191,0.603 -0.284,1.232 -0.284,1.893c0,1.467 0.417,2.621 1.248,3.462c0.834,0.84 1.999,1.261 3.5,1.261c0.807,0 1.509,-0.128 2.101,-0.384c0.595,-0.255 1.085,-0.609 1.473,-1.062c0.387,-0.454 0.675,-0.977 0.865,-1.571c0.189,-0.594 0.285,-1.211 0.285,-1.855Zm2.053,17.634c0,-0.958 -0.392,-1.695 -1.176,-2.214c-0.782,-0.52 -1.841,-0.795 -3.178,-0.828l-5.762,-0.198c-0.526,0.411 -0.961,0.803 -1.298,1.174c-0.338,0.371 -0.605,0.725 -0.804,1.063c-0.197,0.338 -0.333,0.671 -0.409,1.003c-0.073,0.328 -0.11,0.667 -0.11,1.013c0,1.071 0.545,1.883 1.633,2.435c1.087,0.553 2.604,0.83 4.55,0.83c1.236,0 2.272,-0.121 3.104,-0.359c0.832,-0.239 1.504,-0.557 2.016,-0.952c0.51,-0.396 0.877,-0.85 1.1,-1.361c0.223,-0.51 0.334,-1.047 0.334,-1.606Zm4.326,-23.495c0,0.578 -0.077,0.993 -0.235,1.249c-0.155,0.256 -0.357,0.383 -0.605,0.383l-3.189,0c0.576,0.593 0.981,1.249 1.212,1.965c0.231,0.718 0.346,1.465 0.346,2.239c0,1.286 -0.208,2.423 -0.62,3.413c-0.411,0.989 -1,1.827 -1.767,2.51c-0.766,0.685 -1.679,1.207 -2.733,1.57c-1.056,0.363 -2.226,0.545 -3.512,0.545c-0.907,0 -1.768,-0.12 -2.585,-0.359c-0.816,-0.239 -1.445,-0.539 -1.891,-0.903c-0.297,0.297 -0.54,0.635 -0.73,1.014c-0.19,0.38 -0.285,0.817 -0.285,1.311c0,0.578 0.268,1.055 0.805,1.434c0.536,0.38 1.248,0.586 2.139,0.619l5.812,0.248c1.104,0.033 2.118,0.185 3.042,0.456c0.922,0.272 1.721,0.66 2.398,1.162c0.675,0.504 1.203,1.122 1.584,1.855c0.378,0.735 0.568,1.587 0.568,2.559c0,1.024 -0.214,1.996 -0.643,2.92c-0.43,0.923 -1.084,1.734 -1.967,2.435c-0.881,0.702 -2.006,1.253 -3.375,1.657c-1.369,0.405 -2.985,0.607 -4.847,0.607c-1.797,0 -3.327,-0.153 -4.588,-0.458c-1.261,-0.305 -2.296,-0.721 -3.103,-1.249c-0.809,-0.528 -1.395,-1.159 -1.756,-1.892c-0.363,-0.733 -0.545,-1.529 -0.545,-2.387c0,-0.543 0.066,-1.071 0.2,-1.582c0.13,-0.511 0.332,-0.998 0.605,-1.459c0.27,-0.462 0.609,-0.903 1.013,-1.323c0.404,-0.422 0.869,-0.837 1.397,-1.25c-0.807,-0.411 -1.405,-0.931 -1.793,-1.558c-0.386,-0.625 -0.582,-1.302 -0.582,-2.027c0,-1.005 0.208,-1.904 0.621,-2.696c0.411,-0.791 0.922,-1.501 1.533,-2.126c-0.512,-0.611 -0.916,-1.3 -1.213,-2.066c-0.297,-0.766 -0.444,-1.694 -0.444,-2.782c0,-1.269 0.213,-2.408 0.643,-3.413c0.428,-1.005 1.022,-1.855 1.778,-2.547c0.76,-0.693 1.67,-1.224 2.734,-1.595c1.063,-0.371 2.222,-0.557 3.475,-0.557c0.675,0 1.307,0.037 1.892,0.112c0.585,0.074 1.134,0.177 1.644,0.309l6.727,0c0.281,0 0.49,0.136 0.631,0.407c0.14,0.272 0.209,0.689 0.209,1.25Z" style="fill:#fff;fill-rule:nonzero;"/><path d="M500.501,295.225c0,0.132 -0.034,0.244 -0.1,0.335c-0.065,0.09 -0.174,0.169 -0.321,0.233c-0.148,0.066 -0.354,0.116 -0.618,0.149c-0.264,0.033 -0.603,0.049 -1.015,0.049c-0.395,0 -0.725,-0.016 -0.988,-0.049c-0.265,-0.033 -0.474,-0.083 -0.631,-0.149c-0.158,-0.064 -0.264,-0.143 -0.322,-0.233c-0.057,-0.091 -0.086,-0.203 -0.086,-0.335l0,-22.258l0.086,-0.322c0.058,-0.097 0.164,-0.18 0.322,-0.246c0.157,-0.066 0.366,-0.115 0.631,-0.148c0.263,-0.033 0.593,-0.05 0.988,-0.05c0.412,0 0.751,0.017 1.015,0.05c0.264,0.033 0.47,0.082 0.618,0.148c0.147,0.066 0.256,0.149 0.321,0.246l0.1,0.322l0,22.258Zm0.469,-29.776c0,0.957 -0.18,1.608 -0.543,1.954c-0.365,0.347 -1.031,0.52 -2.004,0.52c-0.955,0 -1.611,-0.169 -1.966,-0.507c-0.355,-0.337 -0.532,-0.977 -0.532,-1.917c0,-0.956 0.181,-1.608 0.544,-1.954c0.363,-0.345 1.03,-0.519 2.004,-0.519c0.956,0 1.611,0.169 1.966,0.506c0.355,0.34 0.531,0.978 0.531,1.917Z" style="fill:#fff;fill-rule:nonzero;"/><path d="M519.617,293.593c0,0.479 -0.031,0.857 -0.097,1.137c-0.068,0.281 -0.165,0.487 -0.298,0.619c-0.133,0.132 -0.33,0.256 -0.594,0.372c-0.264,0.115 -0.565,0.21 -0.902,0.283c-0.338,0.074 -0.697,0.136 -1.076,0.185c-0.38,0.05 -0.758,0.075 -1.138,0.075c-1.153,0 -2.144,-0.153 -2.969,-0.457c-0.823,-0.305 -1.499,-0.767 -2.027,-1.386c-0.528,-0.617 -0.91,-1.401 -1.149,-2.349c-0.24,-0.947 -0.359,-2.065 -0.359,-3.351l0,-13.009l-3.115,0c-0.247,0 -0.447,-0.131 -0.594,-0.395c-0.15,-0.264 -0.223,-0.693 -0.223,-1.285c0,-0.314 0.02,-0.578 0.062,-0.792c0.041,-0.215 0.095,-0.392 0.161,-0.533c0.066,-0.139 0.151,-0.238 0.259,-0.295c0.107,-0.058 0.226,-0.087 0.359,-0.087l3.091,0l0,-5.293l0.086,-0.322c0.058,-0.097 0.166,-0.184 0.322,-0.258c0.156,-0.075 0.367,-0.128 0.63,-0.161c0.264,-0.033 0.594,-0.05 0.99,-0.05c0.413,0 0.751,0.017 1.014,0.05c0.262,0.033 0.47,0.086 0.619,0.161c0.148,0.074 0.255,0.161 0.321,0.258l0.099,0.322l0,5.293l5.713,0c0.132,0 0.247,0.029 0.345,0.087c0.099,0.057 0.187,0.156 0.261,0.295c0.073,0.141 0.127,0.318 0.161,0.533c0.032,0.214 0.048,0.478 0.048,0.792c0,0.592 -0.074,1.021 -0.221,1.285c-0.15,0.264 -0.347,0.395 -0.594,0.395l-5.713,0l0,12.416c0,1.532 0.226,2.691 0.68,3.474c0.453,0.784 1.265,1.176 2.436,1.176c0.379,0 0.717,-0.037 1.014,-0.112c0.297,-0.074 0.56,-0.152 0.791,-0.235c0.231,-0.082 0.429,-0.161 0.594,-0.235c0.165,-0.074 0.312,-0.111 0.445,-0.111l0.235,0.061l0.174,0.236c0.04,0.115 0.077,0.272 0.111,0.469c0.032,0.198 0.048,0.445 0.048,0.742Z" style="fill:#fff;fill-rule:nonzero;"/><path d="M537.102,285.085l-3.489,0c-1.12,0 -2.093,0.096 -2.916,0.285c-0.825,0.191 -1.51,0.47 -2.053,0.841c-0.544,0.372 -0.945,0.816 -1.201,1.336c-0.254,0.519 -0.382,1.116 -0.382,1.793c0,1.154 0.367,2.072 1.1,2.757c0.734,0.683 1.76,1.027 3.079,1.027c1.07,0 2.065,-0.273 2.981,-0.817c0.915,-0.544 1.875,-1.376 2.881,-2.498l0,-4.724Zm4.056,10.165c0,0.198 -0.066,0.347 -0.197,0.446c-0.133,0.097 -0.315,0.173 -0.545,0.221c-0.231,0.05 -0.569,0.074 -1.013,0.074c-0.431,0 -0.772,-0.024 -1.027,-0.074c-0.256,-0.048 -0.442,-0.124 -0.557,-0.221c-0.116,-0.099 -0.174,-0.248 -0.174,-0.446l0,-2.226c-0.972,1.039 -2.057,1.847 -3.252,2.424c-1.195,0.576 -2.46,0.865 -3.797,0.865c-1.168,0 -2.229,-0.152 -3.176,-0.458c-0.949,-0.304 -1.756,-0.745 -2.423,-1.323c-0.669,-0.576 -1.187,-1.285 -1.56,-2.126c-0.37,-0.841 -0.555,-1.797 -0.555,-2.868c0,-1.254 0.256,-2.342 0.767,-3.265c0.51,-0.924 1.245,-1.69 2.2,-2.3c0.957,-0.61 2.128,-1.068 3.513,-1.373c1.383,-0.305 2.942,-0.456 4.672,-0.456l3.068,0l0,-1.733c0,-0.857 -0.092,-1.614 -0.272,-2.275c-0.182,-0.658 -0.474,-1.207 -0.877,-1.644c-0.405,-0.438 -0.929,-0.766 -1.572,-0.989c-0.642,-0.223 -1.434,-0.334 -2.374,-0.334c-1.006,0 -1.908,0.119 -2.709,0.359c-0.799,0.238 -1.499,0.502 -2.1,0.79c-0.603,0.289 -1.105,0.553 -1.51,0.791c-0.404,0.241 -0.705,0.359 -0.902,0.359c-0.132,0 -0.247,-0.032 -0.346,-0.099c-0.098,-0.065 -0.186,-0.164 -0.26,-0.296c-0.073,-0.132 -0.127,-0.301 -0.161,-0.507c-0.033,-0.206 -0.049,-0.432 -0.049,-0.681c0,-0.411 0.03,-0.737 0.088,-0.976c0.057,-0.238 0.196,-0.465 0.419,-0.679c0.223,-0.215 0.606,-0.467 1.15,-0.755c0.544,-0.289 1.171,-0.552 1.879,-0.791c0.709,-0.239 1.484,-0.437 2.326,-0.594c0.84,-0.157 1.688,-0.235 2.547,-0.235c1.596,0 2.959,0.181 4.08,0.544c1.122,0.362 2.028,0.894 2.721,1.595c0.692,0.702 1.195,1.57 1.507,2.609c0.314,1.038 0.471,2.251 0.471,3.636l0,15.011Z" style="fill:#fff;fill-rule:nonzero;"/><path d="M552.732,295.225c0,0.132 -0.033,0.244 -0.099,0.335c-0.066,0.09 -0.173,0.169 -0.322,0.233c-0.148,0.066 -0.353,0.116 -0.618,0.149c-0.263,0.033 -0.601,0.049 -1.014,0.049c-0.395,0 -0.725,-0.016 -0.989,-0.049c-0.264,-0.033 -0.474,-0.083 -0.631,-0.149c-0.157,-0.064 -0.262,-0.143 -0.32,-0.233c-0.058,-0.091 -0.088,-0.203 -0.088,-0.335l0,-33.04c0,-0.131 0.03,-0.248 0.088,-0.346c0.058,-0.099 0.163,-0.181 0.32,-0.247c0.157,-0.066 0.367,-0.116 0.631,-0.149c0.264,-0.033 0.594,-0.049 0.989,-0.049c0.413,0 0.751,0.016 1.014,0.049c0.265,0.033 0.47,0.083 0.618,0.149c0.149,0.066 0.256,0.148 0.322,0.247c0.066,0.098 0.099,0.215 0.099,0.346l0,33.04Z" style="fill:#fff;fill-rule:nonzero;"/><path d="M453.314,344.598c0,0.132 -0.033,0.247 -0.099,0.346c-0.066,0.099 -0.181,0.178 -0.345,0.235c-0.165,0.058 -0.384,0.108 -0.656,0.149c-0.272,0.041 -0.606,0.062 -1.001,0.062c-0.431,0 -0.776,-0.021 -1.04,-0.062c-0.262,-0.041 -0.478,-0.091 -0.643,-0.149c-0.164,-0.057 -0.279,-0.136 -0.345,-0.235c-0.068,-0.099 -0.099,-0.214 -0.099,-0.346l0,-14.196l-14.567,0l0,14.196c0,0.132 -0.033,0.247 -0.098,0.346c-0.068,0.099 -0.183,0.178 -0.347,0.235c-0.165,0.058 -0.383,0.108 -0.656,0.149c-0.272,0.041 -0.614,0.062 -1.027,0.062c-0.395,0 -0.733,-0.021 -1.013,-0.062c-0.279,-0.041 -0.502,-0.091 -0.667,-0.149c-0.165,-0.057 -0.281,-0.136 -0.347,-0.235c-0.066,-0.099 -0.099,-0.214 -0.099,-0.346l0,-30.716c0,-0.13 0.033,-0.246 0.099,-0.346c0.066,-0.099 0.182,-0.176 0.347,-0.234c0.165,-0.058 0.388,-0.107 0.667,-0.149c0.28,-0.041 0.618,-0.062 1.013,-0.062c0.413,0 0.755,0.021 1.027,0.062c0.273,0.042 0.491,0.091 0.656,0.149c0.164,0.058 0.279,0.135 0.347,0.234c0.065,0.1 0.098,0.216 0.098,0.346l0,12.811l14.567,0l0,-12.811c0,-0.13 0.031,-0.246 0.099,-0.346c0.066,-0.099 0.181,-0.176 0.345,-0.234c0.165,-0.058 0.381,-0.107 0.643,-0.149c0.264,-0.041 0.609,-0.062 1.04,-0.062c0.395,0 0.729,0.021 1.001,0.062c0.272,0.042 0.491,0.091 0.656,0.149c0.164,0.058 0.279,0.135 0.345,0.234c0.066,0.1 0.099,0.216 0.099,0.346l0,30.716Z" style="fill:#fff;fill-rule:nonzero;"/><path d="M480.42,344.622c0,0.132 -0.029,0.244 -0.087,0.335c-0.058,0.09 -0.161,0.169 -0.309,0.235c-0.147,0.066 -0.343,0.115 -0.582,0.148c-0.239,0.033 -0.532,0.05 -0.877,0.05c-0.38,0 -0.689,-0.017 -0.927,-0.05c-0.239,-0.033 -0.429,-0.082 -0.569,-0.148c-0.141,-0.066 -0.236,-0.145 -0.284,-0.235c-0.051,-0.091 -0.075,-0.203 -0.075,-0.335l0,-2.942c-1.27,1.402 -2.522,2.424 -3.76,3.066c-1.236,0.644 -2.489,0.965 -3.758,0.965c-1.484,0 -2.733,-0.247 -3.748,-0.742c-1.013,-0.495 -1.834,-1.166 -2.46,-2.016c-0.627,-0.849 -1.075,-1.837 -1.347,-2.968c-0.271,-1.129 -0.409,-2.501 -0.409,-4.117l0,-13.502c0,-0.133 0.03,-0.244 0.088,-0.335c0.058,-0.09 0.168,-0.173 0.333,-0.247c0.165,-0.074 0.379,-0.124 0.642,-0.149c0.264,-0.024 0.594,-0.037 0.99,-0.037c0.395,0 0.726,0.013 0.989,0.037c0.264,0.025 0.474,0.075 0.631,0.149c0.157,0.074 0.267,0.157 0.334,0.247c0.066,0.091 0.098,0.202 0.098,0.335l0,12.959c0,1.302 0.096,2.345 0.285,3.127c0.189,0.784 0.478,1.452 0.866,2.004c0.388,0.552 0.877,0.98 1.471,1.285c0.593,0.306 1.286,0.458 2.077,0.458c1.023,0 2.041,-0.363 3.055,-1.087c1.014,-0.726 2.091,-1.789 3.228,-3.191l0,-15.555c0,-0.133 0.027,-0.244 0.085,-0.335c0.058,-0.09 0.169,-0.173 0.334,-0.247c0.165,-0.074 0.376,-0.124 0.63,-0.149c0.257,-0.024 0.59,-0.037 1.003,-0.037c0.396,0 0.724,0.013 0.99,0.037c0.262,0.025 0.469,0.075 0.617,0.149c0.149,0.074 0.26,0.157 0.334,0.247c0.075,0.091 0.112,0.202 0.112,0.335l0,22.256Z" style="fill:#fff;fill-rule:nonzero;"/><path d="M507.128,344.622c0,0.132 -0.032,0.244 -0.098,0.335c-0.066,0.09 -0.173,0.169 -0.323,0.235c-0.147,0.066 -0.355,0.115 -0.617,0.148c-0.264,0.033 -0.594,0.05 -0.99,0.05c-0.412,0 -0.75,-0.017 -1.014,-0.05c-0.262,-0.033 -0.47,-0.082 -0.617,-0.148c-0.15,-0.066 -0.257,-0.145 -0.322,-0.235c-0.066,-0.091 -0.099,-0.203 -0.099,-0.335l0,-13.032c0,-1.269 -0.099,-2.291 -0.297,-3.067c-0.197,-0.775 -0.486,-1.442 -0.866,-2.003c-0.379,-0.561 -0.868,-0.989 -1.47,-1.286c-0.603,-0.297 -1.299,-0.445 -2.091,-0.445c-1.023,0 -2.045,0.363 -3.066,1.087c-1.022,0.726 -2.093,1.791 -3.215,3.191l0,15.555c0,0.132 -0.033,0.244 -0.099,0.335c-0.066,0.09 -0.174,0.169 -0.321,0.235c-0.15,0.066 -0.355,0.115 -0.62,0.148c-0.263,0.033 -0.601,0.05 -1.014,0.05c-0.394,0 -0.724,-0.017 -0.988,-0.05c-0.264,-0.033 -0.473,-0.082 -0.631,-0.148c-0.157,-0.066 -0.263,-0.145 -0.321,-0.235c-0.058,-0.091 -0.088,-0.203 -0.088,-0.335l0,-22.256c0,-0.133 0.026,-0.244 0.076,-0.335c0.048,-0.09 0.148,-0.173 0.297,-0.247c0.147,-0.074 0.337,-0.124 0.568,-0.149c0.231,-0.024 0.536,-0.037 0.916,-0.037c0.361,0 0.664,0.013 0.902,0.037c0.239,0.025 0.425,0.075 0.557,0.149c0.13,0.074 0.227,0.157 0.284,0.247c0.058,0.091 0.086,0.202 0.086,0.335l0,2.942c1.252,-1.401 2.501,-2.427 3.747,-3.079c1.244,-0.651 2.501,-0.976 3.772,-0.976c1.484,0 2.732,0.25 3.747,0.754c1.014,0.503 1.833,1.174 2.46,2.016c0.626,0.84 1.076,1.826 1.348,2.955c0.271,1.129 0.407,2.485 0.407,4.067l0,13.577Z" style="fill:#fff;fill-rule:nonzero;"/><path d="M525.676,342.99c0,0.479 -0.032,0.858 -0.098,1.139c-0.067,0.279 -0.165,0.485 -0.297,0.617c-0.133,0.132 -0.33,0.256 -0.592,0.371c-0.266,0.116 -0.567,0.211 -0.904,0.285c-0.338,0.074 -0.697,0.136 -1.076,0.186c-0.379,0.049 -0.758,0.074 -1.138,0.074c-1.153,0 -2.144,-0.153 -2.967,-0.458c-0.825,-0.305 -1.501,-0.767 -2.029,-1.385c-0.528,-0.619 -0.91,-1.401 -1.149,-2.35c-0.24,-0.947 -0.359,-2.064 -0.359,-3.35l0,-13.009l-3.115,0c-0.247,0 -0.445,-0.132 -0.594,-0.396c-0.149,-0.262 -0.223,-0.691 -0.223,-1.286c0,-0.312 0.021,-0.576 0.062,-0.792c0.041,-0.213 0.095,-0.39 0.161,-0.53c0.066,-0.141 0.151,-0.24 0.26,-0.297c0.107,-0.058 0.227,-0.087 0.357,-0.087l3.092,0l0,-5.292l0.086,-0.321c0.058,-0.099 0.165,-0.186 0.322,-0.26c0.157,-0.075 0.367,-0.128 0.63,-0.161c0.265,-0.033 0.594,-0.05 0.99,-0.05c0.413,0 0.751,0.017 1.014,0.05c0.264,0.033 0.47,0.086 0.62,0.161c0.147,0.074 0.254,0.161 0.32,0.26l0.099,0.321l0,5.292l5.713,0c0.132,0 0.247,0.029 0.345,0.087c0.1,0.057 0.187,0.156 0.261,0.297c0.074,0.14 0.128,0.317 0.161,0.53c0.033,0.216 0.048,0.48 0.048,0.792c0,0.595 -0.073,1.024 -0.221,1.286c-0.149,0.264 -0.347,0.396 -0.594,0.396l-5.713,0l0,12.415c0,1.533 0.226,2.693 0.68,3.474c0.453,0.784 1.265,1.176 2.436,1.176c0.379,0 0.717,-0.038 1.014,-0.112c0.297,-0.074 0.56,-0.152 0.791,-0.235c0.231,-0.082 0.429,-0.161 0.594,-0.235c0.165,-0.074 0.312,-0.11 0.445,-0.11l0.235,0.06l0.174,0.236c0.039,0.115 0.078,0.272 0.111,0.47c0.033,0.198 0.048,0.444 0.048,0.741Z" style="fill:#fff;fill-rule:nonzero;"/><path d="M545.412,331.318c0.048,-2.144 -0.429,-3.825 -1.431,-5.046c-1.004,-1.219 -2.493,-1.83 -4.467,-1.83c-1.012,0 -1.899,0.191 -2.662,0.569c-0.763,0.38 -1.401,0.883 -1.916,1.509c-0.515,0.627 -0.913,1.356 -1.195,2.188c-0.283,0.833 -0.441,1.704 -0.473,2.61l12.144,0Zm4.105,1.211c0,0.644 -0.162,1.102 -0.484,1.373c-0.324,0.272 -0.692,0.408 -1.107,0.408l-14.658,0c0,1.236 0.125,2.35 0.373,3.339c0.249,0.989 0.663,1.839 1.242,2.547c0.58,0.709 1.334,1.254 2.262,1.632c0.928,0.38 2.063,0.569 3.405,0.569c1.06,0 2.005,-0.086 2.833,-0.26c0.829,-0.173 1.544,-0.367 2.15,-0.581c0.604,-0.215 1.1,-0.409 1.491,-0.581c0.389,-0.173 0.683,-0.259 0.881,-0.259l0.311,0.086l0.212,0.26c0.048,0.116 0.087,0.277 0.111,0.481c0.025,0.207 0.039,0.458 0.039,0.755c0,0.215 -0.01,0.401 -0.026,0.557c-0.017,0.156 -0.036,0.296 -0.062,0.42l-0.124,0.334l-0.223,0.285c-0.089,0.09 -0.359,0.239 -0.803,0.445c-0.445,0.206 -1.021,0.407 -1.731,0.605c-0.708,0.198 -1.529,0.376 -2.462,0.532c-0.929,0.157 -1.923,0.235 -2.98,0.235c-1.828,0 -3.432,-0.255 -4.81,-0.767c-1.376,-0.51 -2.533,-1.269 -3.473,-2.274c-0.941,-1.007 -1.649,-2.268 -2.129,-3.785c-0.477,-1.517 -0.717,-3.281 -0.717,-5.291c0,-1.913 0.249,-3.632 0.744,-5.157c0.494,-1.525 1.206,-2.821 2.137,-3.884c0.933,-1.063 2.056,-1.878 3.378,-2.447c1.318,-0.57 2.795,-0.853 4.426,-0.853c1.748,0 3.236,0.281 4.464,0.84c1.228,0.561 2.239,1.315 3.03,2.262c0.792,0.949 1.372,2.062 1.743,3.339c0.37,1.278 0.557,2.643 0.557,4.094l0,0.741Z" style="fill:#fff;fill-rule:nonzero;"/><path d="M568.732,323.825c0,0.363 -0.008,0.668 -0.025,0.914c-0.015,0.248 -0.049,0.441 -0.099,0.582c-0.048,0.14 -0.111,0.247 -0.185,0.32c-0.073,0.076 -0.178,0.113 -0.308,0.113c-0.132,0 -0.293,-0.037 -0.483,-0.113c-0.19,-0.073 -0.404,-0.147 -0.644,-0.221c-0.239,-0.075 -0.506,-0.145 -0.803,-0.211c-0.297,-0.066 -0.618,-0.099 -0.965,-0.099c-0.413,0 -0.815,0.083 -1.211,0.248c-0.397,0.165 -0.813,0.437 -1.249,0.815c-0.436,0.38 -0.894,0.883 -1.373,1.509c-0.478,0.627 -1.005,1.394 -1.582,2.3l0,14.64c0,0.132 -0.033,0.244 -0.099,0.335c-0.066,0.09 -0.174,0.169 -0.322,0.235c-0.147,0.066 -0.355,0.115 -0.618,0.148c-0.265,0.033 -0.602,0.05 -1.014,0.05c-0.396,0 -0.725,-0.017 -0.989,-0.05c-0.264,-0.033 -0.475,-0.082 -0.63,-0.148c-0.158,-0.066 -0.265,-0.145 -0.323,-0.235c-0.058,-0.091 -0.085,-0.203 -0.085,-0.335l0,-22.256c0,-0.133 0.023,-0.244 0.074,-0.335c0.049,-0.09 0.148,-0.173 0.295,-0.247c0.15,-0.074 0.339,-0.124 0.57,-0.149c0.229,-0.024 0.535,-0.037 0.914,-0.037c0.363,0 0.664,0.013 0.904,0.037c0.239,0.025 0.423,0.075 0.557,0.149c0.132,0.074 0.225,0.157 0.283,0.247c0.058,0.091 0.088,0.202 0.088,0.335l0,3.239c0.609,-0.891 1.183,-1.615 1.719,-2.177c0.533,-0.561 1.041,-1.001 1.519,-1.322c0.479,-0.322 0.952,-0.545 1.422,-0.669c0.471,-0.122 0.945,-0.184 1.422,-0.184c0.215,0 0.458,0.011 0.731,0.036c0.272,0.026 0.556,0.071 0.853,0.137c0.298,0.065 0.564,0.139 0.804,0.222c0.239,0.082 0.408,0.165 0.507,0.247l0.197,0.235l0.086,0.285c0.025,0.116 0.042,0.283 0.05,0.506c0.008,0.223 0.012,0.524 0.012,0.904Z" style="fill:#fff;fill-rule:nonzero;"/><path d="M586.49,338.563c0,1.139 -0.21,2.153 -0.63,3.042c-0.422,0.891 -1.019,1.641 -1.795,2.251c-0.774,0.61 -1.697,1.072 -2.768,1.385c-1.073,0.312 -2.251,0.47 -3.538,0.47c-0.791,0 -1.546,-0.061 -2.262,-0.185c-0.718,-0.124 -1.36,-0.281 -1.93,-0.47c-0.569,-0.19 -1.05,-0.388 -1.445,-0.593c-0.396,-0.206 -0.685,-0.392 -0.866,-0.557c-0.182,-0.165 -0.314,-0.396 -0.396,-0.693c-0.083,-0.297 -0.124,-0.7 -0.124,-1.212c0,-0.313 0.016,-0.576 0.049,-0.79c0.033,-0.215 0.075,-0.388 0.124,-0.52c0.05,-0.132 0.12,-0.227 0.21,-0.285l0.31,-0.086c0.181,0 0.448,0.111 0.804,0.334c0.354,0.222 0.791,0.466 1.311,0.729c0.518,0.264 1.133,0.507 1.843,0.73c0.706,0.222 1.523,0.334 2.447,0.334c0.692,0 1.319,-0.074 1.879,-0.223c0.561,-0.148 1.048,-0.367 1.46,-0.654c0.413,-0.289 0.729,-0.656 0.952,-1.102c0.223,-0.446 0.333,-0.972 0.333,-1.583c0,-0.625 -0.16,-1.154 -0.482,-1.583c-0.322,-0.429 -0.745,-0.807 -1.273,-1.137c-0.528,-0.33 -1.122,-0.623 -1.781,-0.879c-0.66,-0.254 -1.341,-0.522 -2.039,-0.803c-0.702,-0.28 -1.386,-0.596 -2.055,-0.953c-0.667,-0.353 -1.265,-0.786 -1.792,-1.298c-0.528,-0.51 -0.953,-1.121 -1.273,-1.83c-0.322,-0.708 -0.483,-1.557 -0.483,-2.547c0,-0.873 0.168,-1.709 0.508,-2.51c0.338,-0.799 0.844,-1.5 1.521,-2.102c0.675,-0.601 1.519,-1.084 2.534,-1.447c1.014,-0.363 2.196,-0.543 3.549,-0.543c0.593,0 1.187,0.048 1.781,0.149c0.593,0.097 1.129,0.221 1.608,0.369c0.477,0.149 0.885,0.31 1.222,0.483c0.339,0.173 0.594,0.326 0.768,0.458c0.173,0.132 0.288,0.246 0.346,0.345c0.058,0.099 0.099,0.211 0.124,0.334c0.025,0.124 0.049,0.277 0.073,0.458c0.026,0.182 0.038,0.405 0.038,0.667c0,0.281 -0.012,0.524 -0.038,0.73c-0.024,0.207 -0.065,0.376 -0.123,0.508c-0.057,0.132 -0.128,0.227 -0.21,0.285l-0.272,0.085c-0.147,0 -0.363,-0.09 -0.644,-0.272c-0.279,-0.182 -0.642,-0.375 -1.088,-0.581c-0.444,-0.206 -0.968,-0.4 -1.569,-0.581c-0.603,-0.182 -1.291,-0.273 -2.065,-0.273c-0.693,0 -1.304,0.079 -1.83,0.235c-0.529,0.159 -0.962,0.38 -1.3,0.669c-0.337,0.288 -0.593,0.631 -0.765,1.026c-0.173,0.396 -0.261,0.825 -0.261,1.285c0,0.644 0.165,1.184 0.497,1.62c0.328,0.438 0.756,0.821 1.284,1.15c0.528,0.331 1.129,0.627 1.806,0.891c0.676,0.264 1.364,0.536 2.065,0.817c0.7,0.279 1.392,0.593 2.076,0.939c0.684,0.347 1.292,0.766 1.82,1.261c0.525,0.495 0.951,1.088 1.272,1.781c0.322,0.693 0.483,1.517 0.483,2.472Z" style="fill:#fff;fill-rule:nonzero;"/></g></svg>