<?xml version="1.0" encoding="UTF-8" standalone="no"?><!DOCTYPE svg PUBLIC "-//W3C//DTD SVG 1.1//EN" "http://www.w3.org/Graphics/SVG/1.1/DTD/svg11.dtd"><svg width="100%" height="100%" viewBox="0 0 900 600" version="1.1" xmlns="http://www.w3.org/2000/svg" xmlns:xlink="http://www.w3.org/1999/xlink" xml:space="preserve" xmlns:serif="http://www.serif.com/" style="fill-rule:evenodd;clip-rule:evenodd;stroke-linejoin:round;stroke-miterlimit:1.41421;"><rect id="logo-giftbot" x="0" y="0" width="900" height="600" style="fill:none;"/><g><path d="M438.199,321.366c-6.095,3.511 -13.67,5.267 -22.723,5.267c-10.041,0 -17.956,-2.778 -23.747,-8.337c-5.788,-5.557 -8.683,-13.21 -8.683,-22.962c0,-9.808 3.162,-17.803 9.489,-23.984c6.326,-6.181 14.742,-9.272 25.247,-9.272c6.618,0 12.45,0.914 17.5,2.742l0,13.19c-4.817,-2.786 -10.708,-4.179 -17.674,-4.179c-5.833,0 -10.585,1.893 -14.256,5.681c-3.67,3.787 -5.507,8.843 -5.507,15.17c0,6.413 1.648,11.376 4.942,14.887c3.293,3.512 7.741,5.267 13.341,5.267c3.367,0 6.037,-0.479 8.01,-1.435l0,-12.19l-12.492,0l0,-11.23l26.553,0l0,31.385Z" style="fill:#fff;fill-rule:nonzero;"/><rect x="445.086" y="280.969" width="13.756" height="44.575" style="fill:#fff;"/><path d="M484.421,280.969l20.756,0l0,-9.619l13.711,-3.918l0,13.537l10.013,0l0,10.144l-10.013,0l0,18.02c0,4.643 1.844,6.966 5.529,6.966c1.452,0 2.945,-0.421 4.484,-1.263l0,10.187c-2.032,1.072 -5.093,1.61 -9.185,1.61c-9.694,0 -14.539,-5.035 -14.539,-15.105l0,-20.415l-20.756,0l0,34.431l-13.711,0l0,-34.431l-7.488,0l0,-10.144l7.488,0l0,-5.527c0,-5.079 1.654,-9.171 4.961,-12.276c3.309,-3.105 7.807,-4.658 13.495,-4.658c2.786,0 5.108,0.291 6.965,0.871l0,10.708c-1.771,-0.697 -3.468,-1.044 -5.093,-1.044c-4.412,0 -6.617,2.393 -6.617,7.182l0,4.744Z" style="fill:#fff;fill-rule:nonzero;"/><path d="M551.542,298.731l0,16.454l7.618,0c3.25,0 5.796,-0.755 7.639,-2.264c1.844,-1.509 2.765,-3.569 2.765,-6.181c0,-2.497 -0.908,-4.455 -2.721,-5.877c-1.814,-1.422 -4.346,-2.132 -7.597,-2.132l-7.704,0Zm0,-25.249l0,14.801l6.181,0c2.902,0 5.187,-0.703 6.856,-2.112c1.669,-1.407 2.504,-3.344 2.504,-5.811c0,-4.585 -3.425,-6.878 -10.273,-6.878l-5.268,0Zm-14.06,52.062l0,-62.421l22.723,0c6.964,0 12.319,1.276 16.062,3.83c3.744,2.555 5.616,6.152 5.616,10.795c0,3.367 -1.14,6.312 -3.417,8.838c-2.278,2.524 -5.187,4.28 -8.728,5.267l0,0.174c4.44,0.551 7.988,2.19 10.643,4.918c2.655,2.728 3.983,6.052 3.983,9.968c0,5.718 -2.046,10.253 -6.138,13.605c-4.092,3.35 -9.678,5.026 -16.758,5.026l-23.986,0Z" style="fill:#fff;fill-rule:nonzero;"/><path d="M612.421,290.416c-3.251,0 -5.775,1.118 -7.574,3.352c-1.8,2.235 -2.7,5.397 -2.7,9.489c0,8.561 3.454,12.842 10.36,12.842c6.589,0 9.881,-4.397 9.881,-13.19c0,-8.328 -3.322,-12.493 -9.967,-12.493Zm-0.349,36.217c-7.429,0 -13.27,-2.083 -17.521,-6.246c-4.251,-4.165 -6.377,-9.817 -6.377,-16.955c0,-7.371 2.206,-13.139 6.616,-17.304c4.412,-4.165 10.376,-6.246 17.891,-6.246c7.401,0 13.205,2.081 17.413,6.246c4.208,4.165 6.312,9.671 6.312,16.52c0,7.4 -2.17,13.247 -6.508,17.543c-4.339,4.294 -10.281,6.442 -17.826,6.442Z" style="fill:#fff;fill-rule:nonzero;"/><path d="M669.211,325.023c-2.031,1.072 -5.093,1.61 -9.184,1.61c-9.693,0 -14.54,-5.035 -14.54,-15.105l0,-20.415l-7.226,0l0,-10.144l7.226,0l0,-9.619l13.713,-3.918l0,13.537l10.011,0l0,10.144l-10.011,0l0,18.02c0,4.643 1.842,6.966 5.528,6.966c1.451,0 2.945,-0.421 4.483,-1.263l0,10.187Z" style="fill:#fff;fill-rule:nonzero;"/><path d="M457.443,260.768l-10.784,0c-0.82,0 -1.486,0.664 -1.486,1.486l0,9.181c0,0.821 0.666,1.486 1.486,1.486l10.784,0c0.822,0 1.486,-0.665 1.486,-1.486l0,-9.181c0,-0.822 -0.664,-1.486 -1.486,-1.486Z" style="fill:#fff;fill-rule:nonzero;"/><path d="M272.294,313.8l-0.003,-0.003l-2.984,2.987c-0.49,0.492 -1.286,0.492 -1.777,0l-4.479,-4.479c-0.491,-0.49 -0.491,-1.285 -0.002,-1.777l18.215,-18.235c0.238,-0.238 0.07,-0.645 -0.268,-0.645l-47.693,0c-1.389,0 -2.514,1.126 -2.514,2.514l0,30.583c0,7.056 5.72,12.776 12.778,12.776l43.15,0c1.389,0 2.512,-1.124 2.512,-2.512l0,-37.26c0,-0.336 -0.405,-0.504 -0.641,-0.266l-16.294,16.317Z" style="fill:#fff;fill-rule:nonzero;"/><path d="M353.955,291.648l-47.693,0c-0.338,0 -0.506,0.407 -0.268,0.645l18.215,18.235c0.49,0.492 0.489,1.287 -0.002,1.777l-4.479,4.479c-0.491,0.492 -1.287,0.492 -1.777,0l-2.984,-2.987l-0.003,0.003l-16.292,-16.316c-0.238,-0.239 -0.645,-0.07 -0.645,0.266l0,37.259c0,1.388 1.126,2.512 2.516,2.512l19.859,0c0.752,0 1.333,0.66 1.257,1.408c-1.221,12.004 -18.048,14.033 -22.653,14.363c-0.657,0.048 -1.157,0.594 -1.157,1.253l0,6.961c0,0.656 0.506,1.203 1.162,1.252c8.574,0.648 57.458,3.033 57.458,-37.193l0,-31.403c0,-1.388 -1.125,-2.514 -2.514,-2.514Z" style="fill:#fff;fill-rule:nonzero;"/><path d="M319.114,273.005l0.29,-0.376c0.187,-0.237 0.379,-0.474 0.549,-0.713c0.259,-0.368 0.5,-0.738 0.714,-1.111c1.808,-3.138 1.338,-5.309 0.636,-6.629c-0.32,-0.6 -0.688,-1.023 -0.913,-1.282c-0.122,-0.139 -0.258,-0.284 -0.401,-0.425l-0.14,-0.133l-0.368,-0.32l-0.146,-0.119c-0.176,-0.131 -0.365,-0.254 -0.566,-0.368l-0.166,-0.082c-0.164,-0.085 -0.339,-0.162 -0.523,-0.229l-0.225,-0.079c-0.242,-0.075 -0.496,-0.138 -0.769,-0.176l-0.036,-0.008c-0.294,-0.04 -0.615,-0.049 -0.949,-0.037l-0.17,0.009c-0.331,0.021 -0.68,0.065 -1.053,0.144l-0.155,0.037c-0.396,0.092 -0.812,0.21 -1.261,0.378c-0.8,0.3 -1.609,0.701 -2.418,1.191c-0.808,0.492 -1.615,1.073 -2.41,1.731c-0.793,0.66 -1.572,1.395 -2.326,2.199c-3.676,3.917 -6.746,9.413 -7.834,15.157c-0.044,0.234 0.14,0.452 0.378,0.452c2.312,0.001 -0.042,-0.009 0.135,-0.01c8.009,-0.113 15.98,-4.243 20.127,-9.201Z" style="fill:#fff;fill-rule:nonzero;"/><path d="M258.924,275.225c-0.687,-1.196 -1.231,-2.4 -1.631,-3.6c-0.264,-0.799 -0.467,-1.599 -0.605,-2.394c-0.068,-0.396 -0.122,-0.792 -0.157,-1.187c-0.333,-3.55 0.63,-6.974 2.864,-9.97c0.249,-0.333 0.513,-0.661 0.794,-0.982c4.232,-4.871 10.325,-6.288 16.711,-3.893c4.281,1.606 8.303,4.716 11.67,8.685c0.227,0.269 0.659,0.116 0.659,-0.236l0,-22.157c0,-1.388 -1.123,-2.513 -2.512,-2.513l-43.15,0c-7.058,0 -12.778,5.721 -12.778,12.778l0,30.582c0,1.388 1.125,2.512 2.514,2.512l31.342,0c0.352,0 0.504,-0.433 0.236,-0.662c-2.502,-2.14 -4.545,-4.516 -5.957,-6.963Z" style="fill:#fff;fill-rule:nonzero;"/><path d="M268.144,273.005c4.147,4.958 12.118,9.088 20.127,9.201c0.177,0.001 -2.177,0.011 0.135,0.01c0.238,0 0.422,-0.218 0.378,-0.452c-1.086,-5.744 -4.158,-11.24 -7.834,-15.157c-0.754,-0.804 -1.533,-1.539 -2.326,-2.199c-0.794,-0.658 -1.601,-1.239 -2.409,-1.731c-0.81,-0.49 -1.619,-0.891 -2.419,-1.191c-0.449,-0.168 -0.863,-0.286 -1.261,-0.378l-0.153,-0.037c-0.373,-0.079 -0.722,-0.123 -1.054,-0.144l-0.171,-0.009c-0.334,-0.012 -0.655,-0.003 -0.949,0.037l-0.034,0.008c-0.275,0.038 -0.529,0.102 -0.771,0.178l-0.225,0.077c-0.184,0.067 -0.358,0.144 -0.523,0.229l-0.166,0.082c-0.201,0.114 -0.39,0.237 -0.565,0.368l-0.147,0.119l-0.37,0.32l-0.138,0.133c-0.143,0.141 -0.278,0.286 -0.4,0.425c-0.226,0.259 -0.594,0.682 -0.914,1.282c-0.127,0.24 -0.248,0.509 -0.347,0.806c-0.1,0.295 -0.18,0.622 -0.228,0.977c-0.169,1.244 0.061,2.849 1.211,4.846c0.216,0.373 0.455,0.743 0.715,1.111c0.169,0.239 0.361,0.476 0.548,0.713l0.29,0.376Z" style="fill:#fff;fill-rule:nonzero;"/><path d="M343.691,236.978l-43.148,0c-1.39,0 -2.516,1.125 -2.516,2.513l0,22.157c0,0.352 0.434,0.503 0.663,0.236c3.365,-3.969 7.387,-7.079 11.669,-8.685c6.385,-2.395 12.478,-0.978 16.712,3.893c0.279,0.321 0.543,0.649 0.792,0.982c2.234,2.996 3.197,6.42 2.866,9.97c-0.037,0.395 -0.091,0.791 -0.159,1.187c-0.138,0.795 -0.339,1.595 -0.605,2.394c-0.4,1.2 -0.942,2.404 -1.631,3.6c-0.766,1.328 -1.718,2.636 -2.828,3.897c-0.738,0.841 -1.55,1.66 -2.423,2.451c-0.124,0.112 -0.286,0.251 -0.458,0.395c-0.489,0.419 -0.577,0.87 0.052,0.882l31.278,0c1.389,0 2.514,-1.124 2.514,-2.512l0,-30.583c0,-7.056 -5.72,-12.777 -12.778,-12.777Z" style="fill:#fff;fill-rule:nonzero;"/></g></svg>