<?xml version="1.0" encoding="UTF-8" standalone="no"?><!DOCTYPE svg PUBLIC "-//W3C//DTD SVG 1.1//EN" "http://www.w3.org/Graphics/SVG/1.1/DTD/svg11.dtd"><svg width="100%" height="100%" viewBox="0 0 1200 744" version="1.1" xmlns="http://www.w3.org/2000/svg" xmlns:xlink="http://www.w3.org/1999/xlink" xml:space="preserve" xmlns:serif="http://www.serif.com/" style="fill-rule:evenodd;clip-rule:evenodd;stroke-linejoin:round;stroke-miterlimit:2;"><rect id="logo-staff-bot" x="0" y="0" width="1200" height="744" style="fill:none;"/><g><path d="M529.613,329.785l-7.659,0l-1.901,-10.693c-1.543,-1.302 -3.599,-2.381 -6.17,-3.237c-2.57,-0.856 -5.551,-1.285 -8.944,-1.285c-5.379,0 -9.511,1.138 -12.389,3.418c-2.879,2.279 -4.317,5.251 -4.317,8.918c0,3.257 1.465,5.97 4.395,8.147c2.93,2.178 7.665,4.088 14.213,5.732c7.884,1.955 13.872,4.833 17.966,8.638c4.094,3.803 6.144,8.513 6.144,14.134c0,6.034 -2.46,10.882 -7.378,14.548c-4.916,3.669 -11.353,5.501 -19.301,5.501c-5.759,0 -10.873,-0.941 -15.347,-2.828c-4.472,-1.882 -8.113,-4.351 -10.922,-7.402l0,-13.93l7.608,0l1.952,10.744c1.955,1.61 4.285,2.929 6.992,3.958c2.707,1.028 5.946,1.542 9.717,1.542c5.105,0 9.142,-1.079 12.105,-3.24c2.964,-2.158 4.447,-5.088 4.447,-8.789c0,-3.426 -1.285,-6.297 -3.856,-8.61c-2.571,-2.314 -7.113,-4.26 -13.622,-5.836c-7.918,-1.882 -14.104,-4.659 -18.557,-8.328c-4.455,-3.667 -6.684,-8.275 -6.684,-13.826c0,-5.861 2.486,-10.737 7.453,-14.624c4.969,-3.89 11.432,-5.836 19.381,-5.836c5.243,0 10.017,0.9 14.317,2.7c4.3,1.797 7.754,3.983 10.357,6.554l0,13.93Z" style="fill:#fff;fill-rule:nonzero;"/><path d="M557.048,313.488l0,13.418l10.539,0l0,7.506l-10.539,0l0,33.772c0,2.605 0.539,4.438 1.621,5.5c1.079,1.063 2.511,1.594 4.291,1.594c0.892,0 1.895,-0.077 3.008,-0.23c1.112,-0.155 2.048,-0.316 2.8,-0.488l1.39,6.938c-0.96,0.618 -2.367,1.124 -4.217,1.517c-1.851,0.393 -3.701,0.591 -5.551,0.591c-4.111,0 -7.385,-1.241 -9.82,-3.727c-2.432,-2.485 -3.647,-6.381 -3.647,-11.695l0,-33.772l-8.791,0l0,-7.506l8.791,0l0,-13.418l10.125,0Z" style="fill:#fff;fill-rule:nonzero;"/><path d="M596.601,375.125c3.359,0 6.424,-0.805 9.201,-2.418c2.774,-1.61 4.763,-3.545 5.963,-5.808l0,-9.15l-10.796,0c-4.147,0 -7.427,0.96 -9.845,2.879c-2.415,1.92 -3.622,4.249 -3.622,6.991c0,2.435 0.752,4.292 2.26,5.577c1.509,1.285 3.786,1.929 6.839,1.929Zm16.294,7.401c-0.308,-1.508 -0.548,-2.861 -0.72,-4.062c-0.172,-1.198 -0.291,-2.396 -0.359,-3.596c-1.954,2.5 -4.395,4.582 -7.325,6.246c-2.932,1.663 -6.059,2.492 -9.381,2.492c-5.792,0 -10.198,-1.413 -13.212,-4.241c-3.015,-2.827 -4.523,-6.811 -4.523,-11.952c0,-5.277 2.133,-9.347 6.398,-12.207c4.268,-2.862 10.121,-4.294 17.557,-4.294l10.435,0l0,-6.477c0,-3.257 -1.028,-5.834 -3.084,-7.735c-2.057,-1.904 -4.919,-2.853 -8.585,-2.853c-2.537,0 -4.774,0.325 -6.709,0.975c-1.936,0.652 -3.504,1.544 -4.704,2.675l-1.079,5.859l-7.814,0l0,-10.795c2.537,-2.024 5.604,-3.643 9.201,-4.858c3.599,-1.215 7.506,-1.825 11.721,-1.825c6.305,0 11.412,1.612 15.319,4.831c3.907,3.223 5.859,7.833 5.859,13.83l0,26.781c0,0.72 0.009,1.421 0.028,2.107c0.017,0.687 0.057,1.371 0.127,2.057l4.113,0.565l0,6.477l-13.263,0Z" style="fill:#fff;fill-rule:nonzero;"/><path d="M633.736,334.412l0,-7.506l8.689,0l0,-7.042c0,-5.93 1.549,-10.512 4.653,-13.752c3.102,-3.238 7.427,-4.856 12.978,-4.856c1.164,0 2.339,0.095 3.522,0.282c1.182,0.187 2.492,0.455 3.933,0.797l-1.234,7.709c-0.617,-0.136 -1.362,-0.257 -2.235,-0.359c-0.876,-0.102 -1.774,-0.153 -2.701,-0.153c-2.98,0 -5.192,0.882 -6.63,2.647c-1.44,1.766 -2.161,4.326 -2.161,7.685l0,7.042l11.619,0l0,7.506l-11.619,0l0,40.199l8.381,1.438l0,6.477l-26.887,0l0,-6.477l8.381,-1.438l0,-40.199l-8.689,0Z" style="fill:#fff;fill-rule:nonzero;"/><path d="M671.698,334.412l0,-7.506l8.687,0l0,-7.042c0,-5.93 1.549,-10.512 4.653,-13.752c3.101,-3.238 7.429,-4.856 12.98,-4.856c1.164,0 2.337,0.095 3.52,0.282c1.183,0.187 2.492,0.455 3.933,0.797l-1.233,7.709c-0.618,-0.136 -1.364,-0.257 -2.237,-0.359c-0.873,-0.102 -1.774,-0.153 -2.7,-0.153c-2.981,0 -5.192,0.882 -6.63,2.647c-1.441,1.766 -2.159,4.326 -2.159,7.685l0,7.042l11.617,0l0,7.506l-11.617,0l0,40.199l8.379,1.438l0,6.477l-26.885,0l0,-6.477l8.379,-1.438l0,-40.199l-8.687,0Z" style="fill:#fff;fill-rule:nonzero;"/><path d="M754.475,347.418l0,27.193l17.478,0c4.627,0 8.217,-1.139 10.769,-3.418c2.554,-2.282 3.83,-5.509 3.83,-9.69c0,-4.387 -1.073,-7.833 -3.214,-10.333c-2.139,-2.501 -5.422,-3.752 -9.843,-3.752l-19.02,0Zm0,-7.918l16.913,0c3.631,-0.102 6.571,-1.181 8.816,-3.238c2.244,-2.056 3.366,-4.901 3.366,-8.534c0,-4.042 -1.267,-7.068 -3.803,-9.071c-2.537,-2.006 -6.201,-3.008 -11.001,-3.008l-14.291,0l0,23.851Zm14.291,-31.818c7.814,0 13.924,1.689 18.326,5.063c4.402,3.373 6.605,8.438 6.605,15.189c0,3.323 -1.054,6.297 -3.161,8.919c-2.108,2.621 -4.891,4.567 -8.354,5.836c4.491,0.958 8.037,3.167 10.642,6.63c2.602,3.463 3.907,7.487 3.907,12.08c0,6.855 -2.229,12.088 -6.684,15.704c-4.455,3.616 -10.486,5.423 -18.094,5.423l-35.984,0l0,-6.477l8.379,-1.438l0,-58.962l-8.379,-1.441l0,-6.526l32.797,0Z" style="fill:#fff;fill-rule:nonzero;"/><path d="M815.254,355.333c0,5.894 1.242,10.763 3.728,14.6c2.486,3.836 6.176,5.757 11.077,5.757c4.799,0 8.449,-1.921 10.949,-5.757c2.501,-3.837 3.754,-8.706 3.754,-14.6l0,-1.13c0,-5.827 -1.253,-10.675 -3.754,-14.548c-2.5,-3.873 -6.186,-5.808 -11.051,-5.808c-4.867,0 -8.534,1.935 -11,5.808c-2.469,3.873 -3.703,8.721 -3.703,14.548l0,1.13Zm-10.128,-1.13c0,-8.226 2.231,-15.003 6.684,-20.331c4.455,-5.328 10.505,-7.994 18.147,-7.994c7.678,0 13.749,2.656 18.221,7.969c4.472,5.313 6.709,12.096 6.709,20.356l0,1.13c0,8.294 -2.228,15.08 -6.681,20.357c-4.455,5.277 -10.505,7.916 -18.147,7.916c-7.71,0 -13.794,-2.647 -18.249,-7.942c-4.453,-5.296 -6.684,-12.073 -6.684,-20.331l0,-1.13Z" style="fill:#fff;fill-rule:nonzero;"/><path d="M879.246,313.488l0,13.418l10.538,0l0,7.506l-10.538,0l0,33.772c0,2.605 0.54,4.438 1.619,5.5c1.079,1.063 2.511,1.594 4.294,1.594c0.89,0 1.893,-0.077 3.006,-0.23c1.113,-0.155 2.048,-0.316 2.802,-0.488l1.387,6.938c-0.958,0.618 -2.364,1.124 -4.215,1.517c-1.85,0.393 -3.7,0.591 -5.551,0.591c-4.113,0 -7.384,-1.241 -9.819,-3.727c-2.435,-2.485 -3.65,-6.381 -3.65,-11.695l0,-33.772l-8.791,0l0,-7.506l8.791,0l0,-13.418l10.127,0Z" style="fill:#fff;fill-rule:nonzero;"/><path d="M481.09,414.674l0.102,2.466c1.632,-1.92 3.833,-2.878 6.601,-2.878c3.112,0 5.23,1.193 6.354,3.577c0.739,-1.069 1.704,-1.933 2.889,-2.59c1.184,-0.658 2.588,-0.987 4.205,-0.987c4.882,0 7.361,2.583 7.444,7.752l0,14.907l-3.805,0l0,-14.682c0,-1.591 -0.363,-2.777 -1.09,-3.567c-0.727,-0.788 -1.946,-1.181 -3.66,-1.181c-1.411,0 -2.582,0.42 -3.516,1.264c-0.933,0.843 -1.473,1.975 -1.626,3.403l0,14.763l-3.824,0l0,-14.578c0,-3.236 -1.582,-4.852 -4.75,-4.852c-2.494,0 -4.202,1.062 -5.118,3.186l0,16.244l-3.805,0l0,-22.247l3.599,0Z" style="fill:#fff;fill-rule:nonzero;"/><path d="M517.238,426.044c0,2.468 0.573,4.448 1.716,5.942c1.145,1.493 2.675,2.241 4.595,2.241c1.934,0 3.47,-0.756 4.606,-2.271c1.139,-1.515 1.708,-3.637 1.708,-6.365c0,-2.439 -0.58,-4.419 -1.737,-5.931c-1.16,-1.515 -2.696,-2.273 -4.617,-2.273c-1.88,0 -3.393,0.747 -4.544,2.241c-1.152,1.493 -1.727,3.633 -1.727,6.416Zm-3.824,-0.453c0,-2.179 0.429,-4.14 1.285,-5.88c0.856,-1.74 2.048,-3.085 3.578,-4.03c1.529,-0.946 3.271,-1.419 5.232,-1.419c3.03,0 5.479,1.049 7.351,3.146c1.871,2.097 2.806,4.886 2.806,8.368l0,0.268c0,2.167 -0.412,4.111 -1.243,5.829c-0.83,1.719 -2.016,3.062 -3.558,4.02c-1.54,0.958 -3.312,1.44 -5.316,1.44c-3.014,0 -5.459,-1.049 -7.329,-3.146c-1.872,-2.097 -2.806,-4.874 -2.806,-8.328l0,-0.268Z" style="fill:#fff;fill-rule:nonzero;"/><path d="M553.468,425.612c0,-2.591 -0.501,-4.593 -1.502,-6.003c-0.998,-1.411 -2.439,-2.118 -4.317,-2.118c-2.509,0 -4.31,1.164 -5.406,3.494l0,9.624c1.162,2.331 2.98,3.495 5.447,3.495c1.822,0 3.242,-0.708 4.257,-2.118c1.013,-1.411 1.521,-3.537 1.521,-6.374Zm3.805,0.432c0,3.401 -0.782,6.131 -2.345,8.194c-1.564,2.065 -3.661,3.095 -6.293,3.095c-2.809,0 -4.982,-0.994 -6.518,-2.983l-0.185,2.571l-3.494,0l0,-31.584l3.805,0l0,11.782c1.533,-1.904 3.649,-2.857 6.352,-2.857c2.702,0 4.822,1.021 6.365,3.063c1.542,2.044 2.313,4.839 2.313,8.389l0,0.33Z" style="fill:#fff;fill-rule:nonzero;"/><path d="M566.196,436.921l-3.805,0l0,-22.247l3.805,0l0,22.247Zm-4.113,-28.149c0,-0.616 0.189,-1.139 0.567,-1.564c0.376,-0.422 0.935,-0.637 1.676,-0.637c0.74,0 1.303,0.215 1.685,0.637c0.382,0.425 0.576,0.948 0.576,1.564c0,0.616 -0.194,1.13 -0.576,1.542c-0.382,0.412 -0.945,0.616 -1.685,0.616c-0.741,0 -1.3,-0.204 -1.676,-0.616c-0.378,-0.412 -0.567,-0.926 -0.567,-1.542Z" style="fill:#fff;fill-rule:nonzero;"/><rect x="572.612" y="405.337" width="3.805" height="31.584" style="fill:#fff;"/><path d="M591.262,417.387c-1.536,0 -2.825,0.558 -3.866,1.676c-1.041,1.117 -1.685,2.683 -1.934,4.699l11.145,0l0,-0.289c-0.11,-1.933 -0.629,-3.431 -1.561,-4.493c-0.935,-1.06 -2.195,-1.593 -3.784,-1.593Zm0.472,19.946c-3.015,0 -5.469,-0.99 -7.361,-2.972c-1.891,-1.982 -2.837,-4.629 -2.837,-7.948l0,-0.699c0,-2.207 0.421,-4.176 1.264,-5.912c0.842,-1.733 2.023,-3.091 3.536,-4.07c1.514,-0.98 3.156,-1.47 4.926,-1.47c2.892,0 5.139,0.953 6.743,2.857c1.604,1.906 2.405,4.635 2.405,8.185l0,1.583l-15.071,0c0.055,2.193 0.697,3.966 1.923,5.315c1.226,1.35 2.787,2.025 4.678,2.025c1.345,0 2.481,-0.274 3.414,-0.822c0.932,-0.548 1.746,-1.275 2.445,-2.18l2.324,1.81c-1.863,2.866 -4.659,4.298 -8.389,4.298Z" style="fill:#fff;fill-rule:nonzero;"/><path d="M618.115,426.044c0,2.521 0.523,4.495 1.564,5.923c1.041,1.425 2.479,2.137 4.317,2.137c2.413,0 4.174,-1.081 5.285,-3.248l0,-10.219c-1.138,-2.099 -2.887,-3.146 -5.243,-3.146c-1.863,0 -3.318,0.718 -4.359,2.158c-1.041,1.438 -1.564,3.569 -1.564,6.395Zm-3.805,-0.432c0,-3.414 0.812,-6.158 2.429,-8.236c1.616,-2.076 3.732,-3.114 6.352,-3.114c2.604,0 4.669,0.892 6.19,2.672l0,-11.597l3.803,0l0,31.584l-3.495,0l-0.184,-2.384c-1.522,1.861 -3.64,2.796 -6.355,2.796c-2.579,0 -4.678,-1.058 -6.303,-3.168c-1.623,-2.109 -2.437,-4.865 -2.437,-8.266l0,-0.287Z" style="fill:#fff;fill-rule:nonzero;"/><path d="M641.803,426.044c0,2.468 0.573,4.448 1.716,5.942c1.145,1.493 2.677,2.241 4.598,2.241c1.931,0 3.465,-0.756 4.606,-2.271c1.138,-1.515 1.705,-3.637 1.705,-6.365c0,-2.439 -0.577,-4.419 -1.737,-5.931c-1.16,-1.515 -2.696,-2.273 -4.617,-2.273c-1.878,0 -3.393,0.747 -4.544,2.241c-1.151,1.493 -1.727,3.633 -1.727,6.416Zm-3.824,-0.453c0,-2.179 0.429,-4.14 1.285,-5.88c0.854,-1.74 2.048,-3.085 3.578,-4.03c1.529,-0.946 3.271,-1.419 5.232,-1.419c3.03,0 5.481,1.049 7.351,3.146c1.871,2.097 2.806,4.886 2.806,8.368l0,0.268c0,2.167 -0.414,4.111 -1.243,5.829c-0.83,1.719 -2.016,3.062 -3.558,4.02c-1.542,0.958 -3.312,1.44 -5.313,1.44c-3.017,0 -5.46,-1.049 -7.332,-3.146c-1.871,-2.097 -2.806,-4.874 -2.806,-8.328l0,-0.268Z" style="fill:#fff;fill-rule:nonzero;"/><path d="M671.928,434.227c1.355,0 2.54,-0.41 3.556,-1.234c1.015,-0.822 1.576,-1.851 1.685,-3.083l3.598,0c-0.07,1.275 -0.505,2.488 -1.315,3.639c-0.809,1.152 -1.89,2.07 -3.237,2.756c-1.351,0.686 -2.779,1.028 -4.287,1.028c-3.032,0 -5.441,-1.011 -7.23,-3.034c-1.789,-2.022 -2.683,-4.788 -2.683,-8.296l0,-0.637c0,-2.167 0.399,-4.092 1.194,-5.778c0.794,-1.687 1.935,-2.994 3.422,-3.929c1.49,-0.932 3.246,-1.397 5.275,-1.397c2.497,0 4.568,0.747 6.221,2.241c1.65,1.493 2.53,3.433 2.64,5.819l-3.598,0c-0.109,-1.439 -0.655,-2.622 -1.634,-3.546c-0.98,-0.926 -2.19,-1.389 -3.629,-1.389c-1.933,0 -3.431,0.696 -4.493,2.088c-1.062,1.389 -1.593,3.403 -1.593,6.035l0,0.719c0,2.562 0.527,4.537 1.582,5.92c1.056,1.388 2.563,2.078 4.526,2.078Z" style="fill:#fff;fill-rule:nonzero;"/><path d="M698.781,434.72c-1.481,1.742 -3.652,2.613 -6.518,2.613c-2.373,0 -4.177,-0.688 -5.418,-2.067c-1.242,-1.379 -1.869,-3.416 -1.882,-6.118l0,-14.474l3.803,0l0,14.372c0,3.371 1.37,5.058 4.113,5.058c2.908,0 4.839,-1.081 5.798,-3.248l0,-16.182l3.804,0l0,22.247l-3.618,0l-0.082,-2.201Z" style="fill:#fff;fill-rule:nonzero;"/><path d="M711.837,414.674l0.105,2.466c1.631,-1.92 3.83,-2.878 6.598,-2.878c3.112,0 5.228,1.193 6.354,3.577c0.74,-1.069 1.704,-1.933 2.89,-2.59c1.185,-0.658 2.587,-0.987 4.204,-0.987c4.88,0 7.361,2.583 7.444,7.752l0,14.907l-3.805,0l0,-14.682c0,-1.591 -0.361,-2.777 -1.09,-3.567c-0.726,-0.788 -1.946,-1.181 -3.658,-1.181c-1.413,0 -2.583,0.42 -3.518,1.264c-0.933,0.843 -1.472,1.975 -1.623,3.403l0,14.763l-3.828,0l0,-14.578c0,-3.236 -1.583,-4.852 -4.747,-4.852c-2.496,0 -4.204,1.062 -5.119,3.186l0,16.244l-3.805,0l0,-22.247l3.598,0Z" style="fill:#fff;fill-rule:nonzero;"/><path d="M753.927,417.387c-1.534,0 -2.823,0.558 -3.864,1.676c-1.041,1.117 -1.687,2.683 -1.934,4.699l11.145,0l0,-0.289c-0.11,-1.933 -0.631,-3.431 -1.563,-4.493c-0.933,-1.06 -2.193,-1.593 -3.784,-1.593Zm0.474,19.946c-3.015,0 -5.468,-0.99 -7.361,-2.972c-1.893,-1.982 -2.836,-4.629 -2.836,-7.948l0,-0.699c0,-2.207 0.42,-4.176 1.264,-5.912c0.841,-1.733 2.022,-3.091 3.535,-4.07c1.514,-0.98 3.157,-1.47 4.924,-1.47c2.894,0 5.141,0.953 6.745,2.857c1.604,1.906 2.405,4.635 2.405,8.185l0,1.583l-15.071,0c0.053,2.193 0.697,3.966 1.923,5.315c1.226,1.35 2.785,2.025 4.678,2.025c1.343,0 2.479,-0.274 3.412,-0.822c0.932,-0.548 1.748,-1.275 2.447,-2.18l2.324,1.81c-1.863,2.866 -4.659,4.298 -8.389,4.298Z" style="fill:#fff;fill-rule:nonzero;"/><path d="M771.076,414.674l0.125,2.795c1.697,-2.139 3.92,-3.207 6.66,-3.207c4.702,0 7.075,2.653 7.115,7.958l0,14.701l-3.803,0l0,-14.723c-0.013,-1.604 -0.38,-2.789 -1.1,-3.556c-0.72,-0.769 -1.84,-1.151 -3.363,-1.151c-1.232,0 -2.316,0.327 -3.249,0.985c-0.932,0.659 -1.657,1.524 -2.179,2.592l0,15.853l-3.803,0l0,-22.247l3.597,0Z" style="fill:#fff;fill-rule:nonzero;"/><path d="M795.874,409.286l0,5.388l4.154,0l0,2.94l-4.154,0l0,13.815c0,0.892 0.185,1.56 0.557,2.006c0.37,0.446 0.999,0.669 1.891,0.669c0.44,0 1.041,-0.083 1.81,-0.247l0,3.068c-1.001,0.27 -1.974,0.408 -2.921,0.408c-1.7,0 -2.981,-0.514 -3.846,-1.542c-0.862,-1.029 -1.295,-2.49 -1.295,-4.381l0,-13.796l-4.05,0l0,-2.94l4.05,0l0,-5.388l3.804,0Z" style="fill:#fff;fill-rule:nonzero;"/><path d="M811.893,434.021c1.192,0 2.324,-0.308 3.393,-0.924c1.068,-0.616 1.841,-1.419 2.324,-2.407l0,-4.563l-2.983,0c-4.659,0 -6.992,1.363 -6.992,4.091c0,1.192 0.4,2.125 1.192,2.796c0.795,0.671 1.819,1.007 3.066,1.007Zm6.312,2.9c-0.219,-0.44 -0.398,-1.222 -0.534,-2.343c-1.769,1.837 -3.879,2.755 -6.333,2.755c-2.194,0 -3.992,-0.62 -5.398,-1.861c-1.406,-1.243 -2.107,-2.815 -2.107,-4.718c0,-2.318 0.881,-4.115 2.642,-5.399c1.759,-1.283 4.239,-1.922 7.434,-1.922l3.701,0l0,-1.749c0,-1.327 -0.4,-2.388 -1.194,-3.176c-0.795,-0.788 -1.968,-1.183 -3.516,-1.183c-1.358,0 -2.496,0.342 -3.412,1.028c-0.92,0.686 -1.379,1.515 -1.379,2.488l-3.824,0c0,-1.109 0.393,-2.182 1.181,-3.216c0.791,-1.037 1.859,-1.853 3.208,-2.458c1.349,-0.604 2.836,-0.905 4.451,-0.905c2.564,0 4.574,0.639 6.025,1.922c1.453,1.283 2.209,3.047 2.262,5.296l0,10.238c0,2.044 0.26,3.669 0.782,4.874l0,0.329l-3.989,0Z" style="fill:#fff;fill-rule:nonzero;"/><path d="M832.536,409.286l0,5.388l4.153,0l0,2.94l-4.153,0l0,13.815c0,0.892 0.187,1.56 0.557,2.006c0.369,0.446 0.998,0.669 1.89,0.669c0.44,0 1.041,-0.083 1.81,-0.247l0,3.068c-1,0.27 -1.973,0.408 -2.919,0.408c-1.699,0 -2.982,-0.514 -3.847,-1.542c-0.862,-1.029 -1.294,-2.49 -1.294,-4.381l0,-13.796l-4.051,0l0,-2.94l4.051,0l0,-5.388l3.803,0Z" style="fill:#fff;fill-rule:nonzero;"/><path d="M845.264,436.921l-3.803,0l0,-22.247l3.803,0l0,22.247Zm-4.111,-28.149c0,-0.616 0.187,-1.139 0.565,-1.564c0.378,-0.422 0.935,-0.637 1.674,-0.637c0.741,0 1.304,0.215 1.687,0.637c0.384,0.425 0.576,0.948 0.576,1.564c0,0.616 -0.192,1.13 -0.576,1.542c-0.383,0.412 -0.946,0.616 -1.687,0.616c-0.739,0 -1.296,-0.204 -1.674,-0.616c-0.378,-0.412 -0.565,-0.926 -0.565,-1.542Z" style="fill:#fff;fill-rule:nonzero;"/><path d="M854.167,426.044c0,2.468 0.574,4.448 1.717,5.942c1.145,1.493 2.677,2.241 4.597,2.241c1.933,0 3.467,-0.756 4.606,-2.271c1.139,-1.515 1.706,-3.637 1.706,-6.365c0,-2.439 -0.578,-4.419 -1.738,-5.931c-1.158,-1.515 -2.696,-2.273 -4.616,-2.273c-1.878,0 -3.393,0.747 -4.545,2.241c-1.151,1.493 -1.727,3.633 -1.727,6.416Zm-3.824,-0.453c0,-2.179 0.429,-4.14 1.286,-5.88c0.856,-1.74 2.047,-3.085 3.577,-4.03c1.53,-0.946 3.272,-1.419 5.233,-1.419c3.031,0 5.481,1.049 7.35,3.146c1.872,2.097 2.809,4.886 2.809,8.368l0,0.268c0,2.167 -0.415,4.111 -1.245,5.829c-0.829,1.719 -2.016,3.062 -3.557,4.02c-1.542,0.958 -3.314,1.44 -5.315,1.44c-3.015,0 -5.46,-1.049 -7.331,-3.146c-1.872,-2.097 -2.807,-4.874 -2.807,-8.328l0,-0.268Z" style="fill:#fff;fill-rule:nonzero;"/><path d="M878.966,414.674l0.123,2.795c1.7,-2.139 3.92,-3.207 6.662,-3.207c4.702,0 7.075,2.653 7.115,7.958l0,14.701l-3.805,0l0,-14.723c-0.012,-1.604 -0.38,-2.789 -1.1,-3.556c-0.718,-0.769 -1.84,-1.151 -3.361,-1.151c-1.234,0 -2.316,0.327 -3.248,0.985c-0.933,0.659 -1.659,1.524 -2.18,2.592l0,15.853l-3.805,0l0,-22.247l3.599,0Z" style="fill:#fff;fill-rule:nonzero;"/><path d="M413.206,392.864c-0.793,-1.913 -1.701,-3.8 -2.733,-5.655c-2.273,-3.926 -4.82,-7.808 -7.903,-11.502c-5.971,-7.476 -13.299,-14.489 -20.566,-21.801c-1.502,-1.5 -3.015,-3.021 -4.526,-4.568l-0.296,0.227l-0.297,0.226c-1.388,1.056 -2.791,2.087 -4.206,3.095c-4.425,3.091 -8.937,6.048 -13.602,8.759c-2.331,1.368 -4.702,2.66 -7.109,3.92c-2.462,1.264 -4.712,2.483 -7.527,3.732l-10.18,-5.986l4.068,-11.396c2.006,-0.51 4.498,-1.264 6.735,-2.06c2.286,-0.821 4.574,-1.683 6.834,-2.62c4.532,-1.848 8.976,-3.93 13.24,-6.305c1.009,-0.556 2.01,-1.125 3.003,-1.71c-2.531,-2.951 -4.967,-6.015 -7.231,-9.221c-3.151,-4.406 -6.044,-9.065 -8.449,-14.108c-2.381,-5.035 -4.383,-10.461 -4.995,-16.522c-0.295,-3.07 -0.182,-6.118 0.336,-9.065c0.425,-2.981 1.428,-5.887 2.658,-8.646c1.287,-2.754 3.008,-5.278 4.969,-7.574c2.042,-2.231 4.338,-4.196 6.856,-5.84c2.557,-1.581 5.313,-2.813 8.198,-3.654c2.895,-0.814 5.927,-1.148 8.939,-1.086c6.015,0.145 11.906,2.103 16.76,5.553c4.861,3.417 8.823,8.222 11.064,13.76c1.167,2.754 1.832,5.666 2.237,8.585c0.162,1.453 0.238,2.932 0.279,4.372c-0.036,1.422 -0.038,2.847 -0.121,4.269c-0.81,11.484 -6.119,22.143 -12.936,30.768c-2.627,3.315 -5.464,6.399 -8.456,9.293c1.209,1.089 2.433,2.178 3.667,3.271c7.619,6.807 15.636,13.533 23.025,21.676c3.743,3.979 7.183,8.485 10.327,13.265c3.1,4.846 5.67,10.165 7.631,15.757c1.761,5.632 3.123,11.493 3.457,17.35c0.577,5.862 0.191,11.736 -0.612,17.714c-1.944,11.878 -7.457,23.934 -16.548,32.901c-4.508,4.451 -9.666,8.264 -15.274,11.135c-5.624,2.827 -11.596,4.852 -17.723,6.088c-12.255,2.259 -25.155,1.532 -37.237,-2.963c-3.048,-1.037 -5.948,-2.518 -8.861,-3.977c-2.804,-1.691 -5.643,-3.357 -8.217,-5.469c-5.212,-4.066 -9.958,-8.99 -13.563,-14.652c-3.684,-5.592 -6.528,-11.763 -8.23,-18.066c-1.933,-6.316 -2.577,-12.683 -2.957,-18.984l15.228,-15.596l16.354,15.596c-0.028,3.94 -0.019,7.898 0.82,11.497c0.633,3.694 1.916,7.072 3.601,10.206c1.614,3.193 3.917,5.957 6.571,8.438c1.279,1.305 2.832,2.32 4.308,3.459c1.627,0.932 3.202,1.988 4.984,2.73c6.936,3.325 15.23,4.531 23.227,3.622c3.987,-0.527 7.892,-1.549 11.578,-3.059c3.669,-1.555 7,-3.705 9.998,-6.231c5.865,-5.017 9.885,-12.02 11.934,-20.049l-33.136,0c-2.907,0 -5.263,-2.356 -5.263,-5.262c0,-2.908 2.356,-5.264 5.263,-5.264l34.536,0c0.17,-3.965 -0.059,-7.971 -0.755,-11.844l-60.244,0c-2.906,0 -5.264,-2.356 -5.264,-5.265c0,-2.906 2.358,-5.264 5.264,-5.264l57.068,0Zm-24.963,-52.755l0.006,-0.005l-0.001,-0.001l-0.001,0l-0.006,-0.005l0.002,0.011Zm-20.102,-0.889l0.004,0.005l0.001,-0.008l-0.005,0.003Zm11.148,-7.573l0,0l0,-0.001l3.218,-2.673c1.966,-1.721 3.835,-3.531 5.585,-5.436c6.433,-6.928 11.096,-15.317 12.218,-24.417c0.644,-4.62 0.238,-8.982 -1.26,-13.048c-1.525,-3.992 -4.145,-7.646 -7.739,-10.057c-3.516,-2.488 -7.805,-3.867 -12.05,-3.949c-4.234,-0.011 -8.443,1.419 -11.973,3.804c-1.736,1.241 -3.308,2.69 -4.644,4.332c-1.269,1.691 -2.369,3.497 -3.153,5.449c-1.528,3.848 -2.044,8.367 -1.377,12.397c0.663,4.157 2.462,8.442 4.729,12.528c2.269,4.102 5.048,8.051 8.105,11.814c2.592,3.233 5.387,6.287 8.341,9.257Z" style="fill:#fff;"/></g></svg>