<?xml version="1.0" encoding="UTF-8" standalone="no"?><!DOCTYPE svg PUBLIC "-//W3C//DTD SVG 1.1//EN" "http://www.w3.org/Graphics/SVG/1.1/DTD/svg11.dtd"><svg width="100%" height="100%" viewBox="0 0 900 600" version="1.1" xmlns="http://www.w3.org/2000/svg" xmlns:xlink="http://www.w3.org/1999/xlink" xml:space="preserve" xmlns:serif="http://www.serif.com/" style="fill-rule:evenodd;clip-rule:evenodd;stroke-linejoin:round;stroke-miterlimit:1.41421;"><rect id="logo-nots" x="0" y="0" width="900" height="600" style="fill:none;"/><g><path d="M249.339,363.534l-6.523,-9.998l-1.711,0l0,12.92l1.711,0l0,-9.955l6.505,9.955l1.711,0l0,-12.92l-1.693,0l0,9.998Z" style="fill:#fff;fill-rule:nonzero;"/><path d="M262.938,360.535c-0.019,1.498 -0.331,2.647 -0.933,3.447c-0.602,0.8 -1.455,1.201 -2.554,1.201c-1.097,0 -1.955,-0.423 -2.579,-1.272c-0.621,-0.847 -0.936,-2.014 -0.936,-3.503l0,-0.945c0.019,-1.454 0.337,-2.591 0.954,-3.413c0.618,-0.815 1.464,-1.226 2.542,-1.226c1.106,0 1.968,0.411 2.582,1.226c0.615,0.822 0.924,1.996 0.924,3.527l0,0.958Zm-0.769,-6.427c-0.791,-0.501 -1.702,-0.751 -2.737,-0.751c-1.016,0 -1.921,0.253 -2.711,0.76c-0.791,0.507 -1.399,1.235 -1.832,2.187c-0.429,0.951 -0.648,2.047 -0.648,3.292l0,0.933c0.012,1.217 0.237,2.288 0.67,3.215c0.435,0.923 1.047,1.637 1.834,2.137c0.785,0.5 1.69,0.748 2.706,0.748c1.041,0 1.952,-0.248 2.733,-0.742c0.782,-0.5 1.384,-1.22 1.807,-2.159c0.426,-0.948 0.639,-2.05 0.639,-3.32l0,-0.812c0,-1.26 -0.213,-2.366 -0.639,-3.311c-0.423,-0.951 -1.032,-1.674 -1.822,-2.177Z" style="fill:#fff;fill-rule:nonzero;"/><path d="M272.145,359.837l-2.616,0l0,-4.908l2.606,0c0.899,0.006 1.588,0.223 2.064,0.649c0.475,0.429 0.716,1.041 0.716,1.841c0,0.735 -0.25,1.318 -0.75,1.76c-0.498,0.439 -1.174,0.658 -2.02,0.658Zm3.829,-0.315c0.433,-0.596 0.652,-1.297 0.652,-2.097c0,-1.266 -0.389,-2.233 -1.174,-2.897c-0.784,-0.661 -1.908,-0.992 -3.36,-0.992l-4.277,0l0,12.92l1.714,0l0,-5.229l3.033,0l2.804,5.229l1.828,0l0,-0.112l-3.033,-5.479c0.773,-0.299 1.378,-0.741 1.813,-1.343Z" style="fill:#fff;fill-rule:nonzero;"/><path d="M286.46,360.186c-0.605,-0.365 -1.449,-0.698 -2.52,-1.001c-1.075,-0.302 -1.835,-0.633 -2.283,-0.997c-0.444,-0.365 -0.667,-0.813 -0.667,-1.338c0,-0.658 0.235,-1.173 0.704,-1.544c0.47,-0.367 1.128,-0.556 1.968,-0.556c0.905,0 1.603,0.226 2.103,0.673c0.497,0.451 0.744,1.066 0.744,1.85l1.711,0c0,-0.719 -0.191,-1.374 -0.571,-1.979c-0.38,-0.603 -0.92,-1.075 -1.615,-1.421c-0.695,-0.34 -1.486,-0.516 -2.372,-0.516c-1.304,0 -2.36,0.337 -3.172,1.001c-0.812,0.664 -1.22,1.507 -1.22,2.523c0,0.899 0.33,1.653 0.997,2.267c0.668,0.612 1.73,1.131 3.188,1.548c1.164,0.336 1.97,0.679 2.415,1.022c0.445,0.352 0.667,0.84 0.667,1.473c0,0.63 -0.241,1.13 -0.723,1.495c-0.475,0.367 -1.164,0.55 -2.066,0.55c-0.96,0 -1.732,-0.223 -2.31,-0.677c-0.574,-0.451 -0.865,-1.065 -0.865,-1.85l-1.714,0c0,0.754 0.213,1.424 0.627,2.014c0.417,0.59 1.01,1.059 1.779,1.399c0.772,0.337 1.597,0.507 2.483,0.507c1.368,0 2.459,-0.312 3.274,-0.942c0.815,-0.634 1.223,-1.471 1.223,-2.514c0,-0.658 -0.145,-1.227 -0.435,-1.715c-0.294,-0.484 -0.745,-0.911 -1.35,-1.272Z" style="fill:#fff;fill-rule:nonzero;"/><path d="M300.568,353.536l-2.057,0l-5.741,6.387l0,-6.387l-1.702,0l0,12.92l1.702,0l0,-4.371l1.581,-1.64l4.577,6.011l2.039,0l-5.482,-7.215l5.083,-5.705Z" style="fill:#fff;fill-rule:nonzero;"/><path d="M318.015,360.535c-0.018,1.498 -0.327,2.647 -0.929,3.447c-0.603,0.8 -1.455,1.201 -2.558,1.201c-1.093,0 -1.952,-0.423 -2.575,-1.272c-0.624,-0.847 -0.936,-2.014 -0.936,-3.503l0,-0.945c0.018,-1.454 0.336,-2.591 0.954,-3.413c0.618,-0.815 1.464,-1.226 2.542,-1.226c1.106,0 1.964,0.411 2.579,1.226c0.614,0.822 0.923,1.996 0.923,3.527l0,0.958Zm-0.766,-6.427c-0.79,-0.501 -1.701,-0.751 -2.736,-0.751c-1.016,0 -1.921,0.253 -2.712,0.76c-0.79,0.507 -1.399,1.235 -1.831,2.187c-0.43,0.951 -0.649,2.047 -0.649,3.292l0,0.933c0.012,1.217 0.238,2.288 0.67,3.215c0.436,0.923 1.047,1.637 1.835,2.137c0.784,0.5 1.686,0.748 2.702,0.748c1.044,0 1.955,-0.248 2.734,-0.742c0.781,-0.5 1.383,-1.22 1.81,-2.159c0.426,-0.948 0.639,-2.05 0.639,-3.32l0,-0.812c0,-1.26 -0.213,-2.366 -0.639,-3.311c-0.427,-0.951 -1.032,-1.674 -1.823,-2.177Z" style="fill:#fff;fill-rule:nonzero;"/><path d="M327.225,359.837l-2.616,0l0,-4.908l2.604,0c0.902,0.006 1.591,0.223 2.063,0.649c0.479,0.429 0.72,1.041 0.72,1.841c0,0.735 -0.254,1.318 -0.751,1.76c-0.5,0.439 -1.173,0.658 -2.02,0.658Zm3.83,-0.315c0.432,-0.596 0.652,-1.297 0.652,-2.097c0,-1.266 -0.393,-2.233 -1.174,-2.897c-0.784,-0.661 -1.909,-0.992 -3.36,-0.992l-4.278,0l0,12.92l1.714,0l0,-5.229l3.033,0l2.805,5.229l1.825,0l0,-0.112l-3.03,-5.479c0.772,-0.299 1.374,-0.741 1.813,-1.343Z" style="fill:#fff;fill-rule:nonzero;"/><path d="M336.917,355.955c0.587,-0.803 1.455,-1.205 2.597,-1.205c1.715,0 2.731,0.859 3.049,2.573l1.705,0c-0.183,-1.263 -0.689,-2.239 -1.507,-2.931c-0.822,-0.689 -1.909,-1.035 -3.259,-1.035c-1.643,0 -2.919,0.538 -3.823,1.606c-0.912,1.072 -1.366,2.582 -1.366,4.528l0,1.124c0.013,1.202 0.241,2.255 0.689,3.166c0.445,0.911 1.078,1.615 1.893,2.109c0.816,0.495 1.752,0.739 2.802,0.739c1.041,0 1.952,-0.155 2.736,-0.464c0.785,-0.312 1.396,-0.778 1.835,-1.405l0,-4.738l-4.686,0l0,1.393l2.99,0l0,2.891c-0.312,0.34 -0.707,0.581 -1.189,0.72c-0.476,0.142 -1.038,0.21 -1.677,0.21c-1.127,0 -2.026,-0.427 -2.687,-1.279c-0.664,-0.856 -0.991,-2.008 -0.991,-3.459l0,-1.059c0.006,-1.52 0.302,-2.681 0.889,-3.484Z" style="fill:#fff;fill-rule:nonzero;"/><path d="M349.981,361.684l2.19,-6.044l2.199,6.044l-4.389,0Zm1.446,-8.148l-4.932,12.92l1.754,0l1.22,-3.382l5.408,0l1.232,3.382l1.748,0l-4.938,-12.92l-1.492,0Z" style="fill:#fff;fill-rule:nonzero;"/><path d="M368.469,363.534l-6.52,-9.998l-1.714,0l0,12.92l1.714,0l0,-9.955l6.502,9.955l1.714,0l0,-12.92l-1.696,0l0,9.998Z" style="fill:#fff;fill-rule:nonzero;"/><rect x="373.951" y="353.536" width="1.702" height="12.919" style="fill:#fff;"/><path d="M386.216,360.186c-0.608,-0.365 -1.449,-0.698 -2.52,-1.001c-1.075,-0.302 -1.835,-0.633 -2.283,-0.997c-0.444,-0.365 -0.67,-0.813 -0.67,-1.338c0,-0.658 0.238,-1.173 0.707,-1.544c0.47,-0.367 1.125,-0.556 1.968,-0.556c0.905,0 1.603,0.226 2.1,0.673c0.497,0.451 0.747,1.066 0.747,1.85l1.711,0c0,-0.719 -0.191,-1.374 -0.571,-1.979c-0.38,-0.603 -0.92,-1.075 -1.618,-1.421c-0.692,-0.34 -1.483,-0.516 -2.369,-0.516c-1.304,0 -2.36,0.337 -3.175,1.001c-0.813,0.664 -1.217,1.507 -1.217,2.523c0,0.899 0.33,1.653 0.994,2.267c0.668,0.612 1.733,1.131 3.191,1.548c1.164,0.336 1.97,0.679 2.415,1.022c0.442,0.352 0.661,0.84 0.661,1.473c0,0.63 -0.235,1.13 -0.717,1.495c-0.475,0.367 -1.167,0.55 -2.066,0.55c-0.963,0 -1.736,-0.223 -2.31,-0.677c-0.578,-0.451 -0.865,-1.065 -0.865,-1.85l-1.714,0c0,0.754 0.21,1.424 0.627,2.014c0.417,0.59 1.007,1.059 1.779,1.399c0.766,0.337 1.597,0.507 2.483,0.507c1.365,0 2.459,-0.312 3.274,-0.942c0.815,-0.634 1.223,-1.471 1.223,-2.514c0,-0.658 -0.145,-1.227 -0.438,-1.715c-0.291,-0.484 -0.745,-0.911 -1.347,-1.272Z" style="fill:#fff;fill-rule:nonzero;"/><path d="M393.06,361.684l2.193,-6.044l2.199,6.044l-4.392,0Zm1.446,-8.148l-4.933,12.92l1.754,0l1.217,-3.382l5.411,0l1.236,3.382l1.745,0l-4.942,-12.92l-1.488,0Z" style="fill:#fff;fill-rule:nonzero;"/><path d="M410.121,360.186c-0.602,-0.365 -1.445,-0.698 -2.517,-1.001c-1.075,-0.302 -1.835,-0.633 -2.282,-0.997c-0.445,-0.365 -0.668,-0.813 -0.668,-1.338c0,-0.658 0.235,-1.173 0.705,-1.544c0.472,-0.367 1.124,-0.556 1.964,-0.556c0.905,0 1.603,0.226 2.106,0.673c0.494,0.451 0.741,1.066 0.741,1.85l1.712,0c0,-0.719 -0.189,-1.374 -0.572,-1.979c-0.38,-0.603 -0.917,-1.075 -1.615,-1.421c-0.692,-0.34 -1.486,-0.516 -2.372,-0.516c-1.3,0 -2.36,0.337 -3.169,1.001c-0.812,0.664 -1.223,1.507 -1.223,2.523c0,0.899 0.33,1.653 1.001,2.267c0.664,0.612 1.726,1.131 3.19,1.548c1.161,0.336 1.968,0.679 2.409,1.022c0.445,0.352 0.67,0.84 0.67,1.473c0,0.63 -0.244,1.13 -0.722,1.495c-0.479,0.367 -1.168,0.55 -2.067,0.55c-0.963,0 -1.732,-0.223 -2.31,-0.677c-0.577,-0.451 -0.865,-1.065 -0.865,-1.85l-1.714,0c0,0.754 0.21,1.424 0.624,2.014c0.42,0.59 1.013,1.059 1.782,1.399c0.769,0.337 1.597,0.507 2.483,0.507c1.366,0 2.456,-0.312 3.274,-0.942c0.816,-0.634 1.223,-1.471 1.223,-2.514c0,-0.658 -0.148,-1.227 -0.435,-1.715c-0.297,-0.484 -0.744,-0.911 -1.353,-1.272Z" style="fill:#fff;fill-rule:nonzero;"/><path d="M420.14,362.709c-0.003,0.797 -0.222,1.421 -0.658,1.863c-0.432,0.444 -1.006,0.664 -1.704,0.664c-0.773,0 -1.359,-0.204 -1.764,-0.618c-0.405,-0.414 -0.608,-0.995 -0.608,-1.73l-1.702,0c0,1.183 0.358,2.101 1.075,2.758c0.71,0.658 1.714,0.983 2.999,0.983c1.232,0 2.22,-0.346 2.964,-1.044c0.745,-0.698 1.112,-1.665 1.112,-2.9l0,-9.149l-1.714,0l0,9.173Z" style="fill:#fff;fill-rule:nonzero;"/><path d="M433.634,360.535c-0.015,1.498 -0.324,2.647 -0.927,3.447c-0.608,0.8 -1.457,1.201 -2.557,1.201c-1.093,0 -1.955,-0.423 -2.576,-1.272c-0.627,-0.847 -0.936,-2.014 -0.936,-3.503l0,-0.945c0.016,-1.454 0.331,-2.591 0.952,-3.413c0.617,-0.815 1.467,-1.226 2.542,-1.226c1.105,0 1.964,0.411 2.582,1.226c0.614,0.822 0.92,1.996 0.92,3.527l0,0.958Zm-0.766,-6.427c-0.788,-0.501 -1.699,-0.751 -2.736,-0.751c-1.017,0 -1.918,0.253 -2.709,0.76c-0.791,0.507 -1.399,1.235 -1.835,2.187c-0.429,0.951 -0.645,2.047 -0.645,3.292l0,0.933c0.012,1.217 0.235,2.288 0.67,3.215c0.432,0.923 1.044,1.637 1.832,2.137c0.784,0.5 1.686,0.748 2.705,0.748c1.038,0 1.949,-0.248 2.73,-0.742c0.782,-0.5 1.387,-1.22 1.81,-2.159c0.43,-0.948 0.64,-2.05 0.64,-3.32l0,-0.812c0,-1.26 -0.21,-2.366 -0.64,-3.311c-0.423,-0.951 -1.031,-1.674 -1.822,-2.177Z" style="fill:#fff;fill-rule:nonzero;"/><path d="M446.757,363.534l-6.523,-9.998l-1.711,0l0,12.92l1.711,0l0,-9.955l6.505,9.955l1.711,0l0,-12.92l-1.693,0l0,9.998Z" style="fill:#fff;fill-rule:nonzero;"/><path d="M458.793,366.456l1.705,0l0,-5.708l5.42,0l0,-1.39l-5.42,0l0,-4.429l6.297,0l0,-1.393l-8.002,0l0,12.92Z" style="fill:#fff;fill-rule:nonzero;"/><path d="M477.716,360.535c-0.018,1.498 -0.33,2.647 -0.932,3.447c-0.603,0.8 -1.455,1.201 -2.555,1.201c-1.093,0 -1.955,-0.423 -2.578,-1.272c-0.621,-0.847 -0.936,-2.014 -0.936,-3.503l0,-0.945c0.018,-1.454 0.339,-2.591 0.954,-3.413c0.618,-0.815 1.467,-1.226 2.542,-1.226c1.109,0 1.967,0.411 2.582,1.226c0.614,0.822 0.923,1.996 0.923,3.527l0,0.958Zm-0.769,-6.427c-0.79,-0.501 -1.701,-0.751 -2.736,-0.751c-1.016,0 -1.921,0.253 -2.712,0.76c-0.79,0.507 -1.399,1.235 -1.831,2.187c-0.43,0.951 -0.649,2.047 -0.649,3.292l0,0.933c0.012,1.217 0.238,2.288 0.67,3.215c0.436,0.923 1.047,1.637 1.835,2.137c0.784,0.5 1.689,0.748 2.705,0.748c1.041,0 1.952,-0.248 2.734,-0.742c0.781,-0.5 1.383,-1.22 1.81,-2.159c0.423,-0.948 0.636,-2.05 0.636,-3.32l0,-0.812c0,-1.26 -0.213,-2.366 -0.636,-3.311c-0.427,-0.951 -1.035,-1.674 -1.826,-2.177Z" style="fill:#fff;fill-rule:nonzero;"/><path d="M486.923,359.837l-2.616,0l0,-4.908l2.607,0c0.899,0.006 1.587,0.223 2.063,0.649c0.476,0.429 0.717,1.041 0.717,1.841c0,0.735 -0.251,1.318 -0.751,1.76c-0.497,0.439 -1.174,0.658 -2.02,0.658Zm3.83,-0.315c0.432,-0.596 0.652,-1.297 0.652,-2.097c0,-1.266 -0.389,-2.233 -1.174,-2.897c-0.784,-0.661 -1.909,-0.992 -3.36,-0.992l-4.278,0l0,12.92l1.714,0l0,-5.229l3.033,0l2.805,5.229l1.828,0l0,-0.112l-3.033,-5.479c0.772,-0.299 1.377,-0.741 1.813,-1.343Z" style="fill:#fff;fill-rule:nonzero;"/><path d="M500.04,354.929l4.145,0l0,11.527l1.692,0l0,-11.527l4.155,0l0,-1.393l-9.992,0l0,1.393Z" style="fill:#fff;fill-rule:nonzero;"/><path d="M514.291,360.482l5.596,0l0,-1.392l-5.596,0l0,-4.161l6.414,0l0,-1.393l-8.119,0l0,12.92l8.206,0l0,-1.396l-6.501,0l0,-4.578Z" style="fill:#fff;fill-rule:nonzero;"/><path d="M527.871,359.837l-2.616,0l0,-4.908l2.607,0c0.898,0.006 1.587,0.223 2.063,0.649c0.478,0.429 0.716,1.041 0.716,1.841c0,0.735 -0.25,1.318 -0.75,1.76c-0.501,0.439 -1.174,0.658 -2.02,0.658Zm3.83,-0.315c0.435,-0.596 0.651,-1.297 0.651,-2.097c0,-1.266 -0.392,-2.233 -1.177,-2.897c-0.781,-0.661 -1.902,-0.992 -3.357,-0.992l-4.274,0l0,12.92l1.711,0l0,-5.229l3.033,0l2.804,5.229l1.829,0l0,-0.112l-3.033,-5.479c0.772,-0.299 1.377,-0.741 1.813,-1.343Z" style="fill:#fff;fill-rule:nonzero;"/><path d="M539.697,359.837l-2.616,0l0,-4.908l2.606,0c0.899,0.006 1.588,0.223 2.064,0.649c0.478,0.429 0.713,1.041 0.713,1.841c0,0.735 -0.247,1.318 -0.747,1.76c-0.504,0.439 -1.174,0.658 -2.02,0.658Zm3.829,-0.315c0.433,-0.596 0.649,-1.297 0.649,-2.097c0,-1.266 -0.389,-2.233 -1.174,-2.897c-0.784,-0.661 -1.902,-0.992 -3.354,-0.992l-4.277,0l0,12.92l1.711,0l0,-5.229l3.033,0l2.801,5.229l1.828,0l0,-0.112l-3.033,-5.479c0.779,-0.299 1.381,-0.741 1.816,-1.343Z" style="fill:#fff;fill-rule:nonzero;"/><path d="M548.907,360.482l5.599,0l0,-1.392l-5.599,0l0,-4.161l6.411,0l0,-1.393l-8.116,0l0,12.92l8.209,0l0,-1.396l-6.504,0l0,-4.578Z" style="fill:#fff;fill-rule:nonzero;"/><path d="M566.4,363.534l-6.52,-9.998l-1.714,0l0,12.92l1.714,0l0,-9.955l6.501,9.955l1.715,0l0,-12.92l-1.696,0l0,9.998Z" style="fill:#fff;fill-rule:nonzero;"/><path d="M573.948,355.955c0.587,-0.803 1.452,-1.205 2.592,-1.205c1.717,0 2.733,0.859 3.054,2.573l1.702,0c-0.182,-1.263 -0.686,-2.239 -1.51,-2.931c-0.819,-0.689 -1.906,-1.035 -3.253,-1.035c-1.646,0 -2.921,0.538 -3.829,1.606c-0.908,1.072 -1.362,2.582 -1.362,4.528l0,1.124c0.012,1.202 0.241,2.255 0.688,3.166c0.445,0.911 1.078,1.615 1.894,2.109c0.815,0.495 1.751,0.739 2.804,0.739c1.041,0 1.955,-0.155 2.736,-0.464c0.785,-0.312 1.396,-0.778 1.832,-1.405l0,-4.738l-4.682,0l0,1.393l2.989,0l0,2.891c-0.315,0.34 -0.71,0.581 -1.189,0.72c-0.478,0.142 -1.04,0.21 -1.677,0.21c-1.13,0 -2.026,-0.427 -2.687,-1.279c-0.664,-0.856 -0.994,-2.008 -0.994,-3.459l0,-1.059c0.003,-1.52 0.299,-2.681 0.892,-3.484Z" style="fill:#fff;fill-rule:nonzero;"/><path d="M591.584,360.186c-0.609,-0.365 -1.446,-0.698 -2.52,-1.001c-1.075,-0.302 -1.835,-0.633 -2.28,-0.997c-0.448,-0.365 -0.67,-0.813 -0.67,-1.338c0,-0.658 0.235,-1.173 0.707,-1.544c0.47,-0.367 1.121,-0.556 1.962,-0.556c0.904,0 1.606,0.226 2.103,0.673c0.497,0.451 0.744,1.066 0.744,1.85l1.714,0c0,-0.719 -0.191,-1.374 -0.574,-1.979c-0.383,-0.603 -0.921,-1.075 -1.612,-1.421c-0.695,-0.34 -1.489,-0.516 -2.375,-0.516c-1.301,0 -2.357,0.337 -3.169,1.001c-0.816,0.664 -1.223,1.507 -1.223,2.523c0,0.899 0.333,1.653 1,2.267c0.664,0.612 1.727,1.131 3.191,1.548c1.164,0.336 1.967,0.679 2.412,1.022c0.442,0.352 0.664,0.84 0.664,1.473c0,0.63 -0.241,1.13 -0.717,1.495c-0.481,0.367 -1.17,0.55 -2.069,0.55c-0.967,0 -1.733,-0.223 -2.31,-0.677c-0.578,-0.451 -0.865,-1.065 -0.865,-1.85l-1.711,0c0,0.754 0.207,1.424 0.624,2.014c0.417,0.59 1.01,1.059 1.779,1.399c0.769,0.337 1.597,0.507 2.483,0.507c1.368,0 2.459,-0.312 3.274,-0.942c0.815,-0.634 1.226,-1.471 1.226,-2.514c0,-0.658 -0.148,-1.227 -0.442,-1.715c-0.293,-0.484 -0.741,-0.911 -1.346,-1.272Z" style="fill:#fff;fill-rule:nonzero;"/><path d="M600.13,360.022l-3.354,-6.486l-1.952,0l4.453,8.098l0,4.822l1.705,0l0,-4.822l4.454,-8.098l-1.937,0l-3.369,6.486Z" style="fill:#fff;fill-rule:nonzero;"/><path d="M617.24,353.536l-2.057,0l-5.738,6.387l0,-6.387l-1.705,0l0,12.92l1.705,0l0,-4.371l1.578,-1.64l4.577,6.011l2.042,0l-5.479,-7.215l5.077,-5.705Z" style="fill:#fff;fill-rule:nonzero;"/><path d="M621.481,353.536l-1.711,0l0,12.92l7.835,0l0,-1.396l-6.124,0l0,-11.524Z" style="fill:#fff;fill-rule:nonzero;"/><rect x="630.311" y="353.536" width="1.702" height="12.919" style="fill:#fff;"/><path d="M643.999,363.534l-6.52,-9.998l-1.714,0l0,12.92l1.714,0l0,-9.955l6.501,9.955l1.712,0l0,-12.92l-1.693,0l0,9.998Z" style="fill:#fff;fill-rule:nonzero;"/><path d="M651.544,355.955c0.587,-0.803 1.452,-1.205 2.595,-1.205c1.714,0 2.73,0.859 3.051,2.573l1.705,0c-0.182,-1.263 -0.689,-2.239 -1.51,-2.931c-0.819,-0.689 -1.906,-1.035 -3.256,-1.035c-1.646,0 -2.921,0.538 -3.826,1.606c-0.911,1.072 -1.362,2.582 -1.362,4.528l0,1.124c0.012,1.202 0.241,2.255 0.688,3.166c0.445,0.911 1.075,1.615 1.894,2.109c0.812,0.495 1.748,0.739 2.801,0.739c1.041,0 1.952,-0.155 2.736,-0.464c0.785,-0.312 1.396,-0.778 1.835,-1.405l0,-4.738l-4.685,0l0,1.393l2.989,0l0,2.891c-0.315,0.34 -0.71,0.581 -1.189,0.72c-0.475,0.142 -1.037,0.21 -1.677,0.21c-1.127,0 -2.026,-0.427 -2.687,-1.279c-0.664,-0.856 -0.991,-2.008 -0.991,-3.459l0,-1.059c0.003,-1.52 0.299,-2.681 0.889,-3.484Z" style="fill:#fff;fill-rule:nonzero;"/><path d="M352.489,234.548l-24.612,0l0,82.881c0,1.689 -0.436,3.017 -1.313,3.984c-0.874,0.963 -1.915,1.445 -3.119,1.445c-2.233,0 -3.892,-1.177 -4.979,-3.527c-1.989,-4.346 -5.158,-15.563 -9.5,-33.662c-3.919,-16.468 -8.052,-28.38 -12.394,-35.74c-6.455,-11.038 -15.174,-16.558 -26.151,-16.558c-8.206,0 -14.93,1.81 -20.177,5.43c-6.094,4.222 -9.139,10.374 -9.139,18.457l0,88.674l24.43,0l0,-82.973c0,-1.569 0.3,-2.789 0.905,-3.663c0.602,-0.874 1.659,-1.494 3.166,-1.856c2.292,-0.302 5.278,4.522 8.957,14.476c2.656,7.298 5.763,17.404 9.321,30.314c3.922,14.235 6.121,22.077 6.606,23.525c2.412,7.178 6.514,12.697 12.305,16.558c5.188,3.437 11.038,5.158 17.555,5.158c7.539,0 14.025,-2.141 19.454,-6.425c5.791,-4.583 8.685,-10.374 8.685,-17.373l0,-89.125Z" style="fill:#fff;fill-rule:nonzero;"/><path d="M503.984,345.932l24.159,0l0,-87.136l24.973,0l0,-23.343l-74.016,0l0,23.343l24.884,0l0,87.136Z" style="fill:#fff;fill-rule:nonzero;"/><path d="M651.563,335.438c4.886,-6.335 7.332,-14.087 7.332,-23.257c0,-9.228 -2.446,-16.981 -7.332,-23.253c-5.427,-6.999 -12.821,-10.495 -22.166,-10.495l-34.657,0c-2.773,0 -4.901,-0.93 -6.378,-2.795c-1.479,-1.856 -2.217,-4.108 -2.217,-6.749c0,-2.702 0.769,-5.062 2.307,-7.075c1.538,-2.011 3.635,-3.018 6.288,-3.018l58.815,0l0,-23.343l-62.885,0c-9.352,0 -16.802,3.496 -22.352,10.483c-4.945,6.266 -7.419,13.916 -7.419,22.953c0,9.158 2.474,16.836 7.419,23.044c5.491,6.924 12.941,10.386 22.352,10.386l34.745,0c2.653,0 4.673,0.952 6.063,2.854c1.387,1.9 2.079,4.204 2.079,6.919c0,2.714 -0.723,5.114 -2.171,7.196c-1.446,2.081 -3.438,3.119 -5.971,3.119l-59.086,0l0,23.525l63.068,0c9.345,0 16.739,-3.499 22.166,-10.494Z" style="fill:#fff;fill-rule:nonzero;"/><path d="M459.967,250.278c-16.058,-16.057 -39.41,-20.39 -59.473,-13.126l8.438,23.188c8.401,-3.039 17.815,-2.492 25.823,1.708c1.856,0.973 3.638,2.144 5.309,3.509c0.84,0.679 1.653,1.414 2.434,2.193c0.778,0.778 1.507,1.59 2.19,2.427c1.365,1.674 2.532,3.453 3.508,5.309c0.976,1.86 1.758,3.796 2.341,5.776c0.291,0.988 0.538,1.989 0.729,2.999c0.393,2.02 0.587,4.071 0.587,6.115c0,1.026 -0.049,2.051 -0.145,3.07c-0.686,7.144 -3.756,14.099 -9.21,19.56c-0.667,0.667 -1.365,1.275 -2.072,1.871c-2.928,2.456 -6.19,4.29 -9.627,5.535c-0.603,0.222 -1.205,0.454 -1.813,0.633c-1.983,0.587 -4.006,0.976 -6.051,1.171c-2.041,0.197 -4.098,0.197 -6.137,0c-2.044,-0.195 -4.067,-0.584 -6.05,-1.171c-4.945,-1.461 -9.608,-4.138 -13.512,-8.039c-5.455,-5.461 -8.525,-12.416 -9.21,-19.56c-0.096,-1.019 -0.145,-2.044 -0.145,-3.07c0,-2.044 0.194,-4.095 0.583,-6.115c0.195,-1.01 0.442,-2.011 0.732,-2.999c0.584,-1.98 1.365,-3.916 2.341,-5.776c0.976,-1.856 2.144,-3.635 3.509,-5.309c0.683,-0.837 1.411,-1.649 2.19,-2.427c0.667,-0.664 1.365,-1.279 2.072,-1.872l-15.872,-18.917c-1.254,1.056 -2.489,2.137 -3.669,3.317c-22.107,22.108 -22.107,58.089 0,80.199c16.057,16.055 39.41,20.391 59.473,13.127c6.093,-2.206 11.875,-5.458 17.057,-9.813c1.254,-1.053 2.49,-2.137 3.67,-3.314c22.107,-22.11 22.107,-58.091 0,-80.199Z" style="fill:#fff;fill-rule:nonzero;"/><path d="M413.71,273.457l-4.778,-13.117c-1.344,0.488 -2.672,1.032 -3.953,1.708c-1.857,0.973 -3.642,2.144 -5.313,3.509l-0.358,0.321l9.009,10.736c1.647,-1.384 3.456,-2.453 5.393,-3.157Z" style="fill:#fff;fill-rule:nonzero;"/></g></svg>