<?xml version="1.0" encoding="UTF-8" standalone="no"?><!DOCTYPE svg PUBLIC "-//W3C//DTD SVG 1.1//EN" "http://www.w3.org/Graphics/SVG/1.1/DTD/svg11.dtd"><svg width="100%" height="100%" viewBox="0 0 1200 744" version="1.1" xmlns="http://www.w3.org/2000/svg" xmlns:xlink="http://www.w3.org/1999/xlink" xml:space="preserve" xmlns:serif="http://www.serif.com/" style="fill-rule:evenodd;clip-rule:evenodd;stroke-linejoin:round;stroke-miterlimit:2;"><rect id="logo-ufc" x="0" y="0" width="1200" height="744" style="fill:none;"/><g><path d="M385.986,293.644l10.744,-25.717l11.315,0l-19.43,43.052c-1.22,2.693 -2.477,4.818 -3.772,6.38c-1.296,1.562 -2.71,2.688 -4.246,3.37c-1.537,0.69 -3.603,1.032 -6.194,1.032c-1.041,0 -2.785,-0.232 -5.236,-0.69c-2.451,-0.453 -4.39,-0.986 -5.813,-1.596l3.129,-8.343c0.961,0.482 2.252,0.914 3.865,1.295c1.613,0.381 2.811,0.572 3.598,0.572c1.219,0 2.358,-0.517 3.412,-1.541c1.054,-1.033 2.151,-3.197 3.294,-6.499l-18.707,-37.032l11.62,0l12.421,25.717Z" style="fill:#fff;fill-rule:nonzero;"/><path d="M425.754,267.926l0,21.526l6.096,0c1.422,0 2.679,-0.707 3.772,-2.117c1.092,-1.409 2.184,-3.674 3.276,-6.798c1.092,-3.124 2.299,-7.328 3.62,-12.611l11.087,0c-1.677,7.315 -3.455,13.03 -5.334,17.145c-1.88,4.114 -4.026,6.972 -6.439,8.572c2.057,1.168 3.784,2.663 5.181,4.475c1.397,1.82 2.667,4.25 3.81,7.298c1.143,3.048 2.591,8.128 4.344,15.24l-11.163,0c-0.991,-3.683 -1.888,-6.922 -2.689,-9.716c-0.8,-2.794 -1.667,-5.109 -2.607,-6.951c-0.94,-1.846 -1.994,-3.221 -3.163,-4.136c-1.168,-0.914 -2.641,-1.371 -4.419,-1.371l-5.372,0l0,22.174l-10.744,0l0,-52.73l10.744,0Z" style="fill:#fff;fill-rule:nonzero;"/><path d="M490.68,285.679c0,-2.971 -0.822,-5.114 -2.46,-6.439c-1.638,-1.32 -4.589,-1.981 -8.856,-1.981l-5.372,0l0,17.717l4.381,0c3.937,0 6.659,-0.271 8.171,-0.817c1.511,-0.546 2.578,-1.469 3.2,-2.765c0.622,-1.295 0.936,-3.2 0.936,-5.715m11.087,-0.076c0,6.35 -1.495,11.062 -4.479,14.135c-2.985,3.074 -7.828,4.61 -14.533,4.61l-8.763,0l0,16.307l-10.744,0l0,-52.73l19.812,0c5.969,0 10.579,1.393 13.83,4.174c3.251,2.781 4.877,7.281 4.877,13.504" style="fill:#fff;fill-rule:nonzero;"/><path d="M519.664,300.539l14.211,0l-7.087,-21.793l-7.124,21.793Zm-17.145,20.117l17.45,-52.73l13.982,0l17.488,52.73l-11.011,0l-3.505,-10.706l-20.307,0l-3.429,10.706l-10.668,0Z" style="fill:#fff;fill-rule:nonzero;"/><path d="M584.498,256.991c0,1.854 -0.457,3.15 -1.371,3.886c-0.914,0.737 -2.311,1.105 -4.191,1.105c-2.083,0 -3.501,-0.432 -4.246,-1.295c-0.754,-0.864 -1.126,-2.096 -1.126,-3.696c0,-1.774 0.398,-3.052 1.198,-3.827c0.804,-0.775 2.193,-1.164 4.174,-1.164c1.981,0 3.404,0.377 4.267,1.126c0.859,0.749 1.295,2.036 1.295,3.865m-1.257,63.665l-25.45,0l0,-8.268l7.353,0l0,-36.195l-7.353,0l0,-8.267l25.45,0l0,8.267l-7.315,0l0,36.195l7.315,0l0,8.268Zm-15.697,-63.665c0,1.854 -0.453,3.15 -1.355,3.886c-0.901,0.737 -2.29,1.105 -4.169,1.105c-2.083,0 -3.501,-0.432 -4.246,-1.295c-0.754,-0.864 -1.126,-2.096 -1.126,-3.696c0,-1.774 0.402,-3.052 1.202,-3.827c0.8,-0.775 2.188,-1.164 4.17,-1.164c1.981,0 3.395,0.377 4.246,1.126c0.855,0.749 1.278,2.036 1.278,3.865" style="fill:#fff;fill-rule:nonzero;"/><path d="M623.171,320.656l0,-22.403l-20.764,0l0,22.403l-10.744,0l0,-52.73l10.744,0l0,20.497l20.764,0l0,-20.497l10.782,0l0,52.73l-10.782,0Z" style="fill:#fff;fill-rule:nonzero;"/><path d="M687.884,311.931c-2.261,3.378 -5.034,5.863 -8.323,7.446c-3.289,1.588 -7.336,2.384 -12.137,2.384c-16.328,0 -24.498,-9.157 -24.498,-27.47c0,-9.373 2.074,-16.294 6.215,-20.765c4.136,-4.47 10.105,-6.705 17.902,-6.705c5.156,0 9.36,0.872 12.611,2.612c3.251,1.74 5.728,4.017 7.43,6.837l-8.344,6.476c-1.219,-1.828 -2.337,-3.149 -3.353,-3.962c-1.016,-0.813 -2.172,-1.422 -3.467,-1.829c-1.295,-0.406 -2.845,-0.609 -4.648,-0.609c-4.318,0 -7.607,1.38 -9.868,4.136c-2.261,2.756 -3.387,7.357 -3.387,13.809c0,6.019 1.059,10.515 3.18,13.487c2.12,2.972 5.503,4.458 10.151,4.458c3.124,0 5.558,-0.597 7.298,-1.791c1.74,-1.194 3.319,-2.781 4.742,-4.762l8.496,6.248Z" style="fill:#fff;fill-rule:nonzero;"/><path d="M723.883,303.243c0,-2.693 -0.791,-4.585 -2.379,-5.677c-1.587,-1.092 -4.123,-1.638 -7.603,-1.638l-7.582,0l0,15.278l7.582,0c3.277,0 5.758,-0.623 7.447,-1.867c1.689,-1.245 2.535,-3.277 2.535,-6.096m-28.308,17.411l0,-52.73l10.744,0l0,18.707l8.116,0c7.289,0 12.535,1.368 15.735,4.098c3.2,2.731 4.8,6.901 4.8,12.514c0,6.045 -1.676,10.46 -5.029,13.237c-3.352,2.786 -8.598,4.174 -15.735,4.174l-18.631,0Z" style="fill:#fff;fill-rule:nonzero;"/><path d="M753.752,267.926l0,21.526l6.096,0c1.422,0 2.68,-0.707 3.772,-2.117c1.092,-1.409 2.184,-3.674 3.276,-6.798c1.093,-3.124 2.299,-7.328 3.62,-12.611l11.087,0c-1.677,7.315 -3.455,13.03 -5.334,17.145c-1.88,4.114 -4.026,6.972 -6.439,8.572c2.057,1.168 3.785,2.663 5.182,4.475c1.397,1.82 2.667,4.25 3.81,7.298c1.143,3.048 2.59,8.128 4.343,15.24l-11.163,0c-0.991,-3.683 -1.888,-6.922 -2.684,-9.716c-0.805,-2.794 -1.672,-5.109 -2.612,-6.951c-0.94,-1.846 -1.994,-3.221 -3.162,-4.136c-1.169,-0.914 -2.642,-1.371 -4.42,-1.371l-5.372,0l0,22.174l-10.744,0l0,-52.73l10.744,0Z" style="fill:#fff;fill-rule:nonzero;"/><path d="M806.28,300.539l14.211,0l-7.086,-21.793l-7.125,21.793Zm-17.145,20.117l17.45,-52.73l13.982,0l17.488,52.73l-11.011,0l-3.505,-10.706l-20.307,0l-3.429,10.706l-10.668,0Z" style="fill:#fff;fill-rule:nonzero;"/><path d="M366.328,405.775l0,-52.73l42.596,0l0,52.73l-11.011,0l0,-43.548l-20.612,0l0,43.548l-10.973,0Z" style="fill:#fff;fill-rule:nonzero;"/><path d="M487.054,370.8c0,-2.972 -0.817,-5.118 -2.46,-6.439c-1.634,-1.321 -4.589,-1.981 -8.856,-1.981l-45.093,0l0,17.716l44.103,0c3.937,0 6.663,-0.275 8.17,-0.821c1.511,-0.542 2.578,-1.465 3.204,-2.76c0.623,-1.295 0.932,-3.2 0.932,-5.715m11.087,-0.076c0,6.35 -1.49,11.061 -4.475,14.135c-2.989,3.073 -7.831,4.61 -14.537,4.61l-48.484,0l0,16.307l-10.744,0l0,-52.73l59.533,0c5.969,0 10.579,1.392 13.83,4.174c3.251,2.781 4.877,7.281 4.877,13.504" style="fill:#fff;fill-rule:nonzero;"/><path d="M516.04,385.658l14.211,0l-7.086,-21.793l-7.125,21.793Zm-17.145,20.117l17.45,-52.73l13.982,0l17.488,52.73l-11.011,0l-3.505,-10.706l-20.307,0l-3.429,10.706l-10.668,0Z" style="fill:#fff;fill-rule:nonzero;"/><path d="M554.964,405.775l0,-52.73l42.596,0l0,52.73l-11.011,0l0,-43.548l-20.612,0l0,43.548l-10.973,0Z" style="fill:#fff;fill-rule:nonzero;"/><path d="M640.699,379.409c0,-6.248 -0.88,-10.799 -2.645,-13.656c-1.77,-2.858 -4.759,-4.289 -8.975,-4.289c-4.216,0 -7.209,1.431 -8.975,4.289c-1.765,2.857 -2.645,7.408 -2.645,13.656c0,6.249 0.897,10.804 2.688,13.661c1.786,2.858 4.766,4.284 8.932,4.284c4.216,0 7.205,-1.426 8.975,-4.284c1.765,-2.857 2.645,-7.412 2.645,-13.661m11.087,0c0,9.17 -1.938,16.04 -5.812,20.612c-3.873,4.572 -9.504,6.858 -16.895,6.858c-7.798,0 -13.53,-2.408 -17.204,-7.218c-3.67,-4.813 -5.503,-11.565 -5.503,-20.252c0,-8.733 1.833,-15.498 5.503,-20.286c3.674,-4.788 9.406,-7.184 17.204,-7.184c7.849,0 13.593,2.396 17.238,7.184c3.645,4.788 5.469,11.553 5.469,20.286" style="fill:#fff;fill-rule:nonzero;"/><path d="M688.02,370.8c0,-2.972 -0.817,-5.118 -2.459,-6.439c-1.634,-1.321 -4.589,-1.981 -8.856,-1.981l-5.373,0l0,17.716l4.382,0c3.937,0 6.663,-0.275 8.17,-0.821c1.511,-0.542 2.578,-1.465 3.205,-2.76c0.622,-1.295 0.931,-3.2 0.931,-5.715m11.087,-0.076c0,6.35 -1.49,11.061 -4.474,14.135c-2.989,3.073 -7.832,4.61 -14.538,4.61l-8.763,0l0,16.307l-10.744,0l0,-52.73l19.812,0c5.969,0 10.579,1.392 13.83,4.174c3.252,2.781 4.877,7.281 4.877,13.504" style="fill:#fff;fill-rule:nonzero;"/><path d="M738.632,405.775l0,-22.403l-20.765,0l0,22.403l-10.744,0l0,-52.73l10.744,0l0,20.497l20.765,0l0,-20.497l10.778,0l0,52.73l-10.778,0Z" style="fill:#fff;fill-rule:nonzero;"/><path d="M773.707,385.658l14.212,0l-7.087,-21.793l-7.125,21.793Zm-17.145,20.117l17.45,-52.73l13.983,0l17.487,52.73l-11.01,0l-3.506,-10.706l-20.307,0l-3.429,10.706l-10.668,0Z" style="fill:#fff;fill-rule:nonzero;"/><path d="M377.071,438.165l0,21.526l6.096,0c1.422,0 2.679,-0.707 3.772,-2.116c1.092,-1.41 2.184,-3.675 3.276,-6.799c1.092,-3.124 2.299,-7.328 3.62,-12.611l11.087,0c-1.677,7.315 -3.455,13.03 -5.334,17.145c-1.88,4.115 -4.026,6.972 -6.439,8.572c2.057,1.169 3.784,2.663 5.181,4.475c1.397,1.82 2.667,4.25 3.81,7.298c1.143,3.048 2.591,8.128 4.344,15.24l-11.163,0c-0.991,-3.683 -1.884,-6.921 -2.684,-9.715c-0.8,-2.794 -1.672,-5.11 -2.612,-6.951c-0.94,-1.846 -1.994,-3.222 -3.163,-4.136c-1.168,-0.915 -2.641,-1.372 -4.419,-1.372l-5.372,0l0,22.174l-10.744,0l0,-52.73l10.744,0Z" style="fill:#fff;fill-rule:nonzero;"/><path d="M445.418,464.53c0,-6.248 -0.881,-10.799 -2.646,-13.661c-1.766,-2.853 -4.759,-4.284 -8.975,-4.284c-4.216,0 -7.209,1.431 -8.97,4.284c-1.77,2.862 -2.65,7.413 -2.65,13.661c0,6.248 0.897,10.799 2.688,13.661c1.786,2.853 4.767,4.284 8.932,4.284c4.216,0 7.209,-1.431 8.975,-4.284c1.765,-2.862 2.646,-7.413 2.646,-13.661m11.087,0c0,9.169 -1.939,16.04 -5.809,20.612c-3.873,4.572 -9.508,6.858 -16.899,6.858c-7.798,0 -13.53,-2.409 -17.204,-7.222c-3.666,-4.813 -5.503,-11.561 -5.503,-20.248c0,-8.737 1.837,-15.502 5.503,-20.286c3.674,-4.788 9.406,-7.184 17.204,-7.184c7.849,0 13.593,2.396 17.242,7.184c3.641,4.784 5.466,11.549 5.466,20.286" style="fill:#fff;fill-rule:nonzero;"/><path d="M507.026,490.893l0,-35.432l-12.649,22.026l-6.211,0l-12.496,-22.026l0,35.432l-10.359,0l0,-52.73l12.378,0l13.754,25.036l13.868,-25.036l12.116,0l0,52.73l-10.401,0Z" style="fill:#fff;fill-rule:nonzero;"/><path d="M528.405,490.893l0,-52.73l42.596,0l0,52.73l-11.011,0l0,-43.548l-20.612,0l0,43.548l-10.973,0Z" style="fill:#fff;fill-rule:nonzero;"/><path d="M595.295,470.779l14.211,0l-7.087,-21.793l-7.124,21.793Zm-17.145,20.112l17.449,-52.726l13.983,0l17.488,52.726l-11.011,0l-3.505,-10.701l-20.307,0l-3.429,10.701l-10.668,0Z" style="fill:#fff;fill-rule:nonzero;"/><path d="M665.727,490.893l0,-22.402l-20.764,0l0,22.402l-10.744,0l0,-52.73l10.744,0l0,20.498l20.764,0l0,-20.498l10.782,0l0,52.73l-10.782,0Z" style="fill:#fff;fill-rule:nonzero;"/><path d="M710.749,490.893l-25.45,0l0,-8.267l7.353,0l0,-36.191l-7.353,0l0,-8.272l25.45,0l0,8.272l-7.315,0l0,36.191l7.315,0l0,8.267Z" style="fill:#fff;fill-rule:nonzero;"/><path d="M731.252,454.282c0,2.006 0.288,3.492 0.86,4.457c0.571,0.966 1.503,1.677 2.798,2.134c1.295,0.457 3.149,0.686 5.562,0.686l7.887,0l0,-14.059l-8.344,0c-3.124,0 -5.363,0.457 -6.722,1.372c-1.359,0.914 -2.041,2.717 -2.041,5.41m-14.097,36.609l14.097,-21.217c-3.429,-0.686 -6.1,-2.371 -8.018,-5.05c-1.917,-2.676 -2.878,-6.278 -2.878,-10.8c0,-5.562 1.558,-9.563 4.669,-12.001c3.112,-2.438 8.082,-3.658 14.914,-3.658l19.202,0l0,52.726l-10.782,0l0,-19.96l-5.448,0l-13.449,19.96l-12.307,0Z" style="fill:#fff;fill-rule:nonzero;"/></g></svg>