<?xml version="1.0" encoding="UTF-8" standalone="no"?><!DOCTYPE svg PUBLIC "-//W3C//DTD SVG 1.1//EN" "http://www.w3.org/Graphics/SVG/1.1/DTD/svg11.dtd"><svg width="100%" height="100%" viewBox="0 0 900 600" version="1.1" xmlns="http://www.w3.org/2000/svg" xmlns:xlink="http://www.w3.org/1999/xlink" xml:space="preserve" xmlns:serif="http://www.serif.com/" style="fill-rule:evenodd;clip-rule:evenodd;stroke-linejoin:round;stroke-miterlimit:1.41421;"><rect id="logo-macrame" x="0" y="0" width="900" height="600" style="fill:none;"/><g><path d="M495.564,185.449c24.534,0.023 44.41,19.914 44.41,44.41l0,88.82c0,24.511 -19.9,44.41 -44.41,44.41l-91.128,0c-24.51,0 -44.41,-19.899 -44.41,-44.41l0,-88.82c0,-24.496 19.876,-44.387 44.41,-44.41l91.128,0Zm-39.468,109.964c3.603,-0.013 4.895,-2.001 5.286,-2.858c0.549,-1.205 1.025,-3.725 -1.964,-7.056l-5.738,-6.394l28.338,-31.583l9.106,10.145c2.208,2.46 4.144,7.501 4.144,10.787l0,55.237c0,1.502 1.234,2.72 2.756,2.72c1.522,0 2.756,-1.218 2.756,-2.72l0,-55.237c0,-4.616 -2.43,-10.939 -5.532,-14.394l-9.549,-10.639l5.903,-6.579c1.814,-2.022 2.629,-4.614 2.234,-7.111c-0.394,-2.497 -1.97,-4.721 -4.321,-6.102c-0.428,-0.25 -2.798,-1.502 -7.499,-1.502c-4.702,0 -7.072,1.252 -7.499,1.502c-2.352,1.381 -3.927,3.605 -4.321,6.102c-0.395,2.496 0.42,5.088 2.235,7.111l5.906,6.579l-28.338,31.582l-28.336,-31.582l5.906,-6.579c1.814,-2.023 2.629,-4.614 2.235,-7.111c-0.395,-2.497 -1.969,-4.721 -4.321,-6.102c-0.428,-0.25 -2.798,-1.502 -7.499,-1.502c-4.702,0 -7.072,1.252 -7.5,1.502c-2.351,1.381 -3.926,3.605 -4.321,6.102c-0.394,2.496 0.42,5.088 2.234,7.111l5.904,6.579l-9.55,10.639c-3.101,3.455 -5.531,9.778 -5.531,14.394l0,55.237c0,1.502 1.234,2.72 2.756,2.72c1.521,0 2.755,-1.218 2.755,-2.72l0,-55.237c0,-3.286 1.936,-8.327 4.144,-10.787l9.106,-10.145l28.338,31.583l-5.738,6.394c-2.988,3.331 -2.513,5.851 -1.963,7.056c0.391,0.859 1.691,2.858 5.285,2.858l12.193,0Zm-12.057,-5.44l11.922,0c-0.15,-0.238 -0.365,-0.53 -0.668,-0.867l-5.294,-5.9l-5.293,5.9c-0.302,0.337 -0.517,0.629 -0.667,0.867Zm-26.055,-62.406c-3.221,0 -4.728,0.764 -4.743,0.772c-0.889,0.523 -1.49,1.328 -1.633,2.23c-0.143,0.902 0.182,1.849 0.914,2.665l5.46,6.086l5.462,-6.086c0.733,-0.816 1.058,-1.763 0.915,-2.665c-0.143,-0.902 -0.744,-1.706 -1.693,-2.263l0.001,0c-0.007,0 -1.517,-0.739 -4.683,-0.739Zm64.032,0c-3.221,0 -4.728,0.764 -4.743,0.772c-0.888,0.523 -1.49,1.327 -1.632,2.23c-0.143,0.902 0.182,1.849 0.914,2.665l5.463,6.085l5.459,-6.085c0.732,-0.816 1.057,-1.762 0.915,-2.665c-0.143,-0.902 -0.745,-1.706 -1.694,-2.263l0.001,0c-0.007,0 -1.517,-0.739 -4.683,-0.739Z" style="fill:#fff;"/><g><path d="M404.875,413.86c0,0.074 -0.018,0.143 -0.056,0.205c-0.037,0.063 -0.103,0.112 -0.196,0.15c-0.094,0.037 -0.212,0.068 -0.355,0.093c-0.144,0.025 -0.328,0.037 -0.552,0.037c-0.199,0 -0.374,-0.012 -0.523,-0.037c-0.15,-0.025 -0.268,-0.056 -0.356,-0.093c-0.088,-0.038 -0.149,-0.087 -0.187,-0.15c-0.037,-0.062 -0.056,-0.131 -0.056,-0.205l0,-21.82l-0.037,0l-9.517,21.951l-0.113,0.139c-0.049,0.044 -0.118,0.082 -0.205,0.113c-0.087,0.03 -0.191,0.056 -0.308,0.075c-0.119,0.018 -0.26,0.027 -0.421,0.027c-0.175,0 -0.324,-0.009 -0.449,-0.027c-0.125,-0.019 -0.227,-0.045 -0.309,-0.075c-0.081,-0.031 -0.146,-0.069 -0.195,-0.113l-0.094,-0.139l-9.049,-21.951l-0.02,0l0,21.82c0,0.074 -0.017,0.143 -0.055,0.205c-0.038,0.063 -0.103,0.112 -0.197,0.15c-0.093,0.037 -0.212,0.068 -0.355,0.093c-0.143,0.025 -0.334,0.037 -0.57,0.037c-0.212,0 -0.39,-0.012 -0.533,-0.037c-0.143,-0.025 -0.259,-0.056 -0.346,-0.093c-0.087,-0.038 -0.147,-0.087 -0.178,-0.15c-0.03,-0.062 -0.047,-0.131 -0.047,-0.205l0,-22.643c0,-0.449 0.119,-0.756 0.356,-0.924c0.236,-0.169 0.467,-0.253 0.692,-0.253l1.233,0c0.312,0 0.587,0.034 0.823,0.102c0.237,0.069 0.446,0.168 0.626,0.3c0.181,0.131 0.335,0.289 0.459,0.477c0.124,0.186 0.237,0.398 0.336,0.635l7.984,19.221l0.093,0l8.321,-19.147c0.124,-0.298 0.258,-0.55 0.402,-0.756c0.143,-0.206 0.292,-0.371 0.448,-0.495c0.156,-0.126 0.325,-0.213 0.505,-0.263c0.181,-0.049 0.377,-0.074 0.589,-0.074l1.365,0c0.112,0 0.231,0.018 0.355,0.055c0.124,0.038 0.237,0.103 0.337,0.198c0.099,0.092 0.184,0.214 0.253,0.364c0.068,0.149 0.102,0.336 0.102,0.56l0,22.643Z" style="fill:#fff;fill-rule:nonzero;"/><path d="M421.161,405.876l-3.086,0c-0.897,0 -1.682,0.082 -2.356,0.243c-0.673,0.162 -1.233,0.399 -1.682,0.711c-0.449,0.311 -0.783,0.686 -1,1.122c-0.219,0.436 -0.328,0.934 -0.328,1.495c0,0.972 0.308,1.748 0.926,2.328c0.617,0.579 1.486,0.869 2.608,0.869c0.885,0 1.711,-0.227 2.478,-0.682c0.766,-0.455 1.579,-1.156 2.44,-2.103l0,-3.983Zm2.225,7.984c0,0.124 -0.042,0.221 -0.122,0.29c-0.081,0.069 -0.187,0.118 -0.318,0.149c-0.131,0.031 -0.309,0.046 -0.533,0.046c-0.212,0 -0.392,-0.015 -0.542,-0.046c-0.15,-0.031 -0.265,-0.08 -0.346,-0.149c-0.081,-0.069 -0.121,-0.166 -0.121,-0.29l0,-1.889c-0.761,0.823 -1.599,1.458 -2.515,1.907c-0.916,0.449 -1.867,0.673 -2.852,0.673c-0.885,0 -1.68,-0.115 -2.384,-0.345c-0.704,-0.231 -1.299,-0.561 -1.785,-0.991c-0.486,-0.43 -0.86,-0.951 -1.122,-1.562c-0.262,-0.61 -0.392,-1.296 -0.392,-2.056c0,-0.935 0.193,-1.749 0.579,-2.44c0.387,-0.692 0.935,-1.268 1.645,-1.73c0.711,-0.46 1.565,-0.807 2.562,-1.037c0.997,-0.231 2.106,-0.347 3.328,-0.347l2.693,0l0,-1.458c0,-0.722 -0.076,-1.361 -0.225,-1.916c-0.149,-0.554 -0.393,-1.019 -0.729,-1.393c-0.336,-0.374 -0.773,-0.655 -1.309,-0.841c-0.536,-0.188 -1.19,-0.281 -1.963,-0.281c-0.748,0 -1.421,0.091 -2.019,0.271c-0.599,0.181 -1.122,0.383 -1.571,0.607c-0.449,0.225 -0.82,0.428 -1.113,0.609c-0.293,0.181 -0.501,0.271 -0.626,0.271c-0.075,0 -0.143,-0.013 -0.206,-0.038l-0.159,-0.14c-0.043,-0.068 -0.074,-0.156 -0.093,-0.262c-0.019,-0.106 -0.028,-0.234 -0.028,-0.383c0,-0.262 0.019,-0.47 0.056,-0.627c0.037,-0.155 0.134,-0.311 0.29,-0.467c0.156,-0.155 0.433,-0.34 0.832,-0.551c0.399,-0.213 0.857,-0.408 1.375,-0.589c0.516,-0.181 1.075,-0.328 1.673,-0.439c0.598,-0.113 1.196,-0.169 1.795,-0.169c1.159,0 2.137,0.14 2.935,0.421c0.798,0.28 1.442,0.682 1.935,1.205c0.492,0.524 0.844,1.169 1.056,1.936c0.212,0.766 0.319,1.636 0.319,2.608l0,11.443Z" style="fill:#fff;fill-rule:nonzero;"/><path d="M441.372,411.354c0,0.15 -0.007,0.284 -0.019,0.402c-0.013,0.119 -0.031,0.222 -0.056,0.309c-0.025,0.087 -0.059,0.165 -0.103,0.234c-0.044,0.068 -0.147,0.184 -0.308,0.345c-0.163,0.163 -0.434,0.368 -0.814,0.617c-0.38,0.25 -0.807,0.468 -1.281,0.655c-0.474,0.187 -0.984,0.339 -1.533,0.458c-0.548,0.118 -1.115,0.177 -1.701,0.177c-1.172,0 -2.209,-0.196 -3.113,-0.589c-0.904,-0.392 -1.662,-0.972 -2.272,-1.738c-0.611,-0.767 -1.075,-1.708 -1.393,-2.823c-0.318,-1.117 -0.477,-2.403 -0.477,-3.862c0,-1.645 0.197,-3.054 0.59,-4.225c0.392,-1.172 0.931,-2.131 1.617,-2.879c0.685,-0.748 1.486,-1.3 2.402,-1.655c0.916,-0.356 1.898,-0.533 2.945,-0.533c0.561,0 1.096,0.053 1.608,0.159c0.511,0.106 0.982,0.246 1.411,0.421c0.431,0.174 0.814,0.374 1.151,0.598c0.336,0.224 0.582,0.415 0.738,0.57c0.156,0.156 0.261,0.274 0.318,0.356c0.056,0.081 0.099,0.171 0.131,0.27c0.031,0.101 0.052,0.21 0.065,0.327c0.012,0.119 0.019,0.26 0.019,0.421c0,0.362 -0.053,0.615 -0.159,0.758c-0.106,0.143 -0.222,0.215 -0.346,0.215c-0.174,0 -0.39,-0.113 -0.645,-0.337c-0.256,-0.224 -0.583,-0.47 -0.982,-0.738c-0.399,-0.268 -0.882,-0.515 -1.449,-0.739c-0.567,-0.225 -1.243,-0.336 -2.028,-0.336c-1.621,0 -2.87,0.623 -3.749,1.869c-0.879,1.247 -1.318,3.048 -1.318,5.404c0,1.184 0.119,2.222 0.355,3.113c0.237,0.891 0.576,1.633 1.019,2.225c0.442,0.592 0.982,1.034 1.618,1.327c0.635,0.293 1.352,0.44 2.15,0.44c0.748,0 1.407,-0.119 1.982,-0.355c0.572,-0.237 1.071,-0.5 1.495,-0.786c0.424,-0.287 0.776,-0.549 1.057,-0.785c0.28,-0.237 0.489,-0.356 0.626,-0.356c0.075,0 0.14,0.022 0.196,0.066c0.056,0.044 0.104,0.112 0.14,0.206c0.038,0.093 0.066,0.206 0.085,0.336c0.018,0.131 0.028,0.284 0.028,0.458Z" style="fill:#fff;fill-rule:nonzero;"/><path d="M455.226,397.798c0,0.188 -0.006,0.347 -0.018,0.478c-0.013,0.131 -0.035,0.236 -0.067,0.317c-0.03,0.082 -0.068,0.144 -0.111,0.187c-0.044,0.044 -0.104,0.066 -0.178,0.066c-0.112,0 -0.243,-0.028 -0.392,-0.084c-0.15,-0.056 -0.325,-0.116 -0.524,-0.178c-0.199,-0.062 -0.418,-0.122 -0.655,-0.177c-0.236,-0.056 -0.498,-0.084 -0.785,-0.084c-0.336,0 -0.667,0.071 -0.991,0.214c-0.324,0.144 -0.664,0.374 -1.018,0.692c-0.356,0.318 -0.73,0.739 -1.122,1.262c-0.394,0.524 -0.826,1.166 -1.3,1.926l0,11.443c0,0.074 -0.018,0.143 -0.056,0.205c-0.037,0.063 -0.096,0.112 -0.178,0.15c-0.081,0.037 -0.193,0.068 -0.336,0.093c-0.144,0.025 -0.328,0.037 -0.552,0.037c-0.212,0 -0.39,-0.012 -0.533,-0.037c-0.143,-0.025 -0.258,-0.056 -0.345,-0.093c-0.088,-0.038 -0.147,-0.087 -0.178,-0.15c-0.032,-0.062 -0.047,-0.131 -0.047,-0.205l0,-16.921c0,-0.075 0.015,-0.143 0.047,-0.206c0.031,-0.062 0.09,-0.115 0.178,-0.159c0.087,-0.043 0.196,-0.074 0.327,-0.093c0.131,-0.019 0.302,-0.028 0.514,-0.028c0.212,0 0.386,0.009 0.524,0.028c0.137,0.019 0.242,0.05 0.317,0.093c0.075,0.044 0.128,0.097 0.159,0.159c0.032,0.063 0.047,0.131 0.047,0.206l0,2.673c0.486,-0.71 0.934,-1.283 1.346,-1.72c0.411,-0.436 0.804,-0.775 1.178,-1.018c0.374,-0.244 0.738,-0.408 1.094,-0.496c0.355,-0.088 0.72,-0.131 1.094,-0.131c0.161,0 0.348,0.009 0.56,0.028c0.212,0.019 0.44,0.053 0.683,0.103c0.243,0.05 0.46,0.109 0.654,0.177c0.193,0.069 0.327,0.131 0.402,0.188c0.076,0.055 0.125,0.106 0.15,0.149l0.065,0.168c0.019,0.069 0.031,0.162 0.037,0.281c0.007,0.119 0.01,0.271 0.01,0.457Z" style="fill:#fff;fill-rule:nonzero;"/><path d="M467.921,405.876l-3.084,0c-0.898,0 -1.684,0.082 -2.356,0.243c-0.674,0.162 -1.234,0.399 -1.684,0.711c-0.448,0.311 -0.781,0.686 -0.999,1.122c-0.218,0.436 -0.328,0.934 -0.328,1.495c0,0.972 0.309,1.748 0.926,2.328c0.617,0.579 1.486,0.869 2.608,0.869c0.885,0 1.711,-0.227 2.477,-0.682c0.767,-0.455 1.58,-1.156 2.44,-2.103l0,-3.983Zm2.225,7.984c0,0.124 -0.04,0.221 -0.121,0.29c-0.081,0.069 -0.187,0.118 -0.318,0.149c-0.131,0.031 -0.309,0.046 -0.533,0.046c-0.212,0 -0.393,-0.015 -0.542,-0.046c-0.149,-0.031 -0.265,-0.08 -0.346,-0.149c-0.081,-0.069 -0.122,-0.166 -0.122,-0.29l0,-1.889c-0.76,0.823 -1.598,1.458 -2.514,1.907c-0.917,0.449 -1.867,0.673 -2.852,0.673c-0.885,0 -1.679,-0.115 -2.383,-0.345c-0.705,-0.231 -1.3,-0.561 -1.786,-0.991c-0.486,-0.43 -0.86,-0.951 -1.122,-1.562c-0.262,-0.61 -0.393,-1.296 -0.393,-2.056c0,-0.935 0.193,-1.749 0.58,-2.44c0.386,-0.692 0.935,-1.268 1.646,-1.73c0.71,-0.46 1.563,-0.807 2.561,-1.037c0.997,-0.231 2.106,-0.347 3.328,-0.347l2.692,0l0,-1.458c0,-0.722 -0.075,-1.361 -0.224,-1.916c-0.15,-0.554 -0.392,-1.019 -0.729,-1.393c-0.337,-0.374 -0.773,-0.655 -1.309,-0.841c-0.536,-0.188 -1.191,-0.281 -1.963,-0.281c-0.748,0 -1.421,0.091 -2.02,0.271c-0.597,0.181 -1.121,0.383 -1.57,0.607c-0.449,0.225 -0.82,0.428 -1.112,0.609c-0.293,0.181 -0.502,0.271 -0.627,0.271c-0.075,0 -0.144,-0.013 -0.206,-0.038l-0.159,-0.14c-0.044,-0.068 -0.074,-0.156 -0.093,-0.262c-0.018,-0.106 -0.028,-0.234 -0.028,-0.383c0,-0.262 0.019,-0.47 0.056,-0.627c0.038,-0.155 0.134,-0.311 0.29,-0.467c0.156,-0.155 0.433,-0.34 0.832,-0.551c0.399,-0.213 0.857,-0.408 1.374,-0.589c0.517,-0.181 1.075,-0.328 1.674,-0.439c0.598,-0.113 1.196,-0.169 1.794,-0.169c1.159,0 2.138,0.14 2.936,0.421c0.798,0.28 1.443,0.682 1.935,1.205c0.492,0.524 0.845,1.169 1.057,1.936c0.212,0.766 0.317,1.636 0.317,2.608l0,11.443Z" style="fill:#fff;fill-rule:nonzero;"/><path d="M500.435,413.86c0,0.074 -0.018,0.143 -0.055,0.205c-0.038,0.063 -0.097,0.112 -0.178,0.15c-0.082,0.037 -0.194,0.068 -0.337,0.093c-0.144,0.025 -0.321,0.037 -0.533,0.037c-0.224,0 -0.408,-0.012 -0.552,-0.037c-0.143,-0.025 -0.258,-0.056 -0.345,-0.093c-0.088,-0.038 -0.147,-0.087 -0.178,-0.15c-0.031,-0.062 -0.047,-0.131 -0.047,-0.205l0,-10.414c0,-0.798 -0.072,-1.524 -0.215,-2.179c-0.143,-0.655 -0.368,-1.215 -0.673,-1.683c-0.305,-0.467 -0.692,-0.829 -1.159,-1.084c-0.468,-0.255 -1.019,-0.383 -1.655,-0.383c-0.785,0 -1.579,0.305 -2.383,0.915c-0.804,0.612 -1.686,1.509 -2.646,2.693l0,12.135c0,0.074 -0.019,0.143 -0.056,0.205c-0.038,0.063 -0.097,0.112 -0.177,0.15c-0.082,0.037 -0.194,0.068 -0.337,0.093c-0.144,0.025 -0.322,0.037 -0.533,0.037c-0.213,0 -0.39,-0.012 -0.533,-0.037c-0.143,-0.025 -0.259,-0.056 -0.346,-0.093c-0.087,-0.038 -0.147,-0.087 -0.178,-0.15c-0.031,-0.062 -0.047,-0.131 -0.047,-0.205l0,-10.414c0,-0.798 -0.075,-1.524 -0.224,-2.179c-0.149,-0.655 -0.376,-1.215 -0.682,-1.683c-0.306,-0.467 -0.692,-0.829 -1.16,-1.084c-0.467,-0.255 -1.018,-0.383 -1.654,-0.383c-0.785,0 -1.58,0.305 -2.384,0.915c-0.804,0.612 -1.679,1.509 -2.627,2.693l0,12.135c0,0.074 -0.018,0.143 -0.056,0.205c-0.037,0.063 -0.096,0.112 -0.178,0.15c-0.081,0.037 -0.193,0.068 -0.336,0.093c-0.144,0.025 -0.328,0.037 -0.551,0.037c-0.213,0 -0.391,-0.012 -0.533,-0.037c-0.143,-0.025 -0.259,-0.056 -0.346,-0.093c-0.087,-0.038 -0.147,-0.087 -0.178,-0.15c-0.031,-0.062 -0.047,-0.131 -0.047,-0.205l0,-16.921c0,-0.075 0.016,-0.143 0.047,-0.206c0.031,-0.062 0.091,-0.115 0.178,-0.159c0.087,-0.043 0.196,-0.074 0.327,-0.093c0.131,-0.019 0.302,-0.028 0.514,-0.028c0.212,0 0.386,0.009 0.524,0.028c0.136,0.019 0.242,0.05 0.317,0.093c0.075,0.044 0.128,0.097 0.159,0.159c0.031,0.063 0.047,0.131 0.047,0.206l0,2.393c0.973,-1.085 1.894,-1.87 2.767,-2.356c0.873,-0.486 1.739,-0.729 2.599,-0.729c0.71,0 1.343,0.085 1.898,0.253c0.555,0.168 1.044,0.405 1.468,0.71c0.423,0.306 0.785,0.67 1.084,1.093c0.299,0.424 0.542,0.892 0.729,1.403c0.586,-0.648 1.137,-1.194 1.654,-1.636c0.518,-0.442 1.01,-0.797 1.478,-1.066c0.467,-0.268 0.919,-0.461 1.356,-0.58c0.436,-0.117 0.866,-0.177 1.29,-0.177c1.059,0 1.953,0.187 2.683,0.561c0.728,0.374 1.315,0.879 1.757,1.515c0.442,0.635 0.76,1.377 0.953,2.224c0.193,0.848 0.29,1.745 0.29,2.693l0,10.62Z" style="fill:#fff;fill-rule:nonzero;"/><path d="M514.851,388.693c0.075,-0.124 0.156,-0.23 0.243,-0.318c0.087,-0.086 0.19,-0.152 0.308,-0.196c0.118,-0.043 0.262,-0.074 0.431,-0.093c0.168,-0.019 0.371,-0.028 0.607,-0.028c0.237,0 0.43,0.018 0.579,0.055c0.151,0.038 0.256,0.092 0.319,0.16c0.062,0.068 0.084,0.15 0.065,0.243c-0.019,0.093 -0.072,0.196 -0.159,0.308l-3.253,4.375c-0.088,0.125 -0.165,0.222 -0.234,0.29c-0.068,0.069 -0.147,0.122 -0.233,0.159c-0.088,0.038 -0.194,0.063 -0.318,0.075c-0.126,0.013 -0.281,0.019 -0.467,0.019c-0.188,0 -0.34,-0.016 -0.459,-0.047c-0.119,-0.031 -0.2,-0.075 -0.243,-0.131c-0.044,-0.056 -0.059,-0.128 -0.047,-0.215c0.012,-0.087 0.057,-0.187 0.131,-0.299l2.73,-4.357Zm3.253,15.182c0.037,-1.794 -0.374,-3.197 -1.234,-4.207c-0.86,-1.009 -2.112,-1.514 -3.758,-1.514c-0.847,0 -1.592,0.159 -2.234,0.477c-0.642,0.317 -1.185,0.738 -1.627,1.262c-0.442,0.524 -0.783,1.131 -1.019,1.823c-0.237,0.692 -0.373,1.411 -0.411,2.159l10.283,0Zm2.3,0.655c0,0.449 -0.118,0.757 -0.355,0.925c-0.237,0.168 -0.468,0.252 -0.692,0.252l-11.536,0c0,1.048 0.103,1.995 0.308,2.843c0.206,0.847 0.545,1.574 1.02,2.178c0.473,0.605 1.09,1.069 1.85,1.393c0.761,0.324 1.695,0.485 2.805,0.485c0.785,0 1.489,-0.067 2.113,-0.205c0.623,-0.137 1.162,-0.29 1.617,-0.458c0.455,-0.168 0.829,-0.32 1.122,-0.458c0.292,-0.137 0.501,-0.206 0.627,-0.206c0.074,0 0.142,0.019 0.205,0.057c0.062,0.037 0.112,0.096 0.15,0.177c0.036,0.081 0.065,0.184 0.084,0.308c0.018,0.125 0.027,0.281 0.027,0.468c0,0.087 -0.006,0.171 -0.018,0.252c-0.012,0.082 -0.028,0.157 -0.047,0.224l-0.084,0.197l-0.149,0.187c-0.063,0.062 -0.257,0.171 -0.58,0.327c-0.324,0.156 -0.748,0.312 -1.272,0.468c-0.523,0.156 -1.13,0.296 -1.823,0.421c-0.692,0.124 -1.436,0.186 -2.234,0.186c-1.308,0 -2.468,-0.196 -3.478,-0.589c-1.009,-0.392 -1.857,-0.972 -2.542,-1.738c-0.686,-0.767 -1.207,-1.718 -1.561,-2.852c-0.356,-1.134 -0.533,-2.449 -0.533,-3.945c0,-1.433 0.183,-2.717 0.551,-3.851c0.368,-1.135 0.894,-2.097 1.58,-2.889c0.686,-0.791 1.511,-1.396 2.477,-1.813c0.966,-0.418 2.041,-0.627 3.225,-0.627c1.272,0 2.356,0.212 3.254,0.635c0.898,0.424 1.636,0.995 2.215,1.711c0.58,0.717 1.004,1.549 1.272,2.497c0.268,0.947 0.402,1.944 0.402,2.991l0,0.449Z" style="fill:#fff;fill-rule:nonzero;"/></g></g></svg>