<?xml version="1.0" encoding="UTF-8" standalone="no"?><!DOCTYPE svg PUBLIC "-//W3C//DTD SVG 1.1//EN" "http://www.w3.org/Graphics/SVG/1.1/DTD/svg11.dtd"><svg width="100%" height="100%" viewBox="0 0 900 600" version="1.1" xmlns="http://www.w3.org/2000/svg" xmlns:xlink="http://www.w3.org/1999/xlink" xml:space="preserve" xmlns:serif="http://www.serif.com/" style="fill-rule:evenodd;clip-rule:evenodd;stroke-linejoin:round;stroke-miterlimit:1.41421;"><rect id="logo-persi" x="0" y="0" width="900" height="600" style="fill:none;"/><g><path d="M307.654,291.572l0,-19.449c0,-2.865 -2.324,-5.186 -5.187,-5.186l-55.754,0c-2.866,0 -5.186,2.321 -5.186,5.186l0,19.449c0,0.716 -0.581,1.297 -1.297,1.297l-9.076,0c-0.716,0 -1.297,-0.581 -1.297,-1.297l0,-20.746c0,-8.593 6.966,-15.559 15.56,-15.559l58.347,0c8.594,0 15.559,6.966 15.559,15.559l0,20.746c0,0.716 -0.581,1.297 -1.297,1.297l-9.076,0c-0.716,0 -1.296,-0.581 -1.296,-1.297Zm11.669,37.602c0,8.593 -6.965,15.559 -15.559,15.559l-58.347,0c-8.594,0 -15.56,-6.966 -15.56,-15.559l0,-20.746c0,-0.718 0.581,-1.297 1.297,-1.297l9.076,0c0.716,0 1.297,0.579 1.297,1.297l0,19.449c0,2.865 2.32,5.186 5.186,5.186l55.754,0c2.863,0 5.187,-2.321 5.187,-5.186l0,-19.449c0,-0.718 0.58,-1.297 1.296,-1.297l9.076,0c0.716,0 1.297,0.579 1.297,1.297l0,20.746Zm-9.725,-94.004l-70.016,0c-16.472,0 -29.822,13.351 -29.822,29.822l0,70.016c0,16.471 13.35,29.822 29.822,29.822l70.016,0c16.469,0 29.822,-13.351 29.822,-29.822l0,-70.016c0,-16.471 -13.353,-29.822 -29.822,-29.822Z" style="fill:#fff;fill-rule:nonzero;"/><path d="M501.85,279.095l-44.727,0c-1.055,0 -1.911,0.856 -1.911,1.912l0,11.862c0,1.056 0.856,1.912 1.911,1.912l35.276,0c1.056,0 1.912,0.855 1.912,1.912l0,8.291c0,1.056 -0.856,1.912 -1.912,1.912l-35.276,0c-1.055,0 -1.911,0.856 -1.911,1.912l0,10.228c0,1.056 0.856,1.912 1.911,1.912l44.727,0c1.057,0 1.912,0.856 1.912,1.912l0,8.291c0,1.057 -0.855,1.912 -1.912,1.912l-56.933,0c-1.058,0 -1.913,-0.855 -1.913,-1.912l0,-62.257c0,-1.057 0.855,-1.912 1.913,-1.912l56.933,0c1.057,0 1.912,0.855 1.912,1.912l0,8.289c0,1.057 -0.855,1.912 -1.912,1.912Z" style="fill:#fff;fill-rule:nonzero;"/><path d="M569.58,295.018c1.054,0 1.91,-0.856 1.91,-1.912l0,-12.007c0,-1.055 -0.856,-1.912 -1.91,-1.912l-37.937,0c-1.056,0 -1.912,0.857 -1.912,1.912l0,12.007c0,1.056 0.856,1.912 1.912,1.912l37.937,0Zm14.1,34.904c1.046,1.243 0.161,3.141 -1.463,3.141l-10.846,0c-0.565,0 -1.101,-0.249 -1.464,-0.681l-17.944,-24.57c-0.363,-0.432 -0.899,-0.681 -1.462,-0.681l-18.858,0c-1.056,0 -1.912,0.856 -1.912,1.912l0,22.108c0,1.057 -0.856,1.912 -1.912,1.912l-8.292,0c-1.058,0 -1.913,-0.855 -1.913,-1.912l0,-62.166c0,-1.056 0.855,-1.912 1.913,-1.912l51.322,0c7.065,0 12.85,5.783 12.85,12.757l0,14.544c0,6.976 -5.785,12.757 -12.85,12.757l-3.582,0l16.413,22.791Z" style="fill:#fff;fill-rule:nonzero;"/><path d="M680.04,266.982l8.288,0c1.056,0 1.912,0.855 1.912,1.912l0,62.257c0,1.057 -0.856,1.912 -1.912,1.912l-8.288,0c-1.058,0 -1.914,-0.855 -1.914,-1.912l0,-62.257c0,-1.057 0.856,-1.912 1.914,-1.912Z" style="fill:#fff;fill-rule:nonzero;"/><path d="M419.518,293.106c0,1.056 -0.856,1.912 -1.912,1.912l-37.937,0c-1.057,0 -1.912,-0.856 -1.912,-1.912l0,-12.007c0,-1.055 0.855,-1.912 1.912,-1.912l37.937,0c1.056,0 1.912,0.857 1.912,1.912l0,12.007Zm-41.761,15.937c0,-1.056 0.855,-1.912 1.912,-1.912l39.206,0c7.065,0 12.848,-5.781 12.848,-12.755l0,-14.546c0,-6.974 -5.783,-12.757 -12.848,-12.757l-51.32,0c-1.058,0 -1.914,0.856 -1.914,1.912l0,62.166c0,1.057 0.856,1.912 1.914,1.912l8.29,0c1.056,0 1.912,-0.855 1.912,-1.912l0,-22.108Z" style="fill:#fff;fill-rule:nonzero;"/><path d="M650.92,294.781l-39.299,0c-1.056,0 -1.91,-0.858 -1.91,-1.912l0,-11.907c0,-1.056 0.854,-1.912 1.91,-1.912l48.232,0c1.056,0 1.912,-0.855 1.912,-1.912l0,-8.289c0,-1.057 -0.856,-1.912 -1.912,-1.912l-8.933,0l-40.57,0c-7.045,0 -12.757,5.712 -12.757,12.756l0,14.445c0,7.046 5.712,12.758 12.759,12.758l39.254,0c0.996,0.011 1.788,0.787 1.864,1.765l0,10.508c-0.073,0.925 -0.788,1.648 -1.71,1.734l-39.408,0l-8.935,0c-1.054,0 -1.912,0.856 -1.912,1.912l0,8.293c0,1.055 0.858,1.91 1.912,1.91l49.503,0c6.974,0 12.757,-5.691 12.757,-12.758l0,-12.722c0,-7.068 -5.783,-12.757 -12.757,-12.757Z" style="fill:#fff;fill-rule:nonzero;"/></g></svg>