<?xml version="1.0" encoding="UTF-8" standalone="no"?><!DOCTYPE svg PUBLIC "-//W3C//DTD SVG 1.1//EN" "http://www.w3.org/Graphics/SVG/1.1/DTD/svg11.dtd"><svg width="100%" height="100%" viewBox="0 0 1200 744" version="1.1" xmlns="http://www.w3.org/2000/svg" xmlns:xlink="http://www.w3.org/1999/xlink" xml:space="preserve" xmlns:serif="http://www.serif.com/" style="fill-rule:evenodd;clip-rule:evenodd;stroke-linejoin:round;stroke-miterlimit:2;"><rect id="logo-cityupdate" x="0" y="0" width="1200" height="744" style="fill:none;"/><g><path d="M358.66,332.838c-0.248,-0.19 -0.372,-0.285 -0.372,-0.285c-0.9,-0.713 -1.796,-1.422 -2.694,-2.13c-0.963,-0.606 -1.93,-1.212 -2.896,-1.819c-1.863,-1.352 -4.021,-2.14 -6.029,-3.248c-4.79,-2.025 -9.841,-3.504 -15.067,-4.205c-1.794,-0.138 -3.585,-0.275 -5.376,-0.412c-1.746,0.045 -3.49,0.087 -5.234,0.132c-1.736,0.212 -3.475,0.424 -5.211,0.636c-5.231,0.968 -10.312,2.667 -15.137,4.975c-4.774,2.422 -9.13,5.602 -13.136,9.227c-1.247,1.302 -2.492,2.602 -3.74,3.904l-0.024,0.027c-1.113,1.43 -2.226,2.857 -3.338,4.281c-0.968,1.527 -1.938,3.056 -2.909,4.582c-2.582,4.778 -4.65,9.864 -5.89,15.222c-0.361,1.811 -0.611,3.65 -0.955,5.476c-0.137,1.856 -0.274,3.709 -0.412,5.565c0.045,1.804 0.09,3.61 0.138,5.411c0.499,5.525 1.723,10.986 3.644,16.232c2.036,5.204 4.88,10.058 8.245,14.563c1.227,1.42 2.449,2.842 3.674,4.261c0.341,0.325 0.681,0.651 1.022,0.977l2.045,1.953c0.341,0.325 0.681,0.651 1.022,0.976l0.03,0.028c1.489,1.157 2.978,2.315 4.467,3.475c4.71,3.155 9.772,5.835 15.2,7.651c5.495,1.718 11.228,2.719 17.048,2.938c5.735,0.023 11.472,-0.693 17.065,-2.143c5.598,-1.601 10.936,-4.033 15.933,-7.079c2.058,-1.534 4.335,-2.809 6.206,-4.605c0.981,-0.843 1.963,-1.684 2.944,-2.527c0.893,-0.943 1.783,-1.884 2.676,-2.826c0,0 0.497,-0.514 1.485,-1.542l0.653,-0.679c3.333,-3.467 8.846,-3.574 12.311,-0.239c3.345,3.215 3.547,8.479 0.566,11.956l-0.599,0.696l0,0c-0.798,0.928 -1.197,1.39 -1.197,1.39c-1.098,1.265 -2.2,2.529 -3.3,3.794c-1.215,1.155 -2.432,2.312 -3.647,3.47c-2.363,2.41 -5.181,4.283 -7.828,6.376c-6.334,4.321 -13.234,7.85 -20.553,10.305c-7.301,2.295 -14.905,3.617 -22.601,3.914c-7.813,0.107 -15.643,-0.866 -23.249,-2.889c-7.531,-2.12 -14.693,-5.43 -21.378,-9.534c-2.131,-1.499 -4.261,-3.003 -6.386,-4.503l-0.048,-0.035c-1.975,-1.713 -3.949,-3.427 -5.924,-5.141c-1.846,-1.853 -3.617,-3.794 -5.416,-5.71c-5.061,-6.059 -9.397,-12.772 -12.63,-20.039c-3.118,-7.306 -5.244,-15.029 -6.299,-22.947c-0.192,-2.597 -0.379,-5.191 -0.568,-7.786c0.052,-2.691 0.082,-5.393 0.207,-8.089c0.319,-2.68 0.583,-5.376 1.007,-8.05c1.422,-7.918 4.067,-15.601 7.621,-22.866c1.312,-2.339 2.605,-4.707 3.997,-7.009c1.551,-2.198 3.103,-4.396 4.654,-6.591l0.035,-0.047c1.766,-2.031 3.53,-4.061 5.294,-6.092c5.702,-5.775 12.123,-10.911 19.25,-14.95c7.175,-3.924 14.87,-6.902 22.878,-8.748c2.657,-0.502 5.331,-0.936 8.005,-1.372c2.707,-0.197 5.411,-0.397 8.115,-0.594c2.804,0.055 5.62,0.08 8.429,0.229c8.239,0.672 16.374,2.577 24.165,5.501c3.327,1.502 6.792,2.774 9.918,4.692c1.592,0.901 3.198,1.794 4.767,2.737c1.497,1.048 2.996,2.1 4.493,3.15c0,0 0.818,0.587 2.452,1.757c7.279,5.211 8.955,15.339 3.742,22.62c-5.214,7.279 -15.339,8.956 -22.618,3.742l-0.37,-0.272l-1.257,-0.963l-1.115,-0.855Z" style="fill:#fff;"/><path d="M356.637,350.457c2.652,2.524 5.044,5.385 6.952,8.601c1.856,3.228 3.303,6.723 4.206,10.385c0.848,3.669 1.198,7.466 1.018,11.273c-0.244,3.804 -1.038,7.586 -2.332,11.23c-1.345,3.632 -3.266,7.052 -5.581,10.2c-2.39,3.074 -5.176,5.853 -8.364,8.208c-3.228,2.29 -6.77,4.183 -10.555,5.505c-3.794,1.27 -7.765,2.023 -11.804,2.218c-4.033,0.117 -8.102,-0.325 -12.071,-1.325c-3.959,-1.048 -7.77,-2.709 -11.323,-4.844c-3.52,-2.2 -6.69,-4.892 -9.494,-7.98c-2.729,-3.161 -5.091,-6.696 -6.865,-10.55c-1.726,-3.866 -2.934,-7.977 -3.532,-12.206c-0.534,-4.233 -0.482,-8.549 0.164,-12.819c0.709,-4.261 2.053,-8.434 3.939,-12.386c1.938,-3.934 4.49,-7.546 7.434,-10.801l0.227,-0.25c6.019,-6.658 16.297,-7.177 22.957,-1.157c6.658,6.017 7.177,16.297 1.158,22.955c-0.427,0.471 -0.946,0.973 -1.412,1.384c-0.945,0.821 -1.851,1.692 -2.594,2.724c-0.689,1.056 -1.3,2.203 -1.732,3.465c-0.371,1.272 -0.598,2.615 -0.661,3.999c0.008,1.375 0.205,2.757 0.559,4.124c0.402,1.352 1.033,2.631 1.791,3.886c0.848,1.205 1.844,2.35 2.981,3.33c1.18,0.918 2.465,1.744 3.897,2.355c1.442,0.559 2.978,0.956 4.577,1.15c1.602,0.117 3.231,0.033 4.855,-0.257c1.606,-0.339 3.155,-0.933 4.662,-1.694c1.467,-0.825 2.849,-1.883 4.109,-3.1c1.174,-1.27 2.25,-2.665 3.083,-4.239c3.402,-6.301 2.622,-15.054 -2.595,-21.036l-0.251,-0.287c-3.169,-3.635 -2.792,-9.15 0.843,-12.316c3.417,-2.981 8.526,-2.796 11.754,0.255Z" style="fill:#fff;"/><path d="M482.555,387.508c0.419,0 0.838,0.078 1.257,0.237c0.419,0.155 0.821,0.424 1.205,0.811l7.02,7.387c-3.074,4.016 -6.925,7.044 -11.55,9.087c-4.63,2.046 -10.103,3.066 -16.424,3.066c-5.798,0 -10.991,-0.988 -15.584,-2.961c-4.595,-1.973 -8.489,-4.697 -11.684,-8.172c-3.193,-3.475 -5.648,-7.596 -7.359,-12.361c-1.714,-4.767 -2.57,-9.948 -2.57,-15.533c0,-5.693 0.926,-10.924 2.779,-15.691c1.851,-4.767 4.453,-8.878 7.806,-12.336c3.352,-3.457 7.369,-6.146 12.048,-8.07c4.68,-1.918 9.829,-2.878 15.454,-2.878c2.864,0 5.561,0.254 8.093,0.758c2.532,0.506 4.899,1.205 7.099,2.098c2.2,0.888 4.223,1.963 6.077,3.22c1.851,1.258 3.492,2.62 4.924,4.084l-5.972,8.015c-0.386,0.491 -0.838,0.935 -1.362,1.337c-0.524,0.404 -1.257,0.604 -2.2,0.604c-0.629,0 -1.222,-0.14 -1.781,-0.419c-0.559,-0.28 -1.153,-0.619 -1.781,-1.021c-0.629,-0.404 -1.32,-0.838 -2.071,-1.312c-0.751,-0.469 -1.641,-0.905 -2.669,-1.307c-1.03,-0.402 -2.238,-0.743 -3.615,-1.023c-1.382,-0.279 -2.996,-0.419 -4.846,-0.419c-2.934,0 -5.616,0.542 -8.04,1.624c-2.43,1.083 -4.526,2.662 -6.289,4.74c-1.764,2.078 -3.126,4.63 -4.086,7.651c-0.958,3.021 -1.44,6.468 -1.44,10.345c0,3.911 0.532,7.386 1.597,10.424c1.068,3.039 2.517,5.596 4.348,7.674c1.833,2.078 3.974,3.659 6.418,4.739c2.445,1.085 5.064,1.627 7.858,1.627c1.604,0 3.074,-0.078 4.401,-0.237c1.327,-0.155 2.567,-0.419 3.719,-0.783c1.152,-0.37 2.235,-0.856 3.248,-1.467c1.013,-0.611 2.043,-1.39 3.091,-2.333c0.419,-0.349 0.87,-0.638 1.362,-0.863c0.489,-0.227 0.995,-0.342 1.519,-0.342Z" style="fill:#fff;fill-rule:nonzero;"/><path d="M513.724,407.258l-15.611,0l0,-55.11l15.611,0l0,55.11Zm1.467,-71.035c0,2.866 -0.925,5.116 -2.776,6.758c-1.854,1.641 -4.036,2.462 -6.548,2.462c-2.515,0 -4.698,-0.821 -6.549,-2.462c-1.853,-1.642 -2.779,-3.892 -2.779,-6.758c0,-2.864 0.926,-5.117 2.779,-6.758c1.851,-1.641 4.034,-2.462 6.549,-2.462c2.512,0 4.694,0.821 6.548,2.462c1.851,1.641 2.776,3.894 2.776,6.758Z" style="fill:#fff;fill-rule:nonzero;"/><path d="M523.675,338.423l15.611,-2.515l0,16.24l18.754,0l0,12.992l-18.754,0l0,19.382c0,3.283 0.576,5.903 1.729,7.858c1.15,1.956 3.472,2.934 6.965,2.934c1.679,0 3.407,-0.157 5.188,-0.472c1.779,-0.314 3.405,-0.75 4.872,-1.309l2.2,12.153c-1.885,0.771 -3.981,1.432 -6.286,1.991c-2.305,0.556 -5.136,0.838 -8.486,0.838c-4.261,0 -7.788,-0.576 -10.585,-1.731c-2.794,-1.153 -5.026,-2.757 -6.703,-4.817c-1.676,-2.058 -2.848,-4.558 -3.509,-7.491c-0.667,-2.934 -0.996,-6.182 -0.996,-9.744l0,-46.309Z" style="fill:#fff;fill-rule:nonzero;"/><path d="M617.653,352.148c-3.151,10.617 -6.441,20.57 -9.874,29.86c-3.43,9.29 -7.177,18.3 -11.238,27.031c-1.471,3.141 -2.938,5.815 -4.408,8.015c-1.469,2.198 -3.08,4.016 -4.827,5.448c-1.748,1.429 -3.724,2.477 -5.929,3.143c-2.203,0.664 -4.772,0.993 -7.711,0.993c-2.447,0 -4.705,-0.224 -6.768,-0.678c-2.063,-0.457 -3.756,-0.963 -5.088,-1.522l2.724,-12.468c1.609,0.561 3.04,0.943 4.298,1.153c1.257,0.209 2.587,0.314 3.986,0.314c2.794,0 4.942,-0.748 6.446,-2.25c1.499,-1.504 2.776,-3.582 3.827,-6.234c-3.568,-6.985 -7.132,-14.825 -10.695,-23.521c-3.564,-8.696 -6.919,-18.458 -10.063,-29.284l16.554,0c0.701,2.724 1.527,5.675 2.475,8.853c0.945,3.178 1.948,6.389 2.998,9.639c1.051,3.248 2.123,6.409 3.211,9.482c1.085,3.073 2.123,5.865 3.106,8.382c0.908,-2.517 1.856,-5.309 2.838,-8.382c0.983,-3.073 1.949,-6.234 2.894,-9.482c0.946,-3.25 1.859,-6.461 2.734,-9.639c0.878,-3.178 1.664,-6.129 2.367,-8.853l16.143,0Z" style="fill:#fff;fill-rule:nonzero;"/><path d="M655.37,408.725c-5.098,0 -9.499,-0.716 -13.201,-2.151c-3.702,-1.429 -6.757,-3.42 -9.167,-5.969c-2.41,-2.55 -4.191,-5.588 -5.344,-9.115c-1.152,-3.528 -1.726,-7.422 -1.726,-11.682l0,-45.159l16.342,0l0,43.797c0,2.933 0.332,5.43 0.995,7.491c0.664,2.06 1.574,3.737 2.727,5.029c1.15,1.292 2.547,2.218 4.188,2.776c1.639,0.559 3.44,0.838 5.396,0.838c3.981,0 7.212,-1.219 9.691,-3.667c2.477,-2.444 3.72,-6.6 3.72,-12.467l0,-43.797l16.344,0l0,45.159c0,4.26 -0.594,8.172 -1.781,11.734c-1.187,3.562 -3.003,6.618 -5.446,9.168c-2.447,2.549 -5.555,4.522 -9.327,5.919c-3.769,1.395 -8.242,2.096 -13.411,2.096Z" style="fill:#fff;fill-rule:nonzero;"/><path d="M729.025,380.122c0,-4.819 -1.085,-8.679 -3.248,-11.577c-2.165,-2.899 -5.378,-4.348 -9.639,-4.348c-1.399,0 -2.689,0.052 -3.877,0.157c-1.19,0.105 -2.165,0.227 -2.933,0.367l0,28.183c0.978,0.629 2.252,1.153 3.824,1.572c1.572,0.419 3.161,0.628 4.767,0.628c7.401,0 11.106,-4.994 11.106,-14.982Zm15.923,-0.419c0,4.261 -0.522,8.137 -1.569,11.63c-1.048,3.492 -2.587,6.495 -4.61,9.007c-2.028,2.517 -4.541,4.473 -7.544,5.87c-3.006,1.395 -6.461,2.096 -10.372,2.096c-2.166,0 -4.191,-0.21 -6.077,-0.629c-1.886,-0.419 -3.705,-1.013 -5.448,-1.781l0,20.742l-15.611,0l0,-72.604c1.397,-0.419 3.001,-0.821 4.819,-1.207c1.816,-0.382 3.72,-0.714 5.71,-0.993c1.991,-0.277 4.014,-0.507 6.077,-0.681c2.061,-0.175 4.034,-0.262 5.92,-0.262c4.54,0 8.591,0.681 12.153,2.04c3.56,1.362 6.566,3.286 9.011,5.765c2.444,2.48 4.313,5.501 5.605,9.063c1.29,3.562 1.936,7.544 1.936,11.944Z" style="fill:#fff;fill-rule:nonzero;"/><path d="M766.114,379.284c0,4.819 1.08,8.696 3.248,11.629c2.163,2.934 5.376,4.401 9.639,4.401c1.394,0 2.686,-0.052 3.876,-0.157c1.185,-0.105 2.163,-0.227 2.931,-0.367l0,-28.393c-0.977,-0.629 -2.252,-1.153 -3.824,-1.572c-1.571,-0.419 -3.158,-0.628 -4.767,-0.628c-7.404,0 -11.103,5.029 -11.103,15.087Zm35.305,26.193c-1.397,0.419 -3.003,0.82 -4.817,1.202c-1.818,0.387 -3.721,0.716 -5.712,0.998c-1.988,0.277 -4.016,0.506 -6.074,0.681c-2.063,0.175 -4.034,0.262 -5.92,0.262c-4.543,0 -8.591,-0.666 -12.153,-1.991c-3.565,-1.324 -6.569,-3.23 -9.013,-5.71c-2.445,-2.477 -4.313,-5.483 -5.606,-9.013c-1.294,-3.524 -1.94,-7.488 -1.94,-11.889c0,-4.47 0.563,-8.501 1.679,-12.103c1.117,-3.595 2.726,-6.653 4.822,-9.165c2.092,-2.515 4.662,-4.436 7.698,-5.763c3.038,-1.324 6.513,-1.99 10.424,-1.99c2.166,0 4.104,0.209 5.815,0.628c1.712,0.419 3.44,1.013 5.186,1.781l0,-24.935l15.611,-2.515l0,79.522Z" style="fill:#fff;fill-rule:nonzero;"/><path d="M832.956,396.362c1.536,0 3.003,-0.035 4.4,-0.105c1.397,-0.07 2.515,-0.175 3.353,-0.314l0,-11.84c-0.629,-0.139 -1.572,-0.279 -2.829,-0.419c-1.26,-0.139 -2.41,-0.209 -3.458,-0.209c-1.466,0 -2.846,0.087 -4.141,0.262c-1.289,0.174 -2.424,0.506 -3.402,0.995c-0.978,0.489 -1.746,1.15 -2.305,1.988c-0.559,0.838 -0.841,1.889 -0.841,3.146c0,2.447 0.823,4.136 2.465,5.081c1.639,0.943 3.891,1.415 6.758,1.415Zm-1.258,-45.681c4.61,0 8.452,0.524 11.525,1.572c3.071,1.048 5.536,2.549 7.387,4.505c1.848,1.956 3.16,4.331 3.929,7.124c0.768,2.794 1.152,5.903 1.152,9.323l0,32.481c-2.235,0.489 -5.346,1.065 -9.325,1.729c-3.981,0.664 -8.8,0.995 -14.458,0.995c-3.562,0 -6.795,-0.314 -9.691,-0.943c-2.899,-0.628 -5.396,-1.658 -7.492,-3.09c-2.095,-1.432 -3.702,-3.301 -4.819,-5.608c-1.12,-2.303 -1.676,-5.131 -1.676,-8.484c0,-3.213 0.643,-5.937 1.938,-8.172c1.292,-2.235 3.021,-4.017 5.186,-5.344c2.163,-1.327 4.642,-2.287 7.439,-2.881c2.794,-0.591 5.692,-0.893 8.696,-0.893c2.023,0 3.824,0.092 5.396,0.264c1.571,0.175 2.846,0.402 3.824,0.679l0,-1.467c0,-2.651 -0.803,-4.782 -2.41,-6.388c-1.606,-1.607 -4.4,-2.41 -8.382,-2.41c-2.654,0 -5.273,0.192 -7.858,0.576c-2.586,0.384 -4.819,0.928 -6.705,1.624l-1.991,-12.572c0.908,-0.277 2.043,-0.579 3.405,-0.894c1.362,-0.311 2.844,-0.591 4.453,-0.835c1.607,-0.245 3.301,-0.454 5.082,-0.629c1.781,-0.174 3.577,-0.262 5.395,-0.262Z" style="fill:#fff;fill-rule:nonzero;"/><path d="M863.023,338.423l15.611,-2.515l0,16.24l18.754,0l0,12.992l-18.754,0l0,19.382c0,3.283 0.576,5.903 1.728,7.858c1.153,1.956 3.473,2.934 6.968,2.934c1.676,0 3.405,-0.157 5.186,-0.472c1.781,-0.314 3.405,-0.75 4.872,-1.309l2.2,12.153c-1.886,0.771 -3.981,1.432 -6.286,1.991c-2.305,0.556 -5.134,0.838 -8.487,0.838c-4.261,0 -7.788,-0.576 -10.582,-1.731c-2.794,-1.153 -5.029,-2.757 -6.705,-4.817c-1.677,-2.058 -2.847,-4.558 -3.51,-7.491c-0.666,-2.934 -0.995,-6.182 -0.995,-9.744l0,-46.309Z" style="fill:#fff;fill-rule:nonzero;"/><path d="M939.925,374.148c-0.072,-1.325 -0.299,-2.617 -0.681,-3.874c-0.384,-1.258 -0.978,-2.375 -1.784,-3.353c-0.801,-0.978 -1.813,-1.781 -3.036,-2.41c-1.224,-0.629 -2.741,-0.943 -4.56,-0.943c-1.746,0 -3.245,0.297 -4.502,0.891c-1.258,0.593 -2.305,1.379 -3.144,2.357c-0.838,0.978 -1.486,2.113 -1.938,3.405c-0.456,1.295 -0.786,2.602 -0.995,3.927l20.64,0Zm-36.673,5.974c0,-4.889 0.751,-9.167 2.255,-12.837c1.5,-3.664 3.473,-6.72 5.92,-9.165c2.442,-2.445 5.254,-4.296 8.434,-5.553c3.176,-1.257 6.444,-1.886 9.794,-1.886c7.823,0 14.007,2.393 18.547,7.177c4.537,4.785 6.807,11.822 6.807,21.112c0,0.908 -0.032,1.903 -0.104,2.986c-0.07,1.082 -0.138,2.043 -0.207,2.881l-35.413,0c0.349,3.213 1.848,5.762 4.505,7.648c2.652,1.886 6.216,2.829 10.687,2.829c2.861,0 5.672,-0.262 8.434,-0.786c2.756,-0.526 5.011,-1.167 6.758,-1.938l2.095,12.677c-0.838,0.419 -1.956,0.838 -3.353,1.257c-1.399,0.42 -2.953,0.786 -4.662,1.101c-1.714,0.314 -3.547,0.576 -5.5,0.785c-1.956,0.21 -3.914,0.315 -5.868,0.315c-4.961,0 -9.274,-0.734 -12.939,-2.201c-3.667,-1.466 -6.705,-3.474 -9.118,-6.024c-2.407,-2.549 -4.188,-5.57 -5.34,-9.063c-1.153,-3.492 -1.732,-7.264 -1.732,-11.315Z" style="fill:#fff;fill-rule:nonzero;"/></g></svg>